<svg viewBox="0 0 24 24" fill="none" xmlns="http://www.w3.org/2000/svg">
<path opacity="0.44" d="M5.75 2H3.25C2.55964 2 2 2.55964 2 3.25V5.75C2 6.44036 2.55964 7 3.25 7H5.75C6.44036 7 7 6.44036 7 5.75V3.25C7 2.55964 6.44036 2 5.75 2Z" fill="currentColor"/>
<path d="M5.75 9.5H3.25C2.55964 9.5 2 10.0596 2 10.75V13.25C2 13.9404 2.55964 14.5 3.25 14.5H5.75C6.44036 14.5 7 13.9404 7 13.25V10.75C7 10.0596 6.44036 9.5 5.75 9.5Z" fill="currentColor"/>
<path d="M13.25 2H10.75C10.0596 2 9.5 2.55964 9.5 3.25V5.75C9.5 6.44036 10.0596 7 10.75 7H13.25C13.9404 7 14.5 6.44036 14.5 5.75V3.25C14.5 2.55964 13.9404 2 13.25 2Z" fill="currentColor"/>
<path d="M13.25 9.5H10.75C10.0596 9.5 9.5 10.0596 9.5 10.75V13.25C9.5 13.9404 10.0596 14.5 10.75 14.5H13.25C13.9404 14.5 14.5 13.9404 14.5 13.25V10.75C14.5 10.0596 13.9404 9.5 13.25 9.5Z" fill="currentColor"/>
<path d="M20.75 2H18.25C17.5596 2 17 2.55964 17 3.25V5.75C17 6.44036 17.5596 7 18.25 7H20.75C21.4404 7 22 6.44036 22 5.75V3.25C22 2.55964 21.4404 2 20.75 2Z" fill="currentColor"/>
<path d="M20.75 9.5H18.25C17.5596 9.5 17 10.0596 17 10.75V13.25C17 13.9404 17.5596 14.5 18.25 14.5H20.75C21.4404 14.5 22 13.9404 22 13.25V10.75C22 10.0596 21.4404 9.5 20.75 9.5Z" fill="currentColor"/>
<path d="M5.75 17H3.25C2.55964 17 2 17.5596 2 18.25V20.75C2 21.4404 2.55964 22 3.25 22H5.75C6.44036 22 7 21.4404 7 20.75V18.25C7 17.5596 6.44036 17 5.75 17Z" fill="currentColor"/>
<path d="M13.25 17H10.75C10.0596 17 9.5 17.5596 9.5 18.25V20.75C9.5 21.4404 10.0596 22 10.75 22H13.25C13.9404 22 14.5 21.4404 14.5 20.75V18.25C14.5 17.5596 13.9404 17 13.25 17Z" fill="currentColor"/>
<path d="M20.75 17H18.25C17.5596 17 17 17.5596 17 18.25V20.75C17 21.4404 17.5596 22 18.25 22H20.75C21.4404 22 22 21.4404 22 20.75V18.25C22 17.5596 21.4404 17 20.75 17Z" fill="currentColor"/>
</svg>
