<svg viewBox="0 0 24 24" fill="none" xmlns="http://www.w3.org/2000/svg">
<path d="M15.75 21.9939H3.75C3.485 21.9939 3.23 21.8889 3.043 21.701C2.855 21.514 2.75 21.2591 2.75 20.9942V2.9997C2.75 2.73478 2.855 2.47985 3.043 2.29291C3.23 2.10497 3.485 2 3.75 2H15.75C16.546 2 17.309 2.3159 17.871 2.87873C18.434 3.44056 18.75 4.20333 18.75 4.99908V18.9948C18.75 19.7906 18.434 20.5533 17.871 21.1152C17.309 21.678 16.546 21.9939 15.75 21.9939ZM10.741 11.997C10.114 11.947 9.484 12.0259 8.888 12.2279C8.292 12.4298 7.744 12.7517 7.277 13.1726C6.81 13.5935 6.434 14.1053 6.171 14.6771C5.909 15.248 5.765 15.8668 5.75 16.4956C5.771 16.6335 5.837 16.7605 5.939 16.8565C5.991 16.9264 6.065 16.9754 6.15 16.9954H15.327C15.382 16.9984 15.437 16.9904 15.489 16.9704C15.541 16.9514 15.588 16.9214 15.627 16.8835C15.717 16.7755 15.762 16.6365 15.75 16.4956C15.601 13.7204 13.682 11.997 10.741 11.997ZM10.75 6.99848C10.354 6.99848 9.968 7.11544 9.639 7.33537C9.31 7.55531 9.054 7.86721 8.902 8.2331C8.751 8.59799 8.711 8.99986 8.788 9.38775C8.865 9.77563 9.056 10.1315 9.335 10.4114C9.615 10.6913 9.971 10.8813 10.359 10.9583C10.748 11.0362 11.15 10.9963 11.515 10.8453C11.88 10.6943 12.193 10.4374 12.413 10.1085C12.633 9.77963 12.75 9.39374 12.75 8.99787C12.75 8.46803 12.539 7.95918 12.164 7.5843C11.789 7.20941 11.28 6.99848 10.75 6.99848Z" fill="currentColor"/>
<path opacity="0.44" d="M20.4908 2.879C20.0045 2.316 19.3455 2 18.6589 2L16.2733 2.002L16.9315 2.184C17.2916 2.332 17.625 2.561 17.8997 2.879C18.3859 3.442 18.6589 4.205 18.6589 5V19C18.6589 19.796 18.3859 20.559 17.8997 21.121C17.625 21.439 17.2908 21.668 16.9315 21.816L16.25 21.984L18.6589 22C19.3464 22 20.0054 21.684 20.4908 21.121C20.9762 20.558 21.25 19.795 21.25 19V5C21.25 4.204 20.9771 3.441 20.4908 2.879Z" fill="currentColor"/>
</svg>
