<svg viewBox="0 0 24 24" fill="none" xmlns="http://www.w3.org/2000/svg">
<path opacity="0.44" d="M17.2941 22H5.52941C4.59335 22 3.69563 21.6282 3.03374 20.9663C2.37185 20.3044 2 19.4067 2 18.4706L2 6.70593C2 5.76987 2.37185 4.87215 3.03374 4.21025C3.69563 3.54836 4.59335 3.17651 5.52941 3.17651H12.8318C12.5171 4.28481 12.5041 5.45701 12.794 6.57202C13.0839 7.68704 13.6663 8.70442 14.481 9.51908C15.2956 10.3337 16.313 10.9161 17.428 11.206C18.543 11.496 19.7152 11.4829 20.8235 11.1683V18.4706C20.8235 19.4067 20.4517 20.3044 19.7898 20.9663C19.1279 21.6282 18.2302 22 17.2941 22Z" fill="currentColor"/>
<path d="M19.0589 7.88235C20.6832 7.88235 22 6.56554 22 4.94118C22 3.31681 20.6832 2 19.0589 2C17.4345 2 16.1177 3.31681 16.1177 4.94118C16.1177 6.56554 17.4345 7.88235 19.0589 7.88235Z" fill="currentColor"/>
</svg>
