<svg viewBox="0 0 24 24" fill="none" xmlns="http://www.w3.org/2000/svg">
<path d="M10.5309 8.76149C10.541 8.62843 10.6011 8.50411 10.699 8.41345C10.7969 8.32278 10.9255 8.27247 11.059 8.27259H11.1478C11.2795 8.27193 11.4066 8.32036 11.5045 8.40841C11.6023 8.49646 11.6638 8.61782 11.677 8.74879L12.1563 13.5637L15.5935 15.5278C15.6745 15.5741 15.7418 15.6409 15.7886 15.7216C15.8354 15.8022 15.8601 15.8938 15.8601 15.9871V16.0453C15.8601 16.1267 15.8413 16.2069 15.8052 16.2799C15.7691 16.3528 15.7166 16.4164 15.6519 16.4657C15.5872 16.5151 15.512 16.5488 15.4321 16.5644C15.3522 16.5799 15.2698 16.5768 15.1913 16.5554L10.4611 15.2664C10.3421 15.2343 10.2381 15.1616 10.167 15.0609C10.0959 14.9603 10.0622 14.838 10.0716 14.7151L10.5309 8.76149Z" fill="currentColor"/>
<path opacity="0.44" d="M2.34998 12.3488C2.34946 11.4659 2.46975 10.5871 2.70749 9.73682L4.4776 10.2331C4.00694 11.9123 4.11235 13.7007 4.77699 15.3129C5.44163 16.9252 6.6272 18.2683 8.14446 19.1279C9.66173 19.9876 11.4232 20.3142 13.1478 20.0556C14.8724 19.797 16.4607 18.9682 17.6591 17.7014C18.8575 16.4346 19.5971 14.8028 19.7597 13.0665C19.9223 11.3303 19.4985 9.58957 18.5561 8.12228C17.6137 6.65499 16.207 5.54569 14.5604 4.97143C12.9138 4.39716 11.1223 4.39104 9.47177 4.95404L10.5664 6.25818C10.6213 6.32351 10.6569 6.40284 10.6693 6.48728C10.6817 6.57173 10.6703 6.65795 10.6364 6.73629C10.6025 6.81462 10.5475 6.88198 10.4775 6.9308C10.4075 6.97963 10.3253 7.008 10.2401 7.01273L5.76704 7.26547C5.69531 7.27002 5.62352 7.25768 5.55743 7.22944C5.49134 7.20121 5.43279 7.15787 5.38649 7.1029C5.34019 7.04793 5.30743 6.98286 5.29084 6.91293C5.27425 6.843 5.27429 6.77016 5.29097 6.70025L6.33134 2.35218C6.35118 2.26959 6.39353 2.19412 6.45367 2.13414C6.51381 2.07417 6.5894 2.03203 6.67204 2.01242C6.75469 1.99281 6.84115 1.99648 6.92183 2.02304C7.00251 2.04959 7.07425 2.09799 7.12908 2.16285L8.22276 3.46976C10.1315 2.65784 12.2511 2.48254 14.2673 2.96986C16.2834 3.45717 18.089 4.58116 19.4162 6.17521C20.7434 7.76926 21.5217 9.74854 21.6356 11.8197C21.7496 13.8908 21.1932 15.9435 20.0489 17.6735C18.9046 19.4036 17.2333 20.7189 15.2828 21.4245C13.3322 22.1301 11.2062 22.1884 9.21993 21.5908C7.23363 20.9933 5.49274 19.7716 4.2553 18.1069C3.01786 16.4422 2.34974 14.423 2.34998 12.3488Z" fill="currentColor"/>
</svg>
