<svg viewBox="0 0 28 29" fill="none" xmlns="http://www.w3.org/2000/svg">
<g clip-path="url(#clip0_16663_39328)">
<circle cx="14" cy="14.25" r="14" fill="#F72A6E"/>
<path d="M19.7076 19.1547C17.0908 19.1547 15.4723 17.2912 13.6125 14.537C11.7527 11.7828 10.4243 10.0592 8.29238 10.0592C7.23036 10.0537 6.20947 10.4637 5.45366 11.1994C4.69784 11.935 4.2688 12.9362 4.26064 13.9833C4.2688 15.0305 4.69784 16.0317 5.45366 16.7673C6.20947 17.503 7.23036 17.913 8.29238 17.9075C10.0368 17.9075 11.2826 16.6639 12.4549 15.0833L13.2077 16.1827C11.9274 17.8278 10.4477 19.1547 8.29238 19.1547C6.89362 19.1614 5.54931 18.6206 4.55446 17.6511C3.5596 16.6816 2.99547 15.3625 2.98584 13.9833C2.99547 12.6042 3.5596 11.2851 4.55446 10.3156C5.54931 9.34608 6.89362 8.80531 8.29238 8.81195C10.9092 8.81195 12.5956 10.7588 14.3826 13.4248C16.1695 16.0908 17.5764 17.9075 19.7076 17.9075C20.4302 17.9088 21.1399 17.719 21.7627 17.3578C22.3855 16.9966 22.8987 16.4774 23.2488 15.8542H24.6526C24.2592 16.8282 23.5785 17.6635 22.6985 18.2519C21.8184 18.8403 20.7796 19.1548 19.7163 19.1547H19.7076ZM18.713 14.6069V13.3597H23.6875C23.5281 12.4339 23.0405 11.594 22.3116 10.9896C21.5828 10.3851 20.66 10.0554 19.7076 10.0592C17.9626 10.0592 16.7168 11.3033 15.5438 12.8852L14.7873 11.7931C16.0671 10.1431 17.548 8.81195 19.7076 8.81195C21.1064 8.80531 22.4507 9.34608 23.4455 10.3156C24.4404 11.2851 25.0045 12.6042 25.0142 13.9833C25.0137 14.1918 25.0007 14.4 24.9753 14.6069H18.713Z" fill="white"/>
</g>
<defs>
<clipPath id="clip0_16663_39328">
<path d="M0 14.25C0 6.51801 6.26801 0.25 14 0.25C21.732 0.25 28 6.51801 28 14.25C28 21.982 21.732 28.25 14 28.25C6.26801 28.25 0 21.982 0 14.25Z" fill="white"/>
</clipPath>
</defs>
</svg>
