<svg xmlns="http://www.w3.org/2000/svg" viewBox="0 0 743 743" fill="none"><path d="M524.267 136.534c-2.016-1.799-3.327-2.599-4.235-2.599v-.1c-.706 0-1.21.6-1.613 1.6-.404.999.302 2.398 2.117 3.997 1.916 1.599 3.53 2.299 4.74 2.299 2.017 0 2.42-2.199-1.009-5.197" fill="#fff"/><path fill-rule="evenodd" clip-rule="evenodd" d="M351.328 17c18.353 0 45.48 1 53.446 2.299a65 65 0 0 1 10.79 2.498c.504.4 1.714 4.098 2.723 8.096 2.017 6.996 2.017 7.496.201 8.695-.705.6-3.025 1-6.857 1-5.344 0-13.613-.7-24.605-1.9-4.639-.5-10.084-.7-14.824-.7-6.655 0-11.899.4-11.697 1.3.201.6 7.664 1.6 16.638 2.199a377 377 0 0 1 113.245 23.787l8.572 3.498c24.706 9.994 64.841 33.981 80.068 47.973 30.656 28.085 50.219 50.572 65.345 74.958 20.906 32.99 35.057 69.735 41.648 108.14a393 393 0 0 0 4.134 21.788c2.32 10.594 2.421 45.375.101 65.064-6.416 52.727-26.037 103.027-57.076 146.319-17.446 24.086-47.396 55.969-64.135 68.062-13.11 9.495-14.017 10.294-12.101 10.994h.202c3.63 0 23.496-15.092 40.941-31.483 7.059-6.496 10.79-9.594 12.504-9.594 1.412 0 1.513 1.799.807 5.297-1.008 5.497-3.832 9.395-11.899 16.391-4.034 3.498-11.597 10.494-16.841 15.691a310 310 0 0 1-15.63 14.292c-6.656 5.497-16.841 15.991-16.135 16.591h.202c1.513 0 11.597-5.997 18.252-10.994 4.135-3.198 5.95-4.298 7.362-4.298.504 0 1.008.2 1.512.4 3.026 1.299 4.236 7.196 2.118 10.394a104.9 104.9 0 0 1-27.227 17.491c-2.26.876-5.142 2.085-8.017 3.29l-.006.002-.01.005-.009.004-.023.009c-3.01 1.262-6.008 2.519-8.271 3.386-4.437 1.999-9.076 3.698-10.589 4.098s-4.336 1.999-6.555 3.498-6.05 3.598-8.571 4.497c-2.521.9-5.647 2.799-7.059 3.998-1.513 1.299-3.025 2.399-3.529 2.399-.505 0-3.429-2.699-6.656-5.997-3.025-3.298-6.454-5.997-7.261-5.997-.806 0-5.445 1.3-10.386 2.999a357 357 0 0 1-41.648 10.993c-7.655 1.265-9.499 1.818-11.039 4.24l6.601 5.055-.504 3.698c-.726 4.767-1.697 6.539-2.105 7.283q-.068.124-.114.213l-1.008 1.099c-2.42 2.499-5.647 2.799-10.488 2.999l-20.168 1.299a244.4 244.4 0 0 1-51.833-1.599c-5.142-.8-9.68-1.299-11.092-1.299-3.53 0-7.664-.3-11.093-2.599-2.42-1.699-5.243-4.897-5.243-10.994v-3.498l6.89-3.415a345.4 345.4 0 0 1-53.478-13.176c-4.235-1.299-7.059-1.998-9.378-1.998-3.328 0-5.446 1.499-8.672 4.797l-3.832 3.998-4.841-2.499a54 54 0 0 0-6.756-2.998c-1.513-.5-1.614-.9-.605-1.999 1.109-1.399.605-1.599-3.53-1.599-3.428 0-6.252-.8-9.277-2.599-2.42-1.399-6.757-3.398-9.681-4.397l-14.824-5.397a47.7 47.7 0 0 0-12.101-3.399c-5.042 0 7.866 8.696 32.068 20.389a223 223 0 0 0 20.37 9.095c3.832.7 3.832 2.399.101 6.497-1.916 2.098-3.832 3.198-6.454 3.198a40.6 40.6 0 0 1-15.025-4.997 368.4 368.4 0 0 1-55.06-32.682c-2.924-2.699-2.823-6.397.202-14.692a420 420 0 0 0 5.042-14.692l2.42-8.195-6.252-4.798a373 373 0 0 1-34.286-33.581c-2.723-3.298-4.74-4.797-8.068-4.797-1.916 0-4.235.499-7.462 1.499-15.126 4.597-21.48 6.496-24.807 6.496-2.218 0-3.025-.799-4.336-2.199-9.883-10.594-39.63-60.966-39.63-67.262 0-1.499 2.42-4.498 7.36-8.995 9.682-8.995 18.858-18.49 18.858-19.39a1794 1794 0 0 1-15.126-48.173c-1.614-5.397-2.925-10.394-2.925-11.194 0-1.699-3.73-2.998-14.117-4.997-11.698-2.199-22.085-5.597-23.194-7.496-2.017-3.798-3.025-19.889-3.025-47.573q0-2.443-.003-4.651c-.016-19.232-.022-25.457 3.106-28.162 1.496-1.295 3.71-1.784 6.983-2.508q.767-.168 1.611-.359l14.42-3.598 6.455-1.699 1.31-8.995c2.32-17.391 6.858-37.68 11.8-52.971l3.63-10.994-2.824-1.999a82.2 82.2 0 0 1-15.328-14.991 300.2 300.2 0 0 1 31.26-57.868c7.06-10.494 9.278-13.693 12.404-13.693 1.21 0 2.622.5 4.437 1.2a78.4 78.4 0 0 0 15.328 3.997c1.109 0 4.235-2.898 7.362-6.896 7.764-9.395 29.849-31.382 40.437-39.978 4.84-3.997 8.773-7.795 8.773-8.395 0-.5-1.008-4.997-2.622-9.994l-.02-.073c-1.871-6.656-2.842-10.11-1.86-12.895 1.06-3.004 4.392-5.23 11.318-9.857l.243-.163a211 211 0 0 1 25.211-14.891 251 251 0 0 1 32.067-15.891c2.219 0 4.235 1.998 4.235 3.997 0 1.1-2.319 2.699-6.756 4.498-13.311 5.597-53.748 28.984-53.748 31.183 0 .3.201.5.705.5 2.017 0 8.874-3.499 19.463-9.895 21.177-12.893 39.53-22.288 43.563-22.288 2.723 0 4.337 1 8.269 4.997l5.042 4.798 11.093-3.898a370 370 0 0 1 52.538-12.993c6.656-1.2 12.908-2.499 13.816-2.998.907-.5 5.647-.9 10.487-.9 4.841 0 8.572-.3 8.168-.6-.302-.3-4.638-.699-9.479-.799h-8.874l.303-4.997c.201-2.899 1.008-5.697 1.613-6.397 1.815-1.799 16.236-3.897 32.37-4.597 17.143-.8 27.228-1.6 27.631-2.199.302-.2 0-.9-.605-1.5-.605-.599-6.151-.799-13.412-.799-13.815 0-33.58.9-37.311 2.1-2.017.599-3.832.999-5.042.999-.505 0-.807 0-1.009-.2-1.815-1-.504-3.798 2.219-4.997 1.311-.6 8.369-.8 17.546-.8M233.747 89.76c1.311 0 3.428-.5 6.151-1.5 2.824-.999 6.051-1.499 8.37-1.499 1.614 0 2.824.3 3.126.8s-1.815 1.999-4.739 3.198a298 298 0 0 0-36.001 18.29l-21.681 13.193c-11.496 6.996-18.151 11.693-25.513 17.79-2.319 1.999-5.243 3.997-6.554 4.297-2.925 1-3.933 2.499-2.521 4.098 1.21 1.499-3.933 9.695-9.379 14.792-1.613 1.599-2.42 2.298-3.025 2.298-.403 0-.807-.399-1.311-.999-.907-1.199-1.613-1.699-2.017-1.699a296 296 0 0 1-21.378 34.581c-4.639 6.696-9.983 15.291-11.899 19.189-2.017 3.798-4.74 8.595-6.252 10.694a249 249 0 0 0-22.387 50.372c-3.328 10.394-5.85 23.987-4.942 26.386.404.999 1.11 1.599 2.017 1.599 1.614 0 3.63-1.3 5.647-3.598 6.555-7.296 9.177-12.693 14.219-28.884 2.824-8.795 6.05-17.691 7.059-19.989.4-.793 1.753-4.293 3.302-8.301.403-1.043.819-2.12 1.236-3.193 14.338-34.454 36.409-65.216 64.538-89.95 37.295-32.697 82.609-55.101 131.397-64.964 15.429-2.998 35.799-4.597 56.169-4.597 20.672 0 41.244 1.599 56.471 4.797 23.496 4.997 60.807 21.588 65.043 28.984 1.31 2.499 1.31 2.998 0 4.298-2.32 2.198-9.883 3.698-18.354 3.698-2.117 0-4.336 0-6.554-.3a261 261 0 0 0-77.648 5.597 159 159 0 0 0-34.589 12.793c-2.071.957-6.884 2.946-12.173 5.132l-.004.001-.002.001c-2.434 1.006-4.97 2.053-7.384 3.061a282 282 0 0 0-46.589 22.487 266 266 0 0 0-23.193 16.191c-10.085 7.596-20.875 17.991-40.236 38.479a35.5 35.5 0 0 1-6.757 6.297c-2.319 0 0-4.398 6.757-12.993a220.7 220.7 0 0 1 48.505-44.475c28.235-19.49 34.689-24.687 34.689-27.585 0-1.1-.202-1.699-1.311-1.699-1.513 0-4.336.799-10.286 2.698a309.3 309.3 0 0 0-65.547 30.683c-47.323 31.305-81.855 78.286-97.413 132.527-6.05 21.987-8.067 35.38-8.672 58.967-.706 29.184 1.714 50.072 8.874 74.658 9.973 33.074 26.42 63.877 48.404 90.65 22.724 26.637 50.913 48.17 82.69 63.165 39.009 18.652 81.836 28.126 125.144 27.685 21.984.099 28.538.799 18.253 1.998a239 239 0 0 1-22.186.3h-5.445c-12.807 0-16.437.7-8.773 1.799 7.818.582 15.665.682 23.496.3l.082-.001c18.877-.299 19.078-.302 18.876-2.498-.202-1.998.303-2.198 7.563-2.798 37.11-2.998 44.572-4.397 61.715-10.994l20.168-7.796c27.631-10.594 57.178-26.985 83.296-46.274 13.512-9.994 35.899-31.182 46.084-43.676 31.249-38.415 50.398-85.097 55.06-134.225.605-7.196 1.31-13.692 1.613-14.492.303-.799 1.21-4.597 2.017-8.395a24.85 24.85 0 0 1 3.832-9.695c5.042-5.897 4.336-35.48-1.412-63.165-2.521-11.893-10.992-38.978-15.832-50.672a314.2 314.2 0 0 0-44.875-75.158c-9.277-11.593-38.218-40.477-42.756-42.676-1.614-.8-4.942-2.998-7.463-5.197a266 266 0 0 0-44.168-26.585 99.3 99.3 0 0 0-19.563-8.096c-1.009 0 .302 1.2 4.537 3.798 3.127 1.999 5.748 3.998 5.748 4.297 0 .9-.806 1.3-1.916 1.3-1.008 0-2.319-.3-3.63-1-1.21-.6-2.521-1-3.328-1a1 1 0 0 0-.504.1c-1.008.7 5.647 7.697 10.185 10.395 1.714 1.2 3.227 2.499 3.227 2.998 0 .6-.403.9-1.008.9q-2.27 0-7.866-3.298a342 342 0 0 0-52.841-22.288 308.8 308.8 0 0 0-97.514-15.191c-15.933 0-32.571.8-42.353 2.198a205 205 0 0 1-19.462 2.499c-1.513 0-1.816-.3-1.816-.8 0-.6 1.311-.999 3.026-.999s4.739-.8 7.059-1.6c2.319-.799 5.546-1.498 7.058-1.498 1.513 0 3.832-.8 5.043-1.8 2.117-1.698 4.134-8.395 3.227-10.993-.202-.7-.606-1-1.513-1-.706 0-1.714.2-3.227.5l-18.152 3.398c-15.63 2.999-32.269 7.496-44.37 11.993l-5.748 2.1 5.345 5.396c3.025 2.999 5.143 5.497 4.84 5.797-.201.2-3.025 1.1-6.454 1.999-8.874 2.499-22.689 8.695-22.689 10.294 0 .8.605 1.3 2.017 1.3m252.16-14.792c2.684-.02 3.988-1.42 5.49-4.298 1.008-1.699 1.412-2.998 1.311-2.998l-8.874-2.998a324 324 0 0 0-60.404-15.992c-1.009 0-.404 6.497 1.109 9.195.504 1 2.118 2 3.63 2.299 9.883 1.999 38.723 9.295 47.396 12.193 5.008 1.688 8.126 2.587 10.342 2.599m0 0h.044-.1zm-311.152 45.375c.806 0 7.664-6.297 15.63-14.193 8.067-7.995 14.42-14.492 14.118-14.492-2.824.3-16.135 10.495-26.017 19.989-5.042 4.698-6.353 7.796-3.731 8.696m-51.329 48.273c1.311 0 4.841-2.799 8.975-6.896 5.042-5.198 8.975-7.896 11.093-7.896.706 0 1.21.3 1.512.8q.152.299.605.299c.706 0 1.916-.699 3.53-1.999 1.916-1.799 3.126-3.498 2.622-3.897h-.303c-.706 0-2.017.799-3.428 2.098-1.311 1.3-2.219 1.999-2.622 1.999-.303 0-.404-.299-.404-.599 0-2.799 4.135-7.996 8.774-10.994 6.252-4.198 18.454-16.791 18.454-18.99 0-.899-.706-2.198-1.614-2.998-.807-.7-2.218-2.499-3.025-3.998-.807-1.599-1.815-2.898-2.219-2.898-1.109.1-10.588 8.095-22.689 19.189a281.4 281.4 0 0 0-29.95 32.782c0 .999 8.067 3.998 10.689 3.998M51.022 319.532c4.034 0 5.345-2.399 7.26-12.793 1.917-10.694 6.152-25.786 11.194-39.978 1.614-4.597 2.924-8.795 2.924-9.195 0-.499-1.411-2.498-3.126-4.497-1.714-1.899-3.53-3.498-4.033-3.498-2.118 0-10.084 29.283-13.614 49.972-2.924 17.59-3.025 19.989-.605 19.989m273.481 364.797 2.823 2.099c4.236 3.098 11.496 3.998 39.026 4.597 5.242.2 10.283.2 14.92.2h.005c18.958 0 32.471-1.099 37.412-3.198l3.428-1.399-.504 3.598c-.302 1.999-.807 3.998-1.008 4.197-.303.3-2.622.5-5.143.6l-20.37 1.299a238.5 238.5 0 0 1-49.917-1.499c-4.437-.699-9.983-1.399-12.403-1.399-6.252 0-8.269-1.399-8.269-5.597z" fill="#fff"/><path d="M526.485 62.175c-10.588-5.097-16.638-7.396-19.664-7.396-1.008 0-1.714.3-2.117.7-1.614 1.599-.404 3.198 3.126 4.398 2.017.6 12.907 5.596 24.202 10.993 11.193 5.397 20.672 9.895 21.176 9.895.404-.1-2.016-2.599-5.344-5.597a81.5 81.5 0 0 0-21.379-12.993m202.088 292.138.303 1.299a125 125 0 0 1-.303 28.484c-.302 0-.403-4.997-.403-14.991s.101-14.792.403-14.792m-43.058 140.722c0-1.899-.404-3.498-.908-3.498a80.7 80.7 0 0 0-8.067 13.592 386.5 386.5 0 0 1-43.463 64.864c-1.714 1.099-1.109 2.599 1.109 2.599 1.4.051 2.774.392 4.034.999.807.4 1.513.7 2.219.7 2.42 0 4.538-2.499 8.067-8.596l11.798-20.188c13.211-22.488 25.211-46.475 25.211-50.472m-8.366 35.68c.706 0 1.311.699 1.311 2.398 0 2.499-7.362 17.091-13.816 27.185q-.324.536-.633 1.042l-.477.784c-1.282 2.102-2.217 3.635-2.217 3.871 0 .3-1.614 2.998-3.53 5.997-2.42 3.598-4.235 5.497-5.546 5.497q-4.689 0 2.117-8.995c2.219-2.999 6.152-9.295 8.673-13.993l7.563-13.492a106 106 0 0 0 4.134-7.796c.706-1.699 1.715-2.598 2.421-2.598zm3.33 24.386c0-1.499-2.017-3.598-3.53-3.598-.605 0-1.613 1.199-2.218 2.698-2.118 4.798-12.404 20.689-14.521 22.488l-2.118 1.799 2.723 1.199c1.008.4 1.815.7 2.621.7.605 0 1.211-.2 1.715-.5a152.7 152.7 0 0 0 15.328-24.786m-97.618 86.552c1.412 0 2.319 1.1 3.327 3.398 2.219 5.197 2.017 7.796-1.21 11.094-7.26 7.596-61.614 36.48-68.37 36.48h-.303a35 35 0 0 1-10.285-8.396c0-.399 3.025-1.998 6.857-3.897a379 379 0 0 0 63.631-35.481c3.025-2.098 4.84-3.198 6.353-3.198m-255.033 66.766 12.303 1.499a663 663 0 0 0 74.118 1.199h1.311c2.017 0 2.319.5 2.521 2.799.403 4.497-2.924 9.095-7.261 9.994a360 360 0 0 1-44.471 1.999c-11.193-.4-28.739-1.999-31.966-2.998-2.219-.8-6.858-8.695-6.858-11.893 0-1.4.101-2.599.303-2.599" fill="#fff"/></svg>