<svg xmlns="http://www.w3.org/2000/svg" width="24" height="24.002" viewBox="0 0 24 24.002">
  <g id="icon_2_" data-name="icon (2)" transform="translate(-0.019)">
    <g id="Group_609" data-name="Group 609" transform="translate(0.019)">
      <path id="Path_387" data-name="Path 387" d="M21.747,0H2.292A2.276,2.276,0,0,0,.019,2.273V21.729A2.275,2.275,0,0,0,2.292,24H21.747a2.274,2.274,0,0,0,2.272-2.273V2.273A2.274,2.274,0,0,0,21.747,0Zm.325,21.729a.326.326,0,0,1-.325.325H2.292a.327.327,0,0,1-.325-.325V2.273a.325.325,0,0,1,.325-.325H21.747a.325.325,0,0,1,.325.325Z" transform="translate(-0.019)" fill="#fff"/>
      <path id="Path_388" data-name="Path 388" d="M80.943,73.149H65.963a.546.546,0,0,0-.546.546v1.92a.546.546,0,0,0,.546.546H80.943a.546.546,0,0,0,.546-.546v-1.92A.546.546,0,0,0,80.943,73.149Z" transform="translate(-61.453 -68.715)" fill="#fff"/>
      <path id="Path_389" data-name="Path 389" d="M80.943,173.149H65.963a.546.546,0,0,0-.546.546v1.92a.545.545,0,0,0,.546.546H80.943a.545.545,0,0,0,.546-.546v-1.92A.546.546,0,0,0,80.943,173.149Z" transform="translate(-61.453 -162.653)" fill="#fff"/>
      <path id="Path_390" data-name="Path 390" d="M80.943,273.148H65.963a.545.545,0,0,0-.546.546v1.92a.545.545,0,0,0,.546.546H80.943a.545.545,0,0,0,.546-.546v-1.92A.546.546,0,0,0,80.943,273.148Z" transform="translate(-61.453 -256.591)" fill="#fff"/>
    </g>
  </g>
</svg>
