<svg viewBox="0 0 24 24" fill="none" xmlns="http://www.w3.org/2000/svg">
<path d="M10.5309 8.76149C10.5411 8.62843 10.6011 8.50411 10.699 8.41345C10.797 8.32278 10.9255 8.27247 11.059 8.27259H11.1479C11.2795 8.27193 11.4066 8.32036 11.5045 8.40841C11.6023 8.49646 11.6638 8.61782 11.677 8.74879L12.1564 13.5637L15.5935 15.5278C15.6745 15.5741 15.7418 15.6409 15.7886 15.7216C15.8355 15.8022 15.8601 15.8938 15.8602 15.9871V16.0453C15.8601 16.1267 15.8413 16.2069 15.8052 16.2799C15.7691 16.3528 15.7166 16.4164 15.6519 16.4657C15.5872 16.5151 15.512 16.5488 15.4321 16.5644C15.3522 16.5799 15.2699 16.5768 15.1914 16.5554L10.4611 15.2664C10.3421 15.2343 10.2381 15.1616 10.167 15.0609C10.0959 14.9603 10.0622 14.838 10.0717 14.7151L10.5309 8.76149Z" fill="white"/>
<path opacity="0.44" d="M2.35001 12.3488C2.34949 11.4659 2.46978 10.5871 2.70752 9.73682L4.47763 10.2331C4.00697 11.9123 4.11238 13.7007 4.77702 15.3129C5.44166 16.9252 6.62723 18.2683 8.14449 19.1279C9.66176 19.9876 11.4233 20.3142 13.1478 20.0556C14.8724 19.797 16.4607 18.9682 17.6591 17.7014C18.8576 16.4346 19.5971 14.8028 19.7597 13.0665C19.9223 11.3303 19.4986 9.58957 18.5562 8.12228C17.6138 6.65499 16.207 5.54569 14.5604 4.97143C12.9138 4.39716 11.1223 4.39104 9.4718 4.95404L10.5664 6.25818C10.6213 6.32351 10.657 6.40284 10.6693 6.48728C10.6817 6.57173 10.6703 6.65795 10.6365 6.73629C10.6026 6.81462 10.5476 6.88198 10.4776 6.9308C10.4076 6.97963 10.3253 7.008 10.2401 7.01273L5.76707 7.26547C5.69534 7.27002 5.62355 7.25768 5.55746 7.22944C5.49137 7.20121 5.43282 7.15787 5.38652 7.1029C5.34022 7.04793 5.30746 6.98286 5.29087 6.91293C5.27428 6.843 5.27432 6.77016 5.291 6.70025L6.33137 2.35218C6.35121 2.26959 6.39356 2.19412 6.4537 2.13414C6.51384 2.07417 6.58943 2.03203 6.67207 2.01242C6.75472 1.99281 6.84118 1.99648 6.92186 2.02304C7.00254 2.04959 7.07428 2.09799 7.12911 2.16285L8.2228 3.46976C10.1315 2.65784 12.2511 2.48254 14.2673 2.96986C16.2835 3.45717 18.089 4.58116 19.4162 6.17521C20.7434 7.76926 21.5217 9.74854 21.6357 11.8197C21.7496 13.8908 21.1932 15.9435 20.0489 17.6735C18.9046 19.4036 17.2334 20.7189 15.2828 21.4245C13.3323 22.1301 11.2063 22.1884 9.21996 21.5908C7.23366 20.9933 5.49277 19.7716 4.25533 18.1069C3.01789 16.4422 2.34977 14.423 2.35001 12.3488Z" fill="white"/>
</svg>
