<svg xmlns="http://www.w3.org/2000/svg" width="22.222" height="20" viewBox="0 0 22.222 20">
  <path id="Path_393" data-name="Path 393" d="M190.185,100.476a10,10,0,1,1,.737,8.428,1.111,1.111,0,1,1,1.923-1.113,7.776,7.776,0,1,0-.761-5.963l1.947-1.111a1.111,1.111,0,0,1,1.1,1.929l-3.889,2.222a1.112,1.112,0,0,1-1.54-.458l-2.222-4.337a1.111,1.111,0,0,1,1.978-1.013Zm10.508,2.967,3.008,3.008a1.111,1.111,0,1,1-1.571,1.571l-3.333-3.333a1.11,1.11,0,0,1-.326-.786V99.459a1.111,1.111,0,0,1,2.222,0Z" transform="translate(-187.359 -93.903)" fill="currentColor" fill-rule="evenodd"/>
</svg>
