<svg viewBox="0 0 40 40" fill="none" xmlns="http://www.w3.org/2000/svg"><path d="M25 33.325H9a1.33 1.33 0 0 1-1.333-1.333V8A1.33 1.33 0 0 1 9 6.667h16c1.061 0 2.079.421 2.828 1.171A3.993 3.993 0 0 1 29 10.665v18.662a3.993 3.993 0 0 1-1.172 2.827A3.995 3.995 0 0 1 25 33.325zm-6.679-13.329a6.17 6.17 0 0 0-6.654 5.998.832.832 0 0 0 .252.481c.069.094.168.159.281.186h12.236a.52.52 0 0 0 .216-.034.52.52 0 0 0 .184-.116c.12-.144.18-.329.164-.517-.199-3.7-2.757-5.998-6.679-5.998zm.012-6.665a2.662 2.662 0 0 0-2.464 1.646 2.67 2.67 0 0 0 .578 2.905c.373.373.848.627 1.365.73a2.662 2.662 0 0 0 2.739-1.134 2.661 2.661 0 0 0-.332-3.366c-.5-.5-1.179-.78-1.886-.78z" fill="currentColor"/><path opacity=".44" d="M31.321 7.839c-.648-.75-1.527-1.172-2.443-1.172l-3.18.002.877.243c.48.197.925.503 1.291.927.649.75 1.012 1.768 1.012 2.828v18.666c0 1.062-.363 2.08-1.012 2.828-.366.424-.812.73-1.29.927l-.91.224 3.212.021c.917 0 1.796-.42 2.443-1.172.647-.75 1.012-1.768 1.012-2.828V10.667c0-1.062-.364-2.079-1.012-2.828z" fill="currentColor"/></svg>