<svg viewBox="0 0 24 24" fill="none" xmlns="http://www.w3.org/2000/svg"><path d="M15.083 23.113c3.667-1.579 6.528-5.23 6.914-8.928.38-3.644-.021-8.56-.038-8.767l-.056-.672-.649-.185c-.018-.005-1.883-.539-3.236-1.116-1.713-.73-3.445-1.734-3.462-1.744l-1.158-.673a.204.204 0 0 0-.306.176v1.34c0 .374.21.697.517.861.259.15 1.93 1.102 3.644 1.833.956.408 2.104.783 2.81 1.002.096 1.457.278 5.036-.005 7.743-.16 1.535-.886 3.146-2.043 4.534a10.322 10.322 0 0 1-2.932 2.429v2.167z" fill="currentColor"/><path d="M12.188 15.86H10.6a1.25 1.25 0 0 1-1.249-1.287c.02-.68.596-1.211 1.276-1.211h3.023c1.762 0 3.223-1.407 3.24-3.168a3.202 3.202 0 0 0-3.199-3.23l-1.52.01a.95.95 0 0 1-.946-.95V1.22a.204.204 0 0 0-.306-.177l-1.154.662c-.017.01-1.77 1.012-3.498 1.745-1.36.578-3.206 1.107-3.225 1.113l-.652.186-.052.676c-.016.21-.387 5.162-.007 8.803.2 1.915 1.08 3.888 2.48 5.557 1.37 1.633 3.171 2.903 5.071 3.576l1.029.364a.204.204 0 0 0 .271-.192V22.44c0-.433-.282-.8-.673-.927-1.568-.561-3.06-1.62-4.204-2.982-1.153-1.375-1.876-2.975-2.035-4.508-.283-2.707-.119-6.316-.032-7.786.702-.217 1.836-.589 2.791-.994.803-.341 1.599-.73 2.246-1.063v1.844c0 1.598 1.3 2.897 2.898 2.897l1.52-.008a1.25 1.25 0 0 1 1.247 1.288c-.02.679-.596 1.21-1.275 1.21H10.6a3.202 3.202 0 0 0-3.199 3.23c.018 1.762 1.479 3.168 3.24 3.168h1.547a.95.95 0 0 1 .948.947l-.004 3.693v1.09c0 .142.14.24.272.193l1.028-.364c.22-.078.436-.164.65-.256v-4.467a2.9 2.9 0 0 0-2.894-2.786z" fill="currentColor"/></svg>