<svg viewBox="0 0 48 49" fill="none" xmlns="http://www.w3.org/2000/svg">
<path opacity="0.5" d="M24.8942 2.95517C24.7073 2.6573 24.4435 2.4124 24.1293 2.24485C23.8151 2.07731 23.4613 1.99297 23.1033 2.00025C22.7452 2.00753 22.3954 2.10616 22.0886 2.28633C21.7818 2.4665 21.5288 2.72191 21.3548 3.02711L4.25832 33.0295C4.08475 33.3339 3.99575 33.6771 4.00016 34.0253C4.00456 34.3735 4.1022 34.7146 4.28342 35.0146C4.46463 35.3147 4.72312 35.5634 5.03326 35.7361C5.34341 35.9087 5.69444 35.9994 6.05158 35.999H41.9517C42.3156 35.9988 42.6729 35.9041 42.9868 35.7247C43.3008 35.5453 43.5601 35.2876 43.7381 34.9782C43.9161 34.6687 44.0064 34.3186 43.9996 33.9638C43.9929 33.6091 43.8895 33.2624 43.6999 32.9596L24.8942 2.95517Z" fill="#FF2B5E"/>
<path d="M25.3999 13.9995C25.3999 12.895 24.5045 11.9996 23.3999 11.9996C22.2953 11.9996 21.3999 12.895 21.3999 13.9995V23.9993C21.3999 25.1038 22.2953 25.9992 23.3999 25.9992C24.5045 25.9992 25.3999 25.1038 25.3999 23.9993V13.9995Z" fill="#FF2B5E"/>
<path d="M25.3999 29.9992C25.3999 28.8946 24.5045 27.9992 23.3999 27.9992C22.2953 27.9992 21.3999 28.8946 21.3999 29.9992C21.3999 31.1037 22.2953 31.9991 23.3999 31.9991C24.5045 31.9991 25.3999 31.1037 25.3999 29.9992Z" fill="#FF2B5E"/>
</svg>
