<svg xmlns="http://www.w3.org/2000/svg" width="27" height="27" viewBox="0 0 27 27"><g transform="translate(1 1)"><g transform="translate(-1 -1)"><path d="M22.046,2.954a13.5,13.5,0,1,0,0,19.091A13.5,13.5,0,0,0,22.046,2.954Zm-1.591,17.5a11.25,11.25,0,1,1,0-15.909A11.249,11.249,0,0,1,20.455,20.455Z" transform="translate(1 1)" fill="#ff4784"/><path d="M234.788,84.338a1.125,1.125,0,0,0-1.125,1.125v11.25a1.125,1.125,0,0,0,2.25,0V85.463A1.125,1.125,0,0,0,234.788,84.338Z" transform="translate(-221.288 -79.838)" fill="#ff4784"/><path d="M234.788,383a1.125,1.125,0,1,0,1.125,1.125A1.125,1.125,0,0,0,234.788,383Z" transform="translate(-221.288 -362.754)" fill="#ff4784"/></g></g></svg>