<svg viewBox="0 0 48 49" fill="none" xmlns="http://www.w3.org/2000/svg"><path fill="currentColor" opacity=".44" d="M24.894 7.955a2.028 2.028 0 0 0-.765-.71 2.092 2.092 0 0 0-2.04.042c-.307.18-.56.435-.734.74L4.258 38.031a1.959 1.959 0 0 0 .025 1.985c.182.3.44.548.75.721.31.173.661.263 1.019.263h35.9a2.09 2.09 0 0 0 1.035-.274c.314-.18.573-.437.751-.747a1.958 1.958 0 0 0-.038-2.018L24.894 7.955z"/><path fill="currentColor" d="M25.4 19a2 2 0 1 0-4 0v10a2 2 0 1 0 4 0V19zM25.4 35a2 2 0 1 0-4 0 2 2 0 0 0 4 0z"/></svg>