<svg viewBox="0 0 24 24" fill="none" xmlns="http://www.w3.org/2000/svg"><g><animate attributeName="opacity" calcMode="linear" begin="0s" dur="1s" values=".66;.33;.33;.66" repeatCount="indefinite" restart="always"/><path fill="currentColor" d="m11 22-7.339-4.4a1.113 1.113 0 0 1-.403-.409.662.662 0 0 1-.258-.555V8.779l7.74 4.463c.081.047.168.083.259.106v8.649L11 22z"/></g><g><animate attributeName="opacity" calcMode="linear" begin="0s" dur="1s" values=".33;.66;.33;.33" repeatCount="indefinite" restart="always"/><path fill="currentColor" d="M13 22v-8.733l.054-.029L21 8.661v7.975a1.13 1.13 0 0 1-.553.967L13.002 22H13z"/></g><g><animate attributeName="opacity" calcMode="linear" begin="0s" dur="1s" values=".33;.33;.66;.33" repeatCount="indefinite" restart="always"/><path fill="currentColor" d="M3.243 6.614c.096-.121.216-.222.353-.294l7.875-4.188a1.124 1.124 0 0 1 1.058 0l7.875 4.188c.106.056.202.128.285.215l-8.634 4.978a.964.964 0 0 0-.156.112 1.01 1.01 0 0 0-.156-.112l-8.5-4.899z"/></g></svg>