<svg viewBox="0 0 24 24" fill="none" xmlns="http://www.w3.org/2000/svg">
<path d="M18.0313 5.95549C17.8399 5.76401 17.5654 5.65551 17.2782 5.66189L8.85946 5.66827C8.55948 5.67465 8.32332 5.77039 8.13822 5.95549C7.73611 6.3576 7.72973 6.93842 8.11907 7.32776C8.32332 7.532 8.57224 7.62775 8.83393 7.62136L11.7253 7.64051L15.2676 7.48094L13.6911 8.87874L5.95535 16.6145C5.5341 17.0358 5.5341 17.623 5.94897 18.0379C6.37023 18.4591 6.95743 18.4591 7.37869 18.0379L15.1145 10.3021L16.5059 8.73194L16.3527 12.2679L16.3718 15.1593C16.3655 15.421 16.4612 15.6699 16.6654 15.8741C17.0548 16.2635 17.6356 16.2571 18.0377 15.855C18.2228 15.6699 18.3249 15.4273 18.3313 15.1018V6.71503C18.3377 6.42781 18.2292 6.15335 18.0313 5.95549Z" fill="currentColor"/>
</svg>
