<svg viewBox="0 0 24 24" fill="none" xmlns="http://www.w3.org/2000/svg">
<path d="M5.95546 18.0443C6.14694 18.2358 6.4214 18.3443 6.70862 18.3379L15.1273 18.3315C15.4273 18.3251 15.6635 18.2294 15.8486 18.0443C16.2507 17.6422 16.2571 17.0614 15.8677 16.672C15.6635 16.4678 15.4146 16.372 15.1529 16.3784L12.2615 16.3593L8.71915 16.5188L10.2957 15.121L18.0314 7.38527C18.4527 6.96401 18.4527 6.37681 18.0378 5.96194C17.6166 5.54068 17.0294 5.54068 16.6081 5.96194L8.87234 13.6977L7.48092 15.2678L7.6341 11.7319L7.61495 8.84051C7.62134 8.57883 7.5256 8.3299 7.32135 8.12566C6.93201 7.73632 6.35119 7.7427 5.94908 8.1448C5.76398 8.3299 5.66186 8.57244 5.65548 8.89796V17.2848C5.6491 17.572 5.7576 17.8464 5.95546 18.0443Z" fill="currentColor"/>
</svg>
