<svg viewBox="0 0 25 24" fill="none" xmlns="http://www.w3.org/2000/svg">
<g opacity="0.44">
<path fill="currentColor" d="M13.9977 17.765H4.00177C3.17274 17.765 2.5 18.4377 2.5 19.2668V21.9976H15.4995V19.2668C15.4995 18.4377 14.8268 17.765 13.9977 17.765Z"/>
</g>
<path fill="currentColor" d="M22.2305 17.9767L13.1058 8.85204L14.8683 7.09275C15.1589 7.34901 15.6057 7.33648 15.8807 7.0615C16.1682 6.77091 16.1682 6.30527 15.8807 6.01467L12.0809 2.21795C11.7934 1.92735 11.3247 1.92735 11.0372 2.21795C10.7466 2.50545 10.7466 2.97418 11.0372 3.26165L11.006 3.2304L6.18111 8.05206L6.21236 8.08641C5.92486 7.79581 5.45613 7.79581 5.16866 8.08641C4.87806 8.37391 4.87806 8.84264 5.16866 9.13015L8.96538 12.93C9.25598 13.2175 9.72471 13.2175 10.0122 12.93C10.2997 12.6394 10.2997 12.1738 10.0122 11.8832L10.0435 11.9144L11.8059 10.1551L20.9274 19.2766C21.2868 19.636 21.8711 19.636 22.2305 19.2766C22.5898 18.9173 22.5898 18.336 22.2305 17.9767Z"/>
</svg>
