<svg viewBox="0 0 18 14" fill="currentColor" xmlns="http://www.w3.org/2000/svg">
<path d="M0.450195 7.00451C0.450195 7.27531 0.567539 7.5461 0.775147 7.74468L6.73259 13.6931C6.94923 13.9007 7.18392 14 7.44568 14C8.01435 14 8.42956 13.5938 8.42956 13.0432C8.42956 12.7544 8.32125 12.5106 8.13169 12.3301L6.10074 10.2721L3.48308 7.88008L5.58624 8.00645H16.5263C17.122 8.00645 17.5372 7.59123 17.5372 7.00451C17.5372 6.40877 17.122 5.99355 16.5263 5.99355H5.58624L3.4921 6.11992L6.10074 3.72792L8.13169 1.66989C8.32125 1.48936 8.42956 1.24565 8.42956 0.956802C8.42956 0.40619 8.01435 0 7.44568 0C7.18392 0 6.9402 0.0992908 6.70551 0.324952L0.775147 6.25532C0.567539 6.4539 0.450195 6.72469 0.450195 7.00451Z" fill="currentColor"/>
</svg>
