<svg viewBox="0 0 24 24" fill="none" xmlns="http://www.w3.org/2000/svg">
<path opacity="0.44" d="M18 13C18.5523 13 19 12.5523 19 12C19 11.4477 18.5523 11 18 11H6C5.44771 11 5 11.4477 5 12C5 12.5523 5.44771 13 6 13H18Z" fill="currentColor"/>
<path d="M12.707 17.293C12.8892 17.4816 12.99 17.7342 12.9877 17.9964C12.9854 18.2586 12.8802 18.5094 12.6948 18.6948C12.5094 18.8802 12.2586 18.9854 11.9964 18.9876C11.7342 18.9899 11.4816 18.8891 11.293 18.707L5.29301 12.707C5.11075 12.5247 5.00589 12.2792 5.0003 12.0215C4.99471 11.7638 5.08882 11.5139 5.26301 11.324L10.763 5.32396C10.9439 5.1355 11.1914 5.02531 11.4525 5.01695C11.7136 5.0086 11.9675 5.10274 12.1601 5.27925C12.3527 5.45575 12.4686 5.70061 12.4829 5.96144C12.4973 6.22227 12.409 6.47837 12.237 6.67496L7.38401 11.97L12.707 17.293Z" fill="currentColor"/>
</svg>
