<svg viewBox="0 0 24 24" fill="none" xmlns="http://www.w3.org/2000/svg">
<path opacity="0.44" d="M20.5714 13.425C21.3604 13.425 22 12.7854 22 11.9964C22 11.2075 21.3604 10.5679 20.5714 10.5679L3.42857 10.5679C2.63959 10.5679 2 11.2075 2 11.9964C2 12.7854 2.63959 13.425 3.42857 13.425L20.5714 13.425Z" fill="currentColor"/>
<path d="M13.0099 19.558C13.2702 19.8274 13.4141 20.1883 13.4109 20.5628C13.4076 20.9374 13.2574 21.2957 12.9925 21.5606C12.7277 21.8255 12.3694 21.9757 11.9948 21.9789C11.6202 21.9822 11.2594 21.8382 10.9899 21.578L2.4185 13.0066C2.15813 12.7462 2.00832 12.3954 2.00034 12.0273C1.99235 11.6592 2.1268 11.3022 2.37564 11.0308L10.2328 2.45942C10.4912 2.19019 10.8447 2.03277 11.2177 2.02084C11.5907 2.0089 11.9536 2.14339 12.2287 2.39554C12.5038 2.64769 12.6693 2.99748 12.6898 3.3701C12.7103 3.74272 12.5842 4.10857 12.3385 4.38942L5.40564 11.9537L13.0099 19.558Z" fill="currentColor"/>
</svg>
