<svg viewBox="0 0 40 40" fill="none" xmlns="http://www.w3.org/2000/svg"><path d="M14.326 11.008H29.87v-.171c-.04-2.745-1.518-4.17-4.315-4.17H7.662c-2.85 0-4.329 1.464-4.329 4.288v12.537c0 2.797 1.452 4.249 4.263 4.275h.475V17.224c0-3.893 2.349-6.216 6.255-6.216zm0 23.027h18.013c2.85 0 4.328-1.464 4.328-4.275V17.223c0-2.823-1.478-4.288-4.328-4.288H14.326c-2.85 0-4.328 1.464-4.328 4.289V29.76c0 2.824 1.478 4.275 4.328 4.275zm4.104-5.199v-5.344c0-.937.383-1.425 1.148-1.492v-1.544c0-2.533 1.53-4.222 3.76-4.222 2.244 0 3.775 1.689 3.775 4.222V22c.765.067 1.148.555 1.148 1.492v5.344c0 1.043-.475 1.53-1.438 1.53h-6.955c-.976 0-1.438-.487-1.438-1.53zm2.771-6.875h4.289v-1.65c0-1.504-.858-2.507-2.151-2.507-1.293 0-2.138 1.003-2.138 2.507v1.65z" fill="#fff"/></svg>