<svg viewBox="0 0 24 24" fill="none" xmlns="http://www.w3.org/2000/svg">
<path fill-rule="evenodd" clip-rule="evenodd" d="M17.5906 8.11328L21.6389 8.11328C22.136 8.11328 22.5389 8.51623 22.5389 9.01328C22.5389 9.51034 22.136 9.91328 21.6389 9.91328H17.5909C16.6004 9.914 15.7986 10.716 15.7984 11.7043C15.7992 12.6936 16.601 13.4952 17.5912 13.4958H21.6389C22.136 13.4958 22.5389 13.8988 22.5389 14.3958C22.5389 14.8929 22.136 15.2958 21.6389 15.2958H17.5906C15.6079 15.2946 13.9996 13.6886 13.9984 11.7051C13.9984 9.72071 15.6084 8.1145 17.5906 8.11328Z" fill="currentColor"/>
<path fill-rule="evenodd" clip-rule="evenodd" d="M16.8369 11.6432C16.8369 11.1461 17.2399 10.7432 17.7369 10.7432H18.0486C18.5457 10.7432 18.9486 11.1461 18.9486 11.6432C18.9486 12.1402 18.5457 12.5432 18.0486 12.5432H17.7369C17.2399 12.5432 16.8369 12.1402 16.8369 11.6432Z" fill="currentColor"/>
<path fill-rule="evenodd" clip-rule="evenodd" d="M7.74764 3.9001C5.34654 3.9001 3.39998 5.84666 3.39998 8.24776V15.4248C3.39998 17.8259 5.34654 19.7725 7.74764 19.7725H16.3911C18.7922 19.7725 20.7387 17.8259 20.7387 15.4248V8.24776C20.7387 5.84666 18.7922 3.9001 16.3911 3.9001H7.74764ZM1.59998 8.24776C1.59998 4.85255 4.35243 2.1001 7.74764 2.1001H16.3911C19.7863 2.1001 22.5387 4.85255 22.5387 8.24776V15.4248C22.5387 18.82 19.7863 21.5725 16.3911 21.5725H7.74764C4.35243 21.5725 1.59998 18.82 1.59998 15.4248V8.24776Z" fill="currentColor"/>
<path opacity="0.5" fill-rule="evenodd" clip-rule="evenodd" d="M6.13562 7.53818C6.13562 7.04113 6.53856 6.63818 7.03562 6.63818H12.4346C12.9316 6.63818 13.3346 7.04113 13.3346 7.53818C13.3346 8.03524 12.9316 8.43818 12.4346 8.43818H7.03562C6.53856 8.43818 6.13562 8.03524 6.13562 7.53818Z" fill="currentColor"/>
</svg>
