<svg viewBox="0 0 24 24" fill="none" xmlns="http://www.w3.org/2000/svg">
<path opacity="0.22" d="M15.75 15.75C15.0083 15.75 14.2833 15.5301 13.6666 15.118C13.0499 14.706 12.5693 14.1203 12.2855 13.4351C12.0016 12.7498 11.9274 11.9958 12.0721 11.2684C12.2168 10.541 12.5739 9.8728 13.0984 9.34835C13.6228 8.8239 14.291 8.46675 15.0184 8.32206C15.7458 8.17736 16.4998 8.25162 17.1851 8.53545C17.8703 8.81928 18.456 9.29993 18.868 9.91661C19.2801 10.5333 19.5 11.2583 19.5 12C19.5 12.9946 19.1049 13.9484 18.4017 14.6517C17.6984 15.3549 16.7446 15.75 15.75 15.75Z" fill="white"/>
<path opacity="0.44" d="M10.7737 8.21828L12.7628 9.73239C13.2282 9.11941 13.8709 8.66446 14.6037 8.4293C15.3366 8.19413 16.124 8.19014 16.8592 8.41785C17.5943 8.64556 18.2416 9.09396 18.7132 9.70218C19.1848 10.3104 19.4578 11.049 19.4953 11.8177C19.5327 12.5864 19.3327 13.3481 18.9224 13.9992C18.5121 14.6504 17.9114 15.1595 17.2018 15.4576C16.4923 15.7556 15.7082 15.8281 14.956 15.6652C14.2038 15.5024 13.5199 15.112 12.9972 14.5471L11.1627 16.2456C12.0339 17.1869 13.1736 17.8374 14.4271 18.1088C15.6806 18.3802 16.9873 18.2594 18.1698 17.7628C19.3524 17.2662 20.3535 16.4179 21.0374 15.3328C21.7212 14.2478 22.0548 12.9787 21.9927 11.6976C21.9306 10.4165 21.4759 9.18559 20.6903 8.17178C19.9047 7.15797 18.8262 6.4104 17.6012 6.03049C16.3762 5.65058 15.0639 5.65673 13.8425 6.04811C12.6212 6.4395 11.5497 7.19715 10.7737 8.21828H10.7737Z" fill="white"/>
<path d="M8.25018 18.2504C7.01402 18.2504 5.80561 17.8838 4.77777 17.197C3.74993 16.5102 2.94883 15.5341 2.47577 14.392C2.00271 13.25 1.87893 11.9933 2.1201 10.7808C2.36126 9.56842 2.95653 8.45474 3.83064 7.58064C4.70474 6.70653 5.81842 6.11126 7.03083 5.8701C8.24325 5.62893 9.49995 5.75271 10.642 6.22577C11.7841 6.69883 12.7602 7.49993 13.447 8.52777C14.1338 9.55561 14.5004 10.764 14.5004 12.0002C14.5004 13.6578 13.8419 15.2476 12.6697 16.4197C11.4976 17.5919 9.90784 18.2504 8.25018 18.2504Z" fill="white"/>
</svg>
