<svg viewBox="0 0 24 24" fill="none" xmlns="http://www.w3.org/2000/svg"><path d="M4.498 18.135h15c.966 0 1.557-.525 1.557-1.313 0-.995-.9-1.848-1.745-2.655-.666-.647-.816-1.998-.938-3.246-.15-3.433-1.154-5.853-3.583-6.726C14.404 2.957 13.38 2 11.993 2c-1.379 0-2.402.957-2.796 2.195-2.42.873-3.433 3.293-3.574 6.726-.122 1.248-.281 2.599-.938 3.246-.844.807-1.745 1.66-1.745 2.655 0 .788.591 1.313 1.558 1.313zM11.993 22c1.67 0 2.88-1.191 3.002-2.552H9C9.122 20.808 10.332 22 11.993 22z" fill="currentColor"/></svg>