<svg viewBox="0 0 24 24" fill="none" xmlns="http://www.w3.org/2000/svg">
<path d="M4.3549 16.1173C3.88684 16.1173 3.43796 15.9314 3.10699 15.6004C2.77602 15.2694 2.59009 14.8206 2.59009 14.3525C2.59009 13.8844 2.77602 13.4356 3.10699 13.1046C3.43796 12.7736 3.88684 12.5877 4.3549 12.5877H19.65C20.118 12.5877 20.5669 12.7736 20.8979 13.1046C21.2288 13.4356 21.4148 13.8844 21.4148 14.3525C21.4148 14.8206 21.2288 15.2694 20.8979 15.6004C20.5669 15.9314 20.118 16.1173 19.65 16.1173H4.3549ZM6.11972 12.5877L6.7774 6.67556C6.9207 5.38987 7.53294 4.20212 8.49702 3.33952C9.46111 2.47691 10.7094 2 12.003 2C13.2967 2 14.5449 2.47691 15.509 3.33952C16.4731 4.20212 17.0853 5.38987 17.2286 6.67556L17.8851 12.5877H6.11972Z" fill="currentColor"/>
<path opacity="0.44" d="M14.3556 19.6469C14.3556 18.3473 13.3021 17.2938 12.0025 17.2938C10.7029 17.2938 9.64941 18.3473 9.64941 19.6469C9.64941 20.9465 10.7029 22 12.0025 22C13.3021 22 14.3556 20.9465 14.3556 19.6469Z" fill="currentColor"/>
</svg>
