<svg id="bell" xmlns="http://www.w3.org/2000/svg" width="17.437" height="22" viewBox="0 0 17.437 22">
  <path id="Path_236" data-name="Path 236" d="M184.9,465.044a3.649,3.649,0,0,0,6.68,0Z" transform="translate(-179.526 -445.223)" fill="#fff"/>
  <path id="Path_237" data-name="Path 237" d="M199.079,2.308a8.208,8.208,0,0,1,2.8.491V2.691A2.694,2.694,0,0,0,199.191,0h-.223a2.694,2.694,0,0,0-2.691,2.691V2.8A8.225,8.225,0,0,1,199.079,2.308Z" transform="translate(-190.361 0)" fill="#fff"/>
  <path id="Path_238" data-name="Path 238" d="M69.788,93.513H53.676a.652.652,0,0,1-.647-.482.593.593,0,0,1,.345-.682,3.3,3.3,0,0,0,1.04-1.354A15.046,15.046,0,0,0,55.5,84.8a6.24,6.24,0,0,1,12.466-.024c0,.008,0,.016,0,.024a15.046,15.046,0,0,0,1.085,6.191,3.3,3.3,0,0,0,1.04,1.354.592.592,0,0,1,.345.682A.652.652,0,0,1,69.788,93.513Zm.31-1.16h0Z" transform="translate(-53.013 -75.11)" fill="#fff"/>
</svg>
