<svg viewBox="0 0 24 24" fill="none" xmlns="http://www.w3.org/2000/svg">
<path d="M5.5 15C5.10218 15 4.72064 14.8419 4.43934 14.5606C4.15804 14.2793 4 13.8978 4 13.5C4 13.1021 4.15804 12.7206 4.43934 12.4393C4.72064 12.158 5.10218 12 5.5 12H18.5C18.8978 12 19.2794 12.158 19.5607 12.4393C19.842 12.7206 20 13.1021 20 13.5C20 13.8978 19.842 14.2793 19.5607 14.5606C19.2794 14.8419 18.8978 15 18.5 15H5.5ZM7 12L7.559 6.97496C7.68079 5.88219 8.20117 4.87267 9.02059 4.1395C9.84001 3.40633 10.901 3.00098 12.0005 3.00098C13.1 3.00098 14.161 3.40633 14.9804 4.1395C15.7998 4.87267 16.3202 5.88219 16.442 6.97496L17 12H7Z" fill="currentColor"/>
<path opacity="0.44" d="M14 18C14 16.8954 13.1046 16 12 16C10.8954 16 10 16.8954 10 18C10 19.1046 10.8954 20 12 20C13.1046 20 14 19.1046 14 18Z" fill="currentColor"/>
</svg>
