<svg viewBox="0 0 24 24" fill="none" xmlns="http://www.w3.org/2000/svg">
<path d="M11 22.0001L3.551 17.6001C3.383 17.5011 3.244 17.3601 3.148 17.1911C3.051 17.0221 3 16.8311 3 16.6361V8.77905L10.74 13.2421C10.821 13.2891 10.908 13.3251 10.999 13.3481V21.9971L11 22.0001Z" fill="currentColor"/>
<path opacity="0.44" d="M13 21.9999V13.2669L13.054 13.2379L21 8.66089V16.6359C20.999 16.8309 20.948 17.0229 20.851 17.1919C20.754 17.3609 20.615 17.5029 20.447 17.6029L13.002 21.9999H13Z" fill="currentColor"/>
<path opacity="0.44" d="M3.24292 6.614C3.33892 6.493 3.45892 6.392 3.59592 6.32L11.4709 2.132C11.6339 2.045 11.8159 2 11.9999 2C12.1839 2 12.3659 2.045 12.5289 2.132L20.4039 6.32C20.5099 6.376 20.6059 6.448 20.6889 6.535L12.0549 11.513C11.9989 11.545 11.9469 11.583 11.8989 11.625C11.8509 11.583 11.7979 11.545 11.7429 11.513L3.24292 6.614Z" fill="currentColor"/>
</svg>
