<svg viewBox="0 0 72 26" fill="none" xmlns="http://www.w3.org/2000/svg">
<path fill-rule="evenodd" clip-rule="evenodd" d="M60.2373 18.8648C59.8145 18.8648 59.6032 18.6534 59.6032 18.2307V16.5926C59.6032 16.2931 59.7176 16.0377 59.9466 15.8264L65.8914 9.82872C67.3358 8.34913 68.058 7.06329 68.058 5.97121C68.058 5.19619 67.8466 4.5973 67.4239 4.17456C67.0187 3.75182 66.4639 3.54045 65.7593 3.54045C64.3149 3.54045 63.4959 4.17456 63.3021 5.44279C63.2317 5.8303 63.0115 6.02405 62.6416 6.02405H60.2373C59.8145 6.02405 59.6208 5.81268 59.656 5.38994C59.7441 4.19218 60.0875 3.17936 60.6864 2.3515C61.3029 1.52363 62.0339 0.924746 62.8794 0.554848C63.7425 0.18495 64.676 0 65.68 0C66.4551 0 67.1949 0.1233 67.8994 0.369898C68.604 0.616497 69.2381 0.977588 69.8018 1.45317C70.383 1.91114 70.841 2.53644 71.1757 3.32908C71.528 4.10411 71.7041 4.98482 71.7041 5.97121C71.7041 7.89116 70.7265 9.81111 68.7713 11.7311L65.0459 15.3772H71.3606C71.7834 15.3772 71.9947 15.5798 71.9947 15.9849V18.2307C71.9947 18.6534 71.7834 18.8648 71.3606 18.8648H60.2373ZM16.637 9.5037C14.9361 7.65914 12.876 6.73686 10.4565 6.73686C7.94118 6.73686 6.0008 7.61123 4.63535 9.35996V0.915718C4.63535 0.340792 4.34789 0.0533287 3.77296 0.0533287H0.826458C0.275486 0.0533287 0 0.340792 0 0.915718V24.344C0 24.9189 0.275486 25.2064 0.826458 25.2064H3.77296C4.34789 25.2064 4.63535 24.9189 4.63535 24.344V23.0863C6.0008 24.8351 7.94118 25.7095 10.4565 25.7095C12.876 25.7095 14.9361 24.7992 16.637 22.9786C18.3617 21.134 19.2241 18.8822 19.2241 16.2232C19.2241 13.5641 18.3617 11.3243 16.637 9.5037ZM12.1453 20.6788C11.4027 21.0861 10.5523 21.2897 9.5941 21.2897C8.15678 21.2897 6.97099 20.8226 6.03674 19.8883C5.10248 18.9301 4.63535 17.7084 4.63535 16.2232C4.63535 14.7379 5.10248 13.5282 6.03674 12.5939C6.97099 11.6357 8.15678 11.1566 9.5941 11.1566C11.0314 11.1566 12.2172 11.6357 13.1515 12.5939C14.1097 13.5282 14.5888 14.7379 14.5888 16.2232C14.5888 17.2053 14.3732 18.0917 13.942 18.8822C13.5108 19.6488 12.9119 20.2476 12.1453 20.6788ZM35.8243 8.6413C34.7463 7.37167 33.3569 6.73686 31.6561 6.73686C29.4282 6.73686 27.7993 7.51541 26.7692 9.0725V8.10231C26.7692 7.52738 26.4817 7.23992 25.9068 7.23992H22.9603C22.4093 7.23992 22.1339 7.52738 22.1339 8.10231V24.344C22.1339 24.9189 22.4093 25.2064 22.9603 25.2064H25.9068C26.4817 25.2064 26.7692 24.9189 26.7692 24.344V14.7858C26.7692 13.5162 27.0567 12.582 27.6316 11.9831C28.2305 11.3602 29.021 11.0488 30.0032 11.0488C30.8656 11.0488 31.5483 11.3123 32.0513 11.8393C32.5784 12.3424 32.8419 13.085 32.8419 14.0672V24.344C32.8419 24.9189 33.1293 25.2064 33.7043 25.2064H36.6148C37.1898 25.2064 37.4772 24.9189 37.4772 24.344V13.7078C37.4772 11.5758 36.9262 9.88698 35.8243 8.6413ZM56.7095 24.1643C56.9251 24.4518 56.985 24.7033 56.8892 24.9189C56.7933 25.1106 56.5777 25.2064 56.2424 25.2064H52.7928C52.3616 25.2064 52.0262 25.0387 51.7867 24.7033L45.8937 17.0855V24.344C45.8937 24.9189 45.6062 25.2064 45.0313 25.2064H42.0848C41.5338 25.2064 41.2583 24.9189 41.2583 24.344V0.915718C41.2583 0.340792 41.5338 0.0533287 42.0848 0.0533287H45.0313C45.6062 0.0533287 45.8937 0.340792 45.8937 0.915718V15.1452L51.4273 7.74298C51.6669 7.40761 52.0023 7.23992 52.4335 7.23992H55.883C56.2424 7.23992 56.4699 7.34772 56.5658 7.56332C56.6616 7.75496 56.6017 7.99451 56.3861 8.28197L50.3494 16.1513L56.7095 24.1643ZM60.1316 21.7191C59.8397 21.7191 59.6032 21.9557 59.6032 22.2475V24.6783C59.6032 24.9701 59.8397 25.2067 60.1316 25.2067H71.4716C71.7634 25.2067 72 24.9701 72 24.6783V22.2475C72 21.9557 71.7634 21.7191 71.4716 21.7191H60.1316Z" fill="#1B1D21"/>
</svg>
