<svg viewBox="0 0 24 24" fill="none" xmlns="http://www.w3.org/2000/svg">
<path d="M22 5.9739H19.6794V14.8144C19.6794 15.5254 19.2488 15.8809 18.4115 15.8809H16.8325C15.9952 15.8809 15.5646 15.5254 15.5646 14.8144V9.22094C15.5646 7.27745 13.9139 5.9502 11.9761 5.9502C10.0622 5.9502 8.43541 7.27745 8.41148 9.22094L8.38756 14.8144C8.38756 15.5254 7.95694 15.8809 7.11962 15.8809H5.56459C4.72727 15.8809 4.29665 15.5254 4.29665 14.8144V5.9502H2V14.8144C2 16.6868 3.55502 18.0377 5.56459 18.0377H7.11962C9.12919 18.0377 10.7081 16.7342 10.7081 14.8144V9.22094C10.7081 8.50991 11.1388 8.13069 11.9761 8.13069C12.8373 8.13069 13.2679 8.48621 13.2679 9.22094V14.8144C13.2679 16.7105 14.8708 18.0377 16.8565 18.0377H18.4115C20.3732 18.0377 22 16.7105 22 14.8144V5.9739Z" fill="white"/>
</svg>
