<svg viewBox="0 0 24 24" fill="none" xmlns="http://www.w3.org/2000/svg">
<path d="M11.9957 22C14.3743 22 16.4319 19.4486 16.4319 16.7078C16.4319 16.3374 16.3743 16.0329 16.2508 15.7695C16.4566 15.8272 16.6706 15.8848 16.8764 15.9342C17.4196 16.0988 17.5842 16.3374 17.5101 16.823L16.9175 20.6996C16.8352 21.2263 17.1644 21.5309 17.5924 21.5309C18.0451 21.5309 18.2508 21.251 18.3249 20.7984L18.9916 16.5597C19.1562 15.5144 18.7364 14.9465 17.6006 14.6914L13.8722 13.8272L13.864 13.7449C14.1932 13.5885 14.4155 13.2757 14.5307 12.9383L17.1068 12.6091C18.2179 12.4691 18.7118 11.8272 18.7118 10.7325V7.90946C18.7118 7.46502 18.4566 7.20165 18.0122 7.20165C17.5677 7.20165 17.3126 7.46502 17.3126 7.90946V10.4362C17.3126 11.0617 16.9751 11.2675 16.4072 11.3333L14.5965 11.5638C14.506 11.3169 14.3414 11.0947 14.1192 10.9465V10.8642C15.5513 10.6008 16.3414 9.73663 16.3414 8.46914C16.3414 7.45679 15.971 6.51852 15.3702 5.78601L15.4772 5.71193C16.3249 5.10288 16.4731 4.22222 15.9299 3.2428L15.4525 2.44444C15.2879 2.13169 15.0904 2 14.8023 2C14.4401 2 14.1603 2.2716 14.1603 2.62551C14.1603 2.78189 14.185 2.87243 14.2755 3.04527L14.6871 3.68724C14.9504 4.11523 14.934 4.49383 14.5883 4.79012C14.5471 4.83128 14.506 4.85597 14.4566 4.89712C13.757 4.40329 12.9093 4.12346 11.9957 4.12346C11.0986 4.12346 10.2591 4.40329 9.55949 4.88889C9.51834 4.85597 9.47719 4.82305 9.43603 4.78189C9.09035 4.49383 9.07389 4.11523 9.33727 3.68724L9.74879 3.04527C9.84756 2.87243 9.86402 2.78189 9.86402 2.62551C9.86402 2.2716 9.59241 2 9.22204 2C8.94221 2 8.73644 2.13169 8.57184 2.44444L8.09447 3.2428C7.55126 4.22222 7.69941 5.10288 8.54714 5.71193L8.63768 5.77778C8.03686 6.50206 7.65826 7.44856 7.65826 8.46914C7.65826 9.73663 8.44838 10.6008 9.87225 10.8642V10.9465C9.65003 11.0947 9.49365 11.3169 9.39488 11.5638L7.59241 11.3333C7.02451 11.2675 6.68706 11.0617 6.68706 10.4362V7.90946C6.68706 7.46502 6.43192 7.20165 5.98747 7.20165C5.54303 7.20165 5.27965 7.46502 5.27965 7.90946V10.7325C5.27965 11.8272 5.78171 12.4691 6.89282 12.6091L9.46896 12.9383C9.57595 13.2757 9.8064 13.5885 10.1356 13.7449V13.8272L6.399 14.6914C5.26319 14.9465 4.84344 15.5144 5.00805 16.5597L5.67472 20.7984C5.74879 21.251 5.95455 21.5309 6.40723 21.5309C6.83521 21.5309 7.16443 21.2263 7.08212 20.6996L6.48953 16.823C6.41546 16.3292 6.58007 16.0988 7.13151 15.9342C7.33727 15.8765 7.54303 15.8272 7.74879 15.7695C7.62533 16.0329 7.56772 16.3374 7.56772 16.7078C7.56772 19.4486 9.62533 22 11.9957 22Z" fill="currentColor"/>
</svg>
