<svg viewBox="0 0 16 20" fill="none" xmlns="http://www.w3.org/2000/svg">
<path d="M7.9957 20C10.3743 20 12.4319 17.4486 12.4319 14.7078C12.4319 14.3374 12.3743 14.0329 12.2508 13.7695C12.4566 13.8272 12.6706 13.8848 12.8764 13.9342C13.4196 14.0988 13.5842 14.3374 13.5101 14.823L12.9175 18.6996C12.8352 19.2263 13.1644 19.5309 13.5924 19.5309C14.0451 19.5309 14.2508 19.251 14.3249 18.7984L14.9916 14.5597C15.1562 13.5144 14.7364 12.9465 13.6006 12.6914L9.87225 11.8272L9.86402 11.7449C10.1932 11.5885 10.4155 11.2757 10.5307 10.9383L13.1068 10.6091C14.2179 10.4691 14.7118 9.82716 14.7118 8.73251V5.90946C14.7118 5.46502 14.4566 5.20165 14.0122 5.20165C13.5677 5.20165 13.3126 5.46502 13.3126 5.90946V8.43621C13.3126 9.06173 12.9751 9.26749 12.4072 9.33333L10.5965 9.56379C10.506 9.31687 10.3414 9.09465 10.1192 8.9465V8.8642C11.5513 8.60082 12.3414 7.73663 12.3414 6.46914C12.3414 5.45679 11.971 4.51852 11.3702 3.78601L11.4772 3.71193C12.3249 3.10288 12.4731 2.22222 11.9299 1.2428L11.4525 0.444444C11.2879 0.131687 11.0904 0 10.8023 0C10.4401 0 10.1603 0.271605 10.1603 0.625514C10.1603 0.781893 10.185 0.872428 10.2755 1.04527L10.6871 1.68724C10.9504 2.11523 10.934 2.49383 10.5883 2.79012C10.5471 2.83128 10.506 2.85597 10.4566 2.89712C9.75702 2.40329 8.90928 2.12346 7.9957 2.12346C7.09859 2.12346 6.25908 2.40329 5.55949 2.88889C5.51834 2.85597 5.47719 2.82305 5.43603 2.78189C5.09035 2.49383 5.07389 2.11523 5.33727 1.68724L5.74879 1.04527C5.84756 0.872428 5.86402 0.781893 5.86402 0.625514C5.86402 0.271605 5.59241 0 5.22204 0C4.94221 0 4.73644 0.131687 4.57184 0.444444L4.09447 1.2428C3.55126 2.22222 3.69941 3.10288 4.54714 3.71193L4.63768 3.77778C4.03686 4.50206 3.65826 5.44856 3.65826 6.46914C3.65826 7.73663 4.44838 8.60082 5.87225 8.8642V8.9465C5.65003 9.09465 5.49365 9.31687 5.39488 9.56379L3.59241 9.33333C3.02451 9.26749 2.68706 9.06173 2.68706 8.43621V5.90946C2.68706 5.46502 2.43192 5.20165 1.98747 5.20165C1.54303 5.20165 1.27965 5.46502 1.27965 5.90946V8.73251C1.27965 9.82716 1.78171 10.4691 2.89282 10.6091L5.46896 10.9383C5.57595 11.2757 5.8064 11.5885 6.13562 11.7449V11.8272L2.399 12.6914C1.26319 12.9465 0.843441 13.5144 1.00805 14.5597L1.67472 18.7984C1.74879 19.251 1.95455 19.5309 2.40723 19.5309C2.83521 19.5309 3.16443 19.2263 3.08212 18.6996L2.48953 14.823C2.41546 14.3292 2.58007 14.0988 3.13151 13.9342C3.33727 13.8765 3.54303 13.8272 3.74879 13.7695C3.62533 14.0329 3.56772 14.3374 3.56772 14.7078C3.56772 17.4486 5.62533 20 7.9957 20Z" fill="currentColor"/>
</svg>
