<svg viewBox="0 0 20 20" fill="none" xmlns="http://www.w3.org/2000/svg"><path d="M9.997 18.333c1.982 0 3.697-2.126 3.697-4.41 0-.308-.048-.562-.151-.782.171.048.35.096.521.137.453.138.59.337.528.741l-.494 3.23c-.068.44.206.694.563.694.377 0 .548-.234.61-.611l.556-3.532c.137-.871-.213-1.345-1.16-1.557l-3.107-.72-.006-.069c.274-.13.46-.39.555-.672l2.147-.274c.926-.117 1.338-.652 1.338-1.564V6.59c0-.37-.213-.59-.583-.59s-.583.22-.583.59v2.106c0 .521-.282.693-.755.748l-1.509.192a1.053 1.053 0 0 0-.398-.515v-.068c1.194-.22 1.852-.94 1.852-1.996 0-.844-.309-1.626-.81-2.236l.09-.062c.706-.508.83-1.241.377-2.058l-.398-.665c-.137-.26-.301-.37-.541-.37a.52.52 0 0 0-.535.521c0 .13.02.206.096.35l.342.535c.22.356.206.672-.082.919-.034.034-.068.055-.11.089a3.536 3.536 0 0 0-2.05-.645c-.748 0-1.447.233-2.03.638-.035-.027-.069-.055-.103-.089-.288-.24-.302-.556-.083-.912l.343-.535a.59.59 0 0 0 .096-.35.516.516 0 0 0-.535-.521c-.233 0-.404.11-.541.37l-.398.665c-.453.817-.33 1.55.377 2.058l.075.055a3.524 3.524 0 0 0-.816 2.243c0 1.056.659 1.776 1.845 1.996v.068a1.095 1.095 0 0 0-.398.515l-1.502-.192c-.473-.055-.754-.227-.754-.748V6.59c0-.37-.213-.59-.583-.59s-.59.22-.59.59v2.353c0 .912.418 1.447 1.344 1.564l2.147.274c.09.281.281.542.556.672v.069l-3.114.72c-.947.213-1.296.686-1.16 1.557l.556 3.532c.062.377.233.61.61.61.357 0 .632-.253.563-.692l-.494-3.23c-.061-.412.076-.604.535-.742.172-.048.343-.089.515-.137-.103.22-.151.474-.151.782 0 2.284 1.714 4.41 3.69 4.41z" fill="currentColor"/></svg>