<svg viewBox="0 0 24 24" fill="none" xmlns="http://www.w3.org/2000/svg">
<path d="M19.2201 4.67847H4.77989C2.9548 4.67847 2 5.62481 2 7.43301V8.19346H22V7.43301C22 5.62481 21.0537 4.67847 19.2201 4.67847ZM5.5319 16.6176C5.03338 16.6176 4.69539 16.2881 4.69539 15.8065V14.2433C4.69539 13.7701 5.03338 13.4322 5.5319 13.4322H7.60203C8.0921 13.4322 8.43008 13.7701 8.43008 14.2433V15.8065C8.43008 16.2881 8.0921 16.6176 7.60203 16.6176H5.5319ZM4.77989 19.3215H19.2201C21.0537 19.3215 22 18.3667 22 16.5585V10.1791H2V16.5585C2 18.3751 2.9548 19.3215 4.77989 19.3215Z" fill="currentColor"/>
</svg>
