<svg viewBox="0 0 48 48" fill="none" xmlns="http://www.w3.org/2000/svg">
<path fill="currentColor" opacity="0.44" d="M24 44C35.0457 44 44 35.0457 44 24C44 12.9543 35.0457 4 24 4C12.9543 4 4 12.9543 4 24C4 35.0457 12.9543 44 24 44Z"/>
<path fill="currentColor" d="M33.538 15.6361C33.9 15.2484 34.4013 15.0203 34.9314 15.0022C35.1939 14.9931 35.4557 15.0359 35.7016 15.1281C35.9476 15.2202 36.173 15.3599 36.365 15.5391C36.557 15.7184 36.7118 15.9337 36.8206 16.1728C36.9294 16.4119 36.99 16.67 36.999 16.9326C37.008 17.1951 36.9652 17.4568 36.8731 17.7028C36.781 17.9487 36.6413 18.1742 36.462 18.3661L22.462 33.3661C22.1101 33.7433 21.626 33.9699 21.111 33.9986C20.5959 34.0273 20.0897 33.8559 19.698 33.5201L12.698 27.5201C12.4908 27.3518 12.3194 27.1437 12.1938 26.9081C12.0683 26.6725 11.9912 26.4141 11.9671 26.1482C11.9431 25.8824 11.9724 25.6144 12.0536 25.36C12.1347 25.1057 12.2659 24.8701 12.4395 24.6673C12.6131 24.4645 12.8255 24.2985 13.0643 24.179C13.303 24.0596 13.5633 23.9892 13.8297 23.9719C14.0961 23.9547 14.3633 23.9909 14.6155 24.0785C14.8676 24.1662 15.0997 24.3034 15.298 24.4821L20.846 29.2341L33.538 15.6361Z"/>
</svg>
