<svg viewBox="0 0 24 24" fill="none" xmlns="http://www.w3.org/2000/svg">
<path fill="currentColor" d="M17.7379 6.35206C17.8233 6.25199 17.9275 6.16972 18.0446 6.10993C18.1618 6.05015 18.2896 6.01402 18.4207 6.00362C18.5518 5.99323 18.6837 6.00875 18.8088 6.04932C18.9339 6.08989 19.0498 6.1547 19.1499 6.24006C19.25 6.32542 19.3322 6.42965 19.392 6.54681C19.4518 6.66396 19.4879 6.79175 19.4983 6.92286C19.5087 7.05398 19.4932 7.18586 19.4526 7.31098C19.4121 7.43609 19.3473 7.55199 19.2619 7.65206L10.7619 17.6521C10.6757 17.7535 10.57 17.8367 10.4512 17.8968C10.3324 17.9569 10.2027 17.9926 10.0699 18.0019C9.9371 18.0113 9.80375 17.994 9.6777 17.951C9.55166 17.9081 9.43545 17.8405 9.33589 17.7521L4.83589 13.7521C4.73773 13.6648 4.65772 13.5591 4.60042 13.4409C4.54312 13.3227 4.50967 13.1944 4.50196 13.0633C4.49425 12.9321 4.51245 12.8008 4.5555 12.6767C4.59856 12.5526 4.66563 12.4382 4.75289 12.3401C4.84016 12.2419 4.9459 12.1619 5.06409 12.1046C5.18227 12.0473 5.31059 12.0138 5.4417 12.0061C5.57282 11.9984 5.70417 12.0166 5.82826 12.0597C5.95234 12.1027 6.06673 12.1698 6.16489 12.2571L9.89989 15.5731L17.7379 6.35206Z" />
</svg>
