<svg viewBox="0 0 24 24" fill="none" xmlns="http://www.w3.org/2000/svg">
<path d="M12 22C17.5228 22 22 17.5228 22 12C22 6.47715 17.5228 2 12 2C6.47715 2 2 6.47715 2 12C2 17.5228 6.47715 22 12 22Z" stroke="currentColor" stroke-width="1.5"/>
<path d="M16.769 7.81801C16.95 7.62414 17.2006 7.51011 17.4657 7.50102C17.597 7.49651 17.7278 7.5179 17.8508 7.56397C17.9738 7.61004 18.0865 7.67988 18.1825 7.76951C18.2785 7.85914 18.3559 7.9668 18.4103 8.08634C18.4647 8.20588 18.495 8.33496 18.4995 8.46622C18.504 8.59747 18.4826 8.72833 18.4365 8.85132C18.3905 8.9743 18.3206 9.08701 18.231 9.18301L11.231 16.683C11.055 16.8716 10.813 16.9849 10.5555 16.9993C10.2979 17.0136 10.0448 16.9279 9.84901 16.76L6.34901 13.76C6.2454 13.6759 6.15968 13.5718 6.09692 13.454C6.03416 13.3362 5.99562 13.207 5.98357 13.0741C5.97153 12.9411 5.98622 12.8071 6.02678 12.6799C6.06734 12.5528 6.13295 12.435 6.21974 12.3336C6.30653 12.2322 6.41275 12.1492 6.53213 12.0895C6.65152 12.0297 6.78165 11.9945 6.91485 11.9859C7.04805 11.9773 7.18164 11.9954 7.30773 12.0392C7.43382 12.083 7.54986 12.1516 7.64901 12.241L10.423 14.617L16.769 7.81801Z" fill="currentColor"/>
</svg>
