<svg viewBox="0 0 24 24" fill="none" xmlns="http://www.w3.org/2000/svg">
<path d="M11.9952 22C17.4761 22 22 17.4739 22 12C22 6.52611 17.4664 2 11.9855 2C6.51426 2 2 6.52611 2 12C2 17.4739 6.52392 22 11.9952 22ZM8.69889 16.2166C8.18656 16.2166 7.78057 15.8104 7.78057 15.2882C7.78057 15.0561 7.87724 14.824 8.0609 14.6499L10.6902 12.0097L8.0609 9.37911C7.87724 9.20503 7.78057 8.97292 7.78057 8.74081C7.78057 8.21857 8.18656 7.82205 8.69889 7.82205C8.96955 7.82205 9.18221 7.90909 9.35621 8.08317L11.9952 10.7137L14.6438 8.0735C14.8371 7.88975 15.0401 7.80271 15.3011 7.80271C15.8134 7.80271 16.2194 8.2089 16.2194 8.72147C16.2194 8.96325 16.1228 9.17602 15.9391 9.36944L13.3098 12.0097L15.9391 14.6402C16.1131 14.824 16.2098 15.0464 16.2098 15.2882C16.2098 15.8104 15.8038 16.2166 15.2818 16.2166C15.0208 16.2166 14.7985 16.1199 14.6148 15.9458L11.9952 13.325L9.37554 15.9458C9.20155 16.1296 8.96955 16.2166 8.69889 16.2166Z" fill="currentColor"/>
</svg>
