<svg viewBox="0 0 20 20" fill="currentColor" xmlns="http://www.w3.org/2000/svg">
<path d="M10 20C15.4695 20 20 15.4792 20 10C20 4.53049 15.4695 0 9.99032 0C4.52081 0 0 4.53049 0 10C0 15.4792 4.53049 20 10 20ZM10 18.0348C5.54695 18.0348 1.97483 14.453 1.97483 10C1.97483 5.54695 5.53727 1.97483 9.99032 1.97483C14.4434 1.97483 18.0252 5.54695 18.0348 10C18.0348 14.453 14.453 18.0348 10 18.0348Z" fill="currentColor"/>
<path d="M11 9C11 8.44771 10.5523 8 10 8C9.44771 8 9 8.44771 9 9V14C9 14.5523 9.44771 15 10 15C10.5523 15 11 14.5523 11 14V9Z" fill="currentColor"/>
<path d="M11 6C11 5.44772 10.5523 5 10 5C9.44771 5 9 5.44772 9 6C9 6.55228 9.44771 7 10 7C10.5523 7 11 6.55228 11 6Z" fill="currentColor"/>
</svg>
