<svg viewBox="0 0 24 24" fill="none" xmlns="http://www.w3.org/2000/svg">
<path opacity="0.44" d="M12 2C6.486 2 2 6.486 2 12C2 17.514 6.486 22 12 22C17.514 22 22 17.514 22 12C22 6.486 17.514 2 12 2Z" fill="currentColor"/>
<path d="M19.387 13.3209C19.1051 14.0179 18.6201 14.6089 17.9861 15.0309C17.3511 15.4519 16.6141 15.6749 15.8501 15.6749C13.8791 15.6749 12.6911 14.1649 11.5481 12.4829C10.3241 10.6819 9.48505 9.58794 8.15705 9.58794C8.15305 9.58794 8.14905 9.58794 8.14405 9.58794C7.48905 9.58794 6.87205 9.83494 6.40705 10.2859C5.93905 10.7379 5.67905 11.3409 5.67405 11.9839C5.67905 12.6229 5.94005 13.2259 6.40705 13.6779C6.87305 14.1289 7.48805 14.3759 8.14205 14.3759C8.14605 14.3759 8.15105 14.3759 8.15505 14.3759C9.27805 14.3759 10.0771 13.5119 10.7731 12.5789L10.9661 12.3199L11.7531 13.4629L11.6481 13.5969C10.8901 14.5639 9.80805 15.6749 8.15605 15.6749C8.15005 15.6749 8.14405 15.6749 8.13705 15.6749C7.13605 15.6749 6.19105 15.2939 5.47805 14.6029C4.76805 13.9159 4.35805 12.9619 4.35205 11.9839C4.35905 10.9889 4.75905 10.0589 5.47805 9.35994C6.19105 8.66994 7.13505 8.28894 8.13705 8.28894C8.14405 8.28894 8.14905 8.28894 8.15605 8.28894C10.1311 8.28894 11.3601 9.86394 12.4481 11.4789C13.5931 13.1749 14.5051 14.3759 15.8411 14.3759C15.8431 14.3759 15.8441 14.3759 15.8451 14.3759C16.2891 14.3759 16.725 14.2589 17.109 14.0389C17.493 13.8179 17.8081 13.5009 18.0231 13.1199L18.0891 13.0019H19.5141L19.387 13.3209Z" fill="currentColor"/>
<path d="M19.5949 12.632H14.9419V11.334H18.2319C18.0969 10.878 17.8249 10.467 17.4489 10.159C17.0039 9.79202 16.4379 9.58902 15.8549 9.58902C15.8509 9.58902 15.8479 9.58902 15.8439 9.58902C14.7219 9.58902 13.9219 10.453 13.2249 11.387L13.0329 11.644L12.2419 10.51L12.3469 10.375C13.1039 9.40502 14.1849 8.29102 15.8419 8.29102C15.8479 8.29102 15.8539 8.29102 15.8609 8.29102C16.8619 8.29102 17.8059 8.67202 18.5189 9.36302C19.2389 10.06 19.6389 10.991 19.6459 11.982C19.6459 12.133 19.6359 12.281 19.6179 12.429L19.5949 12.632Z" fill="currentColor"/>
</svg>
