<svg viewBox="0 0 24 24" fill="currentColor" xmlns="http://www.w3.org/2000/svg">
<g>
<path d="M16.704 4.9082H7.296L2 9.6902L12.028 19.0922L22 9.6902L16.704 4.9082ZM16.878 11.7122C16.8 11.7902 16.694 11.8342 16.583 11.8342H12.833V15.5842C12.833 15.6942 12.789 15.8002 12.711 15.8792C12.633 15.9562 12.528 16.0002 12.417 16.0002H11.583C11.472 16.0002 11.367 15.9562 11.288 15.8782C11.21 15.8002 11.166 15.6942 11.166 15.5832V11.8332H7.416C7.305 11.8332 7.2 11.7892 7.121 11.7112C7.044 11.6332 7 11.5272 7 11.4162V10.5832C7 10.4722 7.044 10.3672 7.122 10.2882C7.2 10.2102 7.306 10.1662 7.417 10.1662H11.167V6.4162C11.167 6.3052 11.211 6.2002 11.289 6.1212C11.367 6.0442 11.474 6.0002 11.583 6.0002H12.416C12.527 6.0002 12.632 6.0442 12.711 6.1222C12.789 6.2002 12.833 6.3062 12.833 6.4172V10.1672H16.583C16.694 10.1672 16.8 10.2112 16.878 10.2892C16.956 10.3672 17 10.4732 17 10.5842V11.4172C17 11.5282 16.956 11.6332 16.878 11.7122Z" fill="currentColor"/>
</g>
</svg>
