<svg viewBox="0 0 24 24" fill="none" xmlns="http://www.w3.org/2000/svg">
<path fill-rule="evenodd" clip-rule="evenodd" d="M0 10L7 4H17L24 10L12 21L0 10ZM16.583 10.667C16.694 10.667 16.8 10.711 16.878 10.789C16.956 10.867 17 10.973 17 11.084V11.917C17 12.028 16.956 12.133 16.878 12.212C16.8 12.29 16.694 12.334 16.583 12.334H12.833V16.084C12.833 16.194 12.789 16.3 12.711 16.379C12.633 16.456 12.527 16.5 12.417 16.5H11.583C11.472 16.5 11.367 16.456 11.289 16.378C11.211 16.3 11.167 16.194 11.167 16.083V12.333H7.417C7.306 12.333 7.201 12.289 7.122 12.211C7.044 12.133 7 12.027 7 11.916V11.083C7 10.972 7.044 10.867 7.122 10.788C7.2 10.71 7.306 10.666 7.417 10.666H11.167V6.916C11.167 6.805 11.211 6.7 11.289 6.621C11.368 6.544 11.474 6.5 11.584 6.5H12.417C12.528 6.5 12.633 6.544 12.711 6.622C12.789 6.7 12.833 6.806 12.833 6.917V10.667H16.583Z" fill="currentColor"/>
</svg>
