<svg xmlns="http://www.w3.org/2000/svg" width="20" height="20" viewBox="0 0 20 20">
  <path id="Path_951" data-name="Path 951" d="M17.665,0H2.335A2.338,2.338,0,0,0,0,2.335V17.665A2.337,2.337,0,0,0,2.335,20H17.665A2.337,2.337,0,0,0,20,17.665V2.335A2.337,2.337,0,0,0,17.665,0ZM10.94,10.7V9.3a1.849,1.849,0,0,1,1.847-1.847h5.331v5.087H12.787A1.849,1.849,0,0,1,10.94,10.7ZM9.06,9.3V10.7a3.732,3.732,0,0,0,3.728,3.728h5.331v3.24a.455.455,0,0,1-.454.454H2.335a.453.453,0,0,1-.453-.453V2.335a.453.453,0,0,1,.453-.453H17.665a.453.453,0,0,1,.453.453v3.24H12.787A3.732,3.732,0,0,0,9.06,9.3Z" fill="currentColor"/>
</svg>
