<svg xmlns="http://www.w3.org/2000/svg" width="24.5" height="24.5" viewBox="0 0 24.5 24.5">
  <g id="wallet" transform="translate(-1.75 -1.75)">
    <path id="Path_381" data-name="Path 381" d="M23.429,2H4.571A2.571,2.571,0,0,0,2,4.571V23.429A2.571,2.571,0,0,0,4.571,26H23.429A2.571,2.571,0,0,0,26,23.429V4.571A2.571,2.571,0,0,0,23.429,2Zm0,22.286H4.571a.857.857,0,0,1-.857-.857V4.571a.857.857,0,0,1,.857-.857H23.429a.857.857,0,0,1,.857.857V8.857H17.429a4.286,4.286,0,0,0-4.286,4.286v1.714a4.286,4.286,0,0,0,4.286,4.286h6.857v4.286A.857.857,0,0,1,23.429,24.286Zm.857-6.857H17.429a2.571,2.571,0,0,1-2.571-2.571V13.143a2.571,2.571,0,0,1,2.571-2.571h6.857Z" transform="translate(0)" fill="#fff" stroke="#fff" stroke-width="0.5"/>
    <circle id="Ellipse_2" data-name="Ellipse 2" cx="1.714" cy="1.714" r="1.714" transform="translate(17.857 12.286)" fill="#fff" stroke="#fff" stroke-width="0.5"/>
  </g>
</svg>
