<svg xmlns="http://www.w3.org/2000/svg" width="35.469" height="23.28" viewBox="0 0 35.469 23.28">
  <g id="claim" transform="translate(0 1.437)">
    <g id="Icon_Heart" data-name="Icon/Heart" transform="translate(8 -4.437)">
      <path id="Heart" d="M2.184,2.184a7.456,7.456,0,0,1,10.275-.257l.275.262A7.457,7.457,0,0,1,23.541,12.46l-.262.275L12.734,23.28,2.189,12.735A7.458,7.458,0,0,1,2.184,2.184Z" transform="translate(2 3)" fill="#ff4784"/>
    </g>
    <g id="Group_147" data-name="Group 147" transform="translate(0 0.058)">
      <path id="path4109" d="M35.667,17.959c-.336,0-.672,0-1.009,0h-.142l-.006-.141c-.013-.336-.018-.673-.022-1.011-3.417,0-6.833.026-10.249.042h-.147l0-.147c0-.284-.008-.569-.017-.854l0-.155h.155c.334,0,.667,0,1-.009,0-1.159,0-2.319-.021-3.479-1.155.007-2.309.009-3.464.017,0,.336-.019.676.007,1.016l.014.186-.184-.027a6.755,6.755,0,0,0-1.005-.01c-.015.321-.017.644-.016.968v.138l-.138.012c-.714.057-1.43.034-2.148.05-.012.333-.016.669-.017,1V15.7l-.145,0c-.716.009-1.432.011-2.148.026,0,.336-.019.675,0,1.014l.01.171L15.8,16.9c-.716-.053-1.437,0-2.155,0q-.007.491-.008.983v.147l-.147,0c-1.106.02-2.212.018-3.318.039-.018,1.909-.011,3.819,0,5.729.013,1.955.006,3.91.063,5.864,1.1-.037,2.205.057,3.307.006l.158-.006,0,.158c-.008.328,0,.657.012.983,1.1.007,2.2,0,3.293,0h.136l.014.134a9.732,9.732,0,0,1,.037,1.007c1.229,0,2.456-.027,3.685,0h.007c1.476-.048,2.953-.027,4.429-.052,0-.331,0-.662,0-.99v-.143l.143,0c.326-.008.653-.014.981-.011.008-.34,0-.678.014-1.014l.007-.13.13-.01c.338-.026.68-.015,1.024-.022,0-.72-.01-1.44,0-2.159v-.145l.145,0c.325-.007.65-.013.977-.01.053-1.105.01-2.213.017-3.319v-.142l.14-.006c.335-.017.67-.025,1.009-.025,0-.719-.01-1.437,0-2.155l0-.143.143,0c1.487-.022,2.975-.021,4.463-.033q0-.288,0-.575c0-.143,0-.285,0-.428l0-.153h.153a9.294,9.294,0,0,0,1.022-.033c-.005-.76-.011-1.519-.011-2.279Z" transform="translate(-10.161 -12.202)" fill="#f1f1f1"/>
      <path id="path3016" d="M149.842,44.928c0,.76,0,1.52.011,2.28a9.98,9.98,0,0,1-1.146.033c-.011-.773-.005-1.545-.019-2.317C149.072,44.925,149.457,44.924,149.842,44.928Z" transform="translate(-124.335 -39.172)" fill="#1c1c1c"/>
      <path id="path3018" d="M88.835,33.119c0,.384.005.769.024,1.153q-6.375.033-12.75.066-.016-.581-.007-1.161c.38-.009.762-.011,1.143-.008.013-.385.009-.77.005-1.155.388-.015.778-.02,1.167-.007.016.384.014.769.021,1.154,3.465-.016,6.931-.044,10.4-.043Z" transform="translate(-64.507 -28.52)" fill="#1c1c1c"/>
      <path id="path3020" d="M51.063,58.133c.007.383.007.767,0,1.15-1.537.013-3.074.01-4.61.034-.016.767,0,1.534,0,2.3-.383,0-.767,0-1.15.028-.013,1.154.039,2.31-.016,3.463q-.562,0-1.123.012c-.01.768,0,1.537,0,2.306-.385.007-.772-.015-1.155.027-.032.382-.01.765-.019,1.148-.375,0-.75,0-1.126.012,0,.378-.006.757,0,1.137-1.478.025-2.956,0-4.432.052-1.23-.031-2.46,0-3.69,0a8.691,8.691,0,0,0-.048-1.14c-1.143,0-2.286.009-3.429,0-.014-.38-.028-.76-.012-1.139,1.163-.049,2.327-.035,3.491-.029q0,.573,0,1.147l8.107-.036c0-.382,0-.764-.006-1.146.376-.023.754,0,1.129-.033a6.175,6.175,0,0,0,.024-1.149c-1.159,0-2.318.025-3.478.008q0-.567-.007-1.135c1.546-.034,3.093-.015,4.639-.032,0-.775-.005-1.55-.012-2.324-1.158.006-2.317.023-3.475.016q-.015-.576-.007-1.151c1.545-.015,3.09-.024,4.635-.013,0-.776,0-1.551-.016-2.326-1.543,0-3.087.021-4.63.023q-.02-.582-.007-1.164,5.2-.026,10.411-.043Z" transform="translate(-26.72 -50.059)" fill="#1c1c1c"/>
      <path id="path3026" d="M79.418,12.205c.025,1.159.025,2.319.021,3.478-.384.01-.768.019-1.152.009-.022-.769-.012-1.538-.022-2.306-.765-.024-1.533.049-2.3,0a8.671,8.671,0,0,1-.013-1.165C77.109,12.213,78.263,12.212,79.418,12.205Z" transform="translate(-64.378 -12.204)" fill="#1c1c1c"/>
      <path id="path3030" d="M48.844,18.875A6.235,6.235,0,0,1,48.875,20c-.386.01-.773.013-1.161.011,0,.387,0,.773,0,1.161-.771.013-1.541.008-2.311.016q.006.573,0,1.147c-.773,0-1.551.058-2.321-.017a10.585,10.585,0,0,1-.007-1.13c.764-.016,1.528-.018,2.291-.028,0-.383.005-.765.019-1.148.761-.017,1.523.017,2.282-.056,0-.37,0-.741.019-1.11a5,5,0,0,1,1.157.03Z" transform="translate(-37.28 -17.662)" fill="#1c1c1c"/>
      <path id="path3038" d="M15.965,38.821c.032.378.016.759.015,1.138-.769.014-1.538.008-2.306.014,0,.386.005.773-.006,1.159-.769.011-1.539,0-2.308.016q.012,4.624.042,9.249c.77.008,1.54-.011,2.31-.006.007.394.014.789-.006,1.184-1.154.068-2.309-.039-3.464,0-.057-1.955-.049-3.91-.062-5.865-.012-1.91-.019-3.819,0-5.728,1.155-.021,2.309-.019,3.463-.042,0-.377,0-.753.008-1.13.771,0,1.548-.063,2.315.012Z" transform="translate(-10.166 -34.112)" fill="#1c1c1c"/>
    </g>
  </g>
</svg>
