<svg viewBox="0 0 24 24" fill="none" xmlns="http://www.w3.org/2000/svg">
<path d="M6.28388 16.2874C5.91275 16.6584 5.89508 17.321 6.29272 17.7008C6.67269 18.0984 7.34427 18.0807 7.7154 17.7097L12.0011 13.4251L16.2868 17.7097C16.6668 18.0895 17.3207 18.0984 17.7007 17.7008C18.0983 17.321 18.0895 16.6584 17.7095 16.2785L13.4238 11.994L17.7095 7.71829C18.0895 7.32959 18.0983 6.67587 17.7007 6.296C17.3207 5.89847 16.6668 5.9073 16.2868 6.28717L12.0011 10.5717L7.7154 6.28717C7.34427 5.91614 6.67269 5.89847 6.29272 6.296C5.89508 6.67587 5.91275 7.33843 6.28388 7.70946L10.5696 11.994L6.28388 16.2874Z" fill="currentColor"/>
</svg>
