<svg viewBox="0 0 24 24" fill="none" xmlns="http://www.w3.org/2000/svg">
<path fill="currentColor"  d="M17.1792 18.1283C17.0541 18.2533 16.8846 18.3235 16.7077 18.3235C16.5309 18.3235 16.3614 18.2533 16.2363 18.1283L11.9937 13.8856L7.75106 18.1283C7.62604 18.2533 7.45647 18.3235 7.27966 18.3235C7.10285 18.3235 6.93328 18.2533 6.80825 18.1283L5.86544 17.1854C5.74042 17.0604 5.67018 16.8909 5.67018 16.714C5.67018 16.5372 5.74042 16.3677 5.86544 16.2426L10.1081 12L5.86544 7.75736C5.74042 7.63233 5.67018 7.46277 5.67018 7.28595C5.67018 7.10914 5.74042 6.93957 5.86544 6.81455L6.80825 5.87174C6.93328 5.74672 7.10285 5.67648 7.27966 5.67648C7.45647 5.67648 7.62604 5.74672 7.75106 5.87174L11.9937 10.1144L16.2363 5.87174C16.3614 5.74672 16.5309 5.67648 16.7077 5.67648C16.8846 5.67648 17.0541 5.74672 17.1792 5.87174L18.122 6.81455C18.247 6.93957 18.3172 7.10914 18.3172 7.28595C18.3172 7.46277 18.247 7.63233 18.122 7.75736L13.8793 12L18.122 16.2426C18.247 16.3677 18.3172 16.5372 18.3172 16.714C18.3172 16.8909 18.247 17.0604 18.122 17.1854L17.1792 18.1283Z"/>
</svg>
