<svg xmlns="http://www.w3.org/2000/svg" width="22" height="22" viewBox="0 0 22 22">
  <g id="Group_339" data-name="Group 339" transform="translate(-2480.708 83.532)">
    <path id="Path_297" data-name="Path 297" d="M1.114.41,27.43,0A1.056,1.056,0,0,1,28.509,1.08,1.139,1.139,0,0,1,27.4,2.193L1.08,2.6A1.056,1.056,0,0,1,0,1.524,1.139,1.139,0,0,1,1.114.41Z" transform="translate(2482.549 -83.532) rotate(45)" fill="#f1f1f1"/>
    <path id="Path_298" data-name="Path 298" d="M1.08,0,27.4.41a1.139,1.139,0,0,1,1.114,1.114A1.056,1.056,0,0,1,27.43,2.6L1.114,2.193A1.139,1.139,0,0,1,0,1.08,1.056,1.056,0,0,1,1.08,0Z" transform="translate(2502.708 -81.691) rotate(135)" fill="#f1f1f1"/>
  </g>
</svg>
