<svg id="Group_56" data-name="Group 56" xmlns="http://www.w3.org/2000/svg" width="18.2" height="18.2" viewBox="0 0 18.2 18.2">
  <path id="copy" d="M16.067,18.2H6.4a2.135,2.135,0,0,1-2.133-2.133V6.4A2.135,2.135,0,0,1,6.4,4.266h9.669A2.135,2.135,0,0,1,18.2,6.4v9.669A2.135,2.135,0,0,1,16.067,18.2ZM6.4,5.688a.712.712,0,0,0-.711.711v9.669a.712.712,0,0,0,.711.711h9.669a.712.712,0,0,0,.711-.711V6.4a.712.712,0,0,0-.711-.711ZM2.844,12.513H2.133a.712.712,0,0,1-.711-.711V2.133a.712.712,0,0,1,.711-.711H11.8a.712.712,0,0,1,.711.711v.675h1.422V2.133A2.135,2.135,0,0,0,11.8,0H2.133A2.135,2.135,0,0,0,0,2.133V11.8a2.135,2.135,0,0,0,2.133,2.133h.711Zm0,0" transform="translate(0)" fill="currentColor"/>
</svg>
