<svg viewBox="0 0 22 22" fill="none" xmlns="http://www.w3.org/2000/svg">
<path d="M15.8888 9.16675H10.3888C9.71383 9.16675 9.16663 9.71396 9.16663 10.389V15.889C9.16663 16.564 9.71383 17.1112 10.3888 17.1112H15.8888C16.5639 17.1112 17.1111 16.564 17.1111 15.889V10.389C17.1111 9.71396 16.5639 9.16675 15.8888 9.16675Z" stroke="currentColor" stroke-opacity="0.85" stroke-width="1.33333" stroke-linecap="round" stroke-linejoin="round"/>
<path d="M6.72213 12.8334H6.11102C5.78686 12.8334 5.47599 12.7046 5.24677 12.4754C5.01756 12.2462 4.88879 11.9353 4.88879 11.6111V6.11114C4.88879 5.78698 5.01756 5.47611 5.24677 5.2469C5.47599 5.01769 5.78686 4.88892 6.11102 4.88892H11.611C11.9352 4.88892 12.246 5.01769 12.4753 5.2469C12.7045 5.47611 12.8332 5.78698 12.8332 6.11114V6.72225" stroke="currentColor" stroke-width="1.33333" stroke-linecap="round" stroke-linejoin="round"/>
</svg>
