<svg xmlns="http://www.w3.org/2000/svg" width="22" height="22" viewBox="0 0 22 22">
  <g id="Group_23" data-name="Group 23" transform="translate(-217 -111)">
    <g id="Group_56" data-name="Group 56" transform="translate(-37)">
      <path id="copy" d="M19.422,22H7.734a2.581,2.581,0,0,1-2.578-2.578V7.734A2.581,2.581,0,0,1,7.734,5.156H19.422A2.581,2.581,0,0,1,22,7.734V19.422A2.581,2.581,0,0,1,19.422,22ZM7.734,6.875a.86.86,0,0,0-.859.859V19.422a.86.86,0,0,0,.859.859H19.422a.86.86,0,0,0,.859-.859V7.734a.86.86,0,0,0-.859-.859Zm-4.3,8.25H2.578a.86.86,0,0,1-.859-.859V2.578a.86.86,0,0,1,.859-.859H14.266a.86.86,0,0,1,.859.859v.816h1.719V2.578A2.581,2.581,0,0,0,14.266,0H2.578A2.581,2.581,0,0,0,0,2.578V14.266a2.581,2.581,0,0,0,2.578,2.578h.859Zm0,0" transform="translate(254 111)" fill="#6a8ebe"/>
    </g>
  </g>
</svg>
