<svg viewBox="0 0 24 24" fill="none" xmlns="http://www.w3.org/2000/svg">
<path opacity="0.44" d="M5.99999 16C5.71796 16.013 5.43651 15.964 5.17553 15.8563C4.91454 15.7486 4.68039 15.5849 4.48962 15.3768C4.29886 15.1687 4.15612 14.9212 4.07152 14.6518C3.98691 14.3825 3.96249 14.0978 3.99999 13.818V6.18199C3.96573 5.88716 3.9986 5.58841 4.09615 5.30808C4.19369 5.02776 4.35337 4.77313 4.56325 4.56325C4.77313 4.35337 5.02776 4.19369 5.30808 4.09615C5.58841 3.9986 5.88716 3.96573 6.18199 3.99999H13.818C14.0978 3.96249 14.3825 3.98691 14.6518 4.07152C14.9212 4.15612 15.1687 4.29886 15.3768 4.48962C15.5849 4.68039 15.7486 4.91454 15.8563 5.17553C15.964 5.43651 16.013 5.71796 16 5.99999H8.99999C8.20434 5.99999 7.44128 6.31606 6.87867 6.87867C6.31606 7.44128 5.99999 8.20434 5.99999 8.99999V15.994V16Z" fill="currentColor"/>
<path d="M10.1821 8.00003H17.8181C18.1132 7.96458 18.4124 7.99663 18.6933 8.09375C18.9742 8.19088 19.2293 8.35054 19.4394 8.56068C19.6496 8.77082 19.8092 9.02596 19.9064 9.30683C20.0035 9.5877 20.0355 9.88696 20.0001 10.182V17.818C20.0355 18.1131 20.0035 18.4124 19.9064 18.6932C19.8092 18.9741 19.6496 19.2292 19.4394 19.4394C19.2293 19.6495 18.9742 19.8092 18.6933 19.9063C18.4124 20.0034 18.1132 20.0355 17.8181 20H10.1821C9.88702 20.0355 9.58776 20.0034 9.30689 19.9063C9.02602 19.8092 8.77088 19.6495 8.56074 19.4394C8.3506 19.2292 8.19094 18.9741 8.09382 18.6932C7.99669 18.4124 7.96464 18.1131 8.00009 17.818V10.182C7.96464 9.88696 7.99669 9.5877 8.09382 9.30683C8.19094 9.02596 8.3506 8.77082 8.56074 8.56068C8.77088 8.35054 9.02602 8.19088 9.30689 8.09375C9.58776 7.99663 9.88702 7.96458 10.1821 8.00003Z" fill="currentColor"/>
</svg>
