<svg xmlns="http://www.w3.org/2000/svg" width="20" height="20" viewBox="0 0 20 20">
  <g id="Group_23" data-name="Group 23" transform="translate(-217 -111)">
    <g id="Group_56" data-name="Group 56" transform="translate(217 111)">
      <path id="copy" d="M17.656,20H7.031a2.346,2.346,0,0,1-2.344-2.344V7.031A2.346,2.346,0,0,1,7.031,4.688H17.656A2.346,2.346,0,0,1,20,7.031V17.656A2.346,2.346,0,0,1,17.656,20ZM7.031,6.25a.782.782,0,0,0-.781.781V17.656a.782.782,0,0,0,.781.781H17.656a.782.782,0,0,0,.781-.781V7.031a.782.782,0,0,0-.781-.781Zm-3.906,7.5H2.344a.782.782,0,0,1-.781-.781V2.344a.782.782,0,0,1,.781-.781H12.969a.782.782,0,0,1,.781.781v.742h1.563V2.344A2.346,2.346,0,0,0,12.969,0H2.344A2.346,2.346,0,0,0,0,2.344V12.969a2.346,2.346,0,0,0,2.344,2.344h.781Zm0,0" transform="translate(0)" fill="currentColor"/>
    </g>
  </g>
</svg>
