<svg viewBox="0 0 24 24" fill="none" xmlns="http://www.w3.org/2000/svg">
<path d="M19.2202 4.67847H4.77995C2.95486 4.67847 2.00006 5.62481 2.00006 7.43301V8.19346H22.0001V7.43301C22.0001 5.62481 21.0537 4.67847 19.2202 4.67847ZM5.53196 16.6176C5.03344 16.6176 4.69546 16.2881 4.69546 15.8065V14.2433C4.69546 13.7701 5.03344 13.4322 5.53196 13.4322H7.60209C8.09216 13.4322 8.43014 13.7701 8.43014 14.2433V15.8065C8.43014 16.2881 8.09216 16.6176 7.60209 16.6176H5.53196ZM4.77995 19.3215H19.2202C21.0537 19.3215 22.0001 18.3667 22.0001 16.5585V10.1791H2.00006V16.5585C2.00006 18.3751 2.95486 19.3215 4.77995 19.3215Z" fill="currentColor"/>
</svg>
