<svg width="20" height="16" viewBox="0 0 20 16" fill="none" xmlns="http://www.w3.org/2000/svg">
<path d="M17.2201 0.678467H2.77989C0.954795 0.678467 0 1.62481 0 3.43301V4.19346H20V3.43301C20 1.62481 19.0537 0.678467 17.2201 0.678467ZM3.5319 12.6176C3.03338 12.6176 2.69539 12.2881 2.69539 11.8065V10.2433C2.69539 9.77014 3.03338 9.43216 3.5319 9.43216H5.60203C6.0921 9.43216 6.43008 9.77014 6.43008 10.2433V11.8065C6.43008 12.2881 6.0921 12.6176 5.60203 12.6176H3.5319ZM2.77989 15.3215H17.2201C19.0537 15.3215 20 14.3667 20 12.5585V6.1791H0V12.5585C0 14.3751 0.954795 15.3215 2.77989 15.3215Z" fill="white"/>
</svg>
