
<svg viewBox="0 0 22 22" xmlns="http://www.w3.org/2000/svg">
<path fill-rule="evenodd" clip-rule="evenodd" d="M0 18.9332C0.392092 20.9539 1.8331 22 4.25911 22H17.6314C20.5083 22 22 20.5289 22 17.706V4.30723C22 1.47108 20.5083 0 17.6314 0H4.25911C1.8331 0 0.392092 1.04611 0 3.07475V18.9332ZM11.0918 16.1024C11.145 16.3807 11.3448 16.5795 11.6378 16.5795C11.9042 16.5795 12.104 16.3807 12.1573 16.1157C12.8898 12.0735 13.2894 11.3313 17.4982 10.7747C17.7912 10.7482 17.991 10.5229 17.991 10.2446C17.991 9.97952 17.7912 9.76747 17.4982 9.71446C13.3293 9.15783 12.7833 8.40241 12.1573 4.4C12.1173 4.12169 11.9042 3.92289 11.6378 3.92289C11.3581 3.92289 11.1583 4.10843 11.0918 4.38675C10.3725 8.45542 9.95964 9.15783 5.76416 9.71446C5.47114 9.76747 5.27136 9.97952 5.27136 10.2446C5.27136 10.5229 5.47114 10.7349 5.76416 10.7747C9.94632 11.2518 10.4791 12.0602 11.0918 16.1024ZM5.68425 18.4747C5.75084 18.6867 5.88403 18.8325 6.09713 18.8325C6.29692 18.8325 6.44343 18.7 6.4967 18.5012C6.51602 18.3937 6.534 18.2917 6.55106 18.195C6.85148 16.4907 6.86712 16.402 8.93408 16.0759C9.13386 16.0361 9.28037 15.8771 9.28037 15.6916C9.28037 15.4928 9.13386 15.3337 8.93408 15.294C6.86733 14.9679 6.85148 14.8792 6.55115 13.1979C6.53407 13.1023 6.51606 13.0015 6.4967 12.8952C6.44343 12.6831 6.31024 12.5241 6.09713 12.5241C5.89735 12.5241 5.75084 12.6699 5.68425 12.8952C5.65838 13.0312 5.63501 13.1582 5.61318 13.2767C5.32036 14.8673 5.30538 14.9486 3.26019 15.294C3.06041 15.3337 2.92722 15.4928 2.92722 15.6916C2.92722 15.9036 3.06041 16.0361 3.30015 16.0759C5.30408 16.3836 5.32049 16.4741 5.61142 18.078C5.63374 18.2011 5.65767 18.333 5.68425 18.4747Z" fill="currentColor"/>
</svg>
