<svg viewBox="0 0 40 40" fill="none" xmlns="http://www.w3.org/2000/svg"><path d="M20.132 35.264c8.276 0 15.132-6.841 15.132-15.132C35.264 11.855 28.408 5 20.117 5 11.841 5 5 11.855 5 20.132c0 8.29 6.855 15.132 15.132 15.132zm-.747-6.475c-.469 0-.835-.278-.923-.732l-.425-1.758c-.278-.103-.571-.22-.806-.322l-1.538.922c-.366.279-.835.22-1.171-.102l-1.04-1.04c-.323-.337-.381-.82-.103-1.201l.923-1.524a4.704 4.704 0 0 1-.322-.79l-1.758-.41c-.47-.104-.733-.455-.733-.924v-1.48c0-.453.264-.82.733-.908l1.743-.424c.102-.308.22-.586.322-.806l-.937-1.538c-.264-.396-.235-.85.102-1.187l1.07-1.04c.336-.322.747-.366 1.157-.131l1.538.937c.249-.117.542-.234.82-.337l.425-1.743c.088-.469.454-.762.923-.762h1.509a.9.9 0 0 1 .908.747l.425 1.773c.293.102.57.22.805.337l1.568-.952c.41-.235.805-.176 1.142.131l1.07 1.04c.336.337.366.791.102 1.187l-.937 1.538c.102.22.22.498.322.806l1.758.424c.454.088.732.455.732.909v1.48c0 .468-.278.82-.732.922l-1.773.41c-.088.279-.19.542-.307.791l.908 1.524c.293.38.22.864-.103 1.2l-1.04 1.04c-.322.323-.79.382-1.172.103l-1.538-.922c-.234.102-.512.22-.805.322l-.425 1.758c-.088.454-.454.732-.908.732h-1.51zm.747-5.786a2.885 2.885 0 0 0 2.87-2.871c0-1.553-1.288-2.842-2.87-2.842-1.568 0-2.857 1.29-2.857 2.842 0 1.567 1.29 2.87 2.857 2.87z" fill="#fff"/></svg>