<svg viewBox="0 0 20 20" fill="none" xmlns="http://www.w3.org/2000/svg">
<path d="M6.47614 18.3333H13.5317C14.5524 18.3333 15.1485 17.7894 15.1932 16.7761L15.6626 6.01024H16.6907C17.0707 6.01024 17.3613 5.71222 17.3613 5.3397C17.3613 4.96718 17.0632 4.68406 16.6907 4.68406H13.4572V3.56649C13.4572 2.37442 12.6898 1.66663 11.4083 1.66663L8.57717 1.66663C7.29569 1.66663 6.5283 2.37442 6.5283 3.56649V4.68406H3.3097C2.93718 4.68406 2.63916 4.97463 2.63916 5.3397C2.63916 5.71967 2.93718 6.01024 3.3097 6.01024H4.34531L4.82214 16.7761C4.8594 17.7894 5.45543 18.3333 6.47614 18.3333ZM8.07799 3.63355C8.07799 3.29828 8.30896 3.08221 8.68148 3.08221H11.3115C11.684 3.08221 11.915 3.29828 11.915 3.63355V4.68406L8.07799 4.68406V3.63355ZM7.60861 16.046C7.3106 16.046 7.10198 15.8523 7.09453 15.5543L6.87102 7.64189C6.86357 7.34387 7.07218 7.14271 7.3851 7.14271C7.68312 7.14271 7.89173 7.33642 7.89918 7.63444L8.12269 15.5468C8.1376 15.8448 7.92898 16.046 7.60861 16.046ZM10.0002 16.046C9.68729 16.046 9.47868 15.8523 9.47868 15.5543L9.47868 7.63444C9.47868 7.34387 9.68729 7.14271 10.0002 7.14271C10.3131 7.14271 10.5292 7.34387 10.5292 7.63444L10.5292 15.5543C10.5292 15.8523 10.3131 16.046 10.0002 16.046ZM12.3918 16.0535C12.0714 16.0535 11.8628 15.8448 11.8777 15.5543L12.1012 7.63444C12.1087 7.33642 12.3173 7.14271 12.6153 7.14271C12.9282 7.14271 13.1369 7.34387 13.1294 7.64189L12.9059 15.5543C12.8984 15.8523 12.6898 16.0535 12.3918 16.0535Z" fill="currentColor"/>
</svg>
