<svg xmlns="http://www.w3.org/2000/svg" width="20" height="19.899" viewBox="0 0 20 19.899">
  <g id="edit_3_" data-name="edit (3)" transform="translate(0 -0.261)">
    <path id="Path_421" data-name="Path 421" d="M18.459,49.722a.5.5,0,0,0-.5.5v4.423a1.5,1.5,0,0,1-1.494,1.494H2.491A1.5,1.5,0,0,1,1,54.643V41.663a1.5,1.5,0,0,1,1.494-1.494H6.913a.5.5,0,0,0,0-1H2.491A2.493,2.493,0,0,0,0,41.663v12.98a2.493,2.493,0,0,0,2.491,2.491H16.467a2.493,2.493,0,0,0,2.491-2.491V50.22a.5.5,0,0,0-.5-.5Zm0,0" transform="translate(0 -36.973)" fill="#fff"/>
    <path id="Path_422" data-name="Path 422" d="M121.561.917a2.241,2.241,0,0,0-3.17,0L109.5,9.8a.5.5,0,0,0-.128.219l-1.169,4.219a.5.5,0,0,0,.613.613l4.219-1.169a.5.5,0,0,0,.219-.128l8.886-8.887a2.244,2.244,0,0,0,0-3.17Zm-10.971,9.21,7.273-7.273L120.209,5.2l-7.273,7.273Zm-.469.94L112,12.942l-2.592.718Zm11.32-7.1-.528.528L118.567,2.15l.528-.528a1.245,1.245,0,0,1,1.761,0l.585.584A1.247,1.247,0,0,1,121.441,3.967Zm0,0" transform="translate(-102.801 0)" fill="#fff"/>
  </g>
</svg>
