<svg viewBox="0 0 24 24" fill="none" xmlns="http://www.w3.org/2000/svg">
<g opacity="0.7">
<path opacity="0.44" d="M7.71402 19.71C7.90028 19.8947 8.15168 19.9989 8.41402 20H20.994C21.5245 20 22.0332 19.7893 22.4082 19.4142C22.7833 19.0391 22.994 18.5304 22.994 18V6C22.994 5.46957 22.7833 4.96086 22.4082 4.58579C22.0332 4.21071 21.5245 4 20.994 4H8.42002C8.15768 4.0011 7.90628 4.10526 7.72002 4.29L0.657021 11.29C0.563141 11.383 0.488619 11.4936 0.437761 11.6156C0.386903 11.7375 0.360718 11.8684 0.360718 12.0005C0.360718 12.1326 0.386903 12.2635 0.437761 12.3854C0.488619 12.5074 0.563141 12.618 0.657021 12.711L7.71402 19.71Z" fill="white"/>
<path d="M15.414 14.829L14 13.415L12.586 14.829C12.3983 15.0165 12.1439 15.1218 11.8786 15.1217C11.6134 15.1216 11.359 15.0161 11.1715 14.8285C10.984 14.6408 10.8787 14.3864 10.8788 14.1211C10.8789 13.8559 10.9843 13.6015 11.172 13.414L12.585 12L11.172 10.586C10.9898 10.3974 10.889 10.1448 10.8913 9.88259C10.8936 9.62039 10.9988 9.36958 11.1842 9.18417C11.3696 8.99876 11.6204 8.89359 11.8826 8.89131C12.1448 8.88903 12.3974 8.98983 12.586 9.17199L14 10.585L15.414 9.17199C15.5068 9.07908 15.6171 9.00536 15.7384 8.95506C15.8597 8.90475 15.9898 8.87883 16.1211 8.87878C16.2525 8.87874 16.3826 8.90456 16.5039 8.95478C16.6253 9.00501 16.7356 9.07864 16.8285 9.17149C16.9214 9.26433 16.9951 9.37457 17.0454 9.4959C17.0957 9.61723 17.1216 9.74728 17.1217 9.87863C17.1217 10.01 17.0959 10.1401 17.0457 10.2614C16.9955 10.3828 16.9218 10.4931 16.829 10.586L15.415 12L16.829 13.414C17.0166 13.6016 17.122 13.8561 17.122 14.1215C17.122 14.3869 17.0166 14.6413 16.829 14.829C16.6413 15.0166 16.3869 15.122 16.1215 15.122C15.8561 15.122 15.6016 15.0166 15.414 14.829Z" fill="white"/>
</g>
</svg>
