<svg viewBox="0 0 24 24" fill="none" xmlns="http://www.w3.org/2000/svg">
<path opacity="0.44" d="M12.4471 3.97744C12.3536 3.82851 12.2218 3.70605 12.0647 3.62228C11.9076 3.5385 11.7307 3.49633 11.5516 3.49997C11.3726 3.50361 11.1977 3.55293 11.0443 3.64302C10.8909 3.7331 10.7644 3.86081 10.6774 4.01341L2.12916 19.015C2.04237 19.1672 1.99788 19.3388 2.00008 19.5129C2.00228 19.687 2.0511 19.8575 2.14171 20.0076C2.23231 20.1576 2.36156 20.2819 2.51663 20.3683C2.6717 20.4546 2.84722 20.4999 3.02579 20.4998H20.9758C21.1578 20.4997 21.3364 20.4523 21.4934 20.3626C21.6504 20.2729 21.78 20.1441 21.869 19.9893C21.958 19.8346 22.0032 19.6595 21.9998 19.4821C21.9965 19.3048 21.9447 19.1314 21.8499 18.98L12.4471 3.97744Z" fill="#FF4746"/>
<path d="M12.7 9.49976C12.7 8.94747 12.2522 8.49976 11.7 8.49976C11.1477 8.49976 10.7 8.94747 10.7 9.49976V14.4998C10.7 15.052 11.1477 15.4998 11.7 15.4998C12.2522 15.4998 12.7 15.052 12.7 14.4998V9.49976Z" fill="#FF4746"/>
<path d="M12.7 17.4998C12.7 16.9475 12.2522 16.4998 11.7 16.4998C11.1477 16.4998 10.7 16.9475 10.7 17.4998C10.7 18.052 11.1477 18.4998 11.7 18.4998C12.2522 18.4998 12.7 18.052 12.7 17.4998Z" fill="#FF4746"/>
</svg>
