<?xml version="1.0" encoding="iso-8859-1"?>
<!-- Generator: Adobe Illustrator 19.0.0, SVG Export Plug-In . SVG Version: 6.00 Build 0)  -->
<svg version="1.1" id="Capa_1" xmlns="http://www.w3.org/2000/svg" xmlns:xlink="http://www.w3.org/1999/xlink" x="0px" y="0px"
	 viewBox="0 0 490.001 490.001" style="enable-background:new 0 0 490.001 490.001;" xml:space="preserve">
<g>
	<g>
		<path d="M439.823,231.55c-12.7-7.6-23,0-27.1,5.2c-42.8,52.2-147.1,57.4-189.9,57.4c-2.1,0-4.2,0-5.2,0v-44.9
			c0-20-21.9-25.9-33.4-15.6l-128.3,109.3c-9.8,8.3-9.8,23.3-0.1,31.7c39.5,33.9,128.4,110.5,128.4,110.5
			c9.1,9.1,33.4,6.2,33.4-15.6v-41.7c0,0,0,0,0.1-0.1c42.9,1.2,166.5-10.6,230.5-171C452.323,247.25,448.323,236.65,439.823,231.55z
			 M221.823,385.95c-12.5,0-20.9-1-20.9-1c-12.5-2.5-24,7.1-24,19.8v19.8l-77.2-65.7l77.2-65.7v19.8c0,11.5,8.3,19.8,18.8,20.9
			c1,0,10.4,1,27.1,1c38.6,0,98.1-4.2,147.1-25C320.923,374.55,259.323,385.95,221.823,385.95z"/>
		<path d="M77.323,253.15c42.8-52.2,147.1-57.4,189.9-57.4c2.1,0,4.2,0,5.2,0v44.9c0,20,21.9,25.9,33.4,15.6l128.3-109.2
			c9.8-8.3,9.8-23.3,0.1-31.7c-39.5-34-128.5-110.5-128.5-110.5c-9.1-9.1-33.4-6.2-33.4,15.6v41.7c0,0,0,0-0.1,0.1
			c-42.9-1.1-166.5,10.7-230.4,171.1c-4.2,9.4-0.1,20,8.3,25C62.823,265.95,73.123,258.35,77.323,253.15z M268.223,103.95
			c12.5,0,20.9,1,20.9,1c12.5,2.5,24-7.1,24-19.8v-19.8l77.2,65.7l-77.2,65.7v-19.8c0-11.5-8.3-19.8-18.8-20.9c-1,0-10.4-1-27.1-1
			c-38.6,0-98.1,4.2-147.1,25C169.123,115.45,230.623,103.95,268.223,103.95z"/>
	</g>
</g>
<g>
</g>
<g>
</g>
<g>
</g>
<g>
</g>
<g>
</g>
<g>
</g>
<g>
</g>
<g>
</g>
<g>
</g>
<g>
</g>
<g>
</g>
<g>
</g>
<g>
</g>
<g>
</g>
<g>
</g>
</svg>
