<svg viewBox="0 0 24 24" fill="currentColor" xmlns="http://www.w3.org/2000/svg">
<path d="M6.72149 19.9999H16.3584C17.9466 19.9999 18.8813 19.063 18.8813 17.2729V10.1042L17.2269 12.0895V17.1224C17.2269 17.9254 16.8051 18.3269 16.2508 18.3269H6.82903C6.068 18.3269 5.6544 17.9254 5.6544 17.1224V7.82895C5.6544 7.02592 6.068 6.6244 6.82903 6.6244H12.386L13.7977 4.95142H6.72149C4.93474 4.95142 4 5.88829 4 7.67838V17.2729C4 19.063 4.93474 19.9999 6.72149 19.9999Z" fill="currentColor"/>
<path d="M14.7787 10.4934L14.7817 10.4953L12.2301 13.073C12.047 13.258 11.839 13.3504 11.6144 13.3504C11.1151 13.3588 10.7573 12.9806 10.7573 12.4846C10.7573 12.2577 10.8572 12.0307 11.0319 11.8542L11.7469 11.1319C11.7649 11.1104 11.7839 11.0895 11.804 11.0693L16.0392 6.79074L17.5287 5.47102C16.7132 5.57189 15.6981 5.57189 15.2904 5.57189C14.866 5.57189 14.5249 5.21044 14.5249 4.79015C14.5249 4.35304 14.866 4 15.2904 4H19.0181C19.6588 4 19.9999 4.34464 19.9999 4.98348V8.74089C19.9999 9.17799 19.6504 9.52263 19.2261 9.52263C18.8017 9.52263 18.4523 9.17799 18.4523 8.74089C18.4523 8.35422 18.4606 7.25306 18.5271 6.49653L17.2457 8.00117L14.7787 10.4934Z" fill="currentColor"/>
</svg>
