<svg viewBox="0 0 20 14" fill="none" xmlns="http://www.w3.org/2000/svg">
<path d="M10.0036 13.4524C15.9738 13.4524 20 8.63993 20 7.14739C20 5.65485 15.9665 0.849609 10.0036 0.849609C4.12086 0.849609 0 5.65485 0 7.14739C0 8.63993 4.11358 13.4524 10.0036 13.4524ZM10.0036 12.0546C5.35129 12.0546 1.65271 8.16668 1.65271 7.14739C1.65271 6.29555 5.35129 2.2475 10.0036 2.2475C14.6487 2.2475 18.3546 6.29555 18.3546 7.14739C18.3546 8.16668 14.6487 12.0546 10.0036 12.0546ZM10.0036 11.0717C12.1878 11.0717 13.9352 9.28791 13.9352 7.14739C13.9352 4.95591 12.1878 3.23039 10.0036 3.23039C7.81216 3.23039 6.05752 4.95591 6.0648 7.14739C6.07936 9.28791 7.81216 11.0717 10.0036 11.0717ZM10.0036 8.41423C9.29741 8.41423 8.72224 7.84633 8.72224 7.14739C8.72224 6.44844 9.29741 5.88055 10.0036 5.88055C10.7099 5.88055 11.2778 6.44844 11.2778 7.14739C11.2778 7.84633 10.7099 8.41423 10.0036 8.41423Z" fill="currentColor"/>
</svg>
