<svg viewBox="0 0 20 14" fill="none" xmlns="http://www.w3.org/2000/svg">
<path d="M15.7408 13.5636C15.9738 13.7893 16.3305 13.8039 16.5635 13.5636C16.8038 13.3161 16.7892 12.9666 16.5635 12.7409L4.23007 0.422017C4.01165 0.196316 3.63305 0.189035 3.40735 0.422017C3.18893 0.640437 3.18893 1.01903 3.40735 1.23745L15.7408 13.5636ZM10.0036 0.837015C8.7368 0.837015 7.58646 1.05543 6.5162 1.40491L7.68111 2.56981C8.41645 2.35867 9.18092 2.2349 10.0036 2.2349C14.656 2.2349 18.3546 6.28296 18.3546 7.13479C18.3546 7.70997 17.1751 9.19522 15.304 10.3674L16.3815 11.4522C18.6676 9.95241 20 7.99391 20 7.13479C20 5.64226 15.9738 0.837015 10.0036 0.837015ZM10.0036 13.4399C11.3506 13.4399 12.581 13.2069 13.6949 12.821L12.5373 11.6634C11.7437 11.8964 10.9064 12.042 10.0036 12.042C5.35129 12.042 1.65271 8.15409 1.65271 7.13479C1.65271 6.64699 2.89043 5.06708 4.88533 3.84393L3.78595 2.74455C1.40517 4.25893 0 6.26111 0 7.13479C0 8.62733 4.11358 13.4399 10.0036 13.4399ZM13.6367 8.53996C13.826 8.1104 13.9352 7.62988 13.9352 7.13479C13.9352 4.94331 12.1878 3.21779 10.0036 3.21779C9.50127 3.21779 9.02803 3.31244 8.59119 3.49446L13.6367 8.53996ZM10.0036 11.0591C10.5715 11.0591 11.103 10.928 11.5763 10.7023L6.42883 5.54761C6.19585 6.02813 6.0648 6.55962 6.0648 7.14208C6.07208 9.27531 7.81216 11.0591 10.0036 11.0591Z" fill="currentColor"/>
</svg>
