<svg viewBox="0 0 20 20" fill="none" xmlns="http://www.w3.org/2000/svg"><path d="M10.002 15.377c4.975 0 8.33-4.01 8.33-5.254 0-1.244-3.36-5.248-8.33-5.248-4.902 0-8.336 4.004-8.336 5.248 0 1.244 3.428 5.254 8.336 5.254zm0-1.165c-3.877 0-6.959-3.24-6.959-4.089 0-.71 3.082-4.083 6.96-4.083 3.87 0 6.959 3.373 6.959 4.083 0 .85-3.089 4.09-6.96 4.09zm0-.819a3.28 3.28 0 0 0 3.277-3.27 3.249 3.249 0 0 0-3.277-3.264c-1.826 0-3.288 1.438-3.282 3.264.012 1.784 1.456 3.27 3.282 3.27zm0-2.214a1.063 1.063 0 0 1-1.067-1.056c0-.582.479-1.056 1.067-1.056.589 0 1.062.474 1.062 1.056 0 .583-.473 1.056-1.062 1.056z" fill="currentColor"/></svg>