<svg viewBox="0 0 20 20" fill="none" xmlns="http://www.w3.org/2000/svg"><path d="M14.783 15.47c.194.188.492.2.686 0a.476.476 0 0 0 0-.686L5.191 4.518a.482.482 0 1 0-.686.68L14.783 15.47zm-4.78-10.606a9.262 9.262 0 0 0-2.907.473l.97.971a6.94 6.94 0 0 1 1.936-.279c3.877 0 6.96 3.373 6.96 4.083 0 .48-.983 1.717-2.543 2.694l.898.904c1.905-1.25 3.016-2.882 3.016-3.598 0-1.243-3.355-5.248-8.33-5.248zm0 10.503a9.34 9.34 0 0 0 3.075-.516l-.964-.965a7.428 7.428 0 0 1-2.112.316c-3.877 0-6.959-3.24-6.959-4.09 0-.406 1.032-1.723 2.694-2.742l-.916-.916c-1.984 1.262-3.155 2.93-3.155 3.658 0 1.244 3.428 5.255 8.336 5.255zm3.027-4.084c.158-.358.249-.758.249-1.17a3.249 3.249 0 0 0-3.277-3.265c-.418 0-.813.079-1.177.23l4.205 4.205zm-3.028 2.1c.474 0 .916-.11 1.31-.298L7.024 8.79c-.194.4-.303.843-.303 1.328a3.285 3.285 0 0 0 3.282 3.265z" fill="currentColor"/></svg>