<svg width="20" height="20" viewBox="0 0 20 20" fill="none" xmlns="http://www.w3.org/2000/svg">
<path d="M9.99996 7.29199C9.46061 7.29199 8.93336 7.45194 8.48491 7.75159C8.03646 8.05123 7.68693 8.47712 7.48053 8.97542C7.27413 9.47371 7.22013 10.022 7.32535 10.551C7.43057 11.08 7.69029 11.5659 8.07167 11.9473C8.45305 12.3287 8.93896 12.5884 9.46794 12.6936C9.99693 12.7988 10.5452 12.7448 11.0435 12.5384C11.5418 12.332 11.9677 11.9825 12.2674 11.534C12.567 11.0856 12.7269 10.5583 12.7269 10.019C12.7264 9.29591 12.4389 8.60261 11.9276 8.09131C11.4163 7.58001 10.723 7.29252 9.99996 7.29199V7.29199Z" fill="currentColor"/>
<path d="M10 3.20508C7.84183 3.20606 5.73391 3.85648 3.95042 5.07175C2.16694 6.28702 0.790445 8.01087 0 10.0191C0.788507 12.029 2.16438 13.7547 3.94819 14.971C5.732 16.1874 7.84095 16.838 10 16.838C12.1591 16.838 14.268 16.1874 16.0518 14.971C17.8356 13.7547 19.2115 12.029 20 10.0191C19.2101 8.01048 17.8338 6.28624 16.0502 5.07088C14.2666 3.85553 12.1583 3.20537 10 3.20508V3.20508ZM10 14.5691C9.10108 14.5691 8.22235 14.3025 7.47493 13.8031C6.72751 13.3037 6.14497 12.5939 5.80097 11.7634C5.45697 10.9329 5.36696 10.019 5.54233 9.13739C5.7177 8.25575 6.15057 7.44591 6.7862 6.81028C7.42183 6.17465 8.23167 5.74178 9.11331 5.56641C9.99496 5.39104 10.9088 5.48105 11.7393 5.82505C12.5698 6.16905 13.2796 6.75159 13.779 7.49901C14.2784 8.24643 14.545 9.12516 14.545 10.0241C14.5431 11.2285 14.0635 12.3829 13.2114 13.2341C12.3594 14.0852 11.2044 14.5635 10 14.5641V14.5691Z" fill="currentColor"/>
</svg>
