<svg viewBox="0 0 25 24" fill="none" xmlns="http://www.w3.org/2000/svg"><path fill-rule="evenodd" clip-rule="evenodd" d="m7.332 4.506 3.706.403a1.56 1.56 0 0 1 2.764 0l3.706-.403c.755-.084 1.292.395 1.292 1.116 0 .73-.537 1.216-1.292 1.133l-3.708-.41a1.56 1.56 0 0 1-.637.649v1.01h.503c.663 0 1.074.412 1.074 1.074v.957h.226c.37 0 .512.109.663.528l.512 1.385a.473.473 0 0 0 .461.318h.361c2.718 0 5.537 1.603 5.537 6.376v.78c0 .353-.168.512-.52.512h-3.07c-.353 0-.512-.16-.512-.512v-1.166c0-1.107-.663-1.72-1.494-1.72-.436 0-.93.193-1.309.57-.939.865-1.786 1.435-3.187 1.435-1.41 0-2.509-.662-3.33-1.56-.37-.428-.63-.495-1.15-.495H3.85v1.435c0 .369-.302.68-.68.68a.68.68 0 0 1-.671-.68v-6.854c0-.37.302-.68.671-.68.378 0 .68.31.68.68v1.2h4.362a.486.486 0 0 0 .462-.32l.503-1.384c.16-.42.293-.528.663-.528h.234v-.957c0-.662.412-1.073 1.066-1.073h.537v-1.01a1.562 1.562 0 0 1-.638-.65l-3.708.41c-.763.083-1.3-.403-1.3-1.133 0-.721.537-1.2 1.3-1.116z" fill="currentColor"/></svg>