<svg viewBox="0 0 16 16" fill="none" xmlns="http://www.w3.org/2000/svg">
<g clip-path="url(#clip0)">
<path d="M2.08 2.57516C2.03543 2.52175 2.00829 2.45825 2.00162 2.39176C1.99495 2.32527 2.00901 2.25842 2.04223 2.19871C2.07545 2.139 2.12652 2.08878 2.18971 2.05369C2.2529 2.01859 2.32572 2 2.4 2H13.6C13.6743 2 13.7471 2.01859 13.8103 2.05369C13.8735 2.08878 13.9245 2.139 13.9578 2.19871C13.991 2.25842 14.0051 2.32527 13.9984 2.39176C13.9917 2.45825 13.9646 2.52175 13.92 2.57516L9.6 7.75161V13.6405C9.6 13.7018 9.58255 13.7621 9.54932 13.8157C9.51609 13.8692 9.46818 13.9142 9.41014 13.9464C9.3521 13.9786 9.28586 13.9969 9.21771 13.9996C9.14957 14.0024 9.08178 13.9894 9.0208 13.9619L6.4 12.7843V7.75161L2.08 2.57516Z" fill="currentColor" />
</g>
</svg>
