<svg viewBox="0 0 48 48" fill="none" xmlns="http://www.w3.org/2000/svg"><path d="M6.091 30.243c.527-.166.781-.72.636-1.347-.454-1.864-.726-3.839-.636-6.422.019-.683-.345-1.052-.89-1.09-.707-.055-1.088.388-1.143.96-.163 2.086 0 4.577.708 7.142.182.628.763.941 1.325.757zm-.798-11c.526.204 1.198-.036 1.452-.737C9.668 10.2 16.657 6.067 23.755 6.067c3.23 0 5.772.664 7.932 1.92.618.368 1.308.368 1.58-.24.29-.647-.037-1.053-.49-1.348C30.017 4.646 27.222 4 23.754 4 15.55 4 8.106 8.448 4.766 17.49c-.345.923 0 1.57.527 1.754zm37.758 6.7c.581 0 .999-.48.944-1.126-.817-7.51-3.25-12.254-7.442-15.982-.527-.48-1.162-.332-1.471.037-.345.388-.381.997.163 1.495 3.577 3.396 6.173 7.788 6.79 14.487.072.61.436 1.089 1.016 1.089zM8.197 35.595c.345.48 1.035.609 1.543.166 1.307-1.126 1.96-2.934 1.96-4.817 0-2.546-1.088-3.838-1.088-7.013 0-7.234 5.917-13.25 13.033-13.25 8.587 0 14.124 7.142 14.142 17.68 0 4.115-.672 7.031-1.343 8.71-.236.573-.019 1.181.453 1.44.509.221 1.217.037 1.434-.572.708-1.956 1.489-5.168 1.489-9.597 0-11.756-6.372-19.728-16.175-19.728-8.241 0-15.067 6.957-15.067 15.317 0 3.027 1.126 5.075 1.144 6.995 0 1.255-.454 2.454-1.307 3.211-.436.37-.508 1.033-.218 1.458zm4.284 3.433c1.344-.702 3.177-3.1 3.685-5.002.146-.516-.09-1.144-.653-1.328-.508-.185-1.053.129-1.253.72-.49 1.623-1.343 2.841-2.686 3.764-.654.462-.745 1.034-.545 1.458.218.462.799.72 1.452.388zm3.885-10.003c-.454-1.255-1.198-2.842-1.198-4.983 0-4.909 3.758-8.73 8.586-8.73 1.852 0 2.433.204 4.049.998.562.258 1.07.092 1.27-.314.273-.517.128-1.145-.49-1.514-1.198-.72-3.031-1.255-4.829-1.255-5.954 0-10.637 4.762-10.637 10.815 0 2.325.617 4.208 1.252 5.776.254.61.799.905 1.453.628.544-.222.744-.812.544-1.421zm14.287-10.242c1.76 2.602 2.632 6.2 2.632 10.556 0 4.65-1.27 9.043-3.25 11.553-.326.442-.363 1.07.037 1.476.435.406 1.18.387 1.543-.11 2.214-3.046 3.667-7.881 3.667-12.993 0-5.592-1.18-8.914-2.832-11.59-.381-.59-1.017-.775-1.525-.498-.527.295-.69.978-.272 1.605zm-14.36 22.68c2.978-2.435 4.611-6.311 4.593-10.61-.018-3.249-1.162-5.26-1.162-7.032 0-2.326 1.616-3.876 3.976-3.876 3.63 0 4.81 4.208 4.92 9.19.163 5.759-1.888 10.63-4.575 13.03-.436.37-.527.941-.236 1.403.345.498 1.053.59 1.525.147 2.832-2.62 5.228-8.379 5.192-14.727-.019-6.2-1.743-11.11-6.826-11.11-3.377 0-5.972 2.288-5.972 5.758 0 2.086 1.089 4.65 1.107 7.216.018 3.654-1.325 6.94-3.812 8.988-.49.406-.563.996-.254 1.458.38.535 1.034.59 1.525.166zm4.248 1.477c1.434-1.052 3.213-3.47 3.903-5.832.127-.406.037-1.089-.544-1.292-.618-.221-1.144.093-1.307.572-.926 2.474-2.07 3.931-3.286 4.891-.454.37-.581.978-.272 1.458.29.517.998.59 1.506.203zm4.938-10.132c.508-2.491.309-5.684-.58-8.452-.237-.683-.763-.978-1.326-.794-.526.185-.853.683-.654 1.329.835 2.676.98 5.315.563 7.64-.109.554.11 1.09.744 1.182.581.11 1.126-.24 1.253-.905z" fill="currentColor"/></svg>