<svg viewBox="0 0 41 40" fill="none" xmlns="http://www.w3.org/2000/svg">
<path d="M2.53084 25.8139C3.05728 25.6505 3.31143 25.1058 3.16621 24.4887C2.71238 22.6552 2.44008 20.7128 2.53084 18.1714C2.549 17.4997 2.18592 17.1366 1.64133 17.1004C0.93336 17.0458 0.552142 17.4816 0.497682 18.0442C0.334304 20.0957 0.497682 22.5463 1.20566 25.0696C1.38719 25.6867 1.96809 25.9953 2.53084 25.8139ZM1.7321 14.9945C2.25855 15.1942 2.93021 14.9582 3.18435 14.2684C6.10702 6.09948 13.096 2.03316 20.1939 2.03316C23.4252 2.03316 25.9666 2.68668 28.1268 3.92109C28.7441 4.28415 29.4339 4.28415 29.7063 3.68511C29.9967 3.04974 29.6698 2.65037 29.2161 2.35992C26.4568 0.635362 23.6611 0 20.1939 0C11.9887 0 4.54585 4.37492 1.20566 13.27C0.860747 14.1776 1.20566 14.813 1.7321 14.9945ZM39.4908 21.5842C40.0717 21.5842 40.4892 21.1122 40.4347 20.4769C39.6178 13.0885 37.1853 8.42309 32.992 4.75613C32.4655 4.28415 31.8302 4.42939 31.5215 4.79245C31.1766 5.17366 31.1402 5.77271 31.6849 6.26286C35.2611 9.60305 37.857 13.9235 38.4742 20.5131C38.5468 21.1122 38.9099 21.5842 39.4908 21.5842ZM4.63661 31.0783C4.98152 31.5503 5.67134 31.6773 6.17964 31.2417C7.48667 30.1343 8.14018 28.3553 8.14018 26.5037C8.14018 23.9986 7.05099 22.7278 7.05099 19.6054C7.05099 12.4894 12.9689 6.57146 20.085 6.57146C28.6715 6.57146 34.2082 13.5967 34.2263 23.9623C34.2263 28.0103 33.5546 30.8786 32.8829 32.5305C32.647 33.0933 32.8648 33.6923 33.3368 33.9465C33.8451 34.1643 34.5531 33.9828 34.7709 33.3838C35.4789 31.4595 36.2595 28.3008 36.2595 23.944C36.2595 12.3805 29.8876 4.5383 20.085 4.5383C11.8434 4.5383 5.01783 11.3821 5.01783 19.6054C5.01783 22.5825 6.14333 24.5976 6.16148 26.4856C6.16148 27.7199 5.70765 28.8998 4.85445 29.6441C4.41877 30.0073 4.34615 30.6608 4.63661 31.0783ZM8.92077 34.4548C10.2641 33.765 12.0976 31.405 12.6059 29.5352C12.7511 29.027 12.5151 28.4097 11.9524 28.2283C11.4441 28.0467 10.8995 28.3553 10.6998 28.9362C10.2096 30.5336 9.35645 31.7318 8.01311 32.6394C7.3596 33.0933 7.26882 33.6561 7.46851 34.0736C7.68634 34.5274 8.26725 34.7815 8.92077 34.4548ZM12.8056 24.6157C12.3517 23.3814 11.6074 21.8201 11.6074 19.7144C11.6074 14.8856 15.3652 11.1279 20.1939 11.1279C22.0455 11.1279 22.6264 11.3276 24.242 12.1082C24.8048 12.3623 25.3131 12.199 25.5128 11.7996C25.7851 11.2913 25.6399 10.6741 25.0226 10.311C23.8246 9.60305 21.9911 9.07661 20.1939 9.07661C14.2397 9.07661 9.55614 13.7601 9.55614 19.7144C9.55614 22.0016 10.1733 23.8533 10.8087 25.3963C11.0628 25.9953 11.6074 26.2859 12.261 26.0136C12.8056 25.7956 13.0052 25.2147 12.8056 24.6157ZM27.0922 14.5407C28.853 17.1004 29.7244 20.6402 29.7244 24.9243C29.7244 29.499 28.4537 33.8194 26.4749 36.2883C26.1482 36.7239 26.1118 37.3412 26.5113 37.7405C26.9469 38.1399 27.6912 38.1218 28.0543 37.6316C30.2689 34.6363 31.7211 29.8802 31.7211 24.8518C31.7211 19.3513 30.5412 16.0837 28.8893 13.4515C28.508 12.8706 27.8728 12.6891 27.3644 12.9614C26.838 13.2518 26.6746 13.9235 27.0922 14.5407ZM12.7329 36.8511C15.7101 34.4548 17.3439 30.6425 17.3257 26.4129C17.3076 23.218 16.1639 21.2392 16.1639 19.4965C16.1639 17.2093 17.7795 15.6844 20.1395 15.6844C23.77 15.6844 24.95 19.8233 25.059 24.7246C25.2223 30.3885 23.171 35.1808 20.4843 37.5409C20.0487 37.904 19.9579 38.4666 20.2484 38.9205C20.5932 39.4106 21.3013 39.5014 21.7733 39.0658C24.6052 36.488 27.0014 30.8241 26.965 24.5795C26.9469 18.48 25.2223 13.6512 20.1395 13.6512C16.763 13.6512 14.167 15.9022 14.167 19.3151C14.167 21.3664 15.2562 23.8897 15.2744 26.4129C15.2925 30.0073 13.9492 33.2385 11.4622 35.2535C10.9721 35.6528 10.8995 36.2337 11.2081 36.6876C11.5893 37.214 12.2428 37.2685 12.7329 36.8511ZM16.9808 38.3033C18.4149 37.2685 20.1939 34.8904 20.8837 32.5668C21.0108 32.1674 20.9201 31.4958 20.3392 31.2961C19.7219 31.0783 19.1955 31.3869 19.0321 31.8589C18.1063 34.2914 16.9626 35.7255 15.7464 36.6695C15.2925 37.0325 15.1655 37.6316 15.4741 38.1036C15.7645 38.6119 16.4725 38.6845 16.9808 38.3033ZM21.9184 28.3372C22.4267 25.8864 22.227 22.746 21.3375 20.023C21.1016 19.3513 20.5751 19.0609 20.0123 19.2424C19.4859 19.424 19.1592 19.9141 19.3589 20.5494C20.1939 23.1816 20.3392 25.7775 19.9217 28.0649C19.8126 28.6095 20.0306 29.1359 20.6659 29.2267C21.2468 29.3356 21.7914 28.9906 21.9184 28.3372Z" fill="currentColor"/>
</svg>
