<svg viewBox="0 0 24 24" fill="none" xmlns="http://www.w3.org/2000/svg"><path fill-rule="evenodd" clip-rule="evenodd" d="M12 4a8.2 8.2 0 0 0-8.202 8.202 8.197 8.197 0 0 0 5.608 7.782c.41.072.564-.174.564-.39 0-.194-.01-.84-.01-1.527-2.061.38-2.594-.502-2.758-.964-.092-.236-.492-.963-.84-1.158-.288-.154-.698-.534-.011-.544.646-.01 1.107.595 1.26.841.74 1.24 1.918.892 2.39.677.072-.534.287-.892.523-1.097-1.825-.205-3.732-.913-3.732-4.05 0-.892.318-1.63.84-2.205-.082-.205-.369-1.045.082-2.173 0 0 .687-.216 2.256.84a7.611 7.611 0 0 1 2.05-.276c.698 0 1.395.092 2.051.276 1.569-1.066 2.256-.84 2.256-.84.451 1.128.164 1.968.082 2.173.523.575.84 1.303.84 2.205 0 3.147-1.917 3.845-3.742 4.05.298.256.554.748.554 1.517 0 1.097-.01 1.979-.01 2.256 0 .215.154.471.564.39a8.215 8.215 0 0 0 5.588-7.783A8.2 8.2 0 0 0 12 4z" fill="currentColor"/></svg>