<svg viewBox="0 0 24 24" fill="none" xmlns="http://www.w3.org/2000/svg"><path fill-rule="evenodd" clip-rule="evenodd" d="M7.444 12.637A4.972 4.972 0 0 0 5 12a4.992 4.992 0 0 0-2.953.964A9.806 9.806 0 0 1 2 12C2 6.53 6.53 2 11.99 2 17.46 2 22 6.53 22 12c0 5.46-4.53 10-10 10a9.814 9.814 0 0 1-4.124-.91 5.03 5.03 0 0 0 1.053-.997c.226.087.456.165.69.234a5.759 5.759 0 0 1-.466-.542c.275-.41.491-.861.636-1.344.459.826.998 1.417 1.574 1.673V16.98c-.475.017-.93.052-1.364.105L10 17c0-.405-.048-.799-.14-1.176.486-.064.988-.107 1.503-.126v-3.06H8.374c.009.239.023.476.042.71a5.015 5.015 0 0 0-.972-.71zm6.937 7.69a8.735 8.735 0 0 0 3.45-1.952c-.496-.346-1.093-.632-1.78-.853-.435 1.17-1.007 2.127-1.67 2.805zm.39-3.123c-.543 1.463-1.296 2.531-2.124 2.905v-3.127c.761.027 1.472.102 2.124.222zm.378-1.21a15.408 15.408 0 0 0-2.502-.295v-3.062h2.979a15.885 15.885 0 0 1-.477 3.356zm1.278.332c.903.29 1.68.669 2.282 1.12a8.624 8.624 0 0 0 1.934-4.809H16.94a16.675 16.675 0 0 1-.514 3.689zm.513-4.973h3.702a8.615 8.615 0 0 0-1.911-4.767c-.602.457-1.385.842-2.296 1.135.283 1.09.46 2.315.505 3.632zm-1.778-3.3c-.785.162-1.632.264-2.515.298v3.002h2.977a16.108 16.108 0 0 0-.462-3.3zm-.371-1.214c-.658.123-1.375.2-2.144.228V3.89c.838.375 1.6 1.456 2.144 2.949zm1.271-.32c.695-.225 1.297-.515 1.796-.865a8.756 8.756 0 0 0-3.482-1.98c.672.684 1.25 1.656 1.686 2.845zm-6.43-2.852A8.717 8.717 0 0 0 6.136 5.65c.5.351 1.104.643 1.802.869.438-1.194 1.018-2.168 1.694-2.852zM9.209 6.84c.547-1.499 1.312-2.583 2.154-2.954v3.182a14.451 14.451 0 0 1-2.154-.228zm-1.644.882c-.913-.294-1.698-.68-2.3-1.139a8.63 8.63 0 0 0-1.907 4.771H7.06c.045-1.317.222-2.541.505-3.632zm.81 3.632c.046-1.178.21-2.298.463-3.3.788.163 1.638.265 2.525.298v3.002H8.376z" fill="currentColor"/><path fill-rule="evenodd" clip-rule="evenodd" d="M4.224 20.661c.041.21.21.339.427.339h.698a.41.41 0 0 0 .42-.339l.196-.813c.136-.047.264-.101.373-.149l.711.427a.406.406 0 0 0 .542-.047l.481-.481c.149-.156.183-.38.047-.556l-.42-.704c.055-.115.102-.237.143-.366l.82-.19A.417.417 0 0 0 9 17.356v-.684a.41.41 0 0 0-.339-.42l-.813-.197a3.543 3.543 0 0 0-.149-.373l.434-.71c.122-.184.108-.394-.047-.55l-.495-.48a.42.42 0 0 0-.528-.061l-.725.44a3.247 3.247 0 0 0-.373-.156l-.196-.82a.416.416 0 0 0-.42-.345H4.65a.418.418 0 0 0-.427.352l-.196.806a4.943 4.943 0 0 0-.38.156l-.71-.433c-.19-.109-.38-.088-.536.06l-.494.481c-.156.156-.17.366-.048.55l.434.71c-.048.102-.102.23-.15.373l-.805.197c-.217.04-.339.21-.339.42v.684c0 .216.122.379.339.426l.813.19c.04.129.088.25.149.366l-.427.704a.424.424 0 0 0 .047.556l.481.48c.156.15.373.177.542.048l.711-.427c.109.048.244.102.373.15l.196.812zm2.1-3.664c0 .724-.596 1.327-1.327 1.327-.725 0-1.321-.603-1.321-1.327a1.326 1.326 0 0 1 2.648 0z" fill="currentColor"/></svg>