<svg viewBox="0 0 24 24" fill="none" xmlns="http://www.w3.org/2000/svg">
<path fill-rule="evenodd" clip-rule="evenodd" d="M12 5C8.13398 5 4.99997 8.13401 4.99997 12C4.99997 15.866 8.13398 19 12 19C15.866 19 19 15.866 19 12C19 8.13401 15.866 5 12 5ZM9.29975 6.54641C7.32562 7.52573 5.95899 9.5454 5.91686 11.8884C6.378 11.9583 6.81674 12.081 6.84556 12.3207C6.85528 12.3993 6.86145 12.483 6.86746 12.5645C6.86863 12.5805 6.86981 12.5964 6.871 12.6121L6.87104 12.6128C6.89792 13.0023 6.9257 13.4047 7.24244 13.5445C7.27462 13.5593 7.30953 13.5672 7.34493 13.5678C7.47796 13.5678 7.57463 13.4483 7.67858 13.3034L7.69094 13.2866C7.78252 13.1591 7.86902 13.039 7.98169 13.039C8.02247 13.0404 8.06181 13.0544 8.09436 13.079C8.23155 13.1632 8.3752 13.2362 8.52396 13.2975L8.53357 13.3019C8.91353 13.4727 9.33953 13.6642 9.33953 13.9531C9.33526 14.1103 9.3224 14.2671 9.30101 14.4229C9.26321 14.7442 9.22832 15.0472 9.33953 15.1236C9.67222 15.4303 9.95826 15.7842 10.1885 16.174C10.201 16.2557 10.2207 16.3362 10.2474 16.4144C10.3338 16.6356 10.3713 16.8729 10.3572 17.11C10.2701 17.3377 10.1575 17.5541 10.0221 17.7554C10.6422 17.9685 11.3076 18.0841 12 18.0841C15.3601 18.0841 18.0841 15.3602 18.0841 12C18.0841 11.6465 18.0539 11.3001 17.9961 10.9631C17.889 11.1413 17.7144 11.3199 17.5276 11.511L17.52 11.5188C17.0839 11.9595 16.5961 12.4591 16.7662 13.1511C16.7759 13.1839 16.7787 13.2183 16.7743 13.2522C16.7699 13.286 16.7585 13.3186 16.7408 13.3478C16.6354 13.5175 16.3046 13.5911 15.9499 13.669C15.5664 13.702 15.2041 13.8593 14.9177 14.117C14.841 14.2188 14.7399 14.2998 14.6238 14.3523C14.5077 14.4049 14.3804 14.4274 14.2533 14.4178C13.9399 14.4047 13.6322 14.3289 13.3484 14.1949C13.3047 14.1777 13.2578 14.1702 13.211 14.1731C13.1529 14.1731 13.0859 14.1794 13.0143 14.1861C13.0089 14.1866 13.0035 14.1871 12.998 14.1876H12.9856L12.9812 14.188C12.8936 14.1959 12.815 14.2029 12.7385 14.2029C12.6794 14.2104 12.6194 14.2052 12.5625 14.1876C12.5056 14.17 12.4531 14.1405 12.4085 14.101C12.3803 14.0636 12.3605 14.0205 12.3506 13.9747C12.3407 13.929 12.3408 13.8816 12.3511 13.8358C12.4092 13.3581 12.7361 13.2357 13.1503 13.0806C13.1596 13.0771 13.1693 13.0735 13.1786 13.0699C13.2819 13.031 13.3887 12.9908 13.4974 12.9413C13.9459 12.7396 14.5841 12.1401 14.563 11.8655C14.5609 11.8376 14.5495 11.8112 14.5307 11.7906C14.5118 11.77 14.4866 11.7564 14.4591 11.7519C13.901 11.5763 13.3889 11.2787 12.9596 10.8807C12.5303 10.4826 12.1946 9.994 11.9767 9.4501C11.9411 9.44282 11.9186 9.30442 11.8909 9.12887C11.8306 8.74792 11.7383 8.17321 11.4126 8.14844C11.3906 8.14844 11.3687 8.14718 11.3467 8.14591C11.3245 8.14463 11.3022 8.14334 11.2796 8.14334C11.1531 8.14544 11.0268 8.15565 10.9016 8.17394C10.7662 8.19272 10.6298 8.20294 10.4931 8.20453C10.3155 8.20357 10.1384 8.18453 9.96466 8.14771C9.40568 8.03408 9.38315 7.71795 9.34389 7.08715C9.33386 6.92839 9.3217 6.74838 9.29975 6.54641Z" fill="currentColor"/>
</svg>
