<svg viewBox="0 0 24 24" fill="currentColor" xmlns="http://www.w3.org/2000/svg"><path fill-rule="evenodd" clip-rule="evenodd" d="M12 2C6.477 2 2 6.477 2 12s4.477 10 10 10 10-4.477 10-10S17.523 2 12 2zM8.143 4.21a8.692 8.692 0 0 0-4.833 7.63c.659.1 1.285.276 1.327.618.013.112.022.232.03.348l.006.068v.001c.038.557.078 1.132.53 1.331a.365.365 0 0 0 .147.034c.19 0 .328-.171.477-.378l.017-.024c.131-.182.255-.354.416-.354a.283.283 0 0 1 .16.057c.197.12.402.225.614.313l.014.006c.543.244 1.151.517 1.151.93a6.165 6.165 0 0 1-.055.671c-.054.46-.104.892.055 1.001a6.62 6.62 0 0 1 1.213 1.5c.018.118.046.233.084.344.124.316.177.655.157.994a4.593 4.593 0 0 1-.478.922 8.692 8.692 0 0 0 11.391-9.703c-.153.254-.402.51-.67.782l-.01.011c-.623.63-1.32 1.344-1.077 2.333a.348.348 0 0 1-.036.28c-.151.243-.623.348-1.13.46a2.528 2.528 0 0 0-1.475.64 1.088 1.088 0 0 1-.949.429 3.358 3.358 0 0 1-1.293-.318.459.459 0 0 0-.196-.032c-.083 0-.179.01-.28.019l-.024.002h-.024c-.125.012-.238.022-.347.022a.599.599 0 0 1-.471-.146.462.462 0 0 1-.082-.378c.083-.683.55-.858 1.141-1.08l.04-.014c.148-.056.3-.114.456-.184.64-.289 1.553-1.145 1.523-1.537a.178.178 0 0 0-.149-.162 5.64 5.64 0 0 1-3.546-3.289c-.051-.01-.083-.208-.123-.459-.086-.544-.218-1.365-.683-1.4-.032 0-.063-.002-.094-.004a1.655 1.655 0 0 0-.096-.004c-.18.003-.361.018-.54.044a4.637 4.637 0 0 1-.584.044 3.74 3.74 0 0 1-.755-.081c-.798-.163-.83-.614-.886-1.515a16.723 16.723 0 0 0-.063-.773z" fill="#fff"/></svg>