<svg viewBox="0 0 28 28" fill="none" xmlns="http://www.w3.org/2000/svg"><path d="M14 25.015c3.18 0 5.776-4.699 5.776-10.998 0-6.334-2.585-11.032-5.776-11.032S8.224 7.683 8.224 14.017c0 6.299 2.596 10.998 5.776 10.998zm0-20.647c2.241 0 4.243 4.459 4.243 9.649 0 5.099-2.002 9.603-4.243 9.603-2.242 0-4.244-4.504-4.244-9.603 0-5.19 2.002-9.649 4.244-9.649zm-.744-1.223v21.652h1.499V3.145h-1.499zM14 18.293c-3.523 0-6.646.925-8.247 2.4l1.155.95c1.51-1.201 3.97-1.853 7.092-1.853 3.122 0 5.581.652 7.091 1.852l1.155-.949c-1.6-1.475-4.723-2.4-8.246-2.4zm10.557-5.054H3.442v1.498h21.115v-1.498zM14 9.753c3.523 0 6.645-.926 8.246-2.401l-1.155-.95c-1.51 1.19-3.969 1.853-7.091 1.853-3.123 0-5.582-.663-7.092-1.852l-1.155.949c1.601 1.475 4.724 2.4 8.247 2.4zm0 15.902c6.382 0 11.666-5.293 11.666-11.661 0-6.38-5.295-11.661-11.678-11.661-6.37 0-11.655 5.282-11.655 11.66 0 6.369 5.296 11.662 11.667 11.662zm0-1.555c-5.525 0-10.111-4.584-10.111-10.106s4.575-10.106 10.1-10.106c5.524 0 10.122 4.584 10.122 10.106S19.524 24.1 14 24.1z" fill="currentColor"/></svg>