<svg width="48" height="48" viewBox="0 0 48 48" fill="none" xmlns="http://www.w3.org/2000/svg">
<path opacity="0.5" d="M24 44C35.0457 44 44 35.0457 44 24C44 12.9543 35.0457 4 24 4C12.9543 4 4 12.9543 4 24C4 35.0457 12.9543 44 24 44Z" fill="currentColor"/>
<path opacity="0.5" d="M25.8533 43.9157C30.7906 43.3273 35.3481 40.9718 38.6837 37.2844C42.0194 33.5971 43.9077 28.8271 44 23.8557V24.0002C44.0004 28.9839 42.1401 33.7883 38.7834 37.4721C35.4268 41.156 30.8157 43.4539 25.8533 43.9157ZM21.8222 43.8846C16.9237 43.348 12.3957 41.0219 9.10667 37.3523C5.81765 33.6827 3.99917 28.928 4 24.0002C4 23.7913 4 23.6113 4 23.4491C5.76667 23.618 8.12445 23.958 8.24222 24.9357C8.27778 25.2224 8.29778 25.5313 8.32 25.8246C8.40222 27.0135 8.48667 28.2424 9.45556 28.6691C9.55393 28.7143 9.66064 28.7385 9.76889 28.7402C10.1756 28.7402 10.4711 28.3757 10.7889 27.9335L10.8267 27.8824C11.1067 27.4935 11.3711 27.1268 11.7156 27.1268C11.8402 27.1312 11.9605 27.1739 12.06 27.2491C12.4794 27.5058 12.9186 27.7287 13.3733 27.9157C14.5422 28.4402 15.8667 29.0268 15.8667 29.9157C15.8536 30.3953 15.8143 30.8738 15.7489 31.3491C15.6333 32.3291 15.5267 33.2535 15.8667 33.4868C16.8837 34.4225 17.7582 35.5021 18.4622 36.6913C18.5002 36.9406 18.5604 37.186 18.6422 37.4246C18.9063 38.0994 19.0208 38.8235 18.9778 39.5468C18.5282 40.7192 17.8575 41.7942 17.0022 42.7135C18.5522 43.3102 20.1719 43.7067 21.8222 43.8935V43.8846ZM30.8889 31.3335C29.9306 31.2934 28.9899 31.0622 28.1222 30.6535C27.9888 30.6009 27.8454 30.5781 27.7022 30.5868C27.5111 30.5868 27.2889 30.6091 27.0511 30.6313H27.0133C26.74 30.6557 26.4956 30.678 26.2578 30.678C26.0772 30.7007 25.8938 30.6847 25.7198 30.6311C25.5459 30.5774 25.3853 30.4873 25.2489 30.3668C25.1627 30.2528 25.1023 30.1214 25.072 29.9817C25.0416 29.8421 25.0421 29.6974 25.0733 29.558C25.2511 28.1002 26.2511 27.7268 27.5178 27.2535C27.86 27.1246 28.2156 26.9935 28.5778 26.8291C29.9489 26.2135 31.9 24.3846 31.8356 23.5468C31.8292 23.4618 31.7944 23.3813 31.7367 23.3184C31.6791 23.2556 31.602 23.2139 31.5178 23.2002C29.8118 22.6645 28.2461 21.7568 26.9338 20.5424C25.6214 19.328 24.595 17.8373 23.9289 16.178C23.82 16.1557 23.7511 15.7335 23.6667 15.198C23.4822 14.0357 23.2 12.2824 22.2044 12.2068C22.0689 12.2068 21.9356 12.1913 21.7978 12.1913C21.411 12.1977 21.025 12.2288 20.6422 12.2846C20.2283 12.3419 19.8112 12.3731 19.3933 12.378C18.8503 12.375 18.309 12.317 17.7778 12.2046C16.0689 11.858 16 10.8935 15.88 8.96906C15.8489 8.47795 15.8111 7.92017 15.7422 7.29351C15.6732 6.79073 15.6724 6.28093 15.74 5.77795C20.4412 3.65145 25.7819 3.42216 30.648 5.13792C35.5142 6.85368 39.53 10.382 41.8578 14.9868C41.8689 15.2513 41.8778 15.5091 41.8867 15.7602C41.8138 16.7717 41.9554 17.7872 42.3022 18.7402C43.2556 20.0735 42.1533 21.1846 40.8756 22.4891C39.5422 23.8335 38.0511 25.358 38.5711 27.4691C38.6007 27.569 38.6091 27.674 38.5957 27.7773C38.5823 27.8806 38.5474 27.98 38.4933 28.0691C38.1711 28.5868 37.16 28.8113 36.0756 29.0491C34.9032 29.1497 33.7954 29.6294 32.92 30.4157C32.6853 30.7265 32.3764 30.9733 32.0215 31.1337C31.6666 31.294 31.2772 31.3627 30.8889 31.3335Z" fill="white"/>
</svg>
