<svg xmlns="http://www.w3.org/2000/svg" width="27.725" height="23.283" viewBox="0 0 27.725 23.283">
  <g id="Group_146" data-name="Group 146" transform="translate(0 0)">
    <path id="Path_24" data-name="Path 24" d="M84.761,16.133a.7.7,0,0,0-.468-.175H82.23V14.523a.64.64,0,0,0-.667-.608H79.955V12.48a.64.64,0,0,0-.667-.608h-4.55a.64.64,0,0,0-.667.608v1.435H72.463a.652.652,0,0,0-.657.51H70.39a.652.652,0,0,0-.657-.51H68.125V12.48a.64.64,0,0,0-.667-.608h-4.55a.64.64,0,0,0-.667.608v1.435H60.633a.64.64,0,0,0-.667.608v1.435H57.9a.64.64,0,0,0-.667.608v7.764a.64.64,0,0,0,.667.608h2.063v2.252a.64.64,0,0,0,.667.608h2.518v2.252a.64.64,0,0,0,.667.608h2.063v2.252a.64.64,0,0,0,.667.608h2.063v1.026a.64.64,0,0,0,.667.608h3.64a.64.64,0,0,0,.667-.608V33.52h2.063a.64.64,0,0,0,.667-.608V30.66h2.063a.64.64,0,0,0,.667-.608V27.8h2.518a.64.64,0,0,0,.667-.608V24.939h2.063a.64.64,0,0,0,.667-.608V16.566A.582.582,0,0,0,84.761,16.133Z" transform="translate(-57.236 -11.872)" fill="#ff4784"/>
  </g>
</svg>
