<svg xmlns="http://www.w3.org/2000/svg" width="20" height="20" viewBox="0 0 20 20">
  <g id="Icon_Trending" data-name="Icon/Trending" transform="translate(-0.9 -0.9)">
    <path id="Help" d="M10,20A10,10,0,1,1,20,10,10.011,10.011,0,0,1,10,20ZM10,2.143A7.866,7.866,0,0,0,2.143,10l.007.343.006.124.031.366c.023.227.058.458.1.686l.06.28.053.213.108.372.109.317.171.429.146.316.164.317L3.3,14.1l.237.363.172.24.233.3a7.888,7.888,0,0,0,1.77,1.583l.039.025c.123.079.25.156.377.228l.325.175.4.187.148.064.182.072.369.132.448.133.147.038.23.051.387.072.186.027.4.044.291.019.365.009c.175,0,.35-.006.521-.018l.346-.03.189-.024.256-.039.4-.077.369-.092.16-.045.288-.091.4-.147.323-.138.142-.066.352-.18.232-.132.277-.17a7.9,7.9,0,0,0,1.784-1.577L16.063,15c.081-.1.163-.2.252-.321l.227-.324.169-.265.115-.194L17,13.574l.167-.348.093-.214.122-.312.125-.371.113-.4.092-.408.059-.341.055-.465.024-.341c.006-.122.009-.248.009-.373A7.866,7.866,0,0,0,10,2.143Zm-.017,13.23a1.414,1.414,0,0,1-.968-.345,1.2,1.2,0,0,1,0-1.762,1.531,1.531,0,0,1,1.937,0,1.193,1.193,0,0,1,0,1.762A1.41,1.41,0,0,1,9.983,15.373ZM11,11.941H8.924l0-.294a4.307,4.307,0,0,1,.234-1.379A2.631,2.631,0,0,1,9.94,9.207a5.149,5.149,0,0,0,.816-.824,1.346,1.346,0,0,0,.28-.823c0-.727-.317-1.1-.944-1.1a.879.879,0,0,0-.7.319,1.244,1.244,0,0,0-.267.655l-.016.209H6.653l.012-.284a2.837,2.837,0,0,1,.9-1.976,3.659,3.659,0,0,1,2.524-.809,3.8,3.8,0,0,1,2.506.748,2.63,2.63,0,0,1,.889,2.125,2.487,2.487,0,0,1-.239,1.095,3.391,3.391,0,0,1-.569.8l-.2.206-.834.776-.164.171a1.806,1.806,0,0,0-.329.529,2.415,2.415,0,0,0-.137.647L11,11.94Z" transform="translate(0.9 0.9)" fill="#fff"/>
  </g>
</svg>
