<svg xmlns="http://www.w3.org/2000/svg" width="87.212" height="63.006" viewBox="0 0 87.212 63.006">
  <g id="Group_628" data-name="Group 628" transform="translate(-24.35 -456.995)">
    <g id="Hero" transform="translate(24.35 456.995)">
      <rect id="Hero_background" data-name="Hero background" width="87.062" height="62" transform="translate(0.15 0.006)" fill="none"/>
      <path id="Cape" d="M74.443.789C31.813-6.206,23.324,35.565,0,37.067c17.092,16.95,46.7-4.294,57.264,5.7Z" transform="translate(0 11.612)" fill="#ff5857"/>
      <path id="Hero-2" data-name="Hero" d="M21.951,62.006l-.1-3.927Q21.379,41.337,21,41.337q-.424,0-1.272,20.669H11.771l.318-26.392-.128-1.036L1.4,27.436a3.179,3.179,0,0,1-.824-4.457l.3-.433.28-.395c4.372-6.125,7.725-9.433,10.925-9.985l.049-.008q.129-.027.262-.043l.051-.006,3.778-.344.954-.318-.07-.053a6.363,6.363,0,1,1,7.607.126l.735.245,4.026.35a3.2,3.2,0,0,1,.588.107c3.149.7,6.47,4.056,10.782,10.125l.141.2.3.433a3.179,3.179,0,0,1-.747,4.4l-.076.053L30,34.513l-.15,1.2.054,26.3Z" transform="translate(45.242)" fill="#ececec"/>
      <g id="Shield_Fill" data-name="Shield Fill" transform="translate(58.59 15.846)">
        <rect id="Shield_Fill_background" data-name="Shield Fill background" width="14.876" height="11.712" transform="translate(0 0)" fill="none"/>
        <path id="Shield" d="M7.42,11.693a.526.526,0,0,1-.372-.153L.157,4.734a.529.529,0,0,1-.093-.628L2.137.277A.529.529,0,0,1,2.6,0h9.636A.529.529,0,0,1,12.7.277l2.073,3.828a.529.529,0,0,1-.093.628L7.792,11.54A.527.527,0,0,1,7.42,11.693ZM7.2,6.279h0a.153.153,0,0,1,.153.152.161.161,0,0,1,0,.019L6.989,9.412a.153.153,0,0,0,.133.17h.018a.152.152,0,0,0,.127-.069L10.381,4.8a.153.153,0,0,0-.127-.237l-2.465.006h0a.153.153,0,0,1-.153-.152.148.148,0,0,1,0-.023L8.076,1.46a.153.153,0,0,0-.128-.173l-.023,0a.153.153,0,0,0-.125.065l-3.314,4.7a.153.153,0,0,0,.125.24Z" transform="translate(0 0)" fill="#2a9cff"/>
      </g>
    </g>
    <line id="Line_3" data-name="Line 3" x1="36" transform="translate(73.5 519.5)" fill="none" stroke="#bcbcc4" stroke-width="1" opacity="0.4"/>
  </g>
</svg>
