<svg viewBox="0 0 18 18" fill="none" xmlns="http://www.w3.org/2000/svg"><path d="M.948 8.376c-.312-.429-.167-.85.4-.85H2.37C3.061 4.106 6.118 1.5 9.72 1.5c4.11 0 7.5 3.398 7.5 7.5 0 4.11-3.39 7.5-7.5 7.5-2.352 0-4.552-1.183-5.895-2.94-.32-.385-.255-.85.08-1.09.348-.254.776-.145 1.067.196a5.937 5.937 0 0 0 4.748 2.36A6.007 6.007 0 0 0 15.745 9 6.005 6.005 0 0 0 9.72 2.981a6.003 6.003 0 0 0-5.845 4.545h1.053c.56 0 .697.429.4.842l-1.758 2.447c-.24.334-.617.341-.864 0L.948 8.375z" fill="currentColor"/><path d="M8.819 5.42a.632.632 0 0 1 1.263 0v3.732l1.684 2.273c.233.312.211.697-.087.9-.312.225-.69.167-.944-.174L9 9.864a.815.815 0 0 1-.181-.494V5.42z" fill="currentColor"/></svg>