<svg viewBox="0 0 24 24" fill="none" xmlns="http://www.w3.org/2000/svg">
<path d="M21.5 15.25C21.5 14.8358 21.1642 14.5 20.75 14.5H3.25C2.83579 14.5 2.5 14.8358 2.5 15.25C2.5 15.6642 2.83579 16 3.25 16H20.75C21.1642 16 21.5 15.6642 21.5 15.25Z" fill="currentColor"/>
<path d="M21.5 19.75C21.5 19.3358 21.1642 19 20.75 19L3.25 19C2.83579 19 2.5 19.3358 2.5 19.75C2.5 20.1642 2.83579 20.5 3.25 20.5H20.75C21.1642 20.5 21.5 20.1642 21.5 19.75Z" fill="currentColor"/>
<path opacity="0.44" d="M2.5 6C2.5 5.44772 2.94772 5 3.5 5H20.5C21.0523 5 21.5 5.44772 21.5 6V10.5C21.5 11.0523 21.0523 11.5 20.5 11.5H3.5C2.94771 11.5 2.5 11.0523 2.5 10.5V6Z" fill="currentColor"/>
<path fill-rule="evenodd" clip-rule="evenodd" d="M4 6.5V10H20V6.5H4ZM3.5 5C2.94772 5 2.5 5.44772 2.5 6V10.5C2.5 11.0523 2.94772 11.5 3.5 11.5H20.5C21.0523 11.5 21.5 11.0523 21.5 10.5V6C21.5 5.44772 21.0523 5 20.5 5H3.5Z" fill="currentColor"/>
</svg>
