<svg viewBox="0 0 24 24" fill="none" xmlns="http://www.w3.org/2000/svg"><path d="M12.988 4.453 5.502 3.13l5.932-1.041c2.18-.389 3.514.53 3.55 2.445l.008.583c-.547-.3-1.21-.521-2.004-.663z" fill="currentColor"/><path fill-rule="evenodd" clip-rule="evenodd" d="M12.556 21.941 2.819 20.23C1.627 20.017 1 19.302 1 18.119v-12.2c0-1.377.945-2.163 2.33-1.925l9.437 1.669c1.872.326 2.772 1.042 2.772 2.887v2.976a6.001 6.001 0 0 0-1.215 10.216c-.473.25-1.07.323-1.768.2zM4.036 8.594c0 .353.195.618.54.67l6.832 1.21c.468.07.777-.22.777-.644 0-.389-.194-.6-.556-.671L4.84 7.967c-.468-.08-.803.203-.803.627zm0 3.619c0 .353.204.61.54.67l6.832 1.22c.468.07.777-.221.777-.663 0-.37-.194-.582-.556-.653L4.84 11.595c-.468-.08-.803.203-.803.618z" fill="currentColor"/><path fill-rule="evenodd" clip-rule="evenodd" d="M13 17c0 2.338 1.622 4.307 3.79 4.85l.236.054a5.1 5.1 0 0 0 .754.091L18 22a4.803 4.803 0 0 0 1.229-.158C21.366 21.282 23 19.31 23 17c0-2.736-2.264-5-5-5-2.746 0-5 2.264-5 5zm5.472 2.923.658-.61.26-.239.66-.613.014-.012.075-.07.156-.145.421-.39.306-.283.01-.009a.574.574 0 0 0 .206-.454c0-.334-.256-.6-.6-.58a.692.692 0 0 0-.39.15l-.03.025-.023.022-.399.398-.213.213-.333.333-.179.184-.413.427-.048.049.002-.048.031-.796.016-.389v-2.625a.653.653 0 0 0-.65-.64.653.653 0 0 0-.649.64v2.608l.048 1.202.001.048-.049-.05-.6-.61-.338-.34-.202-.205-.044-.045-.051-.05-.3-.304-.026-.025-.032-.027a.81.81 0 0 0-.087-.062.547.547 0 0 0-.308-.083c-.344 0-.62.246-.6.58a.642.642 0 0 0 .091.32c.03.047.068.091.115.134l.01.009.384.357.087.081.175.162.09.086.143.133.086.078.676.63.26.241.639.594c.177.168.315.236.482.236.167 0 .295-.078.462-.236z" fill="currentColor"/></svg>