<svg width="20" height="20" viewBox="0 0 20 20" fill="none" xmlns="http://www.w3.org/2000/svg">
<path fill-rule="evenodd" clip-rule="evenodd" d="M10 20C15.5228 20 20 15.5228 20 10C20 4.47715 15.5228 0 10 0C4.47715 0 0 4.47715 0 10C0 15.5228 4.47715 20 10 20ZM10 5C10.5523 5 11 5.44772 11 6C11 6.55228 10.5523 7 10 7C9.44771 7 9 6.55228 9 6C9 5.44772 9.44771 5 10 5ZM10 8C10.5523 8 11 8.44771 11 9V14C11 14.5523 10.5523 15 10 15C9.44771 15 9 14.5523 9 14V9C9 8.44771 9.44771 8 10 8Z" fill="white"/>
</svg>
