<svg viewBox="0 0 24 24" xmlns="http://www.w3.org/2000/svg"><path opacity=".44" d="m12.77 17.385-3.078 3.077a2.176 2.176 0 0 1-3.077 0l-3.077-3.077a2.176 2.176 0 0 1 0-3.077l3.077-3.076a2.176 2.176 0 0 1 3.077 0l.77.769-2.308 2.308a1.088 1.088 0 1 0 1.538 1.538L12 13.539l.77.77a2.175 2.175 0 0 1 0 3.076z" fill="currentColor"/><path d="m20.462 9.692-3.077 3.077a2.176 2.176 0 0 1-3.077 0l-.77-.769 2.308-2.308a1.088 1.088 0 0 0-1.538-1.538L12 10.46l-.77-.769a2.176 2.176 0 0 1 0-3.077l3.078-3.077a2.176 2.176 0 0 1 3.077 0l3.076 3.077a2.176 2.176 0 0 1 0 3.077z" fill="currentColor"/></svg>