<svg viewBox="0 0 24 24" fill="none" xmlns="http://www.w3.org/2000/svg">
<path d="M12 22C12.2779 22 12.6734 21.7969 12.9941 21.5938C18.9695 17.7456 22.7963 13.2346 22.7963 8.65954C22.7963 4.7365 20.0919 2 16.682 2C14.5548 2 12.962 3.17584 12 4.9396C11.0593 3.18653 9.45588 2 7.32868 2C3.91874 2 1.20361 4.7365 1.20361 8.65954C1.20361 13.2346 5.03044 17.7456 11.0059 21.5938C11.3372 21.7969 11.7327 22 12 22ZM8.55797 13.0102C8.55797 12.8926 8.60073 12.7857 8.69693 12.6788L13.0689 7.22715C13.4324 6.77819 14.0203 7.08819 13.8065 7.63335L12.3955 11.4281H15.0572C15.271 11.4281 15.4634 11.5885 15.4634 11.8022C15.4634 11.9198 15.4099 12.0374 15.3137 12.1443L10.9524 17.5852C10.589 18.0342 9.99036 17.7242 10.2041 17.179L11.6258 13.3843H8.95348C8.73969 13.3843 8.55797 13.2239 8.55797 13.0102Z" fill="currentColor"/>
</svg>
