<svg viewBox="0 0 22 20" fill="currentColor" xmlns="http://www.w3.org/2000/svg">
<path d="M11 20C11.2779 20 11.6734 19.7969 11.9941 19.5938C17.9695 15.7456 21.7963 11.2346 21.7963 6.65954C21.7963 2.7365 19.0919 0 15.682 0C13.5548 0 11.962 1.17584 11 2.9396C10.0593 1.18653 8.45588 0 6.32868 0C2.91874 0 0.203613 2.7365 0.203613 6.65954C0.203613 11.2346 4.03044 15.7456 10.0059 19.5938C10.3372 19.7969 10.7327 20 11 20ZM7.55797 11.0102C7.55797 10.8926 7.60073 10.7857 7.69693 10.6788L12.0689 5.22715C12.4324 4.77819 13.0203 5.08819 12.8065 5.63335L11.3955 9.42811H14.0572C14.271 9.42811 14.4634 9.58846 14.4634 9.80224C14.4634 9.91983 14.4099 10.0374 14.3137 10.1443L9.95241 15.5852C9.58897 16.0342 8.99036 15.7242 9.20415 15.179L10.6258 11.3843H7.95348C7.73969 11.3843 7.55797 11.2239 7.55797 11.0102Z" fill="currentColor"/>
</svg>
