<svg viewBox="0 0 24 24" fill="none" xmlns="http://www.w3.org/2000/svg"><path d="M12 22c.278 0 .673-.203.994-.406 5.976-3.848 9.802-8.36 9.802-12.934 0-3.923-2.704-6.66-6.114-6.66-2.127 0-3.72 1.176-4.682 2.94C11.06 3.187 9.456 2 7.329 2c-3.41 0-6.125 2.737-6.125 6.66 0 4.575 3.826 9.086 9.802 12.934.331.203.727.406.994.406zm-3.442-8.99a.48.48 0 0 1 .139-.331l4.372-5.452c.363-.449.951-.139.737.406l-1.41 3.795h2.661c.214 0 .406.16.406.374a.519.519 0 0 1-.15.342l-4.36 5.441c-.364.45-.963.14-.749-.406l1.422-3.795H8.953c-.213 0-.395-.16-.395-.374z" fill="currentColor"/></svg>