<svg xmlns="http://www.w3.org/2000/svg" width="20.534" height="20.541" viewBox="0 0 20.534 20.541">
  <g id="blockchain" transform="translate(0.267 0.267)">
    <path id="Path_945" data-name="Path 945" d="M9.4,14.72l-.93-.335L8.9,13.178l.93.335a.032.032,0,0,0,.033-.007L13.5,9.874a.032.032,0,0,0,.007-.034l-2.286-6.3A.032.032,0,0,0,11.2,3.52L4.955,1.284a.032.032,0,0,0-.033.008L1.291,4.924a.032.032,0,0,0-.007.034l2.261,6.274a.032.032,0,0,0,.019.019l1.547.558-.435,1.207-1.547-.558a1.31,1.31,0,0,1-.791-.791L.077,5.393A1.321,1.321,0,0,1,.384,4.017L4.015.384A1.319,1.319,0,0,1,5.387.076l6.244,2.236a1.31,1.31,0,0,1,.792.789L14.71,9.4a1.32,1.32,0,0,1-.306,1.378l-3.63,3.632A1.414,1.414,0,0,1,9.4,14.72Z" transform="translate(0 0)" fill="currentColor" stroke="currentColor" stroke-width="0.5"/>
    <path id="Path_946" data-name="Path 946" d="M131.357,136.725l-6.271-2.262a1.31,1.31,0,0,1-.791-.791l-2.261-6.275a1.321,1.321,0,0,1,.307-1.376l3.631-3.633a1.319,1.319,0,0,1,1.372-.308l.965.346-.432,1.208-.965-.346a.032.032,0,0,0-.033.008l-3.631,3.633a.032.032,0,0,0-.007.034l2.261,6.274a.032.032,0,0,0,.019.019l6.271,2.262a.032.032,0,0,0,.033-.007l3.63-3.632a.032.032,0,0,0,.007-.034l-2.286-6.3a.032.032,0,0,0-.019-.019l-1.688-.6.432-1.208,1.688.6a1.31,1.31,0,0,1,.792.789l2.286,6.3a1.32,1.32,0,0,1-.306,1.378l-3.63,3.632A1.436,1.436,0,0,1,131.357,136.725Z" transform="translate(-116.746 -116.791)" fill="currentColor" stroke="currentColor" stroke-width="0.5"/>
  </g>
</svg>
