<svg viewBox="0 0 24 24" fill="none" xmlns="http://www.w3.org/2000/svg"><path d="M18.759 2H9.617v12.333H21.96V5.191A3.191 3.191 0 0 0 18.759 2zM6.767 2H5.19A3.191 3.191 0 0 0 2 5.191v1.576h4.767V2zM2 9.617h4.767v4.766H2V9.617zM17.233 21.96h1.576A3.192 3.192 0 0 0 22 18.76v-1.526h-4.767v4.727zM9.617 17.233h4.766V22H9.617v-4.767zM2 17.233v1.576A3.191 3.191 0 0 0 5.191 22h1.576v-4.767H2z" fill="currentColor"/><path d="M18.759 2H9.617v12.333H21.96V5.191A3.191 3.191 0 0 0 18.759 2zM6.767 2H5.19A3.191 3.191 0 0 0 2 5.191v1.576h4.767V2zM2 9.617h4.767v4.766H2V9.617zM17.233 21.96h1.576A3.192 3.192 0 0 0 22 18.76v-1.526h-4.767v4.727zM9.617 17.233h4.766V22H9.617v-4.767zM2 17.233v1.576A3.191 3.191 0 0 0 5.191 22h1.576v-4.767H2z" fill="currentColor"/></svg>