<svg viewBox="0 0 18 18" fill="currentColor" xmlns="http://www.w3.org/2000/svg"><path d="M5.991 15.1c-.488 0-.859-.13-1.112-.392-.253-.257-.379-.645-.379-1.163V9.062c0-.514.126-.9.38-1.157.252-.257.623-.385 1.111-.385h6.018c.488 0 .859.128 1.112.385.253.258.379.643.379 1.157v4.483c0 .518-.126.906-.38 1.163-.252.261-.623.392-1.111.392H5.99zm.18-1.138h5.658c.132 0 .235-.04.308-.12.073-.076.11-.19.11-.341V9.113c0-.152-.037-.266-.11-.341a.408.408 0 0 0-.308-.114H6.17a.421.421 0 0 0-.308.114c-.073.075-.11.19-.11.34v4.389c0 .151.037.265.11.34.077.081.18.121.308.121zm-.495-5.911V6.04c0-.78.155-1.432.463-1.954a3.083 3.083 0 0 1 1.228-1.189A3.46 3.46 0 0 1 9 2.5a3.46 3.46 0 0 1 1.633.398c.506.266.913.662 1.221 1.189.313.522.47 1.174.47 1.953v2.01H11.12V5.928c0-.494-.098-.909-.295-1.246a1.97 1.97 0 0 0-.772-.777A2.15 2.15 0 0 0 9 3.638a2.15 2.15 0 0 0-1.054.266 1.97 1.97 0 0 0-.772.777c-.193.337-.289.752-.289 1.246V8.05H5.676z"/></svg>