<svg viewBox="0 0 48 48" fill="none" xmlns="http://www.w3.org/2000/svg">
<path d="M24 44C24.3177 44 24.834 43.8812 25.3302 43.6039C36.6281 37.2871 40.5 34.6139 40.5 27.386V12.2376C40.5 10.1584 39.6064 9.50495 37.9187 8.79207C35.5757 7.82177 28.0108 5.1089 25.6679 4.29703C25.1317 4.11881 24.5559 4 24 4C23.444 4 22.8682 4.15842 22.3519 4.29703C20.009 4.97029 12.4242 7.84158 10.0812 8.79207C8.41335 9.48515 7.5 10.1584 7.5 12.2376V27.386C7.5 34.6139 11.3917 37.2673 22.6696 43.6039C23.1859 43.8812 23.6823 44 24 44ZM24 40.4158C23.6823 40.4158 23.3646 40.297 22.7689 39.9405C13.5957 34.396 10.657 32.7722 10.657 26.6534V12.8515C10.657 12.1782 10.7762 11.9208 11.3321 11.703C14.3502 10.5148 20.2076 8.55446 23.2057 7.36633C23.5234 7.22772 23.7816 7.18811 24 7.18811C24.2184 7.18811 24.4764 7.24752 24.7941 7.36633C27.7924 8.55446 33.6101 10.6534 36.6877 11.703C37.2238 11.901 37.3429 12.1782 37.3429 12.8515V26.6534C37.3429 32.7722 34.4043 34.3763 25.2309 39.9405C24.6552 40.297 24.3177 40.4158 24 40.4158ZM16.8321 30.8514C16.8321 32.3366 17.4873 33.0297 18.8574 33.0297H29.1425C30.5125 33.0297 31.1679 32.3366 31.1679 30.8514V22.9703C31.1679 21.5841 30.592 20.8911 29.4205 20.8118V18.4752C29.4205 14.8317 27.2364 12.396 24 12.396C20.7635 12.396 18.5794 14.8317 18.5794 18.4752V20.8118C17.4079 20.8911 16.8321 21.5841 16.8321 22.9703V30.8514ZM20.6444 20.7921V18.2574C20.6444 15.9208 21.9946 14.396 24 14.396C26.0054 14.396 27.3556 15.9208 27.3556 18.2574V20.7921H20.6444Z" fill="currentColor"/>
</svg>
