<svg viewBox="0 0 34 40" fill="none" xmlns="http://www.w3.org/2000/svg">
<path d="M17.4349 40C17.7517 40 18.2667 39.8812 18.7616 39.6039C30.0289 33.2871 33.8904 30.6139 33.8904 23.386V8.23761C33.8904 6.1584 32.9992 5.50495 31.316 4.79207C28.9794 3.82177 21.435 1.1089 19.0984 0.297029C18.5635 0.118811 17.9894 0 17.4349 0C16.8805 0 16.3062 0.158416 15.7913 0.297029C13.4547 0.970291 5.89038 3.84158 3.55375 4.79207C1.89038 5.48515 0.979492 6.1584 0.979492 8.23761V23.386C0.979492 30.6139 4.86068 33.2673 16.1082 39.6039C16.623 39.8812 17.1181 40 17.4349 40ZM17.4349 36.4158C17.1181 36.4158 16.8013 36.297 16.2072 35.9405C7.0587 30.396 4.128 28.7722 4.128 22.6534V8.85148C4.128 8.17821 4.24681 7.92077 4.80127 7.70296C7.81117 6.51484 13.6527 4.55446 16.6428 3.36633C16.9597 3.22772 17.2171 3.18811 17.4349 3.18811C17.6527 3.18811 17.9101 3.24752 18.2269 3.36633C21.2172 4.55446 27.0191 6.65345 30.0884 7.70296C30.6231 7.90099 30.7419 8.17821 30.7419 8.85148V22.6534C30.7419 28.7722 27.8111 30.3763 18.6626 35.9405C18.0884 36.297 17.7517 36.4158 17.4349 36.4158ZM10.2864 26.8514C10.2864 28.3366 10.9399 29.0297 12.3062 29.0297H22.5636C23.9299 29.0297 24.5835 28.3366 24.5835 26.8514V18.9703C24.5835 17.5841 24.0092 16.8911 22.8408 16.8118V14.4752C22.8408 10.8317 20.6626 8.39602 17.4349 8.39602C14.2072 8.39602 12.029 10.8317 12.029 14.4752V16.8118C10.8607 16.8911 10.2864 17.5841 10.2864 18.9703V26.8514ZM14.0884 16.7921V14.2574C14.0884 11.9208 15.4349 10.396 17.4349 10.396C19.435 10.396 20.7815 11.9208 20.7815 14.2574V16.7921H14.0884Z" fill="#00D3A1"/>
</svg>
