<svg id="icon1_ondark" xmlns="http://www.w3.org/2000/svg" width="36" height="40" viewBox="0 0 36 40">
  <rect id="Rectangle_3" data-name="Rectangle 3" width="36" height="40" fill="none"/>
  <g id="Group_14" data-name="Group 14" transform="translate(2.363 2.465)">
    <path id="Path_23" data-name="Path 23" d="M18.9,39.178A14.57,14.57,0,1,1,37.548,17.536q.618-.068,1.268-.112A15.659,15.659,0,1,0,18.9,40.411Z" transform="translate(-10.38 -10.83)" fill="#fff"/>
    <g id="Group_13" data-name="Group 13" transform="translate(5.26 2.909)">
      <path id="Path_24" data-name="Path 24" d="M58.761,33.885a2.2,2.2,0,0,1-.075-2.06l1.206-2.493a.274.274,0,0,0-.246-.394H58.9a29.7,29.7,0,0,0-12.242,2.577c-.057,0-.114-.007-.171-.009a4.926,4.926,0,0,0,1.165-3.21,4.5,4.5,0,0,0-4.266-4.687A4.5,4.5,0,0,0,39.122,28.3a4.926,4.926,0,0,0,1.165,3.21,3.339,3.339,0,0,0-2.484,1.25l-3.506,4.2a3.474,3.474,0,0,0,.339,4.819l3.829,3.456v8.75a1.813,1.813,0,0,0,.6,1.386,1.908,1.908,0,0,0,1.282.469h.469A1.838,1.838,0,0,0,42.6,54.382l.79-4.346.794,4.373a1.83,1.83,0,0,0,1.776,1.43h.469a1.9,1.9,0,0,0,1.275-.462A1.8,1.8,0,0,0,48.312,54V45.233l.039-.036c1.232,1.348,3.66,3.733,5.434,3.733a1.705,1.705,0,0,0,.519-.077c.526-.168,1.181-.672,1.307-2.094.289-3.273,1.721-3.751,2.192-3.909a1.85,1.85,0,0,0,1.211-1.434l.071-.189a.41.41,0,0,0-.248-.53l-.207-.073c-.048-.03-.28-.207-.171-.8a5.058,5.058,0,0,1,1.111-2.028l.143-.157.039-.209a3.811,3.811,0,0,0-.446-2.59ZM43.388,25.1a3.017,3.017,0,0,1,2.779,3.2,3.017,3.017,0,0,1-2.779,3.2,3.017,3.017,0,0,1-2.779-3.2A3.017,3.017,0,0,1,43.388,25.1Zm7.756,15.577L48.312,43.23V39.6a.742.742,0,1,0-1.484,0V54.009a.334.334,0,0,1-.332.341h-.533a.328.328,0,0,1-.321-.234l-1.518-8.37a.743.743,0,0,0-1.461,0L41.148,54.09a.331.331,0,0,1-.326.262H40.29a.334.334,0,0,1-.237-.1.344.344,0,0,1-.1-.255V39.6a.742.742,0,1,0-1.484,0V43.23l-2.841-2.556a1.992,1.992,0,0,1-.2-2.764L38.954,33.7a1.885,1.885,0,0,1,1.48-.713h5.907a1.893,1.893,0,0,1,1.489.724l3.508,4.2A1.992,1.992,0,0,1,51.144,40.674Z" transform="translate(-33.485 -23.61)" fill="#fff"/>
      <g id="Group_12" data-name="Group 12" transform="translate(15.071 6.843)">
        <path id="Path_25" data-name="Path 25" d="M109.453,60.185a6.284,6.284,0,0,0-1.32,2.579,2.338,2.338,0,0,0,.355,1.883l-.02.009c-1.876.626-2.952,2.37-3.2,5.186-.046.512-.175.779-.282.813-.621.2-2.59-1.27-4.393-3.237l2.686-2.424a3.474,3.474,0,0,0,.339-4.819l-3.5-4.184a3.291,3.291,0,0,0-.43-.442,29.308,29.308,0,0,1,9.151-1.878l-.353.728a3.679,3.679,0,0,0,.125,3.449l.546.949A2.341,2.341,0,0,1,109.453,60.185Z" transform="translate(-99.69 -53.67)" fill="#ee306f"/>
      </g>
    </g>
  </g>
</svg>
