<svg viewBox="0 0 262 32" fill="none" xmlns="http://www.w3.org/2000/svg"><path d="M197.26 8.986 193.126 23h-3.38L184 4.54h3.562l3.874 14.014h.052l4.108-14.014h3.458l4.108 14.014h.052l3.9-14.014h3.458L204.826 23h-3.38l-4.134-14.014h-.052zM219.703 16.656l-3.588.546c-1.681.26-2.522.901-2.522 1.924 0 1.179.797 1.768 2.392 1.768 1.196 0 2.115-.32 2.756-.962.641-.641.962-1.447.962-2.418v-.858zm-4.342 6.656c-1.595 0-2.782-.373-3.562-1.118-.78-.745-1.17-1.733-1.17-2.964 0-2.357 1.725-3.779 5.174-4.264l3.9-.546v-.208c0-1.647-.962-2.47-2.886-2.47-1.681 0-2.635.667-2.86 2.002h-3.016c.139-1.317.685-2.4 1.638-3.25.971-.867 2.409-1.3 4.316-1.3 1.924 0 3.371.442 4.342 1.326.988.884 1.482 2.123 1.482 3.718v6.214c0 1.092.13 1.941.39 2.548h-2.938c-.017 0-.043-.06-.078-.182l-.078-.65a16.27 16.27 0 0 1-.026-.936c-.919 1.387-2.461 2.08-4.628 2.08zM229.483 23h-3.094V3.5h3.094V23zM236.313 23h-3.094V3.5h3.094V23zM252.477 17.15h-10.27c.121 1.075.511 1.933 1.17 2.574.659.624 1.525.936 2.6.936.711 0 1.352-.173 1.924-.52a2.91 2.91 0 0 0 1.222-1.404h3.12a6.335 6.335 0 0 1-2.34 3.328c-1.127.832-2.461 1.248-4.004 1.248-2.011 0-3.64-.667-4.888-2.002-1.231-1.335-1.846-3.025-1.846-5.07 0-1.993.624-3.666 1.872-5.018 1.248-1.352 2.86-2.028 4.836-2.028 1.976 0 3.571.667 4.784 2.002 1.231 1.317 1.846 2.981 1.846 4.992l-.026.962zm-6.604-5.434c-.971 0-1.777.286-2.418.858-.641.572-1.04 1.335-1.196 2.288h7.176c-.139-.953-.52-1.716-1.144-2.288-.624-.572-1.43-.858-2.418-.858zM261.392 20.244v2.678c-.381.104-.919.156-1.612.156-2.635 0-3.952-1.326-3.952-3.978v-7.124h-2.054v-2.47h2.054v-3.51h3.094v3.51h2.522v2.47h-2.522v6.812c0 1.057.503 1.586 1.508 1.586l.962-.13z" fill="#fff" fill-opacity=".5"/><path fill-rule="evenodd" clip-rule="evenodd" d="M127.789 1.852h-3.382v20.472h3.382v-8.212c0-2.25 1.34-3.543 3.439-3.543 1.983 0 2.916 1.294 2.916 3.206v8.492h3.381v-8.83c0-3.318-1.866-5.568-5.48-5.568-2.157 0-3.615.9-4.256 1.856V1.852zM55.96 19.736c-2.74 0-4.14-1.406-4.315-3.486h-3.38c.115 3.149 2.156 6.467 7.52 6.467 4.78 0 7.987-2.306 7.987-5.793 0-4.443-3.731-5.23-6.88-5.961-2.331-.506-4.43-.956-4.43-2.756 0-1.744 1.457-2.7 3.79-2.7 2.565 0 3.906 1.519 3.906 3.431h3.381c-.116-3.6-2.565-6.412-7.288-6.412-4.489 0-7.17 2.644-7.17 5.737 0 4.33 3.555 5.118 6.646 5.737 2.448.506 4.605.956 4.605 3.037-.058 1.743-1.632 2.7-4.372 2.7zm19.764-3.43c0 2.306-1.282 3.543-3.381 3.543-2.04 0-2.857-1.294-2.857-3.206V8.151h-3.382v8.942c0 3.318 1.866 5.568 5.422 5.568 2.391 0 3.849-1.012 4.49-2.137v1.856h3.09V8.15h-3.382v8.156zm14.518 6.355c-2.274 0-3.848-.956-4.664-2.193v7.536h-3.382V8.151h3.09v2.024c.933-1.462 2.682-2.362 4.956-2.362 4.372 0 6.821 3.375 6.821 7.424 0 4.05-2.449 7.424-6.821 7.424zM89.6 10.625c-2.565 0-4.14 1.969-4.14 4.612 0 2.531 1.575 4.556 4.14 4.556 2.566 0 4.14-1.969 4.14-4.556 0-2.587-1.632-4.612-4.14-4.612zm32.825-2.587h.466v3.037s-.408-.056-.758-.056c-2.39 0-3.789 1.181-3.789 3.937v7.368h-3.382V8.15h3.09v1.968c.583-.9 1.808-2.08 4.373-2.08zm-9.679 8.155v-1.012c0-4.162-2.856-7.368-7.229-7.368s-7.288 3.262-7.288 7.368c0 4.218 2.857 7.424 7.346 7.424 3.44 0 6.005-1.969 6.88-4.78h-3.382c-.524 1.236-1.865 2.024-3.439 2.024-2.332 0-3.848-1.462-4.082-3.712h11.194v.056zm-7.171-5.736c2.158 0 3.615 1.35 3.848 3.318h-7.754c.35-1.912 1.749-3.318 3.906-3.318zm48.508 4.724v1.012h-11.194c.233 2.25 1.749 3.712 4.081 3.712 1.574 0 2.857-.787 3.44-2.024h3.381c-.874 2.812-3.498 4.78-6.879 4.78-4.431 0-7.346-3.206-7.346-7.424 0-4.106 2.915-7.368 7.287-7.368 4.373-.056 7.23 3.15 7.23 7.312zm-3.381-1.406c-.292-1.969-1.691-3.318-3.849-3.318-2.157 0-3.614 1.35-3.906 3.318h7.755zm13.409-5.737h-.467c-2.565 0-3.789 1.181-4.314 2.081V8.151h-3.09v14.173h3.382v-7.368c0-2.756 1.399-3.937 3.789-3.937.35 0 .759.056.759.056V8.038h-.059zm15.159 7.2c0 3.992-2.915 7.367-7.638 7.367-4.664 0-7.579-3.431-7.579-7.368 0-3.993 2.915-7.424 7.579-7.424 4.723 0 7.638 3.43 7.638 7.424zm-7.638-4.556c-2.449 0-4.256 1.8-4.256 4.555 0 2.756 1.807 4.556 4.256 4.556 2.449 0 4.256-1.8 4.256-4.556.058-2.756-1.749-4.556-4.256-4.556z" fill="#fff"/><path fill-rule="evenodd" clip-rule="evenodd" d="m.106 11.02 10.96-9.899H30.54L41.5 11.02 20.862 30.48.107 11.02zM12.29 4.158h5.947L30.948 16.7l-10.145 9.561-16.15-15.185 7.638-6.918z" fill="#1161FE"/></svg>