<svg id="SuperheroLogo" xmlns="http://www.w3.org/2000/svg" width="220" height="46.696" viewBox="0 0 220 46.696">
  <g id="Group_454" data-name="Group 454" transform="translate(0 0)">
    <path id="Path_345" data-name="Path 345" d="M24.147,8.246a41.077,41.077,0,0,0-8.736,2.887c-5.732,2.579-10,1.763-12.58.625l-.638-.282.124.687a33.558,33.558,0,0,0,1.634,5.865C6.073,23.455,9.333,26.91,13.639,28.3l.2.065,7.146-6.42-.04-2.077a11.34,11.34,0,0,1,.716-4.235l1.815-5.067.046-.075a10.028,10.028,0,0,1,1-1.663l.579-.781Z" transform="translate(0.308 3.41)" fill="#ee306f"/>
    <g id="Group_453" data-name="Group 453">
      <g id="Group_452" data-name="Group 452" transform="translate(0 0)">
        <g id="Group_451" data-name="Group 451" transform="translate(0 0)">
          <path id="Path_346" data-name="Path 346" d="M12.36,33.623,6.127,39.242a4.38,4.38,0,0,0-.591,5.906A4.306,4.306,0,0,0,9.06,46.983a4.721,4.721,0,0,0,2.275-.625c.037-.037.074-.037.111-.074l9.578-6.717,14.641,4.514a4.606,4.606,0,0,0,1.211.183,4.092,4.092,0,0,0,4.074-4.074V30.87a1.867,1.867,0,0,1,.4-1.138l6.5-7.634a15.053,15.053,0,0,1,3.671-3.157l13.064-8.074c.037-.037.074-.037.074-.074a3.848,3.848,0,0,0-3.164-6.861L53.344,6.211A7.636,7.636,0,0,0,38.266,7.9a1.785,1.785,0,0,0,.037.443L30.67,9.08A35.706,35.706,0,0,0,15.295,12.75c-7.89,3.56-12.4-.3-12.586-.477a1.279,1.279,0,0,0-1.468-.183A1.312,1.312,0,0,0,.5,13.375,33.628,33.628,0,0,0,2.6,22.513C4.728,27.971,8.066,31.751,12.36,33.623ZM50.929,7.934a4.991,4.991,0,1,1-4.991-4.991,4.99,4.99,0,0,1,4.991,4.991ZM7.883,41.145,19.625,30.576l3.523-3.157h0l10.46-9.395a1.329,1.329,0,1,0-1.623-2.1,1.386,1.386,0,0,0-.139.124L24.03,23.09a9.323,9.323,0,0,1,.591-3.009l1.835-5.064a5.746,5.746,0,0,1,4.441-3.34h0l8.037-.769A7.627,7.627,0,0,0,53.5,8.926l8.661-2.458a1.2,1.2,0,0,1,1.358.7,1.12,1.12,0,0,1-.368,1.468l-13.03,8.037a17.908,17.908,0,0,0-4.3,3.676l-6.5,7.6a4.5,4.5,0,0,0-1.065,2.826v9.321a1.412,1.412,0,0,1-.591,1.138,1.526,1.526,0,0,1-1.248.22l-12.7-3.891,1.688-1.181h3.523a4.5,4.5,0,0,0,3.192-1.321,4.424,4.424,0,0,0,1.248-3.229L33.271,30.1v-.074a.328.328,0,0,0-.037-.183c0-.037,0-.037-.037-.074-.037-.074-.037-.111-.074-.183,0-.037-.037-.037-.037-.074-.037-.037-.037-.074-.074-.111l-.037-.037a.036.036,0,0,0-.034-.037h0a1.317,1.317,0,0,0-1.761-.257l-6.94,4.881h0L9.975,43.969a1.731,1.731,0,0,1-2.312-.514A1.644,1.644,0,0,1,7.883,41.145ZM5.094,21.586a33.148,33.148,0,0,1-1.615-5.8c2.569,1.138,6.974,2.018,12.88-.625A39.947,39.947,0,0,1,25.019,12.3a8.957,8.957,0,0,0-1.034,1.725.126.126,0,0,1-.037.074l-1.835,5.1a11.749,11.749,0,0,0-.738,4.367l.037,1.908-3.963,3.56-2.9,2.606C10.341,30.284,7.186,26.907,5.094,21.586Z" transform="translate(-0.499 -0.287)" fill="#fff"/>
        </g>
      </g>
    </g>
  </g>
  <path id="Path_347" data-name="Path 347" d="M193.571,38.29a8.392,8.392,0,0,1-5.862-1.937,8.257,8.257,0,0,1-2.416-5.3,13.3,13.3,0,0,1-.075-1.847V21.966a12.959,12.959,0,0,1,.991-5.621c1.3-2.672,3.778-4.028,7.362-4.028,3.4,0,5.788,1.181,7.118,3.526a12.426,12.426,0,0,1,1.273,6.012v7.408c-.01.659-.044,1.255-.1,1.823C201.293,35.794,198.429,38.29,193.571,38.29Zm0-20.56a1.843,1.843,0,0,0-1.376.493,5.1,5.1,0,0,0-.7,3.47v7.753c.013,1.624.19,3.365,2.12,3.365a1.826,1.826,0,0,0,1.367-.49,5.053,5.053,0,0,0,.69-3.442V21.693a5.088,5.088,0,0,0-.712-3.47A1.853,1.853,0,0,0,193.571,17.73ZM65.774,38.29c-3.343,0-5.718-1.078-7.065-3.205a9.647,9.647,0,0,1-1.283-5.276V13.559a.969.969,0,0,1,.983-.955H62.74a1,1,0,0,1,.991.954V29.947c0,1.383.158,2.861,2.052,2.861,1.847,0,2.113-1.32,2.125-2.746v-16.5a.963.963,0,0,1,.972-.954H73.2a.967.967,0,0,1,.955.954V30.007a9.435,9.435,0,0,1-1.378,5.2C71.412,37.253,69.054,38.29,65.774,38.29Zm-19.559,0a21.421,21.421,0,0,1-5.758-.738c-.849-.351-.946-.632-.954-1.147V33.028a1.137,1.137,0,0,1,1.1-1.171c.034,0,.066,0,.1,0a2.21,2.21,0,0,1,.87.244,3.3,3.3,0,0,0,.48.18,21.574,21.574,0,0,0,3.675.53h.112c2.165,0,2.932-1.085,2.932-2.015.015-1.636-1.667-2.658-3.616-3.855a18.109,18.109,0,0,1-3.867-2.867,6.693,6.693,0,0,1-1.9-4.725,6.231,6.231,0,0,1,2.478-5.3,10.735,10.735,0,0,1,6.4-1.729h.188c1.329.044,6.008.617,6.008,1.946v3.1A.945.945,0,0,1,53.4,18.386a8.535,8.535,0,0,1-1.58-.255l-.264-.055a15.83,15.83,0,0,0-2.935-.351c-1.316,0-1.887.348-2.134.642a.77.77,0,0,0-.2.628c-.059.762,1,1.513,1.7,2.01.148.1.282.2.391.285l1.36.867c3.3,2.114,5.823,4.091,5.854,8.6a6.8,6.8,0,0,1-2.537,5.5,10.829,10.829,0,0,1-6.839,2.032Zm136.928-.282H179.18c-1.211,0-1.536-.489-1.772-.989l-3.963-8.729a.478.478,0,0,0-.351-.21c-.115,0-.251.08-.251.461v8.516a1,1,0,0,1-1.034.954h-4.238a.97.97,0,0,1-1.032-.9c0-.016,0-.032,0-.049v-23.5a.969.969,0,0,1,.983-.955h7.092a8.74,8.74,0,0,1,6.426,2.159,7.108,7.108,0,0,1,1.887,5.153,8.313,8.313,0,0,1-.96,4.088,5.5,5.5,0,0,1-2.1,2.169l-.165.09c-.233.148-.219.5.044,1.072l4.207,8.8a1.582,1.582,0,0,1,.1,1.466A.99.99,0,0,1,183.143,38.008Zm-9.2-20.314c-1.042,0-1.1.216-1.1.839V22.21c0,.486.084.781,1.1.781A2.424,2.424,0,0,0,176.59,20.8a2.346,2.346,0,0,0,0-.394,2.443,2.443,0,0,0-2.142-2.709A2.508,2.508,0,0,0,173.947,17.695Zm-9.978,20.314H151.236a.97.97,0,0,1-1.032-.9c0-.016,0-.032,0-.049v-23.5a.969.969,0,0,1,.983-.955h12.286a1,1,0,0,1,.991.954v3.535a.972.972,0,0,1-.991.918h-6.439a.534.534,0,0,0-.532.459v2.823a.578.578,0,0,0,.532.567h5.8a.916.916,0,0,1,.954.877c0,.013,0,.027,0,.04v3.5a.917.917,0,0,1-.914.92h-5.912a.5.5,0,0,0-.459.495v4.388a.553.553,0,0,0,.532.53h7.078a.793.793,0,0,1,.811.775v3.676A.952.952,0,0,1,163.969,38.008Zm-17.687,0H142.04a.97.97,0,0,1-1.032-.9c0-.016,0-.032,0-.049v-9.54a.464.464,0,0,0-.459-.459h-3.288a.457.457,0,0,0-.424.424v9.578a1.011,1.011,0,0,1-.991.954h-4.282a.97.97,0,0,1-1.032-.9c0-.016,0-.032,0-.049v-23.5a.969.969,0,0,1,.983-.955h4.331a1,1,0,0,1,.985.954v7.1c0,.3.148.591.424.591h3.3c.316,0,.459-.346.459-.667V13.559a.969.969,0,0,1,.983-.955h4.286a.983.983,0,0,1,1.032.932.113.113,0,0,0,0,.022v23.5a1,1,0,0,1-1.034.951Zm-18.182,0h-3.967c-1.209,0-1.546-.511-1.772-.989L118.4,28.287a.478.478,0,0,0-.351-.21c-.115,0-.251.08-.251.461v8.516a1,1,0,0,1-1.034.954h-4.226a.97.97,0,0,1-1.032-.9c0-.016,0-.032,0-.049v-23.5a.969.969,0,0,1,.983-.955h7.09A8.731,8.731,0,0,1,126,14.764a7.1,7.1,0,0,1,1.89,5.153,8.282,8.282,0,0,1-.964,4.088,5.524,5.524,0,0,1-2.1,2.169l-.165.09c-.233.148-.219.5.046,1.072l4.214,8.8a1.572,1.572,0,0,1,.1,1.463A1,1,0,0,1,128.1,38.008Zm-9.194-20.314c-1.044,0-1.1.216-1.1.839V22.21c0,.486.084.781,1.1.781a2.424,2.424,0,0,0,2.643-2.187,2.344,2.344,0,0,0,0-.394A2.443,2.443,0,0,0,119.41,17.7,2.608,2.608,0,0,0,118.906,17.695Zm-9.98,20.314H96.195a.97.97,0,0,1-1.032-.9c0-.016,0-.032,0-.049v-23.5a.969.969,0,0,1,.983-.955H108.43a1,1,0,0,1,.991.954v3.535a.972.972,0,0,1-.991.918h-6.445a.537.537,0,0,0-.524.459v2.823a.569.569,0,0,0,.524.567h5.807a.916.916,0,0,1,.954.877c0,.013,0,.027,0,.04v3.5a.917.917,0,0,1-.914.92h-5.906a.5.5,0,0,0-.459.495v4.388a.541.541,0,0,0,.524.53h7.08a.807.807,0,0,1,.818.794v3.657a.958.958,0,0,1-.964.949Zm-26.7,0H77.911a.97.97,0,0,1-1.032-.9c0-.016,0-.032,0-.049v-23.5a.969.969,0,0,1,.983-.955h6.2a10.22,10.22,0,0,1,6.876,1.97,7.89,7.89,0,0,1,2.392,6.368,7.678,7.678,0,0,1-2.392,6.02,9.534,9.534,0,0,1-6.452,2.067c-.867,0-1.307.3-1.307.886v7.14a.977.977,0,0,1-.955.952Zm2.12-20.278c-.8,0-1.163.3-1.163.954V23.1c0,.608.337.846,1.2.846,1.716,0,2.448-.91,2.448-3.04a3.944,3.944,0,0,0-.564-2.262A2.191,2.191,0,0,0,84.344,17.73Z" transform="translate(18.027 5.439)" fill="#fff"/>
</svg>
