<svg xmlns="http://www.w3.org/2000/svg" width="220" height="52.63" viewBox="0 0 220 52.63">
  <g id="Brand_Logo" data-name="Brand/Logo" transform="translate(0 0)">
    <path id="Path" d="M0,0C16.793.631,26.372,5.864,26.479,5.921L25.1,8.072l-6.8,2.31c-1.2.539-2.663,3.078-2.23,4.439l2.575,8.248-3.55,4.964C2,24.98,2.871,17.206,2.9,15.973l.014-.28V10.318A18.1,18.1,0,0,0,0,0Z" transform="translate(4.789 6.005)" fill="#f72a6e"/>
    <path id="Shape" d="M13.928,52.63a4.18,4.18,0,0,1-4.183-4.212A4.2,4.2,0,0,1,10.788,45.7l.136-.148,7.282-9.206A25.794,25.794,0,0,1,11.668,33.4a15.721,15.721,0,0,1-5.26-5.429,12.3,12.3,0,0,1-1.649-6.049l.009-.269V16.323a15.844,15.844,0,0,0-1.8-7.673A10.16,10.16,0,0,0,.7,5.742L.6,5.665a1.469,1.469,0,0,1,.867-2.652c15.673,0,25.969,3.907,29.669,5.587C31.383,4.227,34.742.8,38.781.8a7.187,7.187,0,0,1,4.341,1.47,8.277,8.277,0,0,1,2.773,3.768l.072.2L53.9.828a4.766,4.766,0,0,1,5.548,7.748l-.729.529A102.682,102.682,0,0,0,50.4,16.022c-4.528,4.2-7.792,8.089-9.7,11.545l-.152.28,4.353,1.61a6.7,6.7,0,0,1,3.99,4.017l.072.209.107.326a6.177,6.177,0,0,1-2.143,6.857l-.164.121L35.173,49.205a4.17,4.17,0,0,1-2.636,1.1l-.233,0a4.172,4.172,0,0,1-3.033-7l.135-.139,5.276-5.212H31.666l-14.834,13.5A4.166,4.166,0,0,1,13.928,52.63ZM25.055,32.42,13.175,47.44l-.121.135a1.228,1.228,0,0,0-.369.872,1.2,1.2,0,0,0,.355.879,1.225,1.225,0,0,0,.886.373,1.251,1.251,0,0,0,.779-.272l.089-.078.042-.043L30.1,35.413a1.467,1.467,0,0,1,.872-.378l.123-.005h7.151a1.461,1.461,0,0,1,1.356.908,1.444,1.444,0,0,1-.245,1.509l-.081.086-7.8,7.722a1.226,1.226,0,0,0-.376.872,1.247,1.247,0,0,0,1.235,1.255,1.349,1.349,0,0,0,.787-.274l.272-.229L45.058,38.6a3.257,3.257,0,0,0,1.267-3.528l-.046-.153-.106-.333a3.793,3.793,0,0,0-2.117-2.308l-.169-.068-4.829-1.787a2.484,2.484,0,0,1-1.363-3.446,37.683,37.683,0,0,1,5.18-7.432A75.893,75.893,0,0,1,49.34,13a98.226,98.226,0,0,1,8.286-6.728A1.835,1.835,0,0,0,58.392,5.1a1.8,1.8,0,0,0-.29-1.366,1.838,1.838,0,0,0-2.443-.55l-.107.067L46.442,9.463l0,.083a8.614,8.614,0,0,1-2.3,5.522,7.357,7.357,0,0,1-5.158,2.365l-.2,0a7.508,7.508,0,0,1-6.433-3.822l-.114-.2L23.088,17.1a2.832,2.832,0,0,0-1.343,1.488,3.349,3.349,0,0,0-.216,2.105l.04.138L24.132,29a.688.688,0,0,0,.383.425,1.47,1.47,0,0,1,.2.031l.1.026h.355a.538.538,0,0,0,.542-.465l.005-.073.014-5.425a3.376,3.376,0,0,1,2.071-3.093l.144-.056L33.057,18.5a1.465,1.465,0,0,1,1.11,2.711l-.1.041L28.96,23.124a.439.439,0,0,0-.286.338l-.005.066-.014,5.425a3.482,3.482,0,0,1-3.325,3.464l-.155,0h-.121ZM4.789,6h0A16.293,16.293,0,0,1,6.735,10,19.9,19.9,0,0,1,7.7,15.952l0,.371V21.7l-.015.276a9.307,9.307,0,0,0,1.642,5.188,13.192,13.192,0,0,0,3.725,3.657,23.372,23.372,0,0,0,7.114,3.039l2.012-2.544a3.477,3.477,0,0,1-.791-1.255l-.061-.184-2.563-8.169a6.087,6.087,0,0,1,.247-4.185,5.859,5.859,0,0,1,2.753-3.046l.159-.073.043-.014,7.845-3.159-.381-.167a56.587,56.587,0,0,0-8.93-2.923A78.808,78.808,0,0,0,4.789,6.005ZM38.781,3.736c-2.6,0-4.722,2.414-4.722,5.382s2.118,5.39,4.722,5.39,4.729-2.418,4.729-5.39S41.388,3.736,38.781,3.736ZM211.7,45.2a8.294,8.294,0,0,1-5.8-1.917,8.165,8.165,0,0,1-2.389-5.246,13.426,13.426,0,0,1-.075-1.831v-.016c0-.164,0-.334,0-.528V29.052a12.819,12.819,0,0,1,.98-5.56c1.285-2.644,3.734-3.985,7.278-3.985,3.357,0,5.726,1.173,7.042,3.488A12.276,12.276,0,0,1,220,28.941v6.983l0,.344c-.01.652-.044,1.242-.1,1.8C219.338,42.735,216.5,45.2,211.7,45.2Zm0-20.338a1.825,1.825,0,0,0-1.365.488c-.712.716-.7,2.1-.7,3.433q0,.14,0,.279l0,7.392a5.83,5.83,0,0,0,.35,2.3,1.74,1.74,0,0,0,1.747,1.024,1.8,1.8,0,0,0,1.351-.484c.7-.71.693-2.08.682-3.405,0-.163,0-.323,0-.479V28.784c.008-1.335.016-2.716-.7-3.433A1.832,1.832,0,0,0,211.7,24.861ZM85.276,45.2c-3.306,0-5.657-1.067-6.989-3.171a9.54,9.54,0,0,1-1.269-5.219V20.734a.96.96,0,0,1,1.015-.943h4.232a.988.988,0,0,1,.98.943V36.951a4.415,4.415,0,0,0,.307,1.926,1.735,1.735,0,0,0,1.723.9c1.828,0,2.09-1.305,2.1-2.716V20.734a.952.952,0,0,1,.98-.943h4.268a.956.956,0,0,1,.944.943V37.005a9.335,9.335,0,0,1-1.363,5.145C90.852,44.173,88.521,45.2,85.276,45.2Zm-19.349,0a21.2,21.2,0,0,1-5.7-.731c-.84-.347-.935-.625-.943-1.135v-3.34a1.123,1.123,0,0,1,1.185-1.156,2.18,2.18,0,0,1,.859.24,3.194,3.194,0,0,0,.476.178,21.265,21.265,0,0,0,3.636.525h.109c1.339,0,2.9-.522,2.9-1.994.015-1.618-1.649-2.636-3.576-3.814a17.9,17.9,0,0,1-3.817-2.837,6.624,6.624,0,0,1-1.88-4.674,7.059,7.059,0,0,1,.644-3.076,5.824,5.824,0,0,1,1.806-2.17,10.612,10.612,0,0,1,6.333-1.71l.185,0c1.311.044,5.943.612,5.943,1.926v3.073a.934.934,0,0,1-1.05,1.012,8.382,8.382,0,0,1-1.569-.255l-.011,0-.245-.055a15.576,15.576,0,0,0-2.9-.347c-1.3,0-1.865.345-2.11.634a.765.765,0,0,0-.2.622c-.059.753.987,1.5,1.678,1.986.145.1.28.2.388.282l1.346.858c3.262,2.092,5.76,4.047,5.791,8.51a6.715,6.715,0,0,1-2.509,5.441A10.71,10.71,0,0,1,65.927,45.2Zm135.455-.277h-3.919c-1.2,0-1.519-.483-1.747-.978l-3.92-8.637a.475.475,0,0,0-.348-.207c-.113,0-.249.079-.249.455v8.424a.983.983,0,0,1-1.015.943h-4.2a.96.96,0,0,1-1.016-.943V20.734a.96.96,0,0,1,1.016-.943h6.966c2.808,0,4.947.719,6.356,2.136a7.032,7.032,0,0,1,1.867,5.1,8.22,8.22,0,0,1-.95,4.044,5.44,5.44,0,0,1-2.078,2.146l-.163.089c-.23.145-.215.492.045,1.06l4.161,8.7a1.562,1.562,0,0,1,.1,1.452A.978.978,0,0,1,201.382,44.922Zm-9.1-20.1c-1.031,0-1.084.213-1.086.83v3.639c.007.48.084.772,1.086.772a2.638,2.638,0,0,0,1.952-.726,2.556,2.556,0,0,0,.668-1.827A2.416,2.416,0,0,0,192.286,24.825Zm-9.87,20.1h-12.6a.96.96,0,0,1-1.015-.943V20.734a.96.96,0,0,1,1.015-.943h12.107a.989.989,0,0,1,.98.943v3.5a.961.961,0,0,1-.98.908h-6.37a.529.529,0,0,0-.525.454v2.794a.573.573,0,0,0,.525.56h5.738a.906.906,0,0,1,.945.908v3.46a.907.907,0,0,1-.945.908h-5.809a.5.5,0,0,0-.454.489v4.34a.546.546,0,0,0,.525.525h7a.784.784,0,0,1,.8.8v3.6A.945.945,0,0,1,182.416,44.922Zm-17.5,0h-4.2a.96.96,0,0,1-1.016-.943V34.541a.46.46,0,0,0-.454-.454h-3.259a.454.454,0,0,0-.419.419v9.474a1,1,0,0,1-.98.943h-4.232a.96.96,0,0,1-1.015-.943V20.734a.96.96,0,0,1,1.015-.943h4.232a.989.989,0,0,1,.98.943v7.027c0,.286.147.589.419.589h3.259c.312,0,.454-.342.454-.66V20.734a.96.96,0,0,1,1.016-.943h4.2a.974.974,0,0,1,1.015.943V43.979A.983.983,0,0,1,164.92,44.922Zm-17.987,0h-3.919c-1.2,0-1.529-.505-1.747-.978l-3.92-8.637A.474.474,0,0,0,137,35.1c-.113,0-.249.079-.249.455v8.424a.983.983,0,0,1-1.015.943h-4.2a.96.96,0,0,1-1.016-.943V20.734a.96.96,0,0,1,1.016-.943H138.5c2.806,0,4.943.719,6.354,2.136a7.029,7.029,0,0,1,1.869,5.1,8.2,8.2,0,0,1-.953,4.044,5.456,5.456,0,0,1-2.081,2.146l-.163.089c-.23.145-.215.492.045,1.06l4.168,8.7a1.557,1.557,0,0,1,.095,1.449A1,1,0,0,1,146.933,44.922Zm-9.1-20.1c-1.031,0-1.084.213-1.086.83v3.639c.007.48.084.772,1.086.772a2.639,2.639,0,0,0,1.952-.726,2.556,2.556,0,0,0,.668-1.827A2.416,2.416,0,0,0,137.837,24.825Zm-9.87,20.1h-12.6a.96.96,0,0,1-1.016-.943V20.734a.96.96,0,0,1,1.016-.943h12.107a.989.989,0,0,1,.98.943v3.5a.961.961,0,0,1-.98.908h-6.37a.532.532,0,0,0-.518.454v2.794a.562.562,0,0,0,.518.56h5.745a.906.906,0,0,1,.945.908v3.46a.907.907,0,0,1-.945.908h-5.809a.492.492,0,0,0-.454.489v4.34a.535.535,0,0,0,.518.525h7a.8.8,0,0,1,.809.8v3.6A.949.949,0,0,1,127.966,44.922Zm-26.415,0H97.284a.96.96,0,0,1-1.015-.943V20.734a.96.96,0,0,1,1.015-.943h6.086a14.634,14.634,0,0,1,3.928.473,7.446,7.446,0,0,1,2.874,1.476,6.27,6.27,0,0,1,1.765,2.563,10.554,10.554,0,0,1,.6,3.736,9.176,9.176,0,0,1-.614,3.447,6.662,6.662,0,0,1-1.752,2.508,9.43,9.43,0,0,1-6.382,2.051c-.857,0-1.292.294-1.292.872v7.062A.969.969,0,0,1,101.552,44.922Zm2.095-20.061c-.8,0-1.15.291-1.15.943v4.368c0,.6.332.837,1.185.837a2.168,2.168,0,0,0,1.933-.822A3.786,3.786,0,0,0,106.1,28a3.9,3.9,0,0,0-.557-2.238A2.165,2.165,0,0,0,103.647,24.861Z" transform="translate(0 0)" fill="#fff"/>
  </g>
</svg>
