<svg xmlns="http://www.w3.org/2000/svg" width="39.432" height="28" viewBox="0 0 39.432 28">
  <g id="Group_455" data-name="Group 455" transform="translate(0 0)">
    <path id="Path_345" data-name="Path 345" d="M15.357,8.165A24.631,24.631,0,0,0,10.119,9.9c-3.437,1.547-6,1.057-7.543.375L2.193,10.1l.074.412a20.122,20.122,0,0,0,.98,3.517c1.272,3.255,3.227,5.327,5.809,6.159l.121.039,4.285-3.849-.024-1.246a6.8,6.8,0,0,1,.429-2.539l1.088-3.039.027-.045a6.013,6.013,0,0,1,.6-1l.347-.468Z" transform="translate(-0.693 -1.176)" fill="#ee306f"/>
    <g id="Group_453" data-name="Group 453" transform="translate(0 0)">
      <g id="Group_452" data-name="Group 452" transform="translate(0 0)">
        <g id="Group_451" data-name="Group 451" transform="translate(0 0)">
          <path id="Path_346" data-name="Path 346" d="M7.611,20.276,3.874,23.645a2.627,2.627,0,0,0-.354,3.541,2.582,2.582,0,0,0,2.112,1.1A2.831,2.831,0,0,0,7,27.912c.022-.022.044-.022.066-.044l5.743-4.027,8.779,2.706a2.762,2.762,0,0,0,.726.11,2.454,2.454,0,0,0,2.443-2.443V18.625A1.119,1.119,0,0,1,25,17.943l3.9-4.577a9.026,9.026,0,0,1,2.2-1.893l7.834-4.841c.022-.022.044-.022.044-.044a2.307,2.307,0,0,0-1.9-4.114L32.186,3.839a4.579,4.579,0,0,0-9.041,1.012,1.071,1.071,0,0,0,.022.266l-4.577.443a21.41,21.41,0,0,0-9.219,2.2C4.64,9.895,1.935,7.583,1.824,7.474a.767.767,0,0,0-.88-.11.787.787,0,0,0-.443.77,20.164,20.164,0,0,0,1.255,5.479A11.364,11.364,0,0,0,7.611,20.276Zm23.127-15.4A2.992,2.992,0,1,1,27.746,1.88a2.992,2.992,0,0,1,2.992,2.992ZM4.927,24.786l7.041-6.337,2.112-1.893h0l6.272-5.633a.8.8,0,1,0-.973-1.262.831.831,0,0,0-.083.074L14.609,13.96a5.591,5.591,0,0,1,.354-1.8l1.1-3.037a3.445,3.445,0,0,1,2.663-2h0l4.819-.461a4.573,4.573,0,0,0,8.736-1.188l5.193-1.474a.721.721,0,0,1,.815.418.672.672,0,0,1-.22.88L30.256,10.11a10.738,10.738,0,0,0-2.576,2.2l-3.9,4.555a2.7,2.7,0,0,0-.638,1.695v5.589a.847.847,0,0,1-.354.683.915.915,0,0,1-.748.132L14.43,22.635l1.012-.708h2.112a2.7,2.7,0,0,0,1.914-.792,2.653,2.653,0,0,0,.748-1.936l-.066-1.034V18.12a.2.2,0,0,0-.022-.11c0-.022,0-.022-.022-.044-.022-.044-.022-.066-.044-.11,0-.022-.022-.022-.022-.044-.022-.022-.022-.044-.044-.066l-.022-.022a.022.022,0,0,0-.02-.022h0a.789.789,0,0,0-1.056-.154l-4.161,2.927h0L6.181,26.48a1.038,1.038,0,0,1-1.386-.308A.986.986,0,0,1,4.927,24.786ZM3.254,13.058a19.876,19.876,0,0,1-.969-3.477c1.541.683,4.181,1.21,7.723-.375A23.953,23.953,0,0,1,15.2,7.49a5.371,5.371,0,0,0-.62,1.034.076.076,0,0,1-.022.044l-1.1,3.059a7.045,7.045,0,0,0-.443,2.619l.022,1.144-2.376,2.135L8.924,19.087C6.4,18.274,4.509,16.249,3.254,13.058Z" transform="translate(-0.499 -0.287)" fill="#fff"/>
        </g>
      </g>
    </g>
  </g>
</svg>
