<svg xmlns="http://www.w3.org/2000/svg" width="32.645" height="28" viewBox="0 0 32.645 28">
  <g id="Group_448" data-name="Group 448" transform="translate(-69 -33.607)">
    <path id="Path" d="M0,0C8.934.336,14.03,3.12,14.087,3.15l-.736,1.144L9.735,5.523A2.576,2.576,0,0,0,8.549,7.885l1.37,4.388L8.03,14.914C1.063,13.29,1.527,9.154,1.545,8.5l.008-.149V5.489A9.629,9.629,0,0,0,0,0Z" transform="translate(71.548 36.802)" fill="#f72a6e"/>
    <path id="Shape" d="M7.41,28a2.223,2.223,0,0,1-2.225-2.241,2.238,2.238,0,0,1,.555-1.446l.072-.079,3.874-4.9a13.722,13.722,0,0,1-3.478-1.57,8.364,8.364,0,0,1-2.8-2.889,6.54,6.54,0,0,1-.877-3.218l0-.144V8.684c0-3.655-1.8-5.331-2.166-5.629L.319,3.014A.781.781,0,0,1,.78,1.6,38.886,38.886,0,0,1,16.564,4.575,4.24,4.24,0,0,1,20.632.426a3.823,3.823,0,0,1,2.309.782,4.4,4.4,0,0,1,1.475,2l.038.107L28.675.441a2.537,2.537,0,0,1,3.935,2.517,2.5,2.5,0,0,1-.983,1.6l-.387.282c-1.176.872-7.167,5.443-9.585,9.822l-.081.148,2.316.857a3.562,3.562,0,0,1,2.123,2.137l.038.112.057.173a3.286,3.286,0,0,1-1.141,3.648l-.087.065-6.166,4.373a2.218,2.218,0,0,1-1.4.586l-.124,0a2.219,2.219,0,0,1-1.614-3.725l.072-.074,2.807-2.773H16.847L8.955,27.378A2.215,2.215,0,0,1,7.41,28Zm5.92-10.752-6.32,7.99-.064.071a.653.653,0,0,0-.2.464.639.639,0,0,0,.189.468.652.652,0,0,0,.471.2.665.665,0,0,0,.414-.145l.048-.042.023-.023,8.122-7.39a.779.779,0,0,1,.464-.2l.065,0h3.8a.778.778,0,0,1,.722.483.768.768,0,0,1-.131.8l-.043.046-4.152,4.109a.653.653,0,0,0-.2.464.664.664,0,0,0,.657.668.716.716,0,0,0,.418-.146l.145-.122,6.207-4.407a1.742,1.742,0,0,0,.674-1.877l-.024-.081-.057-.177a2.018,2.018,0,0,0-1.126-1.228l-.09-.036-2.569-.95a1.323,1.323,0,0,1-.725-1.834C22.812,8.9,30.58,3.393,30.658,3.338a.977.977,0,0,0,.408-.633.957.957,0,0,0-.155-.722.978.978,0,0,0-1.3-.292l-.056.036L24.708,5.034v.045a4.582,4.582,0,0,1-1.225,2.938,3.915,3.915,0,0,1-2.744,1.259h-.1A3.993,3.993,0,0,1,17.21,7.243l-.061-.106L12.283,9.1a1.753,1.753,0,0,0-.829,1.911l.021.073,1.364,4.35a.368.368,0,0,0,.2.226.726.726,0,0,1,.109.016l.054.014h.189a.29.29,0,0,0,.288-.248l0-.039.008-2.886a1.784,1.784,0,0,1,1.1-1.645l.077-.03,2.716-1a.779.779,0,0,1,.59,1.442l-.054.022-2.716,1a.23.23,0,0,0-.152.18l0,.035L15.245,15.4a1.844,1.844,0,0,1-1.769,1.843l-.082,0ZM2.548,3.2A9.6,9.6,0,0,1,4.1,8.487v3.057l-.008.147a4.946,4.946,0,0,0,.873,2.76C6.051,16.1,7.991,17.3,10.733,18.013L11.8,16.659a1.839,1.839,0,0,1-.42-.668l-.033-.1L9.986,11.548a3.238,3.238,0,0,1,.132-2.226A3.117,3.117,0,0,1,11.583,7.7l.085-.039.023-.008,4.174-1.681-.2-.089A36.878,36.878,0,0,0,2.548,3.2ZM20.632,1.988A2.708,2.708,0,0,0,18.12,4.851a2.71,2.71,0,0,0,2.512,2.867,2.712,2.712,0,0,0,2.516-2.867A2.71,2.71,0,0,0,20.632,1.988Z" transform="translate(69 33.607)" fill="#fff"/>
  </g>
</svg>
