<svg xmlns="http://www.w3.org/2000/svg" width="45.23" height="23.305" viewBox="0 0 45.23 23.305">
  <g id="coronaLogo" transform="translate(0.65 -0.523)">
    <g id="Group_10" data-name="Group 10" transform="translate(0 1.178)">
      <g id="Group_7" data-name="Group 7" transform="translate(0 0)">
        <path id="Path_13" data-name="Path 13" d="M.864,3.579C.184,2.9-.169,3.1.08,4.032L5.294,23.491a2.408,2.408,0,0,0,2.2,1.687h13.28c.96,0,1.19-.555.51-1.233Z" transform="translate(0 -3.178)" fill="#21212a"/>
        <path id="Path_14" data-name="Path 14" d="M.864,3.579C.184,2.9-.169,3.1.08,4.032L5.294,23.491a2.408,2.408,0,0,0,2.2,1.687h13.28c.96,0,1.19-.555.51-1.233Z" transform="translate(0 -3.178)" fill="none" stroke="#f1f1f1" stroke-miterlimit="10" stroke-width="1.3"/>
      </g>
      <g id="Group_8" data-name="Group 8" transform="translate(22.257 0)">
        <path id="Path_15" data-name="Path 15" d="M89.608,23.946c-.68.678-.451,1.233.51,1.233H103.4a2.408,2.408,0,0,0,2.2-1.687L110.81,4.033c.248-.928-.1-1.132-.784-.454Z" transform="translate(-89.217 -3.179)" fill="#21212a"/>
        <path id="Path_16" data-name="Path 16" d="M89.608,23.946c-.68.678-.451,1.233.51,1.233H103.4a2.408,2.408,0,0,0,2.2-1.687L110.81,4.033c.248-.928-.1-1.132-.784-.454Z" transform="translate(-89.217 -3.179)" fill="none" stroke="#f1f1f1" stroke-miterlimit="10" stroke-width="1.3"/>
      </g>
      <g id="Group_9" data-name="Group 9" transform="translate(11.757 0.095)">
        <path id="Path_17" data-name="Path 17" d="M56.59,4.209c.411-.868,1.083-.868,1.494,0l9.309,19.676a1.021,1.021,0,0,1-1,1.579H48.28a1.021,1.021,0,0,1-1-1.579Z" transform="translate(-47.129 -3.558)" fill="#21212a"/>
        <path id="Path_18" data-name="Path 18" d="M56.59,4.209c.411-.868,1.083-.868,1.494,0l9.309,19.676a1.021,1.021,0,0,1-1,1.579H48.28a1.021,1.021,0,0,1-1-1.579Z" transform="translate(-47.129 -3.558)" fill="none" stroke="#f1f1f1" stroke-miterlimit="10" stroke-width="1.3"/>
      </g>
    </g>
    <g id="Group_11" data-name="Group 11" transform="translate(14.961 18.469)">
      <path id="Path_19" data-name="Path 19" d="M61.588,73.329a.666.666,0,0,0-.211-.172.55.55,0,0,0-.252-.059.576.576,0,0,0-.415.159.535.535,0,0,0-.165.4.552.552,0,0,0,.59.59.516.516,0,0,0,.235-.057.824.824,0,0,0,.219-.165v.65l-.04.013-.039.013c-.066.021-.131.039-.2.054a.959.959,0,0,1-.208.022,1.111,1.111,0,0,1-.805-.317,1.112,1.112,0,0,1,0-1.577,1.134,1.134,0,0,1,.821-.319.931.931,0,0,1,.214.027,2.05,2.05,0,0,1,.252.081v.656Z" transform="translate(-59.971 -72.546)" fill="#f1f1f1"/>
      <path id="Path_20" data-name="Path 20" d="M67.8,72.812a1.24,1.24,0,0,1,1.671,0,1.133,1.133,0,0,1,0,1.607,1.25,1.25,0,0,1-1.671,0,1.064,1.064,0,0,1-.335-.8A1.075,1.075,0,0,1,67.8,72.812Zm.415,1.224a.592.592,0,1,0-.176-.418A.566.566,0,0,0,68.218,74.035Z" transform="translate(-65.598 -72.488)" fill="#f1f1f1"/>
      <path id="Path_21" data-name="Path 21" d="M80,74.857H79.32l-.526-.812v.812h-.548V72.742H79.1a.728.728,0,0,1,.5.173.63.63,0,0,1,.193.5.566.566,0,0,1-.46.58ZM78.851,73.69a.492.492,0,0,0,.057,0,.623.623,0,0,0,.225-.058.2.2,0,0,0,.1-.2.2.2,0,0,0-.1-.193.589.589,0,0,0-.214-.063l-.067,0-.063,0v.523Z" transform="translate(-73.687 -72.679)" fill="#f1f1f1"/>
      <path id="Path_22" data-name="Path 22" d="M86.165,72.812a1.24,1.24,0,0,1,1.671,0,1.133,1.133,0,0,1,0,1.607,1.25,1.25,0,0,1-1.671,0,1.064,1.064,0,0,1-.335-.8A1.075,1.075,0,0,1,86.165,72.812Zm.415,1.224a.592.592,0,1,0-.176-.418A.567.567,0,0,0,86.58,74.035Z" transform="translate(-79.379 -72.488)" fill="#f1f1f1"/>
      <path id="Path_23" data-name="Path 23" d="M96.607,72.743h.548l1.011,1.294V72.743h.548v2.115h-.548l-1.011-1.294v1.294h-.548Z" transform="translate(-87.467 -72.679)" fill="#f1f1f1"/>
      <path id="Path_24" data-name="Path 24" d="M106.762,74.489l-.146.368h-.58l.812-2.115h.6l.8,2.115h-.587l-.136-.368Zm.383-1.09-.231.672h.456Z" transform="translate(-94.544 -72.679)" fill="#f1f1f1"/>
    </g>
  </g>
</svg>
