<svg xmlns="http://www.w3.org/2000/svg" width="179.089" height="91.197" viewBox="0 0 179.089 91.197"><g transform="translate(1.498 -1.669)"><path d="M3.464,4.784C.738,2.065-.677,2.883.319,6.6l20.9,78a9.651,9.651,0,0,0,8.812,6.761H83.264c3.85,0,4.77-2.225,2.044-4.944Z" fill="#16161d"/><path d="M3.464,4.784C.738,2.065-.677,2.883.319,6.6l20.9,78a9.651,9.651,0,0,0,8.812,6.761H83.264c3.85,0,4.77-2.225,2.044-4.944Z" fill="none" stroke="#f1f1f1" stroke-miterlimit="10" stroke-width="3"/><path d="M90.785,86.422c-2.726,2.719-1.806,4.944,2.044,4.944h53.232a9.653,9.653,0,0,0,8.812-6.761l20.9-78c1-3.719-.418-4.537-3.144-1.818Z" fill="#16161d"/><path d="M90.785,86.422c-2.726,2.719-1.806,4.944,2.044,4.944h53.232a9.653,9.653,0,0,0,8.812-6.761l20.9-78c1-3.719-.418-4.537-3.144-1.818Z" fill="none" stroke="#f1f1f1" stroke-miterlimit="10" stroke-width="3"/><path d="M85.053,6.168c1.646-3.48,4.341-3.48,5.987,0l37.314,78.87c1.646,3.48-.156,6.328-4.006,6.328h-72.6c-3.85,0-5.653-2.847-4.006-6.328Z" fill="#16161d"/><path d="M85.053,6.168c1.646-3.48,4.341-3.48,5.987,0l37.314,78.87c1.646,3.48-.156,6.328-4.006,6.328h-72.6c-3.85,0-5.653-2.847-4.006-6.328Z" fill="none" stroke="#f1f1f1" stroke-miterlimit="10" stroke-width="3"/><path d="M66.453,75.627a2.67,2.67,0,0,0-.845-.691A2.2,2.2,0,0,0,64.6,74.7a2.309,2.309,0,0,0-1.665.636,2.145,2.145,0,0,0-.66,1.614,2.211,2.211,0,0,0,2.364,2.364,2.069,2.069,0,0,0,.94-.229,3.306,3.306,0,0,0,.877-.66v2.6l-.159.051-.158.051c-.263.085-.527.157-.795.216a3.843,3.843,0,0,1-.832.089,4.453,4.453,0,0,1-3.228-1.271,4.455,4.455,0,0,1,.012-6.323,4.546,4.546,0,0,1,3.291-1.277,3.731,3.731,0,0,1,.857.108A8.207,8.207,0,0,1,66.452,73v2.63Z" fill="#f1f1f1"/><path d="M68.809,73.785a4.972,4.972,0,0,1,6.7,0,4.54,4.54,0,0,1,0,6.443,5.01,5.01,0,0,1-6.7,0,4.264,4.264,0,0,1-1.341-3.215A4.31,4.31,0,0,1,68.809,73.785Zm1.665,4.9a2.372,2.372,0,1,0-.7-1.677A2.267,2.267,0,0,0,70.474,78.69Z" fill="#f1f1f1"/><path d="M85.285,81.219H82.553l-2.109-3.253v3.253h-2.2V72.742h3.431a2.919,2.919,0,0,1,2.021.693,2.527,2.527,0,0,1,.775,1.988,2.27,2.27,0,0,1-1.843,2.326Zm-4.614-4.676a1.967,1.967,0,0,0,.229-.014,2.5,2.5,0,0,0,.9-.234.806.806,0,0,0,.407-.807.792.792,0,0,0-.388-.775,2.36,2.36,0,0,0-.857-.254c-.094,0-.183,0-.268-.007s-.169-.007-.254-.007v2.1Z" fill="#f1f1f1"/><path d="M87.171,73.785a4.972,4.972,0,0,1,6.7,0,4.54,4.54,0,0,1,0,6.443,5.01,5.01,0,0,1-6.7,0,4.264,4.264,0,0,1-1.341-3.215A4.31,4.31,0,0,1,87.171,73.785Zm1.665,4.9a2.372,2.372,0,1,0-.7-1.677A2.271,2.271,0,0,0,88.836,78.69Z" fill="#f1f1f1"/><path d="M96.607,72.743h2.2l4.054,5.186V72.743h2.2V81.22h-2.2l-4.054-5.185V81.22h-2.2Z" fill="#f1f1f1"/><path d="M108.946,79.744l-.585,1.475h-2.325l3.253-8.477h2.4l3.189,8.477h-2.352l-.546-1.475Zm1.537-4.371-.927,2.694h1.829Z" fill="#f1f1f1"/></g></svg>