<svg id="SH_logo_vertical_ondark" xmlns="http://www.w3.org/2000/svg" width="162.843" height="100.433" viewBox="0 0 162.843 100.433">
  <rect id="Rectangle_2" data-name="Rectangle 2" width="162.843" height="100.433" fill="#161620"/>
  <g id="Group_11" data-name="Group 11" transform="translate(8.495 10.477)">
    <g id="Group_7" data-name="Group 7" transform="translate(0 56.315)">
      <g id="Group_6" data-name="Group 6">
        <path id="Path_12" data-name="Path 12" d="M28.466,198.944a19.094,19.094,0,0,1-5.181-.67c-.86-.35-.86-.635-.86-1.176v-2.9a1.013,1.013,0,0,1,1.08-1.05,4.938,4.938,0,0,1,1.21.38,19.784,19.784,0,0,0,3.306.476c1.845.03,2.735-.826,2.735-1.811.03-3.466-8.4-3.911-8.427-10.3,0-4.3,3.275-6.327,7.981-6.327,1.145,0,5.566.54,5.566,1.75v2.735a.869.869,0,0,1-.955.985,9.522,9.522,0,0,1-1.655-.285,14.2,14.2,0,0,0-2.64-.32c-1.845,0-2.161.765-2.1,1.145-.065.826,1.3,1.621,1.876,2.066,3.371,2.161,6.456,3.816,6.486,8.522C36.893,196.338,33.617,198.944,28.466,198.944Z" transform="translate(-22.33 -175.57)" fill="#fff"/>
        <path id="Path_13" data-name="Path 13" d="M72.466,199.359c-6.931,0-7.506-5.151-7.506-7.631V177.1a.871.871,0,0,1,.921-.86h3.85a.9.9,0,0,1,.89.86v14.757c0,1.24.126,2.576,1.845,2.576,1.75,0,1.906-1.335,1.906-2.576V177.1a.863.863,0,0,1,.89-.86h3.88a.876.876,0,0,1,.86.86v14.628C80,194.208,79.4,199.359,72.466,199.359Z" transform="translate(-48.742 -175.985)" fill="#fff"/>
        <path id="Path_14" data-name="Path 14" d="M117.776,191.027c-.8,0-1.176.285-1.176.8v6.422a.879.879,0,0,1-.86.86h-3.88a.869.869,0,0,1-.921-.86V177.1a.871.871,0,0,1,.921-.86h5.531c5.375,0,8.331,2.226,8.331,7.506C125.727,188.482,122.642,191.027,117.776,191.027Zm-.129-10.176c-.826,0-1.05.35-1.05.86v3.975c0,.54.285.765,1.08.765,1.75,0,2.2-1.08,2.2-2.735C119.876,182.091,119.271,180.851,117.647,180.851Z" transform="translate(-77.23 -175.985)" fill="#fff"/>
        <path id="Path_15" data-name="Path 15" d="M166.528,199.1H155.081a.869.869,0,0,1-.921-.86V177.1a.871.871,0,0,1,.921-.86h11a.9.9,0,0,1,.89.86v3.18a.876.876,0,0,1-.89.826H160.3a.481.481,0,0,0-.476.415v2.545a.517.517,0,0,0,.476.51h5.216a.83.83,0,0,1,.86.826v3.15a.828.828,0,0,1-.86.826h-5.28a.451.451,0,0,0-.415.445v3.941a.486.486,0,0,0,.476.476h6.361a.719.719,0,0,1,.73.73v3.275A.851.851,0,0,1,166.528,199.1Z" transform="translate(-104.008 -175.985)" fill="#fff"/>
        <path id="Path_16" data-name="Path 16" d="M207.693,199.1h-3.561a1.463,1.463,0,0,1-1.59-.89l-3.561-7.856c-.065-.126-.54-.445-.54.221v7.662a.889.889,0,0,1-.921.86H193.7a.869.869,0,0,1-.921-.86V177.1a.871.871,0,0,1,.921-.86h6.327c5.436,0,7.472,2.99,7.472,6.581,0,3.15-1.461,4.961-2.861,5.691-.126.065-.35.221,0,.985l3.785,7.917C208.8,198.183,208.739,199.1,207.693,199.1Zm-8.271-18.283c-.985,0-.985.221-.985.826v3.116c0,.51,0,.826.985.826a2.383,2.383,0,1,0,0-4.767Z" transform="translate(-127.936 -175.985)" fill="#fff"/>
        <path id="Path_17" data-name="Path 17" d="M251.9,199.1h-3.816a.869.869,0,0,1-.921-.86v-8.586a.421.421,0,0,0-.415-.415H243.8a.409.409,0,0,0-.38.38v8.617a.906.906,0,0,1-.89.86h-3.846a.869.869,0,0,1-.921-.86V177.1a.871.871,0,0,1,.921-.86h3.846a.9.9,0,0,1,.89.86v6.391c0,.255.126.54.38.54h2.956c.285,0,.415-.32.415-.6V177.1a.871.871,0,0,1,.921-.86H251.9a.889.889,0,0,1,.921.86v21.148A.889.889,0,0,1,251.9,199.1Z" transform="translate(-155.804 -175.985)" fill="#fff"/>
        <path id="Path_18" data-name="Path 18" d="M296.6,199.1H285.151a.869.869,0,0,1-.921-.86V177.1a.871.871,0,0,1,.921-.86h11a.9.9,0,0,1,.89.86v3.18a.876.876,0,0,1-.89.826h-5.786a.481.481,0,0,0-.476.415v2.545a.517.517,0,0,0,.476.51h5.216a.83.83,0,0,1,.86.826v3.15a.828.828,0,0,1-.86.826H290.3a.451.451,0,0,0-.415.445v3.941a.486.486,0,0,0,.476.476h6.361a.719.719,0,0,1,.73.73v3.275A.853.853,0,0,1,296.6,199.1Z" transform="translate(-184.596 -175.985)" fill="#fff"/>
        <path id="Path_19" data-name="Path 19" d="M337.759,199.1H334.2a1.463,1.463,0,0,1-1.59-.89l-3.561-7.856c-.065-.126-.54-.445-.54.221v7.662a.889.889,0,0,1-.921.86h-3.816a.869.869,0,0,1-.921-.86V177.1a.871.871,0,0,1,.921-.86H330.1c5.436,0,7.472,2.99,7.472,6.581,0,3.15-1.461,4.961-2.861,5.691-.126.065-.35.221,0,.985l3.785,7.917C338.874,198.183,338.809,199.1,337.759,199.1Zm-8.267-18.283c-.985,0-.985.221-.985.826v3.116c0,.51,0,.826.985.826a2.383,2.383,0,1,0,0-4.767Z" transform="translate(-208.523 -175.985)" fill="#fff"/>
        <path id="Path_20" data-name="Path 20" d="M381.91,192.457c-.476,4.006-2.83,6.486-7.441,6.486s-6.966-2.48-7.441-6.521a16.577,16.577,0,0,1-.065-2.161v-6.011a11.483,11.483,0,0,1,.89-5.056c.955-1.971,2.861-3.626,6.616-3.626,7.091,0,7.536,5.725,7.536,8.681v6.011A20.8,20.8,0,0,1,381.91,192.457Zm-5.566-8.077c0-1.811.16-3.945-1.876-3.945s-1.875,2.13-1.875,3.945v5.627c0,1.845-.16,4.006,1.91,4.006,2.035,0,1.845-2.161,1.845-3.975v-5.657Z" transform="translate(-235.851 -175.57)" fill="#fff"/>
      </g>
    </g>
    <g id="Group_10" data-name="Group 10" transform="translate(37.713)">
      <g id="Group_8" data-name="Group 8">
        <path id="Path_21" data-name="Path 21" d="M133.738,62.083l-6.46,5.809a4.646,4.646,0,0,0,3.074,8.046,4.74,4.74,0,0,0,2.355-.647.837.837,0,0,0,.107-.068l9.933-6.977,15.179,4.672a4.308,4.308,0,0,0,1.252.19,4.226,4.226,0,0,0,4.2-4.219V59.207a1.807,1.807,0,0,1,.43-1.168l6.718-7.879a16.037,16.037,0,0,1,3.808-3.264L187.9,38.542a.72.72,0,0,0,.088-.061,4.015,4.015,0,0,0-3.295-7.148l-8.43,2.37a7.912,7.912,0,0,0-15.628,1.75c0,.148.015.293.023.441l-7.924.753c-.97-.046-7.179-.152-15.951,3.8-8.164,3.679-12.843-.312-13.037-.483a1.384,1.384,0,0,0-1.51-.205,1.365,1.365,0,0,0-.768,1.312,35.262,35.262,0,0,0,2.184,9.484C125.848,56.232,129.306,60.169,133.738,62.083Zm39.995-26.63a5.178,5.178,0,1,1-5.178-5.178A5.183,5.183,0,0,1,173.733,35.453ZM129.124,69.912l12.17-10.941,3.641-3.275h0l10.857-9.758a1.368,1.368,0,1,0-1.83-2.035l-8.107,7.289a10.049,10.049,0,0,1,.59-3.123l1.9-5.235a5.962,5.962,0,0,1,4.6-3.454s.008,0,.011,0h0l8.328-.787a7.905,7.905,0,0,0,15.1-2.07l8.993-2.53a1.2,1.2,0,0,1,1.4.723,1.218,1.218,0,0,1-.369,1.537L172.9,44.572a18.771,18.771,0,0,0-4.455,3.82l-6.722,7.882a4.538,4.538,0,0,0-1.084,2.945V68.9a1.451,1.451,0,0,1-.6,1.187,1.471,1.471,0,0,1-1.312.224l-13.148-4.048L147.3,65.05h3.652a4.6,4.6,0,0,0,4.6-4.721l-.107-1.784a.429.429,0,0,0-.011-.068,1.464,1.464,0,0,0-.03-.186.447.447,0,0,0-.027-.076,1.375,1.375,0,0,0-.065-.175.856.856,0,0,0-.046-.08c-.023-.042-.042-.084-.068-.126-.008-.011-.015-.015-.023-.027s-.03-.034-.046-.053A1.362,1.362,0,0,0,153.3,57.5l-7.186,5.048a0,0,0,0,0,0,0l-14.814,10.4a1.881,1.881,0,0,1-2.168-3.036Zm-2.887-20.281a32.924,32.924,0,0,1-1.666-6.03c2.663,1.16,7.24,2.089,13.342-.662a42.773,42.773,0,0,1,8.974-2.956,8.913,8.913,0,0,0-1.065,1.773.888.888,0,0,0-.034.091l-1.917,5.284a12.78,12.78,0,0,0-.768,4.531l.023,1.978-4.1,3.686-3.005,2.7C131.673,58.652,128.382,55.155,126.236,49.632Z" transform="translate(-121.463 -27.54)" fill="#fff"/>
      </g>
      <g id="Group_9" data-name="Group 9" transform="translate(3.107 12.444)">
        <path id="Path_22" data-name="Path 22" d="M141.081,80.295l3.005-2.7,4.1-3.686-.023-1.978a12.766,12.766,0,0,1,.768-4.531l1.917-5.284.034-.091a8.567,8.567,0,0,1,1.065-1.773,42.774,42.774,0,0,0-8.974,2.956c-6.1,2.751-10.682,1.822-13.342.662A33.231,33.231,0,0,0,131.3,69.9C133.442,75.422,136.733,78.918,141.081,80.295Z" transform="translate(-129.63 -60.25)" fill="#ee306f"/>
      </g>
    </g>
  </g>
</svg>
