<svg xmlns="http://www.w3.org/2000/svg" width="179.717" height="28.35" viewBox="0 0 179.717 28.35">
  <g id="Brand_Logo" data-name="Brand/Logo" transform="translate(-1.283 -0.887)">
    <g id="Brand_Wordmark" data-name="Brand/Wordmark" transform="translate(40.938 1)">
      <path id="Wordmark" d="M41.364,28.125H35.91V6.953h5.454V8.2a5.425,5.425,0,0,1,3.857-1.6,6.386,6.386,0,0,1,5.185,2.4,9.254,9.254,0,0,1,1.8,5.767,9.248,9.248,0,0,1-1.8,5.753,6.381,6.381,0,0,1-5.185,2.416,5.422,5.422,0,0,1-3.856-1.6v6.778Zm2.4-16.9a2.691,2.691,0,0,0-2.4,1.46v4.137a2.651,2.651,0,0,0,2.4,1.46,2.739,2.739,0,0,0,2.2-1,3.906,3.906,0,0,0,.79-2.511C46.749,12.654,45.548,11.229,43.762,11.229Zm88.311,11.715a7.845,7.845,0,0,1-5.767-2.273,8.217,8.217,0,0,1-2.224-5.9,8.218,8.218,0,0,1,2.224-5.9,8.468,8.468,0,0,1,11.546,0,8.232,8.232,0,0,1,2.21,5.9,8.231,8.231,0,0,1-2.21,5.9A7.848,7.848,0,0,1,132.072,22.945Zm0-11.855a2.248,2.248,0,0,0-1.928,1.034,4.727,4.727,0,0,0-.677,2.651c0,2.252,1,3.65,2.606,3.65,1.629,0,2.641-1.4,2.641-3.65C134.713,12.5,133.7,11.09,132.072,11.09ZM104.952,22.945c-4.759,0-7.956-3.283-7.956-8.169a8.361,8.361,0,0,1,2.232-5.9,7.733,7.733,0,0,1,5.619-2.273c4.628,0,7.5,3.011,7.5,7.857v1.356H102.242c.172,1.86,1.134,2.885,2.71,2.885a2.168,2.168,0,0,0,2.292-1.564h5.037C111.723,20.775,108.983,22.945,104.952,22.945Zm-.1-12.1a2.515,2.515,0,0,0-2.5,2.26h4.724A2.18,2.18,0,0,0,104.847,10.847Zm-44.225,12.1c-4.758,0-7.955-3.283-7.955-8.169a8.362,8.362,0,0,1,2.232-5.9,7.732,7.732,0,0,1,5.619-2.273c4.629,0,7.5,3.011,7.5,7.857v1.356H57.912c.172,1.86,1.134,2.885,2.71,2.885a2.168,2.168,0,0,0,2.292-1.564h5.037C67.393,20.775,64.653,22.945,60.622,22.945Zm-.1-12.1a2.515,2.515,0,0,0-2.5,2.26h4.724A2.18,2.18,0,0,0,60.518,10.847Zm-36.153,12.1c-3.386,0-5.489-2.2-5.489-5.736V6.953H24.3v8.969c0,1.436.734,2.259,2.014,2.259a2.276,2.276,0,0,0,2.224-1.738V6.953h5.454V22.6H28.534V21.242A5.574,5.574,0,0,1,24.365,22.945Zm-15.02,0a10.786,10.786,0,0,1-6.3-1.76A7.545,7.545,0,0,1,0,16.27H5.8a3.245,3.245,0,0,0,3.44,2.19c1.778,0,2.883-.786,2.883-2.051,0-.941-.565-1.438-2.015-1.773l-4.1-.869C2.317,12.945.521,11,.521,7.822A6.318,6.318,0,0,1,2.849,2.8,9.184,9.184,0,0,1,8.72.9,9.637,9.637,0,0,1,14.829,2.79a7.327,7.327,0,0,1,2.645,4.65H12.02A3.164,3.164,0,0,0,8.754,5.354c-1.65,0-2.675.719-2.675,1.877,0,.885.58,1.442,1.772,1.7l4.168.974a8.292,8.292,0,0,1,4.2,2.164,5.6,5.6,0,0,1,1.464,3.989,6.221,6.221,0,0,1-2.423,5.084A9.626,9.626,0,0,1,9.345,22.945Zm76.9-.346H80.795V0H86.25V8.309a5.658,5.658,0,0,1,4.2-1.7c3.407,0,5.524,2.2,5.524,5.737V22.6h-5.42V13.663a1.968,1.968,0,0,0-2.049-2.225,2.226,2.226,0,0,0-2.258,1.7V22.6Zm32.644,0H113.44V6.953h5.454v1.39a4.272,4.272,0,0,1,3.544-1.739,3.408,3.408,0,0,1,1.493.278v5.25a4.689,4.689,0,0,0-2.258-.487c-1.485,0-2.5.646-2.779,1.773V22.6Zm-44.329,0H69.111V6.953h5.454v1.39a4.269,4.269,0,0,1,3.543-1.739,3.41,3.41,0,0,1,1.494.278v5.25a4.694,4.694,0,0,0-2.258-.487c-1.485,0-2.5.646-2.779,1.773V22.6Z" fill="#fff"/>
    </g>
    <g id="Icon_Shield_Fill" data-name="Icon/Shield Fill" transform="translate(0.75 0.813)">
      <path id="Shield_Fill" data-name="Shield Fill" d="M17.719,28.35a1.247,1.247,0,0,1-.889-.371L.375,11.477A1.306,1.306,0,0,1,.152,9.953L5.1.672A1.262,1.262,0,0,1,6.214,0H29.223a1.262,1.262,0,0,1,1.112.672l4.95,9.281a1.306,1.306,0,0,1-.223,1.524l-16.455,16.5A1.247,1.247,0,0,1,17.719,28.35Zm-.534-13.125h0a.368.368,0,0,1,.364.369.392.392,0,0,1,0,.046L16.69,22.82a.369.369,0,0,0,.319.411l.044,0a.36.36,0,0,0,.3-.166l7.432-11.433a.374.374,0,0,0-.1-.513.355.355,0,0,0-.2-.06l-5.889.014a.369.369,0,0,1-.365-.369.385.385,0,0,1,0-.056L19.284,3.54a.371.371,0,0,0-.307-.421.361.361,0,0,0-.352.153L10.713,14.664a.374.374,0,0,0,.088.516.358.358,0,0,0,.211.068Z" transform="translate(0.531 0.075)" fill="#2a9cff"/>
    </g>
  </g>
</svg>
