<svg viewBox="0 0 34 34" fill="none" xmlns="http://www.w3.org/2000/svg">
<path fill-rule="evenodd" clip-rule="evenodd" d="M4 0C1.79086 0 0 1.79086 0 4V30C0 32.2091 1.79086 34 4 34H30C32.2091 34 34 32.2091 34 30V4C34 1.79086 32.2091 0 30 0H4ZM11.6341 22.8648C11.2114 22.8648 11 22.6534 11 22.2307V20.5926C11 20.2931 11.1145 20.0377 11.3435 19.8264L17.2883 13.8287C18.7326 12.3491 19.4548 11.0633 19.4548 9.97121C19.4548 9.19619 19.2434 8.59731 18.8207 8.17456C18.4156 7.75182 17.8607 7.54045 17.1562 7.54045C15.7118 7.54045 14.8927 8.17456 14.699 9.44279C14.6285 9.8303 14.4083 10.0241 14.0384 10.0241H11.6341C11.2114 10.0241 11.0176 9.81268 11.0528 9.38994C11.1409 8.19218 11.4844 7.17936 12.0833 6.3515C12.6998 5.52363 13.4308 4.92475 14.2762 4.55485C15.1393 4.18495 16.0729 4 17.0769 4C17.8519 4 18.5917 4.1233 19.2963 4.3699C20.0009 4.6165 20.635 4.97759 21.1986 5.45317C21.7799 5.91114 22.2379 6.53644 22.5725 7.32908C22.9248 8.10411 23.1009 8.98482 23.1009 9.97121C23.1009 11.8912 22.1234 13.8111 20.1682 15.7311L16.4428 19.3772H22.7575C23.1802 19.3772 23.3916 19.5798 23.3916 19.9849V22.2307C23.3916 22.6534 23.1802 22.8648 22.7575 22.8648H11.6341ZM11.5284 25.7191C11.2366 25.7191 11 25.9557 11 26.2475V28.6783C11 28.9701 11.2366 29.2067 11.5284 29.2067H22.8684C23.1603 29.2067 23.3969 28.9701 23.3969 28.6783V26.2475C23.3969 25.9557 23.1603 25.7191 22.8684 25.7191H11.5284Z" fill="url(#paint0_linear)"/>
<defs>
<linearGradient id="paint0_linear" x1="18.8725" y1="-14.0786" x2="-9.28474" y2="16.1765" gradientUnits="userSpaceOnUse">
<stop stop-color="#32C5FF"/>
<stop offset="0.533966" stop-color="#B620E0"/>
<stop offset="1" stop-color="#FFAA12"/>
</linearGradient>
</defs>
</svg>
