<svg id="icon1_ondark" xmlns="http://www.w3.org/2000/svg" width="27" height="30" viewBox="0 0 27 30">
  <rect id="Rectangle_1" data-name="Rectangle 1" width="27" height="30" fill="none"/>
  <g id="Group_3" data-name="Group 3" transform="translate(1.783 1.86)">
    <path id="Path_1" data-name="Path 1" d="M16.806,32.221A10.994,10.994,0,1,1,30.881,15.89q.466-.052.957-.084a11.816,11.816,0,1,0-15.03,17.346Z" transform="translate(-10.38 -10.83)" fill="#fff"/>
    <g id="Group_2" data-name="Group 2" transform="translate(3.969 2.195)">
      <path id="Path_2" data-name="Path 2" d="M52.558,31.364a1.661,1.661,0,0,1-.057-1.555l.91-1.881a.207.207,0,0,0-.186-.3h-.563a22.408,22.408,0,0,0-9.238,1.944c-.043,0-.086-.005-.129-.007a3.717,3.717,0,0,0,.879-2.422,3.233,3.233,0,1,0-6.436,0,3.717,3.717,0,0,0,.879,2.422,2.52,2.52,0,0,0-1.874.943L34.1,33.681a2.621,2.621,0,0,0,.256,3.636l2.889,2.608v6.6a1.368,1.368,0,0,0,.453,1.046,1.44,1.44,0,0,0,.967.354h.354a1.387,1.387,0,0,0,1.345-1.1l.6-3.279.6,3.3A1.381,1.381,0,0,0,42.9,47.93h.354a1.431,1.431,0,0,0,.962-.349,1.358,1.358,0,0,0,.459-1.041V39.927L44.7,39.9c.929,1.017,2.762,2.817,4.1,2.817a1.287,1.287,0,0,0,.392-.058c.4-.127.892-.507.986-1.58.218-2.47,1.3-2.831,1.654-2.949a1.4,1.4,0,0,0,.914-1.082L52.8,36.9a.309.309,0,0,0-.187-.4l-.156-.055c-.036-.022-.211-.156-.129-.606a3.817,3.817,0,0,1,.838-1.531l.108-.119.029-.158a2.876,2.876,0,0,0-.337-1.955Zm-11.6-6.632a2.277,2.277,0,0,1,2.1,2.417,2.118,2.118,0,1,1-4.195,0A2.277,2.277,0,0,1,40.958,24.732ZM46.81,36.486l-2.137,1.929V35.674a.56.56,0,0,0-1.12,0V46.549a.252.252,0,0,1-.251.258h-.4a.248.248,0,0,1-.242-.177l-1.146-6.316a.56.56,0,0,0-1.1,0l-1.142,6.3a.25.25,0,0,1-.246.2h-.4a.252.252,0,0,1-.179-.076.26.26,0,0,1-.072-.192V35.674a.56.56,0,1,0-1.12,0v2.742l-2.144-1.929a1.5,1.5,0,0,1-.148-2.085l2.654-3.178a1.422,1.422,0,0,1,1.117-.538h4.458a1.428,1.428,0,0,1,1.123.546L46.956,34.4A1.5,1.5,0,0,1,46.81,36.486Z" transform="translate(-33.485 -23.61)" fill="#fff"/>
      <g id="Group_1" data-name="Group 1" transform="translate(11.372 5.164)">
        <path id="Path_3" data-name="Path 3" d="M107.057,58.586a4.742,4.742,0,0,0-1,1.946,1.764,1.764,0,0,0,.268,1.421l-.015.007c-1.415.472-2.228,1.788-2.415,3.913-.034.386-.132.587-.213.613-.469.151-1.955-.959-3.315-2.443l2.027-1.829a2.621,2.621,0,0,0,.256-3.636l-2.638-3.157a2.484,2.484,0,0,0-.325-.333A22.116,22.116,0,0,1,106.6,53.67l-.266.55a2.776,2.776,0,0,0,.094,2.6l.412.716A1.766,1.766,0,0,1,107.057,58.586Z" transform="translate(-99.69 -53.67)" fill="#ee306f"/>
      </g>
    </g>
  </g>
</svg>
