<svg id="icon1_ondark" xmlns="http://www.w3.org/2000/svg" width="25" height="27" viewBox="0 0 25 27">
  <rect id="Rectangle_1" data-name="Rectangle 1" width="25" height="27" fill="#161620"/>
  <g id="Group_3" data-name="Group 3" transform="translate(1.591 1.66)">
    <path id="Path_1" data-name="Path 1" d="M16.113,29.913A9.808,9.808,0,1,1,28.67,15.345q.416-.046.854-.075A10.541,10.541,0,1,0,16.114,30.744Z" transform="translate(-10.38 -10.83)" fill="#fff"/>
    <g id="Group_2" data-name="Group 2" transform="translate(3.541 1.958)">
      <path id="Path_2" data-name="Path 2" d="M50.5,30.527a1.482,1.482,0,0,1-.051-1.387l.812-1.678A.185.185,0,0,0,51.1,27.2h-.5a19.991,19.991,0,0,0-8.241,1.735c-.038,0-.077,0-.115-.006a3.316,3.316,0,0,0,.785-2.161,2.884,2.884,0,1,0-5.742,0,3.316,3.316,0,0,0,.785,2.161,2.248,2.248,0,0,0-1.672.841l-2.36,2.827a2.338,2.338,0,0,0,.228,3.244l2.578,2.326v5.891a1.221,1.221,0,0,0,.4.933,1.284,1.284,0,0,0,.863.316h.316a1.237,1.237,0,0,0,1.2-.979l.532-2.925.535,2.944a1.232,1.232,0,0,0,1.2.962H42.2A1.276,1.276,0,0,0,43.057,45a1.211,1.211,0,0,0,.409-.929v-5.9l.026-.025c.829.907,2.464,2.513,3.658,2.513A1.148,1.148,0,0,0,47.5,40.6c.354-.113.8-.452.88-1.41.195-2.2,1.159-2.525,1.476-2.631a1.246,1.246,0,0,0,.815-.965l.048-.127a.276.276,0,0,0-.167-.357l-.139-.049c-.032-.02-.188-.139-.115-.541a3.4,3.4,0,0,1,.748-1.365l.1-.106.026-.141a2.566,2.566,0,0,0-.3-1.744ZM40.152,24.611a2.178,2.178,0,1,1-1.871,2.156A2.031,2.031,0,0,1,40.152,24.611ZM45.373,35.1l-1.906,1.721V34.372a.5.5,0,1,0-1,0v9.7a.225.225,0,0,1-.224.23h-.359a.221.221,0,0,1-.216-.158l-1.022-5.635a.5.5,0,0,0-.984,0l-1.019,5.618a.223.223,0,0,1-.219.176h-.359a.225.225,0,0,1-.159-.067.232.232,0,0,1-.064-.172V34.372a.5.5,0,1,0-1,0v2.446L34.931,35.1a1.341,1.341,0,0,1-.132-1.86L37.167,30.4a1.269,1.269,0,0,1,1-.48h3.977a1.274,1.274,0,0,1,1,.487L45.5,33.235A1.341,1.341,0,0,1,45.373,35.1Z" transform="translate(-33.485 -23.61)" fill="#fff"/>
      <g id="Group_1" data-name="Group 1" transform="translate(10.145 4.606)">
        <path id="Path_3" data-name="Path 3" d="M106.263,58.056a4.231,4.231,0,0,0-.889,1.736,1.574,1.574,0,0,0,.239,1.267l-.014.006c-1.263.421-1.988,1.6-2.155,3.491-.031.345-.118.524-.19.547-.418.135-1.744-.855-2.958-2.179l1.808-1.632a2.338,2.338,0,0,0,.228-3.244L99.98,55.232a2.215,2.215,0,0,0-.29-.3,19.73,19.73,0,0,1,6.16-1.264l-.238.49a2.477,2.477,0,0,0,.084,2.322l.368.639A1.576,1.576,0,0,1,106.263,58.056Z" transform="translate(-99.69 -53.67)" fill="#ee306f"/>
      </g>
    </g>
  </g>
</svg>
