<svg id="SH_logo_vertical_ondark" xmlns="http://www.w3.org/2000/svg" width="145.99" height="90.039" viewBox="0 0 145.99 90.039">
  <rect id="Rectangle_1" data-name="Rectangle 1" width="145.99" height="90.039" fill="#161620"/>
  <g id="Group_6" data-name="Group 6" transform="translate(7.616 9.393)">
    <g id="Group_2" data-name="Group 2" transform="translate(0 50.487)">
      <g id="Group_1" data-name="Group 1">
        <path id="Path_1" data-name="Path 1" d="M27.831,196.525a17.12,17.12,0,0,1-4.645-.6c-.771-.314-.771-.57-.771-1.054v-2.6a.909.909,0,0,1,.969-.941,4.428,4.428,0,0,1,1.085.341,17.733,17.733,0,0,0,2.964.426c1.654.027,2.452-.74,2.452-1.623.027-3.107-7.527-3.506-7.554-9.236,0-3.851,2.937-5.672,7.155-5.672,1.027,0,4.99.484,4.99,1.569v2.452a.779.779,0,0,1-.856.883,8.537,8.537,0,0,1-1.484-.256,12.728,12.728,0,0,0-2.367-.286c-1.654,0-1.937.686-1.883,1.027-.058.74,1.17,1.453,1.681,1.852,3.022,1.937,5.788,3.421,5.815,7.64C35.386,194.188,32.449,196.525,27.831,196.525Z" transform="translate(-22.33 -175.57)" fill="#fff"/>
        <path id="Path_2" data-name="Path 2" d="M71.689,196.966c-6.214,0-6.729-4.618-6.729-6.842V177.011a.781.781,0,0,1,.825-.771h3.452a.81.81,0,0,1,.8.771v13.23c0,1.112.113,2.309,1.654,2.309,1.569,0,1.709-1.2,1.709-2.309v-13.23a.774.774,0,0,1,.8-.771h3.479a.786.786,0,0,1,.771.771v13.114C78.445,192.348,77.9,196.966,71.689,196.966Z" transform="translate(-50.421 -176.012)" fill="#fff"/>
        <path id="Path_3" data-name="Path 3" d="M117.069,189.5c-.713,0-1.054.256-1.054.713v5.757a.788.788,0,0,1-.771.771h-3.479a.779.779,0,0,1-.825-.771V177.011a.781.781,0,0,1,.825-.771h4.959c4.819,0,7.469,2,7.469,6.729C124.2,187.215,121.431,189.5,117.069,189.5Zm-.116-9.123c-.74,0-.941.314-.941.771v3.564c0,.484.256.686.969.686,1.569,0,1.968-.969,1.968-2.452C118.951,181.485,118.409,180.374,116.953,180.374Z" transform="translate(-80.719 -176.012)" fill="#fff"/>
        <path id="Path_4" data-name="Path 4" d="M165.248,196.738H154.985a.779.779,0,0,1-.825-.771V177.011a.781.781,0,0,1,.825-.771h9.863a.81.81,0,0,1,.8.771v2.851a.786.786,0,0,1-.8.74h-5.187a.431.431,0,0,0-.426.372v2.282a.464.464,0,0,0,.426.457h4.676a.744.744,0,0,1,.771.74v2.824a.742.742,0,0,1-.771.74H159.6a.4.4,0,0,0-.372.4v3.533a.436.436,0,0,0,.426.426h5.7a.644.644,0,0,1,.655.655v2.937A.763.763,0,0,1,165.248,196.738Z" transform="translate(-109.198 -176.012)" fill="#fff"/>
        <path id="Path_5" data-name="Path 5" d="M206.149,196.738h-3.192a1.312,1.312,0,0,1-1.426-.8l-3.192-7.043c-.058-.113-.484-.4-.484.2v6.869a.8.8,0,0,1-.825.771h-3.424a.779.779,0,0,1-.825-.771V177.011a.781.781,0,0,1,.825-.771h5.672c4.874,0,6.7,2.681,6.7,5.9,0,2.824-1.31,4.447-2.565,5.1-.113.058-.314.2,0,.883l3.394,7.1C207.145,195.912,207.087,196.738,206.149,196.738Zm-7.415-16.391c-.883,0-.883.2-.883.74v2.793c0,.457,0,.74.883.74a2.137,2.137,0,1,0,0-4.273Z" transform="translate(-134.647 -176.012)" fill="#fff"/>
        <path id="Path_6" data-name="Path 6" d="M250.441,196.738H247.02a.779.779,0,0,1-.825-.771v-7.7a.377.377,0,0,0-.372-.372h-2.65a.367.367,0,0,0-.341.341v7.725a.812.812,0,0,1-.8.771h-3.448a.779.779,0,0,1-.825-.771V177.011a.781.781,0,0,1,.825-.771h3.448a.81.81,0,0,1,.8.771v5.73c0,.229.113.484.341.484h2.65c.256,0,.372-.286.372-.542v-5.672a.781.781,0,0,1,.825-.771h3.421a.8.8,0,0,1,.825.771V195.97A.8.8,0,0,1,250.441,196.738Z" transform="translate(-164.286 -176.012)" fill="#fff"/>
        <path id="Path_7" data-name="Path 7" d="M295.318,196.738H285.055a.779.779,0,0,1-.825-.771V177.011a.781.781,0,0,1,.825-.771h9.863a.81.81,0,0,1,.8.771v2.851a.786.786,0,0,1-.8.74h-5.188a.431.431,0,0,0-.426.372v2.282a.464.464,0,0,0,.426.457h4.676a.744.744,0,0,1,.771.74v2.824a.742.742,0,0,1-.771.74h-4.734a.4.4,0,0,0-.372.4v3.533a.436.436,0,0,0,.426.426h5.7a.644.644,0,0,1,.655.655v2.937A.765.765,0,0,1,295.318,196.738Z" transform="translate(-194.907 -176.012)" fill="#fff"/>
        <path id="Path_8" data-name="Path 8" d="M336.216,196.738h-3.192c-.941,0-1.224-.372-1.426-.8l-3.192-7.043c-.058-.113-.484-.4-.484.2v6.869a.8.8,0,0,1-.825.771h-3.421a.779.779,0,0,1-.825-.771V177.011a.781.781,0,0,1,.825-.771h5.672c4.874,0,6.7,2.681,6.7,5.9,0,2.824-1.31,4.447-2.565,5.1-.113.058-.314.2,0,.883l3.394,7.1C337.215,195.912,337.157,196.738,336.216,196.738ZM328.8,180.346c-.883,0-.883.2-.883.74v2.793c0,.457,0,.74.883.74a2.137,2.137,0,1,0,0-4.273Z" transform="translate(-220.355 -176.012)" fill="#fff"/>
        <path id="Path_9" data-name="Path 9" d="M380.362,190.71c-.426,3.591-2.537,5.815-6.671,5.815s-6.245-2.224-6.671-5.846a14.87,14.87,0,0,1-.058-1.937v-5.389a10.294,10.294,0,0,1,.8-4.533c.856-1.767,2.565-3.25,5.931-3.25,6.357,0,6.756,5.133,6.756,7.783v5.389A18.643,18.643,0,0,1,380.362,190.71Zm-4.99-7.241c0-1.623.143-3.537-1.681-3.537s-1.681,1.91-1.681,3.537v5.044c0,1.654-.143,3.591,1.712,3.591,1.825,0,1.654-1.937,1.654-3.564v-5.072Z" transform="translate(-249.42 -175.57)" fill="#fff"/>
      </g>
    </g>
    <g id="Group_5" data-name="Group 5" transform="translate(33.81)">
      <g id="Group_3" data-name="Group 3">
        <path id="Path_10" data-name="Path 10" d="M132.468,58.508l-5.791,5.208a4.165,4.165,0,0,0,2.756,7.213,4.25,4.25,0,0,0,2.111-.58.753.753,0,0,0,.1-.061l8.905-6.255,13.608,4.188a3.861,3.861,0,0,0,1.122.171,3.789,3.789,0,0,0,3.769-3.782V55.93a1.62,1.62,0,0,1,.385-1.047l6.023-7.063a14.377,14.377,0,0,1,3.414-2.926l12.159-7.49a.643.643,0,0,0,.078-.055,3.6,3.6,0,0,0-2.954-6.408l-7.558,2.125a7.093,7.093,0,0,0-14.011,1.569c0,.133.014.263.02.4l-7.1.675c-.87-.041-6.436-.136-14.3,3.407-7.319,3.3-11.514-.28-11.688-.433a1.24,1.24,0,0,0-1.354-.184,1.224,1.224,0,0,0-.689,1.177,31.612,31.612,0,0,0,1.958,8.5C125.394,53.263,128.495,56.793,132.468,58.508Zm35.855-23.874a4.642,4.642,0,1,1-4.642-4.642A4.647,4.647,0,0,1,168.323,34.634ZM128.331,65.527l10.91-9.809,3.264-2.937h0l9.734-8.748a1.227,1.227,0,0,0-1.641-1.825l-7.268,6.535a9.009,9.009,0,0,1,.529-2.8l1.7-4.693a5.345,5.345,0,0,1,4.123-3.1s.007,0,.01,0h0l7.466-.706A7.087,7.087,0,0,0,170.7,35.589l8.063-2.268a1.078,1.078,0,0,1,1.255.648,1.092,1.092,0,0,1-.331,1.378l-12.114,7.462a16.83,16.83,0,0,0-3.994,3.424L157.553,53.3a4.068,4.068,0,0,0-.972,2.64v8.68a1.3,1.3,0,0,1-.539,1.064,1.319,1.319,0,0,1-1.177.2l-11.787-3.629,1.552-1.088H147.9a4.124,4.124,0,0,0,4.123-4.233l-.1-1.6a.384.384,0,0,0-.01-.061,1.311,1.311,0,0,0-.027-.167.4.4,0,0,0-.024-.068,1.232,1.232,0,0,0-.058-.157.764.764,0,0,0-.041-.072c-.02-.038-.038-.075-.061-.113-.007-.01-.014-.014-.02-.024s-.027-.031-.041-.048A1.221,1.221,0,0,0,150,54.4l-6.443,4.526a0,0,0,0,0,0,0l-13.281,9.321a1.686,1.686,0,0,1-1.944-2.722Zm-2.589-18.182a29.516,29.516,0,0,1-1.494-5.406c2.387,1.04,6.49,1.872,11.961-.593a38.346,38.346,0,0,1,8.046-2.65,7.991,7.991,0,0,0-.955,1.589.8.8,0,0,0-.031.082L141.55,45.1a11.457,11.457,0,0,0-.689,4.062l.02,1.773-3.673,3.3-2.694,2.422C130.616,55.432,127.666,52.3,125.742,47.345Z" transform="translate(-121.463 -27.54)" fill="#fff"/>
      </g>
      <g id="Group_4" data-name="Group 4" transform="translate(2.785 11.156)">
        <path id="Path_11" data-name="Path 11" d="M139.9,78.22,142.59,75.8l3.673-3.3-.02-1.774a11.444,11.444,0,0,1,.689-4.062l1.719-4.737.031-.082a7.681,7.681,0,0,1,.955-1.589,38.345,38.345,0,0,0-8.046,2.65c-5.471,2.466-9.577,1.634-11.961.593a29.793,29.793,0,0,0,1.494,5.406C133.047,73.851,136,76.986,139.9,78.22Z" transform="translate(-129.63 -60.25)" fill="#ee306f"/>
      </g>
    </g>
  </g>
</svg>
