<svg viewBox="0 0 296 35" fill="none" xmlns="http://www.w3.org/2000/svg">
<path d="M214.26 10.986L210.126 25H206.746L201 6.54H204.562L208.436 20.554H208.488L212.596 6.54H216.054L220.162 20.554H220.214L224.114 6.54H227.572L221.826 25H218.446L214.312 10.986H214.26Z" fill="#787878"/>
<path d="M236.703 18.656L233.115 19.202C231.434 19.462 230.593 20.1033 230.593 21.126C230.593 22.3047 231.39 22.894 232.985 22.894C234.181 22.894 235.1 22.5733 235.741 21.932C236.382 21.2907 236.703 20.4847 236.703 19.514V18.656ZM232.361 25.312C230.766 25.312 229.579 24.9393 228.799 24.194C228.019 23.4487 227.629 22.4607 227.629 21.23C227.629 18.8727 229.354 17.4513 232.803 16.966L236.703 16.42V16.212C236.703 14.5653 235.741 13.742 233.817 13.742C232.136 13.742 231.182 14.4093 230.957 15.744H227.941C228.08 14.4267 228.626 13.3433 229.579 12.494C230.55 11.6273 231.988 11.194 233.895 11.194C235.819 11.194 237.266 11.636 238.237 12.52C239.225 13.404 239.719 14.6433 239.719 16.238V22.452C239.719 23.544 239.849 24.3933 240.109 25H237.171C237.154 25 237.128 24.9393 237.093 24.818C237.076 24.6793 237.05 24.4627 237.015 24.168C236.998 23.8733 236.989 23.5613 236.989 23.232C236.07 24.6187 234.528 25.312 232.361 25.312Z" fill="#787878"/>
<path d="M246.483 25H243.389V5.5H246.483V25Z" fill="#787878"/>
<path d="M253.313 25H250.219V5.5H253.313V25Z" fill="#787878"/>
<path d="M269.477 19.15H259.207C259.328 20.2247 259.718 21.0827 260.377 21.724C261.036 22.348 261.902 22.66 262.977 22.66C263.688 22.66 264.329 22.4867 264.901 22.14C265.473 21.7933 265.88 21.3253 266.123 20.736H269.243C268.827 22.1053 268.047 23.2147 266.903 24.064C265.776 24.896 264.442 25.312 262.899 25.312C260.888 25.312 259.259 24.6447 258.011 23.31C256.78 21.9753 256.165 20.2853 256.165 18.24C256.165 16.2467 256.789 14.574 258.037 13.222C259.285 11.87 260.897 11.194 262.873 11.194C264.849 11.194 266.444 11.8613 267.657 13.196C268.888 14.5133 269.503 16.1773 269.503 18.188L269.477 19.15ZM262.873 13.716C261.902 13.716 261.096 14.002 260.455 14.574C259.814 15.146 259.415 15.9087 259.259 16.862H266.435C266.296 15.9087 265.915 15.146 265.291 14.574C264.667 14.002 263.861 13.716 262.873 13.716Z" fill="#787878"/>
<path d="M278.392 22.244V24.922C278.011 25.026 277.473 25.078 276.78 25.078C274.145 25.078 272.828 23.752 272.828 21.1V13.976H270.774V11.506H272.828V7.996H275.922V11.506H278.444V13.976H275.922V20.788C275.922 21.8453 276.425 22.374 277.43 22.374L278.392 22.244Z" fill="#787878"/>
<path fill-rule="evenodd" clip-rule="evenodd" d="M144.789 3.85184H141.407V24.3239H144.789V16.1126C144.789 13.8629 146.129 12.5693 148.228 12.5693C150.211 12.5693 151.144 13.8629 151.144 15.7751V24.2676H154.525V15.4377C154.525 12.1194 152.659 9.86974 149.045 9.86974C146.888 9.86974 145.43 10.7696 144.789 11.7257V3.85184ZM72.96 21.7368C70.2197 21.7368 68.8205 20.3307 68.6454 18.2498H65.2641C65.3805 21.3993 67.4212 24.7176 72.785 24.7176C77.5656 24.7176 80.7724 22.4117 80.7724 18.9246C80.7724 14.4816 77.041 13.6942 73.8929 12.963C71.5608 12.4568 69.4619 12.0069 69.4619 10.2072C69.4619 8.46366 70.9193 7.50758 73.2514 7.50758C75.8168 7.50758 77.1578 9.0261 77.1578 10.9383H80.5392C80.4228 7.33884 77.9738 4.52675 73.2514 4.52675C68.7622 4.52675 66.0801 7.17011 66.0801 10.2634C66.0801 14.594 69.6365 15.3814 72.7268 16.0001C75.1753 16.5062 77.3324 16.9562 77.3324 19.0371C77.2742 20.7806 75.6999 21.7368 72.96 21.7368ZM92.7243 18.306C92.7243 20.6119 91.4418 21.8492 89.3429 21.8492C87.3022 21.8492 86.4862 20.5557 86.4862 18.6435V10.1509H83.1045V19.0934C83.1045 22.4117 84.9701 24.6613 88.5265 24.6613C90.9172 24.6613 92.3747 23.649 93.0161 22.5241V24.3801H96.106V10.1509H92.7243V18.306ZM107.242 24.6613C104.968 24.6613 103.394 23.7052 102.578 22.4679V30.0043H99.196V10.1509H102.286V12.1756C103.219 10.7134 104.968 9.81349 107.242 9.81349C111.614 9.81349 114.063 13.188 114.063 17.2374C114.063 21.2868 111.614 24.6613 107.242 24.6613ZM106.6 12.6256C104.035 12.6256 102.461 14.594 102.461 17.2374C102.461 19.7683 104.035 21.793 106.6 21.793C109.166 21.793 110.74 19.8245 110.74 17.2374C110.74 14.6503 109.108 12.6256 106.6 12.6256ZM139.425 10.0384C139.541 10.0384 139.891 10.0384 139.891 10.0384V13.0755C139.891 13.0755 139.483 13.0193 139.133 13.0193C136.743 13.0193 135.344 14.2003 135.344 16.9562V24.3239H131.962V10.1509H135.052V12.1194C135.635 11.2195 136.86 10.0384 139.425 10.0384ZM129.746 18.1935C129.746 18.1935 129.746 17.6873 129.746 17.1811C129.746 13.0193 126.89 9.81349 122.517 9.81349C118.144 9.81349 115.229 13.0755 115.229 17.1811C115.229 21.3993 118.086 24.6051 122.575 24.6051C126.015 24.6051 128.58 22.6366 129.455 19.8245H126.073C125.549 21.0618 124.208 21.8492 122.634 21.8492C120.302 21.8492 118.786 20.3869 118.552 18.1373H129.746V18.1935ZM122.575 12.4568C124.733 12.4568 126.19 13.8067 126.423 15.7751H118.669C119.019 13.8629 120.418 12.4568 122.575 12.4568ZM171.083 17.1811C171.083 17.6873 171.083 18.1935 171.083 18.1935H159.889C160.122 20.4432 161.638 21.9055 163.97 21.9055C165.544 21.9055 166.827 21.1181 167.41 19.8808H170.791C169.917 22.6928 167.293 24.6613 163.912 24.6613C159.481 24.6613 156.566 21.4555 156.566 17.2374C156.566 13.1317 159.481 9.86974 163.853 9.86974C168.226 9.81349 171.083 13.0193 171.083 17.1811ZM167.702 15.7751C167.41 13.8067 166.011 12.4568 163.853 12.4568C161.696 12.4568 160.239 13.8067 159.947 15.7751H167.702ZM181.111 10.0384C181.111 10.0384 180.761 10.0384 180.645 10.0384C178.079 10.0384 176.855 11.2195 176.33 12.1194V10.1509H173.24V24.3239H176.622V16.9562C176.622 14.2003 178.021 13.0193 180.411 13.0193C180.761 13.0193 181.17 13.0755 181.17 13.0755V10.0384H181.111ZM196.27 17.2374C196.27 21.2306 193.355 24.6051 188.632 24.6051C183.968 24.6051 181.053 21.1743 181.053 17.2374C181.053 13.2442 183.968 9.81349 188.632 9.81349C193.355 9.81349 196.27 13.2442 196.27 17.2374ZM188.632 12.6818C186.183 12.6818 184.376 14.4816 184.376 17.2374C184.376 19.9933 186.183 21.793 188.632 21.793C191.081 21.793 192.888 19.9933 192.888 17.2374C192.946 14.4816 191.139 12.6818 188.632 12.6818Z" fill="white"/>
<path fill-rule="evenodd" clip-rule="evenodd" d="M17.1058 13.02L28.0667 3.12142H47.5397L58.5006 13.02L37.8615 32.4797L17.1058 13.02ZM29.2911 6.15848H35.2379L47.9479 18.7004L37.8032 28.2616L21.6534 13.0762L29.2911 6.15848Z" fill="#1161FE"/>
</svg>
