<svg xmlns="http://www.w3.org/2000/svg" width="48.869" height="25.986" viewBox="0 0 48.869 25.986">
  <g id="coronaLogo" transform="translate(1.506 -1.658)">
    <g id="Group_10" data-name="Group 10" transform="translate(0 3.178)">
      <g id="Group_7" data-name="Group 7">
        <path id="Path_13" data-name="Path 13" d="M.9,3.6c-.71-.708-1.078-.5-.819.473L5.526,24.383a2.513,2.513,0,0,0,2.295,1.761H21.683c1,0,1.242-.579.532-1.287Z" transform="translate(0 -3.178)" fill="#16161d"/>
        <path id="Path_14" data-name="Path 14" d="M.9,3.6c-.71-.708-1.078-.5-.819.473L5.526,24.383a2.513,2.513,0,0,0,2.295,1.761H21.683c1,0,1.242-.579.532-1.287Z" transform="translate(0 -3.178)" fill="none" stroke="#f1f1f1" stroke-miterlimit="10" stroke-width="3"/>
      </g>
      <g id="Group_8" data-name="Group 8" transform="translate(23.233 0)">
        <path id="Path_15" data-name="Path 15" d="M89.625,24.857c-.71.708-.47,1.287.532,1.287H104.02a2.514,2.514,0,0,0,2.295-1.761l5.443-20.313c.259-.968-.109-1.181-.819-.473Z" transform="translate(-89.217 -3.179)" fill="#16161d"/>
        <path id="Path_16" data-name="Path 16" d="M89.625,24.857c-.71.708-.47,1.287.532,1.287H104.02a2.514,2.514,0,0,0,2.295-1.761l5.443-20.313c.259-.968-.109-1.181-.819-.473Z" transform="translate(-89.217 -3.179)" fill="none" stroke="#f1f1f1" stroke-miterlimit="10" stroke-width="3"/>
      </g>
      <g id="Group_9" data-name="Group 9" transform="translate(12.273 0.099)">
        <path id="Path_17" data-name="Path 17" d="M57,4.238c.429-.906,1.13-.906,1.559,0l9.717,20.539a1.066,1.066,0,0,1-1.043,1.648H48.331a1.066,1.066,0,0,1-1.043-1.648Z" transform="translate(-47.129 -3.558)" fill="#16161d"/>
        <path id="Path_18" data-name="Path 18" d="M57,4.238c.429-.906,1.13-.906,1.559,0l9.717,20.539a1.066,1.066,0,0,1-1.043,1.648H48.331a1.066,1.066,0,0,1-1.043-1.648Z" transform="translate(-47.129 -3.558)" fill="none" stroke="#f1f1f1" stroke-miterlimit="10" stroke-width="3"/>
      </g>
    </g>
    <g id="Group_11" data-name="Group 11" transform="translate(15.617 21.227)">
      <path id="Path_19" data-name="Path 19" d="M61.659,73.362a.7.7,0,0,0-.22-.18.574.574,0,0,0-.263-.061.6.6,0,0,0-.434.166.559.559,0,0,0-.172.42.576.576,0,0,0,.616.616.539.539,0,0,0,.245-.06.861.861,0,0,0,.228-.172v.678l-.041.013-.041.013c-.068.022-.137.041-.207.056a1,1,0,0,1-.217.023,1.16,1.16,0,0,1-.841-.331,1.16,1.16,0,0,1,0-1.647,1.184,1.184,0,0,1,.857-.333.972.972,0,0,1,.223.028,2.138,2.138,0,0,1,.263.084v.685Z" transform="translate(-59.971 -72.545)" fill="#f1f1f1"/>
      <path id="Path_20" data-name="Path 20" d="M67.817,72.826a1.295,1.295,0,0,1,1.744,0,1.182,1.182,0,0,1,0,1.678,1.3,1.3,0,0,1-1.744,0,1.11,1.11,0,0,1-.349-.837A1.122,1.122,0,0,1,67.817,72.826Zm.434,1.277a.618.618,0,1,0-.183-.437A.59.59,0,0,0,68.251,74.1Z" transform="translate(-65.516 -72.488)" fill="#f1f1f1"/>
      <path id="Path_21" data-name="Path 21" d="M80.079,74.95h-.711l-.549-.847v.847h-.572V72.742h.893a.76.76,0,0,1,.526.18.658.658,0,0,1,.2.518.591.591,0,0,1-.48.606Zm-1.2-1.218a.511.511,0,0,0,.06,0,.65.65,0,0,0,.235-.061.21.21,0,0,0,.106-.21.206.206,0,0,0-.1-.2.614.614,0,0,0-.223-.066l-.07,0-.066,0v.546Z" transform="translate(-73.487 -72.676)" fill="#f1f1f1"/>
      <path id="Path_22" data-name="Path 22" d="M86.179,72.826a1.295,1.295,0,0,1,1.744,0,1.182,1.182,0,0,1,0,1.678,1.3,1.3,0,0,1-1.744,0,1.11,1.11,0,0,1-.349-.837A1.122,1.122,0,0,1,86.179,72.826Zm.434,1.277a.618.618,0,1,0-.183-.437A.591.591,0,0,0,86.613,74.1Z" transform="translate(-79.096 -72.488)" fill="#f1f1f1"/>
      <path id="Path_23" data-name="Path 23" d="M96.607,72.743h.572l1.056,1.351V72.743h.572v2.208h-.572L97.179,73.6v1.35h-.572Z" transform="translate(-87.066 -72.677)" fill="#f1f1f1"/>
      <path id="Path_24" data-name="Path 24" d="M106.794,74.565l-.152.384h-.605l.847-2.208h.626l.83,2.208h-.612l-.142-.384Zm.4-1.138-.241.7h.476Z" transform="translate(-94.04 -72.676)" fill="#f1f1f1"/>
    </g>
  </g>
</svg>
