<svg xmlns="http://www.w3.org/2000/svg" viewBox="0 0 20 20"><path d="M5.23248,1.12932L12.7184,2.45348c.7945.14124,1.4566.36193,2.0039.66208l-.0088-.58263c-.0354-1.915617-1.3683-2.8337-3.5488-2.44528L5.23248,1.12932ZM2.54886,18.2286l9.73694,1.7126c1.845.3266,2.9838-.7239,2.9838-2.7366v-10.65506c0-1.84499-.9004-2.56004-2.7719-2.88666L3.06086,1.99444c-1.38595-.23835-2.330513.54731-2.330513,1.92444v12.19992c0,1.1829.626763,1.8979,1.818513,2.1098ZM4.30557,7.26458c-.34428-.05296-.53849-.31779-.53849-.6709c0-.42373.33545-.70622.80332-.62677l6.7885,1.19174c.362.07062.5562.28249.5562.67091c0,.42373-.309.71504-.7769.64442L4.30557,7.26458Zm0,3.61932c-.33545-.0617-.53849-.3177-.53849-.6709c0-.41486.33545-.69735.80332-.6179l6.7885,1.1917c.362.0707.5562.2825.5562.6533c0,.4414-.309.7327-.7769.6621L4.30557,10.8839Z" transform="translate(2 0)" fill="currentColor"/></svg>
