<svg xmlns="http://www.w3.org/2000/svg" viewBox="0 0 20 20"><path d="m7.232 1.13 7.486 1.323c.795.142 1.457.362 2.004.663l-.009-.583C16.678.617 15.345-.301 13.165.088L7.232 1.129zM4.55 18.228l9.737 1.712c1.845.327 2.984-.724 2.984-2.736V6.55c0-1.845-.9-2.56-2.772-2.887L5.06 1.994c-1.386-.238-2.33.548-2.33 1.925v12.2c0 1.183.626 1.898 1.818 2.11zM6.306 7.265c-.345-.053-.539-.318-.539-.671 0-.424.336-.707.803-.627l6.789 1.192c.362.07.556.282.556.67 0 .424-.309.716-.777.645l-6.832-1.21zm0 3.619c-.336-.062-.539-.318-.539-.671 0-.415.336-.697.803-.618l6.789 1.192c.362.07.556.282.556.653 0 .441-.309.733-.777.662l-6.832-1.218z" fill="currentColor"/></svg>