<svg viewBox="0 0 24 24" fill="none" xmlns="http://www.w3.org/2000/svg">
<path d="M16 7V5C16 4.44772 16.4477 4 17 4H19C19.5523 4 20 4.44772 20 5V7C20 7.55228 19.5523 8 19 8H17C16.4477 8 16 7.55228 16 7Z" fill="currentColor"/>
<path d="M10 7V5C10 4.44772 10.4477 4 11 4H13C13.5523 4 14 4.44772 14 5V7C14 7.55228 13.5523 8 13 8H11C10.4477 8 10 7.55228 10 7Z" fill="currentColor"/>
<path d="M16 13V11C16 10.4477 16.4477 10 17 10H19C19.5523 10 20 10.4477 20 11V13C20 13.5523 19.5523 14 19 14H17C16.4477 14 16 13.5523 16 13Z" fill="currentColor"/>
<path opacity="0.44" d="M10 13V11C10 10.4477 10.4477 10 11 10H13C13.5523 10 14 10.4477 14 11V13C14 13.5523 13.5523 14 13 14H11C10.4477 14 10 13.5523 10 13Z" fill="currentColor"/>
<path d="M4 7V5C4 4.44772 4.44772 4 5 4H7C7.55228 4 8 4.44772 8 5V7C8 7.55228 7.55228 8 7 8H5C4.44772 8 4 7.55228 4 7Z" fill="currentColor"/>
<path d="M16 19V17C16 16.4477 16.4477 16 17 16H19C19.5523 16 20 16.4477 20 17V19C20 19.5523 19.5523 20 19 20H17C16.4477 20 16 19.5523 16 19Z" fill="currentColor"/>
</svg>
