<svg viewBox="0 0 24 24" fill="none" xmlns="http://www.w3.org/2000/svg">
<path d="M19.8276 15.9154L19.186 15.5331C18.9608 15.3979 18.5929 15.5273 18.3925 15.8092C18.1691 16.1249 17.9028 16.4165 17.6008 16.6742C16.95 17.2429 16.1098 17.5325 15.103 17.5325C13.8472 17.5325 12.8249 17.1058 12.0625 16.2629C11.3193 15.4037 10.9477 14.2036 10.9477 12.684V11.3604C10.9477 9.85815 11.3184 8.65809 12.0506 7.79594C12.8176 6.91159 13.8436 6.46652 15.103 6.46652C16.1098 6.46652 16.9262 6.73202 17.5321 7.25529C17.7948 7.47542 18.0309 7.73609 18.2314 8.02765C18.4318 8.31922 18.7961 8.46693 19.0231 8.34336L19.7471 7.95428C19.8386 7.90504 19.9008 7.8307 19.9237 7.74478C19.942 7.68009 19.9329 7.61444 19.9027 7.56134C19.4633 6.81698 18.9197 6.22998 18.2881 5.81677C17.4607 5.27419 16.388 5 15.103 5C14.1557 5 13.2889 5.16799 12.5265 5.49817C11.7925 5.82353 11.1481 6.31301 10.6118 6.95118C10.0864 7.57872 9.67455 8.38294 9.38715 9.34163C9.09701 10.2955 9 10.8304 9 12.1163C9 13.3907 9.0961 13.9179 9.38532 14.8553C9.67089 15.7648 10.0828 16.5391 10.6072 17.156C11.1408 17.7633 11.7842 18.2305 12.5192 18.5424C13.2789 18.8446 14.1502 19 15.103 19C16.3807 19 17.4571 18.7046 18.2973 18.1243C18.948 17.6619 19.5109 17.0527 19.9649 16.3141C19.9988 16.26 20.0079 16.1954 19.9933 16.1307C19.9722 16.0419 19.9155 15.9666 19.8276 15.9154Z" fill="currentColor"/>
<path opacity="0.66" d="M6.06882 14.8C7.21081 14.8 8.13764 15.7268 8.13764 16.8688C8.13764 18.0108 7.21081 18.9376 6.06882 18.9376C4.92579 18.9376 4 18.0108 4 16.8688C4 15.7268 4.92579 14.8 6.06882 14.8Z" fill="currentColor"/>
</svg>
