<svg id="_9.userFriendly.cbca1b90" data-name="9.userFriendly.cbca1b90" xmlns="http://www.w3.org/2000/svg" width="18.654" height="20" viewBox="0 0 18.654 20">
  <g id="Group_1300" data-name="Group 1300" transform="translate(0 0)">
    <g id="Group_1298" data-name="Group 1298">
      <path id="Path_394" data-name="Path 394" d="M33.817,26.5l-9.327-4V10.493l9.327-4,9.327,4V22.5Zm-8.509-4.537,8.509,3.646,8.509-3.646V11.032L33.817,7.385l-8.509,3.647Z" transform="translate(-24.49 -6.496)" fill="#babac0"/>
    </g>
    <g id="Group_1299" data-name="Group 1299" transform="translate(9.327 4.142)">
      <path id="Path_395" data-name="Path 395" d="M53.677,35.2l-1.538.659v1.456l1.583-.679c.587-.252.941-.63.941-1.121V35.5C54.663,35.053,54.36,34.909,53.677,35.2Z" transform="translate(-49.099 -26.419)" fill="#babac0"/>
      <path id="Path_396" data-name="Path 396" d="M54.327,29.945v-.019c0-.435-.311-.547-.873-.307l-1.314.564v1.4c.492-.209.736-.314,1.227-.526C53.955,30.8,54.327,30.437,54.327,29.945Z" transform="translate(-49.099 -23.35)" fill="#babac0"/>
      <path id="Path_397" data-name="Path 397" d="M45.342,19.692V31.5l9.183-3.934V15.756ZM52.23,24.53a3.212,3.212,0,0,1-2.265,2.784l-2.213.949a.442.442,0,0,1-.666-.443V22.664a1.179,1.179,0,0,1,.666-1.013l2.143-.92a1.7,1.7,0,0,1,1.581-.092,1.038,1.038,0,0,1,.416.946V21.6a3.872,3.872,0,0,1-.794,1.767c.022.049,1.134.251,1.134,1.139A.07.07,0,0,0,52.23,24.53Z" transform="translate(-45.342 -15.756)" fill="#babac0"/>
    </g>
    <path id="Path_398" data-name="Path 398" d="M29.275,30.761c.724-1.722,1.086-2.583,1.81-4.3a.459.459,0,0,1,.668-.276l.067.029a1.276,1.276,0,0,1,.66.845c.724,2.343,1.086,3.515,1.81,5.857a1.029,1.029,0,0,1,.061.31c0,.379-.238.581-.542.45a1.08,1.08,0,0,1-.55-.724c-.139-.465-.209-.7-.348-1.163L30.625,30.8c-.145.362-.218.543-.363.905a.365.365,0,0,1-.528.215,1.008,1.008,0,0,1-.527-.888A.693.693,0,0,1,29.275,30.761Zm3.212-.412c-.289-.976-.432-1.464-.719-2.44l-.72,1.822Z" transform="translate(-27.097 -17.345)" fill="#babac0"/>
    <path id="Path_399" data-name="Path 399" d="M33.994,6.956l-9.183,3.935,5.814,2.492h0l3.369,1.445,9.183-3.937Zm2.8,5.6a5.367,5.367,0,0,1-5.226-.093l-.014-.009c-1.473-.911-1.611-2.3-.076-3.234a4.738,4.738,0,0,1,2.2-.688,1.166,1.166,0,0,1,.663.149c.314.192.316.49.014.672a1.043,1.043,0,0,1-.438.131,3.049,3.049,0,0,0-1.391.389c-.842.511-.722,1.327.166,1.877l.015.009a3.165,3.165,0,0,0,3.078.127,1.206,1.206,0,0,0,.677-.908.379.379,0,0,1,.2-.277,1.1,1.1,0,0,1,1.04.013.393.393,0,0,1,.221.365A1.907,1.907,0,0,1,36.8,12.556Z" transform="translate(-24.667 -6.75)" fill="#babac0"/>
  </g>
</svg>
