<svg version="1.1" id="Layer_1" width="27" height="27" xmlns="http://www.w3.org/2000/svg" xmlns:xlink="http://www.w3.org/1999/xlink" x="0px" y="0px"
	 viewBox="0 0 26.961 26.394" style="enable-background:new 0 0 26.961 26.394;" xml:space="preserve">
<g>
	<path class="st0" d="M19.202,13.008c-0.16-0.44-0.504-0.782-0.944-0.939l-1.923-0.684l-0.516,1.443l-0.002,0.005l-1.828-5.038
		c-0.159-0.44-0.503-0.783-0.943-0.939L6.802,4.618c-0.566-0.2-1.208-0.056-1.632,0.368L1.538,8.62
		c-0.425,0.427-0.568,1.069-0.365,1.636l2.261,6.274c0.158,0.439,0.501,0.783,0.94,0.942l1.783,0.644l0.591-1.642l1.898,5.268
		c0.158,0.441,0.5,0.785,0.94,0.942l6.271,2.263l0.005,0.001c0.152,0.052,0.312,0.078,0.473,0.078
		c0.455-0.001,0.833-0.154,1.159-0.446l3.63-3.632c0.426-0.428,0.569-1.071,0.364-1.64L19.202,13.008z M14.553,14.573l-3.433,3.435
		l-1.036-0.374l-0.512,1.422l-1.463-4.062l3.437-3.437l1.069,0.384l0.489-1.365L14.553,14.573z M17.562,13.713l2.204,6.072
		l-3.434,3.437l-6.043-2.181l-0.596-1.654l0.953,0.345l0.005,0.002c0.156,0.053,0.318,0.079,0.481,0.079
		c0.421,0.003,0.829-0.153,1.15-0.446l3.63-3.632c0.426-0.428,0.569-1.071,0.364-1.64l-0.35-0.963L17.562,13.713z M5.076,15.83
		l-2.18-6.049l3.436-3.437L12.35,8.5l0.605,1.668L12.014,9.83c-0.566-0.199-1.207-0.056-1.632,0.368L6.75,13.832
		c-0.425,0.427-0.568,1.069-0.365,1.636l0.346,0.959L5.076,15.83z" fill="currentColor"/>
	<polygon class="st0" points="22.477,3.963 22.477,0.776 20.393,0.776 20.393,3.963 17.33,3.963 17.33,6.046 20.393,6.046 
		20.393,9.109 22.477,9.109 22.477,6.046 25.664,6.046 25.664,3.963 	" fill="currentColor"/>
</g>
</svg>
