<svg viewBox="0 0 48 48" fill="none" xmlns="http://www.w3.org/2000/svg"><g fill="currentColor"><path d="M37.144 8.53 5.533 40.143 8.86 43.47l31.612-31.612-3.328-3.327z"/><path opacity=".44" d="M19.792 20.47h-2.847v-4.705a7.06 7.06 0 0 1 9.362-6.673 7.055 7.055 0 0 1 2.92 1.943l3.198-3.197.115-.172A11.655 11.655 0 0 0 24.003 4a11.788 11.788 0 0 0-8.315 3.45 11.788 11.788 0 0 0-3.45 8.315v4.706H9.887a4.707 4.707 0 0 0-4.706 4.706v9.905l14.612-14.611zM38.121 20.47h-.53L14.063 44h24.06a4.707 4.707 0 0 0 4.705-4.706V25.177a4.708 4.708 0 0 0-4.706-4.706z"/></g></svg>