<svg viewBox="0 0 24 24" fill="none" xmlns="http://www.w3.org/2000/svg">
<path d="M16.543 12.5149C16.374 12.3459 16.145 12.2509 15.906 12.2509H15.005L14.67 9.2339C14.597 8.5779 14.284 7.9719 13.792 7.5319C13.301 7.0909 12.664 6.8479 12.004 6.8479C11.344 6.8479 10.707 7.0909 10.215 7.5319C9.72301 7.9719 9.41101 8.5779 9.33701 9.2339L9.00101 12.2509H8.10101C7.86201 12.2509 7.63301 12.3459 7.46401 12.5149C7.29501 12.6839 7.20001 12.9129 7.20001 13.1519C7.20001 13.3909 7.29501 13.6199 7.46401 13.7889C7.63301 13.9579 7.86201 14.0529 8.10101 14.0529H15.906C16.145 14.0529 16.374 13.9579 16.543 13.7889C16.712 13.6199 16.807 13.3909 16.807 13.1519C16.807 12.9129 16.712 12.6839 16.543 12.5149Z" fill="currentColor"/>
<path d="M12.004 14.7499C11.341 14.7499 10.803 15.2879 10.803 15.9509C10.803 16.6139 11.341 17.1519 12.004 17.1519C12.667 17.1519 13.205 16.6139 13.205 15.9509C13.205 15.2879 12.667 14.7499 12.004 14.7499Z" fill="currentColor"/>
<path opacity="0.44" d="M19.489 9.488V4.929H14.929L12 2L9.071 4.929H5.347V8.651L2 12L5.347 15.346V19.07H9.07L12 22L14.929 19.071H19.489V14.511L22 12L19.489 9.488ZM12 17.152C11.337 17.152 10.799 16.614 10.799 15.951C10.799 15.288 11.337 14.75 12 14.75C12.663 14.75 13.201 15.288 13.201 15.951C13.201 16.614 12.663 17.152 12 17.152ZM16.539 13.788C16.37 13.957 16.141 14.052 15.902 14.052H8.097C7.858 14.052 7.629 13.957 7.46 13.788C7.292 13.619 7.197 13.39 7.197 13.152C7.197 12.914 7.292 12.684 7.461 12.515C7.63 12.346 7.859 12.251 8.098 12.251H8.999L9.335 9.234C9.408 8.578 9.721 7.972 10.213 7.532C10.705 7.092 11.342 6.848 12.002 6.848C12.662 6.848 13.299 7.091 13.791 7.532C14.283 7.972 14.595 8.578 14.669 9.234L15.004 12.251H15.905C16.144 12.251 16.373 12.346 16.542 12.515C16.711 12.684 16.806 12.913 16.806 13.152C16.806 13.391 16.708 13.619 16.539 13.788Z" fill="currentColor"/>
</svg>
