<svg width="56" height="56" viewBox="0 0 56 56" fill="none" xmlns="http://www.w3.org/2000/svg">
<path fill-rule="evenodd" clip-rule="evenodd" d="M19.5008 29.7871V29.5681C19.533 28.9202 19.7406 28.2925 20.1024 27.7496C20.7045 27.0975 21.1167 26.2983 21.2957 25.436C21.2957 24.7695 21.2957 24.0935 21.3539 23.427C21.6547 20.2184 24.8273 18 27.9611 18H28.0387C31.1725 18 34.345 20.2184 34.6555 23.427C34.7137 24.0935 34.6555 24.7695 34.704 25.436C34.8854 26.3003 35.2972 27.1019 35.8974 27.7591C36.2618 28.2972 36.4698 28.9227 36.4989 29.5681V29.7776C36.5206 30.648 36.2208 31.4968 35.6548 32.1674C34.907 32.9515 33.8921 33.4393 32.8024 33.5384C29.607 33.8812 26.383 33.8812 23.1876 33.5384C22.0991 33.435 21.0858 32.9479 20.3352 32.1674C19.778 31.4963 19.4822 30.6526 19.5008 29.7871Z" stroke="#808191" stroke-width="1.5" stroke-linecap="round" stroke-linejoin="round"/>
<path opacity="0.5" d="M25.5552 36.8518C26.0545 37.4785 26.7876 37.884 27.5925 37.9788C28.3973 38.0735 29.2074 37.8495 29.8435 37.3564C30.0391 37.2106 30.2152 37.041 30.3674 36.8518" stroke="#808191" stroke-width="1.5" stroke-linecap="round" stroke-linejoin="round"/>
<circle cx="40" cy="16" r="4" fill="#FF6628"/>
</svg>
