<svg viewBox="0 0 40 34" fill="none" xmlns="http://www.w3.org/2000/svg"><path opacity=".5" d="M22.56 33.59c9.09 0 16.61-7.52 16.61-16.63 0-9.1-7.54-16.63-16.62-16.63C14.09.33 7 6.83 6.06 15.08a9.97 9.97 0 0 1 2.64-.23 13.34 13.34 0 0 1 2.73-6.34 12.2 12.2 0 0 0 3.7 1.8 25.8 25.8 0 0 0-.77 5.5h-1.75a10.7 10.7 0 0 1 3.13 2.28h5.7v4.54c-1.02.03-2.03.14-2.98.28.2.68.3 1.44.34 2.21.82-.13 1.7-.2 2.64-.24v4.99c-1.02-.45-1.95-1.56-2.7-3.14-.13.93-.4 1.82-.75 2.67.23.4.52.74.8 1-.38-.1-.75-.23-1.1-.37a9.1 9.1 0 0 1-1.48 2.25c1.95.84 4.1 1.3 6.35 1.3zM12.88 6.85a13.8 13.8 0 0 1 5.73-3.33c-1.13 1.1-2.11 2.7-2.83 4.7-1.13-.37-2.1-.82-2.9-1.37zm16.45 1.37c-.72-2-1.69-3.6-2.83-4.7a13.6 13.6 0 0 1 5.71 3.33c-.77.55-1.74 1.02-2.88 1.37zm-11.32.55c.85-2.37 2.1-4.1 3.43-4.7v5.05A24.61 24.61 0 0 1 18 8.77zm5.68.35V4.07c1.33.6 2.55 2.33 3.42 4.7-1.06.19-2.22.3-3.42.35zm7.06 6.71a26.15 26.15 0 0 0-.76-5.52 13.2 13.2 0 0 0 3.7-1.78 13.7 13.7 0 0 1 2.85 7.3h-5.8zm-14.1 0c.07-1.75.33-3.44.7-4.94 1.27.26 2.65.44 4.09.48v4.46h-4.8zm7.04 0v-4.46c1.41-.04 2.8-.22 4.07-.48.38 1.5.64 3.19.7 4.94H23.7zm0 6.8v-4.54h4.77a23.03 23.03 0 0 1-.72 5 26.64 26.64 0 0 0-4.05-.46zm6.28 1.04c.44-1.67.71-3.56.78-5.58h5.79c-.21 2.75-1.27 5.3-2.9 7.37-.95-.73-2.2-1.32-3.67-1.79zm-6.28 6.2v-5c1.2.06 2.34.17 3.39.36-.87 2.32-2.06 4.01-3.4 4.64zm2.86.53c1.1-1.1 2.06-2.69 2.77-4.62 1.12.35 2.07.79 2.86 1.34a13.8 13.8 0 0 1-5.63 3.28z" fill="#fff"/><path d="M8.27 33.67a8.32 8.32 0 0 0 8.28-8.28 8.33 8.33 0 0 0-8.29-8.27A8.32 8.32 0 0 0 0 25.4a8.32 8.32 0 0 0 8.27 8.28zm-2.73-4.79a.76.76 0 0 1-.53-1.3L7.2 25.4 5 23.23a.75.75 0 0 1 .53-1.29c.23 0 .4.07.55.21l2.18 2.18 2.19-2.18a.74.74 0 0 1 .54-.23c.43 0 .76.34.76.76 0 .2-.08.38-.23.54L9.36 25.4l2.17 2.18a.76.76 0 0 1-.54 1.3.78.78 0 0 1-.55-.22l-2.17-2.17-2.17 2.17a.74.74 0 0 1-.56.22z" fill="currentColor"/></svg>