<svg viewBox="0 0 24 24" fill="none" xmlns="http://www.w3.org/2000/svg"><path opacity=".44" fill-rule="evenodd" clip-rule="evenodd" d="M8 3H6a2 2 0 0 0-2 2v16a2 2 0 0 0 2 2h12a2 2 0 0 0 2-2V5a2 2 0 0 0-2-2h-2v.5A1.5 1.5 0 0 1 14.5 5h-5A1.5 1.5 0 0 1 8 3.5V3z" fill="#1161FE"/><path fill-rule="evenodd" clip-rule="evenodd" d="M13 2a1 1 0 1 0-2 0H9.5a.5.5 0 0 0-.5.5v1a.5.5 0 0 0 .5.5h5a.5.5 0 0 0 .5-.5v-1a.5.5 0 0 0-.5-.5H13z" fill="#1161FE"/><rect opacity=".44" x="7" y="10" width="5" height="2" rx="1" fill="#1161FE"/><rect opacity=".44" x="7" y="14" width="9" height="2" rx="1" fill="#1161FE"/></svg>