<svg viewBox="0 0 20 20" fill="none" xmlns="http://www.w3.org/2000/svg">
<path d="M9.99605 18.3333C14.5635 18.3333 18.3334 14.5615 18.3334 9.99996C18.3334 5.43839 14.5554 1.66663 9.988 1.66663C5.42863 1.66663 1.66675 5.43839 1.66675 9.99996C1.66675 14.5615 5.43669 18.3333 9.99605 18.3333ZM6.09723 10.008C6.09723 9.53252 6.43556 9.20209 6.90277 9.20209H9.19857V6.90518C9.19857 6.43774 9.52078 6.10731 9.97994 6.10731C10.4552 6.10731 10.7855 6.43774 10.7855 6.90518L10.7855 9.20209L13.0893 9.20209C13.5485 9.20209 13.8868 9.53252 13.8868 10.008C13.8868 10.4674 13.5485 10.7978 13.0893 10.7978H10.7855V13.0947C10.7855 13.5541 10.4552 13.8926 9.97994 13.8926C9.52078 13.8926 9.19857 13.5541 9.19857 13.0947L9.19857 10.7978L6.90277 10.7978C6.43556 10.7978 6.09723 10.4674 6.09723 10.008Z" fill="currentColor"/>
</svg>
