<svg viewBox="0 0 24 24" fill="none" xmlns="http://www.w3.org/2000/svg">
<path opacity="0.4" fill-rule="evenodd" clip-rule="evenodd" d="M16.8396 5.64648C17.3366 5.64648 17.7396 6.04943 17.7396 6.54648V20.1643C17.7396 20.6613 17.3366 21.0643 16.8396 21.0643C16.3425 21.0643 15.9396 20.6613 15.9396 20.1643V6.54648C15.9396 6.04943 16.3425 5.64648 16.8396 5.64648Z" fill="currentColor"/>
<path fill-rule="evenodd" clip-rule="evenodd" d="M12.1268 15.4301C12.4791 15.0794 13.0489 15.0808 13.3996 15.433L16.8395 18.8889L20.2794 15.433C20.63 15.0808 21.1999 15.0794 21.5522 15.4301C21.9045 15.7808 21.9058 16.3506 21.5551 16.7029L17.4773 20.7996C17.3084 20.9692 17.0789 21.0646 16.8395 21.0646C16.6001 21.0646 16.3705 20.9692 16.2016 20.7996L12.1238 16.7029C11.7732 16.3506 11.7745 15.7808 12.1268 15.4301Z" fill="currentColor"/>
<path opacity="0.4" fill-rule="evenodd" clip-rule="evenodd" d="M6.91111 2.93262C7.40816 2.93262 7.81111 3.33556 7.81111 3.83262V17.4504C7.81111 17.9475 7.40816 18.3504 6.91111 18.3504C6.41405 18.3504 6.01111 17.9475 6.01111 17.4504V3.83262C6.01111 3.33556 6.41405 2.93262 6.91111 2.93262Z" fill="currentColor"/>
<path fill-rule="evenodd" clip-rule="evenodd" d="M6.91125 2.93213C7.15066 2.93213 7.38021 3.02752 7.54911 3.19721L11.6269 7.29387C11.9776 7.64616 11.9762 8.216 11.624 8.56666C11.2717 8.91732 10.7018 8.916 10.3512 8.56372L6.91125 5.10787L3.47134 8.56372C3.12068 8.916 2.55083 8.91732 2.19855 8.56666C1.84626 8.216 1.84495 7.64616 2.19561 7.29387L6.27338 3.19721C6.44229 3.02752 6.67183 2.93213 6.91125 2.93213Z" fill="currentColor"/>
</svg>
