<svg viewBox="0 0 20 20" fill="none" xmlns="http://www.w3.org/2000/svg"><path d="M9.996 18.333c4.567 0 8.337-3.771 8.337-8.333 0-4.561-3.778-8.333-8.345-8.333-4.56 0-8.321 3.772-8.321 8.333 0 4.562 3.77 8.333 8.33 8.333zm-3.899-8.325c0-.475.339-.806.806-.806h2.296V6.905c0-.467.322-.798.78-.798.476 0 .807.33.807.798v2.297h2.303c.46 0 .798.33.798.806 0 .46-.338.79-.798.79h-2.303v2.297c0 .46-.33.798-.806.798-.46 0-.781-.339-.781-.798v-2.297H6.903c-.467 0-.806-.33-.806-.79z" fill="currentColor"/></svg>