<svg viewBox="0 0 20 20" fill="none" xmlns="http://www.w3.org/2000/svg">
  <path d="M9.99517 20C15.4761 20 20 15.4739 20 10C20 4.52611 15.4664 0 9.9855 0C4.51426 0 0 4.52611 0 10C0 15.4739 4.52392 20 9.99517 20ZM5.31658 10.0097C5.31658 9.43907 5.72257 9.04255 6.28323 9.04255L9.03818 9.04255L9.03818 6.28627C9.03818 5.72534 9.42484 5.32882 9.97583 5.32882C10.5462 5.32882 10.9425 5.72534 10.9425 6.28627L10.9425 9.04255H13.7071C14.2581 9.04255 14.6641 9.43907 14.6641 10.0097C14.6641 10.5609 14.2581 10.9574 13.7071 10.9574H10.9425V13.7137C10.9425 14.265 10.5462 14.6712 9.97583 14.6712C9.42484 14.6712 9.03818 14.265 9.03818 13.7137V10.9574L6.28323 10.9574C5.72257 10.9574 5.31658 10.5609 5.31658 10.0097Z" fill="currentColor"/>
</svg>