<svg viewBox="0 0 40 40" fill="none" xmlns="http://www.w3.org/2000/svg">
<path d="M19.9903 40C30.9522 40 40 30.9478 40 20C40 9.05223 30.9328 0 19.971 0C9.02852 0 0 9.05223 0 20C0 30.9478 9.04785 40 19.9903 40ZM10.6332 20.0193C10.6332 18.8781 11.4451 18.0851 12.5665 18.0851H18.0764V12.5725C18.0764 11.4507 18.8497 10.6576 19.9517 10.6576C21.0923 10.6576 21.885 11.4507 21.885 12.5725V18.0851H27.4142C28.5162 18.0851 29.3282 18.8781 29.3282 20.0193C29.3282 21.1219 28.5162 21.9149 27.4142 21.9149H21.885V27.4275C21.885 28.53 21.0923 29.3424 19.9517 29.3424C18.8497 29.3424 18.0764 28.53 18.0764 27.4275V21.9149H12.5665C11.4451 21.9149 10.6332 21.1219 10.6332 20.0193Z" fill="currentColor"/>
</svg>
