<svg viewBox="0 0 48 48" fill="none" xmlns="http://www.w3.org/2000/svg">
<path d="M23.9903 44C34.9522 44 44 34.9478 44 24C44 13.0522 34.9328 4 23.971 4C13.0285 4 4 13.0522 4 24C4 34.9478 13.0478 44 23.9903 44ZM14.6332 24.0193C14.6332 22.8781 15.4451 22.0851 16.5665 22.0851H22.0764V16.5725C22.0764 15.4507 22.8497 14.6576 23.9517 14.6576C25.0923 14.6576 25.885 15.4507 25.885 16.5725V22.0851H31.4142C32.5162 22.0851 33.3282 22.8781 33.3282 24.0193C33.3282 25.1219 32.5162 25.9149 31.4142 25.9149H25.885V31.4275C25.885 32.53 25.0923 33.3424 23.9517 33.3424C22.8497 33.3424 22.0764 32.53 22.0764 31.4275V25.9149H16.5665C15.4451 25.9149 14.6332 25.1219 14.6332 24.0193Z" fill="currentColor"/>
</svg>
