<svg viewBox="0 0 24 24" fill="none" xmlns="http://www.w3.org/2000/svg"><path d="M6.49 2C5.225 2 4.2 3.176 4.2 4.626v14.748C4.201 20.824 5.226 22 6.49 22h9.424c1.264 0 2.288-1.176 2.288-2.626V10.95a2.512 2.512 0 0 1-1.147-.034v8.458c0 .722-.51 1.307-1.139 1.307H6.491c-.628 0-1.138-.585-1.138-1.307V4.626c0-.722.51-1.307 1.138-1.307h9.424c.63 0 1.14.585 1.14 1.307v1.459A2.504 2.504 0 0 1 18.2 6.05V4.626c0-1.45-1.024-2.626-2.288-2.626H6.49z" fill="currentColor"/><path fill-rule="evenodd" clip-rule="evenodd" d="M14.61 13.915c1.83.848 4.073.519 5.582-.988a4.93 4.93 0 0 0 0-6.981 4.952 4.952 0 0 0-6.994 0 4.932 4.932 0 0 0-.96 5.633l-4.597 4.453V18.5h2.472v-1.645h1.6v-1.646h1.697l1.2-1.294zm4.245-4.135a1.732 1.732 0 0 1-2.447 0 1.725 1.725 0 0 1 0-2.442 1.733 1.733 0 0 1 2.447 0 1.725 1.725 0 0 1 0 2.442z" fill="currentColor"/></svg>