<svg viewBox="0 0 24 24" fill="none" xmlns="http://www.w3.org/2000/svg"><path d="M19.006 7.615V5H16.39v2.615h2.615z" fill="currentColor"/><path fill-rule="evenodd" clip-rule="evenodd" d="m21.788 2.282.075-.075-.071-.07-.074.074c-.217-.2-.502-.31-.797-.31h-6.505a1.178 1.178 0 0 0-1.179 1.178v6.505a1.178 1.178 0 0 0 1.178 1.178h6.506a1.178 1.178 0 0 0 1.178-1.178V3.079c0-.296-.111-.58-.31-.797zm-1.116 7.053V3.328h-6.008v6.007h6.008z" fill="currentColor"/><path d="M7.615 5v2.615H5V5h2.615z" fill="currentColor"/><path fill-rule="evenodd" clip-rule="evenodd" d="M9.583 10.712H3.078A1.128 1.128 0 0 1 1.95 9.584V3.079A1.128 1.128 0 0 1 3.078 1.95h6.505a1.128 1.128 0 0 1 1.129 1.129v6.505a1.128 1.128 0 0 1-1.129 1.128zm-.199-1.327V3.278H3.277v6.107h6.107z" fill="currentColor"/><path d="M19.077 19.078v-2.816H16.26v2.816h2.816zM19.283 19.285h2.815v2.164a.651.651 0 0 1-.651.651h-2.164v-2.815zM16.053 22.1v-2.814h-2.815v2.163a.651.651 0 0 0 .651.651h2.164zM19.283 16.053v-2.815h2.164a.651.651 0 0 1 .651.651v2.164h-2.815zM13.238 16.053h2.815v-2.815h-2.164a.651.651 0 0 0-.651.651v2.164zM7.615 16.36v2.616H5V16.36h2.615z" fill="currentColor"/><path fill-rule="evenodd" clip-rule="evenodd" d="M2.246 13.583c.22-.22.52-.345.833-.345h6.505a1.178 1.178 0 0 1 1.178 1.178v6.506A1.178 1.178 0 0 1 9.584 22.1H3.079A1.178 1.178 0 0 1 1.9 20.922v-6.506c0-.312.125-.612.346-.833zm7.089 1.082H3.328v6.008h6.007v-6.007z" fill="currentColor"/></svg>