<svg xmlns="http://www.w3.org/2000/svg" width="42" height="42.219" viewBox="0 0 42 42.219">
  <g id="qr-code" transform="translate(-1.192)">
    <g id="Group_375" data-name="Group 375" transform="translate(1.192)">
      <g id="Group_374" data-name="Group 374" transform="translate(0)">
        <path id="Path_317" data-name="Path 317" d="M10.6,0H2.17a.978.978,0,0,0-.978.978V9.39a.978.978,0,0,0,.978.978H10.6a.978.978,0,0,0,.978-.978V.978A.978.978,0,0,0,10.6,0ZM9.623,8.412H3.148V1.956H9.623Z" transform="translate(-1.192)" fill="#6a8ebe"/>
      </g>
    </g>
    <g id="Group_377" data-name="Group 377" transform="translate(32.804)">
      <g id="Group_376" data-name="Group 376">
        <path id="Path_318" data-name="Path 318" d="M355.348,0h-8.431a.978.978,0,0,0-.978.978V9.39a.978.978,0,0,0,.978.978h8.431a.978.978,0,0,0,.978-.978V.978A.978.978,0,0,0,355.348,0Zm-.978,8.412h-6.475V1.937h6.475Z" transform="translate(-345.938)" fill="#6a8ebe"/>
      </g>
    </g>
    <g id="Group_379" data-name="Group 379" transform="translate(1.192 31.73)">
      <g id="Group_378" data-name="Group 378" transform="translate(0)">
        <path id="Path_319" data-name="Path 319" d="M10.6,346.027H2.17a.978.978,0,0,0-.978.978v8.412a.978.978,0,0,0,.978.978H10.6a.978.978,0,0,0,.978-.978v-8.412A.978.978,0,0,0,10.6,346.027Zm-.978,8.412H3.148v-6.455H9.623Z" transform="translate(-1.192 -346.027)" fill="#6a8ebe"/>
      </g>
    </g>
    <g id="Group_381" data-name="Group 381" transform="translate(32.804 31.73)">
      <g id="Group_380" data-name="Group 380">
        <path id="Path_320" data-name="Path 320" d="M355.348,346.027h-8.431a.978.978,0,0,0-.978.978v8.412a.978.978,0,0,0,.978.978h8.431a.978.978,0,0,0,.978-.978v-8.412A.978.978,0,0,0,355.348,346.027Zm-.978,8.412h-6.475v-6.455h6.475Z" transform="translate(-345.938 -346.027)" fill="#6a8ebe"/>
      </g>
    </g>
    <g id="Group_383" data-name="Group 383" transform="translate(1.192 17.215)">
      <g id="Group_382" data-name="Group 382" transform="translate(0)">
        <path id="Path_321" data-name="Path 321" d="M3.148,193.329v-5.595H1.192v6.651a.978.978,0,0,0,.978.9H25.84v-1.956Z" transform="translate(-1.192 -187.734)" fill="#6a8ebe"/>
      </g>
    </g>
    <g id="Group_385" data-name="Group 385" transform="translate(5.124 17.547)">
      <g id="Group_384" data-name="Group 384">
        <rect id="Rectangle_73" data-name="Rectangle 73" width="15.454" height="1.956" fill="#6a8ebe"/>
      </g>
    </g>
    <g id="Group_387" data-name="Group 387" transform="translate(22.339 17.547)">
      <g id="Group_386" data-name="Group 386">
        <rect id="Rectangle_74" data-name="Rectangle 74" width="3.423" height="1.956" fill="#6a8ebe"/>
      </g>
    </g>
    <g id="Group_389" data-name="Group 389" transform="translate(31.865 22.81)">
      <g id="Group_388" data-name="Group 388">
        <rect id="Rectangle_75" data-name="Rectangle 75" width="7.023" height="1.956" fill="#6a8ebe"/>
      </g>
    </g>
    <g id="Group_391" data-name="Group 391" transform="translate(1.192 27.622)">
      <g id="Group_390" data-name="Group 390" transform="translate(0)">
        <rect id="Rectangle_76" data-name="Rectangle 76" width="13.596" height="1.956" fill="#6a8ebe"/>
      </g>
    </g>
    <g id="Group_393" data-name="Group 393" transform="translate(21.419 27.622)">
      <g id="Group_392" data-name="Group 392">
        <rect id="Rectangle_77" data-name="Rectangle 77" width="2.289" height="1.956" fill="#6a8ebe"/>
      </g>
    </g>
    <g id="Group_395" data-name="Group 395" transform="translate(25.312 27.622)">
      <g id="Group_394" data-name="Group 394">
        <path id="Path_322" data-name="Path 322" d="M277.652,301.227h-13.42v1.956h17.88v-1.956Z" transform="translate(-264.232 -301.227)" fill="#6a8ebe"/>
      </g>
    </g>
    <g id="Group_397" data-name="Group 397" transform="translate(25.234 12.735)">
      <g id="Group_396" data-name="Group 396">
        <rect id="Rectangle_78" data-name="Rectangle 78" width="2.856" height="1.956" fill="#6a8ebe"/>
      </g>
    </g>
    <g id="Group_399" data-name="Group 399" transform="translate(18.602 0.548)">
      <g id="Group_398" data-name="Group 398">
        <path id="Path_323" data-name="Path 323" d="M198.669,7.929V5.973h-6.632a.978.978,0,0,0-.978.978V20.116h4.949V18.16h-2.993V7.929Z" transform="translate(-191.059 -5.973)" fill="#6a8ebe"/>
      </g>
    </g>
    <g id="Group_401" data-name="Group 401" transform="translate(1.192 12.735)">
      <g id="Group_400" data-name="Group 400" transform="translate(0)">
        <rect id="Rectangle_79" data-name="Rectangle 79" width="4.46" height="1.956" fill="#6a8ebe"/>
      </g>
    </g>
    <g id="Group_403" data-name="Group 403" transform="translate(7.374 12.735)">
      <g id="Group_402" data-name="Group 402">
        <rect id="Rectangle_80" data-name="Rectangle 80" width="4.265" height="1.956" fill="#6a8ebe"/>
      </g>
    </g>
    <g id="Group_405" data-name="Group 405" transform="translate(13.79 31.73)">
      <g id="Group_404" data-name="Group 404" transform="translate(0)">
        <path id="Path_324" data-name="Path 324" d="M138.579,346.027v10.407h1.956V346.027Z" transform="translate(-138.579 -346.027)" fill="#6a8ebe"/>
      </g>
    </g>
    <g id="Group_407" data-name="Group 407" transform="translate(18.172 32.434)">
      <g id="Group_406" data-name="Group 406">
        <path id="Path_325" data-name="Path 325" d="M194.034,362.431v-8.725h-1.956v7.825h-5.712v1.956h6.612a.977.977,0,0,0,1.056-1.056Z" transform="translate(-186.366 -353.706)" fill="#6a8ebe"/>
      </g>
    </g>
    <g id="Group_409" data-name="Group 409" transform="translate(16.294 27.622)">
      <g id="Group_408" data-name="Group 408" transform="translate(0)">
        <path id="Path_326" data-name="Path 326" d="M168.194,301.227h-2.308v1.956h2.308v8.646h1.956v-10.6Z" transform="translate(-165.886 -301.227)" fill="#6a8ebe"/>
      </g>
    </g>
    <g id="Group_411" data-name="Group 411" transform="translate(23.825 4.46)">
      <g id="Group_410" data-name="Group 410">
        <rect id="Rectangle_81" data-name="Rectangle 81" width="1.956" height="4.988" fill="#6a8ebe"/>
      </g>
    </g>
    <g id="Group_413" data-name="Group 413" transform="translate(28.638 32.434)">
      <g id="Group_412" data-name="Group 412">
        <rect id="Rectangle_82" data-name="Rectangle 82" width="1.956" height="9.703" fill="#6a8ebe"/>
      </g>
    </g>
    <g id="Group_415" data-name="Group 415" transform="translate(28.638 24.218)">
      <g id="Group_414" data-name="Group 414">
        <rect id="Rectangle_83" data-name="Rectangle 83" width="1.956" height="2.836" fill="#6a8ebe"/>
      </g>
    </g>
    <g id="Group_417" data-name="Group 417" transform="translate(28.638 17.547)">
      <g id="Group_416" data-name="Group 416">
        <path id="Path_327" data-name="Path 327" d="M313.723,191.36H300.5v4.988h1.956v-3.032h10.29v5.673H314.7v-6.651A.978.978,0,0,0,313.723,191.36Z" transform="translate(-300.499 -191.36)" fill="#6a8ebe"/>
      </g>
    </g>
    <g id="Group_419" data-name="Group 419" transform="translate(28.638 0.176)">
      <g id="Group_418" data-name="Group 418">
        <rect id="Rectangle_84" data-name="Rectangle 84" width="1.956" height="4.46" fill="#6a8ebe"/>
      </g>
    </g>
    <g id="Group_421" data-name="Group 421" transform="translate(28.638 6.299)">
      <g id="Group_420" data-name="Group 420">
        <path id="Path_328" data-name="Path 328" d="M302.455,75.129V68.693H300.5v8.392h14.554V75.129Z" transform="translate(-300.499 -68.693)" fill="#6a8ebe"/>
      </g>
    </g>
    <g id="Group_423" data-name="Group 423" transform="translate(13.79 0.176)">
      <g id="Group_422" data-name="Group 422" transform="translate(0)">
        <rect id="Rectangle_85" data-name="Rectangle 85" width="1.956" height="14.515" fill="#6a8ebe"/>
      </g>
    </g>
  </g>
</svg>
