<svg viewBox="0 0 24 24" fill="currentColor" xmlns="http://www.w3.org/2000/svg">
<g opacity="0.7">
<path opacity="0.44" d="M3.78558 10.5713H8.78549C9.25908 10.5713 9.71328 10.3831 10.0482 10.0483C10.383 9.71339 10.5712 9.25919 10.5712 8.7856V3.78568C10.5712 3.31209 10.383 2.8579 10.0482 2.52301C9.71328 2.18813 9.25908 2 8.78549 2H3.78558C3.31199 2 2.8578 2.18813 2.52291 2.52301C2.18803 2.8579 1.9999 3.31209 1.9999 3.78568V8.7856C1.9999 9.25919 2.18803 9.71339 2.52291 10.0483C2.8578 10.3831 3.31199 10.5713 3.78558 10.5713ZM4.85699 4.85709H7.71408V7.71419H4.85699V4.85709Z" fill="currentColor"/>
<path opacity="0.44" d="M3.78558 21.999H8.78549C9.25908 21.999 9.71328 21.8109 10.0482 21.476C10.383 21.1411 10.5712 20.6869 10.5712 20.2133V15.2134C10.5712 14.7398 10.383 14.2856 10.0482 13.9507C9.71328 13.6159 9.25908 13.4277 8.78549 13.4277H3.78558C3.31199 13.4277 2.8578 13.6159 2.52291 13.9507C2.18803 14.2856 1.9999 14.7398 1.9999 15.2134V20.2133C1.9999 20.6869 2.18803 21.1411 2.52291 21.476C2.8578 21.8109 3.31199 21.999 3.78558 21.999ZM4.85699 16.2848H7.71408V19.1419H4.85699V16.2848Z" fill="currentColor"/>
<path opacity="0.44" d="M15.2142 10.5713H20.2141C20.6877 10.5713 21.1419 10.3831 21.4768 10.0483C21.8117 9.71339 21.9998 9.25919 21.9998 8.7856V3.78568C21.9998 3.31209 21.8117 2.8579 21.4768 2.52301C21.1419 2.18813 20.6877 2 20.2141 2H15.2142C14.7406 2 14.2864 2.18813 13.9516 2.52301C13.6167 2.8579 13.4285 3.31209 13.4285 3.78568V8.7856C13.4285 9.25919 13.6167 9.71339 13.9516 10.0483C14.2864 10.3831 14.7406 10.5713 15.2142 10.5713ZM16.2856 4.85709H19.1427V7.71419H16.2856V4.85709Z" fill="currentColor"/>
<path d="M19.143 16.2861H16.286V19.1432H19.143V16.2861Z" fill="currentColor"/>
<path d="M21.9994 14.142C21.9994 13.9526 21.9242 13.7709 21.7902 13.6369C21.6563 13.503 21.4746 13.4277 21.2852 13.4277H19.1423V16.2848H21.9994V14.142Z" fill="currentColor"/>
<path d="M14.1428 13.4277C13.9534 13.4277 13.7717 13.503 13.6377 13.6369C13.5038 13.7709 13.4285 13.9526 13.4285 14.142V16.2848H16.2856V13.4277H14.1428Z" fill="currentColor"/>
<path d="M21.2852 21.9994C21.4746 21.9994 21.6563 21.9242 21.7902 21.7902C21.9242 21.6563 21.9994 21.4746 21.9994 21.2852V19.1423H19.1423V21.9994H21.2852Z" fill="currentColor"/>
<path d="M14.1428 21.9994H16.2856V19.1423H13.4285V21.2852C13.4285 21.4746 13.5038 21.6563 13.6377 21.7902C13.7717 21.9242 13.9534 21.9994 14.1428 21.9994Z" fill="currentColor"/>
</g>
</svg>
