<svg viewBox="0 0 24 24" fill="none" xmlns="http://www.w3.org/2000/svg">
<g opacity="0.7">
<rect opacity="0.44" x="2" y="2" width="10" height="20" fill="currentColor"/>
<path fill-rule="evenodd" clip-rule="evenodd" d="M19.5 4.5H15.75C15.75 4.5 14.5 4.28553 14.5 3.25C14.5 2.21447 15.75 2 15.75 2H22V8.25C22 8.25 22 9.5 20.75 9.5C19.5 9.5 19.5 8.25 19.5 8.25V4.5ZM8.25 19.5H4.5V15.75C4.5 15.75 4.5 14.5 3.25 14.5C2 14.5 2 15.75 2 15.75V22H8.25C8.25 22 9.5 21.7855 9.5 20.75C9.5 19.7145 8.25 19.5 8.25 19.5ZM19.5 15.75V19.5H15.75C15.75 19.5 14.5 19.5 14.5 20.75C14.5 22 15.75 22 15.75 22H22V15.75C22 15.75 21.7855 14.5 20.75 14.5C19.7145 14.5 19.5 15.75 19.5 15.75ZM4.5 8.25V4.5H8.25C8.25 4.5 9.5 4.5 9.5 3.25C9.5 2 8.25 2 8.25 2H2V8.25C2 8.25 2.21447 9.5 3.25 9.5C4.28553 9.5 4.5 8.25 4.5 8.25Z" fill="currentColor"/>
</g>
</svg>
