<svg viewBox="0 0 48 48" fill="none" xmlns="http://www.w3.org/2000/svg">
<g opacity="0.7">
<rect fill="currentColor" opacity="0.44" x="4" y="4" width="20" height="40"/>
<path fill="currentColor" fill-rule="evenodd" clip-rule="evenodd" d="M39 9H31.5C31.5 9 29 8.57107 29 6.5C29 4.42893 31.5 4 31.5 4H44V16.5C44 16.5 44 19 41.5 19C39 19 39 16.5 39 16.5V9ZM16.5 39H9V31.5C9 31.5 9 29 6.5 29C4 29 4 31.5 4 31.5V44H16.5C16.5 44 19 43.5711 19 41.5C19 39.4289 16.5 39 16.5 39ZM39 31.5V39H31.5C31.5 39 29 39 29 41.5C29 44 31.5 44 31.5 44H44V31.5C44 31.5 43.5711 29 41.5 29C39.4289 29 39 31.5 39 31.5ZM9 16.5V9H16.5C16.5 9 19 9 19 6.5C19 4 16.5 4 16.5 4H4V16.5C4 16.5 4.42893 19 6.5 19C8.57107 19 9 16.5 9 16.5Z"/>
</g>
</svg>
