<svg viewBox="0 0 32 24" fill="none" xmlns="http://www.w3.org/2000/svg">
<g opacity="0.75">
<path d="M7.9788 7.72438C7.9788 8.37052 7.63554 8.72388 6.9894 8.72388C6.35336 8.72388 6 8.37052 6 7.72438V5.27108C6 3.12065 7.13074 2 9.31146 2H11.7648C12.4109 2 12.7643 2.35336 12.7643 2.9894C12.7643 3.62544 12.4109 3.9788 11.7648 3.9788H9.43261C8.49369 3.9788 7.9788 4.4634 7.9788 5.44271V7.72438Z" fill="currentColor"/>
<path d="M26 7.72438C26 8.37052 25.6567 8.72388 25.0106 8.72388C24.3746 8.72388 24.0212 8.37052 24.0212 7.72438V5.44271C24.0212 4.4634 23.4962 3.9788 22.5674 3.9788H20.2352C19.5891 3.9788 19.2357 3.62544 19.2357 2.9894C19.2357 2.35336 19.5891 2 20.2352 2H22.6885C24.8693 2 26 3.12065 26 5.27108V7.72438Z" fill="currentColor"/>
<path d="M11.7648 22H9.31146C7.13074 22 6 20.8794 6 18.7188V16.2655C6 15.6194 6.34326 15.266 6.9894 15.266C7.62544 15.266 7.9788 15.6194 7.9788 16.2655V18.5472C7.9788 19.5366 8.49369 20.0212 9.43261 20.0212H11.7648C12.4109 20.0212 12.7643 20.3746 12.7643 21.0106C12.7643 21.6466 12.4109 22 11.7648 22Z" fill="currentColor"/>
<path d="M22.6885 22H20.2352C19.5891 22 19.2357 21.6466 19.2357 21.0106C19.2357 20.3746 19.5891 20.0212 20.2352 20.0212H22.5674C23.4962 20.0212 24.0212 19.5366 24.0212 18.5472V16.2655C24.0212 15.6295 24.3645 15.266 25.0106 15.266C25.6466 15.266 26 15.6194 26 16.2655V18.7188C26 20.8794 24.8693 22 22.6885 22Z" fill="currentColor"/>
<path d="M7 10.8889C6.44772 10.8889 6 11.3366 6 11.8889C6 12.4412 6.44771 12.8889 7 12.8889H25C25.5523 12.8889 26 12.4412 26 11.8889C26 11.3366 25.5523 10.8889 25 10.8889H7Z" fill="currentColor"/>
</g>
</svg>
