<svg xmlns="http://www.w3.org/2000/svg" viewBox="0 0 24 24" fill="none"><path fill="currentColor" fill-rule="evenodd" d="M3 8.9c.4 0 .7-.1.9-.3.2-.2.3-.5.3-.8V5.5c0-.5 0-.8.3-1 .2-.2.5-.3 1-.3h2.3c.3 0 .6-.1.8-.3.2-.2.3-.5.3-.8 0-.4-.1-.6-.3-.8-.2-.2-.5-.3-.8-.3H5.4c-1.1 0-2 .3-2.5.8-.6.6-.9 1.5-.9 2.5v2.5c0 .3 0 .6.3.8.2.2.4.3.8.3ZM21 8.9c.3 0 .5-.1.7-.3.2-.2.3-.5.3-.8V5.3c0-1-.3-1.9-.9-2.5-.5-.5-1.4-.8-2.5-.8h-2.4c-.3 0-.6 0-.8.3a1 1 0 0 0-.3.8c0 .3.1.6.3.8.2.2.5.3.8.3h2.3c.4 0 .8 0 1 .3.2.2.3.5.3 1v2.3c0 .3.1.6.3.8.2.2.5.3.8.3ZM5.4 22h2.4c.3 0 .6 0 .8-.3.2-.2.3-.4.3-.8 0-.3-.1-.6-.3-.8-.2-.2-.5-.3-.8-.3H5.5c-.5 0-.8 0-1-.3-.2-.2-.3-.5-.3-1v-2.3c0-.3-.1-.6-.3-.8a1 1 0 0 0-.8-.3 1 1 0 0 0-.8.3c-.2.2-.3.5-.3.8v2.5c0 1 .3 1.9.9 2.4.5.6 1.4.9 2.5.9ZM16.2 22h2.4c1.1 0 2-.3 2.5-.9.6-.5.9-1.4.9-2.4v-2.5c0-.3 0-.6-.3-.8a1 1 0 0 0-.8-.3 1 1 0 0 0-.8.3c-.2.2-.3.5-.3.8v2.3c0 .5 0 .8-.3 1-.2.2-.6.3-1 .3h-2.3c-.3 0-.6.1-.8.3a1 1 0 0 0-.3.8c0 .4.1.6.3.8.2.2.5.3.8.3ZM3 10.8A1 1 0 1 0 3 13h18a1 1 0 1 0 0-2.2H3Z" clip-rule="evenodd"/></svg>