<svg viewBox="0 0 24 24" fill="none" xmlns="http://www.w3.org/2000/svg">
<path stroke="currentColor" opacity="0.44" d="M21.5 12C21.5 17.2467 17.2467 21.5 12 21.5C6.75329 21.5 2.5 17.2467 2.5 12C2.5 6.75329 6.75329 2.5 12 2.5C17.2467 2.5 21.5 6.75329 21.5 12Z"/>
<path fill="currentColor" d="M11.5 18C11.3674 18 11.2402 17.9473 11.1464 17.8535C11.0527 17.7597 11 17.6326 11 17.5V16.5C11 16.3673 11.0527 16.2402 11.1464 16.1464C11.2402 16.0526 11.3674 16 11.5 16H12.5C12.6326 16 12.7598 16.0526 12.8536 16.1464C12.9473 16.2402 13 16.3673 13 16.5V17.5C13 17.6326 12.9473 17.7597 12.8536 17.8535C12.7598 17.9473 12.6326 18 12.5 18H11.5ZM10.591 14.868V13.209H11.851C12.2191 13.2146 12.5846 13.1452 12.925 13.0049C13.2654 12.8647 13.5737 12.6565 13.831 12.3932C14.0883 12.1299 14.2893 11.8169 14.4217 11.4734C14.5541 11.1298 14.6151 10.7629 14.601 10.395C14.6151 10.027 14.5541 9.66012 14.4217 9.31656C14.2893 8.973 14.0883 8.66002 13.831 8.3967C13.5737 8.13338 13.2654 7.92524 12.925 7.78499C12.5846 7.64474 12.2191 7.57532 11.851 7.58096C11.4833 7.57378 11.1181 7.64231 10.7781 7.78229C10.4381 7.92227 10.1305 8.1307 9.87442 8.39463C9.61837 8.65856 9.41935 8.97234 9.28973 9.31646C9.16012 9.66058 9.10269 10.0277 9.121 10.395H7.336C7.33062 9.8025 7.44404 9.21498 7.66957 8.6671C7.89509 8.11923 8.22814 7.62211 8.64904 7.20513C9.06994 6.78815 9.57015 6.45976 10.1201 6.23936C10.6701 6.01897 11.2586 5.91104 11.851 5.92196C12.4444 5.91061 13.0341 6.0181 13.5854 6.23809C14.1367 6.45808 14.6384 6.78613 15.061 7.20294C15.4835 7.61974 15.8185 8.11686 16.046 8.66505C16.2736 9.21324 16.3892 9.80142 16.386 10.395C16.3892 10.9885 16.2736 11.5767 16.046 12.1249C15.8185 12.673 15.4835 13.1702 15.061 13.587C14.6384 14.0038 14.1367 14.3318 13.5854 14.5518C13.0341 14.7718 12.4444 14.8793 11.851 14.868H10.591Z"/>
</svg>
