<svg width="20" height="20" viewBox="0 0 20 20" fill="none" xmlns="http://www.w3.org/2000/svg">
<path d="M10 19.9999C15.4695 19.9999 20 15.4791 20 9.99994C20 4.53043 15.4695 -6.10352e-05 9.99032 -6.10352e-05C4.52081 -6.10352e-05 0 4.53043 0 9.99994C0 15.4791 4.53049 19.9999 10 19.9999ZM10 18.0348C5.54695 18.0348 1.97483 14.453 1.97483 9.99994C1.97483 5.54689 5.53727 1.97477 9.99032 1.97477C14.4434 1.97477 18.0252 5.54689 18.0348 9.99994C18.0348 14.453 14.453 18.0348 10 18.0348ZM9.77735 11.9264C10.3098 11.9264 10.6486 11.6263 10.6776 11.2294C10.6776 11.1906 10.6776 11.1422 10.6776 11.1132C10.7067 10.6098 11.0552 10.271 11.6844 9.86441C12.6331 9.23518 13.2527 8.68338 13.2527 7.56044C13.2527 5.94379 11.8006 5.02414 10.0871 5.02414C8.43175 5.02414 7.29913 5.77922 6.99903 6.68919C6.94095 6.85376 6.91191 7.01833 6.91191 7.19258C6.91191 7.65725 7.27977 7.94766 7.66699 7.94766C8.02517 7.94766 8.2575 7.80246 8.45111 7.54108L8.606 7.34747C8.92546 6.81504 9.39013 6.5343 9.97096 6.5343C10.7551 6.5343 11.2875 6.99897 11.2875 7.65725C11.2875 8.26712 10.8809 8.56722 10.0581 9.13837C9.37076 9.61272 8.86738 10.1161 8.86738 10.997V11.1035C8.86738 11.6456 9.19652 11.9264 9.77735 11.9264ZM9.76767 14.8983C10.3872 14.8983 10.9003 14.4433 10.9003 13.8334C10.9003 13.2236 10.3872 12.7783 9.76767 12.7783C9.13843 12.7783 8.63504 13.2332 8.63504 13.8334C8.63504 14.4433 9.14811 14.8983 9.76767 14.8983Z" fill="currentColor"/>
</svg>
