<svg viewBox="0 0 24 24" fill="none" xmlns="http://www.w3.org/2000/svg">
<g opacity="0.5">
<path d="M12 22C17.4695 22 22 17.4792 22 12C22 6.53049 17.4695 2 11.9903 2C6.52081 2 2 6.53049 2 12C2 17.4792 6.53049 22 12 22ZM12 20.0348C7.54695 20.0348 3.97483 16.453 3.97483 12C3.97483 7.54695 7.53727 3.97483 11.9903 3.97483C16.4434 3.97483 20.0252 7.54695 20.0348 12C20.0348 16.453 16.453 20.0348 12 20.0348ZM11.7773 13.9264C12.3098 13.9264 12.6486 13.6263 12.6776 13.2294C12.6776 13.1907 12.6776 13.1423 12.6776 13.1133C12.7067 12.6099 13.0552 12.2711 13.6844 11.8645C14.6331 11.2352 15.2527 10.6834 15.2527 9.5605C15.2527 7.94385 13.8006 7.0242 12.0871 7.0242C10.4318 7.0242 9.29913 7.77928 8.99903 8.68925C8.94095 8.85382 8.91191 9.01839 8.91191 9.19264C8.91191 9.65731 9.27977 9.94772 9.66699 9.94772C10.0252 9.94772 10.2575 9.80252 10.4511 9.54114L10.606 9.34753C10.9255 8.8151 11.3901 8.53437 11.971 8.53437C12.7551 8.53437 13.2875 8.99903 13.2875 9.65731C13.2875 10.2672 12.8809 10.5673 12.0581 11.1384C11.3708 11.6128 10.8674 12.1162 10.8674 12.9971V13.1036C10.8674 13.6457 11.1965 13.9264 11.7773 13.9264ZM11.7677 16.8984C12.3872 16.8984 12.9003 16.4434 12.9003 15.8335C12.9003 15.2236 12.3872 14.7783 11.7677 14.7783C11.1384 14.7783 10.635 15.2333 10.635 15.8335C10.635 16.4434 11.1481 16.8984 11.7677 16.8984Z" fill="currenColor"/>
</g>
</svg>
