<svg viewBox="0 0 48 48" fill="none" xmlns="http://www.w3.org/2000/svg">
<path fill="currentColor" opacity="0.44" d="M24 44C35.0457 44 44 35.0457 44 24C44 12.9543 35.0457 4 24 4C12.9543 4 4 12.9543 4 24C4 35.0457 12.9543 44 24 44Z"/>
<path fill="currentColor" d="M23 36C22.7348 36 22.4804 35.8947 22.2929 35.7071C22.1054 35.5196 22 35.2652 22 35V33C22 32.7348 22.1054 32.4804 22.2929 32.2929C22.4804 32.1054 22.7348 32 23 32H25C25.2652 32 25.5196 32.1054 25.7071 32.2929C25.8946 32.4804 26 32.7348 26 33V35C26 35.2652 25.8946 35.5196 25.7071 35.7071C25.5196 35.8947 25.2652 36 25 36H23ZM21.182 29.736V26.418H23.702C24.4383 26.4293 25.1691 26.2904 25.85 26.0099C26.5308 25.7294 27.1474 25.3132 27.662 24.7865C28.1767 24.2599 28.5787 23.6339 28.8434 22.9468C29.1082 22.2597 29.2302 21.5258 29.202 20.79C29.2302 20.0542 29.1082 19.3203 28.8434 18.6332C28.5787 17.9461 28.1767 17.3201 27.662 16.7935C27.1474 16.2668 26.5308 15.8506 25.85 15.5701C25.1691 15.2896 24.4383 15.1507 23.702 15.162C22.9667 15.1476 22.2363 15.2847 21.5562 15.5647C20.8761 15.8446 20.2609 16.2615 19.7488 16.7894C19.2367 17.3172 18.8387 17.9448 18.5795 18.633C18.3202 19.3213 18.2054 20.0555 18.242 20.79H14.672C14.6612 19.6051 14.8881 18.4301 15.3391 17.3343C15.7902 16.2385 16.4563 15.2443 17.2981 14.4104C18.1399 13.5764 19.1403 12.9196 20.2402 12.4788C21.3401 12.038 22.5172 11.8222 23.702 11.844C24.8889 11.8213 26.0683 12.0363 27.1708 12.4763C28.2734 12.9163 29.2768 13.5724 30.1219 14.406C30.9671 15.2396 31.6369 16.2338 32.092 17.3302C32.5472 18.4266 32.7784 19.6029 32.772 20.79C32.7784 21.9771 32.5472 23.1534 32.092 24.2498C31.6369 25.3462 30.9671 26.3404 30.1219 27.174C29.2768 28.0076 28.2734 28.6638 27.1708 29.1037C26.0683 29.5437 24.8889 29.7587 23.702 29.736H21.182Z"/>
</svg>
