<svg viewBox="0 0 40 40" fill="none" xmlns="http://www.w3.org/2000/svg"><circle opacity=".4" cx="20" cy="20" r="20" fill="currentColor"/><path d="M19.392 24.644c1.258-.004 2.056-.716 2.121-1.654l-.001-.275c.064-1.19.885-1.993 2.369-2.959 2.236-1.494 3.695-2.803 3.686-5.456-.013-3.82-3.452-5.981-7.5-5.967-3.912.014-6.582 1.807-7.283 3.96-.136.389-.203.778-.202 1.19.004 1.098.875 1.78 1.79 1.778.847-.003 1.395-.348 1.85-.967l.364-.46c.75-1.26 1.846-1.927 3.219-1.932 1.852-.006 3.114 1.087 3.12 2.643.005 1.44-.954 2.153-2.893 3.51-1.62 1.126-2.805 2.32-2.798 4.4v.253c.005 1.28.785 1.941 2.158 1.936zm.001 7.022c1.464-.005 2.673-1.084 2.668-2.525-.006-1.441-1.221-2.489-2.685-2.484-1.487.005-2.673 1.084-2.668 2.503.005 1.44 1.221 2.511 2.685 2.506z" fill="currentColor"/></svg>