<svg viewBox="0 0 24 24" fill="none" xmlns="http://www.w3.org/2000/svg"><path d="M12 22c5.47 0 10-4.52 10-10 0-5.47-4.53-10-10.01-10C6.52 2 2 6.53 2 12c0 5.48 4.53 10 10 10zm0-1.965A8.007 8.007 0 0 1 3.975 12a7.99 7.99 0 0 1 8.015-8.025A8.021 8.021 0 0 1 20.035 12 8.015 8.015 0 0 1 12 20.035z" fill="currentColor"/><path d="M11.699 13.991c.54-.002.881-.307.91-.709l-.001-.117c.027-.51.38-.855 1.015-1.269.959-.64 1.584-1.201 1.58-2.339-.006-1.637-1.48-2.563-3.215-2.557-1.676.006-2.82.775-3.121 1.697a1.508 1.508 0 0 0-.087.51c.002.47.376.764.768.762.362 0 .597-.149.792-.414l.156-.197c.322-.54.792-.826 1.38-.828.794-.003 1.335.466 1.337 1.132.002.618-.408.923-1.24 1.505-.694.483-1.202.994-1.199 1.886v.108c.002.55.337.832.925.83zm0 3.01c.628-.002 1.146-.465 1.144-1.082-.002-.618-.523-1.067-1.15-1.065-.638.002-1.146.465-1.144 1.073.002.617.523 1.076 1.15 1.074z" fill="currentColor"/></svg>