<svg viewBox="0 0 24 24" fill="none" xmlns="http://www.w3.org/2000/svg">
<path opacity="0.44" d="M2.706 7.80739H21.296C21.294 7.72839 21.302 7.65139 21.281 7.57139L19.986 2.74139C19.843 2.20739 19.295 1.89139 18.761 2.03439L3.304 6.17939C2.771 6.32239 2.454 6.87039 2.597 7.40439L2.706 7.80739Z" fill="currentColor"/>
<path d="M20 6H4C2.895 6 2 6.895 2 8V11.337V17.663V20C2 21.105 2.895 22 4 22H20C21.105 22 22 21.105 22 20V17.663V11.337V8C22 6.895 21.105 6 20 6ZM11.433 19.022C11.322 19.022 11.217 18.978 11.138 18.9C11.06 18.822 11.016 18.716 11.016 18.605V14.855H7.266C7.155 14.855 7.05 14.811 6.971 14.733C6.893 14.655 6.849 14.549 6.849 14.438V13.605C6.849 13.494 6.893 13.389 6.971 13.31C7.049 13.232 7.155 13.188 7.266 13.188H11.016V9.438C11.016 9.327 11.06 9.222 11.138 9.143C11.217 9.066 11.323 9.022 11.433 9.022H12.266C12.377 9.022 12.482 9.066 12.561 9.144C12.639 9.222 12.683 9.328 12.683 9.439V13.189H16.433C16.544 13.189 16.65 13.233 16.728 13.311C16.806 13.389 16.85 13.495 16.85 13.606V14.439C16.85 14.55 16.806 14.655 16.728 14.734C16.65 14.812 16.544 14.856 16.433 14.856H12.683V18.606C12.683 18.716 12.639 18.822 12.561 18.901C12.483 18.978 12.377 19.022 12.267 19.022H11.433Z" fill="currentColor"/>
</svg>
