<svg viewBox="0 0 17 17" fill="none" xmlns="http://www.w3.org/2000/svg">
<circle opacity="0.5" cx="8.50016" cy="8.24998" r="6.66667" fill="currentColor"/>
<path d="M4.5 8.39293C4.49979 8.02697 4.54964 7.6627 4.64819 7.31026L5.38191 7.51598C5.18682 8.21199 5.23051 8.95329 5.506 9.62157C5.7815 10.2898 6.27292 10.8466 6.90183 11.2029C7.53074 11.5592 8.26089 11.6946 8.97573 11.5874C9.69058 11.4802 10.3489 11.1367 10.8457 10.6116C11.3424 10.0865 11.649 9.41012 11.7164 8.69044C11.7838 7.97075 11.6081 7.24923 11.2175 6.64103C10.8269 6.03284 10.2438 5.57303 9.56123 5.335C8.87872 5.09696 8.13613 5.09442 7.452 5.32779L7.90571 5.86836C7.92848 5.89544 7.94326 5.92832 7.94838 5.96332C7.95351 5.99832 7.94879 6.03406 7.93475 6.06653C7.92071 6.09901 7.89791 6.12692 7.86889 6.14716C7.83988 6.1674 7.8058 6.17916 7.77048 6.18112L5.91638 6.28588C5.88665 6.28777 5.85689 6.28265 5.8295 6.27095C5.8021 6.25925 5.77783 6.24128 5.75864 6.2185C5.73945 6.19571 5.72587 6.16874 5.71899 6.13976C5.71212 6.11077 5.71214 6.08057 5.71905 6.0516L6.15029 4.24931C6.15851 4.21508 6.17606 4.1838 6.20099 4.15894C6.22592 4.13407 6.25725 4.11661 6.29151 4.10848C6.32576 4.10035 6.3616 4.10187 6.39504 4.11288C6.42849 4.12389 6.45822 4.14395 6.48095 4.17084L6.93429 4.71255C7.72546 4.37601 8.60402 4.30335 9.43974 4.50534C10.2755 4.70733 11.0238 5.17323 11.574 5.83397C12.1241 6.49471 12.4467 7.31512 12.494 8.1736C12.5412 9.03209 12.3106 9.88294 11.8363 10.6001C11.3619 11.3172 10.6692 11.8624 9.86068 12.1548C9.05217 12.4473 8.17094 12.4715 7.34761 12.2238C6.52429 11.9761 5.80268 11.4697 5.28976 10.7797C4.77684 10.0896 4.4999 9.25271 4.5 8.39293Z" fill="currentColor"/>
</svg>
