<svg viewBox="0 0 25 24" fill="none" xmlns="http://www.w3.org/2000/svg"><path d="M22.672 10.952h-1.218C20.941 6.54 17.113 3 12.502 3a8.795 8.795 0 0 0-6.464 2.854c-.426.417-.409.974-.06 1.296.356.33.87.33 1.304-.07a7.097 7.097 0 0 1 5.22-2.28 7.178 7.178 0 0 1 7.134 6.152h-1.331c-.67 0-.853.496-.461 1.035l2.08 2.94c.321.436.808.444 1.121 0l2.088-2.931c.392-.548.218-1.044-.46-1.044zm-10.161 2.48c.478 0 .748-.27.765-.775l.13-4.185c.018-.513-.365-.878-.904-.878-.54 0-.913.356-.896.87l.122 4.201c.017.496.296.766.783.766zm-10.179-.384h1.227C4.072 17.46 7.899 21 12.502 21a8.813 8.813 0 0 0 6.481-2.862c.418-.418.4-.975.053-1.297-.357-.33-.862-.33-1.305.079a7.045 7.045 0 0 1-5.229 2.28 7.175 7.175 0 0 1-7.125-6.152h1.322c.661 0 .853-.496.461-1.035l-2.088-2.94c-.313-.435-.8-.444-1.113 0L1.87 12.003c-.4.548-.218 1.044.461 1.044zm10.179 3.272c.565 0 1.026-.41 1.026-.957 0-.557-.46-.957-1.026-.957-.566 0-1.027.408-1.027.957 0 .548.47.957 1.027.957z" fill="currentColor"/></svg>