<svg viewBox="0 0 21 20" fill="none" xmlns="http://www.w3.org/2000/svg">
  <circle opacity="0.5" cx="10.7498" cy="10" r="8.33333" fill="currentColor"/>
  <path d="M5.74976 10.1787C5.74949 9.72121 5.81181 9.26588 5.93499 8.82533L6.85214 9.08247C6.60828 9.95249 6.66289 10.8791 7.00726 11.7145C7.35163 12.5498 7.96591 13.2457 8.75204 13.6911C9.53818 14.1365 10.4509 14.3057 11.3444 14.1718C12.238 14.0378 13.0609 13.6084 13.6818 12.952C14.3028 12.2956 14.686 11.4502 14.7702 10.5505C14.8545 9.65094 14.6349 8.74904 14.1466 7.98879C13.6583 7.22855 12.9294 6.65379 12.0763 6.35625C11.2232 6.0587 10.2949 6.05553 9.43976 6.34723L10.0069 7.02295C10.0354 7.0568 10.0538 7.0979 10.0602 7.14165C10.0666 7.18541 10.0607 7.23008 10.0432 7.27067C10.0256 7.31126 9.99714 7.34616 9.96087 7.37145C9.9246 7.39675 9.882 7.41145 9.83785 7.4139L7.52023 7.54485C7.48307 7.54721 7.44587 7.54082 7.41163 7.52619C7.37738 7.51156 7.34705 7.4891 7.32306 7.46062C7.29907 7.43214 7.28209 7.39843 7.2735 7.36219C7.2649 7.32596 7.26493 7.28822 7.27357 7.252L7.81261 4.99914C7.82289 4.95635 7.84483 4.91724 7.876 4.88617C7.90716 4.85509 7.94632 4.83326 7.98914 4.8231C8.03196 4.81294 8.07676 4.81484 8.11856 4.8286C8.16036 4.84236 8.19753 4.86744 8.22595 4.90104L8.79261 5.57819C9.78159 5.15751 10.8798 5.06668 11.9244 5.31918C12.9691 5.57167 13.9046 6.15404 14.5922 6.97996C15.2799 7.80588 15.6831 8.8314 15.7422 9.9045C15.8013 10.9776 15.513 12.0412 14.9201 12.9376C14.3272 13.834 13.4612 14.5155 12.4506 14.881C11.44 15.2466 10.3384 15.2769 9.30927 14.9672C8.28011 14.6576 7.37811 14.0246 6.73696 13.1621C6.09581 12.2996 5.74964 11.2534 5.74976 10.1787V10.1787Z" fill="currentColor"/>
</svg>
