<svg viewBox="0 0 24 24" fill="none" xmlns="http://www.w3.org/2000/svg">
<path d="M10.603 17.126C11.9371 17.126 13.1872 16.7233 14.2276 16.0353L17.9025 19.7186C18.1458 19.9535 18.4562 20.0709 18.7918 20.0709C19.4882 20.0709 20 19.5256 20 18.8376C20 18.5188 19.8909 18.2083 19.656 17.9734L16.0063 14.3069C16.7614 13.233 17.2061 11.9325 17.2061 10.523C17.2061 6.89003 14.236 3.91992 10.603 3.91992C6.9785 3.91992 4 6.89003 4 10.523C4 14.1559 6.97011 17.126 10.603 17.126ZM10.603 15.3641C7.94337 15.3641 5.76193 13.1826 5.76193 10.523C5.76193 7.86329 7.94337 5.68185 10.603 5.68185C13.2627 5.68185 15.4442 7.86329 15.4442 10.523C15.4442 13.1826 13.2627 15.3641 10.603 15.3641Z" fill="currentColor"/>
</svg>
