<svg viewBox="0 0 24 24" fill="none" xmlns="http://www.w3.org/2000/svg">
<g opacity="0.7">
<path opacity="0.44" d="M14.293 16.707C14.1109 16.5184 14.0101 16.2658 14.0123 16.0036C14.0146 15.7414 14.1198 15.4906 14.3052 15.3052C14.4906 15.1198 14.7414 15.0146 15.0036 15.0124C15.2658 15.0101 15.5184 15.1109 15.707 15.293L19.707 19.293C19.8892 19.4816 19.99 19.7342 19.9877 19.9964C19.9854 20.2586 19.8802 20.5095 19.6948 20.6949C19.5094 20.8803 19.2586 20.9854 18.9964 20.9877C18.7342 20.99 18.4816 20.8892 18.293 20.707L14.293 16.707Z" fill="white"/>
<path d="M4 11C4 9.61553 4.41054 8.26216 5.17971 7.11101C5.94888 5.95987 7.04213 5.06266 8.32122 4.53285C9.6003 4.00303 11.0078 3.86441 12.3656 4.13451C13.7235 4.4046 14.9708 5.07129 15.9497 6.05026C16.9287 7.02922 17.5954 8.2765 17.8655 9.63437C18.1356 10.9922 17.997 12.3997 17.4672 13.6788C16.9373 14.9579 16.0401 16.0511 14.889 16.8203C13.7378 17.5895 12.3845 18 11 18C9.14348 18 7.36301 17.2625 6.05025 15.9497C4.7375 14.637 4 12.8565 4 11V11Z" fill="white"/>
</g>
</svg>
