<svg viewBox="0 0 40 40" xmlns="http://www.w3.org/2000/svg"><path d="M20 40c.318 0 .834-.119 1.33-.396 11.298-6.317 15.17-8.99 15.17-16.218V8.238c0-2.08-.894-2.733-2.581-3.446-2.343-.97-9.908-3.683-12.251-4.495C21.132.119 20.556 0 20 0c-.556 0-1.132.158-1.648.297-2.343.673-9.928 3.545-12.27 4.495C4.412 5.485 3.5 6.158 3.5 8.238v15.148c0 7.228 3.892 9.881 15.17 16.218.516.277 1.012.396 1.33.396zm0-3.584c-.318 0-.635-.119-1.231-.475-9.173-5.545-12.112-7.169-12.112-13.288V8.851c0-.673.12-.93.675-1.148 3.018-1.188 8.876-3.149 11.874-4.337.317-.138.576-.178.794-.178.218 0 .476.06.794.178 2.998 1.188 8.816 3.287 11.894 4.337.536.198.655.475.655 1.148v13.802c0 6.12-2.939 7.723-12.112 13.288-.576.356-.913.475-1.231.475zm-7.168-9.565c0 1.486.655 2.179 2.025 2.179h10.285c1.37 0 2.026-.693 2.026-2.179v-7.88c0-1.387-.576-2.08-1.747-2.16v-2.336c0-3.643-2.185-6.079-5.421-6.079s-5.42 2.436-5.42 6.08v2.336c-1.172.08-1.748.772-1.748 2.158v7.881zm3.812-10.059v-2.535c0-2.336 1.35-3.861 3.356-3.861 2.005 0 3.356 1.525 3.356 3.861v2.535h-6.712z" fill="currentColor"/></svg>