<svg viewBox="0 0 24 24" fill="none" xmlns="http://www.w3.org/2000/svg"><path d="M10.127 8.78v1.418h3.746V8.78c0-1.308-.754-2.16-1.873-2.16-1.12 0-1.873.852-1.873 2.16z" fill="currentColor"/><path fill-rule="evenodd" clip-rule="evenodd" d="M11.997 22c.159 0 .416-.06.664-.198 5.633-3.159 7.564-4.495 7.564-8.109V6.119c0-1.04-.446-1.367-1.287-1.723-1.168-.485-4.94-1.842-6.109-2.247A2.677 2.677 0 0 0 11.997 2c-.27 0-.55.075-.803.143l-.019.006c-1.168.336-4.95 1.772-6.118 2.247-.832.347-1.287.683-1.287 1.723v7.574c0 3.614 1.94 4.94 7.564 8.109.257.139.505.198.663.198zM9.13 17.046c-.764 0-1.13-.388-1.13-1.22v-4.41c0-.775.321-1.163.975-1.207V8.902C8.975 6.862 10.194 5.5 12 5.5c1.806 0 3.025 1.363 3.025 3.402v1.307c.654.044.975.432.975 1.208v4.41c0 .83-.366 1.219-1.13 1.219H9.13z" fill="currentColor"/></svg>