<svg viewBox="0 0 24 24" fill="none" xmlns="http://www.w3.org/2000/svg">
<path d="M10.1274 8.77976V10.198H13.8726V8.77976C13.8726 7.47229 13.1191 6.61911 12 6.61911C10.8809 6.61911 10.1274 7.47229 10.1274 8.77976Z" fill="currentColor"/>
<path fill-rule="evenodd" clip-rule="evenodd" d="M11.9972 22C12.1557 22 12.4131 21.9406 12.6606 21.802C18.2943 18.6435 20.225 17.3069 20.225 13.693V6.1188C20.225 5.0792 19.7794 4.75247 18.9378 4.39604C17.7695 3.91089 13.9973 2.55445 12.829 2.14851C12.5616 2.05941 12.2745 2 11.9972 2C11.7267 2 11.4468 2.07542 11.1942 2.14346L11.1755 2.14851C10.0071 2.48515 6.22497 3.92079 5.05666 4.39604C4.22498 4.74257 3.76953 5.0792 3.76953 6.1188V13.693C3.76953 17.3069 5.71013 18.6336 11.3339 21.802C11.5913 21.9406 11.8388 22 11.9972 22ZM9.13018 17.0457C8.36565 17.0457 8 16.6578 8 15.8268V11.4169C8 10.6412 8.32133 10.2534 8.97506 10.2091V8.90164C8.97506 6.86288 10.1939 5.5 12 5.5C13.806 5.5 15.0249 6.86288 15.0249 8.90164V10.2091C15.6786 10.2534 16 10.6412 16 11.4169V15.8268C16 16.6578 15.6343 17.0457 14.8697 17.0457H9.13018Z" fill="currentColor"/>
</svg>
