<svg viewBox="0 0 24 24" fill="none" xmlns="http://www.w3.org/2000/svg">
<g opacity="0.7">
<path opacity="0.44" d="M2.706 7.83009H21.296C21.294 7.75109 21.302 7.67409 21.281 7.59409L19.986 2.76409C19.843 2.23009 19.295 1.91409 18.761 2.05709L3.304 6.20209C2.771 6.34509 2.454 6.89309 2.597 7.42709L2.706 7.83009Z" fill="currentColor"/>
<path d="M20 5.97803H4C2.895 5.97803 2 6.87303 2 7.97803V11.315V17.641V19.978C2 21.083 2.895 21.978 4 21.978H20C21.105 21.978 22 21.083 22 19.978V17.641V11.315V7.97803C22 6.87303 21.105 5.97803 20 5.97803ZM16.85 14.014C16.848 14.086 16.828 14.154 16.805 14.22C16.799 14.239 16.8 14.26 16.792 14.278C16.762 14.348 16.715 14.41 16.664 14.468C16.655 14.479 16.65 14.493 16.64 14.503L12.354 18.789C12.219 18.919 12.039 18.991 11.852 18.99C11.665 18.988 11.486 18.913 11.353 18.781C11.221 18.649 11.145 18.469 11.144 18.282C11.142 18.095 11.214 17.914 11.345 17.78L14.412 14.713H7.564C7.17 14.713 6.85 14.393 6.85 13.999C6.85 13.605 7.17 13.285 7.564 13.285H14.512L11.681 10.196C11.558 10.056 11.495 9.87303 11.505 9.68603C11.515 9.50003 11.598 9.32503 11.736 9.19903C11.874 9.07303 12.055 9.00603 12.241 9.01203C12.427 9.01803 12.604 9.09703 12.733 9.23103L16.662 13.517C16.691 13.548 16.705 13.588 16.727 13.623C16.751 13.661 16.78 13.694 16.796 13.736C16.818 13.791 16.823 13.849 16.831 13.908C16.835 13.939 16.85 13.967 16.85 14C16.85 14.003 16.849 14.005 16.848 14.008C16.848 14.009 16.85 14.011 16.85 14.014Z" fill="currentColor"/>
</g>
</svg>
