<svg xmlns="http://www.w3.org/2000/svg" width="24" height="24" viewBox="0 0 24 24"><g transform="translate(-347 -85)"><circle cx="12" cy="12" r="12" transform="translate(347 85)" fill="#babac0" opacity="0"/><g transform="translate(351.354 89)"><path d="M8.5,16h-1a1.475,1.475,0,0,1-1.473-1.473v-.34a6.459,6.459,0,0,1-1-.416l-.241.241a1.473,1.473,0,0,1-2.083,0l-.71-.71a1.473,1.473,0,0,1,0-2.083l.241-.241a6.46,6.46,0,0,1-.416-1h-.34A1.475,1.475,0,0,1,0,8.5v-1A1.475,1.475,0,0,1,1.473,6.025h.34a6.461,6.461,0,0,1,.416-1l-.241-.241a1.473,1.473,0,0,1,0-2.083l.71-.71a1.473,1.473,0,0,1,2.083,0l.241.241a6.465,6.465,0,0,1,1-.416v-.34A1.475,1.475,0,0,1,7.5,0h1A1.475,1.475,0,0,1,9.975,1.473v.34a6.459,6.459,0,0,1,1,.416l.241-.241a1.473,1.473,0,0,1,2.083,0l.71.71a1.473,1.473,0,0,1,0,2.083l-.241.241a6.46,6.46,0,0,1,.416,1h.34A1.475,1.475,0,0,1,16,7.5v1a1.475,1.475,0,0,1-1.473,1.473h-.34a6.461,6.461,0,0,1-.416,1l.241.241a1.473,1.473,0,0,1,0,2.083l-.71.71a1.473,1.473,0,0,1-2.083,0l-.241-.241a6.465,6.465,0,0,1-1,.416v.34A1.475,1.475,0,0,1,8.5,16ZM5.179,12.787a5.525,5.525,0,0,0,1.432.595.469.469,0,0,1,.352.454v.692a.536.536,0,0,0,.535.535h1a.536.536,0,0,0,.535-.535v-.692a.469.469,0,0,1,.352-.454,5.525,5.525,0,0,0,1.432-.595.469.469,0,0,1,.57.072l.49.49a.535.535,0,0,0,.757,0l.71-.71a.535.535,0,0,0,0-.757l-.49-.49a.469.469,0,0,1-.072-.57,5.524,5.524,0,0,0,.595-1.432.469.469,0,0,1,.454-.352h.692a.536.536,0,0,0,.535-.535v-1a.536.536,0,0,0-.535-.535h-.692a.469.469,0,0,1-.454-.352,5.525,5.525,0,0,0-.595-1.432.469.469,0,0,1,.072-.57l.49-.49a.535.535,0,0,0,0-.757l-.71-.71a.535.535,0,0,0-.757,0l-.49.49a.469.469,0,0,1-.57.072,5.525,5.525,0,0,0-1.432-.595.469.469,0,0,1-.352-.454V1.473A.536.536,0,0,0,8.5.938h-1a.536.536,0,0,0-.535.535v.692a.469.469,0,0,1-.352.454,5.525,5.525,0,0,0-1.432.595.469.469,0,0,1-.57-.072l-.49-.49a.535.535,0,0,0-.757,0l-.71.71a.535.535,0,0,0,0,.757l.49.49a.469.469,0,0,1,.072.57,5.524,5.524,0,0,0-.594,1.432.469.469,0,0,1-.454.352H1.473A.536.536,0,0,0,.938,7.5v1a.536.536,0,0,0,.535.535h.692a.469.469,0,0,1,.454.352,5.525,5.525,0,0,0,.595,1.432.469.469,0,0,1-.072.57l-.49.49a.535.535,0,0,0,0,.757l.71.71a.535.535,0,0,0,.757,0l.49-.49a.471.471,0,0,1,.57-.072Z" transform="translate(0 0)" fill="#fff"/><path d="M148.081,151.563a3.481,3.481,0,1,1,3.481-3.481A3.485,3.485,0,0,1,148.081,151.563Zm0-6.025a2.544,2.544,0,1,0,2.544,2.544A2.547,2.547,0,0,0,148.081,145.538Z" transform="translate(-140.081 -140.081)" fill="#fff"/></g></g></svg>
