<svg viewBox="0 0 24 24" fill="none" xmlns="http://www.w3.org/2000/svg"><path fill-rule="evenodd" clip-rule="evenodd" d="M10.061 21.153c.102.525.525.847 1.067.847h1.744c.525 0 .948-.322 1.05-.847l.491-2.032c.339-.118.66-.254.932-.372l1.778 1.066c.44.322.982.254 1.355-.118l1.202-1.203c.372-.389.457-.948.119-1.388l-1.05-1.761a7.32 7.32 0 0 0 .355-.915l2.05-.474c.524-.119.846-.525.846-1.067v-1.71c0-.525-.322-.949-.847-1.05l-2.032-.491a8.85 8.85 0 0 0-.372-.932l1.083-1.778c.305-.457.271-.982-.118-1.372l-1.236-1.202c-.39-.356-.847-.423-1.321-.152l-1.812 1.1a8.124 8.124 0 0 0-.932-.39l-.49-2.048A1.04 1.04 0 0 0 12.872 2h-1.745c-.542 0-.965.339-1.067.88L9.57 4.897c-.322.118-.66.254-.948.39L6.843 4.201c-.474-.271-.948-.22-1.338.152L4.27 5.556c-.39.39-.423.915-.118 1.372l1.084 1.778a8.851 8.851 0 0 0-.373.932l-2.015.49c-.542.102-.847.526-.847 1.05v1.711c0 .542.305.948.847 1.067l2.032.474c.102.322.22.627.372.915l-1.066 1.76c-.322.441-.254 1 .118 1.39l1.202 1.202c.39.372.932.44 1.355.118l1.778-1.067c.271.12.61.255.932.373l.491 2.032zm5.25-9.161c0 1.812-1.49 3.319-3.32 3.319-1.811 0-3.302-1.507-3.302-3.32 0-1.795 1.49-3.285 3.303-3.285 1.828 0 3.319 1.49 3.319 3.286z" fill="currentColor"/></svg>