<svg viewBox="0 0 24 24" fill="none" xmlns="http://www.w3.org/2000/svg">
<path fill-rule="evenodd" clip-rule="evenodd" d="M20.8064 7.6307L20.184 6.5506C19.6574 5.63668 18.4905 5.3214 17.5753 5.8458V5.8458C17.1397 6.10242 16.6198 6.17523 16.1305 6.04817C15.6411 5.9211 15.2224 5.6046 14.9666 5.16845C14.8021 4.89123 14.7137 4.57547 14.7103 4.25312V4.25312C14.7251 3.7363 14.5302 3.23548 14.1698 2.86475C13.8094 2.49402 13.3143 2.28494 12.7973 2.28516H11.5433C11.0367 2.28515 10.5511 2.48699 10.1938 2.84603C9.83644 3.20506 9.63693 3.69167 9.63937 4.1982V4.1982C9.62435 5.24401 8.77224 6.08389 7.72632 6.08378C7.40397 6.08044 7.08821 5.99202 6.81099 5.82749V5.82749C5.89582 5.30309 4.72887 5.61838 4.20229 6.5323L3.5341 7.6307C3.00817 8.54347 3.31916 9.70969 4.22975 10.2394V10.2394C4.82166 10.5811 5.18629 11.2127 5.18629 11.8961C5.18629 12.5796 4.82166 13.2112 4.22975 13.5529V13.5529C3.32031 14.079 3.00898 15.2424 3.5341 16.1524V16.1524L4.16568 17.2417C4.4124 17.6869 4.82636 18.0154 5.31595 18.1545C5.80554 18.2937 6.3304 18.232 6.77438 17.9831V17.9831C7.21084 17.7284 7.73094 17.6586 8.2191 17.7893C8.70725 17.9199 9.12299 18.2401 9.37392 18.6788C9.53845 18.956 9.62686 19.2717 9.63021 19.5941V19.5941C9.63021 20.6506 10.4867 21.5071 11.5433 21.5071H12.7973C13.8502 21.5071 14.7053 20.6562 14.7103 19.6032V19.6032C14.7079 19.0951 14.9086 18.6071 15.2679 18.2478C15.6272 17.8885 16.1152 17.6877 16.6233 17.6902C16.9449 17.6988 17.2594 17.7868 17.5387 17.9465V17.9465C18.4515 18.4724 19.6177 18.1614 20.1474 17.2508V17.2508L20.8064 16.1524C21.0615 15.7146 21.1315 15.1931 21.001 14.7035C20.8704 14.2138 20.55 13.7964 20.1108 13.5437V13.5437C19.6715 13.291 19.3511 12.8737 19.2206 12.384C19.09 11.8944 19.16 11.3729 19.4151 10.935C19.581 10.6454 19.8211 10.4053 20.1108 10.2394V10.2394C21.0159 9.70997 21.3262 8.55057 20.8064 7.63985V7.63985V7.6307Z" stroke="currentColor" stroke-width="1.5" stroke-linecap="round" stroke-linejoin="round"/>
<path opacity="0.5" fill-rule="evenodd" clip-rule="evenodd" d="M12.1752 10.1691C11.2163 10.1691 10.439 10.9464 10.439 11.9053C10.439 12.8641 11.2163 13.6415 12.1752 13.6415C13.1341 13.6415 13.9114 12.8641 13.9114 11.9053C13.9114 10.9464 13.1341 10.1691 12.1752 10.1691ZM8.63904 11.9053C8.63904 9.95233 10.2222 8.36914 12.1752 8.36914C14.1282 8.36914 15.7114 9.95233 15.7114 11.9053C15.7114 13.8583 14.1282 15.4415 12.1752 15.4415C10.2222 15.4415 8.63904 13.8583 8.63904 11.9053Z" fill="currentColor"/>
</svg>
