<svg viewBox="0 0 24 24" fill="none" xmlns="http://www.w3.org/2000/svg">
<path fill-rule="evenodd" clip-rule="evenodd" d="M10.061 21.1533C10.1626 21.6782 10.5859 22 11.1279 22H12.8721C13.3971 22 13.8205 21.6782 13.9221 21.1533L14.4132 19.1211C14.7519 19.0025 15.0737 18.8671 15.3446 18.7485L17.1228 19.8154C17.5631 20.1372 18.105 20.0694 18.4776 19.6969L19.6799 18.4945C20.0525 18.105 20.1372 17.5461 19.7985 17.1058L18.7485 15.3446C18.884 15.0567 19.0025 14.7519 19.1041 14.4301L21.1533 13.956C21.6782 13.8374 22 13.431 22 12.8891V11.1787C22 10.6537 21.6782 10.2303 21.1533 10.1287L19.1211 9.6376C19.0025 9.28196 18.8671 8.9602 18.7485 8.70618L19.8323 6.92803C20.1372 6.47079 20.1033 5.94581 19.7138 5.55631L18.4776 4.35394C18.0881 3.99831 17.6308 3.93057 17.1566 4.20152L15.3446 5.30229C15.0737 5.16681 14.7519 5.03133 14.4132 4.91279L13.9221 2.86367C13.8205 2.3387 13.3971 2 12.8721 2H11.1279C10.5859 2 10.1626 2.3387 10.061 2.88061L9.56986 4.89585C9.2481 5.01439 8.9094 5.14987 8.62151 5.28535L6.84335 4.20152C6.36918 3.93057 5.895 3.98137 5.5055 4.35394L4.26926 5.55631C3.87976 5.94581 3.84589 6.47079 4.15072 6.92803L5.23455 8.70618C5.116 8.9602 4.98053 9.28196 4.86198 9.6376L2.84674 10.1287C2.30483 10.2303 2 10.6537 2 11.1787V12.8891C2 13.431 2.30483 13.8374 2.84674 13.956L4.87892 14.4301C4.98053 14.7519 5.09907 15.0567 5.25148 15.3446L4.18459 17.1058C3.86283 17.5461 3.93057 18.105 4.30313 18.4945L5.5055 19.6969C5.895 20.0694 6.43692 20.1372 6.86029 19.8154L8.63844 18.7485C8.9094 18.8671 9.2481 19.0025 9.56986 19.1211L10.061 21.1533ZM15.3108 11.9915C15.3108 13.8036 13.8205 15.3108 11.9915 15.3108C10.1795 15.3108 8.68925 13.8036 8.68925 11.9915C8.68925 10.1964 10.1795 8.70618 11.9915 8.70618C13.8205 8.70618 15.3108 10.1964 15.3108 11.9915Z" fill="currentColor"/>
</svg>
