<svg xmlns="http://www.w3.org/2000/svg" width="20.5" height="20.5" viewBox="0 0 20.5 20.5">
  <g id="gear" transform="translate(0.25 0.25)">
    <path id="Path_385" data-name="Path 385" d="M18.548,7.446l-.975-.165c-.087-.242-.185-.479-.293-.709l.574-.8a1.74,1.74,0,0,0-.189-2.253L16.493,2.342a1.742,1.742,0,0,0-2.249-.189l-.807.574a8.038,8.038,0,0,0-.757-.312l-.161-.956A1.745,1.745,0,0,0,10.793,0H9.137A1.744,1.744,0,0,0,7.411,1.459l-.17.993q-.359.131-.707.3l-.792-.57a1.748,1.748,0,0,0-2.256.188L2.311,3.538a1.745,1.745,0,0,0-.189,2.253l.584.82c-.108.231-.2.47-.29.713l-.956.161A1.745,1.745,0,0,0,0,9.211v1.656a1.745,1.745,0,0,0,1.459,1.726l.993.169c.087.24.187.476.3.707l-.568.79a1.74,1.74,0,0,0,.189,2.253l1.172,1.172a1.742,1.742,0,0,0,2.249.189l.82-.584c.215.1.439.192.668.274l.163.975A1.745,1.745,0,0,0,9.168,20h1.66a1.745,1.745,0,0,0,1.726-1.459l.165-.975c.242-.087.479-.185.709-.293l.8.573a1.748,1.748,0,0,0,2.255-.187l1.172-1.172a1.745,1.745,0,0,0,.189-2.253l-.575-.807c.111-.236.21-.473.294-.708l.974-.162A1.745,1.745,0,0,0,20,10.828V9.175a1.728,1.728,0,0,0-1.452-1.73Zm.28,3.382a.577.577,0,0,1-.482.571l-1.292.215a.632.632,0,0,0-.5.439,6.851,6.851,0,0,1-.468,1.129.631.631,0,0,0,.046.661l.761,1.069a.577.577,0,0,1-.063.744l-1.172,1.172a.576.576,0,0,1-.744.063l-1.064-.761a.631.631,0,0,0-.664-.046,6.9,6.9,0,0,1-1.131.468.632.632,0,0,0-.436.5L11.4,18.345a.577.577,0,0,1-.571.483H9.168a.577.577,0,0,1-.571-.482l-.215-1.292a.632.632,0,0,0-.435-.5,6.858,6.858,0,0,1-1.095-.45.632.632,0,0,0-.66.046l-1.084.771a.554.554,0,0,1-.33.106.566.566,0,0,1-.408-.171L3.2,15.682a.572.572,0,0,1-.062-.74l.757-1.053a.631.631,0,0,0,.045-.67,6.7,6.7,0,0,1-.474-1.125.633.633,0,0,0-.5-.434l-1.31-.223a.577.577,0,0,1-.482-.571V9.211a.577.577,0,0,1,.483-.571l1.276-.215a.631.631,0,0,0,.5-.441,6.755,6.755,0,0,1,.46-1.132.632.632,0,0,0-.046-.66L3.077,5.111a.576.576,0,0,1,.062-.744L4.315,3.2l0,0a.561.561,0,0,1,.4-.167.568.568,0,0,1,.334.106l1.057.761a.63.63,0,0,0,.669.045,6.7,6.7,0,0,1,1.124-.474.633.633,0,0,0,.434-.5l.223-1.31a.577.577,0,0,1,.571-.482h1.656a.577.577,0,0,1,.571.483l.215,1.276a.631.631,0,0,0,.441.5,6.82,6.82,0,0,1,1.173.483.632.632,0,0,0,.662-.046l1.071-.763A.553.553,0,0,1,15.257,3a.566.566,0,0,1,.408.171l1.174,1.174a.572.572,0,0,1,.061.741l-.762,1.066a.632.632,0,0,0-.046.663,6.9,6.9,0,0,1,.468,1.131.632.632,0,0,0,.5.436l1.292.219h0a.562.562,0,0,1,.475.562Zm0,0" transform="translate(0 0)" fill="currentColor" stroke="#babac0" stroke-width="0.5"/>
    <path id="Path_386" data-name="Path 386" d="M160.342,156.453a3.889,3.889,0,1,0,3.889,3.889A3.893,3.893,0,0,0,160.342,156.453Zm0,6.605a2.717,2.717,0,1,1,2.717-2.717A2.72,2.72,0,0,1,160.342,163.058Zm0,0" transform="translate(-150.342 -150.342)" fill="currentColor" stroke="currentColor" stroke-width="0.5"/>
  </g>
</svg>
