<svg xmlns="http://www.w3.org/2000/svg" width="24.5" height="24.5" viewBox="0 0 24.5 24.5">
  <g id="gear" transform="translate(0.25 0.25)">
    <path id="Path_385" data-name="Path 385" d="M22.258,8.935l-1.17-.2c-.1-.29-.222-.575-.352-.851l.689-.964a2.088,2.088,0,0,0-.227-2.7L19.792,2.811a2.091,2.091,0,0,0-2.7-.226l-.968.689a9.646,9.646,0,0,0-.909-.375l-.194-1.147A2.094,2.094,0,0,0,12.951,0H10.964A2.093,2.093,0,0,0,8.893,1.75l-.2,1.192q-.431.157-.848.357l-.95-.684a2.1,2.1,0,0,0-2.708.226L2.774,4.246a2.094,2.094,0,0,0-.227,2.7l.7.984C3.118,8.211,3,8.5,2.9,8.788l-1.147.194A2.094,2.094,0,0,0,0,11.053v1.987a2.094,2.094,0,0,0,1.751,2.071l1.192.2c.1.287.224.571.357.848l-.682.948a2.088,2.088,0,0,0,.227,2.7l1.406,1.407a2.091,2.091,0,0,0,2.7.227l.984-.7c.259.12.527.23.8.329l.2,1.17A2.094,2.094,0,0,0,11,24h1.992a2.094,2.094,0,0,0,2.071-1.751l.2-1.171c.29-.1.575-.222.851-.352l.961.687a2.1,2.1,0,0,0,2.706-.224l1.406-1.407a2.094,2.094,0,0,0,.227-2.7l-.69-.969c.134-.283.252-.567.353-.85l1.169-.195A2.094,2.094,0,0,0,24,12.993V11.01a2.073,2.073,0,0,0-1.742-2.076Zm.336,4.059a.692.692,0,0,1-.578.685l-1.55.258a.758.758,0,0,0-.6.527,8.222,8.222,0,0,1-.562,1.355.758.758,0,0,0,.055.793l.914,1.283a.692.692,0,0,1-.075.893l-1.406,1.406a.691.691,0,0,1-.892.076l-1.277-.913a.757.757,0,0,0-.8-.056,8.28,8.28,0,0,1-1.357.562.758.758,0,0,0-.523.6l-.263,1.552a.692.692,0,0,1-.685.579H11a.692.692,0,0,1-.685-.578l-.258-1.55a.758.758,0,0,0-.522-.6,8.23,8.23,0,0,1-1.314-.54.759.759,0,0,0-.792.055l-1.3.925a.664.664,0,0,1-.4.127.679.679,0,0,1-.489-.2L3.836,18.818a.687.687,0,0,1-.075-.888l.908-1.263a.757.757,0,0,0,.054-.8,8.041,8.041,0,0,1-.569-1.35.759.759,0,0,0-.6-.52l-1.571-.268a.692.692,0,0,1-.579-.685V11.054a.692.692,0,0,1,.58-.685l1.531-.258a.757.757,0,0,0,.6-.529,8.106,8.106,0,0,1,.552-1.358.759.759,0,0,0-.055-.792l-.923-1.3a.692.692,0,0,1,.075-.893L5.178,3.835l.005-.005a.673.673,0,0,1,.485-.2.681.681,0,0,1,.4.127l1.269.913a.756.756,0,0,0,.8.054,8.038,8.038,0,0,1,1.349-.569.759.759,0,0,0,.521-.6l.268-1.571a.692.692,0,0,1,.685-.579h1.987a.692.692,0,0,1,.685.58l.258,1.532a.758.758,0,0,0,.53.6,8.184,8.184,0,0,1,1.408.579.758.758,0,0,0,.794-.055l1.286-.916a.664.664,0,0,1,.4-.127.679.679,0,0,1,.489.2l1.409,1.409a.687.687,0,0,1,.074.89l-.914,1.279a.758.758,0,0,0-.055.8,8.276,8.276,0,0,1,.562,1.357.758.758,0,0,0,.6.523l1.551.263h0a.674.674,0,0,1,.569.675Zm0,0" fill="#fff" stroke="#fff" stroke-width="0.5"/>
    <path id="Path_386" data-name="Path 386" d="M161.119,156.453a4.666,4.666,0,1,0,4.666,4.666A4.672,4.672,0,0,0,161.119,156.453Zm0,7.926a3.26,3.26,0,1,1,3.26-3.26A3.264,3.264,0,0,1,161.119,164.379Zm0,0" transform="translate(-149.119 -149.119)" fill="#fff" stroke="#fff" stroke-width="0.5"/>
  </g>
</svg>
