<svg viewBox="0 0 24 24" fill="none" xmlns="http://www.w3.org/2000/svg">
<circle cx="12.42" cy="12" r="3" fill="currentColor"/>
<path opacity="0.44" d="M12 22L9.07071 19.0707H5.34747V15.3465L2 12L5.34747 8.65152V4.92929H9.07071L12 2L14.9293 4.92929H19.4889V9.48788L22 12L19.4889 14.5111V19.0707H14.9293L12 22ZM12.4192 8.9697C11.8199 8.9697 11.234 9.14742 10.7356 9.4804C10.2373 9.81337 9.84891 10.2866 9.61956 10.8404C9.3902 11.3941 9.33019 12.0034 9.44712 12.5912C9.56404 13.179 9.85265 13.719 10.2764 14.1427C10.7002 14.5665 11.2402 14.8552 11.828 14.9721C12.4158 15.089 13.0251 15.029 13.5788 14.7996C14.1326 14.5703 14.6058 14.1819 14.9388 13.6835C15.2718 13.1852 15.4495 12.5993 15.4495 12C15.4495 11.602 15.3711 11.2078 15.2187 10.8401C15.0664 10.4724 14.8431 10.1383 14.5616 9.8569C14.2801 9.57549 13.9459 9.3523 13.5781 9.20008C13.2104 9.04785 12.8172 8.96956 12.4192 8.9697Z" fill="currentColor"/>
</svg>
