<svg viewBox="0 0 24 24" fill="currentColor" xmlns="http://www.w3.org/2000/svg">
<g opacity="0.7">
<path opacity="0.44" d="M8.54354 5.67139C8.99365 5.67139 9.35854 6.03627 9.35854 6.48639C9.35854 6.9365 8.99365 7.30139 8.54354 7.30139H4.55004C3.64981 7.30139 2.92004 8.03116 2.92004 8.93139V18.7114C2.92004 19.6116 3.64981 20.3414 4.55004 20.3414H14.33C15.2303 20.3414 15.96 19.6116 15.96 18.7114V17.0814C15.96 16.6313 16.3249 16.2664 16.775 16.2664C17.2252 16.2664 17.59 16.6313 17.59 17.0814V18.7114C17.59 20.5118 16.1305 21.9714 14.33 21.9714H4.55004C2.74959 21.9714 1.29004 20.5118 1.29004 18.7114V8.93139C1.29004 7.13094 2.74959 5.67139 4.55004 5.67139H8.54354Z" fill="currentColor"/>
<path d="M8.23805 13.4446C8.23805 12.8115 8.1024 10.3131 10.0732 8.33104C11.3996 6.99709 13.3847 6.76572 15.7587 6.6602V3.72286C15.7587 3.07212 16.5307 2.73015 17.0127 3.16739L22.0983 7.78127C22.4242 8.07686 22.4268 8.58809 22.104 8.88701L17.0183 13.5969C16.5382 14.0416 15.7587 13.701 15.7587 13.0466V10.133C14.2514 10.1745 13.1777 10.2703 12.2022 10.5807C10.3168 11.1805 9.19803 13.7526 8.89632 14.5361C8.84429 14.6712 8.71543 14.7634 8.57065 14.7634C8.38488 14.7634 8.23434 14.6129 8.23493 14.4271C8.236 14.0851 8.23805 13.692 8.23805 13.4446Z" fill="currentColor"/>
</g>
</svg>
