<svg width="20" height="20" fill="none" xmlns="http://www.w3.org/2000/svg"><path d="M10.665 16.82c.423 0 .754-.16 1.162-.545l6.091-5.715c.3-.284.415-.615.415-.9 0-.292-.115-.615-.415-.9l-6.091-5.675c-.446-.416-.739-.585-1.146-.585-.616 0-1.054.477-1.054 1.077v2.738h-.192c-5.307 0-7.768 3.407-7.768 8.99 0 .977.415 1.485.953 1.485.408 0 .785-.13 1.085-.692 1.207-2.246 2.922-3.069 5.73-3.069h.192v2.754c0 .6.438 1.038 1.038 1.038zm.493-1.983c-.07 0-.116-.047-.116-.123v-2.838c0-.177-.077-.254-.254-.254h-.984c-3.523 0-5.768 1.115-6.691 3.038-.023.046-.047.069-.077.069-.031 0-.054-.023-.054-.077.123-3.669 1.869-6.937 6.822-6.937h.984c.177 0 .254-.077.254-.254V4.554c0-.07.046-.116.116-.116a.19.19 0 0 1 .13.062l5.253 5.014c.054.062.077.1.077.146 0 .047-.015.085-.077.147l-5.26 4.968c-.039.038-.085.062-.123.062z" fill="#fff"/></svg>