<svg viewBox="0 0 16 16" fill="none" xmlns="http://www.w3.org/2000/svg"><g clip-path="url(#clip0)" fill="#fff"><path d="M12.875 2h-9.75C2.504 2 2 2.537 2 3.2c0 .663.504 1.2 1.125 1.2h9.75C13.496 4.4 14 3.863 14 3.2c0-.663-.504-1.2-1.125-1.2z"/><path opacity=".44" d="M6.875 14a1.09 1.09 0 0 1-.795-.351 1.242 1.242 0 0 1-.33-.85c0-.317.119-.623.33-.848a1.09 1.09 0 0 1 .795-.351h2.25c.298 0 .585.126.796.351.21.225.329.53.329.849 0 .318-.118.623-.33.848a1.09 1.09 0 0 1-.795.352h-2.25zm-2.25-4.8a1.09 1.09 0 0 1-.796-.352A1.242 1.242 0 0 1 3.5 8c0-.318.119-.624.33-.849a1.09 1.09 0 0 1 .795-.351h6.75c.298 0 .585.126.796.351.21.225.329.53.329.849 0 .318-.118.623-.33.848a1.09 1.09 0 0 1-.795.352h-6.75z"/></g></svg>