<svg width="20" height="20" viewBox="0 0 20 20" fill="none" xmlns="http://www.w3.org/2000/svg">
<path fill-rule="evenodd" clip-rule="evenodd" d="M17.5414 19.1299C19.0235 19.1299 20 18.0574 20 16.7081C20 16.3102 19.8954 15.895 19.6687 15.5145L12.1011 2.10805C11.6303 1.27775 10.8282 0.879883 10.0087 0.879883C9.17178 0.879883 8.33479 1.29503 7.88141 2.10805L0.331277 15.5145C0.104646 15.895 0 16.3102 0 16.7081C0 18.0574 0.95903 19.1299 2.44117 19.1299H17.5414ZM9.25782 5.89673C9.08887 6.06079 8.99128 6.29675 9.00061 6.58588V6.58643L9.14704 11.7902C9.15674 12.0792 9.24262 12.2845 9.37958 12.418C9.51636 12.5513 9.72174 12.6299 10.0053 12.6299C10.2781 12.6299 10.475 12.554 10.6063 12.423C10.7383 12.2913 10.8224 12.0858 10.8322 11.7903L10.9995 6.59631C11.0176 6.03479 10.597 5.62988 9.99482 5.62988C9.67926 5.62988 9.42749 5.73199 9.25782 5.89673ZM11 14.8799C11 15.4322 10.5523 15.8799 10 15.8799C9.4477 15.8799 9 15.4322 9 14.8799C9 14.3276 9.4477 13.8799 10 13.8799C10.5523 13.8799 11 14.3276 11 14.8799Z" fill="white"/>
</svg>
