<svg xmlns="http://www.w3.org/2000/svg" xmlns:xlink="http://www.w3.org/1999/xlink" width="282" height="45.321" viewBox="0 0 282 45.321"><defs><clipPath id="a"><rect width="282" height="45.321" transform="translate(0 -0.357)"/></clipPath></defs><g transform="translate(0 0.357)" clip-path="url(#a)"><g transform="translate(3.876 3.325)"><path d="M120.486,95.256a1.433,1.433,0,0,1,1.263.764l5.622,10.54a1.473,1.473,0,0,1-.254,1.729l-18.687,18.744a1.421,1.421,0,0,1-2.01.009l-.009-.009L87.723,108.288a1.473,1.473,0,0,1-.254-1.73L93.091,96.02a1.433,1.433,0,0,1,1.263-.764Zm-12.035,3.715L99.463,111.91a.425.425,0,0,0,.1.586.41.41,0,0,0,.24.077l7.01-.025a.417.417,0,0,1,.415.419h0a.408.408,0,0,1,0,.052l-.974,8.156a.419.419,0,0,0,.361.468.412.412,0,0,0,.4-.185l8.441-12.985a.424.424,0,0,0-.117-.582.407.407,0,0,0-.229-.069l-6.683.017a.417.417,0,0,1-.415-.419h0a.4.4,0,0,1,0-.063l1.19-8.079a.419.419,0,0,0-.348-.478.412.412,0,0,0-.4.173Z" transform="translate(-87.296 -95.222)" fill="#2a9cff"/><path d="M174.439,114.746c.519,1.679,1.959,2.519,3.958,2.519,1.959,0,3.319-.84,3.319-2.359,0-1.163-.76-1.679-2.319-2.039l-4.719-1c-3.6-.8-6.317-2.679-6.317-6.837,0-4.8,4-7.957,9.437-7.957,6,0,9.4,3.279,10.077,7.517H181.6a3.651,3.651,0,0,0-3.758-2.4c-1.839,0-3.079.8-3.079,2.159,0,1.08.76,1.679,2.039,1.959l4.8,1.12c4.2,1,6.518,3.279,6.518,7.078,0,5.038-4.239,7.917-9.6,7.917-5.878,0-9.877-2.839-10.757-7.677Z" transform="translate(-123.21 -96.032)" fill="#fff"/><path d="M224.155,127.632h-6.278v-1.559a6.429,6.429,0,0,1-4.8,1.959c-3.959,0-6.318-2.6-6.318-6.6V109.641H213v10.316c0,1.519.72,2.6,2.319,2.6a2.632,2.632,0,0,0,2.559-2V109.638h6.278Z" transform="translate(-140.617 -101.641)" fill="#fff"/><path d="M248.212,133.667h-6.278V109.316h6.278v1.44a6.256,6.256,0,0,1,4.438-1.839c5.2,0,8.038,4.238,8.038,9.4,0,5.118-2.839,9.4-8.038,9.4a6.256,6.256,0,0,1-4.438-1.839Zm0-13a3.06,3.06,0,0,0,2.758,1.679c2.159,0,3.439-1.719,3.439-4.038s-1.279-4.079-3.439-4.079a3.086,3.086,0,0,0-2.758,1.68Z" transform="translate(-156.316 -101.319)" fill="#fff"/><path d="M294.117,121.033c-.64,4.158-3.759,6.677-8.437,6.677-5.518,0-9.157-3.8-9.157-9.4,0-5.558,3.839-9.4,9.037-9.4,5.518,0,8.637,3.679,8.637,9.037v1.559H282.563c.2,2.159,1.32,3.319,3.119,3.319a2.493,2.493,0,0,0,2.639-1.8Zm-11.436-4.639h5.438a2.512,2.512,0,0,0-2.559-2.6c-1.477,0-2.477.919-2.876,2.6Z" transform="translate(-171.754 -101.319)" fill="#fff"/><path d="M322.547,115.272a5.411,5.411,0,0,0-2.6-.56c-1.719,0-2.879.76-3.2,2.039v10.556h-6.278V109.313h6.278v1.6a4.908,4.908,0,0,1,4.078-2,3.916,3.916,0,0,1,1.719.32Z" transform="translate(-186.907 -101.316)" fill="#fff"/><path d="M334.522,95.194H340.8v9.557a6.523,6.523,0,0,1,4.838-1.959c4,0,6.358,2.6,6.358,6.6v11.793h-6.238V110.906a2.262,2.262,0,0,0-2.359-2.56,2.577,2.577,0,0,0-2.6,1.96v10.876h-6.278Z" transform="translate(-197.641 -95.194)" fill="#fff"/><path d="M385.554,121.033c-.641,4.158-3.759,6.677-8.438,6.677-5.518,0-9.157-3.8-9.157-9.4,0-5.558,3.839-9.4,9.037-9.4,5.518,0,8.637,3.679,8.637,9.037v1.559H374c.2,2.159,1.32,3.319,3.119,3.319a2.494,2.494,0,0,0,2.639-1.8Zm-11.437-4.639h5.436a2.512,2.512,0,0,0-2.56-2.6c-1.477,0-2.479.919-2.876,2.6Z" transform="translate(-212.566 -101.319)" fill="#fff"/><path d="M413.978,115.272a5.413,5.413,0,0,0-2.6-.56c-1.72,0-2.879.76-3.2,2.039v10.556H401.9V109.313h6.277v1.6a4.909,4.909,0,0,1,4.079-2,3.918,3.918,0,0,1,1.719.32Z" transform="translate(-227.715 -101.316)" fill="#fff"/><path d="M432.986,127.709c-5.438,0-9.2-3.839-9.2-9.4s3.759-9.4,9.2-9.4c5.478,0,9.2,3.839,9.2,9.4S438.463,127.709,432.986,127.709Zm0-13.635c-1.919,0-3,1.76-3,4.239s1.08,4.2,3,4.2c1.959,0,3.039-1.72,3.039-4.2s-1.081-4.239-3.039-4.239Z" transform="translate(-237.484 -101.319)" fill="#fff"/><path d="M459.569,133.137a2.589,2.589,0,1,1-2.547,2.575,2.535,2.535,0,0,1,2.547-2.575Z" transform="translate(-252.317 -112.129)" fill="#fff"/><path d="M476,108.916c4.838,0,7.837,2.879,8.356,7.078h-6.078A2.169,2.169,0,0,0,476,114.114c-1.76,0-2.879,1.639-2.879,4.2s1.12,4.158,2.879,4.158a2.139,2.139,0,0,0,2.279-1.839h6.078c-.52,4.158-3.519,7.077-8.356,7.077-5.4,0-9.077-3.839-9.077-9.4S470.6,108.916,476,108.916Z" transform="translate(-256.735 -101.319)" fill="#fff"/><path d="M508.039,127.709c-5.438,0-9.2-3.839-9.2-9.4s3.759-9.4,9.2-9.4c5.478,0,9.2,3.839,9.2,9.4S513.517,127.709,508.039,127.709Zm0-13.635c-1.918,0-3,1.76-3,4.239s1.08,4.2,3,4.2c1.959,0,3.04-1.72,3.04-4.2s-1.08-4.239-3.04-4.239Z" transform="translate(-270.983 -101.319)" fill="#fff"/><path d="M555.591,108.909c3.759,0,6.078,2.559,6.078,6.6V127.3h-6.278V117.023c0-1.52-.639-2.6-2.039-2.6a2.365,2.365,0,0,0-2.319,1.92V127.3h-6.238V117.023c0-1.52-.64-2.6-2.039-2.6a2.334,2.334,0,0,0-2.319,1.92V127.3h-6.278V109.305h6.28v1.479a6.016,6.016,0,0,1,4.638-1.879,6.174,6.174,0,0,1,4.958,2.159A7.555,7.555,0,0,1,555.591,108.909Z" transform="translate(-286.746 -101.311)" fill="#fff"/><path d="M540.072,154.216c0,1.45-1,2.233-2.644,2.233h-3.273v-7.881h3.015c1.643,0,2.658.731,2.658,2.144a1.7,1.7,0,0,1-1.04,1.669A1.914,1.914,0,0,1,540.072,154.216Zm-3-2.413c.784,0,1.194-.308,1.194-.936s-.411-.911-1.194-.911h-1.335V151.8Zm-1.335,3.261h1.554c.77,0,1.181-.388,1.181-.988,0-.617-.411-.989-1.181-.989h-1.554Z" transform="translate(-286.744 -119.017)" fill="#848484"/><path d="M552.334,148.568v1.44H548.6v1.716h3.388v1.4H548.6V155h3.736v1.451H546.98v-7.883Z" transform="translate(-292.469 -119.017)" fill="#848484"/><path d="M558.186,148.568h6.726v1.44h-2.541v6.44h-1.655v-6.442h-2.53Z" transform="translate(-297.47 -119.017)" fill="#848484"/><path d="M574.454,148.568l3.016,7.882H575.8l-.706-1.9h-2.953l-.693,1.9h-1.643l3.016-7.882Zm-1.8,4.6h1.925l-.962-2.618Z" transform="translate(-302.657 -119.017)" fill="#848484"/></g></g></svg>
