<svg viewBox="0 0 24 24" fill="none" xmlns="http://www.w3.org/2000/svg">
<path fill-rule="evenodd" clip-rule="evenodd" d="M13.1111 15.9498C13.8923 16.4718 14.8107 16.7504 15.7502 16.7504C17.01 16.7504 18.2182 16.2499 19.1091 15.3591C19.9999 14.4682 20.5004 13.26 20.5004 12.0002C20.5004 11.0607 20.2218 10.1423 19.6998 9.36112C19.1779 8.57996 18.436 7.97112 17.568 7.61159C16.7 7.25206 15.7449 7.15799 14.8235 7.34128C13.902 7.52456 13.0556 7.97697 12.3913 8.6413C11.727 9.30562 11.2746 10.152 11.0913 11.0735C10.908 11.9949 11.0021 12.95 11.3616 13.818C11.7211 14.686 12.33 15.4279 13.1111 15.9498ZM12.2778 17.197C13.3056 17.8838 14.514 18.2504 15.7502 18.2504C17.4078 18.2504 18.9976 17.5919 20.1697 16.4197C21.3419 15.2476 22.0004 13.6578 22.0004 12.0002C22.0004 10.764 21.6338 9.55561 20.947 8.52777C20.2602 7.49993 19.2841 6.69883 18.142 6.22577C17 5.75271 15.7433 5.62893 14.5308 5.8701C13.3184 6.11126 12.2047 6.70653 11.3306 7.58064C10.4565 8.45474 9.86126 9.56842 9.6201 10.7808C9.37893 11.9933 9.50271 13.25 9.97577 14.392C10.4488 15.5341 11.2499 16.5102 12.2778 17.197Z" fill="currentColor"/>
<path d="M8.25018 18.2504C7.01402 18.2504 5.80561 17.8838 4.77777 17.197C3.74993 16.5102 2.94883 15.5341 2.47577 14.392C2.00271 13.25 1.87893 11.9933 2.1201 10.7808C2.36126 9.56842 2.95653 8.45474 3.83064 7.58064C4.70474 6.70653 5.81842 6.11126 7.03083 5.8701C8.24325 5.62893 9.49995 5.75271 10.642 6.22577C11.7841 6.69883 12.7602 7.49993 13.447 8.52777C14.1338 9.55561 14.5004 10.764 14.5004 12.0002C14.5004 13.6578 13.8419 15.2476 12.6697 16.4197C11.4976 17.5919 9.90784 18.2504 8.25018 18.2504Z" fill="currentColor"/>
</svg>
