<svg viewBox="0 0 24 24" fill="none" xmlns="http://www.w3.org/2000/svg">
<path d="M9.2326 3.12932L16.7185 4.45348C17.513 4.59472 18.1751 4.81541 18.7224 5.11556L18.7136 4.53293C18.6783 2.61731 17.3453 1.69923 15.1648 2.08765L9.2326 3.12932ZM6.54898 20.2286L16.286 21.9412C18.1309 22.2678 19.2697 21.2173 19.2697 19.2046V8.54954C19.2697 6.70455 18.3693 5.9895 16.4978 5.66288L7.06099 3.99444C5.67503 3.75609 4.73047 4.54175 4.73047 5.91888V18.1188C4.73047 19.3017 5.35724 20.0167 6.54898 20.2286ZM8.30569 9.26458C7.96141 9.21162 7.7672 8.94679 7.7672 8.59368C7.7672 8.16995 8.10266 7.88746 8.57053 7.96691L15.359 9.15865C15.721 9.22927 15.9152 9.44114 15.9152 9.82956C15.9152 10.2533 15.6062 10.5446 15.1383 10.474L8.30569 9.26458ZM8.30569 12.8839C7.97024 12.8222 7.7672 12.5662 7.7672 12.213C7.7672 11.7981 8.10266 11.5157 8.57053 11.5951L15.359 12.7868C15.721 12.8575 15.9152 13.0693 15.9152 13.4401C15.9152 13.8815 15.6062 14.1728 15.1383 14.1022L8.30569 12.8839Z" fill="currentColor"/>
</svg>
