<svg viewBox="0 0 24 24" fill="none" xmlns="http://www.w3.org/2000/svg">
<path d="M17 12C17 11.5055 17.1466 11.0222 17.4213 10.6111C17.696 10.2 18.0865 9.87952 18.5433 9.6903C19.0001 9.50108 19.5028 9.45157 19.9877 9.54804C20.4727 9.6445 20.9181 9.8826 21.2678 10.2322C21.6174 10.5819 21.8555 11.0273 21.952 11.5123C22.0484 11.9972 21.9989 12.4999 21.8097 12.9567C21.6205 13.4135 21.3 13.804 20.8889 14.0787C20.4778 14.3534 19.9945 14.5 19.5 14.5C18.837 14.5 18.2011 14.2366 17.7322 13.7678C17.2634 13.2989 17 12.663 17 12Z" fill="currentColor"/>
<path opacity="0.66" d="M9.92133 10.6111C9.64662 11.0222 9.5 11.5055 9.5 12C9.5 12.663 9.76339 13.2989 10.2322 13.7678C10.7011 14.2366 11.337 14.5 12 14.5C12.4945 14.5 12.9778 14.3534 13.3889 14.0787C13.8 13.804 14.1205 13.4135 14.3097 12.9567C14.4989 12.4999 14.5484 11.9972 14.452 11.5123C14.3555 11.0273 14.1174 10.5819 13.7678 10.2322C13.4181 9.8826 12.9727 9.6445 12.4877 9.54804C12.0028 9.45157 11.5001 9.50108 11.0433 9.6903C10.5865 9.87952 10.196 10.2 9.92133 10.6111Z" fill="currentColor"/>
<path opacity="0.44" d="M2.42133 10.6111C2.14662 11.0222 2 11.5055 2 12C2 12.663 2.26339 13.2989 2.73223 13.7678C3.20107 14.2366 3.83696 14.5 4.5 14.5C4.99445 14.5 5.4778 14.3534 5.88893 14.0787C6.30005 13.804 6.62048 13.4135 6.8097 12.9567C6.99892 12.4999 7.04843 11.9972 6.95196 11.5123C6.8555 11.0273 6.6174 10.5819 6.26777 10.2322C5.91814 9.8826 5.47268 9.6445 4.98773 9.54804C4.50277 9.45157 4.00011 9.50108 3.54329 9.6903C3.08648 9.87952 2.69603 10.2 2.42133 10.6111Z" fill="currentColor"/>
</svg>
