<svg viewBox="0 0 40 40" fill="none" xmlns="http://www.w3.org/2000/svg"><path fill="currentColor" opacity=".44" d="M20 40c11.046 0 20-8.954 20-20S31.046 0 20 0 0 8.954 0 20s8.954 20 20 20z"/><path fill="currentColor" d="M27.778 29.192a1 1 0 0 1-1.414 0L20 22.828l-6.364 6.364a1 1 0 0 1-1.414 0l-1.414-1.414a1 1 0 0 1 0-1.414L17.172 20l-6.364-6.364a1 1 0 0 1 0-1.414l1.414-1.414a1 1 0 0 1 1.414 0L20 17.172l6.364-6.364a1 1 0 0 1 1.414 0l1.415 1.414a1 1 0 0 1 0 1.414L22.828 20l6.364 6.364a1 1 0 0 1 0 1.414l-1.414 1.414z"/></svg>