<svg xmlns="http://www.w3.org/2000/svg" width="24.998" height="20" viewBox="0 0 24.998 20">
  <g id="Icon_Heart" data-name="Icon/Heart" transform="translate(-0.251 0)">
    <path id="Shield" d="M12.5,20a.879.879,0,0,1-.627-.261L.263,8.1A.921.921,0,0,1,.107,7.021L3.6.474A.889.889,0,0,1,4.383,0H20.615A.889.889,0,0,1,21.4.474l3.492,6.547A.919.919,0,0,1,24.734,8.1L13.126,19.739A.879.879,0,0,1,12.5,20ZM5.136,2.143,2.423,7.228,12.5,17.332l10.076-10.1L19.861,2.143Zm6.892,14-.031,0a.254.254,0,0,1-.221-.2l0-.08.607-4.874a.251.251,0,0,0-.177-.237l-.081-.013-4.355.015a.269.269,0,0,1-.149-.045.248.248,0,0,1-.1-.276l.036-.072,5.583-7.685a.257.257,0,0,1,.21-.106l.039,0a.253.253,0,0,1,.215.2v.08l-.739,4.8,0,.037a.251.251,0,0,0,.176.237l.082.012,4.152-.009a.263.263,0,0,1,.141.041.244.244,0,0,1,.107.273l-.033.073-5.243,7.711A.258.258,0,0,1,12.028,16.143Z" transform="translate(0.251 0)" fill="currentColor"/>
  </g>
</svg>
