<svg xmlns="http://www.w3.org/2000/svg" width="30" height="24.002" viewBox="0 0 30 24.002">
  <g id="Icon_Heart" data-name="Icon/Heart" transform="translate(-0.251)">
    <path id="Shield" d="M15,24a1.055,1.055,0,0,1-.752-.314L.316,9.716a1.105,1.105,0,0,1-.188-1.29L4.319.569A1.067,1.067,0,0,1,5.26,0H24.74a1.067,1.067,0,0,1,.941.569l4.191,7.857a1.1,1.1,0,0,1-.19,1.29L15.752,23.688A1.055,1.055,0,0,1,15,24ZM6.164,2.572l-3.256,6.1L15,20.8,27.09,8.675l-3.256-6.1Zm8.271,16.8-.038,0a.3.3,0,0,1-.265-.238l0-.1.728-5.85a.3.3,0,0,0-.213-.284l-.1-.015-5.226.019a.322.322,0,0,1-.179-.054.3.3,0,0,1-.117-.332l.043-.086,6.7-9.223a.309.309,0,0,1,.251-.127.317.317,0,0,1,.046,0,.3.3,0,0,1,.258.245l0,.1-.887,5.758,0,.045a.3.3,0,0,0,.211.284l.1.014,4.982-.011a.316.316,0,0,1,.17.049.293.293,0,0,1,.128.327l-.04.088-6.292,9.253A.309.309,0,0,1,14.435,19.373Z" transform="translate(0.251 0)" fill="#fff"/>
  </g>
</svg>
