<svg viewBox="0 0 24 24" fill="none" xmlns="http://www.w3.org/2000/svg">
<path d="M16.704 4.90796H7.296L2 9.68996L12.028 19.092L22 9.68996L16.704 4.90796ZM16.955 11.219C16.949 11.238 16.95 11.259 16.942 11.277C16.912 11.347 16.865 11.409 16.814 11.467C16.805 11.478 16.8 11.492 16.79 11.502L12.504 15.788C12.369 15.918 12.189 15.99 12.002 15.989C11.815 15.987 11.636 15.912 11.503 15.78C11.371 15.648 11.295 15.468 11.294 15.281C11.292 15.094 11.364 14.913 11.495 14.779L14.562 11.712H7.714C7.32 11.712 7 11.392 7 10.998C7 10.604 7.32 10.284 7.714 10.284H14.662L11.831 7.19496C11.708 7.05496 11.645 6.87196 11.655 6.68496C11.665 6.49896 11.748 6.32396 11.886 6.19796C12.024 6.07196 12.205 6.00496 12.391 6.01096C12.577 6.01696 12.754 6.09596 12.883 6.22996L16.812 10.516C16.841 10.547 16.855 10.587 16.877 10.622C16.901 10.66 16.93 10.693 16.946 10.735C16.968 10.79 16.973 10.848 16.981 10.907C16.985 10.938 17 10.966 17 10.999C17 11.002 16.999 11.004 16.998 11.007C16.998 11.008 17 11.01 17 11.013C16.998 11.085 16.978 11.153 16.955 11.219Z" fill="currentColor"/>
</svg>
