<svg viewBox="0 0 20 18" fill="none" xmlns="http://www.w3.org/2000/svg">
<path opacity="0.4" fill-rule="evenodd" clip-rule="evenodd" d="M14.8396 2.79639C15.2538 2.79639 15.5896 3.13217 15.5896 3.54639V17.1642C15.5896 17.5784 15.2538 17.9142 14.8396 17.9142C14.4254 17.9142 14.0896 17.5784 14.0896 17.1642V3.54639C14.0896 3.13217 14.4254 2.79639 14.8396 2.79639Z" fill="#currentColor"/>
<path fill-rule="evenodd" clip-rule="evenodd" d="M10.2326 12.5368C10.5262 12.2446 11.0011 12.2457 11.2933 12.5393L14.8395 16.1019L18.3857 12.5393C18.6779 12.2457 19.1528 12.2446 19.4464 12.5368C19.7399 12.829 19.741 13.3039 19.4488 13.5975L15.3711 17.6941C15.2303 17.8355 15.039 17.915 14.8395 17.915C14.64 17.915 14.4487 17.8355 14.3079 17.6941L10.2302 13.5975C9.93795 13.3039 9.93905 12.829 10.2326 12.5368Z" fill="#currentColor"/>
<path opacity="0.4" fill-rule="evenodd" clip-rule="evenodd" d="M4.91113 0.0830078C5.32535 0.0830078 5.66113 0.418794 5.66113 0.833008V14.4508C5.66113 14.865 5.32535 15.2008 4.91113 15.2008C4.49692 15.2008 4.16113 14.865 4.16113 14.4508V0.833008C4.16113 0.418794 4.49692 0.0830078 4.91113 0.0830078Z" fill="#currentColor"/>
<path fill-rule="evenodd" clip-rule="evenodd" d="M4.91127 0.0825195C5.11079 0.0825195 5.30208 0.162014 5.44283 0.303416L9.52061 4.40008C9.81282 4.69365 9.81172 5.16852 9.51816 5.46074C9.22459 5.75296 8.74971 5.75186 8.4575 5.45829L4.91127 1.89564L1.36505 5.45829C1.07283 5.75186 0.597962 5.75296 0.304393 5.46074C0.0108237 5.16852 0.00972635 4.69365 0.301942 4.40008L4.37972 0.303416C4.52047 0.162014 4.71176 0.0825195 4.91127 0.0825195Z" fill="#currentColor"/>
</svg>
