<svg xmlns="http://www.w3.org/2000/svg" width="30.843" height="20" viewBox="0 0 30.843 20"><g transform="translate(-276 -369.224)"><path d="M20.843,90a9.9,9.9,0,0,0-5.422,1.6,10,10,0,1,0,0,16.8,9.9,9.9,0,0,0,5.422,1.6,10,10,0,0,0,0-20ZM10,108.193A8.193,8.193,0,1,1,18.193,100,8.2,8.2,0,0,1,10,108.193Zm10.843,0a8.109,8.109,0,0,1-3.909-1,9.983,9.983,0,0,0,0-14.4,8.109,8.109,0,0,1,3.909-1,8.193,8.193,0,1,1,0,16.386Z" transform="translate(276 279.224)" fill="currentColor"/><g transform="translate(278.475 375.539)"><path d="M10.014.125H9.99A4.238,4.238,0,0,0,6.651,2.167l-.05.082.694,1,.114-.214A3.428,3.428,0,0,1,10,1.246h.013A2.472,2.472,0,0,1,12.421,3.13H9.2V4.25h4.375l.015-.13a3.482,3.482,0,0,0,.026-.431A3.6,3.6,0,0,0,10.014.125Z" transform="translate(1.206)" fill="currentColor"/><path d="M13.394,4.858a2.5,2.5,0,0,1-2.18,1.28h-.006c-1.342,0-2.238-1.2-3.361-2.9C6.577,1.316,5.448.125,3.742.125H3.719A3.6,3.6,0,0,0,.125,3.691a3.6,3.6,0,0,0,3.6,3.563h.024A4.236,4.236,0,0,0,7.082,5.22l.049-.081L6.448,4.13l-.116.218A3.419,3.419,0,0,1,3.739,6.134H3.722a2.472,2.472,0,0,1-2.47-2.444,2.473,2.473,0,0,1,2.47-2.445h.019C5.069,1.246,5.9,2.339,7.1,4.138c1.1,1.643,2.238,3.116,4.108,3.116V7.106h0l.007.148h.008A3.606,3.606,0,0,0,14.58,4.986l.082-.2H13.437Z" fill="currentColor"/></g></g></svg>
