<svg xmlns="http://www.w3.org/2000/svg" width="22.492" height="18.2" viewBox="0 0 22.492 18.2"><g transform="translate(5)"><path d="M6.731,118.776a14.429,14.429,0,0,0,1.876-.12v-6.526a14.434,14.434,0,0,0-1.876-.12c-3.717,0-6.73,1.367-6.73,3.052v.662C0,117.409,3.014,118.776,6.731,118.776Z" transform="translate(-5.001 -107.731)" fill="currentColor"/><path d="M6.731,217.514a14.442,14.442,0,0,0,1.876-.12V215.48a14.429,14.429,0,0,1-1.876.121c-3.244,0-5.952-1.041-6.588-2.427A1.488,1.488,0,0,0,0,213.8v.662C0,216.147,3.014,217.514,6.731,217.514Z" transform="translate(-5.001 -203.783)" fill="currentColor"/><path d="M8.606,274.713v-.149a14.429,14.429,0,0,1-1.876.121c-3.244,0-5.952-1.041-6.588-2.427a1.489,1.489,0,0,0-.142.625v.662c0,1.686,3.013,3.052,6.73,3.052a14.3,14.3,0,0,0,2.127-.156,2.408,2.408,0,0,1-.251-1.067Z" transform="translate(-5 -260.227)" fill="currentColor"/><path d="M174.969,22.379c-3.717,0-6.73,1.367-6.73,3.052v.662c0,1.686,3.013,3.052,6.73,3.052s6.73-1.367,6.73-3.052v-.662C181.7,23.746,178.686,22.379,174.969,22.379Z" transform="translate(-164.207 -22.379)" fill="currentColor"/><path d="M174.969,125.971c-3.244,0-5.952-1.041-6.588-2.427a1.488,1.488,0,0,0-.142.625v.662c0,1.686,3.013,3.052,6.73,3.052s6.73-1.367,6.73-3.052v-.662a1.488,1.488,0,0,0-.142-.625C180.921,124.93,178.213,125.971,174.969,125.971Z" transform="translate(-164.207 -118.565)" fill="currentColor"/><path d="M174.969,185.055c-3.244,0-5.952-1.041-6.588-2.427a1.488,1.488,0,0,0-.142.625v.662c0,1.686,3.013,3.052,6.73,3.052s6.73-1.367,6.73-3.052v-.662a1.488,1.488,0,0,0-.142-.625C180.921,184.014,178.213,185.055,174.969,185.055Z" transform="translate(-164.207 -174.741)" fill="currentColor"/><path d="M174.969,247.328c-3.244,0-5.952-1.041-6.588-2.427a1.489,1.489,0,0,0-.142.625v.662c0,1.686,3.013,3.052,6.73,3.052s6.73-1.367,6.73-3.052v-.662a1.488,1.488,0,0,0-.142-.625C180.921,246.287,178.213,247.328,174.969,247.328Z" transform="translate(-164.207 -233.949)" fill="currentColor"/><path d="M174.969,306.411c-3.244,0-5.952-1.041-6.588-2.427a1.489,1.489,0,0,0-.142.625v.662c0,1.686,3.013,3.052,6.73,3.052s6.73-1.367,6.73-3.052v-.662a1.488,1.488,0,0,0-.142-.625C180.921,305.37,178.213,306.411,174.969,306.411Z" transform="translate(-164.207 -290.124)" fill="currentColor"/></g></svg>
