<svg xmlns="http://www.w3.org/2000/svg" width="24.5" height="24.5" viewBox="0 0 24.5 24.5">
  <g id="Group_605" data-name="Group 605" transform="translate(738.25 0.25)">
    <g id="buy_1_" data-name="buy (1)" transform="translate(-738 0)">
      <g id="Group_606" data-name="Group 606">
        <g id="Group_605-2" data-name="Group 605">
          <path id="Path_383" data-name="Path 383" d="M12.023,266.125a10.033,10.033,0,0,1-8.7-4.969H6.55v-1.875H0v6.563H1.871v-3.472A11.98,11.98,0,0,0,12.023,268a11.817,11.817,0,0,0,8.447-3.517A11.965,11.965,0,0,0,23.953,256H22.082A10.1,10.1,0,0,1,12.023,266.125Z" transform="translate(0 -244)" fill="#fff" stroke="#fff" stroke-width="0.5"/>
          <path id="Path_384" data-name="Path 384" d="M22.129,2.655V6.127A11.977,11.977,0,0,0,0,12.5H1.871A10.105,10.105,0,0,1,20.679,7.343H17.45V9.218H24V2.655Z" transform="translate(0 -0.499)" fill="#fff" stroke="#fff" stroke-width="0.5"/>
        </g>
      </g>
    </g>
    <g id="Group_607" data-name="Group 607" transform="translate(1.27 1.294)">
      <g id="Union_1" data-name="Union 1" transform="translate(-732.27 5.706)" fill="#fff">
        <path d="M 5.925660133361816 9.75 L 3.925839900970459 9.75 L 3.925839900970459 6.324160099029541 L 3.925839900970459 6.074160099029541 L 3.675839900970459 6.074160099029541 L 0.25 6.074160099029541 L 0.25 4.07436990737915 L 3.675839900970459 4.07436990737915 L 3.925839900970459 4.07436990737915 L 3.925839900970459 3.82436990737915 L 3.925839900970459 0.25 L 5.925660133361816 0.25 L 5.925660133361816 3.82436990737915 L 5.925660133361816 4.07436990737915 L 6.175660133361816 4.07436990737915 L 9.75 4.07436990737915 L 9.75 6.074160099029541 L 6.175660133361816 6.074160099029541 L 5.925660133361816 6.074160099029541 L 5.925660133361816 6.324160099029541 L 5.925660133361816 9.75 Z" stroke="none"/>
        <path d="M 5.675660133361816 9.5 L 5.675660133361816 6.324160099029541 L 5.675660133361816 5.824160099029541 L 6.175660133361816 5.824160099029541 L 9.5 5.824160099029541 L 9.5 4.32436990737915 L 6.175660133361816 4.32436990737915 L 5.675660133361816 4.32436990737915 L 5.675660133361816 3.82436990737915 L 5.675660133361816 0.5 L 4.175839900970459 0.5 L 4.175839900970459 3.82436990737915 L 4.175839900970459 4.32436990737915 L 3.675839900970459 4.32436990737915 L 0.5 4.32436990737915 L 0.5 5.824160099029541 L 3.675839900970459 5.824160099029541 L 4.175839900970459 5.824160099029541 L 4.175839900970459 6.324160099029541 L 4.175839900970459 9.5 L 5.675660133361816 9.5 M 6.175660133361816 10 L 3.675839900970459 10 L 3.675839900970459 6.324160099029541 L 0 6.324160099029541 L 0 3.82436990737915 L 3.675839900970459 3.82436990737915 L 3.675839900970459 0 L 6.175660133361816 0 L 6.175660133361816 3.82436990737915 L 10 3.82436990737915 L 10 6.324160099029541 L 6.175660133361816 6.324160099029541 L 6.175660133361816 10 Z" stroke="none" fill="#fff"/>
      </g>
    </g>
  </g>
</svg>
