<svg xmlns="http://www.w3.org/2000/svg" width="20.5" height="20.5" viewBox="0 0 20.5 20.5">
  <g id="Group_605" data-name="Group 605" transform="translate(0.25 0.25)">
    <g id="buy_1_" data-name="buy (1)">
      <g id="Group_606" data-name="Group 606">
        <g id="Group_605-2" data-name="Group 605">
          <path id="Path_383" data-name="Path 383" d="M10.019,264.438A8.361,8.361,0,0,1,2.767,260.3H5.458v-1.562H0V264.2H1.559V261.31a9.984,9.984,0,0,0,8.46,4.69,9.847,9.847,0,0,0,7.039-2.931,9.971,9.971,0,0,0,2.9-7.069H18.4A8.419,8.419,0,0,1,10.019,264.438Z" transform="translate(0 -246)" fill="currentColor" stroke="currentColor" stroke-width="0.5"/>
          <path id="Path_384" data-name="Path 384" d="M18.441,2.3V5.189A9.981,9.981,0,0,0,0,10.5H1.559A8.421,8.421,0,0,1,17.233,6.2H14.542V7.765H20V2.3Z" transform="translate(0 -0.499)" fill="currentColor" stroke="currentColor" stroke-width="0.5"/>
        </g>
      </g>
    </g>
    <g id="Group_607" data-name="Group 607" transform="translate(5.833 5.833)">
      <g id="Union_1" data-name="Union 1" fill="currentColor">
        <path d="M 4.896386623382568 8.08333683013916 L 3.313206434249878 8.08333683013916 L 3.313206434249878 5.270126342773438 L 3.313206434249878 5.020126342773438 L 3.063206434249878 5.020126342773438 L 0.2499965131282806 5.020126342773438 L 0.2499965131282806 3.436976432800293 L 3.063206434249878 3.436976432800293 L 3.313206434249878 3.436976432800293 L 3.313206434249878 3.186976432800293 L 3.313206434249878 0.2499965131282806 L 4.896386623382568 0.2499965131282806 L 4.896386623382568 3.186976432800293 L 4.896386623382568 3.436976432800293 L 5.146386623382568 3.436976432800293 L 8.08333683013916 3.436976432800293 L 8.08333683013916 5.020126342773438 L 5.146386623382568 5.020126342773438 L 4.896386623382568 5.020126342773438 L 4.896386623382568 5.270126342773438 L 4.896386623382568 8.08333683013916 Z" stroke="none"/>
        <path d="M 4.646386623382568 7.833336353302002 L 4.646386623382568 5.270126342773438 L 4.646386623382568 4.770126342773438 L 5.146386623382568 4.770126342773438 L 7.833336353302002 4.770126342773438 L 7.833336353302002 3.686976432800293 L 5.146386623382568 3.686976432800293 L 4.646386623382568 3.686976432800293 L 4.646386623382568 3.186976432800293 L 4.646386623382568 0.4999965131282806 L 3.563206434249878 0.4999965131282806 L 3.563206434249878 3.186976432800293 L 3.563206434249878 3.686976432800293 L 3.063206434249878 3.686976432800293 L 0.4999965131282806 3.686976432800293 L 0.4999965131282806 4.770126342773438 L 3.063206434249878 4.770126342773438 L 3.563206434249878 4.770126342773438 L 3.563206434249878 5.270126342773438 L 3.563206434249878 7.833336353302002 L 4.646386623382568 7.833336353302002 M 5.146386623382568 8.33333683013916 L 3.063206434249878 8.33333683013916 L 3.063206434249878 5.270126342773438 L -3.492279120109743e-06 5.270126342773438 L -3.492279120109743e-06 3.186976432800293 L 3.063206434249878 3.186976432800293 L 3.063206434249878 -3.492279120109743e-06 L 5.146386623382568 -3.492279120109743e-06 L 5.146386623382568 3.186976432800293 L 8.33333683013916 3.186976432800293 L 8.33333683013916 5.270126342773438 L 5.146386623382568 5.270126342773438 L 5.146386623382568 8.33333683013916 Z" stroke="none" fill="currentColor"/>
      </g>
    </g>
  </g>
</svg>
