<svg viewBox="0 0 24 24" fill="none" xmlns="http://www.w3.org/2000/svg">
<path fill-rule="evenodd" clip-rule="evenodd" d="M8.25002 5.75C8.25002 5.33579 8.5858 5 9.00002 5H14V10C14 10.4142 13.6642 10.75 13.25 10.75C12.8358 10.75 12.5 10.4142 12.5 10V7.56066L6.09099 13.9697C5.7981 14.2626 5.32322 14.2626 5.03033 13.9697C4.73744 13.6768 4.73744 13.2019 5.03033 12.909L11.4394 6.5H9.00001C8.5858 6.5 8.25002 6.16421 8.25002 5.75Z" fill="currentColor"/>
<path fill-rule="evenodd" clip-rule="evenodd" d="M15.75 19.25C15.75 19.6642 15.4142 20 15 20L10 20L10 15C10 14.5858 10.3358 14.25 10.75 14.25C11.1642 14.25 11.5 14.5858 11.5 15V17.4393L17.909 11.0303C18.2019 10.7374 18.6768 10.7374 18.9697 11.0303C19.2626 11.3232 19.2626 11.7981 18.9697 12.091L12.5607 18.5H15C15.4142 18.5 15.75 18.8358 15.75 19.25Z" fill="currentColor"/>
</svg>
