<svg viewBox="0 0 20 20" fill="none" xmlns="http://www.w3.org/2000/svg"><path d="M6.476 18.333h7.056c1.02 0 1.617-.543 1.661-1.557l.47-10.766h1.028c.38 0 .67-.298.67-.67a.655.655 0 0 0-.67-.656h-3.234V3.567c0-1.192-.767-1.9-2.049-1.9h-2.83c-1.282 0-2.05.708-2.05 1.9v1.117H3.31a.663.663 0 1 0 0 1.326h1.035l.477 10.766c.037 1.014.633 1.557 1.654 1.557zm1.602-14.7c0-.335.231-.55.603-.55h2.63c.373 0 .604.215.604.55v1.051H8.078v-1.05zm-.47 12.413c-.297 0-.506-.194-.513-.492L6.87 7.642c-.007-.298.201-.5.514-.5.298 0 .507.195.514.493l.224 7.912c.015.298-.194.5-.514.5zm2.392 0c-.313 0-.521-.194-.521-.492v-7.92c0-.29.208-.491.521-.491.313 0 .53.201.53.492v7.92c0 .297-.217.491-.53.491zm2.392.008c-.32 0-.53-.209-.514-.5l.223-7.92c.008-.297.216-.491.514-.491.313 0 .522.201.514.499l-.223 7.912a.49.49 0 0 1-.514.5z" fill="currentColor"/></svg>