<svg viewBox="0 0 21 20" fill="none" xmlns="http://www.w3.org/2000/svg">
<path fill-rule="evenodd" clip-rule="evenodd" d="M6.46484 1.66663L15.2368 1.66663V6.92978L6.46484 6.92978L6.46484 1.66663ZM8.21928 3.42101L9.97366 3.42101V5.1754H8.21928V3.42101ZM13.4824 3.42101H11.7281V5.1754L13.4824 5.1754V3.42101Z" fill="currentColor"/>
<path d="M4.08398 9.47355C4.08398 8.69115 4.71825 8.05688 5.50065 8.05688L16.2024 8.05688C16.9848 8.05688 17.6191 8.69115 17.6191 9.47355V14.035C17.6191 14.8174 16.9848 15.4516 16.2024 15.4516L5.50065 15.4516C4.71825 15.4516 4.08398 14.8174 4.08398 14.035L4.08398 9.47355Z" fill="currentColor"/>
<path d="M9.34715 17.4999V15.9517H12.3559V17.4999C12.3559 17.8221 12.0948 18.0833 11.7726 18.0833H9.93048C9.60831 18.0833 9.34715 17.8221 9.34715 17.4999Z" fill="currentColor"/>
</svg>
