<svg viewBox="0 0 21 20" fill="none" xmlns="http://www.w3.org/2000/svg"><path fill-rule="evenodd" clip-rule="evenodd" d="M6.465 1.667h8.772V6.93H6.465V1.667zM8.219 3.42h1.755v1.754H8.219V3.421zm5.263 0h-1.754v1.754h1.754V3.421z" fill="currentColor"/><path d="M4.084 9.474c0-.783.634-1.417 1.417-1.417h10.701c.783 0 1.417.634 1.417 1.417v4.561c0 .782-.634 1.417-1.417 1.417H5.501a1.417 1.417 0 0 1-1.417-1.417V9.474zM9.347 17.5v-1.548h3.009V17.5a.583.583 0 0 1-.583.583H9.93a.583.583 0 0 1-.583-.583z" fill="currentColor"/></svg>