<svg viewBox="0 0 24 24" fill="none" xmlns="http://www.w3.org/2000/svg">
<g>
<path opacity="0.44" d="M2 12.0017C2 12.0017 4.72778 5.33502 12 5.33502C17.4544 5.33502 22 12.0017 22 12.0017C22 12.0017 17.4544 18.6684 12 18.6684C4.72778 18.6684 2 12.0017 2 12.0017Z" fill="white"/>
<path d="M12.0001 15.335C11.3408 15.335 10.6963 15.1395 10.1482 14.7732C9.60002 14.407 9.17278 13.8864 8.92048 13.2773C8.66819 12.6682 8.60218 11.998 8.7308 11.3514C8.85942 10.7048 9.17689 10.1108 9.64306 9.64465C10.1092 9.17847 10.7032 8.861 11.3498 8.73239C11.9964 8.60377 12.6666 8.66978 13.2757 8.92207C13.8848 9.17436 14.4054 9.60161 14.7716 10.1498C15.1379 10.6979 15.3334 11.3424 15.3334 12.0017C15.3334 12.8857 14.9822 13.7336 14.3571 14.3587C13.732 14.9838 12.8841 15.335 12.0001 15.335Z" fill="white"/>
</g>
</svg>
