<svg viewBox="0 0 21 20" fill="none" xmlns="http://www.w3.org/2000/svg"><path fill-rule="evenodd" clip-rule="evenodd" d="M4.578 6.225c3.27-3.193 8.573-3.193 11.844 0l.387.377a.55.55 0 0 1 0 .79l-1.322 1.29a.365.365 0 0 1-.509 0l-.532-.518c-2.179-2.127-5.713-2.127-7.892 0l-.57.556a.365.365 0 0 1-.509 0L4.154 7.43a.55.55 0 0 1 0-.792l.424-.413zM2.644 8.892a.574.574 0 0 0-.8 0L.668 10.04a.55.55 0 0 0 0 .792l5.304 5.177a.574.574 0 0 0 .8 0L10.5 12.37l3.728 3.639a.574.574 0 0 0 .8 0l5.304-5.177a.55.55 0 0 0 0-.792l-1.176-1.148a.574.574 0 0 0-.8 0l-3.728 3.639L10.9 8.892a.574.574 0 0 0-.8 0l-3.728 3.639-3.728-3.639z" fill="currentColor"/></svg>