<svg viewBox="0 0 21 21" fill="none" xmlns="http://www.w3.org/2000/svg">
  <path opacity="0.5" d="M10.5001 18.8333C15.1025 18.8333 18.8334 15.1024 18.8334 10.5C18.8334 5.89763 15.1025 2.16667 10.5001 2.16667C5.89771 2.16667 2.16675 5.89763 2.16675 10.5C2.16675 15.1024 5.89771 18.8333 10.5001 18.8333Z" fill="currentColor"/>
  <path d="M11.3334 7.16666C11.3334 6.70642 10.9603 6.33333 10.5001 6.33333C10.0398 6.33333 9.66675 6.70642 9.66675 7.16666V12.1667C9.66675 12.6269 10.0398 13 10.5001 13C10.9603 13 11.3334 12.6269 11.3334 12.1667V7.16666Z" fill="currentColor"/>
  <path d="M11.3334 14.6667C11.3334 14.2064 10.9603 13.8333 10.5001 13.8333C10.0398 13.8333 9.66675 14.2064 9.66675 14.6667C9.66675 15.1269 10.0398 15.5 10.5001 15.5C10.9603 15.5 11.3334 15.1269 11.3334 14.6667Z" fill="currentColor"/>
</svg>
