<svg viewBox="0 0 20 20" fill="none" xmlns="http://www.w3.org/2000/svg"><path d="M10 20c5.47 0 10-4.52 10-10C20 4.53 15.47 0 9.99 0 4.52 0 0 4.53 0 10c0 5.48 4.53 10 10 10zm0-1.965A8.007 8.007 0 0 1 1.975 10 7.99 7.99 0 0 1 9.99 1.975 8.021 8.021 0 0 1 18.035 10 8.015 8.015 0 0 1 10 18.035z" fill="currentColor"/><path d="M10.027 11.338c.478 0 .748-.27.765-.775l.065-2.092.066-2.092c.017-.514-.366-.879-.905-.879-.54 0-.914.357-.896.87l.122 4.202c.017.496.295.766.783.766zm0 2.888c.565 0 1.026-.409 1.026-.957 0-.557-.46-.957-1.026-.957-.566 0-1.027.409-1.027.957s.47.957 1.027.957z" fill="currentColor"/></svg>