<svg viewBox="0 0 24 24" fill="none" xmlns="http://www.w3.org/2000/svg"><path fill-rule="evenodd" clip-rule="evenodd" d="M19.541 21.13c1.482 0 2.459-1.073 2.459-2.422 0-.398-.105-.813-.331-1.193L14.1 4.108A2.363 2.363 0 0 0 12.01 2.88c-.837 0-1.674.415-2.128 1.228l-7.55 13.407c-.226.38-.331.795-.331 1.193 0 1.35.959 2.422 2.441 2.422h15.1zM11.258 7.897a.893.893 0 0 0-.257.689l.146 5.204c.01.29.096.495.233.628.136.133.342.212.625.212.273 0 .47-.076.601-.207.132-.132.216-.337.226-.633L13 8.596c.019-.561-.402-.966-1.004-.966-.316 0-.567.102-.737.267zM13 16.88a1 1 0 1 1-2 0 1 1 0 0 1 2 0z" fill="currentColor"/></svg>