<svg viewBox="0 0 36 36" fill="none" xmlns="http://www.w3.org/2000/svg"><path opacity=".8" fill-rule="evenodd" clip-rule="evenodd" d="M14 0C6.268 0 0 6.268 0 14v8c0 7.732 6.268 14 14 14h8c7.732 0 14-6.268 14-14v-8c0-7.732-6.268-14-14-14h-8zm9.838 11c.317-.007.62.113.83.324.22.218.339.521.332.838v9.25c-.007.36-.12.628-.324.832-.444.443-1.084.45-1.514.02-.225-.224-.33-.499-.323-.788l-.022-3.189.17-3.9-1.535 1.732-8.533 8.532c-.464.465-1.112.465-1.577 0-.457-.457-.457-1.105.007-1.57l8.533-8.532 1.739-1.542-3.908.176-3.189-.021a1.058 1.058 0 0 1-.788-.324c-.43-.43-.423-1.07.021-1.514.204-.204.465-.31.796-.317L23.837 11z" fill="currentColor"/></svg>