<svg viewBox="0 0 36 36" fill="none" xmlns="http://www.w3.org/2000/svg">
<rect opacity="0.8" width="36" height="36" rx="14" fill="white"/>
<path fill-rule="evenodd" clip-rule="evenodd" d="M11.5294 28H23.2941C24.2302 28 25.1279 27.6282 25.7898 26.9663C26.4517 26.3044 26.8235 25.4067 26.8235 24.4706V17.1683C25.7152 17.4829 24.543 17.496 23.428 17.206C22.313 16.9161 21.2956 16.3337 20.481 15.5191C19.6663 14.7044 19.0839 13.687 18.794 12.572C18.5041 11.457 18.5171 10.2848 18.8318 9.17651H11.5294C10.5934 9.17651 9.69563 9.54836 9.03374 10.2103C8.37185 10.8721 8 11.7699 8 12.7059V24.4706C8 25.4067 8.37185 26.3044 9.03374 26.9663C9.69563 27.6282 10.5934 28 11.5294 28ZM14.4502 15.06C14.4502 14.6199 14.8069 14.2632 15.2469 14.2632C15.6869 14.2632 16.0436 14.6199 16.0436 15.06V22.2137L17.7884 20.4686C18.0972 20.1597 18.598 20.1596 18.9069 20.4685C19.2158 20.7774 19.2158 21.2782 18.9069 21.587L15.9945 24.499C15.5816 24.9118 14.9122 24.9118 14.4993 24.499L11.5869 21.587C11.278 21.2781 11.278 20.7774 11.5869 20.4685C11.8958 20.1596 12.3966 20.1597 12.7054 20.4686L14.4502 22.2137V15.06Z" fill="currentColor"/>
<path opacity="0.6" d="M25 14C26.6569 14 28 12.6569 28 11C28 9.34315 26.6569 8 25 8C23.3431 8 22 9.34315 22 11C22 12.6569 23.3431 14 25 14Z" fill="currentColor"/>
</svg>
