<svg  viewBox="0 0 36 36" fill="none" xmlns="http://www.w3.org/2000/svg">
<rect opacity="0.8" width="36" height="36" rx="14" fill="white"/>
<path fill-rule="evenodd" clip-rule="evenodd" d="M12.5294 28H24.2941C25.2302 28 26.1279 27.6282 26.7898 26.9663C27.4517 26.3044 27.8235 25.4067 27.8235 24.4706V17.1683C26.7152 17.4829 25.543 17.496 24.428 17.206C23.313 16.9161 22.2956 16.3337 21.481 15.5191C20.6663 14.7044 20.0839 13.687 19.794 12.572C19.5041 11.457 19.5171 10.2848 19.8318 9.17651H12.5294C11.5934 9.17651 10.6956 9.54836 10.0337 10.2103C9.37185 10.8721 9 11.7699 9 12.7059V24.4706C9 25.4067 9.37185 26.3044 10.0337 26.9663C10.6956 27.6282 11.5934 28 12.5294 28ZM16.7299 24.1203C16.7299 24.5603 16.3732 24.917 15.9332 24.917C15.4932 24.917 15.1365 24.5603 15.1365 24.1203L15.1365 16.9665L13.3917 18.7117C13.0829 19.0206 12.5821 19.0206 12.2732 18.7117C11.9644 18.4029 11.9644 17.9021 12.2733 17.5932L15.1856 14.6813C15.5985 14.2685 16.2679 14.2685 16.6808 14.6813L19.5932 17.5933C19.902 17.9021 19.9021 18.4029 19.5932 18.7117C19.2843 19.0206 18.7835 19.0206 18.4747 18.7117L16.7299 16.9665L16.7299 24.1203Z" fill="currentColor"/>
<path opacity="0.6" d="M26 14C27.6569 14 29 12.6569 29 11C29 9.34315 27.6569 8 26 8C24.3431 8 23 9.34315 23 11C23 12.6569 24.3431 14 26 14Z" fill="currentColor"/>
</svg>
