<svg viewBox="0 0 36 36" fill="none" xmlns="http://www.w3.org/2000/svg">
<path opacity="0.8" fill-rule="evenodd" clip-rule="evenodd" d="M14 0C6.26801 0 0 6.26801 0 14V22C0 29.732 6.26801 36 14 36H22C29.732 36 36 29.732 36 22V14C36 6.26801 29.732 0 22 0H14ZM12.1619 24.9997C11.8451 25.0067 11.5424 24.8871 11.3312 24.6758C11.1129 24.4576 10.9933 24.1549 11.0003 23.8381V14.5871C11.0073 14.228 11.12 13.9605 11.3241 13.7563C11.7676 13.3127 12.4083 13.3057 12.8377 13.7352C13.063 13.9605 13.1686 14.235 13.1615 14.5237L13.1827 17.713L13.0137 21.6133L14.5484 19.8814L23.0807 11.3485C23.5454 10.8838 24.193 10.8838 24.6577 11.3485C25.1153 11.8061 25.1153 12.4538 24.6506 12.9185L16.1183 21.4514L14.3794 22.9932L18.2866 22.8172L21.4757 22.8383C21.7643 22.8313 22.0388 22.9369 22.2641 23.1622C22.6936 23.5916 22.6865 24.2323 22.243 24.6758C22.0388 24.88 21.7784 24.9856 21.4475 24.9927L12.1619 24.9997Z" fill="currentColor"/>
</svg>
