<svg viewBox="0 0 36 36" fill="none" xmlns="http://www.w3.org/2000/svg"><path opacity=".8" fill-rule="evenodd" clip-rule="evenodd" d="M14 0C6.268 0 0 6.268 0 14v8c0 7.732 6.268 14 14 14h8c7.732 0 14-6.268 14-14v-8c0-7.732-6.268-14-14-14h-8zm-1.838 25a1.141 1.141 0 0 1-.83-.324 1.146 1.146 0 0 1-.332-.838v-9.25c.007-.36.12-.627.324-.832.444-.443 1.084-.45 1.514-.02.225.224.33.499.324.788l.02 3.189-.168 3.9 1.534-1.732 8.533-8.533c.464-.464 1.112-.464 1.577 0 .457.458.457 1.106-.007 1.57l-8.533 8.533-1.739 1.542 3.908-.176 3.189.021c.288-.007.563.099.788.324.43.43.422 1.07-.021 1.514-.204.204-.465.31-.795.317L12.162 25z" fill="currentColor"/></svg>