<svg viewBox="0 0 36 36" fill="none" xmlns="http://www.w3.org/2000/svg">
<path opacity="0.8" fill-rule="evenodd" clip-rule="evenodd" d="M14 0C6.26801 0 0 6.26801 0 14V22C0 29.732 6.26801 36 14 36H22C29.732 36 36 29.732 36 22V14C36 6.26801 29.732 0 22 0H14ZM23.8381 11.0003C24.1549 10.9933 24.4576 11.1129 24.6688 11.3241C24.8871 11.5424 25.0067 11.8451 24.9997 12.1619V21.4129C24.9927 21.772 24.88 22.0395 24.6759 22.2437C24.2324 22.6873 23.5917 22.6943 23.1623 22.2648C22.937 22.0395 22.8314 21.765 22.8385 21.4763L22.8173 18.287L22.9863 14.3867L21.4516 16.1186L12.9193 24.6515C12.4546 25.1162 11.807 25.1162 11.3423 24.6515C10.8847 24.1939 10.8847 23.5462 11.3494 23.0815L19.8817 14.5486L21.6206 13.0068L17.7134 13.1828L14.5244 13.1617C14.2357 13.1687 13.9612 13.0631 13.7359 12.8378C13.3064 12.4084 13.3135 11.7677 13.757 11.3242C13.9612 11.12 14.2216 11.0144 14.5525 11.0073L23.8381 11.0003Z" fill="currentColor"/>
</svg>
