<svg viewBox="0 0 24 24" fill="none" xmlns="http://www.w3.org/2000/svg">
<path opacity="0.44" d="M11.9999 21.1667C17.0625 21.1667 21.1666 17.0627 21.1666 12C21.1666 6.93743 17.0625 2.83337 11.9999 2.83337C6.93731 2.83337 2.83325 6.93743 2.83325 12C2.83325 17.0627 6.93731 21.1667 11.9999 21.1667Z" fill="currentColor"/>
<path d="M15.5649 16.2132C15.4789 16.2991 15.3623 16.3474 15.2408 16.3474C15.1192 16.3474 15.0026 16.2991 14.9167 16.2132L11.9999 13.2964L9.08304 16.2132C8.99709 16.2991 8.88051 16.3474 8.75895 16.3474C8.63739 16.3474 8.52081 16.2991 8.43486 16.2132L7.78668 15.565C7.70072 15.479 7.65243 15.3625 7.65243 15.2409C7.65243 15.1193 7.70072 15.0028 7.78668 14.9168L10.7035 12L7.78668 9.08318C7.70072 8.99723 7.65243 8.88065 7.65243 8.75909C7.65243 8.63754 7.70072 8.52096 7.78668 8.435L8.43486 7.78682C8.52081 7.70087 8.63739 7.65258 8.75895 7.65258C8.88051 7.65258 8.99709 7.70087 9.08304 7.78682L11.9999 10.7036L14.9167 7.78682C15.0026 7.70087 15.1192 7.65258 15.2408 7.65258C15.3623 7.65258 15.4789 7.70087 15.5649 7.78682L16.213 8.435C16.299 8.52096 16.3473 8.63754 16.3473 8.75909C16.3473 8.88065 16.299 8.99723 16.213 9.08318L13.2962 12L16.213 14.9168C16.299 15.0028 16.3473 15.1193 16.3473 15.2409C16.3473 15.3625 16.299 15.479 16.213 15.565L15.5649 16.2132Z" fill="currentColor"/>
</svg>
