<svg viewBox="0 0 24 24" fill="none" xmlns="http://www.w3.org/2000/svg">
<path opacity="0.44" d="M4.51646 16.9922C4.16461 17.0085 3.81348 16.9473 3.48788 16.813C3.16228 16.6786 2.87016 16.4744 2.63216 16.2147C2.39417 15.9551 2.2161 15.6463 2.11055 15.3103C2.00499 14.9743 1.97453 14.6191 2.02131 14.27V4.74352C1.97857 4.3757 2.01958 4.00298 2.14127 3.65325C2.26296 3.30353 2.46218 2.98586 2.72402 2.72402C2.98586 2.46218 3.30353 2.26296 3.65325 2.14127C4.00298 2.01958 4.3757 1.97857 4.74352 2.02131H14.27C14.6191 1.97453 14.9743 2.00499 15.3103 2.11055C15.6463 2.2161 15.9551 2.39417 16.2147 2.63216C16.4744 2.87016 16.6786 3.16228 16.813 3.48788C16.9473 3.81348 17.0085 4.16461 16.9922 4.51646H8.2592C7.26656 4.51646 6.31458 4.91079 5.61269 5.61269C4.91079 6.31458 4.51646 7.26656 4.51646 8.2592V16.9848V16.9922Z" fill="currentColor"/>
<path d="M9.73383 7.01161H19.2603C19.6285 6.96739 20.0018 7.00738 20.3522 7.12854C20.7026 7.24971 21.0209 7.4489 21.2831 7.71107C21.5453 7.97324 21.7444 8.29154 21.8656 8.64195C21.9868 8.99236 22.0268 9.36571 21.9825 9.73383V19.2603C22.0268 19.6285 21.9868 20.0018 21.8656 20.3522C21.7444 20.7026 21.5453 21.0209 21.2831 21.2831C21.0209 21.5453 20.7026 21.7444 20.3522 21.8656C20.0018 21.9868 19.6285 22.0268 19.2603 21.9825H9.73383C9.36571 22.0268 8.99236 21.9868 8.64195 21.8656C8.29154 21.7444 7.97324 21.5453 7.71107 21.2831C7.4489 21.0209 7.24971 20.7026 7.12854 20.3522C7.00738 20.0018 6.96739 19.6285 7.01161 19.2603V9.73383C6.96739 9.36571 7.00738 8.99236 7.12854 8.64195C7.24971 8.29154 7.4489 7.97324 7.71107 7.71107C7.97324 7.4489 8.29154 7.24971 8.64195 7.12854C8.99236 7.00738 9.36571 6.96739 9.73383 7.01161Z" fill="currentColor"/>
</svg>
