<svg viewBox="0 0 24 24" fill="none" xmlns="http://www.w3.org/2000/svg">
<path d="M17.738 6.35206C17.8234 6.25199 17.9276 6.16972 18.0448 6.10993C18.1619 6.05015 18.2897 6.01402 18.4208 6.00362C18.5519 5.99323 18.6838 6.00875 18.8089 6.04932C18.934 6.08989 19.0499 6.1547 19.15 6.24006C19.2501 6.32542 19.3324 6.42965 19.3921 6.54681C19.4519 6.66396 19.4881 6.79175 19.4985 6.92286C19.5089 7.05398 19.4933 7.18586 19.4528 7.31098C19.4122 7.43609 19.3474 7.55199 19.262 7.65206L10.762 17.6521C10.6758 17.7535 10.5701 17.8367 10.4513 17.8968C10.3325 17.9569 10.2029 17.9926 10.07 18.0019C9.93722 18.0113 9.80387 17.994 9.67782 17.951C9.55178 17.9081 9.43557 17.8405 9.33602 17.7521L4.83602 13.7521C4.73785 13.6648 4.65784 13.5591 4.60054 13.4409C4.54325 13.3227 4.50979 13.1944 4.50208 13.0633C4.49437 12.9321 4.51257 12.8008 4.55562 12.6767C4.59868 12.5526 4.66575 12.4382 4.75302 12.3401C4.84028 12.2419 4.94602 12.1619 5.06421 12.1046C5.18239 12.0473 5.31071 12.0138 5.44183 12.0061C5.57294 11.9984 5.70429 12.0166 5.82838 12.0597C5.95246 12.1027 6.06685 12.1698 6.16502 12.2571L9.90002 15.5731L17.738 6.35206Z" fill="#1161FE"/>
</svg>
