<svg viewBox="0 0 24 24" fill="none" xmlns="http://www.w3.org/2000/svg">
<path opacity="0.44" d="M11.9999 21.1667C17.0625 21.1667 21.1666 17.0627 21.1666 12C21.1666 6.93743 17.0625 2.83337 11.9999 2.83337C6.93731 2.83337 2.83325 6.93743 2.83325 12C2.83325 17.0627 6.93731 21.1667 11.9999 21.1667Z" fill="currentColor"/>
<path d="M11.5417 17.5C11.4201 17.5 11.3035 17.4517 11.2176 17.3658C11.1316 17.2798 11.0833 17.1632 11.0833 17.0417V12.9167H6.95833C6.83678 12.9167 6.7202 12.8684 6.63424 12.7824C6.54829 12.6965 6.5 12.5799 6.5 12.4583V11.5417C6.5 11.4201 6.54829 11.3035 6.63424 11.2176C6.7202 11.1316 6.83678 11.0833 6.95833 11.0833H11.0833V6.95833C11.0833 6.83678 11.1316 6.7202 11.2176 6.63424C11.3035 6.54829 11.4201 6.5 11.5417 6.5H12.4583C12.5799 6.5 12.6965 6.54829 12.7824 6.63424C12.8684 6.7202 12.9167 6.83678 12.9167 6.95833V11.0833H17.0417C17.1632 11.0833 17.2798 11.1316 17.3658 11.2176C17.4517 11.3035 17.5 11.4201 17.5 11.5417V12.4583C17.5 12.5799 17.4517 12.6965 17.3658 12.7824C17.2798 12.8684 17.1632 12.9167 17.0417 12.9167H12.9167V17.0417C12.9167 17.1632 12.8684 17.2798 12.7824 17.3658C12.6965 17.4517 12.5799 17.5 12.4583 17.5H11.5417Z" fill="currentColor"/>
</svg>
