<svg viewBox="0 0 24 24" fill="none" xmlns="http://www.w3.org/2000/svg">
<path d="M19.2643 6.79161C19.5222 7.04948 19.6671 7.39921 19.6671 7.76389C19.6671 8.12856 19.5222 8.47829 19.2643 8.73616L11.5199 16.4806C11.3906 16.6091 11.2372 16.7106 11.0684 16.7793C10.8996 16.848 10.7188 16.8824 10.5366 16.8806L7.30409 16.8514C6.94773 16.8479 6.60663 16.7062 6.3527 16.4562C6.09877 16.2061 5.95185 15.8672 5.94291 15.5109L5.86448 12.3692C5.85985 12.1829 5.89315 11.9976 5.96235 11.8246C6.03154 11.6515 6.13519 11.4943 6.267 11.3626L14.0789 3.55071C14.3367 3.29284 14.6865 3.14798 15.0512 3.14798C15.4158 3.14798 15.7656 3.29284 16.0234 3.55071L19.2643 6.79161Z" fill="currentColor"/>
<path opacity="0.44" d="M18.4166 19.3334H6.49992C5.99366 19.3334 5.58325 19.7438 5.58325 20.25C5.58325 20.7563 5.99366 21.1667 6.49992 21.1667H18.4166C18.9228 21.1667 19.3333 20.7563 19.3333 20.25C19.3333 19.7438 18.9228 19.3334 18.4166 19.3334Z" fill="currentColor"/>
</svg>
