<svg viewBox="0 0 25 24" fill="none" xmlns="http://www.w3.org/2000/svg">
<path d="M12.5 22C18.0228 22 22.5 17.5228 22.5 12C22.5 6.47715 18.0228 2 12.5 2C6.97715 2 2.5 6.47715 2.5 12C2.5 17.5228 6.97715 22 12.5 22Z" stroke="white" stroke-width="1.5"/>
<path d="M17.269 7.81795C17.45 7.62408 17.7006 7.51005 17.9657 7.50095C18.097 7.49645 18.2278 7.51784 18.3508 7.56391C18.4738 7.60998 18.5865 7.67982 18.6825 7.76945C18.7785 7.85908 18.8559 7.96673 18.9103 8.08628C18.9647 8.20582 18.995 8.3349 18.9995 8.46616C19.004 8.59741 18.9826 8.72827 18.9365 8.85126C18.8905 8.97424 18.8206 9.08695 18.731 9.18295L11.731 16.6829C11.555 16.8715 11.313 16.9848 11.0555 16.9992C10.7979 17.0135 10.5448 16.9278 10.349 16.7599L6.84901 13.76C6.7454 13.6758 6.65968 13.5717 6.59692 13.4539C6.53416 13.3361 6.49562 13.2069 6.48357 13.074C6.47153 12.9411 6.48622 12.8071 6.52678 12.6799C6.56734 12.5527 6.63295 12.4349 6.71974 12.3335C6.80653 12.2321 6.91275 12.1491 7.03213 12.0894C7.15152 12.0297 7.28165 11.9945 7.41485 11.9858C7.54805 11.9772 7.68164 11.9953 7.80773 12.0392C7.93382 12.083 8.04986 12.1516 8.14901 12.241L10.923 14.617L17.269 7.81795Z" fill="currentColor"/>
</svg>
