<svg viewBox="0 0 24 24" fill="currentColor" xmlns="http://www.w3.org/2000/svg">
<path fill-rule="evenodd" clip-rule="evenodd" d="M20.369 9.20717H14.7882V3.6263C14.7882 3.6263 14.7882 2.51013 13.672 2.51013C12.5558 2.51013 12.5558 3.6263 12.5558 3.6263V11.4395H20.369C20.369 11.4395 21.4852 11.248 21.4852 10.3233C21.4852 9.39867 20.369 9.20717 20.369 9.20717ZM3.62643 14.788H9.20729V20.3688C9.20729 20.3688 9.20729 21.485 10.3235 21.485C11.4396 21.485 11.4396 20.3688 11.4396 20.3688V12.5556H3.62643C3.62643 12.5556 2.51025 12.7471 2.51025 13.6718C2.51025 14.5965 3.62643 14.788 3.62643 14.788Z" fill="currentColor"/>
<path opacity="0.44" fill-rule="evenodd" clip-rule="evenodd" d="M16.8031 5.61408C16.4126 6.0046 16.4126 6.63777 16.8031 7.02829L16.9674 7.19258C17.3579 7.58311 17.9911 7.58311 18.3816 7.19258L21.7029 3.87128C22.0935 3.48075 22.0935 2.84759 21.7029 2.45706L21.5386 2.29277C21.1481 1.90225 20.515 1.90225 20.1244 2.29277L16.8031 5.61408ZM2.29289 20.1244C1.90237 20.5149 1.90237 21.1481 2.29289 21.5386L2.45719 21.7029C2.84771 22.0934 3.48088 22.0934 3.8714 21.7029L7.1927 18.3816C7.58323 17.991 7.58323 17.3579 7.1927 16.9674L7.02841 16.8031C6.63789 16.4125 6.00472 16.4125 5.6142 16.8031L2.29289 20.1244Z" fill="currentColor"/>
</svg>
