<svg viewBox="0 0 24 24" fill="currentColor" xmlns="http://www.w3.org/2000/svg">
<path fill-rule="evenodd" clip-rule="evenodd" d="M10.75 4.5H19.5V13.25C19.5 13.25 19.5 14.5 20.75 14.5C22 14.5 22 13.25 22 13.25V2H10.75C10.75 2 9.5 2.21447 9.5 3.25C9.5 4.28553 10.75 4.5 10.75 4.5ZM13.25 19.5H4.5V10.75C4.5 10.75 4.5 9.5 3.25 9.5C2 9.5 2 10.75 2 10.75V22H13.25C13.25 22 14.5 21.7855 14.5 20.75C14.5 19.7145 13.25 19.5 13.25 19.5Z" fill="currentColor"/>
<rect opacity="0.44" x="6.69678" y="15.5354" width="12.5" height="2.5" rx="1" transform="rotate(-45 6.69678 15.5354)" fill="currentColor"/>
</svg>
