<svg viewBox="0 0 40 40" fill="none" xmlns="http://www.w3.org/2000/svg"><path fill-rule="evenodd" clip-rule="evenodd" d="m20.102.5-4.587 2.638 12.844 7.21.105-5.094L20.102.5zM3.122 15.63v-5.277l8.412-4.837 4.427 2.639-12.84 7.475zm33.743 8.925v5.276l-8.314 4.837-4.376-2.638 12.69-7.475zM24.301 36.922 19.679 39.5l-8.298-4.864.173-5.093 12.747 7.38zM3.01 29.58l4.602 2.646L7.515 17.4 3 19.895l.012 9.685zM32.387 7.749l4.602 2.646L37 20.08l-4.515 2.496-.099-14.827zM19.994 11.02l-7.241 4.239 7.166 4.09 7.166-4.09-7.091-4.239zm1.155 10.487 7.241-4.239v8.403l-7.24 4.09v-8.254zm-9.768-4.158.132 8.365 7.21 4.069-.003-8.292-7.34-4.142z" fill="#F5274E"/></svg>