<svg viewBox="0 0 42 27" fill="none" xmlns="http://www.w3.org/2000/svg">
<path d="M40.1239 1.89535H35.7589V19.1402C35.7589 20.5272 34.9489 21.2207 33.3739 21.2207H30.4039C28.8289 21.2207 28.0189 20.5272 28.0189 19.1402V8.22926C28.0189 4.43816 24.9139 1.84912 21.2689 1.84912C17.6689 1.84912 14.6089 4.43816 14.5639 8.22926L14.5189 19.1402C14.5189 20.5272 13.7089 21.2207 12.1339 21.2207H9.20891C7.63391 21.2207 6.82391 20.5272 6.82391 19.1402V1.84912H2.50391V19.1402C2.50391 22.7926 5.42891 25.4279 9.20891 25.4279H12.1339C15.9139 25.4279 18.8839 22.8851 18.8839 19.1402V8.22926C18.8839 6.84227 19.6939 6.10254 21.2689 6.10254C22.8889 6.10254 23.6989 6.79604 23.6989 8.22926V19.1402C23.6989 22.8388 26.7139 25.4279 30.4489 25.4279H33.3739C37.0639 25.4279 40.1239 22.8388 40.1239 19.1402V1.89535Z" fill="#53B6BF"/>
</svg>
