<svg viewBox="0 0 28 28" fill="currentColor" xmlns="http://www.w3.org/2000/svg">
<path id="Vector" d="M4 13.9935C4 18.981 8.14574 23.1266 13.1331 23.1266C16.1507 23.1266 18.8279 21.5955 20.5203 19.3032C20.8247 18.9093 20.7262 18.4168 20.3681 18.193C19.992 17.9691 19.5622 18.0855 19.2935 18.4527C17.9146 20.3509 15.6851 21.5955 13.1331 21.6045C8.90684 21.6134 5.5222 18.2199 5.5222 13.9935C5.5222 9.76719 8.90684 6.3915 13.1331 6.3915C16.7685 6.3915 19.7771 8.88073 20.5471 12.2654H19.2578C18.622 12.2654 18.4608 12.7041 18.8011 13.1966L20.8068 16.0529C21.0933 16.4559 21.5231 16.4648 21.8186 16.0529L23.8154 13.2056C24.1735 12.7041 24.0034 12.2654 23.3677 12.2654H22.0962C21.2814 8.07486 17.5386 4.86035 13.1331 4.86035C8.14574 4.86035 4 8.99713 4 13.9935Z" fill="currentColor"/>
</svg>
