<svg width="24" height="24" fill="currentColor" xmlns="http://www.w3.org/2000/svg"><path d="m12.43 17.086-.414-.303-.413.303-4.794 3.51-.002.002c-.293.217-.482.147-.523.12-.023-.015-.049-.041-.065-.1-.016-.064-.026-.193.045-.398l.002-.006 1.89-5.626.165-.49-.42-.302-4.929-3.533-.002-.002c-.162-.115-.228-.22-.252-.283-.024-.06-.02-.101-.01-.127.012-.038.096-.187.419-.187H9.71l.158-.484 1.823-5.603.002-.008c.086-.274.244-.319.322-.319.079 0 .237.045.322.319l.002.005 1.8 5.604.156.486h6.587c.32 0 .398.146.41.182a.195.195 0 0 1-.011.135c-.026.066-.091.17-.247.284h-.001l-4.904 3.532-.417.3.162.489 1.868 5.626.003.008c.07.205.061.334.044.399-.015.06-.041.086-.063.1-.038.026-.217.094-.495-.116l-.009-.006-4.793-3.511z" stroke="currentColor" stroke-width="1.4"/></svg>