<svg width="24" height="24" fill="currentColor" xmlns="http://www.w3.org/2000/svg"><path fill-rule="evenodd" clip-rule="evenodd" d="M17.135 16.33a7.406 7.406 0 0 1-5.992 3.065 7.368 7.368 0 0 1-7.402-7.402A7.366 7.366 0 0 1 11.143 4.6c3.484 0 6.376 2.35 7.176 5.567h-1.124c-.337 0-.591.118-.695.348-.101.223-.032.5.147.759l1.982 2.823c.157.22.366.35.593.352.226.001.438-.126.6-.352l1.974-2.814c.187-.263.26-.541.158-.767-.104-.232-.361-.349-.698-.349h-1.159c-.854-4.148-4.576-7.317-8.954-7.317C6.15 2.85 2 6.99 2 11.993c0 4.994 4.15 9.144 9.143 9.144 3.023 0 5.702-1.534 7.394-3.826.34-.44.236-1.008-.182-1.269l-.002-.001c-.432-.257-.922-.116-1.218.289z"/></svg>