<svg width="24" height="24" fill="currentColor" xmlns="http://www.w3.org/2000/svg"><path fill-rule="evenodd" clip-rule="evenodd" d="m21.46 12.962-7.384 6.928c-.471.444-.825.607-1.27.607-.615 0-1.056-.441-1.056-1.057V15.9h-.435c-1.72 0-3.127.252-4.295.862-1.17.613-2.083 1.576-2.83 2.965-.168.315-.349.492-.53.594a1.201 1.201 0 0 1-.607.139c-.254 0-.483-.117-.656-.368-.177-.258-.298-.663-.298-1.23 0-3.36.74-6.03 2.25-7.86 1.503-1.822 3.795-2.838 6.966-2.838h.435V4.642c0-.623.448-1.103 1.075-1.103.416 0 .723.162 1.252.654l7.384 6.881c.324.308.44.646.44.944 0 .29-.117.637-.44.944zM3.558 18.365c.165 0 .243-.134.274-.196l.001-.003c1.07-2.228 3.693-3.568 7.93-3.568h1.194c.065 0 .087.011.091.014.003.004.014.026.014.091v3.441c0 .087.027.178.095.25.068.07.16.101.247.101a.426.426 0 0 0 .29-.131l6.376-6.022.004-.004a.58.58 0 0 0 .113-.148c.03-.06.04-.118.04-.172 0-.137-.077-.234-.143-.31l-.006-.007-6.374-6.084a.43.43 0 0 0-.3-.132.342.342 0 0 0-.244.097.342.342 0 0 0-.098.245V9.35c0 .065-.011.087-.014.092-.004.002-.026.014-.091.014h-1.194c-3.05 0-5.142 1.009-6.486 2.61-1.338 1.593-1.911 3.746-1.987 5.996v.007c0 .057.012.13.06.194.055.07.134.1.208.1zm17.904-5.403-7.385 6.928c-.471.444-.825.607-1.27.607-.615 0-1.056-.441-1.056-1.057V15.9h-.435c-1.72 0-3.127.252-4.295.862-1.17.613-2.083 1.576-2.83 2.965-.168.315-.349.492-.53.594a1.201 1.201 0 0 1-.607.139c-.254 0-.483-.117-.656-.368-.177-.258-.298-.663-.298-1.23 0-3.36.74-6.03 2.25-7.86 1.503-1.822 3.795-2.838 6.966-2.838h.435V4.642c0-.623.448-1.103 1.075-1.103.416 0 .723.162 1.252.654l7.384 6.881c.324.308.44.646.44.944 0 .29-.117.637-.44.944zm-9.81-4.897V4.642c0-.674.49-1.202 1.174-1.202.455 0 .784.183 1.32.681l7.384 6.88c.343.327.471.692.471 1.017 0 .316-.128.69-.471 1.016l-7.385 6.928c-.482.455-.86.634-1.337.634-.67 0-1.156-.485-1.156-1.156V16h-.336c-1.711 0-3.1.25-4.249.85-1.15.601-2.05 1.549-2.789 2.924-.175.327-.367.52-.568.634a1.3 1.3 0 0 1-.656.15c-.29 0-.548-.134-.738-.41-.192-.28-.315-.707-.315-1.286 0-3.372.743-6.07 2.273-7.923 1.526-1.85 3.848-2.874 7.042-2.874h.336zm2.052-2.448a.43.43 0 0 0-.3-.132.342.342 0 0 0-.244.097.342.342 0 0 0-.098.245V9.35c0 .065-.011.087-.014.092-.004.002-.026.014-.091.014h-1.194c-3.05 0-5.142 1.009-6.486 2.61-1.338 1.593-1.911 3.746-1.987 5.996v.007c0 .057.012.13.06.194.055.07.134.1.208.1.165 0 .243-.133.274-.195l.001-.003c1.07-2.228 3.693-3.568 7.93-3.568h1.194c.065 0 .087.011.091.014.003.004.014.026.014.091v3.441c0 .087.027.178.095.25.068.07.16.101.247.101a.426.426 0 0 0 .29-.131l6.376-6.022.004-.004a.58.58 0 0 0 .113-.148c.03-.06.04-.118.04-.172 0-.137-.077-.234-.143-.31l-.006-.007-6.374-6.084zm6.302 6.153-6.372-6.083a.331.331 0 0 0-.23-.103.242.242 0 0 0-.174.068.242.242 0 0 0-.069.175V9.35c0 .074-.012.119-.03.146l-.011.017-.018.011c-.027.018-.071.03-.145.03h-1.194c-3.027 0-5.089 1.001-6.41 2.575-1.318 1.57-1.888 3.698-1.964 5.934v.006c0 .045.01.094.04.133a.16.16 0 0 0 .129.063c.101 0 .155-.08.185-.14v-.003c1.095-2.278 3.767-3.624 8.02-3.624h1.194c.074 0 .118.012.145.03l.018.012.01.017c.019.027.031.071.031.146v3.44c0 .068.021.132.067.18.047.05.11.072.176.072a.328.328 0 0 0 .22-.102l.002-.002L20 12.272l.003-.004a.482.482 0 0 0 .094-.122.277.277 0 0 0 .03-.128c0-.097-.053-.17-.119-.245l-.003-.003z"/></svg>