<svg width="28" height="28" viewBox="0 0 28 28" fill="none" xmlns="http://www.w3.org/2000/svg">
<g id="SF - Star Empty" opacity="0.85">
<path id="Vector" d="M14.4327 20.0273L14.0191 19.7244L13.6054 20.0273L8.013 24.1231L8.01091 24.1246C7.6389 24.3992 7.36455 24.3327 7.26682 24.2681C7.20349 24.2262 7.02384 24.0549 7.19782 23.5513L7.19784 23.5513L7.19974 23.5457L9.40517 16.9818L9.56994 16.4913L9.14948 16.1899L3.39956 12.0677L3.39736 12.0661C2.9964 11.781 3.02072 11.5363 3.04811 11.4548C3.08192 11.3541 3.23123 11.1574 3.64809 11.1574H10.737H11.2454L11.4026 10.674L13.5295 4.13637L13.5296 4.13638L13.532 4.12851C13.6456 3.76495 13.8721 3.67461 14.019 3.67461C14.1658 3.67461 14.3925 3.76499 14.5061 4.12862L14.5061 4.12863L14.5078 4.13393L16.6082 10.6716L16.7643 11.1574H17.2747L24.3638 11.1574C24.7777 11.1574 24.9198 11.3512 24.9523 11.4503C24.9812 11.5381 24.9985 11.7862 24.6095 12.0696C24.6091 12.0698 24.6087 12.0701 24.6083 12.0704L18.8872 16.1908L18.4699 16.4913L18.6319 16.9794L20.8112 23.5433L20.8112 23.5433L20.814 23.5513C20.9881 24.0552 20.8082 24.2281 20.746 24.2696C20.6521 24.3322 20.3885 24.3978 20.0337 24.1295L20.0338 24.1295L20.0251 24.1231L14.4327 20.0273Z" stroke="white" stroke-width="1.4"/>
</g>
</svg>
