<svg width="28" height="28" viewBox="0 0 28 28" fill="currentColor" xmlns="http://www.w3.org/2000/svg">
<path id="arrowshape.turn.up.right" d="M14.9316 23.5492C15.5238 23.5492 15.9868 23.3231 16.5575 22.7847L25.0854 14.7844C25.5053 14.386 25.6668 13.923 25.6668 13.5246C25.6668 13.1154 25.5053 12.6632 25.0854 12.2648L16.5575 4.31834C15.9329 3.73689 15.5238 3.5 14.9531 3.5C14.0917 3.5 13.4779 4.16759 13.4779 5.00746V8.84072H13.2087C5.77912 8.84072 2.3335 13.6108 2.3335 21.428C2.3335 22.7955 2.91495 23.5062 3.66868 23.5062C4.23936 23.5062 4.76697 23.3231 5.1869 22.5371C6.87741 19.3929 9.27858 18.2408 13.2087 18.2408H13.4779V22.0956C13.4779 22.9355 14.0917 23.5492 14.9316 23.5492ZM15.6207 20.7712C15.5238 20.7712 15.4592 20.7066 15.4592 20.5989V16.6257C15.4592 16.378 15.3515 16.2703 15.1038 16.2703H13.7256C8.79404 16.2703 5.64991 17.8316 4.3578 20.5235C4.3255 20.5881 4.29319 20.6204 4.25012 20.6204C4.20705 20.6204 4.17475 20.5881 4.17475 20.5128C4.34703 15.3766 6.79127 10.8004 13.7256 10.8004H15.1038C15.3515 10.8004 15.4592 10.6927 15.4592 10.4451V6.37494C15.4592 6.27803 15.5238 6.21343 15.6207 6.21343C15.6853 6.21343 15.7499 6.24573 15.8037 6.29957L23.158 13.32C23.2334 13.4062 23.2657 13.46 23.2657 13.5246C23.2657 13.5892 23.2441 13.6431 23.158 13.7292L15.793 20.685C15.7391 20.7389 15.6745 20.7712 15.6207 20.7712Z" fill="white"/>
</svg>
