<svg width="48" height="48" viewBox="0 0 48 48" fill="none" xmlns="http://www.w3.org/2000/svg">
<path d="M47.8171 41.0588H43.6226V36.2853H47.8171V41.0588Z" fill="#6633FF"/>
<path d="M47.8171 36.2853H43.6226L43.6229 31.4853H47.8171L47.8171 36.2853Z" fill="#0099FF"/>
<path d="M47.8171 31.4853H43.6229V26.712H47.8171V31.4853Z" fill="#33FF00"/>
<path d="M43.6228 21.9189H47.817L47.8171 26.712H43.6229L43.6228 21.9189Z" fill="#FFFF00"/>
<path d="M47.8171 17.1221H43.623L43.6228 21.9189H47.817L47.8171 17.1221Z" fill="#FF9900"/>
<path d="M47.8171 17.1221H43.623L43.6226 12.3523H47.8171L47.8171 17.1221Z" fill="#FF0000"/>
<path d="M43.6228 42.9711H39.4286V38.1976H43.6228V42.9711Z" fill="#6633FF"/>
<path d="M43.6228 38.1985H39.4286V33.4151H43.6228V38.1985Z" fill="#0099FF"/>
<path d="M43.6228 33.4151H39.4286V28.6252H43.6228V33.4151Z" fill="#33FF00"/>
<path d="M39.4285 23.8177H43.6227V28.6243H39.4285V23.8177Z" fill="#FFFF00"/>
<path d="M43.6228 19.0354H39.4286V23.8317H43.6228V19.0354Z" fill="#FF9900"/>
<path d="M43.6228 19.0354H39.4286V14.2686H43.6228V19.0354Z" fill="#FF0000"/>
<path d="M39.4285 41.0607H35.2342V36.2607H39.4285V41.0607Z" fill="#6633FF"/>
<path d="M39.4285 36.2607H35.2342V31.4875H39.4285V36.2607Z" fill="#0099FF"/>
<path d="M39.4285 31.4875H35.2342L35.2345 26.7139H39.4285V31.4875Z" fill="#33FF00"/>
<path d="M35.2351 21.9005H39.429V26.7138H35.2351V21.9005Z" fill="#FFFF00"/>
<path d="M39.4285 17.1269H35.2345V21.9004H39.4285V17.1269Z" fill="#FF9900"/>
<path d="M39.4285 17.1269H35.2345V12.3535H39.4285V17.1269Z" fill="#FF0000"/>
<path d="M35.2341 39.159H31.0274V34.333H35.2341V39.159Z" fill="#6633FF"/>
<path d="M35.2341 34.333H31.0274V29.5403H35.2341V34.333Z" fill="#0099FF"/>
<path d="M35.2341 29.5403H31.0274V24.799H35.2341V29.5403Z" fill="#33FF00"/>
<path d="M31.0272 19.9882H35.2341V24.799H31.0274L31.0272 19.9882Z" fill="#FFFF00"/>
<path d="M35.2351 15.2127H31.0282V19.9882H35.2351V15.2127Z" fill="#FF9900"/>
<path d="M35.2341 15.2127H31.0274V10.4392H35.2341V15.2127Z" fill="#FF0000"/>
<path d="M31.0272 37.1778H26.8455V32.3979H31.0272V37.1778Z" fill="#6633FF"/>
<path d="M31.0272 32.3984H26.8455V27.645H31.0272V32.3984Z" fill="#0099FF"/>
<path d="M31.0272 27.6443H26.8455V22.8842H31.0272V27.6443Z" fill="#33FF00"/>
<path d="M26.8455 18.0846H31.0272V22.8842H26.8455V18.0846Z" fill="#FFFF00"/>
<path d="M31.0272 13.2751H26.8455V18.0846H31.0272V13.2751Z" fill="#FF9900"/>
<path d="M31.0272 13.2751H26.8455V8.52493H31.0272V13.2751Z" fill="#FF0000"/>
<path d="M26.8455 39.1513H22.6513V34.3787H26.8455V39.1513Z" fill="#6633FF"/>
<path d="M26.8455 34.3787H22.6513V29.5796H26.8455V34.3787Z" fill="#0099FF"/>
<path d="M26.8455 29.5789H22.6513V24.799H26.8455V29.5789Z" fill="#33FF00"/>
<path d="M22.6521 20.0124H26.8464V24.7991H22.6521V20.0124Z" fill="#FFFF00"/>
<path d="M26.8455 15.2185H22.6513V20.0126H26.8455V15.2185Z" fill="#FF9900"/>
<path d="M26.8455 15.2185H22.6513V10.438H26.8455V15.2185Z" fill="#FF0000"/>
<path d="M22.6521 41.0588H18.4454V36.2853H22.6521V41.0588Z" fill="#6633FF"/>
<path d="M22.6521 36.2853H18.4454V31.4853H22.6521V36.2853Z" fill="#0099FF"/>
<path d="M22.6521 31.4853H18.4454V26.712H22.6521V31.4853Z" fill="#33FF00"/>
<path d="M18.4452 21.9325H22.6519L22.6521 26.712H18.4454L18.4452 21.9325Z" fill="#FFFF00"/>
<path d="M22.6521 17.1221H18.4454V21.9319H22.6521V17.1221Z" fill="#FF9900"/>
<path d="M22.6521 17.1221H18.4454V12.3523H22.6521V17.1221Z" fill="#FF0000"/>
<path d="M18.451 42.9866H14.6815V38.2132H18.451V42.9866Z" fill="#6633FF"/>
<path d="M18.4452 38.2131L14.6815 38.2132L14.6813 33.4131H18.4452V38.2131Z" fill="#0099FF"/>
<path d="M18.4452 33.4131H14.6813V28.6398H18.4452V33.4131Z" fill="#33FF00"/>
<path d="M14.6807 23.8332H18.4446V28.6398H14.6807V23.8332Z" fill="#FFFF00"/>
<path d="M18.45 19.0693H14.6808V23.846H18.45V19.0693Z" fill="#FF9900"/>
<path d="M18.4452 19.0693H14.6808L14.6813 14.2671H18.4452V19.0693Z" fill="#FF0000"/>
<path d="M15.9247 46.4H0.0188247V48H15.9247V46.4ZM7.96235 5.28941C7.22824 5.28941 6.64471 4.70588 6.64471 3.97176C6.64471 3.23765 7.22824 2.65412 7.96235 2.65412C8.69647 2.65412 9.28 3.23765 9.28 3.97176C9.28 4.70588 8.69647 5.28941 7.96235 5.28941ZM0 11.1059H15.9059V9.50588H8.75294V7.96235H11.9341V0H3.97177V7.96235H7.15294V9.50588H0V11.1059ZM14.0988 33.9953H8.01882V27.9153H14.0988V33.9953ZM7.90588 27.8024H1.82588V21.7224H7.90588V27.8024ZM15.9247 12.8H0.0188247V44.5929H15.9247V12.8Z" fill="#FDFDFD"/>
</svg>
