<svg width="48" height="48" fill="none" xmlns="http://www.w3.org/2000/svg"><path d="M47.817 41.059h-4.194v-4.774h4.194v4.774z" fill="#63F"/><path d="M47.817 36.285h-4.194v-4.8h4.194v4.8z" fill="#09F"/><path d="M47.817 31.485h-4.194v-4.773h4.194v4.773z" fill="#3F0"/><path d="M43.623 21.919h4.194v4.793h-4.194v-4.793z" fill="#FF0"/><path d="M47.817 17.122h-4.194v4.797h4.194v-4.797z" fill="#F90"/><path d="M47.817 17.122h-4.194v-4.77h4.194v4.77z" fill="red"/><path d="M43.623 42.971h-4.194v-4.773h4.194v4.773z" fill="#63F"/><path d="M43.623 38.199h-4.194v-4.784h4.194V38.2z" fill="#09F"/><path d="M43.623 33.415h-4.194v-4.79h4.194v4.79z" fill="#3F0"/><path d="M39.428 23.818h4.195v4.806h-4.194v-4.806z" fill="#FF0"/><path d="M43.623 19.035h-4.194v4.797h4.194v-4.797z" fill="#F90"/><path d="M43.623 19.035h-4.194V14.27h4.194v4.766z" fill="red"/><path d="M39.428 41.06h-4.194v-4.8h4.194v4.8z" fill="#63F"/><path d="M39.428 36.26h-4.194v-4.772h4.194v4.773z" fill="#09F"/><path d="M39.428 31.488h-4.194v-4.774h4.194v4.774z" fill="#3F0"/><path d="M35.235 21.9h4.194v4.814h-4.194V21.9z" fill="#FF0"/><path d="M39.428 17.127h-4.194V21.9h4.194v-4.773z" fill="#F90"/><path d="M39.428 17.127h-4.194v-4.773h4.194v4.773z" fill="red"/><path d="M35.234 39.159h-4.207v-4.826h4.207v4.826z" fill="#63F"/><path d="M35.234 34.333h-4.207V29.54h4.207v4.793z" fill="#09F"/><path d="M35.234 29.54h-4.207V24.8h4.207v4.741z" fill="#3F0"/><path d="M31.027 19.988h4.207V24.8h-4.207v-4.81z" fill="#FF0"/><path d="M35.235 15.213h-4.207v4.775h4.207v-4.775z" fill="#F90"/><path d="M35.234 15.213h-4.207v-4.774h4.207v4.774z" fill="red"/><path d="M31.027 37.178h-4.181v-4.78h4.181v4.78z" fill="#63F"/><path d="M31.027 32.398h-4.181v-4.753h4.181v4.753z" fill="#09F"/><path d="M31.027 27.644h-4.181v-4.76h4.181v4.76z" fill="#3F0"/><path d="M26.846 18.085h4.181v4.8h-4.181v-4.8z" fill="#FF0"/><path d="M31.027 13.275h-4.181v4.81h4.181v-4.81z" fill="#F90"/><path d="M31.027 13.275h-4.181v-4.75h4.181v4.75z" fill="red"/><path d="M26.846 39.151H22.65V34.38h4.195v4.772z" fill="#63F"/><path d="M26.846 34.379H22.65v-4.8h4.195v4.8z" fill="#09F"/><path d="M26.846 29.579H22.65v-4.78h4.195v4.78z" fill="#3F0"/><path d="M22.652 20.012h4.194V24.8h-4.194v-4.787z" fill="#FF0"/><path d="M26.846 15.219H22.65v4.794h4.195v-4.795z" fill="#F90"/><path d="M26.846 15.219H22.65v-4.781h4.195v4.78z" fill="red"/><path d="M22.652 41.059h-4.207v-4.774h4.207v4.774z" fill="#63F"/><path d="M22.652 36.285h-4.207v-4.8h4.207v4.8z" fill="#09F"/><path d="M22.652 31.485h-4.207v-4.773h4.207v4.773z" fill="#3F0"/><path d="M18.445 21.933h4.207v4.779h-4.207v-4.78z" fill="#FF0"/><path d="M22.652 17.122h-4.207v4.81h4.207v-4.81z" fill="#F90"/><path d="M22.652 17.122h-4.207v-4.77h4.207v4.77z" fill="red"/><path d="M18.451 42.987h-3.77v-4.774h3.77v4.774z" fill="#63F"/><path d="M18.445 38.213h-3.764v-4.8h3.764v4.8z" fill="#09F"/><path d="M18.445 33.413h-3.764V28.64h3.764v4.773z" fill="#3F0"/><path d="M14.68 23.833h3.765v4.807H14.68v-4.807z" fill="#FF0"/><path d="M18.45 19.07h-3.77v4.776h3.77v-4.777z" fill="#F90"/><path d="M18.445 19.07h-3.764v-4.803h3.764v4.802z" fill="red"/><path d="M15.925 46.4H.019V48h15.906v-1.6zM7.962 5.29a1.31 1.31 0 0 1-1.317-1.318 1.31 1.31 0 0 1 1.317-1.318A1.31 1.31 0 0 1 9.28 3.972a1.31 1.31 0 0 1-1.318 1.317zM0 11.105h15.906v-1.6H8.753V7.962h3.181V0H3.972v7.962h3.18v1.544H0v1.6zm14.099 22.89h-6.08v-6.08h6.08v6.08zm-6.193-6.194h-6.08v-6.08h6.08v6.08zM15.925 12.8H.019v31.793h15.906V12.8z" fill="#FDFDFD"/></svg>