<svg viewBox="0 0 30 30" fill="none" xmlns="http://www.w3.org/2000/svg"><path d="M25.384 25.375H4.616v2.307h20.77v-2.307zM27.692 23.067H2.308v2.308h25.384v-2.308zM27.692 4.605H2.308v2.308h25.384V4.605zM25.384 2.298H4.616v2.307h20.77V2.298zM30 6.913H0v16.154h30V6.913z" fill="#812D31"/><path d="M9.23 2.298H6.924v25.384H9.23V2.298z" fill="#BD614D"/><path d="M23.077 4.605H6.923v20.77h16.154V4.605z" fill="#E18A24"/><path d="M6.923 4.605H4.615v20.77h2.308V4.605z" fill="#BD614D"/><path d="M6.923 9.22H4.615v13.847h2.308V9.22zM27.692 6.913h-2.307v16.154h2.307V6.913zM25.385 4.605h-2.308v20.77h2.308V4.605z" fill="#F1CD46"/><path d="M25.385 6.913h-2.308v16.154h2.308V6.913zM23.077 23.067h-2.308v2.308h2.308v-2.308z" fill="#BD614D"/><path d="M9.23 23.067H6.924v2.308H9.23v-2.308z" fill="#F1CD46"/><path d="M23.077 4.605h-2.308v2.308h2.308V4.605zM4.615 6.913H2.308v16.154h2.307V6.913z" fill="#BD614D"/><path d="M23.077 2.298H11.539v2.307h11.538V2.298zM23.077 25.375H9.231v2.307h13.846v-2.307z" fill="#F1CD46"/><path fill-rule="evenodd" clip-rule="evenodd" d="M13.846 13.605v-2.307H11.54V8.99h9.23v2.308h-4.615v2.307h2.308v2.308h-2.308v2.308h4.615v2.308h-6.923V18.22H11.54v2.308H9.23v-9.231h2.308v4.615h2.307v-2.308z" fill="#812D31"/><path d="M6.923 6.913H4.615v2.308h2.308V6.913zM9.23 4.605H6.924v2.308H9.23V4.605zM11.539 2.298H9.23v2.307h2.308V2.298z" fill="#fff"/><path d="M23.077-.01H6.923v2.308h16.154V-.01zM23.077 27.682H6.923v2.308h16.154v-2.308z" fill="#812D31"/></svg>