<svg xmlns="http://www.w3.org/2000/svg" xmlns:xlink="http://www.w3.org/1999/xlink" viewBox="0 0 40 40">
  <defs>
    <linearGradient id="linear-gradient" x1="0.5" x2="0.5" y2="1" gradientUnits="objectBoundingBox">
      <stop offset="0" stop-color="#17c9fb"/>
      <stop offset="1" stop-color="#1a74e8"/>
    </linearGradient>
  </defs>
  <path d="M8.76,0H31.24A8.76,8.76,0,0,1,40,8.76V31.24A8.76,8.76,0,0,1,31.24,40H8.76A8.76,8.76,0,0,1,0,31.24V8.76A8.76,8.76,0,0,1,8.76,0Z" fill="url(#linear-gradient)"/>
  <path d="M43.634,68.43h0L42.271,70.8a1.808,1.808,0,1,1-3.131-1.808l1.007-1.745.1-.168a1.492,1.492,0,0,1,1.451-.6s2.006.218,2.151,1.26a1.22,1.22,0,0,1-.211.686Zm19.4-6.05H58.767a.629.629,0,0,1-.467-.18V62.2l-4.565-7.907h-.006l-.274-.393c-.449-.686-1.161,1.069-1.161,1.069-.851,1.956.121,4.179.459,4.851L59.091,70.8a1.808,1.808,0,1,0,3.131-1.808l-1.585-2.746c-.031-.067-.084-.247.241-.248h2.154a1.808,1.808,0,0,0,0-3.616Zm-8.283,2.458S54.976,66,54.1,66H38.33a1.808,1.808,0,1,1,0-3.616h4.053c.654-.038.81-.416.81-.416h0L48.487,52.8h0a.4.4,0,0,0,0-.371L46.74,49.4a1.808,1.808,0,0,1,3.131-1.8l.81,1.4.809-1.4a1.808,1.808,0,1,1,3.131,1.808L47.259,62.159c-.032.078-.042.2.2.221h4.4v.043a2.956,2.956,0,0,1,2.889,2.414Z" transform="translate(-30.815 -39.397)" fill="#fff"/>
</svg>
