<svg xmlns="http://www.w3.org/2000/svg" viewBox="0 0 36.501 40"><defs><linearGradient id="a" x1=".915" y1=".05" x2="-.383" y2=".719" gradientUnits="objectBoundingBox"><stop offset="0" stop-color="#00a0ff"/><stop offset=".007" stop-color="#00a1ff"/><stop offset=".26" stop-color="#00beff"/><stop offset=".512" stop-color="#00d2ff"/><stop offset=".76" stop-color="#00dfff"/><stop offset="1" stop-color="#00e3ff"/></linearGradient><linearGradient id="b" x1="1.076" y1=".5" x2="-1.305" y2=".5" gradientUnits="objectBoundingBox"><stop offset="0" stop-color="#ffe000"/><stop offset=".409" stop-color="#ffbd00"/><stop offset=".775" stop-color="orange"/><stop offset="1" stop-color="#ff9c00"/></linearGradient><linearGradient id="c" x1=".862" y1=".178" x2="-.501" y2="1.948" gradientUnits="objectBoundingBox"><stop offset="0" stop-color="#ff3a44"/><stop offset="1" stop-color="#c31162"/></linearGradient><linearGradient id="d" x1="-.188" y1="-.542" x2=".421" y2=".249" gradientUnits="objectBoundingBox"><stop offset="0" stop-color="#32a071"/><stop offset=".068" stop-color="#2da771"/><stop offset=".476" stop-color="#15cf74"/><stop offset=".801" stop-color="#06e775"/><stop offset="1" stop-color="#00f076"/></linearGradient></defs><path data-name="Path 1203" d="M.732 1.156A3.085 3.085 0 0 0 0 3.34v34.387a3.076 3.076 0 0 0 .732 2.184l.118.112 19.581-19.261v-.454L.849 1.043l-.118.113z" transform="translate(.006 -.538)" fill="url(#a)"/><path data-name="Path 1204" d="m35.635 32.643-6.525-6.424v-.454l6.527-6.422.149.081 7.733 4.322c2.209 1.234 2.209 3.253 0 4.49l-7.733 4.321z" transform="translate(-8.674 -5.994)" fill="url(#b)"/><path data-name="Path 1205" d="m27.416 35.384-6.676-6.567L1.043 48.2c.728.759 1.932.852 3.284.1l23.089-12.916" transform="translate(-.305 -8.82)" fill="url(#c)"/><path data-name="Path 1206" d="M27.416 13.754 4.327.845C2.975.089 1.771.183 1.043.941L20.74 20.32l6.676-6.568z" transform="translate(-.305 -.323)" fill="url(#d)"/><g data-name="Group 971"><path data-name="Path 1207" d="M26.963 26.421 4.023 39.243c-1.285.719-2.43.671-3.166.017l-.118.116.118.111a2.667 2.667 0 0 0 3.166-.015l23.089-12.908-.148-.143z" opacity=".2"/><path data-name="Path 1208" d="M.738 39.148a3.085 3.085 0 0 1-.732-2.184v.227a3.076 3.076 0 0 0 .732 2.18l.118-.116-.118-.112z" opacity=".12"/></g><path data-name="Path 1209" d="m34.845 22.016-7.882 4.406.149.145 7.733-4.321A2.732 2.732 0 0 0 36.502 20a2.906 2.906 0 0 1-1.657 2.017z" opacity=".12"/><path data-name="Path 1210" d="m4.022.75 30.821 17.227a2.9 2.9 0 0 1 1.657 2.018 2.732 2.732 0 0 0-1.657-2.246L4.022.524C1.815-.711.006.315.006 2.803v.227C.006.541 1.813-.484 4.022.75z" fill="#fff" opacity=".25"/></svg>