<svg viewBox="0 0 16 16" fill="none" xmlns="http://www.w3.org/2000/svg">
    <circle cx="8" cy="8" r="8" fill="white"/>
    <path d="M4.738 5.70521C4.15716 5.7022 3.59909 5.92647 3.18614 6.3284C2.77342 6.73011 2.53933 7.27645 2.53467 7.84759C2.53933 8.41874 2.77342 8.96507 3.18614 9.36678C3.59909 9.76871 4.15716 9.99299 4.738 9.98998C5.68132 9.98998 6.36713 9.31944 7.0368 8.41658L7.12037 8.30391L7.67106 9.10814L7.6262 9.16579C6.88988 10.1119 6.01852 10.9026 4.73876 10.9027C3.91351 10.9065 3.12014 10.5875 2.53277 10.0151C1.94529 9.44255 1.6119 8.66332 1.60621 7.84829L1.6062 7.84689C1.6119 7.03186 1.94529 6.25264 2.53277 5.68013C3.12014 5.10772 3.91351 4.78866 4.73876 4.79252C6.29265 4.79263 7.28313 5.95315 8.30169 7.47277C8.8128 8.2353 9.26327 8.86642 9.73461 9.30748C10.2032 9.74598 10.6854 9.98997 11.2615 9.98997C11.6568 9.99067 12.0451 9.88682 12.3857 9.68935C12.7262 9.49188 13.0066 9.20808 13.1979 8.86766L13.2265 8.81663H14.2354L14.1799 8.95408C13.9476 9.52944 13.5456 10.0226 13.0262 10.3699C12.5067 10.7172 11.8937 10.9027 11.2664 10.9027H11.2615C9.70767 10.9027 8.75587 9.78998 7.69571 8.21992C7.16349 7.43173 6.71396 6.80153 6.24865 6.36752C5.78686 5.93679 5.31525 5.70521 4.738 5.70521Z"
          fill="#F7296E"/>
    <path d="M14.3709 8.21614L14.3601 8.30394H10.5931V7.39124H13.4137C13.308 6.93235 13.053 6.51848 12.6857 6.21385C12.2874 5.88352 11.7828 5.70316 11.2619 5.70521C10.3182 5.70521 9.63256 6.37607 8.96253 7.27964L8.87944 7.39169L8.32596 6.59269L8.37091 6.53474C9.10688 5.58585 9.97895 4.79261 11.2613 4.79252C12.0865 4.78866 12.8799 5.10772 13.4673 5.68013C14.0547 6.25264 14.3881 7.03186 14.3938 7.84689C14.3935 7.97001 14.3859 8.09392 14.3709 8.21614Z"
          fill="#F7296E"/>
</svg>
