<svg viewBox="0 0 16 16" fill="none" xmlns="http://www.w3.org/2000/svg"><g clip-path="url(#a)"><path d="M15.759 9.935a7.998 7.998 0 1 1-15.52-3.87 7.998 7.998 0 0 1 15.52 3.87z" fill="#F7931A"/><path d="M11.527 6.86c.159-1.064-.652-1.637-1.76-2.018l.36-1.443-.878-.218-.35 1.404c-.231-.058-.468-.112-.704-.166l.353-1.413-.877-.219-.36 1.442a29.013 29.013 0 0 1-.56-.132v-.005l-1.21-.302-.234.938s.652.15.638.158c.355.089.42.324.409.51l-.41 1.644a.713.713 0 0 1 .092.03l-.093-.024-.574 2.302c-.044.108-.154.27-.403.208.01.013-.638-.16-.638-.16l-.435 1.006 1.142.285c.213.053.42.109.626.161l-.363 1.459.876.218.36-1.443c.24.065.472.125.7.182L6.875 12.7l.878.219.363-1.456c1.497.283 2.623.17 3.097-1.185.382-1.09-.02-1.719-.807-2.129.574-.132 1.006-.51 1.121-1.289zM9.52 9.673c-.271 1.09-2.107.5-2.702.353l.482-1.933c.595.149 2.504.443 2.22 1.58zm.271-2.829c-.247.992-1.775.488-2.27.365l.437-1.753c.495.124 2.091.354 1.834 1.388z" fill="#fff"/></g><defs><clipPath id="a"><path fill="#fff" d="M0 0h15.998v16H0z"/></clipPath></defs></svg>