<svg viewBox="0 0 16 16" fill="none" xmlns="http://www.w3.org/2000/svg">
  <path d="M8 16C12.4183 16 16 12.4183 16 8C16 3.58172 12.4183 0 8 0C3.58172 0 0 3.58172 0 8C0 12.4183 3.58172 16 8 16Z" fill="#988430"/>
  <path d="M8 15.7437C12.2768 15.7437 15.7437 12.2768 15.7437 8C15.7437 3.72325 12.2768 0.256256 8 0.256256C3.72325 0.256256 0.256256 3.72325 0.256256 8C0.256256 12.2768 3.72325 15.7437 8 15.7437Z" fill="#7A6A2A"/>
  <path d="M8 15.5806C12.1866 15.5806 15.5806 12.1866 15.5806 8C15.5806 3.81336 12.1866 0.419413 8 0.419413C3.81336 0.419413 0.419413 3.81336 0.419413 8C0.419413 12.1866 3.81336 15.5806 8 15.5806Z" fill="#BA9F33"/>
  <path fill-rule="evenodd" clip-rule="evenodd" d="M3.49773 7.14564C3.45242 7.10426 3.40454 7.06278 3.36051 7.0214C3.31648 6.98001 3.27125 6.93854 3.22594 6.89715L3.09129 6.76915C3.06927 6.74714 3.04597 6.72777 3.02396 6.70566C3.00194 6.68629 2.97609 6.66428 2.95407 6.64482C2.77538 6.47526 2.59567 6.30571 2.41946 6.13606C2.60198 6.30306 2.78067 6.46886 2.9632 6.63834L3.0266 6.70182C3.04862 6.72375 3.07191 6.74321 3.09393 6.76523L3.2285 6.88947C3.27381 6.93086 3.31785 6.97233 3.36316 7.01747C3.40847 7.06261 3.45242 7.10434 3.49773 7.14564ZM1.12623 7.12004C1.12623 7.12004 1.77604 7.18729 2.09323 7.2326C2.38703 7.27407 3.30615 7.41513 3.30615 7.41513L1.12623 7.12004ZM1.12623 7.12004C1.30876 7.13557 1.49129 7.15494 1.67381 7.1744C1.767 7.18344 1.85634 7.19377 1.94569 7.20282L2.08282 7.21843C2.12813 7.22483 2.17216 7.23132 2.21747 7.2378L2.76122 7.3245L3.033 7.36981C3.12235 7.38534 3.21169 7.40224 3.30487 7.41777C3.21553 7.40873 3.12235 7.39575 3.033 7.38278L2.76122 7.34396L2.21747 7.26374C2.17216 7.25726 2.12813 7.24813 2.08282 7.24173L1.9456 7.22594C1.85626 7.2169 1.76307 7.20393 1.67373 7.19351C1.4912 7.17158 1.30876 7.14846 1.12623 7.12004ZM3.24147 7.58443C3.24147 7.58443 2.54763 7.76055 2.3133 7.82788C2.0829 7.89129 1.38513 8.10359 1.38513 8.10359L3.24147 7.58443Z" fill="#CFB66C"/>
  <path fill-rule="evenodd" clip-rule="evenodd" d="M3.24147 7.58443C3.08745 7.62974 2.93419 7.67377 2.77794 7.71524L2.3145 7.83949C2.16047 7.8848 2.0073 7.92883 1.8537 7.97414L1.6233 8.03755C1.54692 8.05956 1.46927 8.07893 1.39034 8.10104C1.46662 8.07543 1.54436 8.04924 1.62074 8.02722L1.85114 7.95349C2.00516 7.90554 2.15834 7.86022 2.31194 7.81235C2.46852 7.77353 2.62263 7.73205 2.77922 7.69451C2.92804 7.65696 3.0848 7.61941 3.24147 7.58443ZM1.48224 8.53077C1.55853 8.50227 2.43883 8.09199 2.64337 7.99616C2.74577 7.9482 3.04341 7.84256 3.04341 7.84256L1.48224 8.53077Z" fill="#CFB66C"/>
  <path fill-rule="evenodd" clip-rule="evenodd" d="M1.48224 8.53077C1.54948 8.50517 1.61297 8.47386 1.67765 8.44407L1.86923 8.35473L2.25374 8.16964C2.38174 8.1088 2.50615 8.04164 2.63817 7.98447C2.70549 7.95605 2.77282 7.93276 2.84006 7.91074L2.94246 7.8784C2.97737 7.86936 3.00979 7.85894 3.04486 7.8499C2.91686 7.91074 2.78212 7.96254 2.65395 8.02202C2.52595 8.0855 2.39505 8.1373 2.26295 8.19422L1.87204 8.36634C1.7408 8.4195 1.61289 8.47642 1.48224 8.53077ZM1.56757 8.88917C1.56757 8.88917 2.36493 8.42189 2.63936 8.2717C2.78306 8.19149 3.24779 7.961 3.24779 7.961L1.56757 8.88917Z" fill="#CFB66C"/>
  <path fill-rule="evenodd" clip-rule="evenodd" d="M1.56757 8.88917C1.70214 8.80631 1.83945 8.72235 1.97666 8.63693L2.18146 8.5126C2.25135 8.47121 2.31868 8.43238 2.38993 8.391C2.45982 8.34953 2.52715 8.30814 2.59831 8.26931C2.63219 8.24839 2.66769 8.23022 2.70447 8.21496L2.81318 8.1606C2.95689 8.09071 3.10059 8.01946 3.25205 7.95861C3.11484 8.0454 2.9737 8.11921 2.83264 8.1955C2.76275 8.23433 2.6915 8.26931 2.62161 8.30814C2.55172 8.34697 2.48439 8.38844 2.41314 8.42598C2.34325 8.46737 2.27593 8.5062 2.20476 8.54374L1.99373 8.65894L1.56757 8.88917ZM3.24139 8.0634C3.24139 8.0634 2.7456 8.44399 2.58509 8.56567C2.42458 8.68736 1.95209 9.02912 1.95209 9.02912L3.24139 8.0634Z" fill="#CFB66C"/>
  <path fill-rule="evenodd" clip-rule="evenodd" d="M6.08674 11.1327L5.83305 10.6524L5.98059 10.0518L7.033 9.64531L6.58509 8.72627L6.80644 7.7981L7.22202 6.96695L8.5062 6.76506L9.44981 5.86539L11.4874 6.01941L11.8874 8.19806L11.1171 10.9411L10.6784 12.3612L8.89967 12.4285L8.07381 11.8564L7.10682 11.4524L6.08674 11.1327Z" fill="#E2CC85"/>
  <path fill-rule="evenodd" clip-rule="evenodd" d="M9.20653 11.1171C9.20653 11.1171 8.96051 11.2298 8.54093 11.2038C8.4195 11.0408 7.56907 10.9644 7.56907 10.9644C7.56907 10.9644 7.46291 10.9321 7.27518 11.0097C7.08625 11.0865 6.90756 11.077 6.74057 11.1184C6.57357 11.1598 6.40777 10.9424 6.27977 10.8971C6.15176 10.8492 5.98204 10.734 5.98204 10.734L5.62364 10.699L4.90394 10.3948L3.76055 9.25568L3.44986 9.74208L3.35403 10.344L3.69971 11.0573L4.63044 11.9052L6.44531 12.366L7.52102 12.0491L8.86861 11.4795L9.20653 11.1171Z" fill="#F1D789"/>
  <path fill-rule="evenodd" clip-rule="evenodd" d="M2.75857 7.09129L2.98897 6.3936L3.26349 5.94304L4.14754 5.86923L3.88215 6.64337L3.14308 7.95861L3.44986 9.13271L2.9062 9.4045L2.73911 9.14825L2.60454 8.56055L2.5955 7.90033L2.75857 7.09129Z" fill="#F4ECB4"/>
  <path fill-rule="evenodd" clip-rule="evenodd" d="M3.75014 11.0693L3.58059 10.8324C3.58059 10.8324 3.53527 10.7197 3.56122 10.6214C3.58682 10.5217 3.58315 10.5152 3.57026 10.4777C3.55738 10.4401 3.44858 10.3107 3.45506 10.1993C3.46146 10.0867 3.44602 10.0491 3.52879 9.95985C3.61549 9.87315 3.58963 9.72297 3.58963 9.72297L3.70227 9.79285L3.72787 9.75403C3.72787 9.75403 3.76926 9.78637 3.76926 9.83689C3.7783 9.767 3.74076 9.44333 3.82618 9.3696C3.91159 9.29587 4.06306 9.7152 4.06306 9.7152L3.96988 9.10677L3.73035 8.4829L3.30445 7.9133L3.27885 7.28542V7.23106C3.27885 7.23106 3.08335 7.53144 3.02899 7.76866C2.99017 7.93173 3.08335 8.12979 3.06398 8.36412C3.04836 8.59716 3.02899 8.57899 3.08591 8.67132C3.14283 8.76365 3.28141 8.95352 3.22705 9.09073C3.17918 9.20858 3.01602 9.12572 3.01602 9.12572C3.01602 9.12572 2.98368 9.22146 2.93965 9.25645C2.92412 9.19953 2.90731 9.16326 2.87625 9.12845C2.8736 9.15046 2.8672 9.18025 2.8672 9.18025C2.8672 9.18025 2.8387 9.0909 2.8102 8.97826C2.77146 8.82816 2.72998 8.6301 2.69244 8.52395C2.67691 8.58479 2.63808 8.76988 2.63808 8.76988L2.6601 9.05472L2.76625 9.44563L2.86865 9.70163L2.96832 10.0149L3.05493 10.2253L3.12482 10.3858L3.18566 10.7471L3.47947 11.0577L3.63614 11.1276L3.75014 11.0693Z" fill="#F3E19D"/>
  <path fill-rule="evenodd" clip-rule="evenodd" d="M2.9126 6.52169C2.9126 6.52169 2.70157 6.88008 2.64081 7.24139C2.58005 7.60269 2.52561 7.98447 2.56401 8.47633C2.60284 8.9722 2.67665 9.27633 2.73621 9.49385C2.83861 9.85506 3.10383 10.3573 3.10383 10.3573L3.11287 10.3379C3.0683 10.2534 3.03272 10.1644 3.00672 10.0725C2.97173 9.93527 2.95876 9.7722 2.92642 9.69839C2.89792 9.62466 2.85005 9.56117 2.82675 9.47055C2.80474 9.38385 2.80115 9.24663 2.73357 9.14441C2.70507 9.10293 2.67008 8.99422 2.65975 8.8855C2.64678 8.72235 2.66624 8.53982 2.65071 8.38972C2.62221 8.13986 2.60284 7.9703 2.62869 7.83949C2.65455 7.70867 2.78929 7.3373 2.87215 7.04213C2.92651 6.85312 2.89408 6.69389 2.99375 6.52945C3.09342 6.36638 3.15435 6.22268 3.17628 6.12301C3.20188 6.03238 2.9126 6.52169 2.9126 6.52169Z" fill="#F2E8B0"/>
  <path fill-rule="evenodd" clip-rule="evenodd" d="M3.9133 6.37798C3.9133 6.37798 3.80459 6.41041 3.75279 6.46733C3.70099 6.52169 3.67898 6.567 3.60909 6.6589C3.5392 6.75081 3.53527 6.8259 3.47827 6.9411C3.42135 7.05374 3.29574 7.2233 3.28021 7.28414C3.26468 7.34498 3.23883 7.62974 3.20649 7.76439C3.17798 7.89905 3.23883 8.06477 3.23883 8.06477L3.31255 8.04915C3.31255 8.04915 3.31255 8.14498 3.38637 8.20975C3.4601 8.27315 3.47307 7.99479 3.47307 7.99479L3.74878 7.06406L4.16427 6.78187L4.20958 6.55403L3.9133 6.37798Z" fill="#F5EEC0"/>
  <path fill-rule="evenodd" clip-rule="evenodd" d="M4.1152 6.80004C4.1152 6.80004 3.9197 6.81293 3.82396 6.8829C3.78513 6.91132 3.7696 6.93461 3.72821 6.9696C3.65184 7.033 3.5741 7.09129 3.53664 7.1744C3.49517 7.25717 3.44986 7.38278 3.4188 7.61967C3.40582 7.71934 3.40582 7.81124 3.39678 7.89154C3.38381 8.00026 3.36444 8.08695 3.37476 8.14754C3.38773 8.27179 3.5159 8.33655 3.52836 8.47761L3.79375 8.34304L4.04361 7.35787L4.57438 7.02507L4.27401 6.68851L4.1152 6.80004Z" fill="#E6DB9D"/>
  <path fill-rule="evenodd" clip-rule="evenodd" d="M2.71514 13.4339C2.71625 13.4242 2.71735 13.4145 2.71846 13.4045C2.75721 13.0717 2.76378 12.8195 2.79219 12.6615C2.83358 12.4376 2.86208 12.3543 2.85559 12.2705C2.84655 12.1359 2.83622 12.0375 2.84919 11.934C2.86857 11.7967 3.00322 11.6337 2.99938 11.521C2.99674 11.4317 2.95142 11.3735 2.9126 11.3191C2.87377 11.2648 2.84271 11.2195 2.84271 11.2195C2.84271 11.2195 3.1081 11.0369 3.10554 10.3016C3.11096 10.3031 3.11617 10.3053 3.12107 10.3081L3.2518 10.6796L3.34114 10.7883L3.68418 11.4278L4.12561 11.8563L4.77798 12.2951L5.18707 12.7403L5.22846 13.9273L4.69384 14.6212L4.60629 14.7797C3.91072 14.4305 3.27296 13.9767 2.71514 13.4339Z" fill="#E5CB7A"/>
  <path fill-rule="evenodd" clip-rule="evenodd" d="M4.34825 14.5696C4.34825 14.5696 4.35729 14.422 4.47898 14.3262C4.49843 14.3585 4.51132 14.3897 4.50748 14.4129C4.52949 14.3741 4.68352 14.1256 5.03176 14.0608C5.38001 13.9974 5.46415 13.7437 5.46415 13.7437L6.20322 13.0719L7.04853 12.2939L8.07637 11.9327L8.55672 11.8148C8.55672 11.8148 8.56576 11.8498 8.54767 11.9275C8.63693 11.9211 8.83499 11.8758 9.04081 11.8032C9.12367 11.7709 9.20141 11.7579 9.24279 11.8007C9.30364 11.8576 9.31268 11.9922 9.31652 12.0724C9.41619 12.0504 9.53139 11.9547 9.62372 11.9637C9.77135 11.9793 9.90208 12.1527 10.0523 12.1527C10.2503 12.1527 10.3396 12.0311 10.4782 11.9352C10.561 11.8783 10.6801 11.8072 10.7474 11.7592C10.9079 11.6413 12.6063 11.1223 12.6063 11.1223L13.2017 11.1611L13.2976 11.8006L13.2464 13.4723C13.2401 13.4783 13.2338 13.4846 13.2274 13.4907L10.5199 14.9047L6.76693 15.4801C5.92626 15.3427 5.11499 15.0637 4.3677 14.6548L4.34825 14.5696Z" fill="#D8C173"/>
  <path fill-rule="evenodd" clip-rule="evenodd" d="M2.94272 13.6466C2.99605 13.5351 3.04401 13.4418 3.05246 13.4084C3.05911 13.4757 3.07132 13.6232 3.09589 13.7801C3.0443 13.7362 2.99324 13.6918 2.94272 13.6466Z" fill="#F1D789"/>
  <path fill-rule="evenodd" clip-rule="evenodd" d="M5.68422 15.2198L6.1696 15.0848L6.21099 15.0978C6.21099 15.0978 6.233 15.1107 6.233 15.1547C6.29385 15.1198 6.34564 15.1262 6.38319 15.103C6.40256 15.1444 6.42193 15.2816 6.50743 15.2984C6.59669 15.3178 6.69252 15.2596 6.78963 15.1858C6.88538 15.1095 6.99443 15.0136 7.07695 14.9748C7.10723 15.0305 7.13404 15.088 7.15725 15.1469C7.26596 15.0602 7.45498 14.7081 7.7242 14.7145C7.80202 14.5306 7.93202 14.3736 8.09813 14.2628C8.34799 14.0932 8.50458 14.0803 8.70008 14.0958C8.77772 13.9949 8.87341 13.9093 8.98227 13.8434C9.01461 13.8563 9.10396 13.9107 9.21532 13.8589C9.32796 13.8072 9.45476 13.6065 9.62176 13.5806C9.71175 13.5682 9.80325 13.5875 9.88066 13.635C9.88066 13.635 10.3671 13.1521 10.7027 12.9916C10.6897 12.9527 10.6639 12.8065 11.0573 12.4828C11.0793 12.5023 11.0638 12.5566 11.0793 12.5596C11.0857 12.5596 11.1817 12.5182 11.3033 12.425C11.4534 12.3124 11.6333 12.1946 11.742 12.1622C11.9468 12.1014 12.1641 12.2256 12.1641 12.2256C12.1826 12.2127 12.2032 12.203 12.2249 12.1971C12.2767 12.1881 12.3142 12.1816 12.3427 12.1715C12.3401 12.2388 12.3777 12.354 12.3427 12.4537C12.3832 12.4765 12.4262 12.4947 12.4707 12.5081C12.4488 12.5559 12.4008 12.6776 12.3206 12.7359C12.3878 12.7683 12.3969 12.8058 12.4927 12.8383C12.4539 12.8927 12.3903 12.9859 12.362 13.0431C12.3335 13.104 12.2312 13.3564 12.1859 13.4521C12.138 13.5479 12.0733 13.724 12.0422 13.7593C12.011 13.7946 11.8985 13.9444 11.8118 14.0181C11.8886 13.9896 12.2028 13.8939 12.336 13.8576C12.2964 13.9158 12.0952 14.2142 11.9019 14.5012C10.976 15.0561 9.94258 15.4073 8.87035 15.5315C7.79812 15.6556 6.71175 15.5498 5.68363 15.2211L5.68422 15.2198Z" fill="#E0CD81"/>
  <path fill-rule="evenodd" clip-rule="evenodd" d="M4.1472 6.76506C4.1472 6.76506 4.03465 6.76506 4.01263 6.78059C3.99061 6.79612 4.12527 6.82854 4.16666 6.84407C4.20804 6.85961 4.29739 6.93077 4.32068 6.98778C4.3427 7.04213 5.12973 7.35923 5.12973 7.35923L5.68636 7.33073L5.87827 7.0656L5.51322 6.74586L5.76922 5.99117L5.4301 6.04553L4.61457 6.53193L4.20548 6.6886L4.1472 6.76506Z" fill="#DFC57C"/>
  <path fill-rule="evenodd" clip-rule="evenodd" d="M5.3696 7.01491C5.37765 7.02794 5.38898 7.03862 5.40246 7.04589C5.41594 7.05315 5.43109 7.05674 5.4464 7.0563C5.5616 7.0563 5.66767 7.0848 5.7117 7.143C5.78551 7.23627 5.99006 7.534 5.99006 7.534L6.47936 7.71004L6.51093 7.13387L5.97632 6.76241L5.36789 6.98633V7.01483L5.3696 7.01491Z" fill="#E5CC7C"/>
  <path fill-rule="evenodd" clip-rule="evenodd" d="M5.2736 7.2285C5.2736 7.2285 5.36286 7.23499 5.4755 7.19351C5.58814 7.15204 5.77323 7.06278 5.85353 7.09777C5.96608 7.14564 5.94278 7.29583 6.06455 7.43057C6.13828 7.51343 6.27294 7.51087 6.34931 7.60021C6.42568 7.68956 6.68843 7.64809 6.68843 7.64809L6.7881 8.18569L6.38814 8.69837L6.25732 9.33521H5.71648L5.2224 9.1392L4.97903 8.5504L5.10071 7.95494L5.2736 7.2285Z" fill="#D2C281"/>
  <path fill-rule="evenodd" clip-rule="evenodd" d="M6.31979 7.25436C6.3332 7.25849 6.34714 7.26068 6.36117 7.26084C6.34564 7.27381 6.31322 7.30223 6.32619 7.37604C6.33916 7.44986 6.38054 7.54304 6.34564 7.59996C6.3735 7.63042 6.39428 7.66667 6.40649 7.70611C6.4285 7.7696 6.43499 7.8278 6.5786 7.83693C6.55788 7.84969 6.53877 7.8649 6.52169 7.88224C6.52169 7.88224 6.62136 7.96894 6.67187 8.04915C6.72358 8.04693 6.8608 8.00427 6.8608 8.00427L6.8893 8.02372L6.95014 7.99812C6.95014 7.99812 6.89323 7.97611 6.93461 7.83761C6.97344 7.71593 7.00843 7.72241 7.01141 7.71337C7.0144 7.70432 7.03992 7.57615 7.03992 7.52435C7.05929 7.45711 7.07482 7.25257 7.07482 7.25257L7.03343 6.80081L6.80047 6.65967L6.61103 6.4768L6.43234 6.81335L6.31467 6.93069L6.30562 7.22193L6.31979 7.25436Z" fill="#E2C270"/>
  <path fill-rule="evenodd" clip-rule="evenodd" d="M6.88026 6.87642C6.88026 6.87642 6.92164 6.99418 6.93726 7.0848C6.94276 7.06718 6.94581 7.04889 6.9463 7.03044C6.9463 7.03044 6.97865 7.20913 6.98505 7.28294C6.99802 7.2803 7.01065 7.27646 7.01355 7.28934C7.01645 7.30223 7.04597 7.44602 7.03915 7.52623C7.09305 7.4373 7.16764 7.36271 7.25658 7.3088C7.30837 7.27637 7.36922 7.24147 7.4327 7.23883C7.53237 7.23627 7.60482 7.30231 7.72395 7.30231C8.01126 7.30231 8.27153 7.09129 8.4631 7.0266C8.60416 6.97865 8.72585 6.94374 8.81126 6.86601C8.85274 6.8311 8.92655 6.75345 8.99379 6.63817C9.08314 6.48457 9.17632 6.35085 9.26959 6.33404C9.22739 6.34179 9.18446 6.34482 9.14159 6.34308C9.14159 6.34308 9.17009 6.31458 9.21839 6.27575C9.26669 6.23693 9.32454 6.18906 9.40732 6.18906C9.55494 6.18906 9.62867 6.21099 9.71153 6.21099C9.79439 6.20843 9.84226 6.18906 9.84226 6.18906C9.84226 6.18906 9.92904 6.2499 10.1245 6.2499C10.32 6.25246 10.4507 6.26927 10.553 6.2784C10.6553 6.28753 10.9983 6.2499 11.0967 6.2528C11.1608 6.25527 11.2238 6.27068 11.2818 6.29811L10.9647 5.37651L9.82528 4.38067L9.14697 4.86093L8.10351 5.9043L7.09385 6.2784L6.88282 6.51529V6.87642H6.88026Z" fill="#CCB360"/>
  <path fill-rule="evenodd" clip-rule="evenodd" d="M9.14569 6.3482C9.14569 6.3482 9.17419 6.31979 9.22197 6.28096C9.26976 6.24213 9.32821 6.19418 9.41099 6.19418C9.55853 6.19418 9.63234 6.21619 9.7152 6.21619C9.79806 6.21363 9.84593 6.19418 9.84593 6.19418C9.84593 6.19418 9.9328 6.25493 10.1281 6.25493C10.3236 6.25749 10.4544 6.2743 10.5567 6.28335C10.659 6.29239 11.0019 6.25493 11.1003 6.25775C11.1645 6.26016 11.2274 6.27558 11.2854 6.30306L11.1417 5.88749L10.9748 5.57039L10.4984 5.04866C10.4984 5.04866 9.92665 4.71211 9.9223 4.70955C9.91974 4.70699 9.72425 4.65519 9.72425 4.65519L9.20644 4.96845L8.7366 6.18402L8.72755 6.44002L9.03168 6.58372C9.10805 6.45572 9.19228 6.35332 9.27121 6.34035C9.19996 6.34812 9.14569 6.3482 9.14569 6.3482Z" fill="#D5B457"/>
  <path fill-rule="evenodd" clip-rule="evenodd" d="M9.1392 6.43499C9.09389 6.43755 9.05643 6.4285 9.04602 6.39616C9.00719 6.28745 8.97613 6.27191 8.94362 6.27191C8.9111 6.27191 8.86724 6.3418 8.84122 6.3482C8.81519 6.3546 8.7843 6.26799 8.7843 6.26799L8.7558 6.25502C8.7558 6.25502 8.5888 6.36373 8.47104 6.4919C8.35328 6.62007 8.16034 6.83759 8.07364 6.87633C7.98694 6.91507 7.68913 6.92813 7.58724 6.95014C7.48535 6.97216 7.37237 7.04597 7.35684 7.06278C7.34131 7.07959 7.40224 7.09768 7.41129 7.1145C7.42033 7.13003 7.31153 7.12354 7.30249 7.1401C7.29609 7.15307 7.32808 7.22679 7.34396 7.26434C7.37173 7.25053 7.40221 7.24302 7.43322 7.24233C7.53289 7.23977 7.60542 7.30581 7.72446 7.30581C8.01186 7.30581 8.27204 7.09478 8.46362 7.03002C8.60476 6.98214 8.72644 6.94716 8.81186 6.8695C8.85325 6.8346 8.92706 6.75686 8.99439 6.64166C9.04354 6.56273 9.09124 6.48934 9.1392 6.43499Z" fill="#D2B257"/>
  <path fill-rule="evenodd" clip-rule="evenodd" d="M5.0176 12.8415C5.0176 12.8415 4.992 12.7456 4.75477 12.4984C4.68745 12.4285 4.64606 12.3704 4.60075 12.3289C4.48811 12.2226 4.42206 12.1942 4.34185 12.1334C4.1658 12.0026 3.97423 12.0026 3.82669 11.8421C3.67915 11.6816 3.5072 11.3749 3.38773 11.0615C3.26997 10.7482 3.23755 10.6486 3.23755 10.6395C3.23755 10.6305 3.26997 10.5696 3.31136 10.5787C3.35275 10.5877 3.35275 10.6679 3.36316 10.6874C3.38378 10.7192 3.40716 10.749 3.43305 10.7767C3.49389 10.8466 3.58059 10.9303 3.62462 11.055C3.61557 10.9489 3.57931 10.8311 3.57931 10.8311C3.57931 10.8311 3.80715 10.9748 4.00128 11.1249C4.19678 11.2751 4.27699 11.3269 4.33408 11.4226C4.39117 11.5184 4.52565 11.7709 4.59008 11.8447C4.65451 11.9185 5.53728 12.1968 5.53728 12.1968L5.95721 12.5099L6.16567 12.9668L6.00252 13.2228L5.68926 13.2902L5.1805 13.0623L5.0176 12.8415Z" fill="#D2B159"/>
  <path fill-rule="evenodd" clip-rule="evenodd" d="M3.88736 11.2673C3.88736 11.2673 3.99351 11.4369 4.25242 11.5974C4.48546 11.7385 4.85436 11.8667 5.18323 11.9431C5.37216 11.9884 5.56117 12.0233 5.73073 12.0259C6.18769 12.0323 6.50223 11.9017 6.89195 11.8589C7.10298 11.8369 7.36188 11.8201 7.6311 11.7565C7.9767 11.6737 8.18125 11.5804 8.45961 11.4493C8.6615 11.3562 8.84668 11.2863 8.99678 11.1969C9.20781 11.0727 9.36184 10.9342 9.54052 10.8928C9.51851 10.9536 9.49521 11.0624 9.31917 11.175C9.41235 11.1724 9.54052 11.166 9.54052 11.166C9.54052 11.166 9.41628 11.2397 9.19748 11.4054C9.06283 11.5078 8.88422 11.6811 8.7017 11.7963C8.58385 11.8701 8.45568 11.9243 8.37154 11.9685C8.16674 12.0812 8.08414 12.1381 7.94957 12.2757C7.99744 12.2732 8.00137 12.2757 8.00137 12.2757C8.00137 12.2757 7.83172 12.2977 7.71012 12.3624C7.68452 12.3624 7.64015 12.3534 7.5625 12.3754C7.50165 12.3948 7.42136 12.4389 7.33858 12.4621C7.22074 12.4971 7.182 12.4815 7.182 12.4815L7.20137 12.5204C7.20137 12.5204 7.04777 12.5177 6.99657 12.5229C7.00561 12.5255 7.00305 12.5294 7.00305 12.5294C6.99406 12.5309 6.98539 12.534 6.97745 12.5385C6.95281 12.5544 6.92571 12.5662 6.89724 12.5734C6.88171 12.5759 6.86874 12.5759 6.84928 12.5798C6.85577 12.5954 6.90628 12.6822 6.92958 12.7334C6.91021 12.7464 6.61888 12.9665 6.61888 12.9665C6.62792 12.9807 6.6353 12.9959 6.6409 13.0118C6.64994 13.0402 6.65387 13.0817 6.66291 13.1011C6.68484 13.1399 6.69781 13.1464 6.69781 13.1464C6.69781 13.1464 6.66291 13.1529 6.60198 13.1684C6.55027 13.1814 6.48678 13.2033 6.39718 13.2163C6.36969 13.2198 6.34204 13.222 6.31433 13.2227C6.3273 13.2512 6.38421 13.36 6.27934 13.4855C6.17446 13.611 6.14212 13.6293 6.10978 13.7095C6.0935 13.6972 6.07617 13.6863 6.05798 13.6771C6.02308 13.6615 5.97513 13.6383 5.95831 13.6072C5.94852 13.6487 5.93553 13.6893 5.91949 13.7289C5.88715 13.8156 5.83927 13.9011 5.83023 13.9657C5.79524 13.9269 5.73056 13.8505 5.64122 13.8661C5.55187 13.8816 5.4807 14.0033 5.46517 14.0383C5.46517 14.0163 5.44964 13.9994 5.4458 14.0253C5.44316 14.0538 5.39401 14.3514 5.11957 14.5923C5.11701 14.5314 5.11701 14.3968 5.11053 14.3528C5.08493 14.3784 5.05361 14.4162 4.86716 14.4965C4.68463 14.5767 4.71356 14.657 4.71356 14.657C4.71356 14.657 4.69803 14.529 4.79642 14.3942C4.89609 14.2596 4.95693 14.1961 4.95693 14.1858C4.95532 14.1753 4.95083 14.1654 4.94396 14.1573C4.93099 14.1443 4.90513 14.1288 4.90513 14.1185C4.92066 14.1121 5.07469 14.0383 5.06564 13.8854C5.0566 13.7483 4.9984 13.6771 4.95693 13.6266C4.95053 13.6201 5.01786 13.5723 5.00873 13.5567C5.00224 13.5477 4.91947 13.4868 4.90906 13.4543C4.9115 13.435 4.91585 13.4159 4.92203 13.3974C4.93107 13.3689 4.93756 13.3495 4.935 13.3301C4.92851 13.2977 4.89353 13.2084 4.8832 13.1994C4.89225 13.2019 4.95693 13.1994 4.95693 13.1994C4.95693 13.1994 4.90522 13.1165 4.89609 13.0777C4.88696 13.0388 4.86758 12.9365 4.85726 12.9172C4.87927 12.9197 4.93363 12.9236 4.93363 12.9172C4.93628 12.8977 4.88576 12.8654 4.90803 12.8404C4.92356 12.8429 4.95334 12.8559 4.98176 12.8922C4.96623 12.8507 4.94037 12.7705 4.88593 12.7381C4.91153 12.7291 4.99857 12.7057 5.07494 12.751C5.15132 12.7963 5.17734 12.8597 5.17734 12.8597C5.17734 12.8597 5.22266 12.8947 5.29263 12.9465C5.37284 13.0099 5.47507 13.1001 5.63823 13.1639C5.67322 13.1834 5.76248 13.1834 5.82724 13.1704C5.85544 13.1637 5.88248 13.1528 5.90746 13.1381C5.91647 13.1328 5.92603 13.1284 5.93596 13.1251C5.92204 13.0972 5.90604 13.0703 5.88809 13.0448C5.9101 13.0448 5.93596 13.0475 5.93596 13.0475C5.93596 13.0475 5.95149 13.0125 5.8816 12.9451C5.89713 12.9295 5.91659 12.9195 5.91659 12.8933C5.89457 12.8907 5.85574 12.8584 5.8467 12.8454C5.85958 12.8364 5.87904 12.8066 5.90106 12.7975C5.8816 12.782 5.83373 12.7172 5.81171 12.7108C5.83274 12.703 5.85309 12.6935 5.87255 12.6823C5.87255 12.6823 5.76384 12.6538 5.72885 12.6305C5.69387 12.6049 5.64215 12.5606 5.61109 12.5477C5.57867 12.5347 5.52175 12.5283 5.49845 12.5024C5.52038 12.5088 5.55537 12.5024 5.58131 12.5024C5.60068 12.5024 5.60981 12.5049 5.61621 12.5049C5.61365 12.4959 5.61365 12.4764 5.66417 12.47C5.68847 12.4664 5.71205 12.4589 5.73406 12.448C5.73406 12.448 5.6861 12.4454 5.63166 12.3936C5.57722 12.3418 5.53199 12.3005 5.50093 12.294C5.46859 12.2875 5.40774 12.316 5.3702 12.3133C5.3184 12.3069 5.29638 12.281 5.29638 12.281C5.29638 12.281 5.12427 12.2965 4.7424 12.0636C4.41225 11.8616 4.26854 11.683 4.26854 11.683C4.23765 11.6718 4.20778 11.6579 4.17929 11.6415C4.05504 11.5768 3.88284 11.4422 3.88804 11.266L3.88736 11.2673Z" fill="#C2A44D"/>
  <path fill-rule="evenodd" clip-rule="evenodd" d="M8.64981 3.49773C8.67976 3.50746 8.70637 3.5254 8.72661 3.54953C8.78746 3.61941 8.82628 3.75142 8.68779 3.89257C8.74214 3.91194 8.76459 3.91817 8.81203 3.91194C8.76416 3.96894 8.65545 4.09062 8.64896 4.19678C8.64248 4.28348 8.69683 4.30942 8.69683 4.30942C8.69683 4.30942 8.61397 4.40516 8.61013 4.56542C8.64926 4.52129 8.69209 4.48058 8.73813 4.44373C8.83396 4.36736 8.96597 4.28066 9.05532 4.2263C9.0541 4.24909 9.05717 4.27189 9.06436 4.29355C9.06436 4.29355 9.23127 4.15633 9.37156 4.21726C9.43497 4.24576 9.40646 4.33502 9.40646 4.33502C9.40646 4.33502 9.49325 4.30268 9.55409 4.36352C9.61493 4.42436 9.70095 4.58129 9.74507 4.64213C9.76444 4.67063 9.81495 4.72499 9.86667 4.80913C9.93731 4.92693 9.9963 5.05134 10.0428 5.18059C10.0454 5.11326 10.0622 5.00847 10.2538 5.07443C10.4454 5.14176 10.6628 5.2829 10.8454 5.56083C11.0279 5.83876 11.0731 6.15253 11.165 6.272C11.2582 6.3872 11.354 6.57877 11.3605 6.65907C11.367 6.73937 11.332 6.99819 11.5236 7.69852C11.5779 7.48109 11.6608 6.99819 11.6608 6.99819L11.7061 6.57229L11.7579 5.25449L10.3818 4.11127L9.30611 3.33065L8.60578 3.39797L8.64981 3.49773Z" fill="#CAA13E"/>
  <path fill-rule="evenodd" clip-rule="evenodd" d="M11.2065 5.45886C11.2065 5.45886 11.187 5.33086 10.8634 5.11326C10.5398 4.89839 10.2874 4.89839 10.0544 4.71586C9.87571 4.57216 9.68934 4.24201 9.568 4.13329C9.45015 4.02586 9.43078 3.71516 9.43078 3.71516L9.82818 3.38236L10.4192 2.52809L10.9188 1.97794L11.1583 2.31074L11.4911 2.70165L11.6762 3.48612L11.7435 4.63437L11.2065 5.45886Z" fill="#B59544"/>
  <path fill-rule="evenodd" clip-rule="evenodd" d="M11.6065 6.8352C11.6163 6.66107 11.5948 6.48659 11.543 6.32004C11.4577 6.05466 11.2713 5.58345 11.1846 5.40698C11.1497 5.21148 11.1756 5.19595 11.2131 5.17393C11.2507 5.15191 11.3918 5.07153 11.4691 4.7895C11.5465 4.50748 11.7863 4.49826 11.7863 4.49826L11.9339 4.38955L12.1579 4.95002L12.3533 5.45621L12.4141 5.84329L12.4594 6.17335L12.3533 6.87113L11.8291 7.3449L11.6065 6.8352Z" fill="#C89D3A"/>
  <path fill-rule="evenodd" clip-rule="evenodd" d="M4.29133 14.6124V14.5981C4.30222 14.5912 4.31184 14.5826 4.31974 14.5725C4.32879 14.5595 4.33536 14.544 4.34176 14.5401C4.35473 14.5336 4.41557 14.5145 4.44791 14.5207C4.48026 14.5268 4.56576 14.562 4.61107 14.5595C4.70426 14.5569 4.81297 14.4857 4.98517 14.5181C5.24407 14.566 5.30492 14.742 5.4551 14.8417C5.5575 14.9117 5.66349 14.8805 5.67902 14.8805H5.71392C5.72041 14.8805 5.76828 14.8262 5.79422 14.8288C5.84602 14.8314 5.85114 14.8741 5.88348 14.8767C5.95985 14.8857 6.10748 14.8378 6.18129 14.8573C6.20318 14.8642 6.22308 14.8762 6.23931 14.8924C6.25553 14.9086 6.2676 14.9285 6.27447 14.9504C6.29 14.9983 6.27703 15.0591 6.23949 15.0941C6.15927 15.1678 6.0829 15.2378 6.06737 15.2989C6.08712 15.314 6.10609 15.33 6.1242 15.347C5.48371 15.1838 4.86746 14.9363 4.29133 14.6124Z" fill="#CEB052"/>
  <path fill-rule="evenodd" clip-rule="evenodd" d="M11.1845 12.0259C11.1845 12.0259 11.3864 11.7567 11.4563 11.6233C11.5262 11.4859 11.235 9.74507 11.235 9.74507L11.8201 7.82797L11.8045 7.20401C11.8045 7.20401 11.833 6.62793 11.9003 6.37807C11.9806 6.52177 12.2305 6.69525 12.2848 6.78716C12.3104 6.61103 12.3974 6.23957 12.3845 5.84346C12.4324 5.91718 12.5476 6.65899 12.5476 6.65899L12.6628 7.15861L12.813 7.68939L12.98 8.24994L13.0796 8.63701L13.1366 8.7302L13.1845 8.89327L13.2298 9.0694L13.3606 9.48232L13.4374 9.82144L13.4982 10.4364C13.5114 10.4834 13.521 10.5315 13.5267 10.5801C13.5293 10.6474 13.5177 10.6862 13.5177 10.6979C13.5177 10.7096 13.5397 10.8454 13.5306 10.9478C13.5177 11.0502 13.5177 11.1303 13.4374 11.2038C13.3571 11.2772 13.3066 11.7164 13.3066 11.7164L13.1629 11.6206C13.1629 11.6206 13.1914 11.4898 13.1241 11.3708C13.0568 11.2517 12.926 11.227 12.8522 11.2465C12.7785 11.262 12.631 11.2852 12.583 11.3267C12.5377 11.3681 12.4264 11.4963 12.3241 11.5546C12.1961 11.6314 11.9875 11.6374 11.8763 11.6633C11.7636 11.6889 11.6394 11.7657 11.5086 11.8548C11.406 11.9213 11.2972 11.9788 11.1845 12.0259Z" fill="#CCA847"/>
  <path fill-rule="evenodd" clip-rule="evenodd" d="M11.1845 14.8544C11.1845 14.8544 11.193 14.8599 11.2095 14.869C12.1292 14.4381 12.9532 13.8273 13.6329 13.0727C13.6255 12.8108 13.6159 12.5422 13.6053 12.4427C13.5834 12.2317 13.5989 12.0168 13.5924 11.8926C13.5859 11.7683 13.516 11.2621 13.4837 11.1314C13.4487 11.0007 13.3813 10.9359 13.3711 10.9359C13.362 10.9385 13.3076 11.1819 13.3076 11.2431C13.3076 11.3043 13.2946 11.4516 13.2946 11.4891C13.2855 11.4865 13.2817 11.4635 13.2817 11.4541C13.2687 11.4865 13.2532 11.5435 13.2467 11.55C13.2402 11.5564 13.2558 11.4956 13.2467 11.4826C13.2377 11.4697 13.2211 11.4761 13.2247 11.4438C13.2262 11.4246 13.2293 11.4056 13.2337 11.3869C13.2337 11.3869 13.1949 11.4438 13.1665 11.5888C13.138 11.7325 13.138 11.7364 13.1277 11.7493C13.1186 11.7649 13.0668 11.8166 13.0642 11.8361C13.0616 11.871 13.1121 11.906 13.116 11.9253C13.1185 11.9578 13.0707 12.1079 13.0551 12.1813C13.0396 12.2548 13.0461 12.3988 13.0295 12.4726C13.0166 12.5399 13.0039 12.5787 12.9597 12.6071C12.992 12.6136 13.0231 12.6227 13.0231 12.6227C13.0231 12.6227 13.0684 12.8143 12.9532 12.9774C12.9118 13.0343 12.9015 13.0603 12.8574 13.1121C12.7706 13.2078 12.7033 13.3169 12.6968 13.3878C12.6924 13.3668 12.6893 13.3456 12.6878 13.3243C12.6878 13.3243 12.5532 13.481 12.4962 13.5703C12.4225 13.6855 12.3202 13.679 12.2914 13.7075C12.2627 13.736 12.2564 13.7877 12.2658 13.8292C12.2402 13.8356 12.1921 13.8447 12.1597 13.9444C12.1441 13.9961 12.1053 14.0468 12.0445 14.0816C11.9836 14.1164 11.9098 14.1269 11.8723 14.136C11.9046 14.145 11.9176 14.145 11.9331 14.1553C11.9137 14.1877 11.8244 14.2382 11.7247 14.303C11.625 14.3638 11.5771 14.4531 11.5525 14.5114C11.5269 14.5657 11.4891 14.6007 11.4283 14.6072C11.4539 14.6227 11.4918 14.6589 11.5111 14.6706C11.4826 14.6771 11.4343 14.6771 11.3481 14.7509C11.2574 14.826 11.2259 14.8479 11.1845 14.8544Z" fill="#C39D3C"/>
  <path fill-rule="evenodd" clip-rule="evenodd" d="M9.38325 15.4543C9.43282 15.4195 9.48651 15.3911 9.54308 15.3696C9.74498 15.2893 9.95857 15.2738 10.0427 15.248C10.123 15.2224 10.1864 15.187 10.2861 15.1677C10.2834 15.1904 10.2812 15.2117 10.2788 15.2318C9.98498 15.3242 9.68618 15.3985 9.38325 15.4543Z" fill="#D2BA6B"/>
  <path fill-rule="evenodd" clip-rule="evenodd" d="M13.1072 10.1437C13.1072 10.1437 13.0658 10.3677 12.992 10.5088C12.9182 10.6499 12.8384 10.8454 12.8384 10.8454C12.8389 10.8013 12.8441 10.7575 12.8539 10.7145C12.7607 10.7689 12.5342 10.8997 12.4699 10.9579C12.4091 11.0123 12.3068 11.1081 12.2809 11.1534C12.3418 10.9748 12.4052 10.8143 12.4156 10.7405C12.3224 10.8078 11.8874 11.1664 11.6609 11.4033L10.9553 11.9741C10.8739 12.0181 10.7901 12.0573 10.7042 12.0917C10.5826 12.1434 10.4389 12.1875 10.3328 12.2289C10.3613 12.1526 10.4065 12.0852 10.47 12.0205C10.5373 11.9571 10.7392 11.7383 10.7703 11.6365C10.7988 11.5303 10.8052 11.4669 10.7677 11.3776C10.7327 11.3866 10.6525 11.3905 10.5981 11.4061C10.5438 11.4216 10.4855 11.4798 10.4855 11.4798C10.4855 11.4798 10.5269 11.2429 10.6162 11.019C10.5489 11.0216 10.4337 11.0409 10.4337 11.0409C10.4337 11.0409 10.5942 10.7717 10.8689 10.5841C10.7848 10.602 10.7025 10.6275 10.623 10.6604C10.4625 10.7277 10.2864 10.8273 10.1557 10.8817C10.2294 10.7793 10.7472 10.0403 11.0554 9.35159C11.3626 8.66424 11.4773 8.48819 11.5447 8.1193C11.5796 7.93677 11.5703 7.66703 11.5796 7.42545C11.5886 7.18592 11.6184 6.97105 11.599 6.82735C11.6792 6.92702 11.9796 7.20794 11.9899 7.83582C11.999 8.46362 11.7026 9.31157 11.388 9.76845C11.4648 9.79046 11.6638 9.8164 11.8682 9.46125C12.0727 9.10609 12.0702 9.00693 12.144 8.85931C12.1531 8.93312 12.1504 8.95898 12.1504 8.95898C12.1504 8.95898 12.4483 8.59785 12.5893 8.14345C12.6178 8.33894 12.702 8.51115 12.5699 8.86972C12.4521 9.1933 12.2981 9.27232 12.2981 9.27232C12.2981 9.27232 12.3744 9.25935 12.487 9.19202C12.5065 9.23989 12.5026 9.29442 12.535 9.31371C12.5673 9.33299 12.6113 9.3655 12.6178 9.39657C12.6527 9.34477 12.7071 9.27872 12.724 9.22957C12.711 9.33197 12.702 9.77971 12.7496 10.0076C12.8493 9.99851 12.9516 9.99202 13.0214 9.81205C12.9736 9.98818 12.9736 10.0943 13.0059 10.2444C13.059 10.2083 13.1072 10.1437 13.1072 10.1437Z" fill="#C0993A"/>
  <path fill-rule="evenodd" clip-rule="evenodd" d="M9.7437 3.00843C9.7437 3.00843 9.64403 3.04981 9.47447 3.04981C9.32693 3.04981 9.36832 2.9929 9.13792 2.9929C8.78327 2.9929 7.5444 3.1977 7.32689 3.19479C7.18575 3.19223 7.80322 3.25564 7.80322 3.25564L9.38129 3.27765L9.69839 3.25205L9.81623 3.01227L9.7437 3.00843Z" fill="#A88F33"/>
  <path fill-rule="evenodd" clip-rule="evenodd" d="M5.6518 6.09323C5.6518 6.09323 5.44981 6.24725 5.36439 6.3651C5.27898 6.48294 5.23366 6.56051 5.13655 6.65634C5.15935 6.65721 5.18213 6.65415 5.20388 6.6473C5.20388 6.6473 5.20388 6.6729 5.18835 6.67964C5.20177 6.67814 5.21536 6.67966 5.22812 6.68409C5.24087 6.68852 5.25248 6.69574 5.26208 6.70524C5.23358 6.72077 5.15593 6.79851 5.21677 6.89041C5.26208 6.9603 5.35791 6.9667 5.35791 6.9667C5.35791 6.9667 5.33589 7.03019 5.4278 7.0237C5.62586 7.01466 5.84721 6.92787 5.94944 6.94989C6.05184 6.97549 6.11004 6.98487 6.18249 7.11049C6.25929 7.23473 6.32619 7.25419 6.32619 7.25419C6.32619 7.25419 6.3715 7.1389 6.36117 6.96678C6.39833 6.87401 6.41892 6.77543 6.42202 6.67554L6.35469 6.17975L6.06089 5.80821L5.6803 6.01924L5.6518 6.09323Z" fill="#E3C571"/>
  <path fill-rule="evenodd" clip-rule="evenodd" d="M6.01293 6.01941C6.01293 6.01941 6.04143 6.08674 6.16055 6.09314C6.14758 6.12164 6.14758 6.12557 6.15151 6.1475C6.15407 6.16951 6.15791 6.20186 6.15791 6.20186C6.17102 6.19551 6.18288 6.18684 6.1929 6.17626C6.19938 6.20476 6.18641 6.24998 6.1929 6.28241C6.1969 6.30213 6.20341 6.32126 6.21227 6.33933C6.21415 6.3349 6.21632 6.3306 6.21875 6.32644C6.22131 6.31996 6.24435 6.39633 6.3081 6.45444C6.30804 6.44551 6.31024 6.4367 6.3145 6.42884C6.31547 6.44508 6.32084 6.46074 6.33003 6.47415C6.32526 6.47188 6.3209 6.46882 6.31714 6.46511C6.31714 6.46511 6.32354 6.66991 6.35853 6.77581C6.36437 6.76897 6.36957 6.7616 6.37406 6.75379C6.37406 6.74739 6.3715 6.8108 6.36501 6.85619C6.35597 6.9015 6.36245 6.96491 6.36245 6.96491C6.38579 6.94653 6.41144 6.9313 6.43874 6.91959C6.47757 6.90398 6.54114 6.85611 6.57988 6.74995C6.60236 6.68983 6.61969 6.62792 6.63168 6.56486C6.6442 6.58896 6.65283 6.61488 6.65728 6.64166C6.65993 6.67401 6.72077 6.6572 6.72077 6.6572L6.73374 6.51605L6.81054 6.19631L6.88043 5.99825L7.21698 5.47405L7.82507 5.00574L8.35584 5.12742L8.80367 4.519L8.03217 4.05555L7.30206 4.13193L6.63945 5.04969L6.10876 5.88211L6.01293 6.01941Z" fill="#D8B65B"/>
  <path fill-rule="evenodd" clip-rule="evenodd" d="M9.83689 4.69129C9.83689 4.69129 9.79157 4.70033 9.66084 4.76809C9.53011 4.83584 9.43949 4.85734 9.38897 4.95701C9.33845 5.05668 9.33461 5.1357 9.33461 5.1357C9.33461 5.1357 9.42396 5.09687 9.47575 5.0839C9.53011 5.07102 9.59095 5.07486 9.58447 5.09687C9.57824 5.11197 9.5696 5.12595 9.55887 5.13826C9.55887 5.13826 9.66127 5.1357 9.65854 5.18622C9.65581 5.23674 9.63917 5.29237 9.6198 5.31695C9.60034 5.34255 9.52013 5.38044 9.51108 5.41022C9.48907 5.47106 9.52013 5.47362 9.50844 5.52277C9.49939 5.57073 9.45672 5.66391 9.31686 5.82699C9.17316 5.99014 9.11206 6.10534 9.11206 6.10534C9.11206 6.10534 9.04218 5.97461 9.00591 5.86197C8.98031 5.87486 8.84284 5.95123 8.84284 5.95123L8.52437 4.8419L8.53077 4.76809C8.53077 4.76809 8.55927 4.73318 8.56576 4.66842C8.51789 4.65289 8.5114 4.63991 8.44791 4.57916C8.38443 4.5184 8.33271 4.4445 8.22664 4.39398C8.21111 4.36548 8.19166 4.32674 8.11401 4.31112C8.03635 4.29551 7.98976 4.28271 7.98976 4.28271C7.98976 4.28271 8.03115 4.26709 8.0506 4.23475C8.00264 4.24124 7.9639 4.25677 7.85903 4.25421C7.75287 4.25156 7.74118 4.24772 7.68299 4.25677C7.62479 4.26581 7.55499 4.29175 7.52896 4.20241C7.50046 4.18039 7.43962 4.19985 7.38782 4.27614C7.33602 4.35243 7.31793 4.41335 7.21826 4.44314C7.21125 4.48707 7.19587 4.52925 7.17295 4.56738C7.14445 4.61534 7.09914 4.66321 7.03829 4.73438C6.94246 4.84702 6.95799 5.03211 6.80525 5.17325C6.65122 5.3143 6.83085 4.78225 6.83085 4.78225L7.07678 4.19345L7.77711 3.50865L8.86451 3.43492L8.97067 3.99812L9.50144 4.18065L9.83689 4.69129Z" fill="#D3AE4D"/>
  <path fill-rule="evenodd" clip-rule="evenodd" d="M10.0091 4.81553L9.55213 4.15667L9.23238 3.91066C9.23238 3.91066 9.00454 3.49133 8.98901 3.47836C8.97604 3.46931 8.76117 3.44602 8.62396 3.43697L8.64956 3.50037C8.67951 3.5101 8.70612 3.52805 8.72636 3.55217C8.7872 3.62206 8.82603 3.75407 8.68753 3.89521C8.74189 3.91458 8.76433 3.92081 8.81178 3.91458C8.7639 3.97158 8.65519 4.09327 8.6487 4.19942C8.64222 4.28612 8.69658 4.31198 8.69658 4.31198C8.69658 4.31198 8.61372 4.40781 8.60988 4.56798C8.64901 4.52385 8.69183 4.48314 8.73788 4.44629C8.83371 4.36949 8.96572 4.28314 9.05506 4.22878C9.05384 4.25159 9.05691 4.27443 9.06411 4.29611C9.06411 4.29611 9.23102 4.15889 9.37131 4.21973C9.43471 4.24823 9.40621 4.33758 9.40621 4.33758C9.40621 4.33758 9.49299 4.30524 9.55383 4.36608C9.61468 4.42692 9.70138 4.58351 9.74541 4.64444C9.76478 4.67294 9.8153 4.7273 9.86701 4.81135C9.93767 4.92917 9.99666 5.05361 10.0431 5.18289C10.0457 5.13109 10.0561 5.05865 10.1455 5.05865L10.0091 4.81553Z" fill="#CAA13E"/>
  <path fill-rule="evenodd" clip-rule="evenodd" d="M3.15861 6.6874C3.15861 6.6874 3.12627 6.6071 3.15861 6.45052C3.19095 6.29393 3.24147 6.22012 3.25828 5.98972C3.27509 5.75932 3.42528 5.47191 3.42528 5.47191L3.84077 5.28299L4.13466 5.3632L4.22135 5.75676L3.84981 5.96156C3.84981 5.96156 3.83044 6.04826 3.72557 6.11814C3.62069 6.18803 3.47571 6.24239 3.44081 6.31364C3.41995 6.35727 3.40472 6.40338 3.3955 6.45086C3.3955 6.45086 3.28934 6.42884 3.22594 6.49873C3.15861 6.56998 3.16117 6.63305 3.15861 6.6874Z" fill="#F4EFC8"/>
  <path fill-rule="evenodd" clip-rule="evenodd" d="M3.99744 6.58253C3.99744 6.58253 3.96245 6.60454 3.9366 6.65933C3.911 6.61794 3.84981 6.37193 3.84725 6.15057C3.84469 5.92922 3.83147 5.87435 3.88267 5.79806C3.93387 5.72177 4.13466 5.64139 4.10615 5.504C4.07765 5.37327 3.95853 5.31891 3.81227 5.35646C3.70987 5.38206 3.63366 5.59983 3.52751 5.70854C3.44721 5.7914 3.35147 5.77843 3.32561 5.82374C3.29062 5.88459 3.32297 5.94543 3.31264 5.98426C3.30999 5.99723 3.27765 6.06711 3.21937 6.15125C3.10161 6.32081 2.90227 6.56034 2.87633 6.77521C2.88538 6.65353 2.87898 6.65097 2.91132 6.51631L2.89186 6.48397L3.01986 6.06455L3.10272 5.71895L3.28789 5.14022L3.61404 4.54869L3.93122 4.19396L4.26129 4.21598L4.30012 4.71176L4.48913 5.64258L4.88653 6.13188L4.2496 6.56051L3.99744 6.58253Z" fill="#EBCC73"/>
  <path fill-rule="evenodd" clip-rule="evenodd" d="M4.1955 6.7584C4.1955 6.7584 4.14114 6.77137 4.12169 6.76104C4.10223 6.75072 4.08294 6.73903 4.08934 6.72606C4.09574 6.71309 4.13073 6.69116 4.13073 6.68075C4.13145 6.67134 4.12847 6.66202 4.12244 6.65477C4.1164 6.64752 4.10777 6.64291 4.09839 6.64192C4.06861 6.63808 4.05956 6.65745 4.05956 6.65745C4.05956 6.65745 4.03106 6.63552 4.00785 6.63185C4.02158 6.63017 4.0354 6.62929 4.04924 6.6292C4.01346 6.613 3.97552 6.60211 3.9366 6.59686C3.96894 6.57749 4.03243 6.52049 4.07381 6.52049C4.1152 6.52049 4.14114 6.51409 4.13466 6.49207C4.12817 6.47006 4.09583 6.43772 4.06093 6.42475C4.07381 6.40922 4.08294 6.38592 4.05188 6.32235C4.01946 6.25894 4.03243 6.21619 4.04284 6.20075C4.05188 6.18129 4.08422 6.14639 4.09975 6.12437C4.11529 6.10236 4.12826 6.07258 4.15411 6.05704C4.16708 6.048 4.20847 6.03145 4.24994 6.01566C4.29525 6.00013 4.3328 5.98067 4.35866 6.00013C4.38716 6.0195 4.37419 6.04544 4.37419 6.04544C4.37419 6.04544 4.46353 6.01301 4.54374 6.05448C4.62404 6.09323 4.81954 6.11789 4.81954 6.11789L4.8896 6.25903L4.42616 6.65643L4.23458 6.75226L4.1955 6.7584Z" fill="#E5C66B"/>
  <path fill-rule="evenodd" clip-rule="evenodd" d="M4.83883 6.10876C4.83883 6.10876 4.69513 6.20459 4.66278 6.23949C4.68215 6.24213 4.7145 6.2551 4.70153 6.27447C4.686 6.29385 4.59281 6.36117 4.54101 6.42466C4.48666 6.48806 4.43486 6.56836 4.41677 6.60719C4.3974 6.64209 4.24977 6.74441 4.19934 6.75729C4.30549 6.75729 4.51908 6.62656 4.5993 6.62656C4.59674 6.66539 4.62131 6.70942 4.66662 6.71326C4.71194 6.7171 4.84267 6.74176 5.01871 6.63305C5.19475 6.52689 5.13655 6.44787 5.21028 6.39616C5.35142 6.30289 5.40834 6.22003 5.48599 6.16832C5.56365 6.11661 5.60384 6.10483 5.60384 6.10483C5.60384 6.10483 5.6064 6.06601 5.62944 6.06993C5.63575 6.07065 5.64173 6.07309 5.64676 6.07697C5.65178 6.08085 5.65565 6.08603 5.65794 6.09195C5.65794 6.09195 5.7926 5.99612 5.96514 5.97026C5.96112 5.96846 5.9579 5.96524 5.9561 5.96122C5.9561 5.96122 5.96898 5.95473 5.97163 5.94825C5.97163 5.94825 5.98067 5.93527 5.98716 5.94176C5.99364 5.94825 6.00269 5.99612 6.01566 6.01557C6.04416 6.0026 6.09852 5.88092 6.09852 5.88092L6.22933 5.50682V5.16506L6.12693 5.18451L5.35893 5.51066L4.89284 5.99356L4.83883 6.10876Z" fill="#E6BD62"/>
  <path fill-rule="evenodd" clip-rule="evenodd" d="M7.04981 4.43238C7.09136 4.4223 7.13118 4.40614 7.168 4.38443C7.15247 4.4259 7.15247 4.47121 7.08514 4.5696C7.01781 4.66799 7.01525 4.68224 6.9609 4.78447C6.90654 4.89062 6.90005 5.04337 6.84826 5.11061C6.87147 5.09933 6.89638 5.09192 6.92198 5.08868C6.92198 5.08868 6.87027 5.13399 6.84826 5.18187C6.82624 5.22974 6.78741 5.32941 6.69167 5.39034C6.59593 5.45126 6.47415 5.49001 6.34342 5.63371C6.21261 5.77476 6.07804 5.95345 6.01062 6.01771C6.04561 5.95686 6.09348 5.83518 6.10645 5.75496C6.11942 5.67475 6.10381 5.57884 6.12582 5.47277C6.14784 5.3667 6.14784 5.29024 6.25382 5.10507C6.35981 4.91989 6.54123 4.27657 6.54123 4.27657L6.93214 4.15232L7.04981 4.43238Z" fill="#B6933F"/>
  <path fill-rule="evenodd" clip-rule="evenodd" d="M6.76762 4.1955C6.76762 4.1955 6.64986 4.36506 6.61751 4.51524C6.58517 4.66543 6.61487 4.65246 6.5955 4.72627C6.58391 4.77128 6.58391 4.81848 6.5955 4.86349C6.63628 4.79779 6.69212 4.74273 6.7584 4.70289C6.86976 4.63565 6.96038 4.58769 7.0144 4.53077C7.06876 4.46993 7.11407 4.37026 7.23183 4.29389C7.18396 4.2874 7.11663 4.26539 7.10383 4.26829C7.15179 4.21393 7.2954 4.13107 7.44038 4.0314C7.58409 3.929 7.57504 3.8877 7.80809 3.78547C7.73171 3.79844 7.69545 3.77899 7.63196 3.78547C7.65756 3.73111 7.74716 3.70517 7.83676 3.61591C7.92636 3.52666 7.77984 3.39456 7.77984 3.39456L7.09717 3.80749L6.76762 4.1955Z" fill="#C49937"/>
  <path fill-rule="evenodd" clip-rule="evenodd" d="M4.9152 3.88736L4.93073 3.76311L5.12623 3.44986L5.33077 2.89971V2.14758L5.31524 1.71264L5.34758 1.4278L5.37216 1.33726L5.3981 1.30227L5.56501 1.38897L5.7955 1.70223L5.81751 2.30682L5.59351 3.26084L4.95403 3.95861L4.9152 3.88736Z" fill="#DFC068"/>
  <path fill-rule="evenodd" clip-rule="evenodd" d="M5.42396 1.26729C5.42396 1.26729 5.32156 1.26993 5.29971 1.69583C5.27787 2.12173 5.26729 2.34564 5.25175 2.55667C5.23622 2.7677 5.20004 2.89579 5.18187 3.02012C5.16369 3.14445 5.15337 3.31392 5.09517 3.41751C5.06957 3.46539 5.01487 3.61557 4.8867 3.72821C4.743 3.85246 4.5283 3.93924 4.49579 3.94573C4.43878 3.95861 4.1501 3.98711 4.03234 4.05188C3.99095 4.0739 3.9197 4.09975 3.84077 4.17357C3.6841 4.31462 3.47571 4.56704 3.32553 4.87125C3.09512 5.32565 2.86473 6.60847 2.86473 6.60847L2.91652 6.52177C2.91652 6.52177 2.92301 6.40657 3.03821 6.20459C3.15085 6.00269 3.11851 5.77613 3.27509 5.38906C3.33594 5.24152 3.41231 5.04994 3.50549 4.88678C3.65312 4.6214 3.83172 4.39356 4.01169 4.26931C4.30549 4.06741 4.62916 4.02338 4.62916 4.02338L4.97741 3.79298C4.97741 3.79298 5.03825 3.67522 5.11855 3.54057C5.2311 3.35164 5.37455 3.14061 5.40587 2.83383C5.45382 2.37943 5.33854 2.08171 5.34502 1.81248C5.35151 1.54325 5.35407 1.34519 5.40851 1.29724C5.46295 1.24928 5.42396 1.26729 5.42396 1.26729Z" fill="#A88F33"/>
  <path fill-rule="evenodd" clip-rule="evenodd" d="M5.42396 3.29967C5.42396 3.29967 5.57756 2.92164 5.64787 2.58637C5.66084 2.51904 5.6867 2.4518 5.69318 2.39744C5.72553 2.08026 5.73457 1.94953 5.69318 1.77604C5.66084 1.64804 5.5366 1.53267 5.47183 1.44324C5.40843 1.34997 5.37865 1.31524 5.39162 1.29562C5.40459 1.27599 5.45502 1.2439 5.50417 1.24774C5.55642 1.24926 5.60781 1.2614 5.65522 1.2834C5.70264 1.30541 5.74508 1.33682 5.77997 1.37574C5.87964 1.49094 5.95857 1.88194 5.95857 1.88194L6.0416 2.39787L6.25263 3.04768L5.42396 3.29967Z" fill="#C99E3D"/>
  <path fill-rule="evenodd" clip-rule="evenodd" d="M6.86729 2.9062C6.86729 2.9062 6.83878 2.91908 6.78707 2.9062C6.78928 2.92733 6.78561 2.94866 6.77647 2.96784C6.76733 2.98702 6.75308 3.00331 6.73527 3.01491C6.68092 2.9929 6.17207 3.03693 6.17207 3.03693C6.17207 3.03693 5.93519 2.99546 5.86138 2.6822C5.80966 2.47373 5.9002 2.18641 5.87042 1.9974C5.82511 1.71904 5.76171 1.6646 5.75522 1.57798C5.74874 1.49137 5.74225 1.46927 5.74225 1.41491C5.71375 1.40843 5.69694 1.39938 5.66852 1.39938C5.66204 1.37378 5.67492 1.35142 5.64651 1.30611C5.66204 1.3126 5.76819 1.32557 5.89244 1.44333C5.99484 1.53916 5.99484 1.57406 6.01028 1.59351C6.02965 1.61289 6.18633 1.74711 6.25365 1.88092C6.32098 2.01472 6.45171 2.44139 6.48149 2.51127C6.49054 2.53978 6.50999 2.56828 6.55829 2.63296C6.63339 2.72623 6.74304 2.8806 6.86729 2.9062Z" fill="#B58634"/>
  <path fill-rule="evenodd" clip-rule="evenodd" d="M6.02854 1.6C6.10696 1.72668 6.17741 1.85812 6.23949 1.99356C6.31586 2.16567 6.36117 2.30682 6.457 2.42202C6.4052 2.27191 6.3133 1.97675 6.25894 1.87187C6.1981 1.76094 6.07386 1.64139 6.02854 1.6Z" fill="#A88F33"/>
  <path fill-rule="evenodd" clip-rule="evenodd" d="M5.14824 3.72821C5.14824 3.72821 5.01751 3.76055 4.77414 3.88873C4.69384 3.93011 4.61756 3.96501 4.54374 3.99744C4.352 4.08414 4.14635 4.16427 3.98319 4.20847C3.99616 4.224 4.00256 4.2304 4.00256 4.2304C4.00256 4.2304 4.00256 4.29389 4.03755 4.33007C4.01818 4.34953 3.75919 4.52557 3.83565 5.11454C3.88736 5.09517 3.9482 5.06923 3.95725 5.06923C3.97286 5.07187 3.9767 5.11454 3.99607 5.11454C4.01545 5.11454 4.07893 5.08894 4.14626 5.0019C4.1437 5.03689 4.10487 5.38897 4.31326 5.62586C4.35209 5.58054 4.45047 5.43036 4.45047 5.43036L4.45303 5.38249C4.45303 5.38249 4.46208 5.21549 4.51652 5.06274C4.57097 4.90999 4.67703 4.79735 4.67703 4.79735L5.23093 4.0064L5.14824 3.72821Z" fill="#E6C367"/>
  <path fill-rule="evenodd" clip-rule="evenodd" d="M4.63044 4.8896C4.60508 4.90752 4.57714 4.92147 4.54758 4.93099C4.53854 4.89864 4.52557 4.78729 4.60194 4.67857C4.69129 4.54775 4.8867 4.3782 4.94106 4.24337C4.97604 4.15659 4.96051 3.93916 5.27121 3.6608C5.58191 3.38244 5.70351 3.2867 5.70351 3.2867L6.20578 3.03428L6.82325 3.27765L6.51648 4.48L6.27831 5.0432L5.33111 4.8646L4.63044 4.8896Z" fill="#DCBA5A"/>
  <path fill-rule="evenodd" clip-rule="evenodd" d="M4.992 4.56311L5.10985 4.41557V4.3107C5.10985 4.3107 5.24058 4.27571 5.38163 4.13201C5.52269 3.98831 5.71819 3.7126 5.89039 3.72941C6.06259 3.74886 6.0794 4.10351 6.08589 4.20326C6.09237 4.30302 6.11439 4.52941 6.14929 4.65118C6.18812 4.77286 5.72988 5.23366 5.72988 5.23366L5.41867 5.47055L4.992 4.56311Z" fill="#E9CE77"/>
  <path fill-rule="evenodd" clip-rule="evenodd" d="M5.35663 5.79157C5.35663 5.79157 5.45246 5.64139 5.38223 5.60905C5.42362 5.51586 5.49999 5.41747 5.49999 5.41747C5.49999 5.41747 5.55435 5.2829 5.73039 5.11718C5.90643 4.95147 6.01523 4.84139 6.04373 4.73011C6.0613 4.65759 6.07086 4.58336 6.07223 4.50876C6.09127 4.52431 6.11162 4.53815 6.13308 4.55014C6.16158 4.56311 6.29615 4.67439 6.27678 4.89839C6.25741 5.12239 6.17438 5.21557 6.17438 5.21557C6.17438 5.21557 6.09416 5.29579 6.03725 5.33726C5.97632 5.37865 5.95439 5.42652 5.85207 5.43044C5.86259 5.42208 5.87441 5.41551 5.88706 5.41099C5.88706 5.41099 5.78091 5.3981 5.7239 5.44981C5.6669 5.50153 5.54573 5.66084 5.48489 5.7088C5.42404 5.74763 5.35663 5.79157 5.35663 5.79157Z" fill="#CDAE50"/>
  <path fill-rule="evenodd" clip-rule="evenodd" d="M9.66084 3.27373C9.50791 3.21799 9.34718 3.18655 9.18451 3.18054C8.91264 3.1715 8.51524 3.18703 8.12561 3.18959C7.7062 3.19215 7.32561 3.04589 6.79748 3.02003C6.71078 2.96823 6.49028 2.74167 5.80198 3.22193C5.84337 3.21937 6.3017 3.11578 6.46084 3.3152C6.62136 3.51326 6.57604 3.84981 6.55411 3.93003C6.51264 4.10871 6.37798 4.3689 6.32371 4.55142C6.26944 4.73395 6.28224 4.82987 6.24341 4.95787C6.20459 5.08587 6.11917 5.14944 6.1696 5.29698C6.23693 5.25559 6.272 5.25559 6.38447 5.00318C6.49694 4.75076 6.47381 4.57079 6.66027 4.35721C6.84279 4.14234 7.14667 3.84845 7.26221 3.77463C7.37775 3.70082 8.29517 3.22449 9.25577 3.67889C9.48745 3.65431 9.66084 3.27373 9.66084 3.27373Z" fill="#D2A83E"/>
  <path fill-rule="evenodd" clip-rule="evenodd" d="M6.18897 3.0976C6.18802 3.08787 6.18587 3.0783 6.18257 3.0691C6.17359 3.05017 6.16179 3.0327 6.14758 3.0173C6.14758 3.0173 5.91974 2.97591 5.80454 2.9888C5.60256 3.01082 5.42003 3.26067 5.33461 3.38884C5.24919 3.51701 5.14304 3.71499 5.02784 3.8173C5.0291 3.80733 5.0268 3.79724 5.02135 3.7888C5.02135 3.7888 5.02784 3.79784 5.01495 3.81082C5.00207 3.82379 5.00198 3.83019 5.00847 3.83642L5.02793 3.85579C5.03433 3.85579 5.21301 3.77549 5.45638 3.54859C5.71529 3.3117 5.91334 3.19019 6.01694 3.14854C6.07218 3.12507 6.12985 3.10797 6.18897 3.0976Z" fill="#C29637"/>
  <path fill-rule="evenodd" clip-rule="evenodd" d="M10.6085 2.12429C10.6085 2.12429 10.567 2.176 10.5152 2.233C10.4 2.35469 10.2498 2.49182 10.1216 2.63296C10 2.76762 9.86283 2.87249 9.70871 3.04853C9.5546 3.22458 9.37591 3.41999 9.33069 3.47699C9.2893 3.53399 9.25696 3.62718 9.25696 3.67505C9.23494 3.65952 9.20909 3.64271 9.20909 3.64271C9.21997 3.66303 9.23299 3.68214 9.24791 3.69971C9.28026 3.74502 9.33069 3.80211 9.35663 3.83693C9.38846 3.88125 9.4113 3.93137 9.42387 3.98447C9.4394 3.98703 9.53907 4.00649 9.6634 3.80194C9.78773 3.5974 9.95072 3.37348 9.95072 3.37348L10.2096 2.98897L10.3728 2.66283L10.5776 2.29777L10.6085 2.12429Z" fill="#AC8132"/>
  <path fill-rule="evenodd" clip-rule="evenodd" d="M10.8739 1.86283C10.8739 1.86283 10.7172 1.99083 10.6563 2.06763C10.5955 2.14443 10.4515 2.34598 10.4515 2.34598L10.5033 2.3395L10.7662 2.10654L10.8686 1.92401L10.8739 1.86283Z" fill="#A88F33"/>
  <path fill-rule="evenodd" clip-rule="evenodd" d="M10.8259 12.1502C10.8259 12.1502 10.8233 12.044 10.8829 11.9806C10.9437 11.9171 11.0978 11.824 11.248 11.4744C11.3981 11.1249 11.4149 11.046 11.4149 11.046C11.4149 11.046 11.1456 11.2764 10.9797 11.3307C11.0185 11.2504 11.0405 11.1935 11.06 11.152C11.038 11.1327 10.9448 11.1107 10.9357 11.1003C10.9874 11.0485 11.0159 10.9216 11.1208 10.8375C11.2555 10.7351 11.5014 10.5591 11.6925 10.4023C11.8837 10.2455 12.2595 9.88066 12.3075 9.77451C12.336 9.81589 12.3424 9.84175 12.3424 9.84175C12.3424 9.84175 12.1534 10.0878 12.055 10.2444C11.9683 10.379 11.9747 10.4554 11.9747 10.4554L12.1534 10.3786C12.1534 10.3786 12.2051 10.5702 11.9709 10.8615C12.0733 10.8227 12.1146 10.846 12.1728 10.8135C12.077 10.8745 11.945 10.9573 11.8207 11.1851C11.699 11.4129 11.5333 11.6783 11.2538 11.8439C10.9819 12.0187 10.8252 12.1494 10.8252 12.1494L10.8259 12.1502Z" fill="#A67A2E"/>
  <path fill-rule="evenodd" clip-rule="evenodd" d="M10.1243 3.40847C10.1243 3.40847 10.0181 3.62974 10.0026 3.80194C10 3.84341 9.98963 3.87575 9.98963 3.92363C9.98707 4.07765 9.99868 4.24986 9.96403 4.33007C9.95106 4.29773 9.94458 4.27571 9.9316 4.26283C9.91223 4.31718 9.87725 4.48674 9.84875 4.55014C9.83586 4.50876 9.80736 4.36506 9.81001 4.1955C9.81265 4.02594 9.8164 3.99351 9.8164 3.95861C9.81 4.01033 9.77502 4.0803 9.76205 4.12169C9.74268 4.08678 9.72066 4.04147 9.69472 4.00393C9.67919 4.02953 9.65982 4.06733 9.64301 4.08678C9.64036 4.07125 9.63396 4.02978 9.63004 3.97158C9.62748 3.90426 9.62355 3.81756 9.62748 3.79938C9.63388 3.76448 9.68832 3.62726 9.80352 3.50165C9.94073 3.35147 10.0819 3.06287 10.1233 2.97353C10.1646 2.88418 10.3407 2.51273 10.3407 2.51273H10.4753L10.2799 2.95799C10.2799 2.95799 10.1621 3.20137 10.1012 3.29079C10.0404 3.38022 9.91224 3.63648 9.85523 3.73615C9.89662 3.68179 9.9316 3.65329 9.97308 3.60149C10.0132 3.56523 10.1243 3.40847 10.1243 3.40847Z" fill="#8C6228"/>
  <path fill-rule="evenodd" clip-rule="evenodd" d="M10.8764 1.84593C10.8544 1.91363 10.8197 1.97649 10.774 2.0311C10.6937 2.12693 10.5215 2.25502 10.4375 2.35725C10.3607 2.45692 10.2071 2.72879 10.2769 3.05109C10.3025 2.9812 10.3507 2.84271 10.4788 2.68604C10.607 2.52937 10.7442 2.34948 10.8116 2.20971C10.8789 2.06857 10.8879 1.95729 10.8879 1.95729L10.9135 1.92495L10.898 1.85114L10.8764 1.84593Z" fill="#CBA94C"/>
  <path fill-rule="evenodd" clip-rule="evenodd" d="M13.4978 10.4323C13.4978 10.4323 13.446 10.2913 13.4304 10.1631C13.4149 10.0349 13.456 10.0095 13.4084 9.86283C13.3799 9.77348 13.3282 9.78603 13.3152 9.77348C13.3023 9.76094 13.2932 9.62594 13.2958 9.55213C13.2983 9.47831 13.2932 9.38257 13.2803 9.3411C13.2609 9.32557 13.2479 9.3126 13.2194 9.21685C13.1871 9.12102 13.1715 9.07315 13.156 9.04474C13.1405 9.01632 13.0951 8.99038 13.0951 8.96188C13.0951 8.90487 13.1469 8.87518 13.1469 8.85948C13.1443 8.82714 13.1055 8.85308 13.0951 8.84395C13.0822 8.82842 13.1275 8.73523 13.1107 8.72226C13.1042 8.71586 13.0589 8.77022 13.0472 8.75469C13.0342 8.73907 13.0187 8.58504 12.9954 8.48282C12.9735 8.38315 12.9501 8.3107 12.9475 8.28092C12.945 8.25242 12.7689 7.75014 12.7262 7.62846C12.6918 7.52564 12.6629 7.42107 12.6395 7.3152C12.6265 7.25436 12.6175 7.13003 12.611 7.143C12.6045 7.15597 12.6084 7.21937 12.598 7.21681C12.589 7.21416 12.5566 6.9929 12.5463 6.95791C12.5373 6.92292 12.4828 6.80431 12.4695 6.71846C12.4565 6.63168 12.4281 6.40512 12.4087 6.25109C12.3892 6.09707 12.3802 6.03366 12.3802 5.99509C12.3833 5.90075 12.3781 5.80632 12.3646 5.7129C12.339 5.54974 12.2878 5.35168 12.2429 5.23656C12.1562 5.01905 11.9258 4.46242 11.8845 4.32393C11.8845 4.28894 11.9299 4.30839 11.9299 4.30839C11.9299 4.30839 12.0424 4.59059 12.1253 4.80802C12.2056 5.02554 12.2819 5.21711 12.3014 5.23656C12.3169 5.25594 12.4386 5.46953 12.493 5.81905C12.5473 6.16858 12.5667 6.49088 12.5991 6.70575C12.6147 6.80815 12.6276 6.91678 12.66 7.02549C12.6949 7.14334 12.7492 7.26502 12.8205 7.45139C12.8813 7.60806 12.9266 7.73879 12.9512 7.85143C12.9797 7.99514 12.9797 8.10385 12.9965 8.1751C13.0121 8.23595 13.0353 8.35755 13.0898 8.5335C13.1442 8.70946 13.2244 8.93611 13.2787 9.07716C13.385 9.35936 13.4323 9.59496 13.4484 9.72058C13.4625 9.85003 13.5107 10.2978 13.4978 10.4323Z" fill="#A88F33"/>
  <path fill-rule="evenodd" clip-rule="evenodd" d="M10.8829 1.8304L10.8764 1.84593C10.8764 1.84593 10.8958 1.85242 10.8919 1.87836C10.8922 1.91385 10.8901 1.94932 10.8855 1.98451C10.8791 2.02982 10.8661 2.06473 10.8635 2.09323C10.8635 2.15407 10.8726 2.22396 10.7867 2.39744C10.7611 2.44531 10.7453 2.4867 10.7324 2.5152C10.7 2.58509 10.6935 2.5955 10.665 2.62784C10.7104 2.60224 10.8735 2.49984 10.9563 2.5152C10.8994 2.54754 10.8126 2.61103 10.7582 2.69389C10.7712 2.69645 10.8256 2.70686 10.9118 2.69389C11.0555 2.67187 11.216 2.62007 11.3571 2.6304C11.5112 2.63945 11.4504 2.44531 11.4504 2.44531L11.2725 2.0544L10.936 1.8176L10.8829 1.8304Z" fill="#BE9C44"/>
  <path fill-rule="evenodd" clip-rule="evenodd" d="M11.7606 4.75861C11.7606 4.75861 11.6104 4.60843 11.5495 4.09301C11.4887 3.57521 11.5017 2.81301 11.5017 2.81301L11.38 2.51529C11.38 2.51529 11.3544 2.31723 11.2906 2.2435C11.2269 2.16977 11.1017 2.04544 11.0447 1.9846C10.9877 1.92375 10.923 1.8409 10.8842 1.82793C10.9036 1.79558 10.9903 1.61306 11.323 1.6105C11.6556 1.60794 11.7582 1.79302 11.7929 1.86035C11.8276 1.92768 11.9845 2.21875 12.0427 2.77342C12.097 3.3274 12.0997 3.36887 12.0906 3.56045C12.0841 3.6666 12.0492 3.91253 11.9882 4.17527C11.9326 4.39799 11.8719 4.64606 11.7606 4.75861Z" fill="#A17C34"/>
  <path fill-rule="evenodd" clip-rule="evenodd" d="M11.2896 5.20004C11.3397 5.20365 11.3897 5.19237 11.4333 5.16762C11.4812 5.16506 11.6547 5.18707 11.7879 5.01751C11.797 5.05626 11.8204 5.16122 11.7594 5.2544C11.7919 5.22197 11.8397 5.20909 11.8462 5.20004C11.8488 5.24791 11.8941 5.39546 11.7025 5.75403C11.7542 5.69711 11.8151 5.69967 11.8694 5.69318C11.8721 5.76051 11.9083 5.98699 11.8125 6.10876C11.7491 6.19162 11.6455 6.16567 11.6455 6.16567C11.647 6.14759 11.647 6.1294 11.6455 6.11132C11.643 6.07633 11.63 6.04143 11.6391 6.01813C11.5891 5.99527 11.5435 5.96369 11.5045 5.92486C11.3918 5.81871 11.2456 5.63755 11.2352 5.50289C11.2223 5.3527 11.3569 5.32036 11.3569 5.32036C11.3456 5.31027 11.336 5.29846 11.3284 5.28538C11.3219 5.26345 11.3155 5.22846 11.2896 5.20004Z" fill="#8C6228"/>
  <path fill-rule="evenodd" clip-rule="evenodd" d="M10.2912 3.57154C10.2912 3.57154 10.2847 3.5625 10.2498 3.60388C10.2563 3.5625 10.2628 3.52358 10.2653 3.48604C10.2819 3.45128 10.3032 3.41904 10.3288 3.39029C10.3094 3.42903 10.2964 3.46402 10.2964 3.46402C10.2964 3.46402 10.3444 3.37468 10.4143 3.32032C10.4621 3.28149 10.523 3.2634 10.5488 3.22714C10.5773 3.18831 10.5708 3.18182 10.5773 3.17534C10.5773 3.17534 10.6408 3.13395 10.7379 3.01218C10.7508 2.99665 10.7703 2.97984 10.7832 2.96431C10.8052 2.95526 10.857 2.93197 10.9178 2.90082C10.9813 2.86592 11.0525 2.81805 11.0965 2.79842C11.1832 2.75959 11.2752 2.76352 11.3178 2.70259C11.3502 2.69355 11.3851 2.59644 11.3787 2.51366C11.4266 2.53303 11.6725 2.68578 11.7567 3.01978C11.8176 3.25666 11.7088 3.62172 11.6634 3.79785C11.6181 3.97397 11.6117 4.10462 11.5482 4.18483C11.4679 4.29107 11.2091 4.44083 11.1456 4.51499C11.0913 4.57583 10.9282 4.72986 10.9346 4.84113C10.9411 4.92399 11.0433 4.96913 11.0654 4.98483C11.0875 5.00053 11.0874 5.01982 11.1288 5.01043C11.1703 5.00105 11.1858 4.98193 11.2026 4.98193C11.222 4.98449 11.222 4.98842 11.2311 4.98842C11.2376 4.98822 11.2441 4.98733 11.2505 4.98577C11.2505 4.98577 11.244 5.10362 10.9683 5.13937C10.9489 5.14202 10.9295 5.14842 10.9048 5.15234C10.9373 5.13681 10.9566 5.13681 10.9916 5.08894C10.9528 5.08245 10.8414 5.07597 10.8129 5.06692C10.822 5.05139 10.8518 5.00992 10.8763 4.99055C10.8983 4.97118 10.8738 4.96495 10.8544 4.97502C10.821 4.99771 10.7891 5.02233 10.7586 5.04875C10.7262 5.07725 10.6977 5.11607 10.6459 5.15115C10.6304 5.09935 10.633 5.00096 10.6939 4.92979C10.6783 4.93235 10.6485 4.97766 10.6201 4.96862C10.6149 4.9214 10.618 4.87365 10.6291 4.82748C10.6447 4.76919 10.7288 4.66697 10.7288 4.66697L11.1352 3.94069L11.2219 3.39055L10.2912 3.57154Z" fill="#92723A"/>
  <path fill-rule="evenodd" clip-rule="evenodd" d="M10.2693 3.6026C10.2693 3.6026 10.2473 3.61813 10.2913 3.64791C10.2848 3.65696 10.2693 3.6893 10.2498 3.71132C10.2279 3.73692 10.2045 3.75279 10.1955 3.77481C10.1761 3.82012 10.1606 3.85118 10.1606 3.87063C10.1606 3.89009 10.1541 4.01434 10.0997 4.09455C10.0803 4.12305 10.0582 4.17092 10.0427 4.20326C10.0104 4.26018 9.98187 4.30566 9.97538 4.33126C9.9625 4.37658 9.95345 4.50082 9.95345 4.50082C9.95345 4.50082 9.98195 4.46583 9.99228 4.45295C9.97666 4.48529 9.95985 4.52019 9.93528 4.54613C9.95081 4.53316 9.99612 4.50082 10.0725 4.43349C10.1786 4.34423 10.3444 4.19405 10.5463 4.07509C10.4854 4.09711 10.4337 4.09711 10.3923 4.10359C10.4247 4.07125 10.7159 3.72949 10.8687 3.69715C10.8779 3.68539 10.8825 3.67063 10.8816 3.65568L10.7508 3.64279L10.4854 3.69971L10.4467 3.49491L10.2693 3.6026Z" fill="#B18E3E"/>
  <path fill-rule="evenodd" clip-rule="evenodd" d="M10.6913 4.76766C10.6913 4.76766 10.6563 4.80256 10.624 4.88934C10.5991 4.86334 10.5778 4.83416 10.5605 4.80256C10.5126 4.72235 10.4389 4.62003 10.2667 4.67831C10.2641 4.62396 10.2602 4.59546 10.2667 4.55663C10.2952 4.55023 10.3819 4.48034 10.4686 4.37803C10.5295 4.30814 10.5865 4.22784 10.6253 4.12561C10.6509 4.10615 10.6952 4.07381 10.7533 4.03627C10.8361 3.97935 10.9358 3.90161 10.9513 3.81491C10.9125 3.83044 10.8297 3.86927 10.7053 3.86287C10.7533 3.84085 10.827 3.81756 10.818 3.72173C10.8374 3.70876 10.8529 3.69971 10.8529 3.69971C10.8384 3.69484 10.823 3.69265 10.8076 3.69323C10.805 3.68418 10.8012 3.6713 10.7791 3.6777C10.7571 3.6841 10.7535 3.68418 10.7506 3.69323C10.7416 3.69587 10.7118 3.69323 10.6898 3.70884C10.6678 3.72446 10.6069 3.77609 10.5836 3.78513C10.5927 3.7696 10.6056 3.74639 10.6056 3.74639C10.6056 3.74639 10.5422 3.75279 10.4969 3.77199C10.414 3.80049 10.3183 3.85229 10.2211 3.90272C10.2302 3.88719 10.2341 3.87712 10.2405 3.87422C10.2469 3.87132 10.2625 3.86782 10.2625 3.86517C10.2625 3.86253 10.2561 3.83957 10.26 3.83027C10.289 3.76877 10.3233 3.70987 10.3624 3.65423C10.4077 3.5933 10.4167 3.5066 10.4167 3.5066L10.6148 3.40693L11.1714 3.27893L11.5326 3.30095L11.4873 3.55081L11.274 3.98703L11.0915 4.38443L10.883 4.62788L10.6913 4.76766Z" fill="#543E26"/>
  <path fill-rule="evenodd" clip-rule="evenodd" d="M11.5936 3.6864C11.5936 3.6864 11.376 3.95563 11.3152 3.9971C11.354 3.91424 11.5936 3.42101 11.6803 3.2838C11.6609 3.26827 11.6349 3.26827 11.6958 3.0278C11.6441 3.1494 11.6259 3.21289 11.5832 3.24523C11.5406 3.27757 11.5353 3.26724 11.5064 3.26724C11.5119 3.25739 11.5141 3.24609 11.5128 3.2349C11.5128 3.2349 11.3303 3.21289 11.2056 3.21289C11.081 3.21289 10.8342 3.28021 10.6969 3.33457C10.5882 3.37988 10.5273 3.37988 10.4885 3.4083C10.4497 3.44064 10.4276 3.47563 10.4082 3.48467C10.3927 3.49372 10.3189 3.51701 10.302 3.54159C10.2865 3.56719 10.2607 3.59595 10.2607 3.60243C10.2607 3.60892 10.2542 3.61805 10.2736 3.61148C10.28 3.60892 10.328 3.58298 10.3823 3.55063C10.4561 3.50925 10.5454 3.46138 10.6102 3.43287C10.7953 3.35906 10.8535 3.37203 10.9363 3.3565C11.023 3.34097 11.1474 3.3047 11.2301 3.3047C11.313 3.30214 11.4697 3.3047 11.5059 3.31119C11.4904 3.32416 11.4774 3.33969 11.4839 3.39405C11.4839 3.40958 11.4709 3.42639 11.4583 3.46394C11.4196 3.57009 11.3457 3.74613 11.3047 3.83548C11.2478 3.95708 11.1831 4.05939 11.1511 4.1228C11.1191 4.1862 11.0487 4.35319 10.979 4.44254C10.9093 4.53188 10.8728 4.58624 10.851 4.6057C10.8291 4.62515 10.6723 4.74027 10.684 4.78174C10.7125 4.77269 10.8925 4.70494 11.0231 4.55782C11.1538 4.41071 11.1798 4.32094 11.282 4.24064C11.3842 4.16034 11.4645 4.02577 11.5124 3.9145C11.5525 3.8109 11.5431 3.7783 11.5936 3.6864Z" fill="#806031"/>
  <path fill-rule="evenodd" clip-rule="evenodd" d="M6.9062 5.69583C6.9062 5.69583 6.8777 5.81359 6.81293 5.87187C6.74953 5.92887 6.63689 5.97803 6.624 6.07386C6.60847 6.1696 6.73664 6.21756 6.73664 6.21756C6.73664 6.21756 6.66667 6.33276 6.66667 6.41946C6.66667 6.5088 6.66411 6.52561 6.67315 6.61103C6.66289 6.61763 6.65416 6.62636 6.64755 6.63663C6.64755 6.63663 6.65395 6.71949 6.71744 6.7712C6.78093 6.82291 6.8352 6.85406 6.86754 6.84109C6.87248 6.85164 6.87681 6.86247 6.88051 6.87351C6.88051 6.87351 6.92847 6.75183 6.96081 6.64567C6.99315 6.53696 7.02165 6.5524 7.03454 6.40614C7.04742 6.25988 7.18814 6.00875 7.18814 6.00875L7.28414 5.79413L7.12755 5.67245L6.9062 5.69583Z" fill="#B6903C"/>
  <path fill-rule="evenodd" clip-rule="evenodd" d="M7.19744 5.90677C7.16515 5.93992 7.13534 5.9754 7.10827 6.01293C7.06688 6.06993 7.03454 6.12164 6.9737 6.14374C6.91285 6.16584 6.87403 6.16567 6.87787 6.2266C6.88171 6.28753 6.93871 6.3133 6.97105 6.34436C7.00604 6.3767 7.03454 6.43106 7.01901 6.49199C7.03838 6.48294 7.07337 6.47253 7.10571 6.40265C7.13805 6.33276 7.36427 5.90686 7.36427 5.90686L7.19744 5.90677Z" fill="#685026"/>
  <path fill-rule="evenodd" clip-rule="evenodd" d="M8.0896 4.92424C8.0896 4.92424 8.10897 4.87253 8.0896 4.83499C8.07014 4.79616 7.95238 4.78319 7.8941 4.73916C7.83326 4.69385 7.75945 4.66236 7.6986 4.68224C7.70765 4.66022 7.74391 4.61227 7.71413 4.60194C7.68563 4.5929 7.57956 4.64077 7.55106 4.66278C7.52256 4.6848 7.45779 4.71066 7.44491 4.72627C7.43202 4.74189 7.40992 4.77158 7.39695 4.75861C7.38398 4.74957 7.37758 4.72627 7.35556 4.73916C7.33355 4.75204 7.22756 4.83883 7.20802 4.88934C7.18848 4.93986 7.14453 5.0525 7.01252 5.18059C6.88051 5.30867 6.82351 5.39162 6.86234 5.43949C6.90116 5.48736 6.91934 5.45246 6.92582 5.49384C6.93081 5.53447 6.92862 5.57566 6.91934 5.61553C6.90381 5.68286 6.87795 5.74626 6.91285 5.75923C7.0022 5.78773 7.08898 5.73363 7.10835 5.75019C7.14718 5.78509 7.08634 5.9107 7.17824 5.93527C7.27151 5.96087 7.36341 5.91326 7.36341 5.91326L7.70253 5.73073L8.02876 5.55861L8.19567 5.22846L8.10615 4.95275L8.0896 4.92424Z" fill="#D4B968"/>
  <path fill-rule="evenodd" clip-rule="evenodd" d="M7.7696 5.71264C7.7696 5.71264 7.7126 5.62594 7.78257 5.54948C7.85254 5.47302 7.95213 5.44077 7.99095 5.3929C7.98356 5.38378 7.97365 5.37704 7.96245 5.37353C7.98823 5.32741 8.02755 5.29032 8.07509 5.26729C8.05572 5.24791 8.02978 5.23238 8.00136 5.23238C7.93788 5.23238 7.89897 5.27121 7.84077 5.27121C7.78385 5.27121 7.77736 5.24271 7.77736 5.24271C7.77736 5.24271 7.87319 5.23366 7.86406 5.19091C7.85502 5.1456 7.83846 5.1456 7.83846 5.1456C7.83846 5.1456 8.02355 5.0688 8.05589 5.02784C8.08823 4.98688 8.0844 4.9385 8.09088 4.91913C8.11281 4.91913 8.24098 4.8518 8.29278 4.8803C8.34457 4.9088 8.30831 4.98645 8.30831 4.98645C8.30831 4.98645 8.46507 4.86861 8.54494 4.75307C8.61483 4.75955 8.64734 4.70519 8.69854 4.70519C8.76203 4.70519 8.8617 4.79189 8.88107 4.97698C8.89404 5.08314 8.91341 5.14398 8.89404 5.33171C8.88499 5.43787 8.88755 5.66451 8.91964 5.77698C8.94157 5.86633 8.99337 5.85728 8.99337 5.85728C8.98542 5.8845 8.96966 5.9088 8.94805 5.92717C8.91307 5.95951 8.90923 6.04501 8.91307 6.07735C8.91823 6.101 8.92472 6.12433 8.93252 6.14724C8.93252 6.14724 8.89114 6.19511 8.88072 6.22754C8.87168 6.25988 8.82901 6.2819 8.79787 6.2819C8.76672 6.2819 8.78234 6.27925 8.74095 6.2819C8.69956 6.28454 8.68659 6.29094 8.66065 6.2819C8.63471 6.27285 8.61534 6.26244 8.62575 6.1795C8.6348 6.09664 8.306 5.90379 8.306 5.90379L7.7684 5.71221L7.7696 5.71264Z" fill="#CCA849"/>
  <path fill-rule="evenodd" clip-rule="evenodd" d="M7.15213 6.53073C7.15213 6.53073 7.26989 6.6874 7.75407 6.6874C7.98447 6.6874 8.06477 6.66539 8.11247 6.65242C8.16427 6.63945 8.3584 6.56316 8.5539 6.33267C8.72994 6.12429 8.69111 6.03887 8.69111 6.03887L8.58871 6.02334L8.25591 6.06865L7.27117 6.48806L7.15213 6.53073Z" fill="#585136"/>
  <path fill-rule="evenodd" clip-rule="evenodd" d="M7.51326 6.56956C7.51326 6.56956 7.09385 6.66283 7.09385 6.39744C7.09385 6.13854 7.35275 5.86667 7.41751 5.81879C7.48484 5.77084 7.64535 5.71639 7.64535 5.71639H8.03243L8.10615 5.91189L8.07381 6.33387L7.51326 6.56956Z" fill="#252211"/>
  <path fill-rule="evenodd" clip-rule="evenodd" d="M7.90033 5.7955C7.90033 5.7955 7.82012 5.72169 7.63759 5.8211C7.45506 5.92051 7.30743 6.1283 7.29839 6.31697C7.28934 6.48388 7.43561 6.60821 7.66345 6.6147C7.833 6.6211 7.93532 6.60173 7.98711 6.5891C7.97414 6.57357 7.90682 6.48943 7.90682 6.48943L7.90033 5.7955Z" fill="#C3B378"/>
  <path fill-rule="evenodd" clip-rule="evenodd" d="M7.8214 5.8368C7.8214 5.8368 7.80203 5.82127 7.7446 5.85233C7.69673 5.87793 7.62684 5.9456 7.57248 5.99347C7.53749 6.02197 7.51548 6.03486 7.49568 6.05687C7.41538 6.1527 7.34805 6.30938 7.38697 6.38703C7.42588 6.46468 7.55396 6.55403 7.88019 6.49318L7.8214 5.8368Z" fill="#E6D89C"/>
  <path fill-rule="evenodd" clip-rule="evenodd" d="M7.71524 5.9974C7.71524 5.9974 7.66344 6.0777 7.66344 6.20587C7.66344 6.3366 7.73726 6.54498 8.00913 6.56051C8.21751 6.57348 8.35729 6.26022 8.50876 6.13854C8.62396 6.04535 8.69385 6.04271 8.69385 6.04271C8.69385 6.04271 8.57609 5.91471 8.26155 5.74891C7.95085 5.58191 7.6026 5.55989 7.41359 5.81624C7.50293 5.80975 7.79162 5.73594 7.79162 5.73594L7.93276 5.78125L7.71524 5.9974Z" fill="#252211"/>
  <path fill-rule="evenodd" clip-rule="evenodd" d="M8.12169 6.16695C8.11264 6.14758 8.10615 6.12164 8.1437 6.11524C8.18125 6.10884 8.19806 6.1126 8.21103 6.14084C8.224 6.16909 8.23663 6.19264 8.21743 6.20433C8.19806 6.21466 8.14763 6.2045 8.12169 6.16695ZM8.06084 5.98443C8.06084 5.98443 8.04787 5.99347 8.05436 5.97538C8.05692 5.95345 8.07381 5.91454 8.1152 5.92367C8.15659 5.9328 8.14763 5.97803 8.1408 5.991C8.13397 6.00397 8.09941 6.0259 8.07347 6.0166C8.07018 6.01576 8.06714 6.01415 8.06459 6.01191C8.06204 6.00968 8.06005 6.00687 8.05878 6.00372C8.05752 6.00057 8.05702 5.99716 8.05731 5.99378C8.05761 5.9904 8.05905 5.98731 8.06084 5.98443Z" fill="#6F674D"/>
  <path fill-rule="evenodd" clip-rule="evenodd" d="M4.5568 6.0672C4.5568 6.0672 4.6592 6.144 4.77815 6.14101C4.89591 6.13837 5.04738 6.01677 5.11727 5.93903C5.15866 5.89372 5.19407 5.84585 5.23247 5.8083C5.2649 5.77596 5.28683 5.76043 5.30236 5.73841C5.32437 5.71281 5.34767 5.66468 5.35936 5.64907C5.33086 5.67108 5.28947 5.70999 5.24672 5.73585C5.20533 5.76145 5.11599 5.80958 5.07972 5.82255C5.04482 5.83552 4.68233 6.02735 4.68233 6.02735L4.5568 6.0672Z" fill="#AC924C"/>
  <path fill-rule="evenodd" clip-rule="evenodd" d="M4.7133 5.1107C4.7133 5.1107 4.77022 5.07187 4.8803 5.04721C4.98645 5.02161 5.20004 5.0019 5.20004 5.0019L5.37609 5.0787L5.44597 5.34409L5.31797 5.61988L5.1549 5.72228L4.96973 5.42455L4.7133 5.1107Z" fill="#9F8E57"/>
  <path fill-rule="evenodd" clip-rule="evenodd" d="M4.4829 5.34758L4.42197 5.39307C4.42197 5.39307 4.43759 5.36457 4.45047 5.27787C4.46336 5.19117 4.53077 4.98014 4.62916 4.85845C4.72755 4.73677 4.72499 4.74325 4.72499 4.74325C4.71594 4.7416 4.70664 4.74189 4.6977 4.74411C4.68877 4.74633 4.68042 4.75043 4.67319 4.75614C4.68617 4.72747 4.76902 4.62507 4.85188 4.57387C4.93474 4.52267 4.96708 4.50654 5.05378 4.54827C5.14048 4.58999 5.1625 4.61167 5.22598 4.60911C5.28947 4.60655 5.34374 4.53922 5.34374 4.53922C5.34374 4.53922 5.35672 4.58061 5.30884 4.67644C5.26097 4.77227 5.07196 4.96768 5.07196 4.96768L4.6784 5.23691L4.4829 5.34758Z" fill="#EAC970"/>
  <path fill-rule="evenodd" clip-rule="evenodd" d="M4.77406 5.07836C4.77406 5.07836 5.0589 5.11718 5.1456 5.03697C5.14816 5.04602 5.15857 5.04602 5.15857 5.0525C5.15787 5.05739 5.1556 5.06191 5.15209 5.06539C5.16152 5.06388 5.17104 5.06303 5.18059 5.06283C5.19199 5.06622 5.20371 5.06839 5.21557 5.06931C5.22512 5.06911 5.23465 5.06822 5.24407 5.06667C5.24318 5.0731 5.24099 5.07929 5.23765 5.08486C5.2343 5.09043 5.22987 5.09527 5.22462 5.09909C5.23759 5.09909 5.25022 5.10165 5.25022 5.11198C5.25022 5.1223 5.25278 5.15345 5.23725 5.15994C5.22438 5.16349 5.21069 5.16256 5.19842 5.15729C5.19945 5.1818 5.20611 5.20574 5.21788 5.22726C5.24348 5.27514 5.29809 5.32966 5.37148 5.31396C5.37148 5.31396 5.41022 5.40715 5.24715 5.61425C5.22522 5.64275 5.20184 5.68158 5.17342 5.71392C5.16219 5.73839 5.15361 5.764 5.14782 5.79029C5.14782 5.79029 5.42362 5.68414 5.50255 5.44205C5.58285 5.19868 5.59838 4.95923 5.58285 4.73532C5.5802 4.67183 5.56988 4.6266 5.55435 4.59418C5.51552 4.51388 5.40672 4.52685 5.36277 4.57216C5.29929 4.63565 5.19313 4.79351 5.04559 4.90223C4.8954 5.01094 4.88934 5.03023 4.77406 5.07836Z" fill="#D7BC6B"/>
  <path fill-rule="evenodd" clip-rule="evenodd" d="M4.43238 5.42788C4.43238 5.42788 4.37803 5.46022 4.34952 5.58148C4.32102 5.70573 4.37513 5.85719 4.40644 5.90507C4.43776 5.95294 4.50884 6.08375 4.6563 6.09024C4.6928 6.09005 4.72889 6.08256 4.76245 6.06822C4.81393 6.04462 4.86221 6.0146 4.90615 5.97888C4.96964 5.93101 5.02135 5.88962 5.01487 5.8857C4.99934 5.87921 4.62396 5.56851 4.62396 5.56851L4.48282 5.41099L4.43238 5.42788Z" fill="#585136"/>
  <path fill-rule="evenodd" clip-rule="evenodd" d="M4.7872 5.94304C4.7872 5.94304 4.86357 5.93664 4.90889 5.90814C4.9542 5.87964 4.6435 5.57158 4.6435 5.57158L4.66551 5.90438L4.7872 5.94304Z" fill="#453A25"/>
  <path fill-rule="evenodd" clip-rule="evenodd" d="M4.45696 5.4045C4.45696 5.4045 4.41813 5.47831 4.41813 5.49777C4.41165 5.56117 4.4311 5.76051 4.44663 5.82391C4.46217 5.89124 4.5463 5.99347 4.6551 5.99347C4.72235 5.99347 4.81562 5.95209 4.81562 5.94176C4.81562 5.92879 4.71979 5.91616 4.69393 5.86795C4.6784 5.84235 4.67191 5.77869 4.66833 5.71435C4.66577 5.67296 4.66577 5.62765 4.6813 5.61195C4.71629 5.57312 4.72269 5.46176 4.72269 5.46176L4.84693 5.23093H4.68352L4.48802 5.35262L4.45696 5.4045Z" fill="#84754B"/>
  <path fill-rule="evenodd" clip-rule="evenodd" d="M4.40909 5.47575C4.40909 5.47575 4.53709 5.3062 4.65246 5.26729C4.76783 5.22837 4.81946 5.25175 4.81946 5.25175L4.75213 5.42396L4.6563 5.53011L4.66278 5.58447C4.66278 5.58447 4.64717 5.72817 4.743 5.82784C4.83883 5.92751 4.90999 5.92367 4.95147 5.92367C4.99294 5.92367 5.11198 5.88868 5.17282 5.74498C5.22718 5.61041 5.27249 5.43778 5.16378 5.26473C5.05754 5.09252 4.86989 5.08587 4.83362 5.08587C4.79735 5.08587 4.5126 5.10037 4.40909 5.47575Z" fill="#252211"/>
  <path fill-rule="evenodd" clip-rule="evenodd" d="M7.69579 6.05175C7.64791 6.02974 7.69323 5.89517 7.7411 5.8537C7.78897 5.81222 7.84981 5.76444 7.95605 5.75787C7.99479 5.75531 8.03234 5.77988 8.02594 5.80582C8.0169 5.8537 7.94957 5.92102 7.88873 5.9689C7.80459 6.03494 7.75014 6.07633 7.69579 6.05175Z" fill="#F7F7E7"/>
  <path fill-rule="evenodd" clip-rule="evenodd" d="M5.10677 5.3178C5.14176 5.31524 5.18707 5.3434 5.19612 5.38129C5.20516 5.42268 5.1741 5.50554 5.10677 5.50554C5.05242 5.50554 5.02391 5.43821 5.02391 5.41884C5.02453 5.40291 5.02898 5.38736 5.03689 5.37353C5.03945 5.3696 5.04593 5.32429 5.10677 5.3178Z" fill="#F8F6DE"/>
  <path fill-rule="evenodd" clip-rule="evenodd" d="M4.60194 5.34758C4.60194 5.34758 4.5126 5.38897 4.47121 5.47558C4.44164 5.53954 4.43269 5.61111 4.44561 5.68038C4.4521 5.71273 4.48444 5.79294 4.50645 5.82144C4.52847 5.84994 4.55825 5.8694 4.58027 5.86675C4.60228 5.86411 4.64751 5.80591 4.64751 5.77101C4.64751 5.73611 4.65016 5.58848 4.69282 5.50818C4.73037 5.42797 4.60194 5.34758 4.60194 5.34758Z" fill="#D4C38B"/>
  <path fill-rule="evenodd" clip-rule="evenodd" d="M4.61491 5.3411C4.59938 5.35014 4.57353 5.36311 4.57993 5.37993C4.58641 5.39546 4.64077 5.40553 4.66022 5.44341C4.68224 5.48224 4.68224 5.52363 4.67576 5.54308C4.69266 5.53505 4.70801 5.52407 4.72107 5.51066C4.74957 5.47831 4.78447 5.43437 4.81425 5.43437C4.83371 5.43437 4.85308 5.44341 4.87125 5.44341C4.89976 5.44341 4.92817 5.43437 4.9321 5.40459C4.9385 5.36576 4.87774 5.33077 4.84275 5.33726C4.84924 5.31166 4.85828 5.27386 4.82978 5.24791C4.80128 5.22197 4.71202 5.26737 4.69257 5.28034C4.67311 5.29331 4.61491 5.3411 4.61491 5.3411Z" fill="#E2D59D"/>
  <path fill-rule="evenodd" clip-rule="evenodd" d="M6.67187 8.06084L6.86345 8.00427L6.9178 8.04309C6.9178 8.04309 6.95654 8.12595 7.01747 8.13628C6.99802 8.17766 6.9475 8.21308 6.95014 8.24243C6.95279 8.27179 6.97865 8.29423 6.97865 8.29423C6.97865 8.29423 6.80644 8.57899 7.14564 8.86596C7.06534 8.8983 6.96311 8.94276 6.90876 8.96836C6.9475 8.97741 7.03036 8.99396 7.06534 9.02537C7.10033 9.05677 7.10033 9.06675 7.13267 9.08621C7.16501 9.10566 7.18438 9.13152 7.17798 9.14313C7.15597 9.13015 7.08216 9.09141 7.06927 9.12759C7.05638 9.16378 6.74953 9.14961 6.74953 9.14961L6.23172 9.24928C6.23172 9.24928 6.25109 9.19748 6.19674 9.14961C6.13333 9.09269 6.05568 9.15217 5.97282 9.08877C5.86411 9.00591 5.86018 8.91008 5.82528 8.8739C5.86018 8.85188 5.93144 8.81954 6.10099 8.7971C6.09451 8.78413 6.07249 8.7453 6.08546 8.7104C6.10099 8.66509 6.16568 8.63659 6.1463 8.5824C6.17481 8.57592 6.18769 8.57592 6.25894 8.48657C6.32627 8.39723 6.36766 8.37786 6.41946 8.37137C6.47125 8.36489 6.50231 8.37137 6.59814 8.28203C6.66539 8.21862 6.64346 8.16427 6.64346 8.16427C6.64346 8.16427 6.68732 8.15019 6.67187 8.06084Z" fill="#CBAC5A"/>
  <path fill-rule="evenodd" clip-rule="evenodd" d="M6.1062 8.0896C6.10876 8.07663 6.11917 8.07014 6.18906 8.07663C6.25894 8.08311 6.70165 8.03524 6.82206 8.02876C6.94374 8.01971 7.3722 8.02611 7.58067 8.07014C7.78914 8.11418 8.00009 8.16597 8.10231 8.19183C8.20471 8.22033 8.23697 8.23057 8.23305 8.24354C8.23049 8.25651 8.20745 8.26914 8.19422 8.26556C8.18133 8.263 7.84213 8.1594 7.73734 8.13756C7.63255 8.11571 7.26997 8.05726 7.07174 8.06076C6.88666 8.0634 6.81284 8.0582 6.65626 8.07629C6.49958 8.09574 6.24068 8.1216 6.16303 8.11127C6.08623 8.10223 6.10227 8.10257 6.1062 8.0896Z" fill="#D6BC6F"/>
  <path fill-rule="evenodd" clip-rule="evenodd" d="M7.1482 9.10421C7.1482 9.10421 7.41359 9.24791 7.50942 9.42396C7.57931 9.55469 7.46803 9.61946 7.46803 9.61946C7.46803 9.61946 7.61822 9.61946 7.59876 9.70231C7.58972 9.75403 7.33986 9.8938 7.17286 9.96762C7.00331 10.0414 7.00979 10.0376 6.92693 10.0505C6.84663 10.0634 6.62656 10.0249 6.58125 10.0893C6.53594 10.1537 6.55565 10.2201 6.56828 10.2304C6.58125 10.2395 6.68612 10.2525 6.68612 10.2525C6.68612 10.2525 6.66411 10.3133 6.44668 10.3198C6.22925 10.3263 6.17481 10.3417 6.16183 10.3651C6.14886 10.387 6.20322 10.3741 6.30298 10.3907C6.40265 10.4062 6.54242 10.4163 6.54242 10.4163C6.54242 10.4163 6.49711 10.4551 6.37935 10.4862C6.24469 10.5211 6.03366 10.5535 5.97026 10.5923C6.0026 10.6144 6.05056 10.6467 6.07266 10.6493C6.0183 10.6622 5.94184 10.6907 5.92896 10.7011C5.94833 10.714 5.97427 10.7296 5.97427 10.7296C5.97427 10.7296 5.86547 10.8603 5.80207 10.8927C5.73867 10.9251 5.37361 11.0946 5.248 11.0623C4.93474 10.9794 4.89591 10.6364 4.81954 10.6105C4.70434 10.5717 4.64998 10.6493 4.54767 10.5949C4.59298 10.5626 4.61764 10.5432 4.66551 10.5212C4.61372 10.4956 4.34577 10.3257 4.34577 10.3257C4.31775 10.2646 4.28665 10.205 4.25259 10.1471C4.20079 10.0577 4.12459 9.9386 4.06741 9.83373C3.94317 9.60333 3.93668 9.49717 3.82404 9.36644C3.8435 9.34084 3.91074 9.34443 3.91074 9.34443L4.85453 9.65512L6.528 9.70359L6.9632 9.08228L7.1482 9.10421Z" fill="#DFC677"/>
  <path fill-rule="evenodd" clip-rule="evenodd" d="M4.66927 10.0518C4.67937 10.063 4.69114 10.0726 4.70417 10.0803C4.7366 10.1023 4.78447 10.1282 4.81681 10.167C4.82978 10.1476 4.86212 10.1126 4.91921 10.167C4.9763 10.2213 5.04721 10.1826 5.09133 10.1955C5.13664 10.2111 5.1392 10.2175 5.1392 10.2175C5.1392 10.2175 5.1648 10.1955 5.22206 10.1722C5.25705 10.1592 5.29843 10.1501 5.34374 10.1373C5.38513 10.1282 5.43044 10.1152 5.46159 10.1152C5.49009 10.1346 5.59232 10.2432 6.00269 10.0829C6.38976 9.93271 6.47902 9.9159 6.54379 9.93911C6.55027 9.92358 6.55676 9.8938 6.65643 9.89773C6.65643 9.85634 6.57357 9.7152 6.57357 9.7152L6.11661 9.55861H5.86667L5.11718 9.69583L4.70187 9.9328L4.66927 10.0518Z" fill="#C4A859"/>
  <path fill-rule="evenodd" clip-rule="evenodd" d="M4.41941 9.78901C4.41941 9.78901 4.42846 9.8589 4.53205 9.93272C4.63445 10.0064 4.66662 10.0505 4.66662 10.0505C4.66662 10.0505 4.68608 10.0249 4.70161 9.99876C4.71714 9.97026 4.73011 9.93792 4.75597 9.92887C4.80777 9.90686 4.92553 9.94825 4.95147 9.94176C4.97348 9.93536 4.967 9.89005 4.99029 9.89005C5.04465 9.8874 5.07955 9.92495 5.09901 9.92495C5.11846 9.92495 5.16625 9.92239 5.17274 9.91206C5.17922 9.90174 5.18178 9.79422 5.25559 9.74242C5.33589 9.6855 5.43428 9.71008 5.46039 9.72305C5.46039 9.74242 5.46295 9.79038 5.51475 9.79294C5.56655 9.7955 5.57167 9.78645 5.61715 9.80198C5.66263 9.81752 5.71682 9.79943 5.7414 9.87571C5.76341 9.86931 5.81521 9.86283 5.80224 9.78901C5.82784 9.76964 5.8502 9.75667 5.90464 9.6803C5.91761 9.66093 5.93954 9.63891 5.95644 9.61041C6.00175 9.61041 6.05611 9.60137 6.12855 9.66477C6.10654 9.6803 6.09357 9.69037 6.08717 9.70615C6.10612 9.72492 6.12342 9.74527 6.13888 9.767C6.15834 9.7926 6.17131 9.824 6.19588 9.83049C6.25024 9.84602 6.33958 9.824 6.43925 9.83049C6.53508 9.83697 6.6153 9.87187 6.65028 9.89389C6.66325 9.88749 6.66325 9.88484 6.69559 9.89133C6.72794 9.89781 6.75251 9.90037 6.71761 9.85899C6.73698 9.86803 6.759 9.88749 6.77845 9.86803C6.79791 9.84858 6.81335 9.82016 6.86771 9.81368C6.92207 9.80719 6.94152 9.81624 6.96354 9.75932C6.99204 9.68943 6.89365 9.68943 6.89365 9.68943C6.89365 9.68943 6.93897 9.64796 6.98948 9.5936C7.05033 9.53668 7.12021 9.46287 7.13702 9.37225C7.16553 9.20525 7.00245 9.18332 7.00245 9.18332L6.2115 9.42669L5.2445 9.37873L4.41941 9.78901Z" fill="#927D49"/>
  <path fill-rule="evenodd" clip-rule="evenodd" d="M3.70876 7.50421C3.70876 7.50421 3.68316 7.53655 3.66737 7.61293C3.65158 7.6893 3.65833 7.68026 3.64535 7.73461C3.63238 7.78897 3.47307 8.33007 3.5328 8.5126C3.59253 8.69512 3.69596 8.76245 3.76064 8.91C3.77361 8.94234 3.78624 8.96179 3.79298 8.99029C3.815 9.08604 3.79563 9.15985 3.82148 9.25568C3.83053 9.28802 3.85391 9.32557 3.88881 9.3644C3.96561 9.44461 4.09079 9.52098 4.14481 9.57534C4.2211 9.65564 4.3299 9.81879 4.4684 9.83424C4.54221 9.84329 4.64708 9.81222 4.73378 9.76051C4.81058 9.71255 4.85803 9.64531 4.93858 9.60691C4.9955 9.57841 5.05634 9.56809 5.1107 9.55511C5.22334 9.5331 5.32565 9.52951 5.3865 9.54214C5.47968 9.5616 5.69975 9.62893 5.8217 9.62893C5.91698 9.62739 6.01173 9.61436 6.10389 9.5901C6.28898 9.53574 6.5129 9.44247 6.66052 9.40109C6.74722 9.37549 6.81711 9.36875 6.88836 9.35322C7.01005 9.32471 7.11228 9.28589 7.17056 9.21208C7.13173 9.16676 7.08386 9.09687 6.82487 9.09943C6.53107 9.10592 6.19187 9.26899 6.02487 9.29493C5.85788 9.32088 5.78543 9.34281 5.59898 9.27548C5.41619 9.20747 5.41013 9.1625 5.41013 9.1625C5.41013 9.1625 5.21822 9.02827 5.13792 8.68608C5.05762 8.34389 5.13792 8.09455 5.34639 7.85758C5.40075 7.79674 5.38778 7.74238 5.38778 7.74238C5.38778 7.74238 5.52499 7.55729 5.48745 7.38398C5.44606 7.21178 5.18067 7.24676 5.18067 7.24676L3.70876 7.50421Z" fill="#6E6342"/>
  <path fill-rule="evenodd" clip-rule="evenodd" d="M3.93011 8.0803C3.9187 8.10176 3.91333 8.12591 3.91458 8.15019C3.91714 8.18509 3.92755 8.2304 4.03234 8.33271C4.12169 8.42197 4.10223 8.52164 4.10223 8.52164C4.10223 8.52164 4.1472 8.53069 4.26923 8.4736C4.36506 8.42829 4.39723 8.50859 4.39723 8.50859C4.42512 8.49396 4.45536 8.48431 4.48657 8.48009C4.51485 8.47748 4.54222 8.46874 4.56678 8.45448C4.56678 8.45448 4.67942 8.56968 4.77781 8.62404C4.86716 8.672 4.91895 8.70434 4.96299 8.672C5.00437 8.6435 5.00437 8.58522 5.00173 8.55936C4.99146 8.53549 4.97846 8.5129 4.96299 8.49203C4.93448 8.45065 4.88917 8.40269 4.88619 8.36403C4.8797 8.27477 4.95351 8.16853 4.9379 8.14268C4.92228 8.11682 4.86417 8.11034 4.72047 8.16213C4.57165 8.21129 3.93011 8.0803 3.93011 8.0803Z" fill="#39331F"/>
  <path fill-rule="evenodd" clip-rule="evenodd" d="M4.26923 8.65894C4.26923 8.65894 4.1955 8.58906 4.22135 8.24986C4.25266 8.2494 4.28391 8.25243 4.31454 8.2589C4.31454 8.2589 4.35473 8.52173 4.26923 8.65894Z" fill="#292311"/>
  <path fill-rule="evenodd" clip-rule="evenodd" d="M3.74374 7.24531C3.75403 7.2377 3.76357 7.22913 3.77225 7.21971C3.74665 7.26758 3.62846 7.45916 3.72429 7.76081C3.82012 8.0611 4.06084 8.28501 4.35729 8.29542C4.65374 8.30583 4.80956 8.16077 4.98773 7.94334C5.05762 7.85664 5.13792 7.74784 5.20909 7.67411C5.31524 7.55883 5.3981 7.52648 5.3981 7.41521C5.3981 7.18737 5.16506 7.08506 4.82202 6.98283C4.47898 6.8806 4.16956 6.89323 4.00905 6.9632C3.85246 7.03949 3.78522 7.1197 3.74374 7.24531Z" fill="#252211"/>
  <path fill-rule="evenodd" clip-rule="evenodd" d="M4.84531 8.76117L4.87091 8.7482C4.87091 8.7482 4.87731 8.6458 4.91878 8.64853C4.96017 8.65502 4.97963 8.70946 4.9757 8.72883C4.97314 8.7482 4.96282 8.78063 4.92134 8.7767C4.86699 8.77798 4.84531 8.76117 4.84531 8.76117Z" fill="#3F3824"/>
  <path fill-rule="evenodd" clip-rule="evenodd" d="M4.73011 8.32623C4.73011 8.32623 4.75571 8.31718 4.78703 8.34824C4.81263 8.34824 4.92425 8.33527 4.95923 8.35729C4.99422 8.37931 5.00454 8.39868 5.00454 8.39868C5.00454 8.39868 4.87381 8.42718 4.80256 8.39868C4.73011 8.3741 4.73011 8.32623 4.73011 8.32623Z" fill="#2D2815"/>
  <path fill-rule="evenodd" clip-rule="evenodd" d="M5.3062 8.3456C5.3062 8.33912 5.23631 8.29124 5.1625 8.27563C5.14953 8.27307 5.14688 8.28211 5.1369 8.28211C5.13041 8.27955 5.12785 8.2601 5.12785 8.2601L5.08587 8.2822C5.08587 8.2822 5.07938 8.29124 5.1014 8.3078C5.12077 8.32333 5.1532 8.3363 5.16224 8.36215C5.17129 8.38801 5.17129 8.39706 5.17521 8.40098C5.17777 8.40354 5.22308 8.40098 5.2451 8.38801C5.26711 8.37504 5.30884 8.35413 5.3062 8.3456Z" fill="#82764F"/>
  <path fill-rule="evenodd" clip-rule="evenodd" d="M4.65246 8.60843C4.65246 8.60843 4.66534 8.51917 4.75213 8.51524C4.84139 8.50876 4.85828 8.59546 4.85828 8.59546L4.80649 8.64725C4.80649 8.64597 4.76723 8.59162 4.65246 8.60843Z" fill="#2D2816"/>
  <path fill-rule="evenodd" clip-rule="evenodd" d="M5.21557 8.22392C5.21557 8.22392 5.16762 8.27571 5.06155 8.29124C5.0525 8.27827 5.03305 8.25242 5.06155 8.21103C5.09005 8.16964 5.12239 8.15667 5.15473 8.16956C5.169 8.17187 5.18231 8.17822 5.19309 8.18785C5.20387 8.19748 5.21167 8.20999 5.21557 8.22392Z" fill="#574F35"/>
  <path fill-rule="evenodd" clip-rule="evenodd" d="M5.41099 8.2874C5.41363 8.27443 5.40459 8.27187 5.41099 8.26539C5.41739 8.2589 5.45246 8.24602 5.45894 8.25242C5.4615 8.25506 5.45894 8.26539 5.45894 8.27802C5.45894 8.29065 5.45894 8.30362 5.45246 8.31292C5.44341 8.32589 5.41756 8.33237 5.40459 8.32853C5.39162 8.32469 5.38906 8.30652 5.38906 8.30293C5.39546 8.30037 5.41099 8.29389 5.41099 8.2874ZM5.632 8.14763C5.632 8.14114 5.65402 8.12817 5.66699 8.12817C5.68636 8.12817 5.68636 8.1437 5.689 8.14763C5.6954 8.15019 5.6954 8.14498 5.70189 8.15667C5.70837 8.16836 5.7175 8.18901 5.71093 8.20198C5.70436 8.21496 5.67859 8.22391 5.67219 8.22135C5.66315 8.21487 5.63465 8.15667 5.632 8.14763Z" fill="#82764F"/>
  <path fill-rule="evenodd" clip-rule="evenodd" d="M5.18707 8.31718C5.18707 8.31718 5.21557 8.32358 5.2544 8.35601C5.24143 8.36506 5.22197 8.37538 5.22197 8.37538C5.22197 8.37538 5.21941 8.34569 5.18707 8.31718Z" fill="#6E6342"/>
  <path fill-rule="evenodd" clip-rule="evenodd" d="M5.12367 8.03234C5.11718 8.02594 5.14304 8.01041 5.15857 8.01297C5.1741 8.01553 5.18059 8.02594 5.1974 8.0285C5.21421 8.03106 5.21685 8.02202 5.223 8.01553C5.22914 8.00905 5.2515 8.01297 5.25534 8.01553C5.25773 8.01837 5.2599 8.0214 5.26182 8.02458C5.26209 8.01965 5.26338 8.01484 5.2656 8.01043C5.26781 8.00603 5.27092 8.00213 5.27471 7.99898C5.27968 7.99533 5.2854 7.99285 5.29146 7.99173C5.29752 7.9906 5.30375 7.99086 5.3097 7.99249C5.31226 8.00154 5.32523 8.03388 5.32267 8.04036C5.32011 8.04685 5.28128 8.05598 5.27471 8.04941C5.28119 8.06502 5.3097 8.09737 5.31354 8.10377C5.31738 8.11017 5.28504 8.12578 5.27215 8.12322C5.25406 8.12194 5.14304 8.05692 5.12367 8.03234ZM5.29323 7.81747C5.29083 7.81095 5.28625 7.80546 5.28026 7.80194C5.27121 7.79938 5.24143 7.80194 5.24143 7.81747C5.24143 7.833 5.26703 7.91987 5.29579 7.9651C5.32821 8.01041 5.35014 8.04787 5.37216 8.05828C5.37907 8.06143 5.38692 8.06184 5.39412 8.05944C5.40133 8.05703 5.40735 8.05198 5.41099 8.04531C5.41355 8.03883 5.42003 7.99095 5.41747 7.87831C5.41491 7.76567 5.41099 7.65696 5.4045 7.65047C5.39802 7.64399 5.37216 7.64407 5.36311 7.65696C5.35407 7.66985 5.29587 7.7981 5.29323 7.81747Z" fill="#585136"/>
  <path fill-rule="evenodd" clip-rule="evenodd" d="M5.17803 8.48026C5.17803 8.48026 5.13271 8.45175 5.08868 8.47121C5.0473 8.49067 5.04986 8.56704 5.04986 8.56704C5.05917 8.57069 5.06923 8.572 5.07916 8.57087C5.0891 8.56974 5.09861 8.5662 5.10686 8.56055C5.13536 8.54118 5.17154 8.50876 5.17803 8.48026Z" fill="#574F35"/>
  <path fill-rule="evenodd" clip-rule="evenodd" d="M5.26345 8.58257C5.26089 8.55697 5.23785 8.55697 5.23785 8.54374C5.23943 8.53742 5.24309 8.53181 5.24825 8.52782C5.2534 8.52383 5.25974 8.52168 5.26626 8.52173C5.27923 8.52173 5.29186 8.53726 5.30773 8.54733C5.32326 8.55637 5.34656 8.57293 5.34912 8.59264C5.35168 8.61235 5.32352 8.66637 5.2922 8.66637C5.26089 8.66637 5.26993 8.60843 5.26345 8.58257ZM5.5133 8.54758C5.5133 8.54758 5.4615 8.56311 5.46534 8.54758C5.46918 8.53205 5.48096 8.52821 5.49777 8.52821C5.50631 8.51927 5.5178 8.51373 5.53011 8.5126C5.53715 8.51225 5.54407 8.51456 5.54948 8.51908C5.54948 8.51908 5.58447 8.50355 5.59479 8.5126C5.60512 8.52164 5.59744 8.52164 5.60384 8.53205C5.61199 8.54361 5.61734 8.5569 5.61946 8.57088C5.61946 8.58121 5.58063 8.60322 5.54948 8.59938C5.5133 8.59161 5.5197 8.55407 5.5133 8.54758ZM5.81487 8.4893C5.81487 8.4893 5.8304 8.49835 5.81751 8.50876C5.80847 8.5178 5.76316 8.53436 5.72425 8.53726C5.68542 8.53726 5.65052 8.54366 5.65052 8.53077C5.65052 8.51789 5.68286 8.49195 5.70223 8.48546C5.70611 8.4806 5.71105 8.47667 5.71666 8.47398C5.72228 8.47129 5.72843 8.46991 5.73466 8.46993C5.75019 8.46993 5.81094 8.46344 5.82784 8.46089C5.84337 8.45824 5.85634 8.46729 5.84721 8.48026C5.84337 8.4893 5.81487 8.4893 5.81487 8.4893ZM5.90421 8.0896C5.90421 8.0896 5.88476 8.13099 5.86283 8.13099C5.84081 8.12843 5.84081 8.12194 5.84081 8.11546C5.84081 8.10641 5.86283 8.08311 5.86018 8.07663C5.85378 8.07663 5.83817 8.07663 5.84081 8.0611C5.84081 8.04813 5.86283 8.0326 5.8822 8.0355C5.89683 8.02347 5.91506 8.01666 5.93399 8.01613C5.95601 8.01613 5.97538 8.02253 5.97538 8.0355C5.97538 8.04847 5.94978 8.07689 5.94039 8.08346C5.93007 8.09378 5.9171 8.10027 5.90421 8.0896ZM5.60905 8.85461C5.60905 8.85461 5.58345 8.85726 5.58345 8.87014C5.58345 8.87663 5.58985 8.87663 5.59898 8.87279C5.60424 8.87249 5.60945 8.8716 5.61451 8.87014C5.61707 8.87279 5.61707 8.88567 5.63652 8.88567C5.6525 8.88352 5.6679 8.87824 5.68184 8.87014C5.69737 8.86374 5.71034 8.85717 5.71034 8.84454C5.70385 8.82253 5.69088 8.81212 5.67151 8.81212C5.66158 8.81149 5.65169 8.81374 5.64301 8.8186C5.64301 8.8186 5.63652 8.80563 5.61451 8.8186C5.59249 8.83157 5.59505 8.83157 5.60154 8.83806C5.61314 8.84838 5.60905 8.85461 5.60905 8.85461ZM5.46278 8.98927C5.46278 8.98278 5.49513 8.96981 5.50417 8.97374C5.51322 8.9763 5.53907 9.02545 5.53907 9.03066C5.53907 9.03714 5.50673 9.05267 5.49376 9.05267C5.48079 9.05267 5.45886 9.03065 5.45886 9.02707C5.45886 9.02451 5.47439 9.02067 5.47439 9.01803C5.47823 9.01163 5.46278 8.99575 5.46278 8.98927ZM5.36038 8.80026C5.36687 8.7977 5.36687 8.79121 5.37591 8.78472C5.37875 8.78284 5.38197 8.78163 5.38535 8.78119C5.38872 8.78074 5.39215 8.78108 5.39537 8.78217C5.39765 8.77809 5.40081 8.77458 5.40462 8.77188C5.40843 8.76918 5.41279 8.76736 5.41739 8.76655C5.43292 8.76399 5.44589 8.76655 5.44299 8.77303C5.44299 8.79249 5.45596 8.80538 5.45596 8.82091C5.45596 8.83644 5.44691 8.85589 5.41457 8.86886C5.38223 8.87791 5.3382 8.87791 5.33171 8.87535C5.32523 8.87279 5.31874 8.84685 5.32523 8.83388C5.33171 8.82091 5.34997 8.80674 5.36038 8.80026Z" fill="#82764F"/>
  <path fill-rule="evenodd" clip-rule="evenodd" d="M5.4016 8.80905C5.4016 8.80905 5.37958 8.82202 5.37958 8.8285C5.37763 8.83476 5.37677 8.84132 5.37702 8.84787C5.37702 8.85171 5.40553 8.84531 5.40937 8.84139C5.41065 8.83883 5.4016 8.81579 5.4016 8.80905Z" fill="#6E6342"/>
  <path fill-rule="evenodd" clip-rule="evenodd" d="M5.20909 8.7482C5.22197 8.75085 5.24399 8.7482 5.2608 8.75469C5.27377 8.76117 5.28282 8.77414 5.26985 8.78967C5.25687 8.8052 5.24424 8.8285 5.21549 8.82458C5.18315 8.82202 5.15209 8.8052 5.15209 8.79223C5.15154 8.78403 5.15263 8.7758 5.1553 8.76802C5.15797 8.76024 5.16215 8.75307 5.16762 8.74692C5.18059 8.7366 5.18707 8.74308 5.20909 8.7482Z" fill="#585136"/>
  <path fill-rule="evenodd" clip-rule="evenodd" d="M5.19356 8.76117C5.19356 8.76117 5.15217 8.79351 5.14176 8.80913C5.12879 8.82466 5.06539 8.90487 5.04602 8.92169C5.05245 8.91034 5.05978 8.89952 5.06795 8.88934C5.04235 8.90571 5.02315 8.93039 5.01359 8.95923C4.99806 9.00719 5.10037 9.03304 5.16762 9.0525C5.23486 9.07196 5.26089 9.0781 5.26089 9.0781C5.23613 9.04089 5.21487 9.00147 5.1974 8.96034C5.1718 8.8995 5.15857 8.89301 5.17538 8.86451C5.18835 8.83601 5.20781 8.81664 5.20781 8.79462C5.20004 8.77414 5.19356 8.76117 5.19356 8.76117Z" fill="#574F35"/>
  <path fill-rule="evenodd" clip-rule="evenodd" d="M3.7178 8.86349C3.72722 8.86522 3.73688 8.86522 3.7463 8.86349C3.76567 8.86084 3.96766 8.78669 4.17869 8.8C4.33667 8.80955 4.49325 8.83528 4.64597 8.8768C4.91136 8.94669 5.24143 9.08518 5.45502 9.1642C5.51194 9.18613 5.56766 9.22505 5.60862 9.24049C5.77178 9.30398 5.77818 9.30398 5.87401 9.32079C5.98665 9.33632 6.10185 9.29877 6.22225 9.27292C6.36979 9.24049 6.62221 9.22496 6.84356 9.19262C6.91514 9.1827 6.98574 9.16668 7.05459 9.14475C7.05459 9.14475 6.87855 9.32079 6.45649 9.38419C6.28589 9.4101 6.11253 9.41228 5.94133 9.39068C5.80668 9.37771 5.71742 9.35825 5.65009 9.33888C5.57372 9.31686 5.41705 9.25858 5.22419 9.21088C5.08954 9.17589 4.93935 9.15004 4.76723 9.1177C4.34261 9.03996 3.88198 8.95019 3.7178 8.86349Z" fill="#252211"/>
  <path fill-rule="evenodd" clip-rule="evenodd" d="M3.24139 8.0634C3.13899 8.1501 3.03036 8.23305 2.92429 8.31326L2.60454 8.55893C2.49583 8.63915 2.38967 8.72201 2.28087 8.8023C2.17207 8.8826 2.06345 8.95889 1.94807 9.0327C2.05047 8.94601 2.1591 8.86571 2.26782 8.78677C2.37653 8.70784 2.48926 8.63044 2.59413 8.5504L2.91388 8.30438C3.02387 8.22417 3.13003 8.14106 3.24139 8.0634ZM2.67571 8.96964C2.67571 8.96964 2.79091 8.87381 2.93461 8.73924C3.11322 8.57233 3.33201 8.35866 3.4019 8.31991L2.67571 8.96964Z" fill="#CFB66C"/>
  <path fill-rule="evenodd" clip-rule="evenodd" d="M2.67571 8.96964C2.73271 8.91273 2.79356 8.857 2.8544 8.80256L2.94758 8.72235C2.97609 8.69675 3.00851 8.66799 3.03693 8.63949C3.09385 8.58257 3.14957 8.52164 3.20649 8.46345C3.2347 8.43418 3.26452 8.40652 3.29583 8.38059C3.31148 8.36674 3.32886 8.35498 3.34754 8.3456C3.36316 8.33655 3.37997 8.32 3.4019 8.3171C3.38901 8.33655 3.37348 8.3456 3.36051 8.36241C3.34498 8.37538 3.33201 8.39091 3.31913 8.4038C3.29062 8.4323 3.25828 8.45815 3.22978 8.4841C3.16894 8.53589 3.10554 8.5865 3.04469 8.64068C2.98385 8.69487 2.92693 8.75332 2.86601 8.80768C2.80004 8.8634 2.7392 8.91759 2.67571 8.96964ZM3.44986 8.45175C3.44986 8.45175 3.02788 8.86477 2.9411 8.93201L3.44986 8.45175Z" fill="#CFB66C"/>
  <path fill-rule="evenodd" clip-rule="evenodd" d="M3.44986 8.45175C3.4119 8.4957 3.3712 8.53719 3.328 8.576L3.2 8.69769C3.15861 8.73907 3.1197 8.78054 3.07575 8.82193C3.03044 8.86076 2.98906 8.89873 2.9411 8.93457L3.06534 8.81289C3.10682 8.7715 3.15213 8.7366 3.19616 8.69513L3.32041 8.57344C3.36307 8.53077 3.40454 8.4893 3.44986 8.45175ZM3.46923 8.67567C3.43033 8.78423 3.3845 8.89017 3.33201 8.99285C3.2233 9.21037 3.06022 9.48215 2.98897 9.62074L3.46923 8.67567Z" fill="#CFB66C"/>
  <path fill-rule="evenodd" clip-rule="evenodd" d="M3.46923 8.67567C3.46923 8.72354 3.45626 8.7651 3.44073 8.80649C3.42559 8.84791 3.40833 8.88852 3.38901 8.92817C3.36956 8.967 3.34754 9.00847 3.32553 9.04602C3.30351 9.08356 3.27765 9.1223 3.2582 9.16122L3.12747 9.39162C3.08215 9.46842 3.03812 9.54564 2.99025 9.61946C3.02259 9.5366 3.06662 9.45894 3.1081 9.38257C3.15341 9.30577 3.19479 9.22897 3.2361 9.14952C3.25626 9.10994 3.2744 9.06935 3.29045 9.02792C3.30982 8.98645 3.32919 8.94763 3.34481 8.91008C3.36418 8.86869 3.37971 8.82978 3.39917 8.79232C3.4211 8.75213 3.43945 8.71322 3.46923 8.67567Z" fill="#CFB66C"/>
  <path fill-rule="evenodd" clip-rule="evenodd" d="M3.93011 9.73722C3.93011 9.73722 3.80211 9.90677 3.81491 10.1216C3.84981 10.0091 3.89385 9.83689 3.93011 9.73722ZM4.0518 9.9072C4.0518 9.9072 4.00649 10.368 3.96894 10.5946C4.02202 10.3327 4.03234 10.3547 4.0518 9.9072ZM4.89967 10.6218C4.89967 10.6218 4.7081 11.185 4.70417 11.3415C4.74564 11.1805 4.82586 10.8522 4.89967 10.6218Z" fill="#DEC270"/>
  <path fill-rule="evenodd" clip-rule="evenodd" d="M5.34758 9.7024C5.34758 9.7024 5.65828 10.215 5.89133 10.6525C5.82827 10.4323 5.6832 10.0285 5.34758 9.7024Z" fill="#CBAF59"/>
  <path fill-rule="evenodd" clip-rule="evenodd" d="M6.18257 10.457C6.35316 10.7585 6.50699 11.0693 6.64337 11.3877C6.61752 11.1677 6.54754 10.791 6.18257 10.457Z" fill="#E3C677"/>
  <path fill-rule="evenodd" clip-rule="evenodd" d="M8.63693 11.2128C8.68864 11.1805 8.79096 11.0043 8.8803 10.9604C8.96956 10.9151 9.03689 10.906 9.11718 10.8167C9.1974 10.7234 9.21958 10.6665 9.39546 10.5928C9.64147 10.4865 9.47226 10.3493 9.47226 10.3493C9.49936 10.3227 9.52833 10.2981 9.55895 10.2756C9.62244 10.2277 9.69617 10.1694 9.68977 10.0671C9.68073 9.895 9.64838 9.64514 9.50724 9.50016C9.64446 9.47166 9.9072 9.45229 10.0704 9.4109C10.2594 9.36294 10.3462 9.29562 10.3462 9.29562C10.3462 9.29562 10.2374 9.11053 10.4135 8.92416C10.5895 8.73779 10.7332 8.62643 10.8394 8.41796C10.7177 8.40243 10.5322 8.33775 10.0588 8.51763C10.0843 8.52966 10.109 8.54349 10.1326 8.55902C10.1326 8.55902 9.84132 8.63932 9.73517 8.72866C9.55 8.88525 9.5267 9.01342 9.32608 9.10925C9.12546 9.20508 8.92348 9.17914 8.75657 9.25679C8.58965 9.33444 8.56499 9.40049 8.50406 9.42899C8.51704 9.44452 8.5015 9.47038 8.52608 9.4924C8.51055 9.51441 8.41993 9.66195 8.32802 9.66195C8.33707 9.69694 8.41472 9.7228 8.41472 9.7228C8.41472 9.7228 8.3578 9.76427 8.21282 9.77459C8.28655 9.85139 8.35652 9.93511 8.54938 10.0568C8.53385 10.0891 8.46908 10.1371 8.49502 10.1979C8.52352 10.2588 8.59742 10.3416 8.89242 10.409C8.74223 10.4154 8.56627 10.4503 8.32922 10.418C8.09233 10.3895 8.0535 10.3727 7.90724 10.409C7.92277 10.4245 7.96416 10.4245 8.00043 10.4659C7.9616 10.4684 7.71823 10.4374 7.63537 10.5462C7.54867 10.6587 7.51113 10.8439 7.51761 10.9681C7.4723 10.9902 7.42827 11.029 7.45028 11.1093C7.4723 11.1896 7.5875 11.2154 7.66131 11.2659C7.73504 11.3202 7.74153 11.3396 7.8115 11.3267C7.88523 11.3112 7.99394 11.2375 8.05743 11.2375C8.12092 11.2375 8.16614 11.2853 8.16614 11.2853C8.16614 11.2853 8.33835 11.2025 8.35516 11.218C8.37069 11.2335 8.35772 11.3332 8.37453 11.3487C8.3916 11.3604 8.58513 11.2452 8.63693 11.2128Z" fill="#ECD592"/>
  <path fill-rule="evenodd" clip-rule="evenodd" d="M12.4 6.03238C11.591 3.94308 9.59095 3.55601 9.59095 3.55601H3.8848L3.90682 5.68414H5.0432V10.4363H3.88471V12.5606H9.433C10.7702 12.5606 11.842 11.2168 11.842 11.2168C13.5585 8.78063 12.4 6.03238 12.4 6.03238ZM9.46278 9.78509C9.46278 9.78509 9.02758 10.413 8.55407 10.413H7.60687L7.58443 5.68934H8.8C8.8 5.68934 9.3632 5.8071 9.75667 6.92164C9.75667 6.92164 10.2783 8.51738 9.46278 9.78509Z" fill="white" fill-opacity="0.8"/>
</svg>
