<svg viewBox="0 0 16 16" fill="none" xmlns="http://www.w3.org/2000/svg"><g clip-path="url(#a)"><path d="M8 16A8 8 0 1 0 8 0a8 8 0 0 0 0 16z" fill="#988430"/><path d="M8 15.744A7.744 7.744 0 1 0 8 .256a7.744 7.744 0 0 0 0 15.488z" fill="#7A6A2A"/><path d="M8 15.58A7.58 7.58 0 1 0 8 .42a7.58 7.58 0 0 0 0 15.16z" fill="#BA9F33"/><path fill-rule="evenodd" clip-rule="evenodd" d="M3.498 7.146c-.046-.042-.093-.083-.137-.125l-.135-.124-.135-.128-.067-.063-.07-.061-.535-.509c.183.167.362.333.544.502l.064.064.067.063.135.124c.045.042.089.083.134.128.045.046.09.087.135.129zM1.126 7.12s.65.067.967.113c.294.041 1.213.182 1.213.182l-2.18-.295zm0 0c.183.016.365.035.548.054l.272.029.137.015.134.02.544.086.272.046.272.048a6.428 6.428 0 0 1-.272-.035l-.272-.039-.544-.08c-.045-.007-.089-.016-.134-.022l-.137-.016-.272-.032a15.815 15.815 0 0 1-.548-.074zm2.115.464s-.693.177-.928.244c-.23.063-.928.276-.928.276l1.856-.52z" fill="#CFB66C"/><path fill-rule="evenodd" clip-rule="evenodd" d="M3.241 7.584c-.154.046-.307.09-.463.131l-.464.124-.46.135-.23.064c-.077.022-.155.04-.234.063.077-.026.154-.052.23-.074l.231-.074.46-.14c.158-.04.312-.08.468-.118.149-.038.306-.076.462-.11zm-1.759.947c.077-.029.957-.439 1.161-.535.103-.048.4-.153.4-.153l-1.56.688z" fill="#CFB66C"/><path fill-rule="evenodd" clip-rule="evenodd" d="M1.482 8.53c.067-.025.131-.056.196-.086l.191-.09.385-.184c.128-.061.252-.128.384-.186.067-.028.135-.051.202-.073l.102-.033c.035-.009.068-.02.103-.028-.128.06-.263.113-.391.172-.128.063-.259.115-.391.172l-.391.172c-.131.053-.26.11-.39.165zm.086.36s.797-.468 1.071-.618c.144-.08.609-.311.609-.311l-1.68.928z" fill="#CFB66C"/><path fill-rule="evenodd" clip-rule="evenodd" d="m1.568 8.89.409-.253.204-.124.209-.122c.07-.041.137-.083.208-.122.034-.02.07-.039.106-.054l.11-.054c.143-.07.287-.142.438-.202-.137.086-.278.16-.42.236-.07.04-.14.074-.21.113-.07.039-.138.08-.209.118-.07.041-.137.08-.208.118l-.211.115-.426.23zm1.673-.827s-.495.381-.656.503c-.16.121-.633.463-.633.463l1.29-.966z" fill="#CFB66C"/><path fill-rule="evenodd" clip-rule="evenodd" d="m6.087 11.133-.254-.48.148-.601 1.052-.407-.448-.919.221-.928.416-.831 1.284-.202.944-.9 2.037.154.4 2.18-.77 2.742-.439 1.42-1.778.067-.826-.572-.967-.404-1.02-.32z" fill="#E2CC85"/><path fill-rule="evenodd" clip-rule="evenodd" d="M9.207 11.117s-.246.113-.666.087c-.122-.163-.972-.24-.972-.24s-.106-.032-.294.046c-.189.076-.367.067-.534.108-.167.042-.333-.176-.461-.22-.128-.049-.298-.164-.298-.164l-.358-.035-.72-.304-1.143-1.14-.311.487-.096.602.346.713.93.848 1.815.461 1.076-.317 1.348-.57.338-.362z" fill="#F1D789"/><path fill-rule="evenodd" clip-rule="evenodd" d="m2.759 7.091.23-.697.274-.451.885-.074-.266.774-.739 1.316.307 1.174-.544.272-.167-.257-.134-.587-.01-.66.164-.81z" fill="#F4ECB4"/><path fill-rule="evenodd" clip-rule="evenodd" d="m3.75 11.07-.17-.238s-.045-.112-.019-.21c.026-.1.022-.107.01-.144-.014-.038-.122-.167-.116-.279.006-.112-.009-.15.074-.24.086-.086.06-.236.06-.236l.113.07.026-.039s.041.032.041.083c.01-.07-.028-.394.057-.467.086-.074.237.345.237.345l-.093-.608-.24-.624-.426-.57-.025-.628v-.054s-.196.3-.25.538c-.039.163.054.36.035.595-.016.233-.035.215.022.307.057.093.195.283.141.42-.048.118-.211.035-.211.035s-.032.095-.076.13a.29.29 0 0 0-.064-.128.705.705 0 0 1-.009.052s-.028-.09-.057-.202c-.039-.15-.08-.348-.118-.454-.015.06-.054.246-.054.246l.022.285.106.39.103.257.1.313.086.21.07.16.06.362.294.31.157.07.114-.058z" fill="#F3E19D"/><path fill-rule="evenodd" clip-rule="evenodd" d="M2.913 6.522s-.211.358-.272.72a4.76 4.76 0 0 0-.077 1.234c.039.496.113.8.172 1.018.103.361.368.863.368.863l.009-.02a1.366 1.366 0 0 1-.106-.264c-.035-.138-.048-.3-.08-.375-.03-.073-.077-.137-.1-.227-.022-.087-.026-.224-.093-.327a.661.661 0 0 1-.074-.258c-.013-.164.006-.346-.01-.496-.028-.25-.047-.42-.021-.55.026-.131.16-.503.243-.798.055-.189.022-.348.122-.513.1-.163.16-.306.182-.406.026-.09-.263.399-.263.399z" fill="#F2E8B0"/><path fill-rule="evenodd" clip-rule="evenodd" d="M3.913 6.378s-.108.032-.16.09c-.052.054-.074.099-.144.19-.07.093-.074.168-.13.283-.058.113-.183.282-.199.343-.015.061-.041.346-.074.48-.028.135.033.3.033.3l.074-.015s0 .096.073.16c.074.064.087-.214.087-.214l.276-.93.415-.283.046-.228-.297-.176z" fill="#F5EEC0"/><path fill-rule="evenodd" clip-rule="evenodd" d="M4.115 6.8s-.195.013-.291.083c-.039.028-.054.052-.096.087-.076.063-.154.121-.191.204a1.358 1.358 0 0 0-.118.446c-.013.1-.013.191-.022.272-.013.108-.033.195-.022.256.013.124.14.189.153.33l.266-.135.25-.985.53-.333-.3-.336-.159.111z" fill="#E6DB9D"/><path fill-rule="evenodd" clip-rule="evenodd" d="m2.715 13.434.003-.03c.04-.332.046-.585.074-.742.042-.224.07-.308.064-.392-.01-.134-.02-.232-.007-.336.02-.137.154-.3.15-.413-.002-.09-.048-.148-.086-.202-.04-.054-.07-.1-.07-.1s.265-.182.263-.917l.015.006.13.372.09.108.343.64.442.428.652.44.41.444.04 1.187-.534.694-.088.159a7.603 7.603 0 0 1-1.89-1.346z" fill="#E5CB7A"/><path fill-rule="evenodd" clip-rule="evenodd" d="M4.348 14.57s.01-.148.131-.244c.02.032.032.064.028.087a.772.772 0 0 1 .525-.352c.348-.064.432-.317.432-.317l.74-.672.845-.778 1.027-.361.48-.118s.01.035-.008.113c.089-.007.287-.052.493-.125.083-.032.16-.045.202-.002.06.057.07.191.074.271.1-.022.214-.117.307-.108.147.015.278.189.428.189.198 0 .288-.122.426-.218.083-.057.202-.128.27-.176.16-.118 1.858-.637 1.858-.637l.596.04.096.639-.052 1.671-.019.019-2.707 1.414-3.753.575a7.528 7.528 0 0 1-2.4-.825l-.019-.085z" fill="#D8C173"/><path fill-rule="evenodd" clip-rule="evenodd" d="M2.943 13.647c.053-.112.101-.205.11-.239.006.068.018.215.043.372a8.177 8.177 0 0 1-.153-.133z" fill="#F1D789"/><path fill-rule="evenodd" clip-rule="evenodd" d="m5.684 15.22.486-.135.041.013s.022.013.022.057c.06-.035.113-.029.15-.052.02.041.039.179.124.195.09.02.186-.038.283-.112.095-.076.204-.172.287-.211.03.056.057.113.08.172.109-.087.298-.439.567-.433.078-.183.208-.34.374-.451.25-.17.407-.183.602-.167.078-.101.173-.187.282-.253.033.013.122.068.233.016.113-.052.24-.252.407-.278a.393.393 0 0 1 .259.054s.486-.483.822-.643c-.013-.04-.04-.186.354-.51.022.02.007.075.022.078a.917.917 0 0 0 .224-.135c.15-.113.33-.23.439-.263.205-.06.422.064.422.064a.197.197 0 0 1 .06-.029c.053-.009.09-.015.119-.025-.003.067.035.182 0 .282.04.022.083.04.128.054-.022.048-.07.17-.15.228.067.032.076.07.172.102a1.901 1.901 0 0 0-.131.205c-.028.061-.13.313-.176.41-.048.095-.113.271-.144.306-.031.036-.143.185-.23.26.077-.03.39-.125.524-.161l-.434.643a7.598 7.598 0 0 1-6.218.72v-.001z" fill="#E0CD81"/><path fill-rule="evenodd" clip-rule="evenodd" d="M4.147 6.765s-.112 0-.134.016c-.022.015.112.048.154.063.041.016.13.087.154.144.022.054.809.371.809.371l.556-.028.192-.265-.365-.32.256-.755-.339.055-.815.486-.41.157-.058.076z" fill="#DFC57C"/><path fill-rule="evenodd" clip-rule="evenodd" d="M5.37 7.015a.087.087 0 0 0 .076.041c.116 0 .222.029.266.087.074.093.278.391.278.391l.49.176.03-.576-.534-.372-.608.224v.029h.002z" fill="#E5CC7C"/><path fill-rule="evenodd" clip-rule="evenodd" d="M5.274 7.229s.089.006.202-.035c.112-.042.297-.131.378-.096.112.048.089.198.21.333.074.082.209.08.285.17.077.089.34.047.34.047l.1.538-.4.512-.132.637h-.54l-.495-.196-.243-.589.122-.595.173-.726z" fill="#D2C281"/><path fill-rule="evenodd" clip-rule="evenodd" d="M6.32 7.254a.146.146 0 0 0 .041.007c-.015.013-.048.041-.035.115.013.074.055.167.02.224a.28.28 0 0 1 .06.106c.022.064.029.122.173.13a.303.303 0 0 0-.057.046s.1.087.15.167c.052-.002.189-.045.189-.045l.028.02.061-.026s-.057-.022-.015-.16c.038-.122.073-.116.076-.125.003-.009.029-.137.029-.189.02-.067.035-.271.035-.271L7.033 6.8 6.8 6.66l-.189-.183-.179.336-.117.118-.01.29.015.033z" fill="#E2C270"/><path fill-rule="evenodd" clip-rule="evenodd" d="M6.88 6.876s.042.118.057.209a.2.2 0 0 0 .01-.055s.032.18.038.253c.013-.003.026-.007.029.006.002.013.032.157.025.237a.645.645 0 0 1 .218-.217.38.38 0 0 1 .176-.07c.1-.003.172.063.291.063.287 0 .548-.21.74-.275.14-.048.262-.083.347-.161a.91.91 0 0 0 .183-.228c.09-.153.182-.287.276-.304a.579.579 0 0 1-.128.01s.028-.03.076-.068c.049-.04.107-.087.19-.087.147 0 .22.022.304.022.082-.003.13-.022.13-.022s.087.06.282.06c.196.003.327.02.429.03.102.009.445-.03.544-.026a.476.476 0 0 1 .185.045l-.317-.921-1.14-.996-.678.48-1.043 1.043-1.01.374-.211.237v.361H6.88z" fill="#CCB360"/><path fill-rule="evenodd" clip-rule="evenodd" d="M9.146 6.348s.028-.028.076-.067c.048-.039.106-.087.189-.087.148 0 .221.022.304.022a.412.412 0 0 0 .13-.022s.088.06.283.06c.196.003.326.02.429.03.102.008.445-.03.543-.026a.474.474 0 0 1 .185.045l-.143-.416-.167-.317-.477-.521-.576-.34c-.002-.002-.198-.054-.198-.054l-.518.313-.47 1.216-.008.256.304.144c.076-.128.16-.23.24-.244-.072.008-.126.008-.126.008z" fill="#D5B457"/><path fill-rule="evenodd" clip-rule="evenodd" d="M9.14 6.435c-.046.003-.084-.006-.094-.039-.039-.109-.07-.124-.102-.124-.033 0-.077.07-.103.076-.026.007-.057-.08-.057-.08l-.028-.013s-.167.109-.285.237c-.118.128-.31.346-.397.384-.087.04-.385.052-.487.074a.63.63 0 0 0-.23.113c-.016.017.045.035.054.051.01.016-.1.01-.109.026-.006.013.026.087.042.124a.211.211 0 0 1 .09-.022c.099-.002.171.064.29.064.288 0 .548-.211.74-.276.14-.048.262-.083.348-.16a.915.915 0 0 0 .182-.228c.05-.08.097-.153.145-.207z" fill="#D2B257"/><path fill-rule="evenodd" clip-rule="evenodd" d="M5.018 12.841s-.026-.095-.263-.343c-.068-.07-.109-.128-.154-.17-.113-.105-.179-.134-.26-.195-.175-.13-.367-.13-.514-.29-.148-.161-.32-.468-.44-.781a5.247 5.247 0 0 1-.15-.422c0-.01.033-.07.074-.061.042.009.042.089.052.108.02.032.044.062.07.09.06.07.148.153.192.278a1.26 1.26 0 0 0-.046-.224s.228.144.422.294c.196.15.276.202.333.298.057.095.192.348.256.422.065.073.947.352.947.352l.42.313.209.457-.163.256-.314.067-.508-.228-.163-.22z" fill="#D2B159"/><path fill-rule="evenodd" clip-rule="evenodd" d="M3.887 11.267s.107.17.365.33c.233.142.602.27.931.346.19.045.378.08.548.083.457.006.771-.124 1.16-.167.212-.022.47-.039.74-.102.346-.083.55-.177.829-.308.201-.093.387-.163.537-.252.21-.124.365-.263.544-.304-.022.06-.046.17-.222.282l.222-.009s-.125.074-.344.24c-.134.102-.313.275-.495.39-.118.074-.246.128-.33.173-.205.112-.288.17-.422.307a.187.187 0 0 1 .051 0s-.17.022-.29.086c-.026 0-.07-.009-.149.013-.06.02-.14.064-.223.087-.118.035-.157.02-.157.02l.02.038s-.154-.002-.205.003c.009.002.006.006.006.006a.078.078 0 0 0-.026.01.27.27 0 0 1-.08.034c-.015.003-.028.003-.048.007.007.015.057.102.08.153-.019.013-.31.233-.31.233.009.015.016.03.022.046.009.028.013.07.022.09.022.038.035.044.035.044l-.096.022c-.052.013-.115.035-.205.048a.82.82 0 0 1-.083.007c.013.028.07.137-.035.262-.105.126-.137.144-.17.225a.342.342 0 0 0-.051-.033c-.035-.015-.083-.039-.1-.07a.834.834 0 0 1-.039.122c-.032.087-.08.172-.089.237-.035-.04-.1-.115-.189-.1-.09.016-.16.137-.176.172 0-.022-.015-.039-.02-.013a.984.984 0 0 1-.325.567c-.003-.06-.003-.195-.01-.24-.025.026-.056.064-.243.144-.182.08-.153.161-.153.161s-.016-.128.082-.263c.1-.134.16-.198.16-.208a.058.058 0 0 0-.012-.029c-.013-.013-.039-.028-.039-.039.016-.006.17-.08.16-.233a.413.413 0 0 0-.108-.258c-.006-.007.06-.055.052-.07-.007-.01-.09-.07-.1-.103a.298.298 0 0 1 .013-.057c.01-.028.016-.047.013-.067a.536.536 0 0 0-.052-.13c.01.002.074 0 .074 0s-.052-.083-.06-.122c-.01-.04-.03-.141-.04-.16.022.002.077.006.077 0 .002-.02-.048-.053-.026-.078.016.003.045.016.074.052-.016-.041-.042-.121-.096-.154a.235.235 0 0 1 .189.013c.076.045.102.109.102.109l.116.087c.08.063.182.153.345.217.035.02.124.02.19.006a.29.29 0 0 0 .08-.032.149.149 0 0 1 .028-.013.622.622 0 0 0-.048-.08l.048.002s.015-.035-.054-.102c.015-.015.035-.026.035-.052-.022-.002-.061-.035-.07-.048.013-.009.032-.038.054-.048-.02-.015-.067-.08-.09-.086a.402.402 0 0 0 .062-.029s-.11-.028-.144-.052c-.035-.025-.087-.07-.118-.082-.032-.013-.09-.02-.113-.046.022.007.057 0 .083 0 .02 0 .029.003.035.003-.002-.01-.002-.029.048-.035a.235.235 0 0 0 .07-.022s-.048-.003-.102-.054c-.055-.052-.1-.094-.131-.1-.032-.007-.093.022-.13.02-.053-.007-.075-.033-.075-.033s-.172.015-.554-.217c-.33-.202-.473-.381-.473-.381a.565.565 0 0 1-.09-.041c-.124-.065-.296-.2-.291-.376v.001z" fill="#C2A44D"/><path fill-rule="evenodd" clip-rule="evenodd" d="M8.65 3.498c.03.01.056.027.077.052.06.07.1.201-.04.343.055.019.078.025.125.019-.048.057-.157.179-.163.285-.007.086.048.112.048.112s-.083.096-.087.256c.04-.044.082-.084.128-.121a3.4 3.4 0 0 1 .317-.218.182.182 0 0 0 .01.068s.166-.138.307-.077c.063.029.034.118.034.118s.087-.032.148.029c.06.06.147.217.191.278.02.029.07.083.122.167.07.118.13.242.176.372.002-.068.02-.173.21-.107.192.068.41.209.592.487.183.278.228.592.32.711.093.115.189.307.196.387.006.08-.029.34.163 1.04.054-.218.137-.7.137-.7l.045-.427.052-1.318-1.376-1.143-1.076-.78-.7.067.044.1z" fill="#CAA13E"/><path fill-rule="evenodd" clip-rule="evenodd" d="M11.207 5.459s-.02-.128-.344-.346c-.323-.215-.576-.215-.809-.397-.178-.144-.365-.474-.486-.583-.118-.107-.137-.418-.137-.418l.397-.333.591-.854.5-.55.24.333.332.39.185.785.067 1.148-.537.825z" fill="#B59544"/><path fill-rule="evenodd" clip-rule="evenodd" d="M11.607 6.835a1.459 1.459 0 0 0-.064-.515 9.46 9.46 0 0 0-.358-.913c-.035-.196-.01-.211.028-.233.038-.022.179-.102.256-.385.078-.282.317-.29.317-.29l.148-.11.224.561.195.506.061.387.045.33-.106.698-.524.474-.223-.51z" fill="#C89D3A"/><path fill-rule="evenodd" clip-rule="evenodd" d="M4.291 14.612v-.014a.112.112 0 0 0 .029-.026c.009-.012.015-.028.022-.032a.243.243 0 0 1 .106-.02c.032.007.118.042.163.04.093-.003.202-.074.374-.042.26.048.32.224.47.324.103.07.208.038.224.038h.035c.006 0 .054-.054.08-.051.052.002.057.045.09.048.076.009.223-.04.297-.02a.143.143 0 0 1 .058.237c-.08.074-.156.144-.172.205.02.015.04.031.057.048a7.54 7.54 0 0 1-1.833-.735z" fill="#CEB052"/><path fill-rule="evenodd" clip-rule="evenodd" d="M11.184 12.026s.202-.27.272-.403c.07-.137-.221-1.878-.221-1.878l.585-1.917-.015-.624s.028-.576.095-.826c.08.144.33.317.385.41.025-.177.112-.548.1-.945.047.074.163.816.163.816l.115.5.15.53.167.56.1.388.057.093.047.163.046.176.13.413.077.34.061.614a.934.934 0 0 1 .029.144c.002.067-.01.106-.01.118 0 .012.023.147.014.25-.013.102-.013.182-.094.256-.08.073-.13.512-.13.512l-.144-.095s.028-.131-.039-.25a.252.252 0 0 0-.272-.125c-.074.016-.221.04-.269.08-.045.042-.157.17-.259.229-.128.076-.336.082-.448.108-.112.026-.237.103-.367.192a2.051 2.051 0 0 1-.325.17z" fill="#CCA847"/><path fill-rule="evenodd" clip-rule="evenodd" d="m11.184 14.854.026.015a7.603 7.603 0 0 0 2.423-1.796c-.007-.262-.017-.53-.028-.63-.022-.211-.006-.426-.013-.55a8.004 8.004 0 0 0-.108-.762c-.035-.13-.103-.195-.113-.195-.009.002-.063.246-.063.307s-.013.209-.013.246c-.01-.003-.013-.026-.013-.035-.013.032-.029.09-.035.096-.007.006.009-.054 0-.067-.01-.013-.026-.007-.022-.04a.376.376 0 0 1 .009-.056s-.04.057-.068.202c-.028.143-.028.147-.038.16-.01.016-.061.068-.064.087-.002.035.048.07.052.09.002.032-.045.182-.06.255-.016.074-.01.218-.026.292-.013.067-.026.106-.07.134a.867.867 0 0 1 .063.016s.045.191-.07.354c-.041.057-.051.083-.096.135-.086.096-.154.205-.16.276a.471.471 0 0 1-.01-.064s-.134.157-.19.246c-.075.115-.177.109-.206.137-.028.029-.035.08-.025.122-.026.007-.074.016-.106.115a.243.243 0 0 1-.116.138c-.06.034-.134.045-.172.054.033.009.046.009.061.02-.02.032-.109.082-.208.147-.1.06-.148.15-.172.208-.026.055-.064.09-.125.096.026.016.064.052.083.064-.028.006-.077.006-.163.08-.09.075-.122.097-.164.103z" fill="#C39D3C"/><path fill-rule="evenodd" clip-rule="evenodd" d="M9.383 15.454a.728.728 0 0 1 .16-.084c.202-.08.416-.096.5-.122.08-.026.143-.061.243-.08l-.007.064a7.533 7.533 0 0 1-.896.222z" fill="#D2BA6B"/><path fill-rule="evenodd" clip-rule="evenodd" d="M13.107 10.144s-.041.224-.115.365c-.074.14-.154.336-.154.336a.62.62 0 0 1 .016-.13c-.093.054-.32.185-.384.243-.06.054-.163.15-.19.195.062-.178.125-.339.136-.412a8.314 8.314 0 0 0-.755.662l-.706.571a2.42 2.42 0 0 1-.25.118c-.122.051-.266.095-.372.137a.589.589 0 0 1 .137-.208c.067-.064.27-.283.3-.385.029-.106.035-.17-.002-.258-.035.009-.116.012-.17.028-.054.016-.113.074-.113.074s.042-.237.131-.461c-.067.003-.182.022-.182.022s.16-.27.435-.457a1.411 1.411 0 0 0-.246.076c-.16.068-.337.167-.467.222.073-.103.591-.842.9-1.53.307-.688.421-.864.489-1.233.035-.182.025-.452.035-.694.009-.24.038-.454.019-.598.08.1.38.38.39 1.009.01.628-.286 1.476-.601 1.932.077.022.276.048.48-.307.205-.355.202-.454.276-.602.01.074.006.1.006.1s.298-.361.44-.816c.028.196.112.368-.02.727-.118.323-.272.402-.272.402s.076-.013.189-.08c.02.048.016.102.048.122.032.019.076.052.083.083.035-.052.09-.118.106-.167-.013.102-.022.55.026.778.1-.01.202-.016.271-.196a.802.802 0 0 0-.015.432c.053-.036.101-.1.101-.1z" fill="#C0993A"/><path fill-rule="evenodd" clip-rule="evenodd" d="M9.744 3.008s-.1.042-.27.042c-.147 0-.106-.057-.336-.057-.355 0-1.594.205-1.811.202-.141-.003.476.06.476.06l1.578.023.317-.026.118-.24-.072-.004z" fill="#A88F33"/><path fill-rule="evenodd" clip-rule="evenodd" d="M5.652 6.093s-.202.154-.288.272c-.085.118-.13.196-.227.291a.199.199 0 0 0 .067-.009s0 .026-.016.033a.09.09 0 0 1 .074.025c-.028.016-.106.094-.045.185.045.07.14.077.14.077s-.021.063.07.057c.199-.01.42-.096.522-.074.103.025.161.035.233.16.077.125.144.144.144.144s.046-.115.035-.287a.855.855 0 0 0 .061-.291l-.067-.496-.294-.372-.38.211-.03.074z" fill="#E3C571"/><path fill-rule="evenodd" clip-rule="evenodd" d="M6.013 6.02s.028.067.148.073c-.013.029-.013.033-.01.054l.007.055a.12.12 0 0 0 .035-.026c.006.029-.007.074 0 .106.004.02.01.04.02.057a.113.113 0 0 1 .006-.013c.002-.006.025.07.09.128-.001-.008.001-.017.005-.025a.09.09 0 0 0 .016.045.047.047 0 0 1-.013-.009s.007.205.042.31a.146.146 0 0 0 .015-.021c0-.007-.002.057-.009.102-.009.046-.003.109-.003.109a.34.34 0 0 1 .077-.045c.039-.016.102-.064.14-.17.023-.06.04-.122.053-.185.012.024.02.05.025.077.003.032.064.015.064.015l.013-.141.077-.32.07-.198.336-.524.608-.468.53.121.449-.608-.772-.463-.73.076-.663.918-.53.832-.096.137z" fill="#D8B65B"/><path fill-rule="evenodd" clip-rule="evenodd" d="M9.837 4.691s-.045.01-.176.077c-.13.068-.222.09-.272.189-.05.1-.054.179-.054.179s.089-.04.14-.052c.055-.013.116-.01.11.013a.15.15 0 0 1-.026.041s.102-.002.1.048a.267.267 0 0 1-.04.131c-.019.026-.099.063-.108.093-.022.061.01.064-.003.113-.009.048-.051.14-.191.304-.144.163-.205.278-.205.278s-.07-.13-.106-.243c-.026.013-.163.09-.163.09l-.319-1.11.007-.074s.028-.035.035-.1c-.048-.015-.055-.028-.118-.089-.064-.06-.115-.135-.221-.185-.016-.029-.035-.067-.113-.083-.078-.015-.124-.028-.124-.028s.041-.016.06-.048c-.047.006-.086.022-.191.02-.106-.003-.118-.007-.176.002-.058.009-.128.035-.154-.055-.029-.022-.09-.002-.141.074-.052.076-.07.137-.17.167a.347.347 0 0 1-.045.124c-.029.048-.074.096-.135.167-.096.113-.08.298-.233.44-.154.14.026-.392.026-.392l.246-.589.7-.684 1.088-.074.106.563.53.183.336.51z" fill="#D3AE4D"/><path fill-rule="evenodd" clip-rule="evenodd" d="m10.01 4.816-.458-.66-.32-.245s-.227-.42-.243-.433a3.013 3.013 0 0 0-.365-.041l.026.063c.03.01.056.028.076.052.061.07.1.202-.038.343.054.02.076.026.124.02-.048.057-.157.178-.163.284-.007.087.048.113.048.113s-.083.096-.087.256c.039-.044.082-.085.128-.122.096-.077.228-.163.317-.217a.183.183 0 0 0 .01.067s.166-.137.306-.076c.064.028.035.118.035.118s.087-.033.148.028c.06.06.147.218.191.278.02.029.07.083.122.167.07.118.13.243.176.372.003-.052.013-.124.103-.124l-.137-.243z" fill="#CAA13E"/><path fill-rule="evenodd" clip-rule="evenodd" d="M3.159 6.687s-.033-.08 0-.236c.032-.157.082-.23.1-.461.016-.23.166-.518.166-.518l.416-.189.294.08.086.394-.371.205s-.02.086-.124.156c-.105.07-.25.124-.285.196a.57.57 0 0 0-.045.137s-.107-.022-.17.048c-.067.071-.065.134-.067.188z" fill="#F4EFC8"/><path fill-rule="evenodd" clip-rule="evenodd" d="M3.997 6.583s-.035.022-.06.076c-.026-.041-.087-.287-.09-.508-.002-.222-.016-.277.036-.353.05-.076.252-.157.223-.294-.028-.13-.147-.185-.294-.148-.102.026-.178.244-.284.353-.08.082-.177.07-.202.115-.035.06-.003.121-.013.16a.775.775 0 0 1-.094.167c-.117.17-.317.41-.343.624.01-.121.003-.124.035-.259l-.02-.032.129-.42.083-.345.185-.579.326-.591.317-.355.33.022.04.496.188.93.398.49-.637.429-.253.022z" fill="#EBCC73"/><path fill-rule="evenodd" clip-rule="evenodd" d="M4.196 6.758s-.055.013-.074.003c-.02-.01-.04-.022-.033-.035.007-.013.042-.035.042-.045a.036.036 0 0 0-.033-.04c-.03-.003-.038.016-.038.016s-.029-.021-.052-.025a.36.36 0 0 1 .041-.003.404.404 0 0 0-.112-.032c.032-.02.095-.077.137-.077.041 0 .067-.006.06-.028-.006-.022-.038-.054-.073-.067.013-.016.022-.04-.01-.103s-.019-.106-.008-.121c.009-.02.041-.055.057-.077.015-.022.028-.051.054-.067a.682.682 0 0 1 .096-.041C4.295 6 4.333 5.98 4.359 6c.028.02.015.045.015.045s.09-.032.17.01c.08.038.276.063.276.063l.07.141-.464.397-.191.096-.04.006z" fill="#E5C66B"/><path fill-rule="evenodd" clip-rule="evenodd" d="M4.839 6.109s-.144.096-.176.13c.02.003.051.016.039.035-.016.02-.11.087-.161.15a.99.99 0 0 0-.124.183.656.656 0 0 1-.218.15c.106 0 .32-.13.4-.13-.002.038.022.082.068.086.045.004.176.029.352-.08.176-.106.118-.185.191-.237.141-.093.198-.176.276-.228.078-.051.118-.063.118-.063s.002-.039.025-.035a.035.035 0 0 1 .029.022s.135-.096.307-.122a.018.018 0 0 1-.009-.009s.013-.006.016-.013c0 0 .009-.013.015-.006.007.006.016.054.029.074.028-.013.083-.135.083-.135l.13-.374v-.342l-.102.02-.768.326-.466.483-.054.115z" fill="#E6BD62"/><path fill-rule="evenodd" clip-rule="evenodd" d="M7.05 4.432a.434.434 0 0 0 .118-.048c-.016.042-.016.087-.083.186-.067.098-.07.112-.124.214-.054.107-.061.26-.113.327a.237.237 0 0 1 .074-.022s-.052.045-.074.093-.06.147-.156.208-.218.1-.349.244c-.13.14-.265.32-.332.384a.959.959 0 0 0 .095-.263c.013-.08-.002-.176.02-.282.022-.106.022-.183.128-.368.106-.185.287-.828.287-.828l.391-.125.118.28z" fill="#B6933F"/><path fill-rule="evenodd" clip-rule="evenodd" d="M6.768 4.196s-.118.17-.15.32c-.033.15-.003.136-.022.21a.275.275 0 0 0 0 .137.487.487 0 0 1 .162-.16c.112-.067.202-.115.256-.172.055-.061.1-.16.218-.237-.048-.007-.115-.029-.128-.026.048-.054.191-.137.336-.237.144-.102.135-.143.368-.246-.076.013-.113-.006-.176 0 .026-.054.115-.08.205-.17.09-.088-.057-.22-.057-.22l-.683.412-.33.389z" fill="#C49937"/><path fill-rule="evenodd" clip-rule="evenodd" d="m4.915 3.887.016-.124.195-.313.205-.55v-.752l-.016-.435.033-.285.024-.09.026-.036.167.087.23.313.023.605-.224.954-.64.698-.039-.072z" fill="#DFC068"/><path fill-rule="evenodd" clip-rule="evenodd" d="M5.424 1.267s-.102.003-.124.429c-.022.426-.033.65-.048.86-.016.212-.052.34-.07.464-.018.124-.029.294-.087.398-.025.047-.08.198-.208.31a1.285 1.285 0 0 1-.391.218c-.057.013-.346.041-.464.106-.041.022-.112.048-.191.122a2.445 2.445 0 0 0-.515.697c-.23.455-.461 1.737-.461 1.737l.052-.086s.006-.115.121-.317c.113-.202.08-.429.237-.816.06-.147.137-.34.23-.502.148-.266.327-.493.507-.618.293-.202.617-.246.617-.246l.348-.23s.061-.118.142-.252c.112-.19.256-.4.287-.707.048-.455-.067-.752-.061-1.022.007-.269.01-.467.064-.515.054-.048.015-.03.015-.03z" fill="#A88F33"/><path fill-rule="evenodd" clip-rule="evenodd" d="M5.424 3.3s.154-.378.224-.714c.013-.067.039-.134.045-.189.033-.317.042-.447 0-.621-.032-.128-.156-.243-.221-.333-.064-.093-.093-.128-.08-.147a.143.143 0 0 1 .112-.048.385.385 0 0 1 .276.128c.1.115.179.506.179.506l.083.516.21.65-.828.252z" fill="#C99E3D"/><path fill-rule="evenodd" clip-rule="evenodd" d="M6.867 2.906s-.028.013-.08 0a.115.115 0 0 1-.052.109c-.054-.022-.563.022-.563.022s-.237-.042-.31-.355c-.052-.208.038-.496.008-.685-.045-.278-.108-.332-.115-.419-.006-.087-.013-.109-.013-.163-.028-.007-.045-.016-.073-.016-.007-.025.006-.048-.022-.093.015.007.121.02.245.137.103.096.103.131.118.15.02.02.176.154.244.288.067.134.198.56.227.63.01.029.029.057.077.122.075.093.185.248.31.273z" fill="#B58634"/><path fill-rule="evenodd" clip-rule="evenodd" d="M6.029 1.6c.078.127.148.258.21.394.077.172.122.313.218.428-.052-.15-.144-.445-.198-.55-.06-.111-.185-.23-.23-.272z" fill="#A88F33"/><path fill-rule="evenodd" clip-rule="evenodd" d="M5.148 3.728s-.13.033-.374.16c-.08.042-.156.077-.23.11a4.02 4.02 0 0 1-.56.21c.012.016.019.022.019.022s0 .064.035.1c-.02.02-.279.196-.202.785.051-.02.112-.046.121-.046.016.003.02.046.04.046.018 0 .082-.026.15-.113-.003.035-.042.387.166.624.04-.045.137-.196.137-.196l.003-.048s.01-.167.064-.32c.054-.152.16-.265.16-.265l.554-.79-.083-.279z" fill="#E6C367"/><path fill-rule="evenodd" clip-rule="evenodd" d="M4.63 4.89a.306.306 0 0 1-.082.041.32.32 0 0 1 .054-.252c.09-.131.285-.3.34-.436.034-.086.019-.304.33-.582.31-.279.432-.374.432-.374l.502-.253.617.244-.307 1.202-.238.563-.947-.178-.7.025z" fill="#DCBA5A"/><path fill-rule="evenodd" clip-rule="evenodd" d="m4.992 4.563.118-.147V4.31s.13-.035.272-.179c.14-.144.336-.42.508-.403.173.02.19.375.196.474.006.1.028.326.063.448.04.122-.42.583-.42.583l-.31.237-.427-.908z" fill="#E9CE77"/><path fill-rule="evenodd" clip-rule="evenodd" d="M5.357 5.792s.095-.15.025-.183c.042-.093.118-.192.118-.192s.054-.134.23-.3c.176-.166.285-.276.314-.387a1.02 1.02 0 0 0 .028-.221.42.42 0 0 0 .061.041c.029.013.163.124.144.348-.02.224-.103.318-.103.318s-.08.08-.137.121c-.06.042-.083.09-.185.093a.122.122 0 0 1 .035-.019s-.106-.013-.163.039c-.057.052-.178.21-.24.259l-.127.083z" fill="#CDAE50"/><path fill-rule="evenodd" clip-rule="evenodd" d="M9.66 3.274a1.56 1.56 0 0 0-.475-.093c-.272-.01-.67.006-1.06.009-.419.002-.8-.144-1.328-.17-.086-.052-.307-.278-.995.202.041-.003.5-.106.659.093.16.198.115.535.093.615-.041.179-.176.439-.23.621-.055.183-.042.279-.08.407-.04.128-.125.191-.074.339.067-.041.102-.041.214-.294.113-.252.09-.432.276-.646.183-.215.487-.509.602-.582.116-.074 1.033-.55 1.994-.096.231-.025.405-.405.405-.405z" fill="#D2A83E"/><path fill-rule="evenodd" clip-rule="evenodd" d="M6.189 3.098a.119.119 0 0 0-.006-.029.208.208 0 0 0-.035-.052s-.228-.041-.343-.028c-.202.022-.385.272-.47.4-.086.128-.192.326-.307.428a.043.043 0 0 0-.007-.028s.007.009-.006.022c-.013.013-.013.02-.007.025l.02.02c.006 0 .185-.08.428-.307.26-.237.457-.359.56-.4a.788.788 0 0 1 .173-.051z" fill="#C29637"/><path fill-rule="evenodd" clip-rule="evenodd" d="M10.608 2.124s-.041.052-.093.109c-.115.122-.265.259-.393.4-.122.135-.26.24-.413.416-.154.176-.333.371-.378.428a.422.422 0 0 0-.074.198 1.803 1.803 0 0 0-.048-.032c.011.02.024.04.039.057.032.045.083.102.109.137a.418.418 0 0 1 .067.147c.015.003.115.022.24-.182.124-.205.287-.429.287-.429l.259-.384.163-.326.205-.365.03-.174z" fill="#AC8132"/><path fill-rule="evenodd" clip-rule="evenodd" d="M10.874 1.863s-.157.128-.218.205c-.06.076-.205.278-.205.278l.052-.006.263-.233.103-.183.005-.061z" fill="#A88F33"/><path fill-rule="evenodd" clip-rule="evenodd" d="M10.826 12.15s-.003-.106.057-.17c.06-.063.215-.156.365-.506s.167-.428.167-.428-.27.23-.435.285c.038-.08.06-.137.08-.179-.022-.02-.115-.041-.124-.052.051-.051.08-.178.185-.262.134-.103.38-.279.572-.436.19-.156.566-.521.614-.627.029.04.035.067.035.067s-.189.246-.287.402c-.087.135-.08.211-.08.211l.178-.076s.052.191-.182.482c.102-.038.144-.015.202-.048-.096.061-.228.144-.352.372-.122.228-.288.493-.567.659-.272.175-.429.305-.429.305v.001z" fill="#A67A2E"/><path fill-rule="evenodd" clip-rule="evenodd" d="M10.124 3.408s-.106.222-.121.394c-.003.041-.013.074-.013.122-.003.154.009.326-.026.406-.013-.032-.02-.054-.032-.067-.02.054-.055.224-.083.287a1.35 1.35 0 0 1-.039-.354c.003-.17.006-.202.006-.237-.006.051-.041.121-.054.163-.02-.035-.041-.08-.067-.118-.016.026-.035.063-.052.083a1.18 1.18 0 0 1-.013-.115c-.003-.068-.006-.154-.003-.173a.78.78 0 0 1 .177-.297c.137-.15.278-.44.32-.528.04-.09.217-.461.217-.461h.134l-.195.445s-.118.243-.179.333c-.06.09-.189.345-.246.445.042-.054.077-.083.118-.135.04-.036.151-.193.151-.193z" fill="#8C6228"/><path fill-rule="evenodd" clip-rule="evenodd" d="M10.876 1.846a.556.556 0 0 1-.102.185c-.08.096-.252.224-.336.326a.882.882 0 0 0-.161.694c.026-.07.074-.208.202-.365s.265-.337.333-.476c.067-.141.076-.253.076-.253l.026-.032-.016-.074-.022-.005z" fill="#CBA94C"/><path fill-rule="evenodd" clip-rule="evenodd" d="M13.498 10.432s-.052-.14-.068-.269c-.015-.128.026-.154-.022-.3-.028-.09-.08-.077-.093-.09a.764.764 0 0 1-.02-.22.835.835 0 0 0-.015-.212c-.02-.015-.032-.028-.06-.124-.033-.096-.049-.144-.064-.172-.016-.029-.06-.055-.06-.083 0-.057.05-.087.05-.103-.002-.032-.04-.006-.05-.015-.014-.016.031-.109.015-.122-.007-.006-.052.048-.064.033-.013-.016-.028-.17-.052-.272-.021-.1-.045-.172-.047-.202-.003-.029-.18-.53-.222-.653a3.087 3.087 0 0 1-.087-.313c-.012-.06-.021-.185-.028-.172-.007.013-.003.076-.013.074-.009-.003-.041-.224-.052-.26-.009-.034-.063-.153-.076-.239-.014-.086-.042-.313-.061-.467-.02-.154-.029-.217-.029-.256a1.605 1.605 0 0 0-.015-.282 2.629 2.629 0 0 0-.122-.476c-.087-.218-.317-.775-.359-.913 0-.035.046-.016.046-.016s.112.283.195.5c.08.218.157.41.176.429.016.019.138.233.192.582.054.35.074.672.106.887.016.102.029.21.061.32.035.117.09.239.16.425.061.157.107.288.131.4.029.144.029.253.045.324.016.061.04.183.094.358.054.176.134.403.189.544.106.282.153.518.17.644.014.129.062.577.049.711z" fill="#A88F33"/><path fill-rule="evenodd" clip-rule="evenodd" d="m10.883 1.83-.007.016s.02.006.016.032a.769.769 0 0 1-.006.107c-.007.045-.02.08-.022.108 0 .061.009.131-.077.304-.026.048-.042.09-.055.118a.35.35 0 0 1-.067.113c.045-.026.209-.128.291-.113a.608.608 0 0 0-.198.179.445.445 0 0 0 .154 0c.143-.022.304-.074.445-.064.154.01.093-.185.093-.185l-.177-.39-.337-.237-.053.012z" fill="#BE9C44"/><path fill-rule="evenodd" clip-rule="evenodd" d="M11.76 4.759s-.15-.15-.21-.666c-.061-.518-.048-1.28-.048-1.28l-.122-.298s-.026-.198-.09-.272c-.063-.073-.188-.198-.245-.258-.057-.061-.122-.144-.16-.157.019-.032.105-.215.438-.218.333-.002.435.183.47.25.035.068.192.359.25.913.054.554.057.596.048.787a4.446 4.446 0 0 1-.103.615c-.055.223-.116.471-.227.584z" fill="#A17C34"/><path fill-rule="evenodd" clip-rule="evenodd" d="M11.29 5.2c.05.004.1-.008.143-.032.048-.003.222.02.355-.15.009.038.032.143-.029.236.033-.032.08-.045.087-.054.003.048.048.195-.143.554.051-.057.112-.054.166-.06.003.067.04.293-.056.415-.064.083-.168.057-.168.057a.329.329 0 0 0 0-.055c-.002-.035-.015-.07-.006-.093a.465.465 0 0 1-.134-.093c-.113-.106-.26-.287-.27-.422-.013-.15.122-.183.122-.183a.144.144 0 0 1-.029-.035c-.006-.022-.012-.057-.038-.085z" fill="#8C6228"/><path fill-rule="evenodd" clip-rule="evenodd" d="M10.291 3.572s-.006-.01-.041.032c.006-.042.013-.08.015-.118a.409.409 0 0 1 .064-.096c-.02.039-.033.074-.033.074s.048-.09.118-.144c.048-.039.109-.057.135-.093.028-.039.022-.045.028-.052 0 0 .064-.041.16-.163.014-.015.033-.032.046-.048.022-.009.074-.032.135-.063.063-.035.135-.083.179-.103.086-.038.178-.034.22-.095.033-.01.068-.107.062-.19.048.02.293.173.378.507.06.237-.048.602-.094.778-.045.176-.051.307-.115.387-.08.106-.339.256-.402.33-.055.06-.218.215-.211.326.006.083.108.128.13.144.023.016.022.035.064.025.041-.009.057-.028.074-.028.019.002.019.006.028.006a.094.094 0 0 0 .02-.002s-.007.118-.283.153c-.02.003-.038.01-.063.013.032-.015.052-.015.087-.063-.04-.007-.15-.013-.18-.022a.348.348 0 0 1 .064-.076c.022-.02-.002-.026-.022-.016a1.032 1.032 0 0 0-.095.074c-.033.028-.061.067-.113.102a.253.253 0 0 1 .048-.221c-.016.002-.046.048-.074.039a.411.411 0 0 1 .01-.142c.015-.058.099-.16.099-.16l.406-.726.087-.55-.93.18z" fill="#92723A"/><path fill-rule="evenodd" clip-rule="evenodd" d="M10.27 3.603s-.023.015.021.045c-.006.009-.022.041-.041.063-.022.026-.046.042-.055.064-.019.045-.034.076-.034.096 0 .02-.007.143-.061.224-.02.028-.042.076-.057.108-.033.057-.061.103-.068.128-.012.046-.022.17-.022.17l.04-.048c-.016.032-.033.067-.058.093.016-.013.061-.045.137-.113.107-.089.272-.239.474-.358-.06.022-.112.022-.154.029.033-.033.324-.375.477-.407a.061.061 0 0 0 .013-.041l-.131-.013-.266.057-.038-.205-.178.108z" fill="#B18E3E"/><path fill-rule="evenodd" clip-rule="evenodd" d="M10.691 4.768s-.035.035-.067.121a.41.41 0 0 1-.064-.086c-.047-.08-.121-.183-.293-.125-.003-.054-.007-.083 0-.121.028-.007.115-.077.202-.179.06-.07.117-.15.156-.252.026-.02.07-.052.128-.09.083-.057.183-.134.198-.221-.039.015-.121.054-.246.048.048-.022.122-.045.113-.141l.035-.022a.127.127 0 0 0-.045-.007c-.003-.009-.007-.022-.029-.015-.022.006-.025.006-.028.015-.01.003-.04 0-.061.016-.022.015-.083.067-.106.076l.022-.039s-.064.007-.11.026c-.082.028-.178.08-.275.13.01-.015.013-.025.02-.028.006-.003.021-.006.021-.009 0-.002-.006-.025-.002-.035.029-.061.063-.12.102-.176.046-.06.055-.147.055-.147l.198-.1.556-.128.362.022-.046.25-.213.436-.182.397-.209.244-.192.14z" fill="#543E26"/><path fill-rule="evenodd" clip-rule="evenodd" d="M11.594 3.686s-.218.27-.279.311c.039-.083.279-.576.365-.713-.02-.016-.045-.016.016-.256-.052.121-.07.185-.113.217-.042.033-.048.022-.077.022a.054.054 0 0 0 .007-.032s-.183-.022-.307-.022c-.125 0-.372.067-.51.122-.108.045-.169.045-.207.073-.04.033-.061.068-.08.077-.016.009-.09.032-.107.057-.015.025-.041.054-.041.06 0 .007-.007.016.013.01.006-.003.054-.029.108-.061a3 3 0 0 1 .228-.118c.185-.074.244-.061.326-.076.087-.016.211-.052.294-.052.083-.003.24 0 .276.006-.016.013-.029.029-.022.083 0 .016-.013.032-.026.07a6.303 6.303 0 0 1-.153.371c-.057.122-.122.224-.154.288-.032.063-.102.23-.172.32-.07.089-.106.143-.128.163-.022.02-.179.134-.167.176a.864.864 0 0 0 .34-.224c.13-.147.156-.237.258-.317a.866.866 0 0 0 .23-.326c.04-.104.031-.137.082-.229z" fill="#806031"/><path fill-rule="evenodd" clip-rule="evenodd" d="M6.906 5.696s-.028.118-.093.176c-.063.057-.176.106-.189.202-.016.096.113.144.113.144s-.07.115-.07.201c0 .09-.003.107.006.192a.085.085 0 0 0-.025.026s.006.082.07.134c.063.052.117.083.15.07l.013.033s.047-.122.08-.228c.032-.109.06-.094.074-.24.012-.146.153-.397.153-.397l.096-.215-.156-.122-.222.024z" fill="#B6903C"/><path fill-rule="evenodd" clip-rule="evenodd" d="M7.197 5.907a.942.942 0 0 0-.089.106c-.041.057-.073.109-.134.13-.061.023-.1.023-.096.084.004.06.06.086.093.117a.151.151 0 0 1 .048.148c.02-.01.054-.02.087-.09.032-.07.258-.495.258-.495h-.167z" fill="#685026"/><path fill-rule="evenodd" clip-rule="evenodd" d="M8.09 4.924s.019-.051 0-.089c-.02-.039-.138-.052-.196-.096-.06-.045-.135-.077-.195-.057.009-.022.045-.07.015-.08-.028-.01-.134.039-.163.06-.028.023-.093.049-.106.064-.013.016-.035.046-.048.033-.013-.01-.02-.033-.041-.02a.526.526 0 0 0-.148.15.768.768 0 0 1-.195.292c-.132.128-.19.21-.15.258.038.048.056.013.063.055a.35.35 0 0 1-.007.122c-.015.067-.041.13-.006.143.09.029.176-.025.195-.009.04.035-.022.16.07.185.094.026.185-.022.185-.022l.34-.182.326-.172.167-.33-.09-.276-.016-.029z" fill="#D4B968"/><path fill-rule="evenodd" clip-rule="evenodd" d="M7.77 5.713s-.057-.087.013-.164c.07-.076.17-.108.208-.156a.06.06 0 0 0-.029-.02.258.258 0 0 1 .113-.106.108.108 0 0 0-.074-.035c-.063 0-.102.04-.16.04-.057 0-.064-.03-.064-.03s.096-.008.087-.051c-.009-.045-.026-.045-.026-.045s.186-.077.218-.118c.032-.041.028-.09.035-.109.022 0 .15-.067.202-.039.052.029.015.106.015.106s.157-.117.237-.233c.07.007.102-.048.154-.048.063 0 .163.087.182.272.013.106.032.167.013.355-.009.106-.006.333.026.445.022.09.073.08.073.08a.145.145 0 0 1-.045.07c-.035.033-.039.118-.035.15a.64.64 0 0 0 .02.07s-.042.048-.052.08c-.01.033-.052.055-.083.055-.031 0-.016-.003-.057 0s-.054.009-.08 0c-.026-.01-.046-.02-.035-.103.009-.082-.32-.275-.32-.275l-.538-.192h.002z" fill="#CCA849"/><path fill-rule="evenodd" clip-rule="evenodd" d="M7.152 6.53s.118.157.602.157c.23 0 .31-.022.358-.035.052-.013.246-.089.442-.32.176-.208.137-.293.137-.293l-.102-.016-.333.046-.985.42-.119.042z" fill="#585136"/><path fill-rule="evenodd" clip-rule="evenodd" d="M7.513 6.57s-.42.093-.42-.173c0-.258.26-.53.325-.578.067-.048.227-.103.227-.103h.387l.074.196-.032.422-.56.236z" fill="#252211"/><path fill-rule="evenodd" clip-rule="evenodd" d="M7.9 5.795s-.08-.073-.262.026c-.183.1-.33.307-.34.496-.009.167.138.291.365.298.17.006.272-.013.324-.026l-.08-.1-.007-.694z" fill="#C3B378"/><path fill-rule="evenodd" clip-rule="evenodd" d="M7.821 5.837s-.019-.016-.076.015c-.048.026-.118.094-.173.141-.035.029-.057.042-.076.064-.08.096-.148.252-.109.33.039.078.167.167.493.106l-.059-.656z" fill="#E6D89C"/><path fill-rule="evenodd" clip-rule="evenodd" d="M7.715 5.997s-.052.08-.052.209c0 .13.074.339.346.355.209.012.348-.3.5-.422.115-.094.185-.096.185-.096s-.118-.128-.432-.294c-.311-.167-.66-.19-.848.067.089-.006.378-.08.378-.08l.14.045-.217.216z" fill="#252211"/><path fill-rule="evenodd" clip-rule="evenodd" d="M8.122 6.167c-.01-.02-.016-.045.022-.052.037-.006.054-.002.067.026.013.028.026.052.006.063-.019.01-.07 0-.095-.037zm-.061-.183s-.013.01-.007-.009c.003-.022.02-.06.061-.051.042.009.033.054.026.067-.007.013-.042.035-.068.026a.022.022 0 0 1-.016-.023c0-.004.002-.007.004-.01z" fill="#6F674D"/><path fill-rule="evenodd" clip-rule="evenodd" d="M4.557 6.067a.4.4 0 0 0 .221.074c.118-.003.27-.124.34-.202.04-.045.076-.093.114-.13.033-.033.055-.049.07-.07.022-.026.046-.074.057-.09-.028.022-.07.061-.112.087-.042.025-.131.074-.167.087-.035.013-.398.204-.398.204l-.125.04z" fill="#AC924C"/><path fill-rule="evenodd" clip-rule="evenodd" d="M4.713 5.11s.057-.038.167-.063c.106-.025.32-.045.32-.045l.176.077.07.265-.128.276-.163.102-.185-.297-.257-.314z" fill="#9F8E57"/><path fill-rule="evenodd" clip-rule="evenodd" d="m4.483 5.348-.061.045s.016-.028.028-.115c.013-.087.08-.298.18-.42.098-.121.095-.115.095-.115a.065.065 0 0 0-.052.013.62.62 0 0 1 .179-.182c.083-.051.115-.067.202-.026.086.042.108.064.172.061.063-.002.118-.07.118-.07s.013.042-.035.137c-.048.096-.237.292-.237.292l-.394.269-.195.11z" fill="#EAC970"/><path fill-rule="evenodd" clip-rule="evenodd" d="M4.774 5.078s.285.04.372-.041c.002.009.013.009.013.016-.001.004-.003.009-.007.012a.208.208 0 0 1 .029-.002.168.168 0 0 0 .035.006c.01 0 .019 0 .028-.002a.048.048 0 0 1-.02.032c.014 0 .026.003.026.013 0 .01.003.041-.013.048a.059.059 0 0 1-.039-.003.16.16 0 0 0 .02.07c.025.048.08.103.153.087 0 0 .04.093-.124.3-.022.029-.045.068-.074.1a.378.378 0 0 0-.025.076s.276-.106.355-.348c.08-.243.095-.483.08-.707a.364.364 0 0 0-.029-.14c-.038-.081-.147-.068-.191-.023-.064.064-.17.222-.317.33-.15.109-.157.128-.272.176z" fill="#D7BC6B"/><path fill-rule="evenodd" clip-rule="evenodd" d="M4.432 5.428s-.054.032-.082.153a.502.502 0 0 0 .056.324c.032.048.103.179.25.185a.274.274 0 0 0 .106-.022.671.671 0 0 0 .144-.09.462.462 0 0 0 .109-.092c-.016-.007-.391-.317-.391-.317l-.141-.158-.05.017z" fill="#585136"/><path fill-rule="evenodd" clip-rule="evenodd" d="M4.787 5.943s.077-.006.122-.035c.045-.028-.265-.336-.265-.336l.022.332.121.039z" fill="#453A25"/><path fill-rule="evenodd" clip-rule="evenodd" d="M4.457 5.404s-.039.074-.039.094c-.006.063.013.263.029.326.015.067.1.17.208.17.067 0 .16-.042.16-.052 0-.013-.095-.026-.121-.074a.435.435 0 0 1-.026-.154c-.002-.041-.002-.086.013-.102.035-.039.042-.15.042-.15l.124-.231h-.163l-.196.122-.031.051z" fill="#84754B"/><path fill-rule="evenodd" clip-rule="evenodd" d="M4.41 5.476s.127-.17.242-.209c.116-.039.167-.015.167-.015l-.067.172-.096.106.007.054s-.016.144.08.244.167.096.208.096c.042 0 .161-.035.222-.179.054-.135.1-.307-.01-.48a.391.391 0 0 0-.33-.18c-.036 0-.32.015-.424.39z" fill="#252211"/><path fill-rule="evenodd" clip-rule="evenodd" d="M7.696 6.052c-.048-.022-.003-.157.045-.198a.337.337 0 0 1 .215-.096c.039-.003.076.022.07.048-.01.048-.076.115-.137.163-.084.066-.139.107-.193.083z" fill="#F7F7E7"/><path fill-rule="evenodd" clip-rule="evenodd" d="M5.107 5.318c.035-.003.08.025.09.063.008.042-.023.125-.09.125-.055 0-.083-.068-.083-.087 0-.016.005-.032.013-.045.002-.004.009-.05.07-.056z" fill="#F8F6DE"/><path fill-rule="evenodd" clip-rule="evenodd" d="M4.602 5.348s-.09.041-.13.128a.34.34 0 0 0-.026.204.502.502 0 0 0 .06.141c.022.029.052.048.074.046.022-.003.068-.061.068-.096s.002-.183.045-.263c.037-.08-.091-.16-.091-.16z" fill="#D4C38B"/><path fill-rule="evenodd" clip-rule="evenodd" d="M4.615 5.341c-.016.01-.041.022-.035.039.006.015.06.026.08.063.022.04.022.08.016.1a.158.158 0 0 0 .045-.032c.029-.033.063-.077.093-.077.02 0 .04.01.057.01.029 0 .057-.01.061-.04.006-.038-.054-.073-.09-.067.007-.025.016-.063-.012-.09-.029-.025-.118.02-.137.033-.02.013-.078.061-.078.061z" fill="#E2D59D"/><path fill-rule="evenodd" clip-rule="evenodd" d="m6.672 8.06.191-.056.055.04s.039.082.1.092c-.02.042-.07.077-.068.106.003.03.029.052.029.052s-.173.285.167.572a5.37 5.37 0 0 0-.237.102c.038.01.121.026.156.057.035.032.035.042.068.061.032.02.051.046.045.057-.022-.013-.096-.052-.109-.015-.013.036-.32.022-.32.022l-.517.1s.02-.053-.035-.1c-.064-.057-.141.002-.224-.061-.109-.083-.113-.179-.148-.215.035-.022.106-.054.276-.077-.006-.013-.029-.052-.016-.087.016-.045.08-.073.061-.128.029-.006.042-.006.113-.095.067-.09.109-.11.16-.116.052-.006.083 0 .18-.089.066-.063.044-.118.044-.118s.044-.014.029-.103z" fill="#CBAC5A"/><path fill-rule="evenodd" clip-rule="evenodd" d="M6.106 8.09c.003-.013.013-.02.083-.013.07.006.513-.042.633-.048.122-.01.55-.003.759.041.208.044.42.096.521.122.103.028.135.039.131.052-.003.013-.026.025-.039.022-.013-.003-.352-.107-.457-.128a4.134 4.134 0 0 0-.665-.077c-.185.002-.26-.003-.416.015-.156.02-.415.046-.493.035-.077-.009-.06-.008-.057-.021z" fill="#D6BC6F"/><path fill-rule="evenodd" clip-rule="evenodd" d="M7.148 9.104s.266.144.361.32c.07.13-.041.195-.041.195s.15 0 .13.083c-.008.052-.258.192-.425.266-.17.073-.163.07-.246.082-.08.013-.3-.025-.346.04-.045.064-.025.13-.013.14.013.01.118.022.118.022s-.022.061-.24.068c-.217.006-.271.022-.284.045-.013.022.041.01.141.026.1.015.24.025.24.025s-.046.04-.164.07c-.134.035-.345.067-.409.106.033.022.08.055.103.057a.64.64 0 0 0-.144.052l.045.029s-.109.13-.172.163c-.063.032-.428.202-.554.17-.313-.084-.352-.427-.428-.453-.116-.038-.17.04-.272-.015.045-.032.07-.052.118-.074-.052-.025-.32-.195-.32-.195a1.98 1.98 0 0 0-.093-.179c-.052-.09-.128-.208-.186-.313-.124-.23-.13-.337-.243-.468.02-.025.087-.022.087-.022l.944.311 1.673.049.435-.622.185.022z" fill="#DFC677"/><path fill-rule="evenodd" clip-rule="evenodd" d="M4.67 10.052a.15.15 0 0 0 .034.028c.033.022.08.048.113.087.013-.02.045-.054.102 0 .057.054.128.016.172.028.046.016.048.022.048.022s.026-.022.083-.045c.035-.013.076-.022.122-.035.041-.009.086-.022.118-.022.028.02.13.128.54-.032.388-.15.477-.167.542-.144.006-.015.013-.045.112-.041 0-.042-.082-.183-.082-.183l-.457-.156h-.25l-.75.137-.415.237-.033.119z" fill="#C4A859"/><path fill-rule="evenodd" clip-rule="evenodd" d="M4.42 9.789s.008.07.112.144a.646.646 0 0 1 .135.117s.02-.025.035-.051c.015-.029.028-.061.054-.07.052-.022.17.02.195.013.022-.007.016-.052.04-.052.054-.003.089.035.108.035.02 0 .067-.003.074-.013.006-.01.009-.118.083-.17a.221.221 0 0 1 .204-.019c0 .02.003.067.055.07.052.003.057-.007.102.009.046.016.1-.003.124.074.022-.007.074-.013.061-.087.026-.02.048-.032.103-.109.013-.02.035-.041.051-.07.046 0 .1-.009.173.055-.022.015-.035.025-.042.041.02.019.036.04.052.061.02.026.032.057.057.063.054.016.144-.006.243 0a.49.49 0 0 1 .211.064c.013-.007.013-.01.046-.003.032.007.057.01.022-.032.019.009.041.028.06.009.02-.02.035-.048.09-.054.054-.007.074.002.096-.055.028-.07-.07-.07-.07-.07s.045-.041.095-.095c.061-.057.131-.131.148-.222.029-.167-.135-.189-.135-.189l-.79.244-.967-.048-.826.41z" fill="#927D49"/><path fill-rule="evenodd" clip-rule="evenodd" d="M3.709 7.504s-.026.033-.042.109c-.015.076-.009.067-.022.122-.013.054-.172.595-.112.778.06.182.163.25.228.397.013.032.025.052.032.08.022.096.003.17.028.266.01.032.033.07.068.108.077.08.202.157.256.211.076.08.185.244.323.26a.467.467 0 0 0 .266-.074c.077-.048.124-.116.205-.154.056-.029.117-.039.172-.052a.78.78 0 0 1 .276-.013c.093.02.313.087.435.087.095-.002.19-.015.282-.039.185-.054.409-.148.557-.189.086-.026.156-.032.227-.048.122-.028.224-.067.283-.14-.04-.046-.087-.116-.346-.114-.294.007-.633.17-.8.196-.167.026-.24.048-.426-.02-.183-.068-.189-.113-.189-.113s-.192-.134-.272-.476a.853.853 0 0 1 .208-.828c.055-.061.042-.116.042-.116s.137-.185.1-.358c-.042-.172-.307-.137-.307-.137l-1.472.257z" fill="#6E6342"/><path fill-rule="evenodd" clip-rule="evenodd" d="M3.93 8.08a.134.134 0 0 0-.015.07c.002.035.013.08.117.183.09.089.07.189.07.189s.045.009.167-.048c.096-.046.128.035.128.035a.27.27 0 0 1 .09-.029.196.196 0 0 0 .08-.026s.112.116.21.17c.09.048.142.08.186.048.041-.029.041-.087.039-.113a.336.336 0 0 0-.039-.067c-.029-.041-.074-.09-.077-.128-.006-.09.068-.195.052-.221-.016-.026-.074-.033-.218.02-.148.048-.79-.083-.79-.083z" fill="#39331F"/><path fill-rule="evenodd" clip-rule="evenodd" d="M4.27 8.659s-.074-.07-.049-.41a.42.42 0 0 1 .094.01s.04.263-.046.4z" fill="#292311"/><path fill-rule="evenodd" clip-rule="evenodd" d="M3.744 7.245a.202.202 0 0 0 .028-.025c-.025.048-.144.24-.048.54.096.301.337.525.633.535.297.01.453-.134.63-.352.07-.086.15-.195.222-.269.106-.115.19-.148.19-.259 0-.228-.234-.33-.577-.432-.343-.102-.652-.09-.813-.02-.157.076-.224.157-.265.282z" fill="#252211"/><path fill-rule="evenodd" clip-rule="evenodd" d="m4.845 8.761.026-.013s.006-.102.048-.1c.041.007.06.061.057.08-.003.02-.013.053-.055.049-.054.001-.076-.016-.076-.016z" fill="#3F3824"/><path fill-rule="evenodd" clip-rule="evenodd" d="M4.73 8.326s.026-.009.057.022c.026 0 .137-.013.172.01a.131.131 0 0 1 .046.04s-.131.03-.202 0c-.073-.024-.073-.072-.073-.072z" fill="#2D2815"/><path fill-rule="evenodd" clip-rule="evenodd" d="M5.306 8.346a.32.32 0 0 0-.144-.07c-.012-.003-.015.006-.025.006-.007-.002-.01-.022-.01-.022l-.041.022s-.007.01.015.026c.02.015.052.028.061.054.01.026.01.035.013.039.003.003.048 0 .07-.013.022-.013.064-.034.061-.042z" fill="#82764F"/><path fill-rule="evenodd" clip-rule="evenodd" d="M4.652 8.608s.013-.089.1-.093c.09-.006.106.08.106.08l-.052.052c0-.001-.039-.055-.154-.039z" fill="#2D2816"/><path fill-rule="evenodd" clip-rule="evenodd" d="M5.216 8.224s-.048.052-.154.067c-.01-.013-.029-.039 0-.08.028-.041.06-.054.093-.041a.076.076 0 0 1 .06.054z" fill="#574F35"/><path fill-rule="evenodd" clip-rule="evenodd" d="M5.411 8.287c.003-.013-.006-.015 0-.022.006-.006.041-.019.048-.013.003.003 0 .013 0 .026s0 .026-.007.035c-.009.013-.034.02-.047.016-.013-.004-.016-.022-.016-.026.006-.003.022-.01.022-.016zm.221-.14c0-.006.022-.019.035-.019.02 0 .02.016.022.02.006.002.006-.003.013.009.006.011.016.032.009.045-.007.013-.032.022-.039.02a.345.345 0 0 1-.04-.074z" fill="#82764F"/><path fill-rule="evenodd" clip-rule="evenodd" d="M5.187 8.317s.029.007.067.039c-.013.01-.032.02-.032.02s-.003-.03-.035-.059z" fill="#6E6342"/><path fill-rule="evenodd" clip-rule="evenodd" d="M5.124 8.032c-.007-.006.019-.022.035-.019.015.003.022.013.038.015.017.003.02-.006.026-.012.006-.007.029-.003.032 0a.071.071 0 0 1 .007.009.036.036 0 0 1 .013-.026.04.04 0 0 1 .035-.007c.002.01.015.042.013.048-.003.007-.042.016-.048.01.006.015.035.047.039.054.003.006-.029.022-.042.02a.528.528 0 0 1-.148-.092zm.17-.215a.03.03 0 0 0-.014-.015c-.009-.003-.039 0-.039.015a.48.48 0 0 0 .055.148c.032.045.054.083.076.093a.03.03 0 0 0 .039-.013.784.784 0 0 0 .006-.167 1.535 1.535 0 0 0-.013-.228c-.006-.006-.032-.006-.04.007a1.21 1.21 0 0 0-.07.16z" fill="#585136"/><path fill-rule="evenodd" clip-rule="evenodd" d="M5.178 8.48s-.045-.028-.09-.009c-.04.02-.038.096-.038.096a.061.061 0 0 0 .057-.006c.028-.02.065-.052.071-.08z" fill="#574F35"/><path fill-rule="evenodd" clip-rule="evenodd" d="M5.263 8.583c-.002-.026-.025-.026-.025-.04a.029.029 0 0 1 .028-.021c.013 0 .026.015.042.025.015.01.039.026.041.046.003.02-.025.073-.057.073-.031 0-.022-.058-.029-.083zm.25-.035s-.051.015-.048 0c.004-.016.016-.02.033-.02a.051.051 0 0 1 .032-.015c.007 0 .014.002.02.006 0 0 .034-.015.045-.006.01.009.002.009.009.02a.091.091 0 0 1 .015.038c0 .01-.038.032-.07.028-.036-.007-.03-.045-.036-.051zm.302-.059s.015.01.003.02a.21.21 0 0 1-.094.028c-.039 0-.073.007-.073-.006 0-.013.032-.04.051-.046a.041.041 0 0 1 .033-.015c.015 0 .076-.007.093-.01.015-.002.028.007.02.02-.005.01-.033.01-.033.01zm.09-.4s-.02.042-.042.042c-.022-.003-.022-.01-.022-.016 0-.009.022-.032.02-.038-.007 0-.023 0-.02-.016 0-.013.022-.028.041-.025a.085.085 0 0 1 .052-.02c.022 0 .041.007.041.02 0 .012-.025.04-.035.047-.01.01-.023.017-.036.007zm-.296.766s-.026.002-.026.015c0 .007.007.007.016.003a.07.07 0 0 0 .016-.003c.002.003.002.016.022.016a.123.123 0 0 0 .045-.016c.015-.006.028-.013.028-.025-.006-.022-.02-.033-.038-.033-.01 0-.02.002-.029.007 0 0-.006-.013-.028 0-.023.013-.02.013-.013.02.011.01.007.016.007.016zm-.146.134c0-.006.032-.02.041-.015.01.002.035.051.035.057 0 .006-.032.022-.045.022-.013 0-.035-.022-.035-.026 0-.002.015-.006.015-.009.004-.006-.011-.022-.011-.029zM5.36 8.8c.007-.002.007-.009.016-.015a.022.022 0 0 1 .02-.003.031.031 0 0 1 .021-.015c.016-.003.029 0 .026.006 0 .02.013.032.013.048 0 .015-.01.035-.041.048a.229.229 0 0 1-.083.006c-.007-.002-.013-.028-.007-.041A.108.108 0 0 1 5.36 8.8z" fill="#82764F"/><path fill-rule="evenodd" clip-rule="evenodd" d="M5.402 8.809s-.022.013-.022.02a.058.058 0 0 0-.003.019c0 .004.029-.003.032-.007.002-.002-.007-.025-.007-.032z" fill="#6E6342"/><path fill-rule="evenodd" clip-rule="evenodd" d="M5.21 8.748c.012.003.034 0 .05.007.014.006.023.02.01.035-.013.015-.026.039-.055.035-.032-.003-.063-.02-.063-.033a.062.062 0 0 1 .016-.045c.013-.01.02-.004.041.001z" fill="#585136"/><path fill-rule="evenodd" clip-rule="evenodd" d="M5.194 8.761s-.042.033-.052.048c-.013.016-.077.096-.096.113a.243.243 0 0 1 .022-.033.132.132 0 0 0-.054.07c-.016.048.086.074.154.094l.093.025a.722.722 0 0 1-.064-.118c-.025-.06-.038-.067-.022-.095.013-.029.033-.048.033-.07l-.014-.034z" fill="#574F35"/><path fill-rule="evenodd" clip-rule="evenodd" d="M3.718 8.863c.01.002.019.002.028 0 .02-.002.222-.076.433-.063.158.01.314.035.467.077.265.07.595.208.809.287.057.022.113.061.154.076.163.064.17.064.265.08.113.016.228-.021.348-.047.148-.033.4-.048.622-.08a1.27 1.27 0 0 0 .21-.048s-.175.176-.598.24c-.17.025-.343.027-.515.006a1.572 1.572 0 0 1-.29-.052c-.077-.022-.234-.08-.427-.128-.134-.035-.285-.061-.457-.093-.424-.078-.885-.168-1.05-.255z" fill="#252211"/><path fill-rule="evenodd" clip-rule="evenodd" d="M3.241 8.063c-.102.087-.21.17-.317.25l-.32.246c-.108.08-.214.163-.323.243-.109.08-.218.157-.333.23.102-.086.211-.166.32-.245.109-.08.221-.157.326-.237l.32-.246c.11-.08.216-.163.327-.24zm-.565.907s.115-.096.259-.23c.178-.168.397-.381.467-.42l-.726.65z" fill="#CFB66C"/><path fill-rule="evenodd" clip-rule="evenodd" d="M2.676 8.97c.057-.057.118-.113.178-.167l.094-.08c.028-.026.06-.055.089-.084.057-.056.113-.117.17-.176.028-.029.058-.056.089-.082a.242.242 0 0 1 .052-.035c.015-.01.032-.026.054-.029-.013.02-.029.029-.041.045-.016.013-.029.029-.042.042-.028.028-.06.054-.09.08-.06.052-.123.102-.184.157-.061.054-.118.112-.179.167-.066.055-.127.11-.19.162zm.774-.518s-.422.413-.509.48l.509-.48z" fill="#CFB66C"/><path fill-rule="evenodd" clip-rule="evenodd" d="M3.45 8.452a1.377 1.377 0 0 1-.122.124l-.128.122c-.041.041-.08.083-.124.124-.046.039-.087.077-.135.113l.124-.122c.042-.042.087-.076.131-.118l.124-.122c.043-.042.085-.084.13-.121zm.02.224a2.691 2.691 0 0 1-.138.317c-.109.217-.272.49-.343.628l.48-.945z" fill="#CFB66C"/><path fill-rule="evenodd" clip-rule="evenodd" d="M3.47 8.676c0 .048-.014.09-.03.13a1.285 1.285 0 0 1-.114.24c-.022.038-.048.076-.068.115l-.13.23c-.046.077-.09.155-.138.228.033-.082.077-.16.118-.236a4.93 4.93 0 0 0 .128-.233c.02-.04.038-.08.054-.122.02-.042.04-.08.055-.118.02-.041.035-.08.054-.118.022-.04.04-.079.07-.116z" fill="#CFB66C"/><path fill-rule="evenodd" clip-rule="evenodd" d="M3.93 9.737s-.128.17-.115.385c.035-.113.079-.285.115-.385zm.122.17s-.046.461-.083.688c.053-.262.063-.24.083-.688zm.848.715s-.192.563-.196.72c.042-.162.122-.49.196-.72z" fill="#DEC270"/><path fill-rule="evenodd" clip-rule="evenodd" d="M5.348 9.702s.31.513.543.95c-.063-.22-.208-.623-.543-.95z" fill="#CBAF59"/><path fill-rule="evenodd" clip-rule="evenodd" d="M6.183 10.457c.17.301.324.612.46.93a1.423 1.423 0 0 0-.46-.93z" fill="#E3C677"/><path fill-rule="evenodd" clip-rule="evenodd" d="M8.637 11.213c.052-.032.154-.209.243-.253.09-.045.157-.054.237-.143.08-.094.103-.15.278-.224.246-.107.077-.244.077-.244a.8.8 0 0 1 .087-.073c.063-.048.137-.107.13-.209-.008-.172-.04-.422-.182-.567.137-.028.4-.048.563-.09.19-.047.276-.114.276-.114s-.109-.185.068-.372c.175-.186.32-.298.425-.506-.121-.016-.307-.08-.78.1a.6.6 0 0 1 .074.041s-.292.08-.398.17c-.185.156-.208.284-.409.38-.2.096-.403.07-.57.148-.166.077-.191.143-.252.172.013.016-.002.041.022.063-.015.022-.106.17-.198.17.01.035.087.06.087.06s-.057.042-.202.053c.074.076.144.16.336.282-.015.032-.08.08-.054.14.029.062.102.145.397.212-.15.006-.326.041-.563.009-.237-.028-.276-.045-.422-.009.016.015.057.015.093.057-.038.002-.282-.029-.365.08a.706.706 0 0 0-.117.422c-.046.022-.09.061-.068.141.022.08.138.106.211.157.074.054.08.074.15.06.074-.015.183-.088.246-.088.064 0 .11.047.11.047s.171-.082.188-.067c.016.015.003.115.02.13.017.012.21-.103.262-.135z" fill="#ECD592"/><path fill-rule="evenodd" clip-rule="evenodd" d="M12.4 6.032c-.809-2.089-2.81-2.476-2.81-2.476H3.886l.022 2.128h1.136v4.752H3.885v2.125h5.548c1.337 0 2.409-1.344 2.409-1.344 1.716-2.436.558-5.185.558-5.185zM9.463 9.785s-.435.628-.909.628h-.947l-.023-4.724H8.8s.563.118.957 1.233c0 0 .521 1.595-.294 2.863z" fill="#fff" fill-opacity=".8"/></g><defs><clipPath id="a"><path fill="#fff" d="M0 0h16v16H0z"/></clipPath></defs></svg>
