<svg viewBox="0 0 16 16" fill="none" xmlns="http://www.w3.org/2000/svg">
  <circle cx="8" cy="8" r="8" fill="#000"/>
  <path fill="url(#c)" d="m12.9485 10.3074-1.6508 1.5836a.3853.3853 0 0 1-.1276.0806.421.421 0 0 1-.1528.0284H3.1916a.2085.2085 0 0 1-.105-.0281.178.178 0 0 1-.0707-.075.1549.1549 0 0 1-.0131-.0974.1653.1653 0 0 1 .0487-.0879l1.652-1.5836a.3856.3856 0 0 1 .1272-.0804.4216.4216 0 0 1 .1525-.0286h7.8252a.2088.2088 0 0 1 .1051.0281.1788.1788 0 0 1 .0707.075.155.155 0 0 1 .013.0974.1645.1645 0 0 1-.0487.0879Zm-1.6508-3.189a.386.386 0 0 0-.1276-.0805.4217.4217 0 0 0-.1528-.0284H3.1916a.2082.2082 0 0 0-.105.0281.178.178 0 0 0-.0707.075.155.155 0 0 0-.0131.0974.1653.1653 0 0 0 .0487.088l1.652 1.5835a.3863.3863 0 0 0 .1272.0804c.0481.0188.1.0285.1525.0286h7.8252a.2085.2085 0 0 0 .1051-.0281.1788.1788 0 0 0 .0707-.075.155.155 0 0 0 .013-.0974.1649.1649 0 0 0-.0487-.088l-1.6508-1.5835ZM3.1917 5.981h7.8256a.4217.4217 0 0 0 .1528-.0283.3859.3859 0 0 0 .1276-.0806l1.6508-1.5836a.1648.1648 0 0 0 .0487-.0879.155.155 0 0 0-.013-.0974.1789.1789 0 0 0-.0707-.075A.2086.2086 0 0 0 12.8084 4H4.9832a.4224.4224 0 0 0-.1525.0285.3861.3861 0 0 0-.1271.0804L3.052 5.6927a.1653.1653 0 0 0-.0488.0878.155.155 0 0 0 .013.0973.1778.1778 0 0 0 .0705.075.2083.2083 0 0 0 .105.0282Z"/>
  <defs>
    <linearGradient id="c" x1="3.8441" x2="11.0439" y1="12.1907" y2="3.117" gradientUnits="userSpaceOnUse">
      <stop offset=".08" stop-color="#9945FF"/>
      <stop offset=".3" stop-color="#8752F3"/>
      <stop offset=".5" stop-color="#5497D5"/>
      <stop offset=".6" stop-color="#43B4CA"/>
      <stop offset=".72" stop-color="#28E0B9"/>
      <stop offset=".97" stop-color="#19FB9B"/>
    </linearGradient>
  </defs>
</svg>
