<svg width="24" height="24" viewBox="0 0 24 24" fill="none" xmlns="http://www.w3.org/2000/svg">
<path fill-rule="evenodd" clip-rule="evenodd" d="M16.4485 17.9161L11.9937 13.4613L7.53893 17.9161C7.47016 17.9849 7.3769 18.0235 7.27965 18.0235C7.18241 18.0235 7.08914 17.9849 7.02038 17.9161L6.07757 16.9733C6.00881 16.9045 5.97018 16.8113 5.97018 16.714C5.97018 16.6168 6.00881 16.5235 6.07757 16.4548L10.5323 12L6.07757 7.54522C6.00881 7.47646 5.97018 7.38319 5.97018 7.28595C5.97018 7.1887 6.00881 7.09544 6.07757 7.02667L7.02038 6.08387C7.08914 6.0151 7.18241 5.97647 7.27965 5.97647C7.3769 5.97647 7.47016 6.0151 7.53893 6.08387L11.9937 10.5386L16.4485 6.08387C16.5172 6.0151 16.6105 5.97647 16.7077 5.97647C16.805 5.97647 16.8983 6.0151 16.967 6.08387L17.9098 7.02668C17.9786 7.09544 18.0172 7.1887 18.0172 7.28595C18.0172 7.38319 17.9786 7.47646 17.9098 7.54522L13.4551 12L17.9098 16.4548C17.9786 16.5235 18.0172 16.6168 18.0172 16.714C18.0172 16.8113 17.9786 16.9045 17.9098 16.9733L16.967 17.9161C16.8983 17.9849 16.805 18.0235 16.7077 18.0235C16.6105 18.0235 16.5172 17.9849 16.4485 17.9161Z" fill="white" fill-opacity="0.5"/>
</svg>
