<svg id="Layer_1" data-name="Layer 1" xmlns="http://www.w3.org/2000/svg" width="340" height="201"><defs><clipPath id="clip-path"><path style="fill:none" d="M0 0h340v201H0z"/></clipPath><style>.cls-3{fill:#777;opacity:.51}.cls-8{fill:#fed2a4}.cls-9{fill:#ffbd86}.cls-10{fill:#528fd8}.cls-11{fill:#0473ce}</style></defs><g style="clip-path:url(#clip-path)"><path class="cls-3" d="M98.87 19a4.85 4.85 0 0 0 9.7-.1 4.93 4.93 0 0 0-5-4.9 4.82 4.82 0 0 0-4.7 5ZM76.87 22.3a3.4 3.4 0 0 0-.2-6.8 3.41 3.41 0 0 0-3.3 3.4 3.46 3.46 0 0 0 3.5 3.4ZM124.56 17a6.15 6.15 0 1 0 5.91-4h-.1a6.13 6.13 0 0 0-5.81 4ZM83.57 8.7a2.84 2.84 0 0 0 2.8-3 2.91 2.91 0 0 0-3-2.8 2.82 2.82 0 0 0-2.8 2.9 3 3 0 0 0 3 2.9ZM97 9.3a3.37 3.37 0 0 0 3.3-3.5 3.4 3.4 0 0 0-6.8.1A3.46 3.46 0 0 0 97 9.3ZM123.87 10.3a4.53 4.53 0 0 0 4.4-4.5 4.5 4.5 0 1 0-9 .1 4.54 4.54 0 0 0 4.6 4.4ZM111.47 18.4a5.55 5.55 0 1 0 5.7-5.4h-.1a5.49 5.49 0 0 0-5.6 5.4ZM110.27 9.8a4.08 4.08 0 0 0 3.9-4.1 4 4 0 0 0-4.1-3.9 4.06 4.06 0 0 0-3.9 4 4.17 4.17 0 0 0 4.1 4ZM246.67 45a4.12 4.12 0 0 0 4.2 4 4.1 4.1 0 0 0-.2-8.2 4.12 4.12 0 0 0-4 4.2Z"/><circle class="cls-3" cx="43.47" cy="5.8" r="1.3"/><path class="cls-3" d="M50.17 21a2.15 2.15 0 0 0-.1-4.3A2.11 2.11 0 0 0 48 18.8a2.22 2.22 0 0 0 2.17 2.2ZM30.07 6.7a.82.82 0 0 0 .8-.9A.82.82 0 0 0 30 5a.86.86 0 0 0-.8.8c.07.5.37.9.87.9ZM36.77 20.4a1.55 1.55 0 0 0-.1-3.1 1.55 1.55 0 1 0 .1 3.1ZM56.77 34.3a2.46 2.46 0 0 0 2.4-2.5 2.39 2.39 0 0 0-2.5-2.4 2.43 2.43 0 0 0-2.4 2.4 2.61 2.61 0 0 0 2.5 2.5ZM70.17 8.1a2.21 2.21 0 0 0 2.2-2.4A2.21 2.21 0 0 0 70 3.5a2.31 2.31 0 0 0-2.2 2.3 2.35 2.35 0 0 0 2.37 2.3ZM63.47 21.6a2.8 2.8 0 0 0 2.7-2.9 2.74 2.74 0 0 0-2.9-2.7 2.78 2.78 0 0 0-2.7 2.8 3 3 0 0 0 2.9 2.8ZM70.17 35a3.15 3.15 0 0 0-.1-6.3A3.12 3.12 0 0 0 67 31.8a3.22 3.22 0 0 0 3.17 3.2ZM56.77 7.6a1.71 1.71 0 0 0 1.7-1.8 1.75 1.75 0 1 0-3.5.1 1.84 1.84 0 0 0 1.8 1.7ZM43.47 33.6a1.75 1.75 0 1 0-1.8-1.7 1.77 1.77 0 0 0 1.8 1.7ZM219.47 18.8a4.5 4.5 0 1 0 4.5-4.4 4.45 4.45 0 0 0-4.5 4.4ZM217.27 9.9a4.05 4.05 0 1 0-4.2-4.1 4.2 4.2 0 0 0 4.2 4.1ZM205.67 19a5.05 5.05 0 1 0 4.9-5.2 5 5 0 0 0-4.9 5.2ZM137.37 10.7a4.87 4.87 0 0 0 4.7-4.9 4.91 4.91 0 0 0-5-4.8 4.85 4.85 0 1 0 .3 9.7ZM203.69 10.3a4.69 4.69 0 0 0 4.82-3.93A4.61 4.61 0 0 0 204.07 1H204a4.57 4.57 0 0 0-4.6 4.5 4.47 4.47 0 0 0 4.29 4.8ZM237.27 22.5a3.76 3.76 0 0 0 3.6-3.8 3.63 3.63 0 0 0-3.8-3.6 3.74 3.74 0 0 0-3.6 3.7 3.84 3.84 0 0 0 3.8 3.7ZM244 27a4.45 4.45 0 1 0 .1 0ZM250.67 21.8a2.89 2.89 0 0 0 2.9-3.1 2.89 2.89 0 0 0-3.1-2.9 3 3 0 0 0-2.9 3 3.1 3.1 0 0 0 3.1 3ZM244 8.7a2.9 2.9 0 1 0-3-2.9 3 3 0 0 0 3 2.9ZM230.67 9.3a3.54 3.54 0 0 0 3.4-3.6 3.5 3.5 0 0 0-7 .1 3.44 3.44 0 0 0 3.6 3.5ZM157.06 25.4a6.78 6.78 0 0 0 6.71-6.46 6.71 6.71 0 0 0-6.5-6.94h-.2a6.6 6.6 0 0 0-6.7 6.5 6.7 6.7 0 0 0 6.69 6.9ZM150.67 11a5.1 5.1 0 0 0 5-5.1 5.25 5.25 0 0 0-5.3-5.2 5.15 5.15 0 1 0 .3 10.3Z"/><ellipse class="cls-3" cx="143.77" cy="18.8" rx="6.6" ry="6.4"/><path class="cls-3" d="M164.07 11.1a5.28 5.28 0 0 0 5.1-5.2 5.42 5.42 0 0 0-5.4-5.3 5.25 5.25 0 1 0 .3 10.5ZM191.67 19a5.65 5.65 0 1 0 5.5-5.9 5.83 5.83 0 0 0-5.5 5.9ZM163.87 18.5a6.62 6.62 0 0 0 6.5 6.8 6.73 6.73 0 0 0 6.79-6.3 6.62 6.62 0 0 0-6.49-7h-.2a6.51 6.51 0 0 0-6.6 6.5ZM190.77 10.7a4.87 4.87 0 0 0 4.7-4.9 4.85 4.85 0 1 0-9.7.2 4.82 4.82 0 0 0 5 4.7ZM177.57 19.2a6.35 6.35 0 1 0 6.5-6.2h-.2a6.19 6.19 0 0 0-6.3 6.2ZM177.47 11a5.1 5.1 0 0 0 5-5.1 5.38 5.38 0 0 0-5.3-5.2 5.15 5.15 0 1 0 .3 10.3ZM90.27 22.9a4.1 4.1 0 1 0-.2-8.2 4.17 4.17 0 0 0-4 4.1 4.08 4.08 0 0 0 4.2 4.1ZM36.77 122.2a.7.7 0 1 0 .7.7.68.68 0 0 0-.7-.7ZM30.07 33.1a1.25 1.25 0 0 0-.1-2.5 1.22 1.22 0 0 0-1.2 1.2 1.4 1.4 0 0 0 1.3 1.3ZM36.77 148.8a.1.1 0 1 0 .1.1c0-.1 0-.1-.1-.1ZM36.77 43a1.85 1.85 0 1 0 .1 3.7 1.85 1.85 0 1 0-.1-3.7ZM36.77 69.1a1.8 1.8 0 0 0 .2 3.6 1.71 1.71 0 0 0 1.7-1.8 1.88 1.88 0 0 0-1.9-1.8ZM30.07 135.8a.1.1 0 1 0 .1.1c.1-.1 0-.1-.1-.1ZM30.07 56.6a1.3 1.3 0 1 0 1.3 1.3 1.21 1.21 0 0 0-1.3-1.3Z"/><circle class="cls-3" cx="23.37" cy="44.8" r="1.3"/><path class="cls-3" d="M30.07 82.8a1.05 1.05 0 0 0 .1 2.1 1 1 0 0 0 1-1 1.11 1.11 0 0 0-1.1-1.1ZM30.07 109.3a.6.6 0 1 0 .6.6.65.65 0 0 0-.6-.6ZM50.17 68.4a2.5 2.5 0 0 0 .2 5 2.46 2.46 0 0 0 2.4-2.5 2.63 2.63 0 0 0-2.6-2.5ZM50.17 95a2 2 0 1 0 .1 3.9 2 2 0 0 0 1.9-1.9 2.07 2.07 0 0 0-2-2ZM50.17 121.8a1.1 1.1 0 1 0 1.1 1.1 1.11 1.11 0 0 0-1.1-1.1ZM50.17 42.3a2.52 2.52 0 0 0-2.6 2.6 2.65 2.65 0 0 0 2.6 2.6 2.6 2.6 0 0 0 0-5.2ZM50.17 148.5a.4.4 0 1 0 .4.4c-.1-.2-.2-.4-.4-.4Z"/><circle class="cls-3" cx="43.47" cy="109.9" r="1"/><path class="cls-3" d="M43.47 82.2a1.65 1.65 0 0 0 .1 3.3 1.58 1.58 0 0 0 1.6-1.6 1.83 1.83 0 0 0-1.7-1.7ZM43.47 135.5a.4.4 0 1 0 .4.4c-.1-.2-.2-.4-.4-.4ZM43.47 55.9a2 2 0 1 0 .1 3.9 2 2 0 0 0 1.9-1.9 2.15 2.15 0 0 0-2-2ZM36.77 95.5a1.35 1.35 0 0 0 .1 2.7 1.32 1.32 0 0 0 1.3-1.3 1.43 1.43 0 0 0-1.4-1.4ZM3.37 31.4a.4.4 0 0 0 0 .8.4.4 0 1 0 0-.8ZM3.27 109.9c.1.1.1 0 .1 0s0-.1-.1 0Z"/><circle class="cls-3" cx="3.37" cy="5.8" r=".2"/><path class="cls-3" d="M3.37 57.5a.4.4 0 0 0 0 .8.43.43 0 0 0 .4-.4.37.37 0 0 0-.4-.4ZM3.37 83.5c-.2 0-.3.1-.3.2s.1.3.2.3h.1c.1 0 .3-.1.3-.2a.32.32 0 0 0-.3-.3ZM16.67 6.3a.5.5 0 1 0-.5-.5c.1.3.3.5.5.5ZM10.07 19.4a.6.6 0 1 0-.6-.6c-.1.4.2.6.6.6ZM23.37 19.9a1.05 1.05 0 0 0-.1-2.1 1 1 0 0 0-1 1 1.18 1.18 0 0 0 1.1 1.1Z"/><circle class="cls-3" cx="16.67" cy="31.9" r=".7"/><path class="cls-3" d="M10.07 44.1a.8.8 0 0 0 0 1.6.86.86 0 0 0 .8-.8.79.79 0 0 0-.8-.8ZM23.37 122.5a.4.4 0 1 0 .4.4.43.43 0 0 0-.4-.4Z"/><circle class="cls-3" cx="16.67" cy="57.9" r=".8"/><path class="cls-3" d="M16.67 83.3a.6.6 0 1 0 .6.6c.1-.4-.2-.6-.6-.6ZM23.37 96a.85.85 0 0 0 .1 1.7.86.86 0 0 0 .8-.8.9.9 0 0 0-.9-.9ZM16.67 109.6c-.1 0-.2.1-.2.3s.1.2.3.2.2-.1.2-.3-.1-.2-.3-.2ZM10.07 70.1a.7.7 0 1 0 .7.7.75.75 0 0 0-.7-.7ZM10.07 96.4a.4.4 0 1 0 .4.4.43.43 0 0 0-.4-.4ZM23.37 69.6a1.25 1.25 0 0 0 .1 2.5 1.22 1.22 0 0 0 1.2-1.2 1.32 1.32 0 0 0-1.3-1.3ZM10.07 122.8a.1.1 0 1 0 0 .2c.1 0 .1 0 .1-.1a.1.1 0 0 0-.1-.1ZM170.47 127.8a5 5 0 1 0-5.1-5 4.93 4.93 0 0 0 5.1 5ZM264.27 48.1a3.22 3.22 0 0 0 3.2-3.2 3.18 3.18 0 0 0-3.3-3.2A3.24 3.24 0 0 0 261 45a3.16 3.16 0 0 0 3.27 3.1ZM277.37 20.6a1.75 1.75 0 1 0-.1-3.5 1.75 1.75 0 0 0-1.7 1.7 1.93 1.93 0 0 0 1.8 1.8ZM156 112.05a6 6 0 0 0-5.73-8 6 6 0 0 0-5.82 5.54 5.93 5.93 0 0 0 5.79 6.36 6 6 0 0 0 5.76-3.9ZM163.77 116a6.3 6.3 0 0 0 6.3-6.1 6.19 6.19 0 0 0-6.09-6.4 6.32 6.32 0 0 0-6.4 5.92 6.19 6.19 0 0 0 6.09 6.58ZM56.77 161.8a.1.1 0 0 0-.1.1l.1.1a.1.1 0 0 0 .1-.1c.13 0 0-.1-.1-.1ZM270.77 7.6a1.74 1.74 0 0 0 1.7-1.9 1.74 1.74 0 0 0-1.9-1.7 1.71 1.71 0 0 0-1.7 1.8 1.88 1.88 0 0 0 1.9 1.8ZM277.47 47.3a2.5 2.5 0 1 0-.2-5 2.46 2.46 0 0 0-2.4 2.5 2.5 2.5 0 0 0 2.6 2.5ZM264.07 21.2a2.35 2.35 0 1 0-2.4-2.4 2.43 2.43 0 0 0 2.4 2.4ZM270.77 34.7a2.88 2.88 0 0 0 2.8-2.9 3 3 0 0 0-2.9-2.8 2.86 2.86 0 0 0-2.8 2.8 2.9 2.9 0 0 0 2.9 2.9ZM157.07 127.7a4.8 4.8 0 1 0-4.9-4.8 4.87 4.87 0 0 0 4.9 4.8ZM116 38.3a6.69 6.69 0 0 0 3.2 13 6.77 6.77 0 0 0 4.9-4.9 6.8 6.8 0 0 0 8.5 4.8 6.67 6.67 0 0 0 4.8-4.8 6.8 6.8 0 0 0 8.5 4.8 6.67 6.67 0 0 0 4.8-4.8 6.8 6.8 0 0 0 8.5 4.8 7 7 0 0 0 4.8-4.8 6.8 6.8 0 0 0 8.5 4.8 6.67 6.67 0 0 0 4.8-4.8 6.8 6.8 0 0 0 8.5 4.8 6.67 6.67 0 0 0 4.8-4.8 6.9 6.9 0 0 0 13.3 0 6.87 6.87 0 0 0 13.4-3 6.88 6.88 0 0 0-6.7-5.3 7 7 0 0 0-6.7 5.1 6.9 6.9 0 0 0-13.3 0 6.8 6.8 0 0 0-8.5-4.8 6.67 6.67 0 0 0-4.8 4.8 6.8 6.8 0 0 0-8.5-4.8 6.67 6.67 0 0 0-4.8 4.8 6.8 6.8 0 0 0-8.5-4.8 7 7 0 0 0-4.8 4.8 6.8 6.8 0 0 0-8.5-4.8 6.67 6.67 0 0 0-4.8 4.8 6.8 6.8 0 0 0-8.5-4.8 6.67 6.67 0 0 0-4.8 4.8 6.68 6.68 0 0 0-8.1-4.9ZM137.07 105a5.36 5.36 0 0 0-5.4 5.3 5.45 5.45 0 1 0 5.6-5.3ZM177.17 116a6.28 6.28 0 0 0 6.4-6.2 6.43 6.43 0 0 0-8.19-6.35 6.36 6.36 0 0 0-4.31 4.18A6.44 6.44 0 0 0 177 116Z"/><path class="cls-3" d="M211.47 103.2a6.39 6.39 0 1 0-7.4-7 6.9 6.9 0 0 0-7.8-5.9 7 7 0 0 0-5.7 5 6.8 6.8 0 0 0-8.5-4.8 6.67 6.67 0 0 0-4.8 4.8 6.8 6.8 0 0 0-8.5-4.8 6.67 6.67 0 0 0-4.8 4.8 6.8 6.8 0 0 0-8.5-4.8 7 7 0 0 0-4.8 4.8 6.91 6.91 0 0 0-13.5.9 6.39 6.39 0 1 0 0 1.5 6.9 6.9 0 0 0 7.8 5.9 7 7 0 0 0 5.7-5 6.8 6.8 0 0 0 8.5 4.8 7 7 0 0 0 4.8-4.8 6.8 6.8 0 0 0 8.5 4.8 6.67 6.67 0 0 0 4.8-4.8 6.8 6.8 0 0 0 8.5 4.8 6.67 6.67 0 0 0 4.8-4.8 6.91 6.91 0 0 0 13.5-.9 6.55 6.55 0 0 0 7.4 5.5ZM124.37 38.1a6.24 6.24 0 0 0 5.8-5.8 7 7 0 0 0 7.6 6.2 7.06 7.06 0 0 0 6-5.1 6.8 6.8 0 0 0 8.5 4.8 6.67 6.67 0 0 0 4.8-4.8 6.9 6.9 0 0 0 13.3 0 6.9 6.9 0 0 0 13.3 0 6.8 6.8 0 0 0 8.5 4.8 6.67 6.67 0 0 0 4.8-4.8 6.69 6.69 0 1 0 4.9-8.1 6.77 6.77 0 0 0-4.9 4.9 6.9 6.9 0 0 0-13.3 0 6.8 6.8 0 0 0-8.5-4.8 6.67 6.67 0 0 0-4.8 4.8 6.8 6.8 0 0 0-8.5-4.8 7 7 0 0 0-4.8 4.8 6.9 6.9 0 0 0-13.3 0 6.8 6.8 0 0 0-8.5-4.8 6.94 6.94 0 0 0-5.1 6 6.37 6.37 0 0 0-6.8-5.9 6.32 6.32 0 1 0 1 12.6Z"/><path class="cls-3" d="M203.87 116a5.91 5.91 0 0 0 6-5.8 6 6 0 1 0-6.2 5.8ZM190.47 116a6.19 6.19 0 0 0 6.3-6.2 6.35 6.35 0 1 0-6.5 6.2ZM183.87 127.8a4.9 4.9 0 0 0-.2-9.8 4.9 4.9 0 0 0 .2 9.8ZM197.17 127.6a4.76 4.76 0 0 0 4.6-4.8 4.7 4.7 0 0 0-9.4.1 4.78 4.78 0 0 0 4.8 4.7ZM246.27 71a4.48 4.48 0 0 0 4.6 4.4 4.6 4.6 0 0 0 4.4-4.5 4.5 4.5 0 1 0-9 .1ZM324.17 58.7a.85.85 0 1 0-.1-1.7.82.82 0 0 0-.8.9 1.06 1.06 0 0 0 .9.8Z"/><circle class="cls-3" cx="310.87" cy="5.8" r=".5"/><path class="cls-3" d="M317.57 45.6a.7.7 0 1 0-.7-.7c-.1.4.3.7.7.7ZM324.17 32.4a.6.6 0 1 0-.6-.6q.15.6.6.6ZM317.57 19.2a.4.4 0 1 0-.4-.4c0 .3.1.4.4.4Z"/><circle class="cls-3" cx="324.17" cy="5.8" r=".2"/><path class="cls-3" d="M330.87 19a.1.1 0 1 0-.1-.1.1.1 0 0 0 .1.1ZM337.57 58.3a.4.4 0 1 0-.4-.4.43.43 0 0 0 .4.4ZM330.87 45.2a.4.4 0 1 0-.4-.4c.1.3.2.4.4.4ZM310.87 59.2a1.28 1.28 0 0 0 1.3-1.4c-.1-.7-.7-1.4-1.4-1.3a1.35 1.35 0 0 0 .1 2.7ZM290.77 20.1a1.25 1.25 0 0 0-.1-2.5 1.22 1.22 0 0 0-1.2 1.2 1.4 1.4 0 0 0 1.3 1.3ZM257.37 35.4a3.6 3.6 0 0 0-.2-7.2 3.63 3.63 0 0 0-3.5 3.6 3.55 3.55 0 0 0 3.7 3.6ZM290.77 46.7a1.85 1.85 0 1 0-.1-3.7 1.79 1.79 0 0 0-1.8 1.8 1.9 1.9 0 0 0 1.9 1.9ZM284.07 7.1a1.3 1.3 0 1 0-1.3-1.3 1.26 1.26 0 0 0 1.3 1.3ZM297.47 6.7a.77.77 0 0 0 .8-.9.77.77 0 0 0-.9-.8.82.82 0 0 0-.8.9.88.88 0 0 0 .9.8ZM284.07 34a2.15 2.15 0 1 0-2.2-2.1 2.14 2.14 0 0 0 2.2 2.1ZM310.87 32.8a1 1 0 1 0 0-2 1.08 1.08 0 0 0-1 1 .86.86 0 0 0 1 1ZM304.17 19.6a.75.75 0 1 0-.1-1.5.71.71 0 0 0-.7.8.77.77 0 0 0 .8.7ZM304.17 46.1a1.25 1.25 0 0 0-.1-2.5 1.22 1.22 0 0 0-1.2 1.2 1.32 1.32 0 0 0 1.3 1.3ZM297.47 33.4a1.55 1.55 0 1 0-.1-3.1 1.54 1.54 0 0 0-1.5 1.5 1.58 1.58 0 0 0 1.6 1.6Z"/><ellipse class="cls-3" cx="110.27" cy="83.9" rx="5.7" ry="5.6"/><path class="cls-3" d="M97 88.5a4.59 4.59 0 0 0 4.5-4.7 4.6 4.6 0 0 0-9.2.1 4.55 4.55 0 0 0 4.7 4.6Z"/><ellipse class="cls-3" cx="103.57" cy="96.9" rx="5" ry="4.8"/><path class="cls-3" d="M117 102.5a5.65 5.65 0 1 0-5.8-5.7 5.85 5.85 0 0 0 5.8 5.7ZM88 58.5a4.37 4.37 0 0 0-4.3-4.5h-.12a4.21 4.21 0 0 0-3.63 1.93 4.4 4.4 0 1 0 8 2.57ZM76.87 75a4.1 4.1 0 0 0-.2-8.2 4.1 4.1 0 0 0 .2 8.2ZM66.67 57.9a3.5 3.5 0 0 0 7 .2 3.5 3.5 0 0 0-7-.2ZM123.67 114.5a4.65 4.65 0 1 0-4.8-4.6 4.69 4.69 0 0 0 4.8 4.6ZM90.07 76h.1a5.19 5.19 0 0 0 5.2-5 5.15 5.15 0 1 0-10.3-.3 5.21 5.21 0 0 0 5 5.3ZM244 89a5.48 5.48 0 0 0 5.37-6.75 5.14 5.14 0 0 0-2.86-3.58 5.52 5.52 0 0 0-7.21 7.73 4.9 4.9 0 0 0 4.39 2.6ZM257.37 88a4.5 4.5 0 0 0 .34-9 4.53 4.53 0 0 0-4.71 3.59 4.47 4.47 0 0 0 4.3 5.41ZM264.07 74a3.69 3.69 0 1 0-.36-7.37 3.78 3.78 0 0 0-2.71 5.68 3.57 3.57 0 0 0 3 1.69ZM250.67 100.9a4 4 0 1 0-4.1-4 4 4 0 0 0 4.1 4ZM257.37 8.2A2.35 2.35 0 1 0 255 5.8a2.43 2.43 0 0 0 2.37 2.4Z"/><ellipse class="cls-3" cx="217.27" cy="109.9" rx="5.5" ry="5.4"/><path class="cls-3" d="M224 102a5.75 5.75 0 0 0 .11-11.5 5.82 5.82 0 0 0-5.9 5.4 5.71 5.71 0 0 0 5.59 6.1ZM230.67 114.7a4.8 4.8 0 1 0-4.9-4.8 4.87 4.87 0 0 0 4.9 4.8ZM72.57 44.8a4.3 4.3 0 1 0 4.3-4.2 4.31 4.31 0 0 0-4.3 4.2ZM237.27 102a4.82 4.82 0 0 0 4.9-4.8 5 5 0 0 0-6.22-5 5 5 0 0 0 1.12 9.75ZM244.17 52H244a5.55 5.55 0 1 0 5.6 5.7 5.64 5.64 0 0 0-5.43-5.7ZM125.87 64.3a6.77 6.77 0 0 0 4.9-4.9 6.8 6.8 0 0 0 8.5 4.8 6.67 6.67 0 0 0 4.8-4.8 6.8 6.8 0 0 0 8.5 4.8 6.67 6.67 0 0 0 4.8-4.8 6.9 6.9 0 0 0 13.3 0 6.9 6.9 0 0 0 13.3 0 6.8 6.8 0 0 0 8.5 4.8 6.67 6.67 0 0 0 4.8-4.8 6.8 6.8 0 0 0 8.5 4.8 7 7 0 0 0 4.8-4.8 6.8 6.8 0 0 0 8.5 4.8 6.88 6.88 0 0 0 5-5.6 6.41 6.41 0 1 0 0-1.7 6.92 6.92 0 0 0-13.5-.7 6.8 6.8 0 0 0-8.5-4.8 7 7 0 0 0-4.8 4.8 6.8 6.8 0 0 0-8.5-4.8 7 7 0 0 0-4.8 4.8 6.9 6.9 0 0 0-13.3 0 6.8 6.8 0 0 0-8.5-4.8 7 7 0 0 0-4.8 4.8 6.8 6.8 0 0 0-8.5-4.8 7 7 0 0 0-4.8 4.8 6.8 6.8 0 0 0-8.5-4.8 6.67 6.67 0 0 0-4.8 4.8 6.69 6.69 0 1 0-4.9 8.1ZM102.27 58.5a5.36 5.36 0 0 0-5.2-5.5H97a5.35 5.35 0 0 0-.2 10.7 5.42 5.42 0 0 0 5.47-5.2ZM110.27 64a6.28 6.28 0 0 0 6.4-6.2 6.43 6.43 0 0 0-8.19-6.35 6.36 6.36 0 0 0-4.31 4.18 6.44 6.44 0 0 0 5.9 8.37ZM230.67 90.1a6.2 6.2 0 1 0-6.4-6.2 6.34 6.34 0 0 0 6.4 6.2ZM103.57 76.9a6.05 6.05 0 1 0-6.2-6 6.1 6.1 0 0 0 6.2 6Z"/><path class="cls-3" d="M230.67 70.9a6.7 6.7 0 0 0-6.9-6.5 6.82 6.82 0 0 0-6.4 5.3 7.09 7.09 0 0 0-8.2-5.4 7 7 0 0 0-5.3 4.9 6.9 6.9 0 0 0-13.3 0 6.8 6.8 0 0 0-8.5-4.8 6.67 6.67 0 0 0-4.8 4.8 6.8 6.8 0 0 0-8.5-4.8 6.67 6.67 0 0 0-4.8 4.8 6.8 6.8 0 0 0-8.5-4.8 7 7 0 0 0-4.8 4.8 6.9 6.9 0 0 0-13.3 0 6.8 6.8 0 0 0-8.5-4.8 6.67 6.67 0 0 0-4.8 4.8 6.69 6.69 0 1 0-4.9 8.1 6.77 6.77 0 0 0 4.9-4.9 6.8 6.8 0 0 0 8.5 4.8 6.67 6.67 0 0 0 4.8-4.8 6.8 6.8 0 0 0 8.5 4.8 6.67 6.67 0 0 0 4.8-4.8 6.8 6.8 0 0 0 8.5 4.8 7 7 0 0 0 4.8-4.8 6.9 6.9 0 0 0 13.3 0 6.8 6.8 0 0 0 8.5 4.8 6.67 6.67 0 0 0 4.8-4.8 6.8 6.8 0 0 0 8.5 4.8 6.67 6.67 0 0 0 4.8-4.8 6.89 6.89 0 0 0 13.4-.5 6.88 6.88 0 0 0 8 5.2 6.42 6.42 0 0 0 5.4-6.2Z"/><path class="cls-3" d="M237.27 76a5.51 5.51 0 0 0 5.6-5.5 5.65 5.65 0 1 0-5.8 5.5ZM257.27 62h.1a4.5 4.5 0 1 0-4.5-4.6 4.54 4.54 0 0 0 4.4 4.6ZM217.27 77.2a7 7 0 0 0-6.7 5.1 6.8 6.8 0 0 0-8.5-4.8 7 7 0 0 0-4.8 4.8 6.9 6.9 0 0 0-13.3 0 6.8 6.8 0 0 0-8.5-4.8 6.67 6.67 0 0 0-4.8 4.8 6.9 6.9 0 0 0-13.3 0 6.9 6.9 0 0 0-13.3 0 6.89 6.89 0 0 0-13.4.5 6.51 6.51 0 1 0-5.2 7.6 6.63 6.63 0 0 0 5.2-5.2 7.09 7.09 0 0 0 8.2 5.4 7 7 0 0 0 5.3-4.9 6.8 6.8 0 0 0 8.5 4.8 6.67 6.67 0 0 0 4.8-4.8 6.8 6.8 0 0 0 8.5 4.8 7 7 0 0 0 4.8-4.8 6.8 6.8 0 0 0 8.5 4.8 7 7 0 0 0 4.8-4.8 6.8 6.8 0 0 0 8.5 4.8 6.67 6.67 0 0 0 4.8-4.8 6.8 6.8 0 0 0 8.5 4.8 7 7 0 0 0 4.8-4.8 6.87 6.87 0 0 0 13.4-3 6.92 6.92 0 0 0-6.8-5.5ZM237.27 39.9a5 5 0 1 0 5.1 4.9 5 5 0 0 0-5.1-4.9ZM97.07 27H97a4.78 4.78 0 1 0 .11 0ZM97.27 44.6a6.25 6.25 0 0 0 6.1 6.4h.2a6.15 6.15 0 0 0 6.2-6.1 6.25 6.25 0 1 0-12.5-.3ZM110.47 26h-.2a5.61 5.61 0 0 0-5.7 5.6 5.72 5.72 0 0 0 5.59 5.9 5.82 5.82 0 0 0 5.9-5.4 5.72 5.72 0 0 0-5.59-6.1ZM90.27 40A5.3 5.3 0 0 0 85 45.1a5.24 5.24 0 0 0 5 5.39 5.32 5.32 0 0 0 5.51-4.91A5.25 5.25 0 0 0 90.37 40ZM83.57 27.9a3.9 3.9 0 0 0 .2 7.8 4 4 0 0 0 3.8-3.9 4 4 0 0 0-4-3.9ZM230.67 26.6a5.25 5.25 0 1 0 5.4 5.3 5.42 5.42 0 0 0-5.4-5.3ZM217.87 44.4a6.13 6.13 0 0 0 5.9 6.3c.1.1.1.1.2.1a6 6 0 0 0 6.1-6 6.1 6.1 0 1 0-12.2-.4ZM217.47 26h-.2a6.15 6.15 0 0 0-6.2 6.1 6.25 6.25 0 1 0 6.4-6.1ZM250.67 147.3a1.65 1.65 0 0 0 .1 3.3 1.58 1.58 0 0 0 1.6-1.6 1.69 1.69 0 0 0-1.7-1.7ZM277.47 148a.92.92 0 0 0-.9 1c0 .6.4.9 1 .9a.9.9 0 0 0 .9-.9 1.07 1.07 0 0 0-1-1Z"/><circle class="cls-3" cx="257.37" cy="161.9" r="1"/><path class="cls-3" d="M257.37 106.4a3.5 3.5 0 1 0 3.6 3.5 3.5 3.5 0 0 0-3.6-3.5ZM264.07 174.6a.43.43 0 0 0-.4.4c0 .2.2.4.4.3s.3-.2.3-.4a.27.27 0 0 0-.3-.3ZM250.67 174.4a.55.55 0 1 0 .1 1.1.47.47 0 0 0 .5-.5.58.58 0 0 0-.6-.6ZM244 133.2a2.65 2.65 0 1 0 2.7 2.6 2.61 2.61 0 0 0-2.7-2.6ZM244 105.7a4.15 4.15 0 1 0 4.3 4.2 4.31 4.31 0 0 0-4.3-4.2ZM257.37 187.7a.2.2 0 1 0 .2.2.22.22 0 0 0-.2-.2ZM250.67 120a2.9 2.9 0 0 0 .2 5.8 2.82 2.82 0 0 0 2.8-2.9 3 3 0 0 0-3-2.9ZM264.07 147.6a1.25 1.25 0 1 0 1.3 1.2 1.31 1.31 0 0 0-1.3-1.2ZM264.07 120.6a2.35 2.35 0 1 0 2.4 2.4 2.31 2.31 0 0 0-2.4-2.4ZM270.77 54.3a3.48 3.48 0 0 0-3.4 3.6 3.5 3.5 0 0 0 7-.1 3.63 3.63 0 0 0-3.6-3.5ZM277.47 174.7a.2.2 0 1 0 .2.2.22.22 0 0 0-.2-.2ZM270.77 107a2.85 2.85 0 1 0 2.9 2.9 2.88 2.88 0 0 0-2.9-2.9ZM270.77 80.3a3.48 3.48 0 0 0-3.4 3.6 3.5 3.5 0 0 0 7-.1 3.63 3.63 0 0 0-3.6-3.5ZM270.67 187.9c0 .1 0 .1.1.1s.1 0 .1-.1l-.1-.1c-.1 0-.1 0-.1.1ZM264.07 93.6a3.25 3.25 0 1 0 3.3 3.3 3.33 3.33 0 0 0-3.3-3.3ZM270.77 161.1a.8.8 0 1 0 .8.8.86.86 0 0 0-.8-.8ZM270.77 134.1a1.8 1.8 0 0 0 .2 3.6 1.71 1.71 0 0 0 1.7-1.8 2 2 0 0 0-1.9-1.8ZM257.37 133.7a2.25 2.25 0 0 0 .1 4.5 2.25 2.25 0 0 0-.1-4.5ZM244 160.7a1.25 1.25 0 1 0 1.3 1.2 1.18 1.18 0 0 0-1.3-1.2ZM217.27 160.3a1.65 1.65 0 1 0 1.7 1.6 1.6 1.6 0 0 0-1.7-1.6ZM217.27 132.5a3.35 3.35 0 1 0 .1 6.7 3.35 3.35 0 1 0-.1-6.7ZM210.57 118.5a4.35 4.35 0 1 0 4.5 4.3 4.44 4.44 0 0 0-4.5-4.3ZM210.57 200.8a.1.1 0 1 0 0 .2c.1 0 .1 0 .1-.1a.1.1 0 0 0-.1-.1ZM210.57 173.9a1 1 0 1 0 1 .9 1.07 1.07 0 0 0-1-.9ZM224 174.1a.85.85 0 1 0 .1 1.7.85.85 0 0 0-.1-1.7ZM210.57 146.5a2.45 2.45 0 1 0 2.5 2.4 2.34 2.34 0 0 0-2.5-2.4ZM217.27 187.5a.4.4 0 1 0 .4.4.43.43 0 0 0-.4-.4ZM237.27 147a2 2 0 0 0 .1 3.9 2 2 0 0 0 1.9-1.9 1.94 1.94 0 0 0-2-2ZM224 146.7a2.25 2.25 0 1 0 .1 4.5 2.22 2.22 0 0 0 2.2-2.2 2.33 2.33 0 0 0-2.3-2.3ZM237.27 174.2a.7.7 0 1 0 .7.7.68.68 0 0 0-.7-.7ZM244 187.6a.3.3 0 1 0 .3.3.32.32 0 0 0-.3-.3ZM237.27 119.5a3.4 3.4 0 1 0 .2 6.8 3.41 3.41 0 0 0 3.3-3.4 3.34 3.34 0 0 0-3.5-3.4ZM230.67 187.6a.4.4 0 1 0 .4.4c-.07-.3-.2-.4-.4-.4ZM224 119a3.9 3.9 0 0 0 .2 7.8 4 4 0 0 0 3.8-3.9 3.87 3.87 0 0 0-4-3.9ZM230.67 132.9a3 3 0 1 0 .2 6 3 3 0 0 0 2.9-3 3 3 0 0 0-3.1-3ZM230.67 160.4a1.39 1.39 0 0 0-1.4 1.5 1.45 1.45 0 1 0 2.9-.1 1.52 1.52 0 0 0-1.5-1.4ZM277.37 68a2.8 2.8 0 1 0 2.9 2.8 2.88 2.88 0 0 0-2.9-2.8ZM304.17 122a.85.85 0 1 0 .1 1.7.82.82 0 0 0 .8-.9.88.88 0 0 0-.9-.8ZM310.87 82.4a1.45 1.45 0 0 0 .1 2.9 1.43 1.43 0 0 0 1.4-1.4 1.61 1.61 0 0 0-1.5-1.5ZM310.87 108.8a1.1 1.1 0 1 0 1.1 1.1 1.11 1.11 0 0 0-1.1-1.1Z"/><circle class="cls-3" cx="317.57" cy="122.9" r=".5"/><path class="cls-3" d="M304.17 69.4a1.45 1.45 0 0 0 .1 2.9 1.43 1.43 0 0 0 1.4-1.4 1.54 1.54 0 0 0-1.5-1.5ZM317.57 96a.85.85 0 0 0 .1 1.7.86.86 0 0 0 .8-.8 1.06 1.06 0 0 0-.9-.9ZM310.87 135.3a.6.6 0 1 0 .6.6.65.65 0 0 0-.6-.6ZM304.17 95.5a1.35 1.35 0 0 0 .1 2.7 1.32 1.32 0 0 0 1.3-1.3 1.43 1.43 0 0 0-1.4-1.4ZM310.87 161.8a.1.1 0 1 0 .1.1c.03-.1.03-.1-.1-.1ZM317.47 148.9l.1.1a.1.1 0 0 0 .1-.1l-.1-.1a.1.1 0 0 0-.1.1ZM330.87 96.4a.4.4 0 1 0 .4.4c.1-.2-.1-.4-.4-.4Z"/><circle class="cls-3" cx="330.87" cy="70.9" r=".5"/><circle class="cls-3" cx="337.57" cy="83.9" r=".5"/><circle class="cls-3" cx="330.87" cy="122.9" r=".2"/><path class="cls-3" d="M317.57 69.9a.92.92 0 0 0-.9 1c0 .6.4.9 1 .9a.9.9 0 0 0 .9-.9 1.07 1.07 0 0 0-1-1ZM324.17 135.6a.32.32 0 0 0-.3.3.45.45 0 0 0 .3.3.27.27 0 0 0 .3-.3c.1-.2-.1-.3-.3-.3ZM324.17 161.9c.1.1.1 0 0 0Z"/><circle class="cls-3" cx="324.17" cy="109.9" r=".7"/><path class="cls-3" d="M324.17 83a.9.9 0 1 0 .9.9c.1-.5-.4-.9-.9-.9ZM203.87 132.3a3.6 3.6 0 1 0 .2 7.2 3.63 3.63 0 0 0 3.5-3.6 3.67 3.67 0 0 0-3.7-3.6ZM284.07 81.1a2.75 2.75 0 1 0 2.8 2.8 2.73 2.73 0 0 0-2.8-2.8ZM284.07 107.6a2.25 2.25 0 1 0 .1 4.5 2.22 2.22 0 0 0 2.2-2.2 2.26 2.26 0 0 0-2.3-2.3ZM284.07 134.5a1.28 1.28 0 0 0-1.3 1.4c.1.7.7 1.4 1.4 1.3a1.35 1.35 0 1 0-.1-2.7ZM290.77 148.3a.6.6 0 1 0 .6.6.58.58 0 0 0-.6-.6ZM290.77 174.8a.1.1 0 0 0 0 .2c.1 0 .1 0 .1-.1a.1.1 0 0 0-.1-.1ZM277.47 94.4a2.55 2.55 0 1 0 2.6 2.6 2.56 2.56 0 0 0-2.6-2.6ZM284.07 161.4a.55.55 0 1 0 .1 1.1.47.47 0 0 0 .5-.5.58.58 0 0 0-.6-.6ZM304.17 148.5c-.2 0-.4.2-.3.4s.2.4.4.3.3-.2.3-.4a.45.45 0 0 0-.4-.3ZM284.07 60.6a2.7 2.7 0 1 0-2.8-2.7 2.84 2.84 0 0 0 2.8 2.7ZM277.37 121.1a1.8 1.8 0 1 0 .2 3.6 1.71 1.71 0 0 0 1.7-1.8 1.82 1.82 0 0 0-1.9-1.8ZM297.47 108.3a1.65 1.65 0 1 0 .1 3.3 1.58 1.58 0 0 0 1.6-1.6 1.63 1.63 0 0 0-1.7-1.7ZM297.47 134.9a1 1 0 0 0 .1 1.9 1.07 1.07 0 0 0 1-1 1.3 1.3 0 0 0-1.1-.9ZM297.47 81.8a2.05 2.05 0 0 0 .1 4.1 2.05 2.05 0 0 0-.1-4.1ZM297.47 161.6a.3.3 0 1 0 0 .6.3.3 0 0 0 0-.6ZM297.47 59.9a2.05 2.05 0 0 0-.1-4.1 2 2 0 0 0-2 2 2.11 2.11 0 0 0 2.1 2.1ZM290.77 95a1.85 1.85 0 0 0 .1 3.7 1.88 1.88 0 0 0 1.8-1.9 1.82 1.82 0 0 0-1.9-1.8ZM290.77 121.6a1.35 1.35 0 0 0 .1 2.7 1.32 1.32 0 0 0 1.3-1.3 1.26 1.26 0 0 0-1.4-1.4ZM290.77 68.8a2 2 0 0 0-2 2.1 2.05 2.05 0 0 0 4.1-.1 2 2 0 0 0-2.1-2ZM183.77 200.9a.1.1 0 0 0 .1.1c.1 0 .1 0 .1-.1l-.1-.1a.1.1 0 0 0-.1.1ZM97 161.2a.7.7 0 1 0 .7.7.75.75 0 0 0-.7-.7ZM123.67 187.7a.2.2 0 1 0 .2.2.22.22 0 0 0-.2-.2ZM97 134a2 2 0 1 0 .1 3.9A2 2 0 0 0 99 136a2.07 2.07 0 0 0-2-2ZM97 106.6a3.3 3.3 0 1 0 .2 6.6 3.24 3.24 0 0 0 3.2-3.3 3.35 3.35 0 0 0-3.4-3.3ZM90.27 120.3a2.6 2.6 0 1 0 .2 5.2 2.56 2.56 0 0 0 2.5-2.6 2.73 2.73 0 0 0-2.7-2.6ZM90.27 174.6a.3.3 0 1 0 .3.3.45.45 0 0 0-.3-.3ZM83.57 134.4a1.45 1.45 0 0 0 .1 2.9 1.45 1.45 0 0 0 1.4-1.5 1.52 1.52 0 0 0-1.5-1.4ZM103.57 174.5a.4.4 0 1 0 .4.4c.1-.2-.1-.4-.4-.4ZM90.27 147.6a1.25 1.25 0 1 0 1.3 1.2 1.31 1.31 0 0 0-1.3-1.2ZM83.57 107.2a2.65 2.65 0 1 0 2.7 2.6 2.67 2.67 0 0 0-2.7-2.6ZM117 174.3a.6.6 0 1 0 .6.6.58.58 0 0 0-.6-.6ZM117 147a2 2 0 0 0 .1 3.9 2 2 0 0 0 1.9-1.9 1.94 1.94 0 0 0-2-2ZM103.57 147.3a1.55 1.55 0 1 0 1.6 1.5 1.49 1.49 0 0 0-1.6-1.5ZM110.37 105.8a4.1 4.1 0 1 0-.2 8.2h.1a4.1 4.1 0 0 0 4.1-4 4 4 0 0 0-4-4.2ZM117 119.2a3.7 3.7 0 1 0 3.8 3.7 3.71 3.71 0 0 0-3.8-3.7ZM110.27 187.8a.1.1 0 1 0 0 .2c.1 0 .1 0 .1-.1a.1.1 0 0 0-.1-.1ZM103.57 119.8a3.2 3.2 0 0 0-3.1 3.2 3.05 3.05 0 0 0 3.2 3 3.12 3.12 0 0 0 3.1-3.1 3 3 0 0 0-3.2-3.1ZM110.27 133.6a2.35 2.35 0 1 0 2.4 2.4 2.31 2.31 0 0 0-2.4-2.4ZM110.27 161a.92.92 0 0 0-.9 1c0 .6.4.9 1 .9a.9.9 0 0 0 .9-.9.94.94 0 0 0-1-1ZM90.27 92.8a4.05 4.05 0 1 0 4.2 4.1 4.27 4.27 0 0 0-4.2-4.1ZM63.47 67.6a3.3 3.3 0 1 0 .2 6.6 3.24 3.24 0 0 0 3.2-3.3 3.29 3.29 0 0 0-3.4-3.3Z"/><circle class="cls-3" cx="83.57" cy="161.9" r=".5"/><path class="cls-3" d="M63.47 94.3a2.52 2.52 0 0 0-2.6 2.6 2.65 2.65 0 0 0 2.6 2.6 2.58 2.58 0 0 0 2.6-2.6 2.52 2.52 0 0 0-2.6-2.6ZM63.47 174.9c.1.1.1 0 0 0ZM63.47 148.3a.6.6 0 1 0 .6.6c.1-.3-.2-.6-.6-.6ZM63.47 48.2a3.35 3.35 0 0 0-.1-6.7 3.35 3.35 0 1 0 .1 6.7ZM56.77 81.6a2.25 2.25 0 1 0 .1 4.5 2.22 2.22 0 0 0 2.2-2.2 2.26 2.26 0 0 0-2.3-2.3ZM56.77 108.4a1.55 1.55 0 0 0 .1 3.1 1.54 1.54 0 0 0 1.5-1.5 1.52 1.52 0 0 0-1.6-1.6ZM56.77 55.3a2.6 2.6 0 0 0 .2 5.2 2.6 2.6 0 0 0-.2-5.2ZM63.47 121.3a1.55 1.55 0 1 0 .1 3.1 1.54 1.54 0 0 0 1.5-1.5 1.58 1.58 0 0 0-1.6-1.6ZM70.17 161.7c-.1 0-.2.1-.2.3s.1.2.3.2.2-.1.2-.3-.1-.2-.3-.2ZM76.87 148a.9.9 0 1 0 .9.9.9.9 0 0 0-.9-.9ZM76.87 93.6a3.3 3.3 0 1 0 .2 6.6 3.24 3.24 0 0 0 3.2-3.3 3.41 3.41 0 0 0-3.4-3.3ZM87.17 83.7a3.72 3.72 0 0 0-3.9-3.6 3.76 3.76 0 0 0-3.6 3.8 3.87 3.87 0 0 0 3.9 3.7 3.72 3.72 0 0 0 3.6-3.9ZM76.87 120.8a2.05 2.05 0 0 0 .1 4.1 2.05 2.05 0 0 0-.1-4.1ZM70.17 107.8a2.05 2.05 0 1 0 .1 4.1 2.05 2.05 0 0 0-.1-4.1ZM76.87 174.8a.1.1 0 1 0 .1.1c.03-.1.03-.1-.1-.1ZM70.17 134.9a1.05 1.05 0 1 0 .1 2.1 1.05 1.05 0 1 0-.1-2.1ZM203.87 160.1a1.75 1.75 0 1 0 1.8 1.7 1.77 1.77 0 0 0-1.8-1.7ZM70.17 80.9a3 3 0 1 0 3 2.9 2.93 2.93 0 0 0-3-2.9ZM170.47 146.2a2.7 2.7 0 1 0 2.8 2.7 2.84 2.84 0 0 0-2.8-2.7ZM177.17 160.1a1.8 1.8 0 0 0 .2 3.6 1.71 1.71 0 0 0 1.7-1.8 2 2 0 0 0-1.9-1.8Z"/><circle class="cls-3" cx="177.17" cy="188" r=".5"/><path class="cls-3" d="M163.77 187.5a.4.4 0 1 0 .4.4c.1-.2-.1-.4-.4-.4ZM177.17 132.1a3.88 3.88 0 0 0-3.9 3.8 3.82 3.82 0 0 0 3.9 3.8 3.88 3.88 0 0 0 3.9-3.8 4 4 0 0 0-3.9-3.8ZM163.77 160.2a1.75 1.75 0 0 0 .1 3.5 1.75 1.75 0 0 0 1.7-1.7 1.73 1.73 0 0 0-1.8-1.8ZM170.47 173.9a1.05 1.05 0 1 0 .1 2.1 1 1 0 0 0 1-1 1 1 0 0 0-1.1-1.1ZM163.77 132.3a3.6 3.6 0 1 0 .2 7.2 3.6 3.6 0 0 0-.2-7.2ZM170.47 200.8c-.1 0-.1 0-.1.1s0 .1.1.1.1 0 .1-.1a.1.1 0 0 0-.1-.1ZM56.77 135.2a.7.7 0 1 0 .7.7.68.68 0 0 0-.7-.7ZM197.17 173.9a1.05 1.05 0 0 0 .1 2.1 1 1 0 0 0 1-1 1 1 0 0 0-1.1-1.1ZM123.67 160.7a1.2 1.2 0 1 0 1.2 1.2 1.16 1.16 0 0 0-1.2-1.2Z"/><circle class="cls-3" cx="203.87" cy="188" r=".5"/><path class="cls-3" d="M197.17 200.8a.1.1 0 0 0 0 .2c.1 0 .1 0 .1-.1a.1.1 0 0 0-.1-.1ZM190.47 187.4a.5.5 0 1 0 .5.5c.1-.3-.2-.5-.5-.5ZM183.87 146.2a2.7 2.7 0 1 0 2.8 2.7 2.84 2.84 0 0 0-2.8-2.7ZM183.87 173.8a1.1 1.1 0 1 0 1.1 1.1 1.11 1.11 0 0 0-1.1-1.1ZM190.47 132.1a3.88 3.88 0 0 0-3.9 3.8 3.82 3.82 0 0 0 3.9 3.8 3.88 3.88 0 0 0 3.9-3.8 3.82 3.82 0 0 0-3.9-3.8ZM190.47 160.1a1.74 1.74 0 0 0-1.7 1.9 1.79 1.79 0 0 0 1.9 1.7 1.71 1.71 0 0 0 1.7-1.8 1.82 1.82 0 0 0-1.9-1.8ZM197.17 146.3a2.65 2.65 0 1 0 2.7 2.7 2.63 2.63 0 0 0-2.7-2.7ZM137.07 187.6a.3.3 0 1 0 .3.3q0-.15-.3-.3ZM137.07 132.8a3.1 3.1 0 1 0 3.2 3.1 3.27 3.27 0 0 0-3.2-3.1ZM130.37 118.7a4.15 4.15 0 1 0 4.3 4.2 4.38 4.38 0 0 0-4.3-4.2ZM137.07 160.5a1.43 1.43 0 0 0-1.4 1.4 1.51 1.51 0 0 0 1.4 1.4 1.4 1.4 0 0 0 0-2.8ZM157.07 146.3a2.6 2.6 0 0 0 .2 5.2 2.56 2.56 0 0 0 2.5-2.6 2.67 2.67 0 0 0-2.7-2.6ZM123.67 133.2a2.75 2.75 0 1 0 2.8 2.8 2.73 2.73 0 0 0-2.8-2.8ZM130.37 146.7a2.2 2.2 0 0 0 .2 4.4 2.14 2.14 0 0 0 2.1-2.2 2.38 2.38 0 0 0-2.3-2.2ZM130.37 174.2a.75.75 0 0 0 .1 1.5.71.71 0 0 0 .7-.8.77.77 0 0 0-.8-.7ZM130.37 200.9c-.1.1 0 .1 0 0ZM157.07 200.8a.1.1 0 1 0 0 .2c.1 0 .1 0 .1-.1a.1.1 0 0 0-.1-.1ZM150.37 132.5a3.4 3.4 0 1 0 .2 6.8 3.41 3.41 0 0 0 3.3-3.4 3.34 3.34 0 0 0-3.5-3.4ZM150.37 160.3a1.55 1.55 0 1 0 1.6 1.5 1.49 1.49 0 0 0-1.6-1.5Z"/><circle class="cls-3" cx="157.07" cy="174.9" r="1"/><path class="cls-3" d="M150.37 187.6a.4.4 0 1 0 .4.4.43.43 0 0 0-.4-.4ZM143.67 146.5a2.45 2.45 0 1 0 2.5 2.4 2.29 2.29 0 0 0-2.5-2.4ZM143.87 117.7a4.65 4.65 0 1 0-.3 9.3h.1a4.53 4.53 0 0 0 4.7-4.5 4.68 4.68 0 0 0-4.5-4.8ZM143.67 174a.9.9 0 1 0 .9.9c.1-.5-.3-.9-.9-.9Z"/><path d="m169.54 163-1.94-18c-2.39-22.22-6.78-22.22-8.65-22.22-6.19 0-18.21 7-30.27 14.63l-17.39 11 8.33-18.17c6-13.15 5-17.92 3.84-19.59-1.83-2.64-7.88-4-18-4-2.86 0-6 .1-9.75.31l-20.84 1.2L91.69 96.4c15.51-10.84 18.38-16.5 18.06-19.34s-4.28-7.7-21.4-15l-20.69-8.82L90.2 50.9c18.41-1.91 23.5-4 24.9-5.1-.5-1.23-2.89-4.9-14.21-13.25L76.65 14.69l29.62 7.59c13.49 3.45 22 5 27.68 5 3.5 0 5.2-.64 5.61-1.23.85-1.2 1.9-6-6.41-25l-11.82-27 21.85 20.58c13 12.2 20.65 14.76 24.8 14.76 2.13 0 8.62 0 13.36-18.28l4.49-17.37L193-9.73c2.93 6.73 6.92 14.36 12 14.36 3 0 9.78-2.26 21.92-17.45L242.22-32l-4.35 23.73c-2.73 14.84-1.26 20.26.45 22.2.38.42 1.37 1.54 5.24 1.54 7 0 18.35-3.8 26.29-6.66L291.49 1 276.8 18c-7.1 8.2-7.86 11.44-7.92 12.25.72.49 3.81 1.91 15.2 1.91h2.53l18.92-.29-15.1 10.81c-10.95 7.85-16.37 13.9-16.12 18 .24 3.77 5.39 8.46 15.31 14l15.1 8.32-17.28 2.49c-18 2.59-27.27 6-30.09 11-2.64 4.68-.89 12.9 5.49 25.88l6.93 14.08-15-6.24c-16.49-6.87-29.58-11.45-39.89-11.45-11 0-21.33 4.88-35.8 28.67ZM159 111.08c10.85 0 15.83 8.3 18.33 17.31C189 113.33 200.47 107 214.93 107c9.22 0 19.23 2.59 31.24 7-3.21-9.86-3-17.11.36-23.12 4.21-7.47 12.78-11.6 24.56-14.37-4.92-4.17-8.66-9.17-9-15.17-.42-6.69 3.5-12.79 9.07-18.28-6.14-1-11.14-3.2-13.41-7.77-1.6-3.21-1.37-6.7 0-10.25a56.71 56.71 0 0 1-14.06 2.14c-6.38 0-11.32-1.92-14.68-5.71-2.9-3.28-4.49-7.68-4.8-13.75-6.93 5.83-13.21 8.62-19.21 8.62-7.5 0-12.8-4.22-16.56-9.2-4.9 9.27-11.73 14-20.42 14-5.07 0-10.54-1.68-16.5-5.09 1.7 7.51 1.09 12.62-1.65 16.53C145.3 39 136.76 39 134 39a65.21 65.21 0 0 1-9.26-.76c2.54 3.67 3.52 7.23 2.45 10.8-1.67 5.61-7.42 8.74-17.18 10.85 6.51 4.32 11.34 9.5 12.06 16 .78 6.93-3.44 13.41-9.59 19.33 8.38.59 16.92 2.64 21.34 9.06 2.7 3.9 3.54 8.7 2.5 14.83 9.28-5.13 16.54-8 22.68-8Z" style="fill:#37beb9"/><path d="M173 144.24c-3.79-35.66-13.77-34.3-48.54-12.07 12.92-28.59 1.7-33.8-30-31.95C123 80 122.42 69.1 90 55.1c34.66-3.66 40.64-9.2 13.82-29.27 41.43 10.78 50.05 7 34.22-29.63 32.82 31.34 43.75 12.46 48.55-6.38C193.15 5 203.78 22.76 231.16-12c-6.28 34.8 5.84 36.54 40.3 24-16.56 19.42-10.76 24.5 14.71 24.1-23.9 17.37-25.63 28.06-.21 42.34-35.92 5.26-44.68 14.12-29.3 45.85-42.9-18.18-60.09-19.35-83.66 19.95Z" style="fill:#12121b"/><path d="M195.27 30.77c1.7 3.2 4 9.8 4 14.3 0 3.4-1.4 6-4.8 6.6l-7.07 1.2a3.8 3.8 0 0 1-1.7-7.4l9.6-2.5Z" style="fill:#f6a96c"/><path d="M199.27 45.07c0 3.4-1.4 6-4.8 6.6l-7.07 1.2a3.8 3.8 0 0 1-3.8-1.4 3.91 3.91 0 0 0 1.8 0l7-1.2c3.5-.5 5-2.8 4.9-6.6a36.57 36.57 0 0 0-2-9.7v-3.2c1.7 3.2 4 9.8 4 14.3Z" style="fill:#ea9b58"/><path class="cls-8" d="M183.07 49a4.12 4.12 0 0 1-4.1-4.1V26.57a4.1 4.1 0 0 1 8.2 0v18.3a4.09 4.09 0 0 1-4.1 4V49Z"/><path class="cls-9" d="M187.17 26.57v18.3a4.12 4.12 0 0 1-4.1 4.1 3.94 3.94 0 0 1-.9-.1 4.1 4.1 0 0 0 3.3-4v-18.3a4.1 4.1 0 0 0-3.3-4 4.1 4.1 0 0 1 4.9 3.1 3.94 3.94 0 0 1 .1.9Z"/><path class="cls-8" d="M166.57 47.17a4.09 4.09 0 0 1-4.1-4V31.09a4.1 4.1 0 0 1 8.2 0v12.06a4.09 4.09 0 0 1-4 4Zm8.2 1.8a4.09 4.09 0 0 1-4-4.1v-16.5a4.1 4.1 0 0 1 8.2 0v16.4a4.09 4.09 0 0 1-4.18 4Z"/><path class="cls-10" d="M187.17 26.57v12.5H179v-12.5a4.1 4.1 0 1 1 8.2 0Z"/><path class="cls-11" d="M187.17 26.57v12.5h-1.7v-12.5a4.1 4.1 0 0 0-3.3-4h.2a3 3 0 0 1 .6 0 4.11 4.11 0 0 1 2.5.7 4 4 0 0 1 1.3 1.6 4.16 4.16 0 0 1 .4 1.7Z"/><path class="cls-8" d="M191.27 49a4.12 4.12 0 0 1-4.1-4.1V28.37a4.1 4.1 0 0 1 8.2 0v16.4a4.09 4.09 0 0 1-4.1 4V49Z"/><path class="cls-9" d="M170.75 31.28v11.84a4.08 4.08 0 0 1-4.1 4 3.94 3.94 0 0 1-.9-.1 4.05 4.05 0 0 0 3.4-4V31.28a4.07 4.07 0 0 0-3.3-4 4.1 4.1 0 0 1 4.9 3.06 3.8 3.8 0 0 1 .1.89Zm8.25-2.91v16.5a4.12 4.12 0 0 1-4.1 4.1 3.94 3.94 0 0 1-.9-.1 4.1 4.1 0 0 0 3.3-4v-16.5a4.1 4.1 0 0 0-3.3-4 4.1 4.1 0 0 1 4.9 3.1 3.94 3.94 0 0 1 .1.9Zm16.5 0v16.5a4.12 4.12 0 0 1-4.1 4.1 3.94 3.94 0 0 1-.9-.1 4.1 4.1 0 0 0 3.3-4v-16.5a4.1 4.1 0 0 0-3.3-4 4.1 4.1 0 0 1 4.9 3.1 3.91 3.91 0 0 1 .07.9Z"/><path class="cls-10" d="M170.67 31.07v8h-8.2v-8a4.1 4.1 0 0 1 8.2 0Zm8.3-2.7v10.7h-8.3v-10.7a4.15 4.15 0 0 1 8.3 0Zm16.5 0v10.7h-8.3v-10.7a4.1 4.1 0 0 1 8.2 0h.1Z"/><path class="cls-11" d="M170.72 31v8.07h-1.55V31a4.1 4.1 0 0 0-3.2-4h.5a4 4 0 0 1 4.06 2.77 3.72 3.72 0 0 1 .19.8Zm8.28-2.63v10.7h-1.7v-10.7a4.1 4.1 0 0 0-3.3-4l.2-.1h.6a4.27 4.27 0 0 1 1.8.3 3.93 3.93 0 0 1 1.1.8 4.82 4.82 0 0 1 1.3 3Zm16.5 0v10.7h-1.7v-10.7a4.1 4.1 0 0 0-3.3-4l.2-.1a4.23 4.23 0 0 1 4.73 3.64 3.57 3.57 0 0 1 0 .46Z"/><path class="cls-10" d="m194.67 22.37-2.9-5.4a.19.19 0 0 1 0-.27l3.3-1.5a.21.21 0 0 1 .27.07.15.15 0 0 1 0 .13l-.4 7a.2.2 0 0 1-.4 0Z"/><path class="cls-11" d="m195.47 15.37-.4 7a.2.2 0 1 1-.4 0l-1-1.7.3-5 1.2-.5a.21.21 0 0 1 .27.07.15.15 0 0 1 0 .13Z"/><path class="cls-10" d="m197.47 22.17 2.93-10.3a.19.19 0 0 1 .27 0l3 2.2a.19.19 0 0 1 0 .27l-5.9 8a.21.21 0 0 1-.29.1.21.21 0 0 1-.1-.29Z"/><path class="cls-11" d="m203.67 14.37-5.9 8a.23.23 0 0 1-.28.11.23.23 0 0 1-.1-.3l.8-2.7 4.5-6.1 1 .7a.19.19 0 0 1 0 .27Z"/><path d="m122.18 65.77-5.92.41 1.21 16.76 3.78-.26-.41-5.78 1.8-.13a7.23 7.23 0 0 0 4.76-1.9 5.18 5.18 0 0 0 1.54-4.21q-.41-5.35-6.76-4.89Zm-.08 8.17-1.49.1-.37-5.27 1.49-.11c2-.14 3.08.65 3.2 2.38s-.82 2.73-2.83 2.89Zm18.78-3.28a6.37 6.37 0 0 0-4.79-1.35 6.68 6.68 0 0 0-4.69 2 7 7 0 0 0 .58 9.21 7.46 7.46 0 0 0 9.49-.75 6.34 6.34 0 0 0 1.42-4.84 6 6 0 0 0-2.01-4.27ZM136.72 79c-1.85.13-2.85-1-3-3.26a4 4 0 0 1 .54-2.6 2.49 2.49 0 0 1 2-1c1.79-.12 2.76.93 2.92 3.17s-.71 3.56-2.46 3.69Zm22.89.94 2.61-12.21-3.42.27-1 7.92a10.39 10.39 0 0 0-.09 1.37h-.08c-.12-.7-.2-1.15-.26-1.34L155 68.28l-3.52.25-1.48 7.91a6.57 6.57 0 0 0-.12 1.4h-.07a7.36 7.36 0 0 0-.27-1.32l-2.2-7.75-3.77.27 4.22 11.73 3.84-.27 1.4-7.2a9.48 9.48 0 0 0 .12-1.5h.07a7.11 7.11 0 0 0 .31 1.51l2.26 6.9Zm5.86-1.73a6 6 0 0 0 4.61 1.29 9.09 9.09 0 0 0 4.26-1.19l-.19-2.67a6.42 6.42 0 0 1-3.41 1.18c-2.07.15-3.22-.64-3.47-2.38l7.81-.54-.08-1.52a6 6 0 0 0-1.72-4.12 5.27 5.27 0 0 0-4.2-1.26 5.75 5.75 0 0 0-4.08 2 6.44 6.44 0 0 0-1.4 4.85 6 6 0 0 0 1.92 4.41Zm2.28-7.92a2 2 0 0 1 1.49-.85c1.38-.1 2.14.71 2.26 2.43l-4.41.31a3.31 3.31 0 0 1 .69-1.89Zm17.12-.8-.24-3.41a2.59 2.59 0 0 0-.92-.07 3.19 3.19 0 0 0-3 2.65h-.05l-.15-2.22-3.7.26.84 12 3.7-.26-.4-5.71a3.83 3.83 0 0 1 .51-2.45 2.27 2.27 0 0 1 1.83-1 3.27 3.27 0 0 1 1.58.21ZM201.15 77l-1-13.69 4.79-.34-.22-3-13.25.94.21 3.08 4.76-.34 1 13.7Zm14.32-11.65a6.38 6.38 0 0 0-4.8-1.35 6.78 6.78 0 0 0-4.67 2 7 7 0 0 0 .58 9.21 6.49 6.49 0 0 0 4.84 1.35 6.63 6.63 0 0 0 4.67-2.07 6.38 6.38 0 0 0 1.4-4.79 6 6 0 0 0-2-4.35Zm-4.14 8.35c-1.86.13-2.86-1-3-3.26a3.9 3.9 0 0 1 .55-2.6 2.49 2.49 0 0 1 2-1q2.69-.2 2.91 3.17.21 3.58-2.46 3.73Zm26.56-16.1-13.33.93.22 3.08 4.76-.33 1 13.69 3.79-.26-1-13.7 4.78-.33Zm9.64 3.85a4.2 4.2 0 0 0-3.53 2.37l-.52-7.53-3.7.26L241 74.28l3.69-.26-.48-6.83a2.89 2.89 0 0 1 .48-1.92 1.94 1.94 0 0 1 1.54-.84q1.92-.14 2.1 2.49l.48 6.81 3.64-.26-.45-7.35q-.36-4.92-4.43-4.63Zm13.94 9c-2.07.15-3.23-.65-3.47-2.38l7.81-.54-.11-1.53a6 6 0 0 0-1.7-4.11 5.31 5.31 0 0 0-4.16-1.27 5.8 5.8 0 0 0-4.14 2 6.44 6.44 0 0 0-1.4 4.85 6.13 6.13 0 0 0 1.92 4.37 6.07 6.07 0 0 0 4.62 1.29 9.09 9.09 0 0 0 4.25-1.19l-.19-2.67a6.34 6.34 0 0 1-3.4 1.23Zm-3-6.53a2 2 0 0 1 1.49-.85c1.39-.1 2.14.71 2.26 2.43l-4.41.31a3.45 3.45 0 0 1 .66-1.88ZM161.4 87.08l-5.92.41 1.17 16.77 3.78-.26-.4-5.78 1.8-.13a7.23 7.23 0 0 0 4.75-1.9 5.12 5.12 0 0 0 1.53-4.19q-.37-5.37-6.71-4.92Zm-.09 8.17-1.48.1-.35-5.23L161 90c2-.14 3.08.65 3.2 2.37s-.84 2.72-2.85 2.86Zm19.29.81a6.06 6.06 0 0 0-1.73-4.12 5.24 5.24 0 0 0-4.17-1.27 5.78 5.78 0 0 0-4.13 2 6.42 6.42 0 0 0-1.4 4.84 5.59 5.59 0 0 0 5.43 5.75 5.76 5.76 0 0 0 1.1-.08A9.12 9.12 0 0 0 180 102l-.19-2.67a6.42 6.42 0 0 1-3.41 1.18c-2.06.15-3.22-.65-3.47-2.38l7.81-.54Zm-7.89-.16a3.33 3.33 0 0 1 .66-1.9 2 2 0 0 1 1.49-.84c1.38-.1 2.14.71 2.26 2.43Zm20.35-4.83a6.43 6.43 0 0 0-4.8-1.36 6.78 6.78 0 0 0-4.69 2 7 7 0 0 0 .58 9.21 6.46 6.46 0 0 0 4.83 1.35 6.53 6.53 0 0 0 4.67-2.07 6.3 6.3 0 0 0 1.41-4.83 6 6 0 0 0-2-4.3Zm-4.16 8.38c-1.86.13-2.87-1-3-3.25a4 4 0 0 1 .55-2.61 2.49 2.49 0 0 1 2-1c1.78-.12 2.76.93 2.91 3.17s-.7 3.57-2.47 3.69Zm19.43-9.54a4.72 4.72 0 0 0-6.68 0 4.75 4.75 0 0 0-.73 1l-.13-1.8-3.7.26 1.23 17.49 3.7-.26-.54-6.83h.05a3.73 3.73 0 0 0 3.41 1.46 4.85 4.85 0 0 0 3.81-2.09 7.34 7.34 0 0 0 1.15-4.91 6.94 6.94 0 0 0-1.57-4.32Zm-2.71 7.39a2.27 2.27 0 0 1-1.89 1.11 2.16 2.16 0 0 1-1.78-.66 3.09 3.09 0 0 1-.8-2l-.06-1a3.42 3.42 0 0 1 .56-2.33 2.27 2.27 0 0 1 1.79-1q2.46-.18 2.68 3a4.87 4.87 0 0 1-.5 2.88Zm9.59-15-3.7.26 1.24 17.73 3.7-.26Zm14.65 10.25a6 6 0 0 0-1.73-4.12 5.31 5.31 0 0 0-4.13-1.27 5.8 5.8 0 0 0-4.14 2 6.44 6.44 0 0 0-1.4 4.85 5.59 5.59 0 0 0 5.44 5.74 5.76 5.76 0 0 0 1.1-.08 9.09 9.09 0 0 0 4.25-1.19l-.25-2.66a6.33 6.33 0 0 1-3.38 1.18q-3.09.23-3.47-2.37l7.82-.55Zm-7.86-.16a3.33 3.33 0 0 1 .66-1.89 2 2 0 0 1 1.49-.85c1.38-.09 2.14.71 2.26 2.43Z" style="fill:#2a9cff"/></g></svg>
