<svg xmlns="http://www.w3.org/2000/svg" width="340" height="201"><defs><clipPath id="a"><path d="M0 0h340v191a10 10 0 01-10 10H10a10 10 0 01-10-10V0z" transform="translate(14 72.361)" fill="#67f7b8"/></clipPath></defs><g data-name="Group 1395"><g data-name="Mask Group 8" transform="translate(-14 -72.361)" clip-path="url(#a)"><g data-name="Group 1322" fill="#727278"><path data-name="Path 402" d="M13.554 65.218a.074.074 0 00-.147 0 .074.074 0 00.147 0z" opacity=".51"/><path data-name="Path 403" d="M6.832 78.224a.036.036 0 00-.036-.036.036.036 0 100 .071.035.035 0 00.036-.035z" opacity=".51"/><path data-name="Path 404" d="M20.165 78.406a.18.18 0 100-.361.18.18 0 100 .361z" opacity=".51"/><path data-name="Path 405" d="M.111 91.305a.073.073 0 00.074-.071.074.074 0 00-.074-.073.076.076 0 00-.076.073.075.075 0 00.076.071z" opacity=".51"/><path data-name="Path 406" d="M13.481 91.521a.289.289 0 10-.3-.288.293.293 0 00.3.288z" opacity=".51"/><path data-name="Path 407" d="M6.795 104.132a.108.108 0 10.109.108.109.109 0 00-.109-.108z" opacity=".51"/><path data-name="Path 408" d="M20.166 104.601a.361.361 0 10-.371-.361.365.365 0 00.371.361z" opacity=".51"/><path data-name="Path 409" d="M.111 117.139a.109.109 0 10.109.109.109.109 0 00-.109-.109z" opacity=".51"/><path data-name="Path 410" d="M13.481 116.852a.4.4 0 10.406.4.4.4 0 00-.406-.4z" opacity=".51"/><path data-name="Path 411" d="M6.795 130.147a.108.108 0 10.109.108.109.109 0 00-.109-.108z" opacity=".51"/><path data-name="Path 412" d="M20.166 129.858a.4.4 0 10.408.4.4.4 0 00-.408-.4z" opacity=".51"/><path data-name="Path 413" d="M.035 143.263a.075.075 0 00.076.071.072.072 0 100-.144.075.075 0 00-.076.073z" opacity=".51"/><path data-name="Path 414" d="M13.481 142.938a.325.325 0 10.332.325.33.33 0 00-.332-.325z" opacity=".51"/><path data-name="Path 415" d="M6.758 156.271a.038.038 0 00.038.035.035.035 0 00.036-.035.036.036 0 00-.036-.037.039.039 0 00-.038.037z" opacity=".51"/><path data-name="Path 416" d="M20.166 156.018a.252.252 0 100 .5.252.252 0 100-.5z" opacity=".51"/><path data-name="Path 417" d="M13.481 169.133a.144.144 0 10.147.144.146.146 0 00-.147-.144z" opacity=".51"/><path data-name="Path 418" d="M20.092 182.285a.073.073 0 00.147 0 .073.073 0 00-.147 0z" opacity=".51"/><g data-name="Group 1321" transform="translate(26.035)"><path data-name="Path 419" d="M87.794.181a.074.074 0 00-.074-.073.073.073 0 00-.073.073.072.072 0 00.073.071.073.073 0 00.074-.071z" opacity=".51"/><path data-name="Path 420" d="M101.09.288a.108.108 0 10-.109-.108.109.109 0 00.109.108z" opacity=".51"/><path data-name="Path 421" d="M114.461.325a.145.145 0 10-.15-.145.147.147 0 00.15.145z" opacity=".51"/><path data-name="Path 422" d="M127.83.361a.18.18 0 10-.185-.18.184.184 0 00.185.18z" opacity=".51"/><path data-name="Path 423" d="M141.198.361a.18.18 0 10-.185-.18.184.184 0 00.185.18z" opacity=".51"/><path data-name="Path 424" d="M154.569.361a.181.181 0 100-.361.18.18 0 100 .361z" opacity=".51"/><path data-name="Path 425" d="M167.94.325a.145.145 0 10-.149-.145.147.147 0 00.149.145z" opacity=".51"/><path data-name="Path 426" d="M181.309.288a.108.108 0 10-.111-.108.111.111 0 00.111.108z" opacity=".51"/><path data-name="Path 427" d="M194.755.181a.075.075 0 00-.076-.073.073.073 0 00-.073.073.072.072 0 00.073.071.074.074 0 00.076-.071z" opacity=".51"/><path data-name="Path 428" d="M208.086.181a.035.035 0 00-.035-.036.038.038 0 00-.038.036.037.037 0 00.038.035.035.035 0 00.035-.035z" opacity=".51"/><path data-name="Path 429" d="M40.963 13.187a.038.038 0 00-.076 0 .038.038 0 00.076 0z" opacity=".51"/><path data-name="Path 430" d="M54.294 13.295a.108.108 0 100-.215.108.108 0 100 .215z" opacity=".51"/><path data-name="Path 431" d="M67.666 13.405a.217.217 0 10-.223-.218.22.22 0 00.223.218z" opacity=".51"/><path data-name="Path 432" d="M81.036 13.512a.325.325 0 10-.335-.326.329.329 0 00.335.326z" opacity=".51"/><path data-name="Path 433" d="M94.404 13.621a.433.433 0 10-.444-.434.44.44 0 00.444.434z" opacity=".51"/><path data-name="Path 434" d="M107.774 13.693a.505.505 0 10-.518-.505.514.514 0 00.518.505z" opacity=".51"/><path data-name="Path 435" d="M121.145 13.766a.578.578 0 10-.594-.579.585.585 0 00.594.579z" opacity=".51"/><path data-name="Path 436" d="M134.515 13.801a.613.613 0 10-.63-.614.622.622 0 00.63.614z" opacity=".51"/><path data-name="Path 437" d="M147.885 13.801a.613.613 0 10-.63-.614.624.624 0 00.63.614z" opacity=".51"/><path data-name="Path 438" d="M161.256 13.766a.578.578 0 10-.595-.579.585.585 0 00.595.579z" opacity=".51"/><path data-name="Path 439" d="M174.625 13.693a.505.505 0 10-.52-.505.511.511 0 00.52.505z" opacity=".51"/><path data-name="Path 440" d="M187.995 13.585a.4.4 0 10-.406-.4.4.4 0 00.406.4z" opacity=".51"/><path data-name="Path 441" d="M201.364 13.477a.289.289 0 10-.294-.289.293.293 0 00.294.289z" opacity=".51"/><path data-name="Path 442" d="M214.735 13.368a.18.18 0 10-.186-.181.183.183 0 00.186.181z" opacity=".51"/><path data-name="Path 443" d="M228.105 13.295a.108.108 0 10-.112-.109.11.11 0 00.112.109z" opacity=".51"/><path data-name="Path 444" d="M241.512 13.187a.035.035 0 00-.038-.035.035.035 0 00-.035.035.036.036 0 00.035.037.036.036 0 00.038-.037z" opacity=".51"/><path data-name="Path 445" d="M34.241 26.305a.109.109 0 10-.112-.109.111.111 0 00.112.109z" opacity=".51"/><path data-name="Path 446" d="M47.61 26.447a.253.253 0 100-.505.253.253 0 100 .505z" opacity=".51"/><path data-name="Path 447" d="M60.979 26.592a.4.4 0 10-.406-.4.4.4 0 00.406.4z" opacity=".51"/><path data-name="Path 448" d="M74.356 26.772a.577.577 0 10-.594-.577.584.584 0 00.594.577z" opacity=".51"/><path data-name="Path 449" d="M87.72 26.99a.795.795 0 10-.815-.795.8.8 0 00.815.795z" opacity=".51"/><path data-name="Path 450" d="M101.094 27.132a.938.938 0 10-.963-.938.951.951 0 00.963.938z" opacity=".51"/><path data-name="Path 451" d="M114.46 27.274a1.082 1.082 0 10-1.112-1.082 1.1 1.1 0 001.112 1.082z" opacity=".51"/><path data-name="Path 452" d="M127.83 27.349a1.155 1.155 0 10-1.188-1.155 1.171 1.171 0 001.188 1.155z" opacity=".51"/><path data-name="Path 453" d="M141.201 27.422a1.227 1.227 0 10-1.26-1.227 1.246 1.246 0 001.26 1.227z" opacity=".51"/><path data-name="Path 454" d="M154.57 27.422a1.227 1.227 0 10-1.26-1.227 1.244 1.244 0 001.26 1.227z" opacity=".51"/><path data-name="Path 455" d="M167.941 27.349a1.155 1.155 0 10-1.188-1.155 1.171 1.171 0 001.188 1.155z" opacity=".51"/><path data-name="Path 456" d="M181.309 27.274a1.082 1.082 0 10-1.111-1.082 1.1 1.1 0 001.111 1.082z" opacity=".51"/><path data-name="Path 457" d="M194.677 27.132a.938.938 0 10-.962-.938.951.951 0 00.962.938z" opacity=".51"/><path data-name="Path 458" d="M208.051 26.948a.757.757 0 10-.779-.757.766.766 0 00.779.757z" opacity=".51"/><path data-name="Path 459" d="M221.419 26.772a.577.577 0 10-.594-.577.586.586 0 00.594.577z" opacity=".51"/><path data-name="Path 460" d="M234.789 26.592a.4.4 0 10-.406-.4.4.4 0 00.406.4z" opacity=".51"/><path data-name="Path 461" d="M248.159 26.447a.253.253 0 10-.259-.252.256.256 0 00.259.252z" opacity=".51"/><path data-name="Path 462" d="M261.53 26.305a.109.109 0 10-.111-.109.11.11 0 00.111.109z" opacity=".51"/><path data-name="Path 463" d="M.853 39.202a.038.038 0 00-.038-.036.037.037 0 000 .073.037.037 0 00.038-.037z" opacity=".51"/><path data-name="Path 464" d="M14.185 39.347a.144.144 0 10-.147-.145.146.146 0 00.147.145z" opacity=".51"/><path data-name="Path 465" d="M27.557 39.527a.324.324 0 10-.336-.325.328.328 0 00.336.325z" opacity=".51"/><path data-name="Path 466" d="M40.925 39.744a.542.542 0 10-.556-.543.551.551 0 00.556.543z" opacity=".51"/><path data-name="Path 467" d="M54.294 40.037a.829.829 0 10-.85-.83.841.841 0 00.85.83z" opacity=".51"/><path data-name="Path 468" d="M67.666 40.286a1.083 1.083 0 10-1.111-1.083 1.1 1.1 0 001.111 1.083z" opacity=".51"/><path data-name="Path 469" d="M81.036 40.536a1.335 1.335 0 10-1.371-1.335 1.353 1.353 0 001.371 1.335z" opacity=".51"/><path data-name="Path 470" d="M94.405 40.79a1.588 1.588 0 10-1.63-1.588 1.611 1.611 0 001.63 1.588z" opacity=".51"/><path data-name="Path 471" d="M107.774 40.971a1.768 1.768 0 10-1.815-1.769 1.793 1.793 0 001.815 1.769z" opacity=".51"/><path data-name="Path 472" d="M121.146 41.116a1.913 1.913 0 10-1.965-1.913 1.941 1.941 0 001.965 1.913z" opacity=".51"/><path data-name="Path 473" d="M134.515 41.187a1.985 1.985 0 10-2.039-1.985 2.011 2.011 0 002.039 1.985z" opacity=".51"/><path data-name="Path 474" d="M147.885 41.187a1.985 1.985 0 10-2.039-1.985 2.013 2.013 0 002.039 1.985z" opacity=".51"/><path data-name="Path 475" d="M161.256 41.15a1.949 1.949 0 10-2-1.949 1.976 1.976 0 002 1.949z" opacity=".51"/><path data-name="Path 476" d="M174.625 41.006a1.8 1.8 0 10-1.853-1.8 1.83 1.83 0 001.853 1.8z" opacity=".51"/><path data-name="Path 477" d="M187.995 40.826a1.624 1.624 0 10-1.669-1.624 1.646 1.646 0 001.669 1.624z" opacity=".51"/><path data-name="Path 478" d="M201.364 40.61a1.407 1.407 0 10-1.444-1.408 1.427 1.427 0 001.444 1.408z" opacity=".51"/><path data-name="Path 479" d="M214.735 40.357a1.155 1.155 0 10-1.188-1.155 1.17 1.17 0 001.188 1.155z" opacity=".51"/><path data-name="Path 480" d="M228.105 40.068a.865.865 0 10-.888-.865.877.877 0 00.888.865z" opacity=".51"/><path data-name="Path 481" d="M241.474 39.82a.614.614 0 10-.63-.614.624.624 0 00.63.614z" opacity=".51"/><path data-name="Path 482" d="M254.846 39.603a.4.4 0 10-.409-.4.4.4 0 00.409.4z" opacity=".51"/><path data-name="Path 483" d="M268.215 39.386a.181.181 0 10-.185-.182.184.184 0 00.185.182z" opacity=".51"/><path data-name="Path 484" d="M281.622 39.202a.038.038 0 00-.038-.036.037.037 0 000 .073.037.037 0 00.038-.037z" opacity=".51"/><path data-name="Path 485" d="M7.499 52.355a.145.145 0 10-.147-.145.147.147 0 00.147.145z" opacity=".51"/><path data-name="Path 486" d="M20.871 52.571a.361.361 0 10-.37-.361.367.367 0 00.37.361z" opacity=".51"/><path data-name="Path 487" d="M34.241 52.824a.613.613 0 10-.63-.614.622.622 0 00.63.614z" opacity=".51"/><path data-name="Path 488" d="M47.61 53.148a.938.938 0 10-.965-.938.951.951 0 00.965.938z" opacity=".51"/><path data-name="Path 489" d="M60.98 53.51a1.3 1.3 0 10-1.333-1.3 1.316 1.316 0 001.333 1.3z" opacity=".51"/><path data-name="Path 490" d="M74.352 53.87a1.659 1.659 0 10-1.707-1.659 1.681 1.681 0 001.707 1.659z" opacity=".51"/><path data-name="Path 491" d="M87.724 54.195a1.985 1.985 0 10-2.039-1.985 2.012 2.012 0 002.039 1.985z" opacity=".51"/><path data-name="Path 492" d="M101.089 54.519a2.309 2.309 0 10-2.372-2.309 2.341 2.341 0 002.372 2.309z" opacity=".51"/><path data-name="Path 493" d="M114.461 54.807a2.6 2.6 0 10-2.671-2.6 2.635 2.635 0 002.671 2.6z" opacity=".51"/><path data-name="Path 494" d="M127.831 54.987a2.778 2.778 0 10-2.856-2.777 2.816 2.816 0 002.856 2.777z" opacity=".51"/><path data-name="Path 495" d="M141.2 55.132a2.923 2.923 0 10-3-2.922 2.962 2.962 0 003 2.922z" opacity=".51"/><path data-name="Path 496" d="M154.573 55.132a2.923 2.923 0 10-3-2.922 2.962 2.962 0 003 2.922z" opacity=".51"/><path data-name="Path 497" d="M167.941 55.059a2.85 2.85 0 10-2.93-2.849 2.889 2.889 0 002.93 2.849z" opacity=".51"/><path data-name="Path 498" d="M181.31 54.916a2.707 2.707 0 10-2.78-2.705 2.743 2.743 0 002.78 2.705z" opacity=".51"/><path data-name="Path 499" d="M194.679 54.662a2.454 2.454 0 10-2.521-2.452 2.486 2.486 0 002.521 2.452z" opacity=".51"/><path data-name="Path 500" d="M208.051 54.375a2.165 2.165 0 10-2.226-2.165 2.195 2.195 0 002.226 2.165z" opacity=".51"/><path data-name="Path 501" d="M221.42 54.05a1.841 1.841 0 10-1.891-1.84 1.867 1.867 0 001.891 1.84z" opacity=".51"/><path data-name="Path 502" d="M234.785 53.69a1.479 1.479 0 10-1.518-1.479 1.5 1.5 0 001.518 1.479z" opacity=".51"/><path data-name="Path 503" d="M248.158 53.329a1.118 1.118 0 10-1.147-1.119 1.133 1.133 0 001.147 1.119z" opacity=".51"/><path data-name="Path 504" d="M261.53 53.004a.794.794 0 10-.814-.794.8.8 0 00.814.794z" opacity=".51"/><path data-name="Path 505" d="M274.899 52.68a.469.469 0 10-.482-.469.476.476 0 00.482.469z" opacity=".51"/><path data-name="Path 506" d="M288.269 52.463a.253.253 0 10-.259-.253.258.258 0 00.259.253z" opacity=".51"/><path data-name="Path 507" d="M301.64 52.282a.071.071 0 100-.143.072.072 0 100 .143z" opacity=".51"/><path data-name="Path 508" d="M.816 65.506a.289.289 0 100-.577.289.289 0 100 .577z" opacity=".51"/><path data-name="Path 509" d="M14.185 65.795a.578.578 0 10-.592-.577.585.585 0 00.592.577z" opacity=".51"/><path data-name="Path 510" d="M27.556 66.155a.938.938 0 10-.966-.937.95.95 0 00.966.937z" opacity=".51"/><path data-name="Path 511" d="M40.926 66.589a1.371 1.371 0 10-1.409-1.371 1.39 1.39 0 001.409 1.371z" opacity=".51"/><path data-name="Path 512" d="M54.294 67.021a1.8 1.8 0 10-1.853-1.8 1.831 1.831 0 001.853 1.8z" opacity=".51"/><path data-name="Path 513" d="M67.666 67.454a2.237 2.237 0 10-2.3-2.236 2.268 2.268 0 002.3 2.236z" opacity=".51"/><path data-name="Path 514" d="M81.036 67.923a2.706 2.706 0 10-2.78-2.7 2.743 2.743 0 002.78 2.7z" opacity=".51"/><path data-name="Path 515" d="M94.405 68.356a3.139 3.139 0 10-3.224-3.138 3.183 3.183 0 003.224 3.138z" opacity=".51"/><path data-name="Path 516" d="M107.777 68.712a3.5 3.5 0 10-3.595-3.5 3.549 3.549 0 003.595 3.5z" opacity=".51"/><path data-name="Path 517" d="M121.146 69.004a3.788 3.788 0 10-3.891-3.786 3.84 3.84 0 003.891 3.786z" opacity=".51"/><path data-name="Path 518" d="M134.515 69.187a3.969 3.969 0 10-4.077-3.968 4.026 4.026 0 004.077 3.968z" opacity=".51"/><ellipse data-name="Ellipse 5" cx="4.115" cy="4.004" rx="4.115" ry="4.004" transform="translate(143.769 61.214)" opacity=".51"/><path data-name="Path 519" d="M161.256 69.146a3.933 3.933 0 10-4.042-3.931 3.988 3.988 0 004.042 3.931z" opacity=".51"/><path data-name="Path 520" d="M174.625 68.969a3.753 3.753 0 10-3.857-3.751 3.8 3.8 0 003.857 3.751z" opacity=".51"/><path data-name="Path 521" d="M187.995 68.643a3.427 3.427 0 10-3.522-3.425 3.475 3.475 0 003.522 3.425z" opacity=".51"/><path data-name="Path 522" d="M201.364 68.284a3.067 3.067 0 10-3.151-3.065 3.11 3.11 0 003.151 3.065z" opacity=".51"/><path data-name="Path 523" d="M214.735 67.851a2.635 2.635 0 10-2.706-2.633 2.671 2.671 0 002.706 2.633z" opacity=".51"/><path data-name="Path 524" d="M228.105 67.383a2.165 2.165 0 10-2.224-2.164 2.2 2.2 0 002.224 2.164z" opacity=".51"/><path data-name="Path 525" d="M241.474 66.913a1.7 1.7 0 10-1.742-1.695 1.721 1.721 0 001.742 1.695z" opacity=".51"/><path data-name="Path 526" d="M254.845 66.481a1.263 1.263 0 10-1.3-1.262 1.281 1.281 0 001.3 1.262z" opacity=".51"/><path data-name="Path 527" d="M268.215 66.084a.866.866 0 10-.891-.865.876.876 0 00.891.865z" opacity=".51"/><path data-name="Path 528" d="M281.585 65.723a.505.505 0 10-.518-.5.513.513 0 00.518.5z" opacity=".51"/><path data-name="Path 529" d="M294.954 65.47a.252.252 0 10-.26-.251.256.256 0 00.26.251z" opacity=".51"/><path data-name="Path 530" d="M308.398 65.218a.073.073 0 00-.075-.074.074.074 0 00-.074.073.073.073 0 00.074.071.072.072 0 00.075-.07z" opacity=".51"/><path data-name="Path 531" d="M7.499 78.695a.469.469 0 10-.48-.469.476.476 0 00.48.469z" opacity=".51"/><path data-name="Path 532" d="M20.871 79.054a.83.83 0 10-.852-.829.842.842 0 00.852.829z" opacity=".51"/><ellipse data-name="Ellipse 6" cx="1.297" cy="1.262" rx="1.297" ry="1.262" transform="translate(32.944 76.963)" opacity=".51"/><path data-name="Path 533" d="M47.61 79.993a1.768 1.768 0 10-1.815-1.767 1.791 1.791 0 001.815 1.767z" opacity=".51"/><path data-name="Path 534" d="M60.98 80.534a2.309 2.309 0 10-2.372-2.309 2.341 2.341 0 002.372 2.309z" opacity=".51"/><path data-name="Path 535" d="M74.351 81.111a2.887 2.887 0 10-2.968-2.885 2.926 2.926 0 002.968 2.885z" opacity=".51"/><path data-name="Path 536" d="M87.72 81.652a3.429 3.429 0 10-3.521-3.427 3.473 3.473 0 003.521 3.427z" opacity=".51"/><path data-name="Path 537" d="M101.09 82.194a3.97 3.97 0 10-4.078-3.968 4.024 4.024 0 004.078 3.968z" opacity=".51"/><path data-name="Path 538" d="M114.462 73.752a4.474 4.474 0 104.595 4.473 4.536 4.536 0 00-4.595-4.473z" opacity=".51"/><path data-name="Path 539" d="M127.83 73.355a4.872 4.872 0 105 4.87 4.941 4.941 0 00-5-4.87z" opacity=".51"/><path data-name="Path 540" d="M141.2 73.104a5.124 5.124 0 105.265 5.122 5.2 5.2 0 00-5.265-5.122z" opacity=".51"/><path data-name="Path 541" d="M154.569 72.994a5.233 5.233 0 105.377 5.231 5.3 5.3 0 00-5.377-5.231z" opacity=".51"/><path data-name="Path 542" d="M167.94 73.104a5.124 5.124 0 105.264 5.118 5.194 5.194 0 00-5.264-5.118z" opacity=".51"/><path data-name="Path 543" d="M181.31 73.355a4.872 4.872 0 105.007 4.87 4.939 4.939 0 00-5.007-4.87z" opacity=".51"/><path data-name="Path 544" d="M190.046 78.225a4.636 4.636 0 104.633-4.509 4.572 4.572 0 00-4.633 4.509z" opacity=".51"/><path data-name="Path 545" d="M208.051 82.264a4.041 4.041 0 10-4.153-4.039 4.1 4.1 0 004.153 4.039z" opacity=".51"/><path data-name="Path 546" d="M221.42 81.724a3.5 3.5 0 10-3.6-3.5 3.548 3.548 0 003.6 3.5z" opacity=".51"/><ellipse data-name="Ellipse 7" cx="3.003" cy="2.922" rx="3.003" ry="2.922" transform="translate(231.786 75.303)" opacity=".51"/><path data-name="Path 547" d="M248.159 80.57a2.346 2.346 0 10-2.409-2.345 2.379 2.379 0 002.409 2.345z" opacity=".51"/><path data-name="Path 548" d="M261.53 80.029a1.8 1.8 0 10-1.855-1.8 1.83 1.83 0 001.855 1.8z" opacity=".51"/><path data-name="Path 549" d="M274.9 79.523a1.3 1.3 0 10-1.336-1.3 1.318 1.318 0 001.336 1.3z" opacity=".51"/><path data-name="Path 550" d="M288.268 79.089a.866.866 0 10-.888-.865.879.879 0 00.888.865z" opacity=".51"/><path data-name="Path 551" d="M301.64 78.695a.469.469 0 10-.482-.469.477.477 0 00.482.469z" opacity=".51"/><path data-name="Path 552" d="M315.012 78.438a.216.216 0 10-.224-.216.221.221 0 00.224.216z" opacity=".51"/><path data-name="Path 553" d="M328.417 78.224a.037.037 0 00-.038-.036.036.036 0 000 .071.037.037 0 00.038-.035z" opacity=".51"/><path data-name="Path 554" d="M.816 91.845a.613.613 0 10-.63-.612.621.621 0 00.63.612z" opacity=".51"/><path data-name="Path 555" d="M14.185 92.278a1.046 1.046 0 10-1.074-1.045 1.061 1.061 0 001.074 1.045z" opacity=".51"/><path data-name="Path 556" d="M27.556 92.784a1.552 1.552 0 10-1.594-1.551 1.574 1.574 0 001.594 1.551z" opacity=".51"/><path data-name="Path 557" d="M40.925 93.361a2.129 2.129 0 10-2.186-2.128 2.16 2.16 0 002.186 2.128z" opacity=".51"/><path data-name="Path 558" d="M54.294 94.011a2.778 2.778 0 10-2.853-2.777 2.819 2.819 0 002.853 2.777z" opacity=".51"/><path data-name="Path 559" d="M67.666 94.66a3.428 3.428 0 10-3.524-3.427 3.476 3.476 0 003.524 3.427z" opacity=".51"/><path data-name="Path 560" d="M81.035 95.344a4.113 4.113 0 10-4.227-4.111 4.17 4.17 0 004.227 4.111z" opacity=".51"/><path data-name="Path 561" d="M94.404 86.399a4.835 4.835 0 104.969 4.834 4.9 4.9 0 00-4.969-4.834z" opacity=".51"/><path data-name="Path 562" d="M102.176 91.23a5.6 5.6 0 105.6-5.448 5.524 5.524 0 00-5.6 5.448z" opacity=".51"/><path data-name="Path 563" d="M114.989 91.234a6.158 6.158 0 106.157-5.989 6.075 6.075 0 00-6.157 5.989z" opacity=".51"/><ellipse data-name="Ellipse 8" cx="6.563" cy="6.385" rx="6.563" ry="6.385" transform="translate(127.952 84.848)" opacity=".51"/><path data-name="Path 564" d="M141.174 91.234a6.714 6.714 0 106.71-6.53 6.621 6.621 0 00-6.71 6.53z" opacity=".51"/><path data-name="Path 565" d="M154.62 91.233a6.639 6.639 0 106.636-6.457 6.548 6.548 0 00-6.636 6.457z" opacity=".51"/><path data-name="Path 566" d="M168.286 91.234a6.342 6.342 0 106.339-6.17 6.254 6.254 0 00-6.339 6.17z" opacity=".51"/><path data-name="Path 567" d="M187.995 85.569a5.665 5.665 0 105.821 5.664 5.745 5.745 0 00-5.821-5.664z" opacity=".51"/><path data-name="Path 568" d="M201.363 86.183a5.052 5.052 0 105.192 5.05 5.121 5.121 0 00-5.192-5.05z" opacity=".51"/><ellipse data-name="Ellipse 9" cx="4.486" cy="4.364" rx="4.486" ry="4.364" transform="translate(210.249 86.869)" opacity=".51"/><path data-name="Path 569" d="M228.105 94.912a3.68 3.68 0 10-3.78-3.678 3.732 3.732 0 003.78 3.678z" opacity=".51"/><path data-name="Path 570" d="M241.474 94.227a2.995 2.995 0 10-3.077-2.993 3.037 3.037 0 003.077 2.993z" opacity=".51"/><path data-name="Path 571" d="M254.845 93.577a2.346 2.346 0 10-2.411-2.344 2.378 2.378 0 002.411 2.344z" opacity=".51"/><path data-name="Path 572" d="M268.215 92.964a1.732 1.732 0 10-1.78-1.731 1.756 1.756 0 001.78 1.731z" opacity=".51"/><path data-name="Path 573" d="M281.584 92.459a1.227 1.227 0 10-1.26-1.226 1.245 1.245 0 001.26 1.226z" opacity=".51"/><path data-name="Path 574" d="M294.954 91.991a.758.758 0 10-.777-.757.767.767 0 00.777.757z" opacity=".51"/><path data-name="Path 575" d="M308.326 91.63a.4.4 0 10-.409-.4.4.4 0 00.409.4z" opacity=".51"/><path data-name="Path 576" d="M321.694 91.377a.144.144 0 10-.147-.144.148.148 0 00.147.144z" opacity=".51"/><path data-name="Path 577" d="M7.5 104.962a.722.722 0 10-.741-.723.733.733 0 00.741.723z" opacity=".51"/><path data-name="Path 578" d="M20.871 105.466a1.227 1.227 0 10-1.261-1.226 1.243 1.243 0 001.261 1.226z" opacity=".51"/><path data-name="Path 579" d="M34.241 106.009a1.768 1.768 0 10-1.818-1.769 1.795 1.795 0 001.818 1.769z" opacity=".51"/><path data-name="Path 580" d="M47.61 106.657a2.418 2.418 0 10-2.483-2.417 2.451 2.451 0 002.483 2.417z" opacity=".51"/><path data-name="Path 581" d="M60.98 107.378a3.139 3.139 0 10-3.225-3.139 3.183 3.183 0 003.225 3.139z" opacity=".51"/><path data-name="Path 582" d="M74.351 100.344a3.9 3.9 0 104 3.9 3.951 3.951 0 00-4-3.9z" opacity=".51"/><path data-name="Path 583" d="M82.864 104.24a4.859 4.859 0 104.856-4.725 4.792 4.792 0 00-4.856 4.725z" opacity=".51"/><path data-name="Path 584" d="M95.38 104.24a5.712 5.712 0 105.71-5.555 5.633 5.633 0 00-5.71 5.555z" opacity=".51"/><path data-name="Path 585" d="M187.996 102.612a6.936 6.936 0 00-13.371.006 6.936 6.936 0 00-13.37-.006 6.937 6.937 0 00-13.37 0 6.936 6.936 0 00-13.371.006 6.918 6.918 0 00-13.554 1.13 6.351 6.351 0 100 .978 6.918 6.918 0 0013.554 1.131 6.936 6.936 0 0013.371 0 6.936 6.936 0 0013.37 0 6.936 6.936 0 0013.37 0 6.936 6.936 0 0013.371 0 6.711 6.711 0 100-3.248z" opacity=".51"/><path data-name="Path 586" d="M201.821 104.239a6.231 6.231 0 106.23-6.06 6.145 6.145 0 00-6.23 6.06z" opacity=".51"/><path data-name="Path 587" d="M221.42 99.01a5.232 5.232 0 105.378 5.23 5.305 5.305 0 00-5.378-5.23z" opacity=".51"/><path data-name="Path 588" d="M230.268 104.24a4.525 4.525 0 104.521-4.4 4.463 4.463 0 00-4.521 4.4z" opacity=".51"/><path data-name="Path 589" d="M248.158 107.847a3.608 3.608 0 10-3.706-3.607 3.659 3.659 0 003.706 3.607z" opacity=".51"/><path data-name="Path 590" d="M261.53 107.089a2.851 2.851 0 10-2.929-2.85 2.889 2.889 0 002.929 2.85z" opacity=".51"/><path data-name="Path 591" d="M274.905 106.405a2.165 2.165 0 10-2.224-2.165 2.195 2.195 0 002.224 2.165z" opacity=".51"/><path data-name="Path 592" d="M288.268 105.791a1.551 1.551 0 10-1.594-1.551 1.572 1.572 0 001.594 1.551z" opacity=".51"/><path data-name="Path 593" d="M301.64 105.25a1.01 1.01 0 10-1.038-1.01 1.024 1.024 0 001.038 1.01z" opacity=".51"/><path data-name="Path 594" d="M315.01 104.818a.578.578 0 10-.595-.578.586.586 0 00.595.578z" opacity=".51"/><path data-name="Path 595" d="M328.379 104.492a.253.253 0 10-.259-.253.255.255 0 00.259.253z" opacity=".51"/><path data-name="Path 596" d="M341.786 104.239a.036.036 0 00-.038-.035.035.035 0 00-.036.035.036.036 0 00.036.037.037.037 0 00.038-.037z" opacity=".51"/><path data-name="Path 597" d="M.815 116.454a.794.794 0 10.817.794.8.8 0 00-.817-.794z" opacity=".51"/><path data-name="Path 598" d="M14.185 115.948a1.3 1.3 0 101.335 1.3 1.316 1.316 0 00-1.335-1.3z" opacity=".51"/><path data-name="Path 599" d="M27.557 115.371a1.877 1.877 0 101.926 1.876 1.9 1.9 0 00-1.926-1.876z" opacity=".51"/><ellipse data-name="Ellipse 10" cx="2.633" cy="2.561" rx="2.633" ry="2.561" transform="translate(38.293 114.686)" opacity=".51"/><path data-name="Path 600" d="M54.294 120.603a3.356 3.356 0 10-3.447-3.355 3.4 3.4 0 003.447 3.355z" opacity=".51"/><ellipse data-name="Ellipse 11" cx="4.301" cy="4.184" rx="4.301" ry="4.184" transform="translate(63.366 113.064)" opacity=".51"/><path data-name="Path 601" d="M75.77 117.248a5.267 5.267 0 105.265-5.123 5.194 5.194 0 00-5.265 5.123z" opacity=".51"/><path data-name="Path 602" d="M100.635 117.245a6.231 6.231 0 10-6.231 6.06 6.147 6.147 0 006.231-6.06z" opacity=".51"/><path data-name="Path 603" d="M201.364 110.538a6.859 6.859 0 00-6.683 5.085 6.936 6.936 0 00-13.37 0 6.935 6.935 0 00-13.37 0 6.936 6.936 0 00-13.371 0 6.936 6.936 0 00-13.369 0 6.936 6.936 0 00-13.371 0 6.936 6.936 0 00-13.371 0 6.712 6.712 0 100 3.248 6.936 6.936 0 0013.371 0 6.936 6.936 0 0013.371 0 6.936 6.936 0 0013.369 0 6.936 6.936 0 0013.371 0 6.935 6.935 0 0013.37 0 6.936 6.936 0 0013.37 0 6.87 6.87 0 106.683-8.333z" opacity=".51"/><path data-name="Path 604" d="M220.851 117.248a6.12 6.12 0 10-6.116 5.952 6.035 6.035 0 006.116-5.952z" opacity=".51"/><path data-name="Path 605" d="M228.105 112.27a4.98 4.98 0 105.115 4.978 5.048 5.048 0 00-5.115-4.978z" opacity=".51"/><path data-name="Path 606" d="M241.471 113.171a4.077 4.077 0 104.191 4.076 4.134 4.134 0 00-4.191-4.076z" opacity=".51"/><path data-name="Path 607" d="M254.846 114.001a3.248 3.248 0 103.336 3.247 3.294 3.294 0 00-3.336-3.247z" opacity=".51"/><path data-name="Path 608" d="M268.216 119.736a2.489 2.489 0 10-2.56-2.488 2.524 2.524 0 002.56 2.488z" opacity=".51"/><path data-name="Path 609" d="M281.584 119.088a1.841 1.841 0 10-1.891-1.84 1.865 1.865 0 001.891 1.84z" opacity=".51"/><path data-name="Path 610" d="M294.953 118.474a1.227 1.227 0 10-1.26-1.226 1.244 1.244 0 001.26 1.226z" opacity=".51"/><path data-name="Path 611" d="M308.326 117.969a.721.721 0 10-.742-.722.732.732 0 00.742.722z" opacity=".51"/><path data-name="Path 612" d="M321.694 117.609a.361.361 0 10-.371-.361.366.366 0 00.371.361z" opacity=".51"/><path data-name="Path 613" d="M335.063 117.356a.109.109 0 10-.109-.109.11.11 0 00.109.109z" opacity=".51"/><path data-name="Path 614" d="M7.499 129.462a.794.794 0 10.818.793.8.8 0 00-.818-.793z" opacity=".51"/><path data-name="Path 615" d="M20.872 128.955a1.3 1.3 0 101.333 1.3 1.316 1.316 0 00-1.333-1.3z" opacity=".51"/><path data-name="Path 616" d="M34.241 128.342a1.913 1.913 0 101.965 1.913 1.94 1.94 0 00-1.965-1.913z" opacity=".51"/><path data-name="Path 617" d="M47.609 127.657a2.6 2.6 0 102.671 2.6 2.634 2.634 0 00-2.671-2.6z" opacity=".51"/><path data-name="Path 618" d="M57.496 130.255a3.486 3.486 0 103.484-3.39 3.437 3.437 0 00-3.484 3.39z" opacity=".51"/><path data-name="Path 619" d="M69.976 130.255a4.376 4.376 0 104.375-4.256 4.316 4.316 0 00-4.375 4.256z" opacity=".51"/><path data-name="Path 620" d="M82.345 130.255a5.378 5.378 0 105.375-5.23 5.305 5.305 0 00-5.375 5.23z" opacity=".51"/><path data-name="Path 621" d="M107.505 130.255a6.417 6.417 0 10-6.415 6.24 6.329 6.329 0 006.415-6.24z" opacity=".51"/><path data-name="Path 622" d="M201.365 128.63a6.936 6.936 0 00-13.369 0 6.937 6.937 0 00-13.371 0 6.936 6.936 0 00-13.37 0 6.937 6.937 0 00-13.37 0 6.937 6.937 0 00-13.371 0 6.934 6.934 0 00-13.369 0 6.712 6.712 0 100 3.239 6.934 6.934 0 0013.369 0 6.936 6.936 0 0013.371 0 6.936 6.936 0 0013.37 0 6.936 6.936 0 0013.37 0 6.936 6.936 0 0013.371 0 6.936 6.936 0 0013.369 0 6.926 6.926 0 0013.52-.771 6.422 6.422 0 100-1.707 6.926 6.926 0 00-13.52-.771z" opacity=".51"/><path data-name="Path 623" d="M229.265 130.255a5.526 5.526 0 105.524-5.374 5.449 5.449 0 00-5.524 5.374z" opacity=".51"/><path data-name="Path 624" d="M252.683 130.255a4.525 4.525 0 10-4.524 4.4 4.462 4.462 0 004.524-4.4z" opacity=".51"/><path data-name="Path 625" d="M261.53 126.72a3.536 3.536 0 103.633 3.535 3.583 3.583 0 00-3.633-3.535z" opacity=".51"/><path data-name="Path 626" d="M274.9 132.965a2.706 2.706 0 10-2.78-2.705 2.743 2.743 0 002.78 2.705z" opacity=".51"/><path data-name="Path 627" d="M288.269 132.275a2.02 2.02 0 10-2.074-2.02 2.048 2.048 0 002.074 2.02z" opacity=".51"/><path data-name="Path 628" d="M301.64 131.626a1.371 1.371 0 10-1.409-1.371 1.391 1.391 0 001.409 1.371z" opacity=".51"/><path data-name="Path 629" d="M315.01 131.121a.865.865 0 10-.891-.865.876.876 0 00.891.865z" opacity=".51"/><path data-name="Path 630" d="M328.379 130.688a.433.433 0 10-.444-.433.438.438 0 00.444.433z" opacity=".51"/><path data-name="Path 631" d="M341.748 130.399a.144.144 0 10-.148-.144.146.146 0 00.148.144z" opacity=".51"/><path data-name="Path 632" d="M.816 142.541a.721.721 0 10.741.722.732.732 0 00-.741-.722z" opacity=".51"/><path data-name="Path 633" d="M14.186 142.033a1.227 1.227 0 101.261 1.227 1.243 1.243 0 00-1.261-1.227z" opacity=".51"/><path data-name="Path 634" d="M27.557 141.46a1.8 1.8 0 101.853 1.8 1.829 1.829 0 00-1.853-1.8z" opacity=".51"/><path data-name="Path 635" d="M40.922 140.774a2.489 2.489 0 102.559 2.488 2.521 2.521 0 00-2.559-2.488z" opacity=".51"/><path data-name="Path 636" d="M54.294 139.98a3.284 3.284 0 103.374 3.283 3.329 3.329 0 00-3.374-3.283z" opacity=".51"/><path data-name="Path 637" d="M67.662 147.375a4.114 4.114 0 10-4.227-4.112 4.17 4.17 0 004.227 4.112z" opacity=".51"/><path data-name="Path 638" d="M86.225 143.263a5.193 5.193 0 10-5.189 5.049 5.121 5.121 0 005.189-5.049z" opacity=".51"/><path data-name="Path 639" d="M94.404 149.323a6.062 6.062 0 10-6.227-6.06 6.147 6.147 0 006.227 6.06z" opacity=".51"/><path data-name="Path 640" d="M221.446 143.262a6.726 6.726 0 00-13.3-1.206 6.932 6.932 0 00-13.464-.419 6.935 6.935 0 00-13.37.006 6.934 6.934 0 00-13.37 0 6.936 6.936 0 00-13.371 0 6.936 6.936 0 00-13.369 0 6.936 6.936 0 00-13.371.006 6.936 6.936 0 00-13.371 0 6.712 6.712 0 100 3.248 6.936 6.936 0 0013.371 0 6.936 6.936 0 0013.371 0 6.936 6.936 0 0013.369 0 6.936 6.936 0 0013.371-.006 6.934 6.934 0 0013.37 0 6.935 6.935 0 0013.37.006 6.932 6.932 0 0013.464-.419 6.726 6.726 0 0013.3-1.2z" opacity=".51"/><path data-name="Path 641" d="M233.741 143.266a5.638 5.638 0 10-5.635 5.483 5.561 5.561 0 005.635-5.483z" opacity=".51"/><path data-name="Path 642" d="M241.474 138.753a4.511 4.511 0 104.636 4.509 4.572 4.572 0 00-4.636-4.509z" opacity=".51"/><path data-name="Path 643" d="M258.553 143.263a3.709 3.709 0 10-3.707 3.607 3.66 3.66 0 003.707-3.607z" opacity=".51"/><ellipse data-name="Ellipse 12" cx="2.892" cy="2.813" rx="2.892" ry="2.813" transform="translate(265.323 140.449)" opacity=".51"/><path data-name="Path 644" d="M281.584 141.17a2.093 2.093 0 102.15 2.092 2.123 2.123 0 00-2.15-2.092z" opacity=".51"/><path data-name="Path 645" d="M294.954 141.821a1.443 1.443 0 101.485 1.442 1.464 1.464 0 00-1.485-1.442z" opacity=".51"/><path data-name="Path 646" d="M308.325 142.325a.938.938 0 10.962.938.952.952 0 00-.962-.938z" opacity=".51"/><path data-name="Path 647" d="M321.694 142.757a.505.505 0 10.52.505.511.511 0 00-.52-.505z" opacity=".51"/><path data-name="Path 648" d="M335.064 143.082a.18.18 0 10.185.181.183.183 0 00-.185-.181z" opacity=".51"/><path data-name="Path 649" d="M7.5 155.657a.613.613 0 10.633.614.622.622 0 00-.633-.614z" opacity=".51"/><path data-name="Path 650" d="M20.874 155.225a1.046 1.046 0 101.074 1.046 1.061 1.061 0 00-1.074-1.046z" opacity=".51"/><path data-name="Path 651" d="M34.241 154.647a1.624 1.624 0 101.668 1.624 1.647 1.647 0 00-1.668-1.624z" opacity=".51"/><path data-name="Path 652" d="M47.61 154.034a2.238 2.238 0 102.3 2.237 2.268 2.268 0 00-2.3-2.237z" opacity=".51"/><path data-name="Path 653" d="M60.979 153.313a2.959 2.959 0 103.041 2.958 3 3 0 00-3.041-2.958z" opacity=".51"/><path data-name="Path 654" d="M74.351 160.02a3.753 3.753 0 10-3.857-3.75 3.8 3.8 0 003.857 3.75z" opacity=".51"/><path data-name="Path 655" d="M87.72 160.887a4.619 4.619 0 10-4.745-4.616 4.681 4.681 0 004.745 4.616z" opacity=".51"/><ellipse data-name="Ellipse 13" cx="5.71" cy="5.555" rx="5.71" ry="5.555" transform="translate(95.38 150.716)" opacity=".51"/><path data-name="Path 656" d="M208.05 149.561a6.861 6.861 0 00-6.686 5.085 6.936 6.936 0 00-13.369 0 6.936 6.936 0 00-13.371.006 6.935 6.935 0 00-13.37-.006 6.936 6.936 0 00-13.37 0 6.936 6.936 0 00-13.371.006 6.929 6.929 0 00-13.463.414 6.53 6.53 0 100 2.411 6.93 6.93 0 0013.463.414 6.936 6.936 0 0013.371.006 6.937 6.937 0 0013.37 0 6.936 6.936 0 0013.37-.006 6.936 6.936 0 0013.374.004 6.936 6.936 0 0013.369 0 6.87 6.87 0 106.686-8.334z" opacity=".51"/><path data-name="Path 657" d="M221.419 162.474a6.206 6.206 0 10-6.377-6.2 6.293 6.293 0 006.377 6.2z" opacity=".51"/><path data-name="Path 658" d="M240.24 156.271a5.451 5.451 0 10-5.451 5.3 5.379 5.379 0 005.451-5.3z" opacity=".51"/><path data-name="Path 659" d="M252.647 156.271a4.489 4.489 0 10-4.489 4.364 4.427 4.427 0 004.489-4.364z" opacity=".51"/><path data-name="Path 660" d="M261.53 152.735a3.536 3.536 0 103.633 3.536 3.584 3.584 0 00-3.633-3.536z" opacity=".51"/><path data-name="Path 661" d="M274.9 153.529a2.742 2.742 0 102.818 2.742 2.781 2.781 0 00-2.818-2.742z" opacity=".51"/><path data-name="Path 662" d="M288.269 154.214a2.057 2.057 0 102.116 2.057 2.086 2.086 0 00-2.116-2.057z" opacity=".51"/><path data-name="Path 663" d="M301.64 154.827a1.444 1.444 0 101.483 1.444 1.464 1.464 0 00-1.483-1.444z" opacity=".51"/><path data-name="Path 664" d="M315.01 155.368a.9.9 0 10.927.9.914.914 0 00-.927-.9z" opacity=".51"/><path data-name="Path 665" d="M328.379 155.802a.469.469 0 10.482.469.476.476 0 00-.482-.469z" opacity=".51"/><path data-name="Path 666" d="M341.749 156.09a.18.18 0 100 .361.181.181 0 100-.361z" opacity=".51"/><path data-name="Path 667" d="M.815 168.845a.433.433 0 10.447.432.439.439 0 00-.447-.432z" opacity=".51"/><path data-name="Path 668" d="M14.185 168.448a.83.83 0 10.852.829.84.84 0 00-.852-.829z" opacity=".51"/><path data-name="Path 669" d="M27.557 167.943a1.335 1.335 0 101.371 1.334 1.353 1.353 0 00-1.371-1.334z" opacity=".51"/><path data-name="Path 670" d="M40.925 167.366a1.913 1.913 0 101.965 1.912 1.94 1.94 0 00-1.965-1.912z" opacity=".51"/><ellipse data-name="Ellipse 14" cx="2.633" cy="2.561" rx="2.633" ry="2.561" transform="translate(51.662 166.716)" opacity=".51"/><path data-name="Path 671" d="M67.666 165.995a3.284 3.284 0 103.374 3.282 3.329 3.329 0 00-3.374-3.282z" opacity=".51"/><path data-name="Path 672" d="M81.035 165.238a4.042 4.042 0 104.153 4.039 4.1 4.1 0 00-4.153-4.039z" opacity=".51"/><ellipse data-name="Ellipse 15" cx="4.968" cy="4.834" rx="4.968" ry="4.834" transform="translate(89.437 164.444)" opacity=".51"/><path data-name="Path 673" d="M107.775 174.905a5.629 5.629 0 10-5.784-5.628 5.709 5.709 0 005.784 5.628z" opacity=".51"/><path data-name="Path 674" d="M207.927 169.278a6.572 6.572 0 00-13.077-.731 6.926 6.926 0 00-13.54-.888 6.935 6.935 0 00-13.37 0 6.936 6.936 0 00-13.371-.006 6.936 6.936 0 00-13.369 0 6.927 6.927 0 00-13.539.894 6.387 6.387 0 100 1.461 6.927 6.927 0 0013.539.894 6.936 6.936 0 0013.369 0 6.936 6.936 0 0013.371 0 6.935 6.935 0 0013.37 0 6.926 6.926 0 0013.54-.888 6.572 6.572 0 0013.077-.732z" opacity=".51"/><path data-name="Path 675" d="M220.484 169.277a5.749 5.749 0 10-5.746 5.591 5.669 5.669 0 005.746-5.591z" opacity=".51"/><path data-name="Path 676" d="M233.038 169.278a4.933 4.933 0 10-4.932 4.8 4.866 4.866 0 004.932-4.8z" opacity=".51"/><ellipse data-name="Ellipse 16" cx="4.115" cy="4.004" rx="4.115" ry="4.004" transform="translate(237.359 165.274)" opacity=".51"/><path data-name="Path 677" d="M254.846 166.032a3.247 3.247 0 103.336 3.245 3.293 3.293 0 00-3.336-3.245z" opacity=".51"/><path data-name="Path 678" d="M268.215 166.753a2.526 2.526 0 102.594 2.524 2.559 2.559 0 00-2.594-2.524z" opacity=".51"/><path data-name="Path 679" d="M281.584 167.402a1.877 1.877 0 101.929 1.875 1.9 1.9 0 00-1.929-1.875z" opacity=".51"/><path data-name="Path 680" d="M294.954 167.943a1.335 1.335 0 101.373 1.334 1.353 1.353 0 00-1.373-1.334z" opacity=".51"/><path data-name="Path 681" d="M308.325 168.448a.83.83 0 10.852.829.84.84 0 00-.852-.829z" opacity=".51"/><path data-name="Path 682" d="M321.694 168.845a.433.433 0 10.444.432.438.438 0 00-.444-.432z" opacity=".51"/><path data-name="Path 683" d="M335.064 169.133a.144.144 0 10.15.144.146.146 0 00-.15-.144z" opacity=".51"/><path data-name="Path 684" d="M7.5 182.032a.253.253 0 10.262.253.257.257 0 00-.262-.253z" opacity=".51"/><path data-name="Path 685" d="M20.872 181.707a.578.578 0 10.592.578.586.586 0 00-.592-.578z" opacity=".51"/><path data-name="Path 686" d="M34.241 181.275a1.01 1.01 0 101.038 1.01 1.024 1.024 0 00-1.038-1.01z" opacity=".51"/><path data-name="Path 687" d="M47.61 180.771a1.516 1.516 0 101.559 1.515 1.536 1.536 0 00-1.559-1.515z" opacity=".51"/><path data-name="Path 688" d="M60.98 180.229a2.057 2.057 0 102.115 2.056 2.085 2.085 0 00-2.115-2.056z" opacity=".51"/><path data-name="Path 689" d="M74.351 179.615a2.671 2.671 0 102.745 2.67 2.708 2.708 0 00-2.745-2.67z" opacity=".51"/><path data-name="Path 690" d="M87.72 178.967a3.32 3.32 0 103.412 3.319 3.365 3.365 0 00-3.412-3.319z" opacity=".51"/><path data-name="Path 691" d="M105.206 182.285a4.117 4.117 0 10-4.115 4 4.06 4.06 0 004.115-4z" opacity=".51"/><path data-name="Path 692" d="M114.462 186.938a4.655 4.655 0 10-4.783-4.653 4.721 4.721 0 004.783 4.653z" opacity=".51"/><path data-name="Path 693" d="M122.418 182.285a5.415 5.415 0 105.413-5.267 5.34 5.34 0 00-5.413 5.267z" opacity=".51"/><path data-name="Path 694" d="M147.133 182.285a5.934 5.934 0 10-5.933 5.771 5.853 5.853 0 005.933-5.771z" opacity=".51"/><path data-name="Path 695" d="M160.837 182.285a6.269 6.269 0 10-6.268 6.1 6.182 6.182 0 006.268-6.1z" opacity=".51"/><path data-name="Path 696" d="M174.353 182.285a6.416 6.416 0 10-6.413 6.241 6.328 6.328 0 006.413-6.241z" opacity=".51"/><path data-name="Path 697" d="M187.65 182.285a6.342 6.342 0 10-6.34 6.168 6.257 6.257 0 006.34-6.168z" opacity=".51"/><path data-name="Path 698" d="M200.686 182.285a6.008 6.008 0 10-6.006 5.843 5.927 5.927 0 006.006-5.843z" opacity=".51"/><ellipse data-name="Ellipse 17" cx="5.524" cy="5.375" rx="5.524" ry="5.375" transform="translate(202.526 176.911)" opacity=".51"/><path data-name="Path 699" d="M221.42 187.082a4.8 4.8 0 10-4.93-4.8 4.864 4.864 0 004.93 4.8z" opacity=".51"/><path data-name="Path 700" d="M234.79 178.137a4.15 4.15 0 104.265 4.148 4.207 4.207 0 00-4.265-4.148z" opacity=".51"/><path data-name="Path 701" d="M248.158 178.787a3.5 3.5 0 103.6 3.5 3.548 3.548 0 00-3.6-3.5z" opacity=".51"/><path data-name="Path 702" d="M261.53 179.435a2.851 2.851 0 102.928 2.85 2.892 2.892 0 00-2.928-2.85z" opacity=".51"/><path data-name="Path 703" d="M274.899 180.049a2.237 2.237 0 102.3 2.236 2.267 2.267 0 00-2.3-2.236z" opacity=".51"/><path data-name="Path 704" d="M288.269 180.661a1.624 1.624 0 101.67 1.624 1.647 1.647 0 00-1.67-1.624z" opacity=".51"/><path data-name="Path 705" d="M301.64 181.167a1.118 1.118 0 101.148 1.119 1.134 1.134 0 00-1.148-1.119z" opacity=".51"/><path data-name="Path 706" d="M315.01 181.6a.686.686 0 10.7.685.7.7 0 00-.7-.685z" opacity=".51"/><path data-name="Path 707" d="M328.376 181.961a.325.325 0 10.336.325.329.329 0 00-.336-.325z" opacity=".51"/><path data-name="Path 708" d="M341.748 182.177a.108.108 0 10.111.109.108.108 0 00-.111-.109z" opacity=".51"/><path data-name="Path 709" d="M.815 195.185a.108.108 0 10.112.108.11.11 0 00-.112-.108z" opacity=".51"/><path data-name="Path 710" d="M14.185 194.932a.361.361 0 10.37.361.366.366 0 00-.37-.361z" opacity=".51"/><path data-name="Path 711" d="M27.557 194.607a.686.686 0 10.7.685.7.7 0 00-.7-.685z" opacity=".51"/><path data-name="Path 712" d="M40.926 194.21a1.083 1.083 0 101.112 1.082 1.1 1.1 0 00-1.112-1.082z" opacity=".51"/><path data-name="Path 713" d="M54.294 193.742a1.551 1.551 0 101.6 1.551 1.573 1.573 0 00-1.6-1.551z" opacity=".51"/><path data-name="Path 714" d="M67.666 193.237a2.057 2.057 0 102.113 2.055 2.085 2.085 0 00-2.113-2.055z" opacity=".51"/><path data-name="Path 715" d="M81.036 192.695a2.6 2.6 0 102.668 2.6 2.635 2.635 0 00-2.668-2.6z" opacity=".51"/><path data-name="Path 716" d="M94.405 192.154a3.139 3.139 0 103.227 3.139 3.182 3.182 0 00-3.227-3.139z" opacity=".51"/><path data-name="Path 717" d="M107.774 191.613a3.681 3.681 0 103.782 3.679 3.731 3.731 0 00-3.782-3.679z" opacity=".51"/><path data-name="Path 718" d="M121.146 191.144a4.15 4.15 0 104.263 4.149 4.209 4.209 0 00-4.263-4.149z" opacity=".51"/><path data-name="Path 719" d="M139.187 195.293a4.673 4.673 0 10-4.672 4.546 4.608 4.608 0 004.672-4.546z" opacity=".51"/><path data-name="Path 720" d="M147.884 200.09a4.8 4.8 0 10-4.93-4.8 4.867 4.867 0 004.93 4.8z" opacity=".51"/><path data-name="Path 721" d="M161.256 200.235a4.944 4.944 0 10-5.08-4.943 5.012 5.012 0 005.08 4.943z" opacity=".51"/><path data-name="Path 722" d="M174.625 200.199a4.908 4.908 0 10-5.042-4.906 4.976 4.976 0 005.042 4.906z" opacity=".51"/><path data-name="Path 723" d="M187.995 199.982a4.691 4.691 0 10-4.819-4.689 4.757 4.757 0 004.819 4.689z" opacity=".51"/><path data-name="Path 724" d="M201.364 190.928a4.367 4.367 0 104.488 4.365 4.427 4.427 0 00-4.488-4.365z" opacity=".51"/><path data-name="Path 725" d="M214.735 191.362a3.933 3.933 0 104.042 3.931 3.988 3.988 0 00-4.042-3.931z" opacity=".51"/><path data-name="Path 726" d="M228.105 191.866a3.428 3.428 0 103.521 3.426 3.475 3.475 0 00-3.521-3.426z" opacity=".51"/><path data-name="Path 727" d="M241.476 192.407a2.887 2.887 0 102.968 2.885 2.927 2.927 0 00-2.968-2.885z" opacity=".51"/><path data-name="Path 728" d="M254.845 192.953a2.345 2.345 0 102.41 2.344 2.377 2.377 0 00-2.41-2.344z" opacity=".51"/><path data-name="Path 729" d="M268.215 193.489a1.8 1.8 0 101.853 1.8 1.83 1.83 0 00-1.853-1.8z" opacity=".51"/><path data-name="Path 730" d="M281.584 193.959a1.335 1.335 0 101.374 1.334 1.353 1.353 0 00-1.374-1.334z" opacity=".51"/><path data-name="Path 731" d="M294.953 194.427a.866.866 0 10.89.865.877.877 0 00-.89-.865z" opacity=".51"/><path data-name="Path 732" d="M308.325 194.787a.506.506 0 10.517.505.514.514 0 00-.517-.505z" opacity=".51"/><path data-name="Path 733" d="M321.69 195.076a.217.217 0 10.224.216.222.222 0 00-.224-.216z" opacity=".51"/><path data-name="Path 734" d="M335.03 195.292a.037.037 0 00.035.037.039.039 0 00.038-.037.037.037 0 00-.038-.036.035.035 0 00-.035.036z" opacity=".51"/><path data-name="Path 735" d="M20.871 208.156a.145.145 0 10.147.145.146.146 0 00-.147-.145z" opacity=".51"/><path data-name="Path 736" d="M34.241 207.94a.361.361 0 10.371.361.365.365 0 00-.371-.361z" opacity=".51"/><path data-name="Path 737" d="M47.61 207.615a.686.686 0 10.706.685.694.694 0 00-.706-.685z" opacity=".51"/><path data-name="Path 738" d="M60.98 207.254a1.047 1.047 0 101.076 1.046 1.061 1.061 0 00-1.076-1.046z" opacity=".51"/><path data-name="Path 739" d="M74.351 206.821a1.479 1.479 0 101.52 1.479 1.5 1.5 0 00-1.52-1.479z" opacity=".51"/><path data-name="Path 740" d="M87.718 206.389a1.912 1.912 0 101.968 1.913 1.939 1.939 0 00-1.968-1.913z" opacity=".51"/><path data-name="Path 741" d="M101.09 205.955a2.346 2.346 0 102.411 2.346 2.378 2.378 0 00-2.411-2.346z" opacity=".51"/><path data-name="Path 742" d="M114.462 205.559a2.743 2.743 0 102.818 2.742 2.778 2.778 0 00-2.818-2.742z" opacity=".51"/><path data-name="Path 743" d="M127.831 205.195a3.1 3.1 0 103.189 3.1 3.147 3.147 0 00-3.189-3.1z" opacity=".51"/><path data-name="Path 744" d="M141.201 204.873a3.428 3.428 0 103.524 3.427 3.476 3.476 0 00-3.524-3.427z" opacity=".51"/><path data-name="Path 745" d="M154.569 204.657a3.645 3.645 0 103.747 3.643 3.694 3.694 0 00-3.747-3.643z" opacity=".51"/><ellipse data-name="Ellipse 18" cx="3.856" cy="3.752" rx="3.856" ry="3.752" transform="translate(164.084 204.548)" opacity=".51"/><ellipse data-name="Ellipse 19" cx="3.856" cy="3.752" rx="3.856" ry="3.752" transform="translate(177.454 204.548)" opacity=".51"/><path data-name="Path 746" d="M194.679 204.693a3.608 3.608 0 103.709 3.607 3.658 3.658 0 00-3.709-3.607z" opacity=".51"/><path data-name="Path 747" d="M208.051 204.946a3.356 3.356 0 103.448 3.355 3.4 3.4 0 00-3.448-3.355z" opacity=".51"/><path data-name="Path 748" d="M221.419 205.269a3.031 3.031 0 103.115 3.031 3.074 3.074 0 00-3.115-3.031z" opacity=".51"/><path data-name="Path 749" d="M234.79 205.631a2.67 2.67 0 102.745 2.669 2.7 2.7 0 00-2.745-2.669z" opacity=".51"/><path data-name="Path 750" d="M248.158 206.063a2.238 2.238 0 102.3 2.237 2.268 2.268 0 00-2.3-2.237z" opacity=".51"/><path data-name="Path 751" d="M261.53 206.493a1.8 1.8 0 101.854 1.8 1.829 1.829 0 00-1.854-1.8z" opacity=".51"/><path data-name="Path 752" d="M274.9 206.93a1.371 1.371 0 101.409 1.371 1.389 1.389 0 00-1.409-1.371z" opacity=".51"/><path data-name="Path 753" d="M288.264 207.329a.975.975 0 101 .975.988.988 0 00-1-.975z" opacity=".51"/><path data-name="Path 754" d="M301.641 207.686a.613.613 0 10.63.614.623.623 0 00-.63-.614z" opacity=".51"/><path data-name="Path 755" d="M315.01 207.978a.325.325 0 10.332.325.33.33 0 00-.332-.325z" opacity=".51"/><path data-name="Path 756" d="M328.379 208.192a.109.109 0 10.112.108.111.111 0 00-.112-.108z" opacity=".51"/><path data-name="Path 757" d="M27.556 221.164a.144.144 0 10.147.143.146.146 0 00-.147-.143z" opacity=".51"/><path data-name="Path 758" d="M40.925 220.947a.361.361 0 10.371.36.365.365 0 00-.371-.36z" opacity=".51"/><path data-name="Path 759" d="M54.295 220.694a.613.613 0 10.633.612.621.621 0 00-.633-.612z" opacity=".51"/><path data-name="Path 760" d="M67.666 220.406a.9.9 0 10.927.9.915.915 0 00-.927-.9z" opacity=".51"/><path data-name="Path 761" d="M81.035 220.045a1.263 1.263 0 101.3 1.261 1.28 1.28 0 00-1.3-1.261z" opacity=".51"/><path data-name="Path 762" d="M94.405 219.721a1.588 1.588 0 101.632 1.586 1.608 1.608 0 00-1.632-1.586z" opacity=".51"/><path data-name="Path 763" d="M107.774 219.395a1.913 1.913 0 101.964 1.912 1.941 1.941 0 00-1.964-1.912z" opacity=".51"/><path data-name="Path 764" d="M121.146 219.107a2.2 2.2 0 102.262 2.2 2.232 2.232 0 00-2.262-2.2z" opacity=".51"/><path data-name="Path 765" d="M134.515 218.854a2.454 2.454 0 102.521 2.452 2.489 2.489 0 00-2.521-2.452z" opacity=".51"/><path data-name="Path 766" d="M147.884 218.711a2.6 2.6 0 102.67 2.6 2.633 2.633 0 00-2.67-2.6z" opacity=".51"/><path data-name="Path 767" d="M161.256 218.602a2.706 2.706 0 102.78 2.7 2.746 2.746 0 00-2.78-2.7z" opacity=".51"/><path data-name="Path 768" d="M174.625 218.602a2.707 2.707 0 102.781 2.7 2.743 2.743 0 00-2.781-2.7z" opacity=".51"/><path data-name="Path 769" d="M187.994 218.674a2.635 2.635 0 102.706 2.632 2.67 2.67 0 00-2.706-2.632z" opacity=".51"/><path data-name="Path 770" d="M201.364 218.854a2.454 2.454 0 102.524 2.452 2.489 2.489 0 00-2.524-2.452z" opacity=".51"/><path data-name="Path 771" d="M214.735 219.071a2.237 2.237 0 102.3 2.235 2.269 2.269 0 00-2.3-2.235z" opacity=".51"/><path data-name="Path 772" d="M228.105 219.395a1.913 1.913 0 101.964 1.912 1.941 1.941 0 00-1.964-1.912z" opacity=".51"/><path data-name="Path 773" d="M241.474 219.684a1.624 1.624 0 101.669 1.622 1.645 1.645 0 00-1.669-1.622z" opacity=".51"/><path data-name="Path 774" d="M254.845 220.045a1.263 1.263 0 101.3 1.261 1.281 1.281 0 00-1.3-1.261z" opacity=".51"/><path data-name="Path 775" d="M268.215 220.37a.938.938 0 10.965.937.951.951 0 00-.965-.937z" opacity=".51"/><path data-name="Path 776" d="M281.584 220.694a.613.613 0 10.63.612.621.621 0 00-.63-.612z" opacity=".51"/><path data-name="Path 777" d="M294.954 220.947a.361.361 0 10.373.36.366.366 0 00-.373-.36z" opacity=".51"/><path data-name="Path 778" d="M308.329 221.164a.144.144 0 100 .288.144.144 0 100-.288z" opacity=".51"/><path data-name="Path 779" d="M47.609 234.206a.109.109 0 10.112.108.111.111 0 00-.112-.108z" opacity=".51"/><path data-name="Path 780" d="M60.975 234.063a.252.252 0 10.261.251.255.255 0 00-.261-.251z" opacity=".51"/><path data-name="Path 781" d="M74.347 233.845a.469.469 0 10.482.469.476.476 0 00-.482-.469z" opacity=".51"/><path data-name="Path 782" d="M87.719 233.629a.686.686 0 10.706.685.695.695 0 00-.706-.685z" opacity=".51"/><path data-name="Path 783" d="M101.094 233.378a.938.938 0 10.965.937.951.951 0 00-.965-.937z" opacity=".51"/><path data-name="Path 784" d="M114.461 233.125a1.191 1.191 0 101.223 1.19 1.207 1.207 0 00-1.223-1.19z" opacity=".51"/><path data-name="Path 785" d="M127.831 232.909a1.407 1.407 0 101.445 1.406 1.427 1.427 0 00-1.445-1.406z" opacity=".51"/><path data-name="Path 786" d="M141.201 232.728a1.588 1.588 0 101.632 1.587 1.608 1.608 0 00-1.632-1.587z" opacity=".51"/><path data-name="Path 787" d="M154.569 232.584a1.732 1.732 0 101.782 1.731 1.754 1.754 0 00-1.782-1.731z" opacity=".51"/><path data-name="Path 788" d="M167.938 232.512a1.8 1.8 0 101.853 1.8 1.83 1.83 0 00-1.853-1.8z" opacity=".51"/><path data-name="Path 789" d="M181.309 232.512a1.8 1.8 0 101.854 1.8 1.83 1.83 0 00-1.854-1.8z" opacity=".51"/><path data-name="Path 790" d="M194.679 232.548a1.768 1.768 0 101.818 1.767 1.791 1.791 0 00-1.818-1.767z" opacity=".51"/><path data-name="Path 791" d="M208.051 232.656a1.66 1.66 0 101.7 1.658 1.681 1.681 0 00-1.7-1.658z" opacity=".51"/><path data-name="Path 792" d="M221.42 232.834a1.479 1.479 0 101.521 1.478 1.5 1.5 0 00-1.521-1.478z" opacity=".51"/><path data-name="Path 793" d="M234.789 233.052a1.263 1.263 0 101.3 1.262 1.281 1.281 0 00-1.3-1.262z" opacity=".51"/><path data-name="Path 794" d="M248.158 233.305a1.011 1.011 0 101.039 1.01 1.024 1.024 0 00-1.039-1.01z" opacity=".51"/><path data-name="Path 795" d="M261.53 233.521a.794.794 0 10.815.794.8.8 0 00-.815-.794z" opacity=".51"/><path data-name="Path 796" d="M274.899 233.774a.541.541 0 10.556.541.549.549 0 00-.556-.541z" opacity=".51"/><path data-name="Path 797" d="M288.269 233.99a.325.325 0 10.336.325.329.329 0 00-.336-.325z" opacity=".51"/><path data-name="Path 798" d="M301.64 234.171a.144.144 0 10.147.144.146.146 0 00-.147-.144z" opacity=".51"/><path data-name="Path 799" d="M314.972 234.314a.038.038 0 10.038-.035.037.037 0 00-.038.035z" opacity=".51"/><path data-name="Path 800" d="M54.259 247.323a.037.037 0 00.073 0 .037.037 0 10-.073 0z" opacity=".51"/><path data-name="Path 801" d="M67.666 247.179a.144.144 0 10.148.144.146.146 0 00-.148-.144z" opacity=".51"/><path data-name="Path 802" d="M81.036 247.034a.289.289 0 10.3.288.292.292 0 00-.3-.288z" opacity=".51"/><path data-name="Path 803" d="M94.404 246.89a.433.433 0 10.447.433.44.44 0 00-.447-.433z" opacity=".51"/><path data-name="Path 804" d="M107.775 246.71a.613.613 0 10.632.613.621.621 0 00-.632-.613z" opacity=".51"/><path data-name="Path 805" d="M121.146 246.561a.758.758 0 10.777.758.768.768 0 00-.777-.758z" opacity=".51"/><path data-name="Path 806" d="M134.514 246.42a.9.9 0 10.927.9.916.916 0 00-.927-.9z" opacity=".51"/><path data-name="Path 807" d="M147.885 246.313a1.01 1.01 0 101.038 1.01 1.026 1.026 0 00-1.038-1.01z" opacity=".51"/><path data-name="Path 808" d="M161.256 246.277a1.046 1.046 0 101.074 1.045 1.061 1.061 0 00-1.074-1.045z" opacity=".51"/><path data-name="Path 809" d="M174.625 246.24a1.083 1.083 0 101.112 1.082 1.1 1.1 0 00-1.112-1.082z" opacity=".51"/><path data-name="Path 810" d="M187.995 246.277a1.046 1.046 0 101.076 1.045 1.059 1.059 0 00-1.076-1.045z" opacity=".51"/><path data-name="Path 811" d="M201.364 246.349a.974.974 0 101 .974.988.988 0 00-1-.974z" opacity=".51"/><path data-name="Path 812" d="M214.735 246.457a.866.866 0 10.889.865.878.878 0 00-.889-.865z" opacity=".51"/><path data-name="Path 813" d="M228.105 246.637a.686.686 0 10.706.685.695.695 0 00-.706-.685z" opacity=".51"/><path data-name="Path 814" d="M241.474 246.782a.541.541 0 10.557.541.548.548 0 00-.557-.541z" opacity=".51"/><path data-name="Path 815" d="M254.845 246.963a.36.36 0 10.371.36.364.364 0 00-.371-.36z" opacity=".51"/><path data-name="Path 816" d="M268.215 247.106a.217.217 0 10.224.217.221.221 0 00-.224-.217z" opacity=".51"/><path data-name="Path 817" d="M281.584 247.21a.108.108 0 10.112.109.11.11 0 00-.112-.109z" opacity=".51"/><path data-name="Path 818" d="M87.682 260.33a.038.038 0 10.038-.036.038.038 0 00-.038.036z" opacity=".51"/><path data-name="Path 819" d="M101.09 260.222a.108.108 0 10.111.108.108.108 0 00-.111-.108z" opacity=".51"/><path data-name="Path 820" d="M114.461 260.15a.18.18 0 10.185.18.182.182 0 00-.185-.18z" opacity=".51"/><path data-name="Path 821" d="M127.831 260.042a.289.289 0 100 .577.289.289 0 100-.577z" opacity=".51"/><ellipse data-name="Ellipse 20" cx=".371" cy=".361" rx=".371" ry=".361" transform="translate(140.829 259.969)" opacity=".51"/><path data-name="Path 822" d="M154.573 259.898a.433.433 0 10.447.432.439.439 0 00-.447-.432z" opacity=".51"/><path data-name="Path 823" d="M167.94 259.861a.469.469 0 10.482.468.476.476 0 00-.482-.468z" opacity=".51"/><path data-name="Path 824" d="M181.309 259.824a.506.506 0 10.521.505.511.511 0 00-.521-.505z" opacity=".51"/><path data-name="Path 825" d="M194.679 259.861a.469.469 0 10.482.468.473.473 0 00-.482-.468z" opacity=".51"/><path data-name="Path 826" d="M208.051 259.898a.433.433 0 10.444.432.441.441 0 00-.444-.432z" opacity=".51"/><path data-name="Path 827" d="M221.42 259.969a.361.361 0 10.371.361.366.366 0 00-.371-.361z" opacity=".51"/><path data-name="Path 828" d="M234.79 260.042a.289.289 0 10.3.288.293.293 0 00-.3-.288z" opacity=".51"/><path data-name="Path 829" d="M248.159 260.15a.18.18 0 10.188.18.184.184 0 00-.188-.18z" opacity=".51"/><path data-name="Path 830" d="M261.53 260.222a.108.108 0 10.109.108.109.109 0 00-.109-.108z" opacity=".51"/><path data-name="Path 831" d="M274.862 260.33a.038.038 0 10.038-.036.038.038 0 00-.038.036z" opacity=".51"/><path data-name="Path 832" d="M121.108 273.338a.037.037 0 00.038.035.035.035 0 00.035-.035.035.035 0 00-.035-.036.038.038 0 00-.038.036z" opacity=".51"/><path data-name="Path 833" d="M134.442 273.338a.074.074 0 00.148 0 .074.074 0 00-.148 0z" opacity=".51"/><path data-name="Path 834" d="M147.884 273.229a.108.108 0 10.111.109.108.108 0 00-.111-.109z" opacity=".51"/><path data-name="Path 835" d="M161.256 273.229a.108.108 0 10.109.109.108.108 0 00-.109-.109z" opacity=".51"/><path data-name="Path 836" d="M174.625 273.229a.108.108 0 10.112.109.111.111 0 00-.112-.109z" opacity=".51"/><path data-name="Path 837" d="M187.995 273.229a.108.108 0 10.111.109.111.111 0 00-.111-.109z" opacity=".51"/><path data-name="Path 838" d="M201.363 273.229a.108.108 0 10.111.109.108.108 0 00-.111-.109z" opacity=".51"/><path data-name="Path 839" d="M214.662 273.338a.072.072 0 00.073.071.073.073 0 00.074-.071.074.074 0 00-.074-.073.073.073 0 00-.073.073z" opacity=".51"/><path data-name="Path 840" d="M228.067 273.338a.038.038 0 00.076 0 .038.038 0 00-.076 0z" opacity=".51"/></g></g><g data-name="Group 1323"><g data-name="Group 1323"><path data-name="Path 841" d="M183.545 235.366l-1.942-18c-2.394-22.212-6.78-22.212-8.655-22.212-6.19 0-18.207 7.029-30.269 14.627l-17.393 10.955 8.332-18.168c6.028-13.148 4.992-17.914 3.841-19.584-1.827-2.646-7.88-3.986-17.994-3.986-2.861 0-6.049.1-9.752.316l-20.846 1.194 16.82-11.751c15.511-10.838 18.386-16.5 18.068-19.338-.317-2.813-4.287-7.7-21.409-15l-20.684-8.817 22.538-2.341c18.409-1.912 23.5-4.025 24.9-5.1-.5-1.235-2.892-4.9-14.212-13.247L90.649 87.048l29.624 7.589c13.486 3.455 22.02 5 27.672 5 3.5 0 5.2-.634 5.619-1.229.843-1.2 1.9-6.036-6.412-25.014l-11.817-26.957 21.845 20.55c12.977 12.2 20.647 14.767 24.8 14.767 2.133 0 8.622 0 13.355-18.285l4.493-17.368 7.188 16.531c2.91 6.688 6.9 14.363 11.943 14.363 2.974 0 9.777-2.267 21.919-17.452l15.338-19.174-4.351 23.718c-2.723 14.845-1.254 20.267.46 22.2.374.421 1.365 1.539 5.239 1.539 6.982 0 18.347-3.8 26.286-6.657l21.644-7.784-14.693 16.974c-7.1 8.2-7.857 11.446-7.921 12.256.719.482 3.808 1.908 15.2 1.908q1.233 0 2.534-.021l18.918-.293-15.1 10.816c-10.95 7.845-16.374 13.891-16.119 17.973.236 3.769 5.387 8.465 15.305 13.955l15.1 8.354-17.274 2.489c-18 2.593-27.279 5.972-30.091 10.957-2.639 4.678-.894 12.9 5.489 25.882l6.924 14.08-14.991-6.245c-16.491-6.873-29.585-11.448-39.892-11.448-11.022 0-21.331 4.876-35.8 28.67zm-10.6-51.922c10.856 0 15.831 8.292 18.335 17.305 11.641-15.056 23.142-21.434 37.6-21.434 9.224 0 19.227 2.591 31.242 7.037-3.216-9.858-3.034-17.116.358-23.125 4.213-7.47 12.781-11.6 24.558-14.363-4.92-4.175-8.657-9.174-9.033-15.175-.417-6.688 3.5-12.787 9.076-18.281-6.141-1.011-11.137-3.194-13.41-7.765-1.6-3.211-1.367-6.7-.045-10.249a56.837 56.837 0 01-14.058 2.136c-6.381 0-11.32-1.922-14.674-5.711-2.908-3.282-4.491-7.679-4.805-13.753-6.813 5.841-13.063 8.631-19.124 8.631-7.5 0-12.8-4.216-16.567-9.2-4.9 9.277-11.731 13.963-20.417 13.963-5.07 0-10.541-1.68-16.5-5.09 1.7 7.507 1.091 12.625-1.654 16.533-4.526 6.438-13.067 6.438-15.877 6.438a64.5 64.5 0 01-9.255-.761c2.534 3.674 3.51 7.226 2.448 10.8-1.673 5.611-7.419 8.744-17.182 10.855 6.507 4.318 11.337 9.492 12.062 15.943.777 6.928-3.443 13.411-9.594 19.332 8.381.593 16.921 2.644 21.346 9.057 2.692 3.9 3.537 8.7 2.5 14.835 9.277-5.13 16.534-7.954 22.673-7.954z" fill="#ab5ccc"/></g><path data-name="Path 842" d="M187.027 216.596c-3.785-35.65-13.763-34.293-48.535-12.062 12.915-28.591 1.7-33.8-29.971-31.953 28.514-20.222 27.894-31.116-4.479-45.124 34.657-3.655 40.642-9.195 13.816-29.266 41.431 10.775 50.048 7.017 34.225-29.629 32.821 31.34 43.746 12.459 48.548-6.382 6.518 15.206 17.151 32.945 44.534-1.811-6.288 34.8 5.831 36.54 40.3 23.95-16.56 19.419-10.764 24.5 14.7 24.1-23.9 17.376-25.63 28.06-.2 42.346-35.923 5.254-44.681 14.111-29.306 45.848-42.894-18.14-60.089-19.312-83.632 19.983z" fill="#12121b"/><g data-name="heart (2)"><path data-name="Path 852" d="M184.175 113.619h35.591v5.446h-35.591z" fill="#f69583"/><g data-name="Group 1349"><g data-name="Group 1347"><path data-name="Path 853" d="M198.555 133.283h-9.487a.924.924 0 01-.924-.924v-11.532h11.336v11.531a.924.924 0 01-.925.925z" fill="#ffcec0"/></g><g data-name="Group 1348"><path data-name="Path 854" d="M214.873 133.283h-9.487a.924.924 0 01-.924-.924v-11.532h11.336v11.531a.924.924 0 01-.925.925z" fill="#ffcec0"/></g></g><g data-name="Group 1366"><g data-name="Group 1352"><g data-name="Group 1350"><path data-name="Path 855" d="M186.001 114.849l-2.63-7.228a2.253 2.253 0 10-4.234 1.541l2.631 7.228z" fill="#fdb0a0"/><path data-name="Path 856" d="M183.372 107.621l2.631 7.228-2.813 1.024-2.631-7.228a2.247 2.247 0 00-1.286-1.323 2.252 2.252 0 014.1.3z" fill="#f69583"/></g><g data-name="Group 1351"><path data-name="Path 857" d="M222.169 116.39l2.631-7.228a2.253 2.253 0 00-4.234-1.541l-2.631 7.228z" fill="#fdb0a0"/><path data-name="Path 858" d="M224.804 109.162l-2.631 7.228-2.117-.771 2.631-7.228a2.249 2.249 0 00-.391-2.218 2.252 2.252 0 012.508 2.989z" fill="#f69583"/></g></g><g data-name="Group 1357"><g data-name="Group 1354"><g data-name="Group 1353"><path data-name="Path 859" d="M219.094 114.023a12.108 12.108 0 00-16.517-17.69.925.925 0 01-1.212 0 12.108 12.108 0 00-16.518 17.69l16.536 16.533a.831.831 0 001.176 0z" fill="#ff4952"/></g></g><g data-name="Group 1356"><g data-name="Group 1355"><path data-name="Path 860" d="M219.094 114.021l-16.535 16.536a.832.832 0 01-1.176 0l-2.067-2.069 15.791-15.793a12.117 12.117 0 00-2.806-19.2 12.108 12.108 0 016.79 20.527z" fill="#f33242"/></g></g></g><g data-name="Group 1361"><g data-name="Group 1360"><g data-name="Group 1358"><path data-name="Path 861" d="M186.524 118.006a.721.721 0 01-.6-.576l-1.157-5.963a2.332 2.332 0 00-3.072-1.753 2.367 2.367 0 00-1.5 2.69l1.283 6.592.589 3.025a8.329 8.329 0 009.767 6.584l1.837-.358a.721.721 0 00.57-.845l-.489-2.511a8.623 8.623 0 00-7.228-6.885z" fill="#ffdfd0"/></g><g data-name="Group 1359"><path data-name="Path 862" d="M193.671 128.247l-1.574.306-.52-2.673a8.623 8.623 0 00-7.229-6.886.721.721 0 01-.6-.576l-1.157-5.963a2.332 2.332 0 00-2.019-1.874 2.287 2.287 0 011.122-.868 2.331 2.331 0 013.072 1.753l1.157 5.963a.721.721 0 00.6.576 8.621 8.621 0 017.228 6.886l.489 2.51a.721.721 0 01-.57.846z" fill="#ffcec0"/></g></g></g><g data-name="Group 1365"><g data-name="Group 1364"><g data-name="Group 1362"><path data-name="Path 863" d="M217.418 118.006a.721.721 0 00.6-.576l1.157-5.963a2.332 2.332 0 013.072-1.753 2.367 2.367 0 011.5 2.69l-1.283 6.592-.589 3.025a8.329 8.329 0 01-9.767 6.584l-1.837-.358a.721.721 0 01-.57-.845l.489-2.511a8.623 8.623 0 017.228-6.885z" fill="#ffdfd0"/></g><g data-name="Group 1363"><path data-name="Path 864" d="M223.746 112.403l-1.283 6.593-.589 3.025a8.329 8.329 0 01-9.767 6.584l-.871-.169a8.333 8.333 0 008.364-6.738l.588-3.025 1.284-6.592a2.394 2.394 0 00-.861-2.34 2.317 2.317 0 011.639-.027 2.366 2.366 0 011.5 2.69z" fill="#ffcec0"/></g></g></g></g></g></g></g><text data-name="Receive Tips" transform="rotate(-4.01 1349.56 -2620.5)" fill="#2a9cff" font-size="24" font-family="SegoeUI-Bold, Segoe UI" font-weight="700"><tspan x="-69.041" y="0">Receive Tips</tspan></text></g></svg>
