<svg version="1.1" id="Layer_1" xmlns="http://www.w3.org/2000/svg" xmlns:xlink="http://www.w3.org/1999/xlink" x="0" y="0" width="340" height="201" xml:space="preserve"><style>.st2{opacity:.51;fill:#777}.st2,.st8{enable-background:new}.st9{fill:#1161fe}</style><switch><g><g id="Group_1394"><g transform="translate(0 -52)"><defs><path id="SVGID_1_" d="M0 52h340v191c0 5.5-4.5 10-10 10H10c-5.5 0-10-4.5-10-10V52z"/></defs><clipPath id="SVGID_2_"><use xlink:href="#SVGID_1_" overflow="visible"/></clipPath><g id="Mask_Group_8" transform="translate(-14 -20.361)" clip-path="url(#SVGID_2_)"><g opacity=".6"><path class="st2" d="M20.2 78.4c.1 0 .2-.1.2-.2s-.1-.2-.2-.2-.2.1-.2.2.1.2.2.2zM20.2 104.6c.2 0 .4-.2.4-.4s-.2-.4-.4-.4-.4.2-.4.4.2.4.4.4zM20.2 129.9c-.2 0-.4.2-.4.4s.2.4.4.4.4-.2.4-.4c0-.3-.2-.4-.4-.4zM20.2 156c-.2 0-.3.1-.3.2s.1.3.2.3h.1c.1 0 .3-.1.3-.2s-.1-.3-.3-.3zM20.1 182.3s0 .1 0 0c.1.1.1 0 .1 0s0-.1-.1 0c0-.1 0-.1 0 0zM33.5 78.7c.3 0 .5-.2.5-.5s-.2-.5-.5-.5-.5.2-.5.5c.1.3.3.5.5.5zM46.9 79.1c.5 0 .8-.4.8-.9s-.4-.8-.9-.8c-.4 0-.8.4-.8.8.1.5.4.9.9.9zM60.3 79.5c.7 0 1.3-.6 1.3-1.3 0-.7-.6-1.3-1.3-1.3s-1.3.6-1.3 1.3c0 .7.6 1.3 1.3 1.3zM73.6 80c1 0 1.7-.8 1.7-1.8s-.8-1.7-1.8-1.7-1.7.8-1.7 1.8c0 .9.9 1.7 1.8 1.7zM87 80.5c1.3 0 2.3-1.1 2.2-2.4 0-1.3-1.1-2.3-2.4-2.2-1.2 0-2.2 1.1-2.2 2.3.1 1.3 1.1 2.4 2.4 2.3zM100.4 81.1c1.6 0 2.9-1.4 2.8-3 0-1.6-1.4-2.8-3-2.8s-2.8 1.3-2.8 2.9c0 1.6 1.4 2.9 3 2.9zM113.8 81.7c1.9-.1 3.4-1.6 3.3-3.5-.1-1.9-1.6-3.4-3.5-3.3-1.9 0-3.3 1.6-3.3 3.4 0 1.8 1.5 3.4 3.5 3.4zM127.1 82.2c2.2-.1 3.9-1.9 3.9-4.1s-1.9-3.9-4.1-3.9c-2.1.1-3.9 1.8-3.9 4 .1 2.2 1.9 4 4.1 4zM140.7 82.7c2.4-.1 4.4-2 4.4-4.5s-2.1-4.5-4.6-4.5c-2.5.1-4.4 2.1-4.4 4.6.1 2.5 2.2 4.5 4.6 4.4zM153.9 73.4c-2.7.1-4.8 2.3-4.7 5s2.3 4.8 5 4.7c2.6-.1 4.7-2.2 4.7-4.9-.1-2.7-2.3-4.9-5-4.8zM167.2 73.1c-2.8.1-5.1 2.4-5 5.3.1 2.8 2.4 5.1 5.3 5 2.8-.1 5-2.3 5-5.1 0-2.9-2.4-5.2-5.3-5.2zM180.6 73c-2.9.1-5.2 2.5-5.1 5.4.1 2.9 2.5 5.2 5.4 5.1 2.8-.1 5.1-2.4 5.1-5.2-.1-3-2.5-5.3-5.4-5.3zM194 73.1c-2.8.1-5.1 2.4-5 5.3.1 2.8 2.4 5.1 5.3 5 2.8-.1 5-2.3 5-5.1-.1-2.9-2.5-5.2-5.3-5.2zM207.3 73.4c-2.7.1-4.8 2.3-4.7 5s2.3 4.8 5 4.7c2.6-.1 4.7-2.2 4.7-4.9s-2.2-4.9-5-4.8zM220.6 83c2.6.1 4.7-1.9 4.8-4.5.1-2.6-1.9-4.7-4.5-4.8h-.1c-2.5 0-4.6 2-4.6 4.5-.2 2.6 1.8 4.7 4.4 4.8zM234.1 82.3c2.2-.1 4-1.9 3.9-4.2-.1-2.2-1.9-4-4.2-3.9-2.2.1-3.9 1.9-3.9 4 .1 2.3 1.9 4.1 4.2 4.1zM247.5 81.7c1.9-.1 3.5-1.7 3.4-3.6-.1-1.9-1.7-3.5-3.6-3.4-1.9.1-3.4 1.6-3.4 3.5 0 2 1.6 3.6 3.6 3.5zM260.8 81.1c1.7 0 3-1.3 3-2.9s-1.3-2.9-3-2.9-3 1.3-3 2.9 1.4 2.9 3 2.9zM274.2 80.6c1.3 0 2.3-1.1 2.3-2.4 0-1.3-1.1-2.3-2.4-2.3-1.3 0-2.3 1.1-2.3 2.3 0 1.3 1.1 2.4 2.4 2.4zM287.6 80c1 0 1.8-.9 1.7-1.9 0-1-.9-1.8-1.9-1.7-1 0-1.7.8-1.7 1.8s.9 1.8 1.9 1.8zM300.9 79.5c.7 0 1.3-.6 1.3-1.3 0-.7-.6-1.3-1.3-1.3-.7 0-1.3.6-1.3 1.3 0 .8.6 1.3 1.3 1.3zM314.3 79.1c.5 0 .9-.4.8-.9 0-.5-.4-.9-.9-.8-.5 0-.8.4-.8.9 0 .4.4.8.9.8zM327.7 78.7c.3 0 .5-.2.5-.5s-.2-.5-.5-.5-.5.2-.5.5.2.5.5.5zM341 78.4c.1 0 .2-.1.2-.2s-.1-.2-.2-.2-.2.1-.2.2.1.2.2.2zM26.9 91.8c.3 0 .6-.3.6-.6s-.3-.6-.6-.6-.6.3-.6.6c-.1.4.2.6.6.6zM40.2 92.3c.6 0 1-.5 1-1.1 0-.6-.5-1-1.1-1-.6 0-1 .5-1 1 .1.6.5 1.1 1.1 1.1zM53.6 92.8c.9 0 1.5-.7 1.5-1.6 0-.9-.7-1.5-1.6-1.5-.8 0-1.5.7-1.5 1.6 0 .8.7 1.5 1.6 1.5zM67 93.4c1.2 0 2.1-1 2.1-2.2 0-1.2-1-2.1-2.2-2.1-1.2 0-2.1 1-2.1 2.1 0 1.2 1 2.2 2.2 2.2zM80.3 94c1.5 0 2.7-1.3 2.7-2.9s-1.3-2.7-2.9-2.7c-1.5 0-2.7 1.3-2.7 2.8.1 1.6 1.4 2.8 2.9 2.8zM93.7 94.7c1.9-.1 3.4-1.6 3.3-3.5-.1-1.9-1.6-3.4-3.5-3.3-1.9.1-3.3 1.6-3.3 3.4 0 1.9 1.6 3.4 3.5 3.4zM107.1 95.3c2.3-.1 4.1-2 4-4.2-.1-2.3-2-4.1-4.2-4-2.2.1-4 1.9-4 4.1 0 2.3 1.9 4.2 4.2 4.1zM120.4 86.4c-2.7.1-4.8 2.3-4.7 5 .1 2.7 2.3 4.8 5 4.7 2.6-.1 4.7-2.2 4.7-4.8 0-2.8-2.3-4.9-5-4.9zM134 85.8h-.1c-3.1 0-5.6 2.4-5.6 5.4-.1 3.1 2.4 5.7 5.4 5.7 3.1.1 5.7-2.4 5.7-5.4.1-3.1-2.3-5.6-5.4-5.7zM147.2 85.2c-3.4 0-6.1 2.6-6.2 6-.1 3.4 2.6 6.2 6 6.3 3.4.1 6.2-2.6 6.3-6 .1-3.4-2.6-6.2-6-6.3h-.1z"/><ellipse class="st2" cx="160.6" cy="91.2" rx="6.6" ry="6.4"/><path class="st2" d="M173.9 84.7c-3.7 0-6.7 2.9-6.7 6.5-.1 3.7 2.8 6.8 6.5 6.9s6.8-2.8 6.9-6.5c.1-3.7-2.8-6.8-6.5-6.9h-.2zM187.3 84.8c-3.6 0-6.6 2.8-6.6 6.5-.1 3.7 2.8 6.7 6.5 6.8 3.7.1 6.7-2.8 6.8-6.5.1-3.7-2.8-6.7-6.5-6.8h-.2zM200.7 85.1c-3.5 0-6.3 2.7-6.3 6.2-.1 3.5 2.7 6.4 6.2 6.5 3.5.1 6.4-2.7 6.5-6.2.1-3.5-2.7-6.4-6.2-6.5h-.2zM208.5 91.4c.1 3.1 2.7 5.6 5.8 5.5 3.1-.1 5.5-2.6 5.5-5.7 0-3.2-2.6-5.7-5.8-5.7-3.1.2-5.6 2.8-5.5 5.9zM227.4 86.2c-2.8.1-5 2.4-4.9 5.2s2.4 5 5.2 4.9c2.7-.1 4.9-2.3 4.9-5.1s-2.4-5.1-5.2-5z"/><ellipse class="st2" cx="240.8" cy="91.2" rx="4.5" ry="4.4"/><path class="st2" d="M254.1 94.9c2-.1 3.6-1.7 3.6-3.8s-1.7-3.6-3.8-3.6c-2 .1-3.6 1.7-3.6 3.7.1 2.1 1.8 3.7 3.8 3.7zM267.5 94.2c1.7 0 3-1.4 2.9-3.1 0-1.7-1.4-3-3.1-2.9-1.6 0-2.9 1.4-2.9 3 .1 1.7 1.4 3 3.1 3zM280.9 93.6c1.3 0 2.3-1.1 2.3-2.4s-1.1-2.3-2.4-2.3c-1.3 0-2.3 1.1-2.3 2.3 0 1.3 1.1 2.4 2.4 2.4zM294.2 93c1 0 1.7-.8 1.7-1.8s-.8-1.7-1.8-1.7c-.9 0-1.7.8-1.7 1.7.1 1 .9 1.8 1.8 1.8zM307.6 92.5c.7 0 1.2-.6 1.2-1.3 0-.7-.6-1.2-1.3-1.2-.7 0-1.2.6-1.2 1.2.1.7.6 1.3 1.3 1.3zM321 92c.4 0 .7-.4.7-.8s-.4-.7-.8-.7-.7.3-.7.8c0 .4.4.7.8.7zM334.4 91.6c.2 0 .4-.2.4-.4s-.2-.4-.4-.4-.4.2-.4.4c0 .3.1.4.4.4zM347.7 91.4c.1 0 .1-.1.1-.1 0-.1-.1-.1-.1-.1-.1 0-.1.1-.1.1s0 .1.1.1zM33.5 105c.4 0 .7-.3.7-.7s-.3-.7-.7-.7c-.4 0-.7.3-.7.7 0 .3.3.7.7.7zM46.9 105.5c.7 0 1.2-.6 1.2-1.3 0-.7-.6-1.2-1.3-1.2-.7 0-1.2.6-1.2 1.2.1.7.6 1.3 1.3 1.3zM60.3 106c1 0 1.7-.8 1.7-1.8s-.8-1.7-1.8-1.7-1.7.8-1.7 1.8c0 .9.8 1.7 1.8 1.7zM73.6 106.7c1.3 0 2.4-1.1 2.4-2.5s-1.1-2.4-2.5-2.4c-1.3 0-2.4 1.1-2.4 2.4.1 1.4 1.2 2.5 2.5 2.5zM87 107.4c1.7 0 3.1-1.5 3.1-3.2s-1.5-3.1-3.2-3.1c-1.7 0-3.1 1.4-3.1 3.1 0 1.8 1.5 3.2 3.2 3.2zM100.4 100.3c-2.2.1-3.9 1.8-3.8 4 .1 2.2 1.8 3.9 4 3.8 2.1-.1 3.8-1.8 3.8-3.9 0-2.1-1.8-3.9-4-3.9zM113.8 99.5c-2.6 0-4.8 2.1-4.9 4.7-.1 2.7 2 4.9 4.7 5 2.7.1 4.9-2 5-4.7.1-2.7-2-4.9-4.7-5h-.1zM127.1 98.7c-3.1 0-5.7 2.4-5.7 5.6-.1 3.2 2.4 5.8 5.6 5.9 3.2.1 5.8-2.4 5.9-5.6s-2.4-5.8-5.6-5.9h-.2zM140.2 97.9c-3.5.3-6.1 3.3-5.8 6.8s3.3 6.1 6.8 5.8c3.1-.2 5.6-2.7 5.8-5.8.4 3.8 3.8 6.6 7.6 6.2 2.8-.3 5.2-2.3 6-5.1 1 3.7 4.8 5.9 8.5 4.8 2.4-.6 4.2-2.5 4.8-4.8 1 3.7 4.8 5.9 8.5 4.8 2.3-.6 4.2-2.5 4.8-4.8 1 3.7 4.8 5.9 8.5 4.8 2.3-.6 4.2-2.5 4.8-4.8 1 3.7 4.8 5.9 8.5 4.8 2.4-.6 4.2-2.5 4.8-4.8.9 3.6 4.5 5.8 8.1 4.9 3.6-.9 5.8-4.5 4.9-8.1-.9-3.6-4.5-5.8-8.1-4.9-2.4.6-4.3 2.5-4.9 4.9-1-3.7-4.8-5.9-8.5-4.8-2.4.7-4.2 2.5-4.8 4.8-1-3.7-4.8-5.9-8.5-4.8-2.4.6-4.2 2.5-4.8 4.8-1-3.7-4.8-5.9-8.5-4.8-2.3.7-4.2 2.5-4.8 4.8-1-3.7-4.8-5.9-8.5-4.8-2.4.7-4.2 2.5-4.8 4.8-1-3.7-4.8-5.9-8.5-4.8-2.8.8-4.8 3.1-5.1 6-.3-3.5-3.3-6.2-6.8-5.9zM234.1 98.2c-3.4 0-6.2 2.7-6.2 6.1-.1 3.4 2.6 6.3 6.1 6.4 3.4.1 6.3-2.6 6.4-6.1.1-3.4-2.6-6.3-6.1-6.4h-.2zM247.5 99c-2.9.1-5.2 2.5-5.1 5.4s2.5 5.2 5.4 5.1c2.8-.1 5.1-2.4 5.1-5.2-.1-3-2.5-5.3-5.4-5.3zM260.8 99.8c-2.5 0-4.5 1.9-4.5 4.4-.1 2.5 1.9 4.6 4.4 4.6 2.5.1 4.6-1.9 4.6-4.4.1-2.5-1.9-4.6-4.4-4.6h-.1zM274.2 107.8c2-.1 3.6-1.7 3.5-3.7-.1-2-1.7-3.6-3.7-3.5-2 .1-3.5 1.7-3.5 3.6 0 2.1 1.7 3.7 3.7 3.6zM287.6 107.1c1.6 0 2.8-1.4 2.8-2.9s-1.4-2.8-2.9-2.8-2.8 1.3-2.8 2.8c0 1.6 1.3 2.9 2.9 2.9zM300.9 106.4c1.2 0 2.1-1 2.1-2.2 0-1.2-1-2.1-2.2-2.1-1.2 0-2.1 1-2.1 2.2 0 1.2 1 2.1 2.2 2.1zM314.3 105.8c.9 0 1.5-.7 1.5-1.6s-.7-1.5-1.6-1.5c-.8 0-1.5.7-1.5 1.5 0 .9.7 1.6 1.6 1.6zM327.7 105.2c.6 0 1-.5 1-1 0-.6-.5-1-1-1s-1 .5-1 1c-.1.6.4 1.1 1 1zM341 104.8c.3 0 .6-.3.6-.6s-.3-.6-.6-.6-.6.3-.6.6c.1.4.3.6.6.6zM26.9 116.5c-.4 0-.8.4-.8.8s.4.8.8.8.8-.4.8-.8c0-.5-.4-.8-.8-.8zM40.2 115.9c-.7 0-1.3.6-1.3 1.3 0 .7.6 1.3 1.3 1.3.7 0 1.3-.6 1.3-1.3 0-.7-.5-1.3-1.3-1.3zM53.6 115.4c-1 0-1.9.9-1.8 1.9 0 1 .9 1.9 1.9 1.8 1 0 1.8-.9 1.8-1.9 0-1-.9-1.8-1.9-1.8zM67 114.7c-1.5 0-2.6 1.1-2.6 2.6 0 1.4 1.2 2.6 2.6 2.6s2.6-1.1 2.6-2.6-1.2-2.6-2.6-2.6zM80.3 120.6c1.9-.1 3.3-1.6 3.3-3.4-.1-1.9-1.6-3.3-3.4-3.3-1.8 0-3.3 1.5-3.3 3.4 0 1.8 1.5 3.3 3.4 3.3zM89.4 117.2c0 2.3 1.9 4.2 4.3 4.2s4.3-1.9 4.3-4.2c0-2.3-1.9-4.2-4.3-4.2-2.4.1-4.3 1.9-4.3 4.2zM107.1 112.1c-2.9 0-5.2 2.3-5.3 5.1-.1 2.9 2.2 5.3 5.1 5.4s5.3-2.2 5.4-5.1c.1-2.9-2.2-5.3-5.1-5.4h-.1zM120.4 123.3c3.4 0 6.2-2.7 6.2-6.1.1-3.4-2.6-6.3-6.1-6.4-3.4-.1-6.3 2.6-6.4 6.1-.1 3.4 2.6 6.3 6.1 6.4h.2z"/><path class="st2" d="M227.4 110.5c-3.1 0-5.9 2.1-6.7 5.1-1-3.7-4.8-5.9-8.5-4.8-2.3.6-4.2 2.5-4.8 4.8-1-3.7-4.8-5.9-8.5-4.8-2.4.6-4.2 2.5-4.8 4.8-1-3.7-4.8-5.9-8.5-4.8-2.4.6-4.2 2.5-4.8 4.8-1-3.7-4.8-5.9-8.5-4.8-2.3.7-4.2 2.5-4.8 4.8-1-3.7-4.8-5.9-8.5-4.8-2.4.6-4.2 2.5-4.8 4.8-1-3.7-4.8-5.9-8.5-4.8-2.4.6-4.2 2.5-4.8 4.8-.9-3.6-4.5-5.8-8.1-4.9-3.6.9-5.8 4.5-4.9 8.1s4.5 5.8 8.1 4.9c2.4-.6 4.3-2.5 4.9-4.9 1 3.7 4.8 5.9 8.5 4.8 2.4-.6 4.2-2.5 4.8-4.8 1 3.7 4.8 5.9 8.5 4.8 2.4-.6 4.2-2.5 4.8-4.8 1 3.7 4.8 5.9 8.5 4.8 2.3-.7 4.2-2.5 4.8-4.8 1 3.7 4.8 5.9 8.5 4.8 2.4-.6 4.2-2.5 4.8-4.8 1 3.7 4.8 5.9 8.5 4.8 2.4-.6 4.2-2.5 4.8-4.8 1 3.7 4.8 5.9 8.5 4.8 2.3-.6 4.2-2.5 4.8-4.8.8 3.7 4.5 6.1 8.2 5.2 3.7-.8 6.1-4.5 5.2-8.2-.6-3-3.5-5.3-6.7-5.3zM240.8 123.2c3.3 0 6.1-2.6 6.1-6 .1-3.4-2.6-6.2-5.9-6.3-3.4-.1-6.2 2.6-6.3 5.9-.1 3.4 2.6 6.2 5.9 6.3.1.1.1.1.2.1zM254.1 112.3c-2.7.1-4.9 2.4-4.8 5.1.1 2.7 2.4 4.9 5.1 4.8 2.7-.1 4.8-2.3 4.8-5s-2.3-5-5.1-4.9zM263.5 117.4c.1 2.3 1.9 4 4.2 4 2.2-.1 4-1.9 4-4.1 0-2.3-1.9-4.1-4.2-4.1-2.2 0-4 1.9-4 4.2zM281.1 120.5c1.8 0 3.2-1.5 3.2-3.2 0-1.8-1.5-3.3-3.3-3.2-1.8 0-3.2 1.5-3.2 3.3s1.5 3.1 3.3 3.1zM294.3 119.7c1.4 0 2.5-1.2 2.4-2.6 0-1.4-1.2-2.5-2.6-2.4-1.3 0-2.4 1.1-2.4 2.5s1.2 2.6 2.6 2.5zM307.6 119.1c1 0 1.8-.9 1.8-1.9 0-1-.9-1.8-1.9-1.8-1 0-1.8.8-1.8 1.8 0 1.1.9 1.9 1.9 1.9zM321 118.5c.7 0 1.2-.6 1.2-1.3 0-.7-.6-1.2-1.3-1.2-.7 0-1.2.6-1.2 1.2 0 .7.6 1.3 1.3 1.3zM334.4 118c.4 0 .7-.3.7-.7 0-.4-.3-.7-.7-.7-.4 0-.7.3-.7.7-.1.4.3.7.7.7zM347.7 117.6c.2 0 .4-.2.4-.4s-.2-.4-.4-.4-.4.2-.4.4c.1.3.2.4.4.4zM33.5 129.5c-.4 0-.8.4-.8.8s.4.8.8.8.8-.4.8-.8c0-.5-.3-.8-.8-.8zM46.9 129c-.7 0-1.3.6-1.3 1.3 0 .7.6 1.3 1.3 1.3.7 0 1.3-.6 1.3-1.3 0-.8-.6-1.4-1.3-1.3zM60.3 128.3c-1.1 0-1.9.9-1.9 2s.9 1.9 2 1.9c1 0 1.9-.9 1.9-1.9-.1-1.1-1-2-2-2zM73.6 127.7c-1.4 0-2.6 1.2-2.5 2.7 0 1.4 1.2 2.6 2.7 2.5 1.4 0 2.5-1.2 2.5-2.6 0-1.5-1.2-2.7-2.7-2.6zM87 126.9c-1.9 0-3.5 1.5-3.5 3.4-.1 1.9 1.5 3.5 3.4 3.6 1.9.1 3.5-1.5 3.6-3.4.1-2-1.5-3.6-3.5-3.6.1 0 0 0 0 0zM104.8 130.5c.1-2.4-1.8-4.4-4.3-4.5h-.1c-2.4 0-4.3 1.9-4.4 4.3-.1 2.4 1.8 4.4 4.3 4.5s4.4-1.9 4.5-4.3zM113.8 125c-2.9 0-5.3 2.3-5.4 5.2-.1 3 2.3 5.4 5.2 5.5s5.4-2.3 5.5-5.2c.1-3-2.3-5.4-5.2-5.5h-.1zM127.1 136.5c3.5 0 6.4-2.7 6.4-6.2.1-3.5-2.7-6.5-6.2-6.6-3.5-.1-6.5 2.7-6.6 6.2-.1 3.5 2.7 6.5 6.2 6.6h.2z"/><path class="st2" d="M233 123.6c-2.7.4-4.9 2.4-5.6 5-1-3.7-4.8-5.9-8.5-4.8-2.3.7-4.2 2.5-4.8 4.8-1-3.7-4.8-5.9-8.5-4.8-2.3.7-4.2 2.5-4.8 4.8-1-3.7-4.8-5.9-8.5-4.8-2.3.6-4.2 2.5-4.8 4.8-1-3.7-4.8-5.9-8.5-4.8-2.3.7-4.2 2.5-4.8 4.8-1-3.7-4.8-5.9-8.5-4.8-2.3.7-4.2 2.5-4.8 4.8-1-3.7-4.8-5.9-8.5-4.8-2.4.6-4.2 2.5-4.8 4.8-.9-3.6-4.5-5.8-8.1-4.9s-5.8 4.5-4.9 8.1c.9 3.6 4.5 5.8 8.1 4.9 2.4-.6 4.3-2.5 4.9-4.9 1 3.7 4.8 5.9 8.5 4.8 2.4-.6 4.2-2.5 4.8-4.8 1 3.7 4.8 5.9 8.5 4.8 2.4-.6 4.2-2.5 4.8-4.8 1 3.7 4.8 5.9 8.5 4.8 2.3-.6 4.2-2.5 4.8-4.8 1 3.7 4.8 5.9 8.5 4.8 2.3-.6 4.2-2.5 4.8-4.8 1 3.7 4.8 5.9 8.5 4.8 2.4-.6 4.2-2.5 4.8-4.8 1 3.7 4.8 5.9 8.5 4.8 2.3-.7 4.2-2.5 4.8-4.8 1 3.7 4.8 5.9 8.5 4.8 2.6-.7 4.6-2.9 5-5.6.5 3.5 3.7 6 7.2 5.5s6-3.7 5.5-7.2-3.7-6-7.2-5.5c-2.9.4-5.1 2.6-5.5 5.5-.6-3.7-4.1-6.3-7.9-5.7zM261 124.9h-.2c-3 0-5.5 2.4-5.5 5.4-.1 3.1 2.3 5.6 5.4 5.7 3.1.1 5.6-2.3 5.7-5.4 0-3.1-2.4-5.6-5.4-5.7zM274.1 134.7h.1c2.5 0 4.5-1.9 4.5-4.4.1-2.5-1.9-4.6-4.4-4.6-2.5-.1-4.6 1.9-4.6 4.4-.1 2.4 1.9 4.5 4.4 4.6zM287.6 126.7c-2 .1-3.5 1.7-3.4 3.6s1.7 3.5 3.6 3.4c1.9-.1 3.4-1.6 3.4-3.5s-1.7-3.5-3.6-3.5zM300.9 133c1.5 0 2.7-1.3 2.6-2.8 0-1.5-1.3-2.7-2.8-2.6-1.5 0-2.6 1.2-2.6 2.7.1 1.5 1.3 2.7 2.8 2.7zM314.3 132.3c1.1 0 2-1 2-2.1s-1-2-2.1-2-2 .9-2 2c0 1.2 1 2.1 2.1 2.1zM327.7 131.6c.8 0 1.4-.7 1.3-1.4s-.7-1.4-1.4-1.3c-.7 0-1.3.6-1.3 1.4 0 .7.6 1.3 1.4 1.3zM341 131.1c.5 0 .9-.4.8-.9 0-.5-.4-.9-.9-.8-.5 0-.8.4-.8.9.1.4.5.8.9.8zM354.4 130.7c.2 0 .4-.2.4-.4s-.2-.4-.4-.4-.4.2-.4.4.2.4.4.4zM26.9 142.5c-.4 0-.7.3-.7.7 0 .4.3.7.7.7.4 0 .7-.3.7-.7 0-.3-.3-.7-.7-.7zM40.2 142c-.7 0-1.2.6-1.2 1.3 0 .7.6 1.2 1.3 1.2.7 0 1.2-.6 1.2-1.2 0-.7-.6-1.3-1.3-1.3zM53.6 141.5c-1 0-1.8.9-1.7 1.9 0 1 .9 1.8 1.9 1.7 1 0 1.7-.8 1.7-1.8-.1-1-.9-1.9-1.9-1.8zM67 140.8c-1.4 0-2.5 1.2-2.4 2.6 0 1.4 1.2 2.5 2.6 2.4 1.3 0 2.4-1.1 2.4-2.5-.1-1.4-1.2-2.5-2.6-2.5zM80.3 140c-1.8 0-3.2 1.6-3.2 3.4 0 1.8 1.6 3.2 3.4 3.2 1.8 0 3.2-1.5 3.2-3.3 0-1.9-1.5-3.3-3.4-3.3zM93.7 147.4c2.3-.1 4.1-2 4-4.2-.1-2.3-2-4.1-4.2-4-2.2.1-4 1.9-4 4.1 0 2.3 1.9 4.1 4.2 4.1zM106.9 148.3h.1c2.8 0 5.1-2.2 5.2-5 .1-2.9-2.2-5.3-5-5.3-2.9-.1-5.3 2.2-5.3 5-.1 2.8 2.2 5.2 5 5.3zM120.4 149.3c3.3-.1 6-2.9 5.9-6.2-.1-3.3-2.9-6-6.2-5.9-3.3.1-5.9 2.8-5.9 6.1.1 3.4 2.8 6.1 6.2 6z"/><path class="st2" d="M247.5 143.3c-.1-3.7-3.2-6.6-6.9-6.5-3.1.1-5.7 2.3-6.4 5.3-.8-3.7-4.5-6.1-8.2-5.4-2.5.5-4.6 2.4-5.3 4.9-1-3.7-4.8-5.9-8.5-4.8-2.4.7-4.2 2.5-4.8 4.8-1-3.7-4.8-5.9-8.5-4.8-2.4.6-4.2 2.5-4.8 4.8-1-3.7-4.8-5.9-8.5-4.8-2.4.6-4.2 2.5-4.8 4.8-1-3.7-4.8-5.9-8.5-4.8-2.3.7-4.2 2.5-4.8 4.8-1-3.7-4.8-5.9-8.5-4.8-2.4.7-4.2 2.5-4.8 4.8-1-3.7-4.8-5.9-8.5-4.8-2.4.6-4.2 2.5-4.8 4.8-.9-3.6-4.5-5.8-8.1-4.9-3.6.9-5.8 4.5-4.9 8.1.9 3.6 4.5 5.8 8.1 4.9 2.4-.6 4.3-2.5 4.9-4.9 1 3.7 4.8 5.9 8.5 4.8 2.4-.6 4.2-2.5 4.8-4.8 1 3.7 4.8 5.9 8.5 4.8 2.4-.6 4.2-2.5 4.8-4.8 1 3.7 4.8 5.9 8.5 4.8 2.3-.7 4.2-2.5 4.8-4.8 1 3.7 4.8 5.9 8.5 4.8 2.4-.7 4.2-2.5 4.8-4.8 1 3.7 4.8 5.9 8.5 4.8 2.4-.6 4.2-2.5 4.8-4.8 1 3.7 4.8 5.9 8.5 4.8 2.4-.6 4.2-2.5 4.8-4.8 1 3.7 4.8 5.9 8.5 4.8 2.5-.7 4.4-2.7 4.9-5.3.8 3.6 4.4 5.9 8 5.2 3.1-.5 5.3-3.1 5.4-6.2zM254.1 148.7c3.1 0 5.6-2.4 5.6-5.5.1-3.1-2.4-5.7-5.5-5.8-3.1-.1-5.7 2.4-5.8 5.5-.1 3.1 2.4 5.7 5.5 5.8h.2zM267.5 138.8c-2.5.1-4.5 2.1-4.4 4.6.1 2.5 2.1 4.5 4.6 4.4 2.4-.1 4.4-2.1 4.4-4.5 0-2.6-2.1-4.6-4.6-4.5zM280.9 146.9c2 0 3.7-1.6 3.7-3.6.1-2-1.6-3.8-3.6-3.8s-3.8 1.6-3.8 3.6 1.6 3.8 3.6 3.8h.1zM294.2 140.4c-1.6 0-2.9 1.3-2.9 2.8s1.3 2.8 2.9 2.8 2.9-1.3 2.9-2.8-1.3-2.8-2.9-2.8zM307.6 141.2c-1.2 0-2.1 1-2 2.1s1 2.1 2.1 2c1.1 0 2-1 2-2.1.1-1.1-.9-2-2.1-2zM321 141.8c-.8 0-1.4.7-1.4 1.5s.7 1.4 1.5 1.4 1.4-.7 1.4-1.4c0-.8-.7-1.5-1.5-1.5zM334.4 142.3c-.5 0-.9.4-.9 1s.4.9 1 .9c.5 0 .9-.4.9-.9-.1-.6-.5-1-1-1zM347.7 142.8c-.3 0-.5.2-.5.5s.2.5.5.5.5-.2.5-.5-.2-.5-.5-.5zM33.5 155.7c-.3 0-.6.3-.6.6s.3.6.6.6.6-.3.6-.6c.1-.4-.2-.6-.6-.6zM46.9 155.2c-.6 0-1 .5-1 1.1 0 .6.5 1 1.1 1 .6 0 1-.5 1-1 0-.6-.5-1.1-1.1-1.1zM60.3 154.6c-.9 0-1.6.8-1.6 1.7 0 .9.8 1.6 1.7 1.6.9 0 1.6-.7 1.6-1.6-.1-.9-.8-1.7-1.7-1.7zM73.6 154c-1.2 0-2.2 1.1-2.2 2.3 0 1.2 1.1 2.2 2.3 2.2 1.2 0 2.2-1 2.2-2.2 0-1.3-1-2.3-2.3-2.3zM87 153.3c-1.6 0-2.9 1.4-2.9 3s1.4 2.9 3 2.9 2.9-1.4 2.9-3-1.3-2.9-3-2.9zM100.4 160c2.1-.1 3.7-1.8 3.6-3.9-.1-2.1-1.8-3.7-3.9-3.6-2 .1-3.6 1.7-3.6 3.8.1 2.1 1.8 3.7 3.9 3.7zM113.8 160.9c2.6-.1 4.6-2.2 4.5-4.7s-2.2-4.6-4.7-4.5c-2.5.1-4.5 2.1-4.5 4.6-.1 2.6 2.1 4.6 4.7 4.6z"/><ellipse class="st2" cx="127.1" cy="156.3" rx="5.7" ry="5.6"/><path class="st2" d="M234.1 149.6c-3.1 0-5.9 2.1-6.7 5.1-1-3.7-4.8-5.9-8.5-4.8-2.3.7-4.2 2.5-4.8 4.8-1-3.7-4.8-5.9-8.5-4.8-2.4.7-4.2 2.5-4.8 4.8-1-3.7-4.8-5.9-8.5-4.8-2.4.6-4.2 2.5-4.8 4.8-1-3.7-4.8-5.9-8.5-4.8-2.3.6-4.2 2.5-4.8 4.8-1-3.7-4.8-5.9-8.5-4.8-2.4.7-4.2 2.5-4.8 4.8-1-3.7-4.8-5.9-8.5-4.8-2.5.7-4.4 2.7-4.9 5.3-.7-3.5-4.1-5.9-7.6-5.2-3.5.7-5.9 4.1-5.2 7.6s4.1 5.9 7.6 5.2c2.6-.5 4.7-2.6 5.2-5.2.8 3.7 4.5 6.1 8.2 5.4 2.5-.5 4.6-2.4 5.3-4.9 1 3.7 4.8 5.9 8.5 4.8 2.4-.6 4.2-2.5 4.8-4.8 1 3.7 4.8 5.9 8.5 4.8 2.3-.7 4.2-2.5 4.8-4.8 1 3.7 4.8 5.9 8.5 4.8 2.3-.7 4.2-2.5 4.8-4.8 1 3.7 4.8 5.9 8.5 4.8 2.4-.6 4.2-2.5 4.8-4.8 1 3.7 4.8 5.9 8.5 4.8 2.3-.7 4.2-2.5 4.8-4.8.8 3.7 4.5 6.1 8.2 5.2 3.7-.8 6.1-4.5 5.2-8.2-.8-3.3-3.6-5.6-6.8-5.5z"/><path class="st2" d="M247.5 162.5c3.4-.1 6.1-2.9 6-6.4-.1-3.4-2.9-6.1-6.4-6-3.4.1-6 2.8-6 6.2 0 3.4 2.9 6.2 6.4 6.2zM260.8 161.6c3 0 5.4-2.3 5.5-5.3.1-3-2.3-5.5-5.3-5.6-3-.1-5.5 2.3-5.6 5.3-.1 3 2.3 5.5 5.3 5.6h.1zM274.2 160.6c2.4 0 4.5-1.9 4.5-4.4.1-2.5-1.9-4.5-4.4-4.6-2.5-.1-4.5 1.9-4.6 4.4-.1 2.5 1.9 4.5 4.4 4.6h.1zM287.6 152.7c-2 .1-3.5 1.7-3.4 3.6s1.7 3.5 3.6 3.4c1.9-.1 3.4-1.6 3.4-3.5s-1.7-3.5-3.6-3.5zM300.9 153.5c-1.5 0-2.7 1.3-2.7 2.8 0 1.5 1.3 2.7 2.8 2.7 1.5 0 2.7-1.3 2.7-2.7 0-1.6-1.2-2.8-2.8-2.8zM314.3 154.2c-1.1 0-2 1-2 2.1s1 2 2.1 2 2-.9 2-2.1c0-1.1-.9-2-2.1-2zM327.7 154.8c-.8 0-1.4.7-1.4 1.5s.7 1.4 1.5 1.4 1.4-.7 1.4-1.4c-.1-.8-.7-1.5-1.5-1.5zM341 155.4c-.5 0-.9.4-.9.9s.4.9.9.9.9-.4.9-.9c.1-.5-.4-.9-.9-.9zM354.4 155.8c-.3 0-.5.2-.5.5s.2.5.5.5.5-.2.5-.5-.2-.5-.5-.5zM26.9 168.8c-.2 0-.4.2-.4.4s.2.4.4.4.4-.2.4-.4-.2-.4-.4-.4zM40.2 168.4c-.5 0-.8.4-.8.9s.4.8.9.8c.4 0 .8-.4.8-.8 0-.5-.4-.9-.9-.9zM53.6 167.9c-.7 0-1.3.6-1.3 1.4 0 .7.6 1.3 1.4 1.3.7 0 1.3-.6 1.3-1.3 0-.8-.7-1.4-1.4-1.4zM67 167.4c-1.1 0-1.9.9-1.9 2s.9 1.9 2 1.9c1 0 1.9-.9 1.9-1.9-.1-1.2-1-2-2-2zM80.3 166.7c-1.5 0-2.6 1.1-2.6 2.6 0 1.4 1.2 2.6 2.6 2.6s2.6-1.1 2.6-2.6c.1-1.4-1.1-2.6-2.6-2.6zM93.7 166c-1.8 0-3.2 1.6-3.2 3.4 0 1.8 1.6 3.2 3.4 3.2 1.8 0 3.2-1.5 3.2-3.3-.1-1.9-1.6-3.3-3.4-3.3zM107.1 165.2c-2.2.1-4 1.9-3.9 4.2.1 2.2 1.9 4 4.2 3.9 2.2-.1 3.9-1.9 3.9-4-.1-2.3-2-4.1-4.2-4.1z"/><ellipse class="st2" cx="120.4" cy="169.3" rx="5" ry="4.8"/><path class="st2" d="M133.8 174.9c3.1-.1 5.6-2.7 5.5-5.8-.1-3.1-2.7-5.6-5.8-5.5-3 .1-5.5 2.6-5.5 5.6.1 3.2 2.7 5.7 5.8 5.7zM228.3 175.6c3.2-.4 5.6-3.1 5.7-6.3-.1-3.6-3.1-6.5-6.8-6.4-3.2.1-5.9 2.5-6.3 5.7-.5-3.8-4-6.4-7.8-5.9-2.7.4-5 2.4-5.7 5-1-3.7-4.8-5.9-8.5-4.8-2.4.6-4.2 2.5-4.8 4.8-1-3.7-4.8-5.9-8.5-4.8-2.4.6-4.2 2.5-4.8 4.8-1-3.7-4.8-5.9-8.5-4.8-2.3.7-4.2 2.5-4.8 4.8-1-3.7-4.8-5.9-8.5-4.8-2.7.7-4.6 3-5 5.7-.4-3.5-3.6-6-7.1-5.6-3.5.4-6 3.6-5.6 7.1.4 3.5 3.6 6 7.1 5.6 2.9-.3 5.3-2.7 5.6-5.6.5 3.8 4 6.4 7.8 5.9 2.7-.4 5-2.4 5.7-5 1 3.7 4.8 5.9 8.5 4.8 2.3-.7 4.2-2.5 4.8-4.8 1 3.7 4.8 5.9 8.5 4.8 2.4-.6 4.2-2.5 4.8-4.8 1 3.7 4.8 5.9 8.5 4.8 2.4-.6 4.2-2.5 4.8-4.8 1 3.7 4.8 5.9 8.5 4.8 2.7-.7 4.6-3 5-5.7.5 3.5 3.8 6 7.4 5.5zM240.8 174.9c3.1 0 5.7-2.5 5.7-5.6.1-3.2-2.4-5.8-5.6-5.9s-5.8 2.4-5.9 5.6 2.4 5.8 5.6 5.9h.2zM254.1 174.1c2.7 0 4.9-2.1 4.9-4.8.1-2.7-2.1-5-4.8-5.1-2.7-.1-5 2.1-5.1 4.8-.1 2.7 2.1 5 4.8 5.1h.2zM267.5 173.3c2.3 0 4.1-1.8 4.1-4s-1.8-4-4.1-4-4.1 1.8-4.1 4 1.8 4 4.1 4zM280.9 166c-1.8 0-3.2 1.5-3.2 3.3 0 1.8 1.5 3.2 3.3 3.2 1.8 0 3.2-1.5 3.2-3.2 0-1.8-1.5-3.3-3.3-3.3zM294.3 166.8c-1.4 0-2.5 1.2-2.5 2.6 0 1.4 1.2 2.5 2.6 2.5 1.4 0 2.5-1.2 2.5-2.5-.1-1.5-1.2-2.7-2.6-2.6zM307.6 167.4c-1 0-1.9.9-1.8 1.9 0 1 .9 1.9 1.9 1.8 1 0 1.8-.9 1.8-1.9 0-1-.8-1.8-1.9-1.8zM321 167.9c-.7 0-1.3.6-1.3 1.4 0 .7.6 1.3 1.4 1.3.7 0 1.3-.6 1.3-1.3 0-.8-.7-1.4-1.4-1.4zM334.4 168.4c-.5 0-.8.4-.8.9s.4.8.9.8c.4 0 .8-.4.8-.8-.1-.5-.5-.9-.9-.9zM347.7 168.8c-.2 0-.4.2-.4.4s.2.4.4.4.4-.2.4-.4c.1-.2-.1-.4-.4-.4zM33.5 182c-.1 0-.2.1-.2.3 0 .1.1.2.3.2.1 0 .2-.1.2-.3 0-.1-.1-.2-.3-.2zM46.9 181.7c-.3 0-.6.3-.6.6s.3.6.6.6.6-.3.6-.6-.3-.6-.6-.6zM60.3 181.3c-.6 0-1 .5-1 1 0 .6.5 1 1 1s1-.5 1-1c0-.6-.5-1-1-1zM73.6 180.8c-.8 0-1.5.7-1.5 1.6 0 .8.7 1.5 1.6 1.5.8 0 1.5-.7 1.5-1.5 0-1-.7-1.6-1.6-1.6zM87 180.2c-1.1 0-2 1-2 2.1s1 2 2.1 2 2-.9 2-2.1c0-1.1-.9-2-2.1-2zM100.4 179.6c-1.5 0-2.6 1.3-2.6 2.7 0 1.5 1.3 2.6 2.7 2.6 1.4 0 2.6-1.2 2.6-2.7 0-1.4-1.2-2.6-2.7-2.6zM113.8 179c-1.8.1-3.3 1.6-3.2 3.4s1.6 3.3 3.4 3.2c1.8 0 3.2-1.5 3.2-3.3-.1-1.9-1.6-3.4-3.4-3.3zM127.2 178.1c-2.3-.1-4.2 1.7-4.2 4-.1 2.3 1.7 4.2 4 4.2h.1c2.2 0 4.1-1.8 4.1-4 .1-2.3-1.7-4.2-4-4.2zM140.5 186.9c2.6-.1 4.6-2.2 4.5-4.8-.1-2.6-2.2-4.6-4.8-4.5-2.5.1-4.5 2.1-4.5 4.7.1 2.6 2.2 4.7 4.8 4.6zM153.9 177c-2.9 0-5.4 2.3-5.4 5.3-.1 3 2.3 5.5 5.3 5.6 3 .1 5.5-2.3 5.6-5.3.1-3-2.3-5.5-5.3-5.6h-.2z"/><path class="st2" d="M173.2 182.3c.1-3.3-2.5-6-5.8-6.1-3.3-.1-6 2.5-6.1 5.8-.1 3.3 2.5 6 5.8 6.1h.2c3.2 0 5.8-2.6 5.9-5.8zM180.6 188.4c3.4 0 6.2-2.7 6.3-6.1.1-3.5-2.6-6.3-6.1-6.4s-6.3 2.6-6.4 6.1 2.6 6.3 6.1 6.4h.1zM194 188.5c3.5 0 6.4-2.7 6.4-6.2.1-3.5-2.7-6.5-6.2-6.6-3.5-.1-6.5 2.7-6.6 6.2-.1 3.5 2.7 6.5 6.2 6.6h.2zM207.3 188.5c3.5 0 6.3-2.7 6.3-6.2.1-3.5-2.7-6.4-6.2-6.5-3.5-.1-6.4 2.7-6.5 6.2-.1 3.5 2.7 6.4 6.2 6.5h.2zM220.7 188.1c3.3 0 6-2.6 6-5.8.1-3.3-2.5-6.1-5.8-6.2-3.3-.1-6.1 2.5-6.2 5.8-.1 3.3 2.5 6.1 5.8 6.2h.2z"/><ellipse class="st2" cx="234.1" cy="182.3" rx="5.5" ry="5.4"/><path class="st2" d="M247.5 187.1c2.7-.1 4.7-2.3 4.7-4.9-.1-2.7-2.3-4.7-4.9-4.7-2.6.1-4.7 2.2-4.7 4.8 0 2.7 2.2 4.8 4.9 4.8zM260.8 178.1c-2.3.1-4.1 2-4 4.3.1 2.3 2 4.1 4.3 4 2.2-.1 4-1.9 4-4.1 0-2.3-2-4.2-4.3-4.2zM274.2 178.8c-1.9.1-3.5 1.7-3.4 3.6.1 1.9 1.7 3.5 3.6 3.4 1.9-.1 3.4-1.6 3.4-3.5 0-2-1.6-3.5-3.6-3.5zM287.6 179.4c-1.6 0-2.8 1.4-2.8 2.9 0 1.6 1.4 2.8 2.9 2.8s2.8-1.3 2.8-2.8c0-1.6-1.3-2.9-2.9-2.9zM300.9 180c-1.2 0-2.2 1.1-2.2 2.3 0 1.2 1.1 2.2 2.3 2.2 1.2 0 2.2-1 2.2-2.2 0-1.3-1-2.3-2.3-2.3zM314.3 180.7c-.9 0-1.6.8-1.6 1.7 0 .9.8 1.6 1.7 1.6.9 0 1.6-.7 1.6-1.6 0-1-.8-1.8-1.7-1.7zM327.7 181.2c-.6 0-1.1.5-1.1 1.1s.5 1.1 1.1 1.1c.6 0 1.1-.5 1.1-1.1 0-.6-.5-1.1-1.1-1.1zM341 181.6c-.4 0-.7.3-.7.7 0 .4.3.7.7.7.4 0 .7-.3.7-.7 0-.4-.3-.7-.7-.7zM26.9 195.2c-.1 0-.1.1-.1.1 0 .1.1.1.1.1.1 0 .1 0 .1-.1s-.1-.1-.1-.1zM40.2 194.9c-.2 0-.4.2-.4.4s.2.4.4.4.4-.2.4-.4-.2-.4-.4-.4zM53.6 194.6c-.4 0-.7.3-.7.7s.3.7.7.7c.4 0 .7-.3.7-.7 0-.4-.3-.7-.7-.7zM67 194.2c-.6 0-1.1.5-1.1 1.1 0 .6.5 1.1 1.1 1.1.6 0 1.1-.5 1.1-1.1 0-.6-.5-1.1-1.1-1.1zM80.3 193.7c-.9 0-1.5.7-1.5 1.6 0 .9.7 1.5 1.6 1.5.8 0 1.5-.7 1.5-1.5 0-.9-.7-1.6-1.6-1.6zM93.7 193.2c-1.1 0-2 1-2 2.1s1 2 2.1 2 2-.9 2-2.1c0-1.1-.9-2-2.1-2zM107.1 192.7c-1.4 0-2.6 1.2-2.5 2.7 0 1.4 1.2 2.6 2.7 2.5 1.4 0 2.5-1.2 2.5-2.6-.1-1.5-1.3-2.6-2.7-2.6zM120.4 192.2c-1.7 0-3.1 1.5-3.1 3.2 0 1.7 1.5 3.1 3.2 3 1.7 0 3.1-1.4 3.1-3.1 0-1.8-1.4-3.2-3.2-3.1zM133.8 191.6c-2 .1-3.6 1.7-3.6 3.8.1 2 1.7 3.6 3.8 3.6 2-.1 3.6-1.7 3.6-3.7 0-2.1-1.7-3.7-3.8-3.7zM147.2 191.1c-2.3.1-4.1 2-4 4.3.1 2.3 2 4.1 4.3 4 2.2-.1 4-1.9 4-4.1-.1-2.3-2-4.2-4.3-4.2zM165.2 195.3c.1-2.6-2-4.7-4.5-4.8-2.6-.1-4.7 2-4.8 4.5-.1 2.6 2 4.7 4.5 4.8h.1c2.6.1 4.7-2 4.7-4.5zM173.9 200.1c2.7-.1 4.7-2.3 4.7-4.9-.1-2.7-2.3-4.7-4.9-4.7-2.6.1-4.7 2.2-4.7 4.8 0 2.7 2.2 4.8 4.9 4.8zM187.3 200.2c2.7-.1 4.9-2.3 4.8-5.1-.1-2.7-2.3-4.9-5.1-4.8-2.7.1-4.8 2.3-4.8 4.9 0 2.9 2.3 5.1 5.1 5zM200.7 200.2c2.7-.1 4.8-2.3 4.8-5-.1-2.7-2.3-4.8-5-4.8-2.7.1-4.8 2.2-4.8 4.9s2.2 4.9 5 4.9zM214 200c2.6-.1 4.6-2.2 4.6-4.8s-2.2-4.6-4.8-4.6c-2.5.1-4.6 2.1-4.6 4.7s2.2 4.7 4.8 4.7zM227.4 190.9c-2.4.1-4.3 2.1-4.2 4.5.1 2.4 2.1 4.3 4.5 4.2 2.4-.1 4.2-2 4.2-4.4 0-2.4-2.1-4.3-4.5-4.3zM240.8 191.4c-2.2.1-3.9 1.9-3.8 4 .1 2.2 1.9 3.9 4 3.8 2.1-.1 3.8-1.8 3.8-3.9 0-2.2-1.8-4-4-3.9zM254.1 191.9c-1.9.1-3.4 1.6-3.3 3.5.1 1.9 1.6 3.4 3.5 3.3 1.9-.1 3.3-1.6 3.3-3.4 0-1.9-1.5-3.5-3.5-3.4zM267.5 192.4c-1.6 0-2.8 1.4-2.8 3s1.4 2.8 3 2.8 2.8-1.3 2.8-2.9c0-1.6-1.4-2.9-3-2.9zM280.9 193c-1.3 0-2.3 1.1-2.3 2.4s1.1 2.3 2.4 2.3c1.3 0 2.3-1.1 2.3-2.3 0-1.4-1.1-2.5-2.4-2.4zM294.2 193.5c-1 0-1.8.9-1.7 1.9 0 1 .9 1.8 1.9 1.7 1 0 1.7-.8 1.7-1.8s-.8-1.8-1.9-1.8zM307.6 194c-.7 0-1.3.6-1.3 1.4 0 .7.6 1.3 1.4 1.3.7 0 1.3-.6 1.3-1.3 0-.9-.6-1.5-1.4-1.4zM321 194.4c-.5 0-.9.4-.8.9 0 .5.4.9.9.8.5 0 .8-.4.8-.9 0-.4-.4-.8-.9-.8zM334.4 194.8c-.3 0-.5.2-.5.5s.2.5.5.5.5-.2.5-.5-.3-.5-.5-.5zM347.7 195.1c-.1 0-.2.1-.2.2s.1.2.2.2.2-.1.2-.2-.1-.2-.2-.2zM46.9 208.2c-.1 0-.1.1-.1.1 0 .1.1.1.1.1.1 0 .1-.1.1-.1.1-.1 0-.1-.1-.1zM60.3 207.9c-.2 0-.4.2-.4.4s.2.4.4.4.4-.2.4-.4c-.1-.2-.2-.4-.4-.4zM73.6 207.6c-.4 0-.7.3-.7.7 0 .4.3.7.7.7.4 0 .7-.3.7-.7 0-.4-.3-.7-.7-.7zM87 207.3c-.6 0-1 .5-1 1.1 0 .6.5 1 1.1 1 .6 0 1-.5 1-1 0-.7-.5-1.2-1.1-1.1zM100.4 206.8c-.8 0-1.5.7-1.4 1.5 0 .8.7 1.5 1.5 1.4.8 0 1.4-.7 1.4-1.5 0-.7-.7-1.4-1.5-1.4zM113.8 206.4c-1.1 0-1.9.9-1.9 2s.9 1.9 2 1.9c1 0 1.9-.9 1.9-1.9-.1-1.2-1-2-2-2zM127.1 206c-1.3 0-2.3 1.1-2.3 2.4s1.1 2.3 2.4 2.3c1.3 0 2.3-1.1 2.3-2.3 0-1.4-1.1-2.5-2.4-2.4zM140.5 205.6c-1.5 0-2.7 1.3-2.7 2.8 0 1.5 1.3 2.7 2.8 2.7 1.5 0 2.7-1.3 2.7-2.7 0-1.6-1.3-2.9-2.8-2.8zM153.9 205.2c-1.7 0-3.1 1.5-3 3.2 0 1.7 1.5 3.1 3.2 3 1.7 0 3-1.4 3-3.1-.1-1.7-1.5-3.1-3.2-3.1zM167.2 204.9c-1.9.1-3.4 1.6-3.3 3.5.1 1.9 1.6 3.4 3.5 3.3 1.9-.1 3.3-1.6 3.3-3.4 0-1.9-1.5-3.5-3.5-3.4zM180.6 204.7c-2 .1-3.6 1.7-3.5 3.7.1 2 1.7 3.6 3.7 3.5 2-.1 3.5-1.7 3.5-3.6 0-2-1.7-3.7-3.7-3.6zM194 204.5c-2.1 0-3.9 1.7-3.9 3.8 0 2.1 1.7 3.8 3.9 3.8 2.1 0 3.9-1.7 3.9-3.8-.1-2.1-1.8-3.8-3.9-3.8zM207.3 204.5c-2.1 0-3.9 1.7-3.9 3.8 0 2.1 1.7 3.8 3.9 3.8 2.1 0 3.9-1.7 3.9-3.8 0-2.1-1.7-3.8-3.9-3.8zM220.7 204.7c-2 .1-3.6 1.7-3.5 3.7.1 2 1.7 3.6 3.7 3.5 2-.1 3.5-1.7 3.5-3.6 0-2-1.7-3.6-3.7-3.6zM234.1 204.9c-1.9.1-3.3 1.6-3.3 3.4.1 1.9 1.6 3.3 3.4 3.3 1.8 0 3.3-1.5 3.3-3.4 0-1.8-1.5-3.3-3.4-3.3zM247.5 205.3c-1.7 0-3 1.4-2.9 3.1 0 1.7 1.4 3 3.1 2.9 1.6 0 2.9-1.4 2.9-3-.1-1.7-1.4-3.1-3.1-3zM260.8 205.6c-1.5 0-2.6 1.3-2.6 2.7 0 1.5 1.3 2.6 2.7 2.6 1.4 0 2.6-1.2 2.6-2.7.1-1.4-1.2-2.6-2.7-2.6zM274.2 206.1c-1.2 0-2.2 1.1-2.2 2.3s1.1 2.2 2.3 2.2c1.2 0 2.2-1 2.2-2.2 0-1.4-1.1-2.4-2.3-2.3zM287.6 206.5c-1 0-1.8.9-1.7 1.9 0 1 .9 1.8 1.9 1.7 1 0 1.7-.8 1.7-1.8-.1-1-.9-1.8-1.9-1.8zM300.9 206.9c-.8 0-1.4.7-1.3 1.4s.7 1.4 1.4 1.3c.7 0 1.3-.6 1.3-1.4 0-.7-.6-1.3-1.4-1.3zM314.3 207.3c-.5 0-1 .5-.9 1 0 .5.5 1 1 .9.5 0 .9-.4 1-1-.1-.4-.6-.9-1.1-.9zM327.7 207.7c-.3 0-.6.3-.6.6s.3.6.6.6.6-.3.6-.6-.3-.6-.6-.6zM341 208c-.2 0-.3.2-.3.3s.2.3.3.3c.2 0 .3-.1.3-.3.1-.2-.1-.3-.3-.3zM53.6 221.2c-.1 0-.1.1-.1.1 0 .1.1.1.1.1.1 0 .1-.1.1-.1 0-.1 0-.1-.1-.1zM67 220.9c-.2 0-.4.2-.4.4s.2.4.4.4.4-.2.4-.4c-.1-.2-.2-.4-.4-.4zM80.3 220.7c-.3 0-.6.3-.6.6s.3.6.6.6.6-.3.6-.6c.1-.3-.2-.6-.6-.6zM93.7 220.4c-.5 0-.9.4-.9.9s.4.9.9.9.9-.4.9-.9-.4-.9-.9-.9zM107.1 220c-.7 0-1.2.6-1.2 1.3 0 .7.6 1.2 1.3 1.2.7 0 1.2-.6 1.2-1.3 0-.6-.6-1.2-1.3-1.2zM120.4 219.7c-.9 0-1.6.8-1.5 1.6 0 .9.8 1.6 1.6 1.5.9 0 1.5-.7 1.5-1.6.1-.8-.7-1.5-1.6-1.5zM133.8 219.4c-1.1 0-1.9.9-1.9 2s.9 1.9 2 1.9c1 0 1.9-.9 1.9-1.9 0-1.2-.9-2-2-2zM147.2 219.1c-1.2 0-2.2 1-2.1 2.3 0 1.2 1 2.2 2.3 2.1 1.2 0 2.1-1 2.1-2.2-.1-1.2-1.1-2.2-2.3-2.2zM160.5 218.9c-1.4 0-2.4 1.2-2.4 2.5 0 1.4 1.2 2.4 2.5 2.4s2.4-1.1 2.4-2.5c.1-1.4-1.1-2.5-2.5-2.4zM173.9 218.7c-1.4 0-2.6 1.2-2.5 2.7 0 1.4 1.2 2.6 2.7 2.5 1.4 0 2.5-1.2 2.5-2.6 0-1.4-1.2-2.6-2.7-2.6zM187.3 218.6c-1.5 0-2.7 1.3-2.6 2.8 0 1.5 1.3 2.7 2.8 2.6 1.5 0 2.6-1.2 2.6-2.7-.1-1.5-1.3-2.7-2.8-2.7zM200.7 218.6c-1.5 0-2.7 1.3-2.6 2.8 0 1.5 1.3 2.7 2.8 2.6 1.5 0 2.6-1.2 2.6-2.7-.1-1.5-1.3-2.7-2.8-2.7zM214 218.7c-1.5 0-2.6 1.3-2.6 2.7 0 1.5 1.3 2.6 2.7 2.6 1.4 0 2.6-1.2 2.6-2.6 0-1.6-1.2-2.7-2.7-2.7zM227.4 218.9c-1.4 0-2.4 1.2-2.4 2.5 0 1.4 1.2 2.4 2.5 2.4s2.4-1.1 2.4-2.5-1.1-2.5-2.5-2.4zM240.8 219.1c-1.2 0-2.2 1.1-2.2 2.3 0 1.2 1.1 2.2 2.3 2.2 1.2 0 2.2-1 2.2-2.2 0-1.3-1.1-2.3-2.3-2.3zM254.1 219.4c-1.1 0-1.9.9-1.9 2s.9 1.9 2 1.9c1 0 1.9-.9 1.9-1.9 0-1.2-.9-2-2-2zM267.5 219.7c-.9 0-1.6.8-1.6 1.7 0 .9.8 1.6 1.7 1.6.9 0 1.6-.7 1.6-1.6 0-1-.8-1.7-1.7-1.7zM280.9 220c-.7 0-1.2.6-1.2 1.3 0 .7.6 1.2 1.3 1.2.7 0 1.2-.6 1.2-1.3 0-.6-.6-1.2-1.3-1.2zM294.3 220.4c-.5 0-.9.4-.9 1s.4.9 1 .9c.5 0 .9-.4.9-.9-.1-.6-.5-1-1-1zM307.6 220.7c-.3 0-.6.3-.6.6s.3.6.6.6.6-.3.6-.6-.2-.6-.6-.6zM321 220.9c-.2 0-.4.2-.3.4s.2.4.4.3c.2 0 .3-.2.3-.4 0-.1-.2-.3-.4-.3zM334.4 221.2c-.1 0-.1.1-.1.1l.1.1c.1 0 .1-.1.1-.1l-.1-.1zM73.6 234.2c-.1 0-.1.1-.1.1l.1.1c.1 0 .1-.1.1-.1.1 0 0-.1-.1-.1zM87 234.1c-.1 0-.2.1-.2.3 0 .1.1.2.3.2.1 0 .2-.1.2-.3 0-.1-.1-.2-.3-.2zM100.4 233.8c-.3 0-.5.2-.5.5s.2.5.5.5.5-.2.5-.5c0-.2-.3-.5-.5-.5zM113.8 233.6c-.4 0-.7.3-.7.7s.3.7.7.7c.4 0 .7-.3.7-.7 0-.4-.4-.7-.7-.7zM127.1 233.4c-.5 0-.9.4-.9 1s.4.9 1 .9c.5 0 .9-.4.9-.9 0-.6-.4-1-1-1zM140.5 233.1c-.7 0-1.2.6-1.2 1.2 0 .7.6 1.2 1.2 1.2s1.2-.5 1.2-1.2-.5-1.2-1.2-1.2zM153.9 232.9c-.8 0-1.4.7-1.4 1.4s.7 1.4 1.4 1.4c.8 0 1.4-.6 1.4-1.4 0-.8-.6-1.4-1.4-1.4zM167.2 232.7c-.9 0-1.6.8-1.5 1.6 0 .9.8 1.6 1.6 1.5.9 0 1.5-.7 1.5-1.6.1-.8-.7-1.5-1.6-1.5zM180.6 232.6c-1 0-1.7.8-1.7 1.8s.8 1.7 1.8 1.7c.9 0 1.7-.8 1.7-1.7 0-1.1-.8-1.8-1.8-1.8zM194 232.5c-1 0-1.8.9-1.7 1.9 0 1 .9 1.8 1.9 1.7 1 0 1.7-.8 1.7-1.8-.1-1-.9-1.8-1.9-1.8zM207.3 232.5c-1 0-1.8.9-1.7 1.9s.9 1.8 1.9 1.7c1 0 1.7-.8 1.7-1.8s-.8-1.8-1.9-1.8zM220.7 232.5c-1 0-1.7.8-1.7 1.8s.8 1.7 1.8 1.7 1.7-.8 1.7-1.8c0-.9-.8-1.7-1.8-1.7zM234.1 232.7c-.9 0-1.6.8-1.6 1.7 0 .9.8 1.6 1.7 1.6.9 0 1.6-.8 1.6-1.7 0-.9-.8-1.7-1.7-1.6zM247.5 232.8c-.8 0-1.5.7-1.4 1.5s.7 1.5 1.5 1.4c.8 0 1.4-.7 1.4-1.5 0-.7-.7-1.4-1.5-1.4zM260.8 233.1c-.7 0-1.2.6-1.2 1.3 0 .7.6 1.2 1.3 1.2.7 0 1.2-.6 1.2-1.3 0-.7-.6-1.3-1.3-1.2zM274.2 233.3c-.6 0-1 .5-1 1s.5 1 1 1 1-.5 1-1c0-.6-.4-1-1-1zM287.6 233.5c-.4 0-.8.4-.8.8s.4.8.8.8.8-.4.8-.8-.4-.8-.8-.8zM300.9 233.8c-.3 0-.5.3-.5.6s.3.5.6.5.5-.2.5-.5c0-.4-.3-.6-.6-.6zM314.3 234c-.2 0-.3.2-.3.3 0 .2.2.3.3.3.2 0 .3-.1.3-.3 0-.2-.1-.3-.3-.3zM327.7 234.2c-.1 0-.1.1-.1.1 0 .1.1.1.1.1.1 0 .1-.1.1-.1 0-.1 0-.1-.1-.1zM341 234.3s0 .1 0 0c.1.1.1 0 0 0 .1 0 .1 0 0 0zM80.3 247.3s0 .1 0 0c.1.1.1 0 0 0 .1 0 .1 0 0 0zM93.7 247.2c-.1 0-.1.1-.1.1 0 .1.1.1.1.1.1 0 .1-.1.1-.1 0-.1 0-.1-.1-.1zM107.1 247c-.2 0-.3.1-.3.3 0 .2.1.3.3.3.2 0 .3-.1.3-.3 0-.1-.2-.3-.3-.3zM120.4 246.9c-.2 0-.4.2-.4.4s.2.4.4.4.4-.2.4-.4c.1-.2-.1-.4-.4-.4zM133.8 246.7c-.3 0-.6.3-.6.6s.3.6.6.6.6-.3.6-.6-.2-.6-.6-.6zM147.2 246.6c-.4 0-.7.4-.7.8s.4.7.8.7.7-.3.7-.8c0-.4-.4-.7-.8-.7zM160.5 246.4c-.5 0-.9.4-.9.9s.4.9.9.9.9-.4.9-.9c.1-.5-.3-.9-.9-.9zM173.9 246.3c-.6 0-1 .5-1 1 0 .6.5 1 1 1s1-.5 1-1-.4-1-1-1zM187.3 246.3c-.6 0-1 .5-1 1.1 0 .6.5 1 1.1 1 .6 0 1-.5 1-1 0-.7-.5-1.1-1.1-1.1zM200.7 246.2c-.6 0-1.1.5-1.1 1.1 0 .6.5 1.1 1.1 1.1.6 0 1.1-.5 1.1-1.1 0-.6-.5-1.1-1.1-1.1zM214 246.3c-.6 0-1 .5-1 1.1 0 .6.5 1 1.1 1 .6 0 1-.5 1-1 0-.7-.5-1.1-1.1-1.1zM227.4 246.3c-.5 0-1 .5-.9 1 0 .5.5 1 1 .9.5 0 .9-.4.9-1 0-.4-.5-.9-1-.9zM240.8 246.5c-.5 0-.9.4-.8.9 0 .5.4.9.9.8.5 0 .8-.4.8-.9s-.4-.8-.9-.8zM254.1 246.6c-.4 0-.7.3-.7.7s.3.7.7.7c.4 0 .7-.3.7-.7 0-.4-.3-.7-.7-.7zM267.5 246.8c-.3 0-.5.3-.5.6s.3.5.6.5.5-.2.5-.5c0-.4-.3-.6-.6-.6zM280.9 247c-.2 0-.4.2-.4.4s.2.4.4.3c.2 0 .3-.2.3-.4s-.1-.3-.3-.3zM294.3 247.1c-.1 0-.2.1-.2.2s.1.2.2.2.2-.1.2-.2-.1-.2-.2-.2zM307.6 247.2c-.1 0-.1.1-.1.1 0 .1.1.1.1.1.1 0 .1 0 .1-.1 0 0 0-.1-.1-.1zM113.8 260.3c-.1 0-.1 0 0 0-.1.1-.1.1 0 0 0 .1 0 .1 0 0zM127.1 260.2c-.1 0-.1.1-.1.1 0 .1.1.1.1.1.1 0 .1 0 .1-.1 0 0 0-.1-.1-.1zM140.5 260.1c-.1 0-.2.1-.2.2s.1.2.2.2.2-.1.2-.2-.1-.2-.2-.2zM153.9 260c-.2 0-.3.1-.3.3 0 .2.1.3.3.3.2 0 .3-.1.3-.3 0-.1-.1-.2-.3-.3zM167.2 260c-.2 0-.4.2-.4.4s.2.4.4.4.4-.2.4-.4-.2-.4-.4-.4zM180.6 259.9c-.2 0-.4.2-.4.4s.2.4.4.4.4-.2.4-.4c.1-.2-.1-.4-.4-.4zM194 259.9c-.3 0-.5.2-.5.5s.2.5.5.5.5-.2.5-.5-.3-.5-.5-.5zM207.3 259.8c-.3 0-.5.2-.5.5s.2.5.5.5.5-.2.5-.5c.1-.3-.2-.5-.5-.5zM220.7 259.9c-.3 0-.5.2-.5.5s.2.5.5.5.5-.2.5-.5-.2-.5-.5-.5zM234.1 259.9c-.2 0-.4.2-.4.4s.2.4.4.4.4-.2.4-.4-.2-.4-.4-.4zM247.5 260c-.2 0-.4.2-.4.4s.2.4.4.4.4-.2.4-.4c-.1-.3-.2-.4-.4-.4zM260.8 260c-.2 0-.3.1-.3.3 0 .2.1.3.3.3.2 0 .3-.1.3-.3 0-.1-.1-.3-.3-.3zM274.2 260.1c-.1 0-.2.1-.2.2s.1.2.2.2.2-.1.2-.2-.1-.2-.2-.2zM287.6 260.2c-.1 0-.1 0-.1.1s0 .1.1.1.1 0 .1-.1l-.1-.1zM300.9 260.3c0 .1 0 .1 0 0 .1.1.1.1 0 0 .1 0 .1 0 0 0zM147.2 273.3s-.1 0 0 0c-.1.1 0 .1 0 0 0 .1 0 .1 0 0zM160.5 273.3c0 .1 0 .1 0 0 .1.1.1 0 .1 0h-.1zM173.9 273.2c-.1 0-.1.1-.1.1 0 .1.1.1.1.1.1 0 .1 0 .1-.1 0 0 0-.1-.1-.1zM187.3 273.2c-.1 0-.1 0-.1.1s0 .1.1.1.1 0 .1-.1c0 0 0-.1-.1-.1zM200.7 273.2c-.1 0-.1.1-.1.1 0 .1.1.1.1.1.1 0 .1 0 .1-.1l-.1-.1zM214 273.2c-.1 0-.1.1-.1.1 0 .1.1.1.1.1.1 0 .1 0 .1-.1 0 0 0-.1-.1-.1zM227.4 273.2c-.1 0-.1.1-.1.1 0 .1.1.1.1.1.1 0 .1 0 .1-.1 0 0 0-.1-.1-.1zM240.7 273.3c0 .1 0 .1 0 0 .1.1.1 0 .1 0h-.1zM254.1 273.3c0 .1 0 .1 0 0 .1.1.1.1 0 0 .1 0 .1 0 0 0z"/></g><g id="Group_1323" transform="translate(-1.784 -25.452)"><path d="M290.1 158.5c-.3-4.1 5.2-10.1 16.1-18l15.1-10.8-18.9.3h-2.5c-11.4 0-14.5-1.4-15.2-1.9.1-.8.8-4.1 7.9-12.3l14.7-17-21.6 7.8c-7.9 2.9-19.3 6.7-26.3 6.7-3.9 0-4.9-1.1-5.2-1.5-1.7-1.9-3.2-7.4-.5-22.2l4.4-23.7L242.7 85c-12.1 15.2-18.9 17.5-21.9 17.5-5 0-9-7.7-11.9-14.4l-7.2-16.5-4.5 17.4c-4.7 18.3-11.2 18.3-13.4 18.3-4.2 0-11.8-2.6-24.8-14.8L137.2 72 149 99c8.3 19 7.3 23.8 6.4 25-.4.6-2.1 1.2-5.6 1.2-5.7 0-14.2-1.5-27.7-5l-29.6-7.6 24.2 17.9c11.3 8.3 13.7 12 14.2 13.2-1.4 1.1-6.5 3.2-24.9 5.1l-22.5 2.3 20.7 8.8c17.1 7.3 21.1 12.2 21.4 15 .3 2.8-2.6 8.5-18.1 19.3L90.7 206l20.8-1.2c3.7-.2 6.9-.3 9.8-.3 10.1 0 16.2 1.3 18 4 1.2 1.7 2.2 6.4-3.8 19.6l-8.3 18.2 17.4-11c12.1-7.6 24.1-14.6 30.3-14.6 1.9 0 6.3 0 8.7 22.2l1.9 18 9.5-15.7c14.5-23.8 24.8-28.7 35.8-28.7 10.3 0 23.4 4.6 39.9 11.4l15 6.2-6.9-14.1c-6.4-13-8.1-21.2-5.5-25.9 2.8-5 12.1-8.4 30.1-11l17.3-2.5-15.1-8.4c-10.1-5.3-15.3-10-15.5-13.7zm-12.3.6c.4 6 4.1 11 9 15.2-11.8 2.8-20.3 6.9-24.6 14.4-3.4 6-3.6 13.3-.4 23.1-12-4.4-22-7-31.2-7-14.5 0-26 6.4-37.6 21.4-2.5-9-7.5-17.3-18.3-17.3-6.1 0-13.4 2.8-22.7 8 1-6.1.2-10.9-2.5-14.8-4.4-6.4-13-8.5-21.3-9.1 6.2-5.9 10.4-12.4 9.6-19.3-.7-6.5-5.6-11.6-12.1-15.9 9.8-2.1 15.5-5.2 17.2-10.9 1.1-3.6.1-7.1-2.4-10.8 3.1.5 6.2.7 9.3.8 2.8 0 11.4 0 15.9-6.4 2.7-3.9 3.4-9 1.7-16.5 6 3.4 11.4 5.1 16.5 5.1 8.7 0 15.5-4.7 20.4-14 3.8 5 9.1 9.2 16.6 9.2 6.1 0 12.3-2.8 19.1-8.6.3 6.1 1.9 10.5 4.8 13.8 3.4 3.8 8.3 5.7 14.7 5.7 4.8-.1 9.5-.8 14.1-2.1-1.3 3.5-1.6 7 0 10.2 2.3 4.6 7.3 6.8 13.4 7.8-5.7 5.3-9.6 11.4-9.2 18z" fill="#00ff9d"/><path id="Path_842" d="M188.8 242c-3.8-35.6-13.8-34.3-48.5-12.1 12.9-28.6 1.7-33.8-30-32 28.5-20.2 27.9-31.1-4.5-45.1 34.7-3.7 40.6-9.2 13.8-29.3 41.4 10.8 50 7 34.2-29.6 32.8 31.3 43.7 12.5 48.5-6.4 6.5 15.2 17.2 32.9 44.5-1.8-6.3 34.8 5.8 36.5 40.3 24-16.6 19.4-10.8 24.5 14.7 24.1-23.9 17.4-25.6 28.1-.2 42.3-35.9 5.3-44.7 14.1-29.3 45.8-42.8-18-59.9-19.1-83.5 20.1z" fill="#131313"/></g><g id="Brand" transform="translate(246.009 116.861)"><g id="_2" transform="translate(-193.954 11.507)"><g id="Brand_Hero"><g id="Group"><path id="Cape" d="M91.1 15.3C38.9 6.7 28.5 57.9 0 59.8c20.9 20.8 57.1-5.3 70 7l21.1-51.5z" fill="#ff4746"/><path id="Man" d="M80.9 0c4.3 0 7.8 3.5 7.8 7.8 0 2.5-1.2 4.8-3.2 6.3l.9.3 4.9.4c.2 0 .5.1.7.1 3.9.9 7.9 5 13.2 12.4l.2.2.4.5c1.2 1.7.8 4.2-.9 5.4l-.1.1L92 42.2l-.2 1.5V76h-9.7l-.1-4.8c-.4-13.7-.7-20.5-1-20.5-.3 0-.9 8.4-1.6 25.3h-9.7l.3-32.3-.2-1.3-12.9-8.8c-1.8-1.2-2.2-3.6-1-5.4l.4-.5.3-.5C62 19.6 66.1 15.6 70 14.9h.1c.1 0 .2 0 .3-.1h.1l4.6-.4 1.2-.4h-.1c-3.4-2.6-4-7.5-1.4-10.9 1.4-2 3.7-3.1 6.1-3.1zM64.7 29.3l-.1.1 4 2.7-.8-6.5c-.9 1-2 2.3-3.1 3.7zM94 25.7l-.8 6.3 3.8-2.6v-.1c-1.1-1.4-2.1-2.6-3-3.6z" fill="#eee"/><path d="M71 24.4l5.3-4.8h9.4l5.3 4.8-10 9.4-10-9.4zm5.8-3.4h2.9l6.1 6.1-4.8 4.6-7.8-7.3 3.6-3.4z" fill-rule="evenodd" clip-rule="evenodd" fill="#1161fe"/></g></g></g></g></g></g><g class="st8"><path class="st9" d="M131.5 107.7c-1.2.1-2.2 0-3-.4-.8-.3-1.6-.8-2.2-1.4l1.8-2.1c1 .9 2.1 1.4 3.4 1.3.7 0 1.2-.2 1.5-.5.3-.3.5-.7.4-1.2 0-.4-.1-.7-.4-.9-.2-.2-.6-.4-1.3-.4l-1.3-.1c-1.4-.1-2.5-.4-3.2-1.1-.7-.6-1.1-1.5-1.2-2.6 0-.6 0-1.1.2-1.7.2-.5.5-1 .9-1.3.4-.4.9-.7 1.5-.9s1.3-.4 2.1-.4c1-.1 1.9 0 2.7.3.8.3 1.5.7 2 1.2l-1.8 2.1c-.3-.3-.7-.6-1.2-.8-.5-.2-1-.3-1.7-.2-.6 0-1.1.2-1.4.4-.3.2-.4.6-.4 1 0 .5.2.8.4 1 .3.2.7.3 1.2.3l1.3.1c1.4.1 2.4.5 3.1 1 .7.6 1.1 1.4 1.2 2.6 0 .6 0 1.2-.2 1.8-.2.5-.5 1-.9 1.4-.4.4-.9.7-1.6 1-.3.3-1 .4-1.9.5zM143.1 106.9c-.8.1-1.4 0-2.1-.2-.6-.2-1.1-.5-1.6-.9-.4-.4-.8-.9-1-1.6-.3-.6-.4-1.3-.5-2.1-.1-.8 0-1.5.2-2.2.2-.7.4-1.2.8-1.7s.8-.9 1.4-1.2c.6-.3 1.2-.5 2-.5.8-.1 1.5 0 2.1.3.6.2 1.1.6 1.5 1 .4.4.7 1 .9 1.6.2.6.3 1.2.4 1.9l.1.8-6.4.4v.2c0 .7.3 1.2.6 1.5.4.4 1 .5 1.7.5.6 0 1-.2 1.4-.4.4-.3.7-.6 1-.9l1.5 1.7c-.4.5-1 1-1.6 1.3-.7.2-1.5.4-2.4.5zm-.7-8.3c-.6 0-1 .3-1.3.7-.3.4-.4.9-.4 1.5v.2l3.5-.2v-.2c0-.6-.2-1.1-.5-1.4-.3-.5-.7-.7-1.3-.6zM149.6 106.2l-.7-10 2.8-.2.1 1.7h.1c.1-.5.4-1 .8-1.4.4-.4 1-.6 1.8-.7 1-.1 1.8.2 2.4.9.6.6.9 1.6 1 2.9l.4 6.2-2.8.2-.4-6c0-.6-.2-1.1-.4-1.4-.2-.3-.6-.4-1.1-.4-.2 0-.4.1-.7.1l-.6.3c-.2.1-.3.3-.4.5-.1.2-.1.4-.1.6l.5 6.4-2.7.3zM166.9 103.3c-.2.3-.3.5-.4.8-.1.2-.3.5-.6.6-.2.2-.5.3-.8.5-.3.1-.6.2-.9.2-1.3.1-2.2-.3-3-1.1-.7-.8-1.1-2.1-1.2-3.8-.1-1.7.1-3 .7-3.9.6-.9 1.5-1.4 2.8-1.5.6 0 1.2.1 1.8.4.5.3.9.8 1.1 1.3h.1L166 91l2.8-.2 1 14-2.8.2-.1-1.7zm-1.9-.2c.5 0 1-.2 1.3-.5.3-.3.5-.7.4-1.1l-.2-2.9c0-.5-.2-.8-.6-1-.4-.2-.8-.3-1.3-.3s-1 .3-1.3.7c-.3.4-.5.9-.4 1.5l.1 1.7c0 .6.3 1.1.6 1.5.4.3.9.4 1.4.4zM184.7 102.7c-.4.4-.9.7-1.5 1-.6.3-1.3.5-2.2.6-.7.1-1.4 0-2-.1s-1.1-.4-1.5-.7c-.4-.3-.7-.7-.9-1.1-.2-.4-.4-.9-.4-1.4 0-.5 0-.9.1-1.2.1-.4.3-.7.5-1 .2-.3.5-.6.8-.9.3-.3.6-.5 1-.8l-.6-.6c-.2-.2-.4-.5-.5-.7-.2-.3-.3-.5-.4-.8-.1-.3-.2-.6-.2-.9 0-.4 0-.8.2-1.2s.4-.8.7-1.1c.3-.3.7-.6 1.2-.8.5-.2 1-.3 1.6-.4.5 0 1.1 0 1.5.1.5.1.9.3 1.2.5.4.2.7.5.9.9.2.4.3.8.4 1.3 0 .4 0 .8-.1 1.2-.1.4-.3.7-.5 1s-.5.6-.8.8c-.3.3-.6.5-1 .8l2.2 2.1c.1-.4.2-.9.3-1.3.1-.5.1-.9.1-1.4l3.2-.2.2 2.3-1.2.1c-.2.8-.4 1.5-.7 2.2l2.8 2.7-3.4.2-1-1.2zm-3.4-.8c.7-.1 1.4-.3 1.9-.7l-3-2.8c-.4.3-.7.6-.9.8-.2.3-.2.6-.2.9v.2c0 .5.2.9.6 1.2.4.3.9.4 1.6.4zm-.5-9.3c-.3 0-.6.1-.8.3-.2.2-.3.5-.3.8v.1c0 .3.1.5.3.7.2.2.5.6.9 1 .4-.3.7-.6.9-.9.2-.3.3-.6.3-1v-.1c0-.3-.2-.6-.4-.8-.3 0-.6-.1-.9-.1zM198.1 102.8l-2.9.2-.9-13.2 6.3-.4c.6 0 1.2 0 1.7.2s.9.4 1.3.8c.4.3.7.8.9 1.3.2.5.4 1.1.4 1.7.1.9-.1 1.7-.4 2.4-.4.7-.9 1.2-1.7 1.6l3 5-3.2.2-2.7-4.7-2.1.1.3 4.8zm2.5-7.5c.4 0 .8-.2 1-.4.2-.2.3-.6.3-1l-.1-.8c0-.4-.2-.7-.4-1-.3-.2-.6-.3-1-.3l-3 .2.2 3.5 3-.2zM211.7 102.1c-.8.1-1.4 0-2.1-.2-.6-.2-1.1-.5-1.6-.9-.4-.4-.8-.9-1-1.6-.3-.6-.4-1.3-.5-2.1-.1-.8 0-1.5.2-2.2.2-.7.4-1.2.8-1.7s.8-.9 1.4-1.2c.6-.3 1.2-.5 2-.5.8-.1 1.5 0 2.1.3.6.2 1.1.6 1.5 1 .4.4.7 1 .9 1.6.2.6.3 1.2.4 1.9l.1.8-6.4.4v.2c0 .7.3 1.2.6 1.5.4.4.9.5 1.7.5.6 0 1-.2 1.4-.4.4-.3.7-.6 1-.9l1.5 1.7c-.4.6-1 1-1.6 1.3s-1.5.4-2.4.5zm-.7-8.4c-.6 0-1 .3-1.3.7-.3.4-.4.9-.4 1.5v.2l3.5-.2v-.2c0-.6-.2-1.1-.5-1.4-.3-.4-.7-.6-1.3-.6zM222.2 101.3c-.7.1-1.4 0-2-.2-.6-.2-1.1-.5-1.5-.9-.4-.4-.8-.9-1-1.6-.2-.6-.4-1.3-.5-2.1-.1-.8 0-1.5.2-2.2.2-.7.4-1.2.8-1.7s.8-.9 1.4-1.1c.6-.3 1.2-.4 2-.5 1-.1 1.9.1 2.6.5.7.4 1.2 1 1.6 1.8l-2.2 1.1c-.1-.4-.3-.7-.6-.9s-.7-.4-1.2-.3c-.6 0-1 .3-1.2.6s-.4.9-.3 1.5l.1 1.9c0 .6.2 1.1.5 1.5.3.3.8.5 1.3.5s.9-.2 1.2-.5.5-.7.6-1.1l2.2.8c-.3 1-.7 1.7-1.4 2.2-.8.4-1.6.7-2.6.7zM232.1 100.7c-.8.1-1.4 0-2.1-.2-.6-.2-1.1-.5-1.6-.9-.4-.4-.8-.9-1-1.6-.3-.6-.4-1.3-.5-2.1-.1-.8 0-1.5.2-2.2.2-.7.4-1.2.8-1.7s.8-.9 1.4-1.2c.6-.3 1.2-.5 2-.5.8-.1 1.5 0 2.1.3.6.2 1.1.6 1.5 1 .4.4.7 1 .9 1.6.2.6.3 1.2.4 1.9l.1.8-6.4.4v.2c0 .7.3 1.2.6 1.5.4.4.9.5 1.7.5.6 0 1-.2 1.4-.4.4-.3.7-.6 1-.9l1.5 1.7c-.4.5-1 1-1.7 1.3-.6.2-1.4.4-2.3.5zm-.7-8.4c-.6 0-1 .3-1.3.7-.3.4-.4.9-.4 1.5v.2l3.5-.2v-.2c0-.6-.2-1.1-.5-1.4-.3-.5-.7-.6-1.3-.6zM239.2 88.9c-.6 0-1-.1-1.3-.3-.3-.2-.4-.6-.5-1v-.4c0-.4.1-.7.3-1 .2-.3.6-.4 1.2-.5s1 .1 1.3.3c.3.2.4.6.5 1v.4c0 .4-.1.7-.3 1-.3.3-.7.4-1.2.5zm-1.4 1.1l2.8-.2.7 10-2.8.2-.7-10zM246.1 99.4l-4-9.7 2.8-.2 1.5 3.9 1.2 3.5h.2l.7-3.7.9-4.1 2.6-.1-2.6 10.2-3.3.2zM258.2 98.8c-.8.1-1.4 0-2.1-.2-.6-.2-1.1-.5-1.6-.9-.4-.4-.8-.9-1-1.6-.3-.6-.4-1.3-.5-2.1-.1-.8 0-1.5.2-2.2.2-.7.4-1.2.8-1.7s.8-.9 1.4-1.2c.6-.3 1.2-.5 2-.5.8-.1 1.5 0 2.1.3s1.1.6 1.5 1c.4.4.7 1 .9 1.6.2.6.3 1.2.4 1.9l.1.8-6.4.4v.2c0 .7.3 1.2.6 1.5.4.4 1 .5 1.7.5.6 0 1-.2 1.4-.4.4-.3.7-.6 1-.9l1.5 1.7c-.4.6-1 1-1.7 1.3s-1.4.5-2.3.5zm-.7-8.3c-.6 0-1 .3-1.3.7-.3.4-.4.9-.4 1.5v.2l3.5-.2v-.2c0-.6-.2-1.1-.5-1.4-.3-.5-.7-.7-1.3-.6z" transform="translate(0 -52)"/></g><g class="st8"><path class="st9" d="M151.6 117.3l.7 10.7-2.9.2-.7-10.7-3.6.3-.2-2.6 10.1-.7.2 2.6-3.6.2zM158.4 116.5c-.6 0-1-.1-1.3-.3-.3-.2-.4-.6-.5-1v-.4c0-.4.1-.7.3-1 .2-.3.6-.4 1.2-.5s1 .1 1.3.3c.3.2.4.6.5 1v.4c0 .4-.1.7-.3 1-.3.3-.7.5-1.2.5zm-1.4 1.2l2.8-.2.7 10-2.8.2-.7-10zM162.5 117.3l2.8-.2.1 1.7h.1c.1-.6.4-1 .9-1.4.5-.4 1-.6 1.7-.7 1.3-.1 2.2.3 3 1.1.7.8 1.1 2.1 1.2 3.8s-.1 3-.7 3.9c-.6.9-1.5 1.5-2.8 1.5-.3 0-.6 0-.9-.1-.3-.1-.6-.2-.8-.3-.2-.2-.5-.3-.6-.6-.2-.2-.3-.5-.4-.7h-.1l.4 5.5-2.8.2-1.1-13.7zm5.2 7.6c.5 0 1-.3 1.3-.7.3-.4.5-.9.4-1.5l-.1-1.7c0-.6-.3-1.1-.6-1.5-.4-.3-.8-.5-1.4-.5-.5 0-1 .2-1.3.5-.3.3-.5.7-.4 1.1l.2 2.9c0 .5.2.8.6 1 .3.3.7.4 1.3.4zM178.1 126.4c-1 .1-1.8 0-2.5-.3s-1.3-.7-1.9-1.2l1.5-1.8c.4.4.8.6 1.2.8.4.2.9.3 1.5.2.6 0 .9-.1 1.1-.3.2-.2.3-.4.3-.7 0-.5-.4-.7-1.1-.8l-1.1-.1c-2.3-.1-3.4-1.1-3.6-2.8 0-.5 0-.9.2-1.3s.4-.8.7-1.1c.3-.3.7-.6 1.2-.7.5-.2 1-.3 1.6-.3h1.4c.4 0 .8.1 1.1.2.3.1.6.3.9.4.3.2.5.4.8.6l-1.5 1.8c-.3-.3-.7-.5-1.1-.7-.4-.2-.8-.2-1.2-.2-.5 0-.8.1-1 .3-.2.2-.3.4-.3.6 0 .3.1.5.3.6.2.1.4.2.8.3l1.1.1c2.2.1 3.4 1.1 3.5 2.8 0 .5 0 .9-.2 1.3s-.4.8-.8 1.1c-.4.3-.8.6-1.3.8-.4.3-1 .4-1.6.4zM197 124.9l-1.2-3.1-4.4.3-.7 3.2-2.9.2 3.4-13.5 3.6-.2 5.2 12.9-3 .2zm-3.9-10.4l-1.2 5.1 3-.2-1.8-4.9zM205.7 124.5c-.7.1-1.4 0-2-.2-.6-.2-1.1-.5-1.5-.9-.4-.4-.8-.9-1-1.6-.2-.6-.4-1.3-.5-2.1-.1-.8 0-1.5.2-2.2.2-.7.4-1.2.8-1.7s.8-.9 1.4-1.1c.6-.3 1.2-.4 2-.5 1-.1 1.9.1 2.6.5.7.4 1.2 1 1.6 1.8l-2.2 1.1c-.1-.4-.3-.7-.6-.9-.3-.2-.7-.4-1.2-.3-.6 0-1 .3-1.2.6s-.4.9-.3 1.5l.1 1.9c0 .6.2 1.1.5 1.5s.8.5 1.3.5.9-.2 1.2-.5c.3-.3.5-.7.6-1.1l2.2.8c-.3 1-.7 1.7-1.4 2.2-.8.3-1.6.6-2.6.7zM211.5 123.9l-.7-10 2.8-.2.2 2.2h.1c0-.3.1-.6.2-.8.1-.3.3-.5.5-.7.2-.2.4-.4.7-.5.3-.1.6-.2 1-.3h.5l.2 2.6h-.7c-.8.1-1.4.2-1.8.5-.4.2-.6.7-.5 1.2l.4 5.8-2.9.2zM223.1 123.3c-.7.1-1.4 0-2-.2-.6-.2-1.1-.5-1.5-.9-.4-.4-.8-1-1-1.6-.3-.6-.4-1.3-.5-2.1-.1-.8 0-1.5.2-2.2.2-.7.4-1.2.8-1.7s.8-.9 1.4-1.1c.6-.3 1.2-.4 1.9-.5.7-.1 1.4 0 2 .2.6.2 1.1.5 1.5.9s.8.9 1 1.6c.3.6.4 1.3.5 2.1.1.8 0 1.5-.2 2.2-.2.7-.4 1.2-.8 1.7s-.8.9-1.4 1.1c-.5.3-1.1.4-1.9.5zm-.1-2.2c.6 0 1-.2 1.3-.6.3-.4.4-.9.4-1.5l-.1-2c0-.6-.2-1.1-.6-1.4-.3-.3-.8-.5-1.3-.4-.6 0-1 .2-1.3.6-.3.4-.4.9-.4 1.5l.1 2c0 .6.2 1.1.6 1.4.3.3.7.4 1.3.4zM233.2 122.6c-1 .1-1.8 0-2.5-.3s-1.3-.7-1.9-1.2l1.5-1.8c.4.4.8.6 1.2.8.4.2.9.3 1.5.2.6 0 .9-.1 1.1-.3.2-.2.3-.4.3-.7 0-.5-.4-.7-1.1-.8l-1.1-.1c-2.3-.1-3.4-1.1-3.6-2.8 0-.5 0-.9.2-1.3s.4-.8.7-1.1.7-.6 1.2-.7c.5-.2 1-.3 1.6-.3h1.4c.4 0 .8.1 1.1.2.3.1.6.3.9.4.3.2.5.4.8.6l-1.5 1.8c-.3-.3-.7-.5-1.1-.7-.4-.2-.8-.2-1.2-.2-.5 0-.8.1-1 .3-.2.2-.3.4-.3.6 0 .3.1.5.3.6.2.1.4.2.8.3l1.1.1c2.2.1 3.4 1.1 3.5 2.8 0 .5 0 .9-.2 1.3s-.4.8-.8 1.1c-.4.3-.8.6-1.3.8-.4.2-1 .3-1.6.4zM242.6 121.9c-1 .1-1.8 0-2.5-.3s-1.3-.7-1.9-1.2l1.5-1.8c.4.4.8.6 1.2.8.4.2.9.3 1.5.2.6 0 .9-.2 1.1-.3.2-.2.3-.4.3-.7 0-.5-.4-.7-1.1-.8l-1.1-.1c-2.3-.1-3.4-1.1-3.6-2.8 0-.5 0-.9.2-1.3s.4-.8.7-1.1.7-.6 1.2-.7c.5-.2 1-.3 1.6-.3h1.4c.4 0 .8.1 1.1.2.3.1.6.3.9.4.3.2.5.4.8.6l-1.5 1.8c-.3-.3-.7-.5-1.1-.7-.4-.2-.8-.2-1.2-.2-.5 0-.8.1-1 .3-.2.2-.3.4-.3.6 0 .3.1.5.3.6.2.1.4.2.8.3l1.1.1c2.2.1 3.4 1.1 3.5 2.8 0 .5 0 .9-.2 1.3s-.4.8-.8 1.1c-.4.3-.8.6-1.3.8-.4.2-1 .4-1.6.4z" transform="translate(0 -52)"/></g><g class="st8"><path class="st9" d="M155.8 141.2l.7 10.7-2.9.2-.7-10.7-3.6.3-.2-2.6 10.1-.7.2 2.6-3.6.2zM161 137.4l2.8-.2.4 5.8h.1c.1-.5.4-1 .8-1.4.4-.4 1-.6 1.8-.7 1-.1 1.8.2 2.4.9.6.6.9 1.6 1 2.9l.4 6.2-2.8.2-.4-6c0-.6-.2-1.1-.4-1.4-.2-.3-.6-.4-1.1-.4-.2 0-.4.1-.7.1l-.6.3c-.2.1-.3.3-.4.5-.1.2-.1.4-.1.6l.5 6.4-2.8.2-.9-14zM177.5 150.6c-.8.1-1.4 0-2.1-.2s-1.1-.5-1.6-.9c-.4-.4-.8-.9-1-1.6-.3-.6-.4-1.3-.5-2.1-.1-.8 0-1.5.2-2.2.2-.7.4-1.2.8-1.7s.8-.9 1.4-1.2c.6-.3 1.2-.5 2-.5.8-.1 1.5 0 2.1.3.6.2 1.1.6 1.5 1 .4.4.7 1 .9 1.6.2.6.3 1.2.4 1.9l.1.8-6.4.4v.2c0 .7.3 1.2.6 1.5.4.4 1 .5 1.7.5.6 0 1-.2 1.4-.4.4-.3.7-.6 1-.9l1.5 1.7c-.4.6-1 1-1.7 1.3-.6.3-1.4.5-2.3.5zm-.7-8.3c-.6 0-1 .3-1.3.7-.3.4-.4.9-.4 1.5v.2l3.5-.2v-.2c0-.6-.2-1.1-.5-1.4-.3-.5-.7-.7-1.3-.6zM196.8 146.9c-.1.7-.5 1.3-1 1.7-.6.5-1.3.8-2.3.8-.8.1-1.5 0-2.2-.3-.7-.2-1.3-.6-1.8-1.2-.5-.5-1-1.2-1.3-2-.3-.8-.5-1.8-.6-2.9s0-2.1.2-3c.2-.9.6-1.6 1.1-2.2.5-.6 1.1-1.1 1.8-1.5.7-.4 1.5-.6 2.4-.6 1.2-.1 2.2.1 3.1.6.9.5 1.6 1.2 2.2 2.2l-2.3 1.5c-.2-.5-.6-.9-1-1.3-.5-.3-1.1-.5-1.8-.4-.9.1-1.6.4-2.1.9s-.7 1.4-.6 2.5l.1 2.1c.1 1.1.4 1.9 1 2.4s1.3.7 2.2.6c.4 0 .7-.1 1-.2.3-.1.6-.3.8-.4.2-.2.4-.4.5-.7.1-.2.2-.5.1-.9v-.7l-2.5.2-.2-2.4 5.2-.4.5 7.4-2.3.3-.2-2.1zM204.9 148.5c-1 .1-1.7-.1-2.2-.6-.5-.4-.8-1.1-.8-2l-.8-11.3 2.8-.2.8 11.9 1.3-.1.2 2.2-1.3.1zM211.9 148.2c-.7.1-1.4 0-2-.2-.6-.2-1.1-.5-1.5-.9-.4-.4-.8-1-1-1.6-.3-.6-.4-1.3-.5-2.1-.1-.8 0-1.5.2-2.2.2-.7.4-1.2.8-1.7s.8-.9 1.4-1.1c.6-.3 1.2-.4 1.9-.5.7-.1 1.4 0 2 .2.6.2 1.1.5 1.5.9.4.4.8.9 1 1.6.3.6.4 1.3.5 2.1.1.8 0 1.5-.2 2.2-.2.7-.4 1.2-.8 1.7s-.8.9-1.4 1.1c-.6.3-1.2.5-1.9.5zm-.2-2.2c.6 0 1-.2 1.3-.6.3-.4.4-.9.4-1.5l-.1-2c0-.6-.2-1.1-.6-1.4-.3-.3-.8-.5-1.3-.4s-1 .2-1.3.6c-.3.4-.4.9-.4 1.5l.1 2c0 .6.2 1.1.6 1.4.3.3.8.4 1.3.4zM217.5 133.5l2.8-.2.4 5.7h.1c.1-.6.4-1 .9-1.4.5-.4 1-.6 1.7-.7 1.3-.1 2.2.3 3 1.1.7.8 1.1 2.1 1.2 3.8.1 1.7-.1 3-.7 3.9-.6.9-1.5 1.4-2.8 1.5-.3 0-.6 0-.9-.1-.3-.1-.6-.2-.8-.3-.2-.2-.5-.3-.6-.6-.2-.2-.3-.5-.4-.7h-.1l.1 1.7-2.8.2-1.1-13.9zm5.5 11.6c.5 0 1-.3 1.3-.7.3-.4.5-.9.4-1.5l-.1-1.7c0-.6-.3-1.1-.6-1.5-.4-.3-.8-.5-1.4-.5-.5 0-1 .2-1.3.5-.3.3-.5.7-.4 1.1l.2 2.9c0 .5.2.8.6 1s.8.5 1.3.4zM234.2 146.6c-.8.1-1.4 0-2.1-.2-.6-.2-1.1-.5-1.6-.9-.4-.4-.8-.9-1-1.6-.3-.6-.4-1.3-.5-2.1-.1-.8 0-1.5.2-2.2.2-.7.4-1.2.8-1.7s.8-.9 1.4-1.2c.6-.3 1.2-.5 2-.5.8-.1 1.5 0 2.1.3.6.2 1.1.6 1.5 1 .4.4.7 1 .9 1.6.2.6.3 1.2.4 1.9l.1.8-6.4.4v.2c0 .7.3 1.2.6 1.5.4.4 1 .5 1.7.5.6 0 1-.2 1.4-.4.4-.3.7-.6 1-.9l1.5 1.7c-.4.6-1 1-1.6 1.3s-1.5.5-2.4.5zm-.6-8.3c-.6 0-1 .3-1.3.7-.3.4-.4.9-.4 1.5v.2l3.5-.2v-.2c0-.6-.2-1.1-.5-1.4-.3-.5-.8-.6-1.3-.6zM241.6 141.7l-1.3-5.3-.3-3.7 3-.2.3 3.7-.5 5.4-1.2.1zm.8 4.4c-.6 0-1-.1-1.3-.3-.3-.3-.4-.6-.5-1v-.5c0-.4.1-.8.3-1.1.2-.3.7-.5 1.3-.5.6 0 1 .1 1.3.3.3.3.4.6.5 1v.5c0 .4-.1.8-.3 1.1-.2.3-.7.4-1.3.5z" transform="translate(0 -52)"/></g></g></g></switch></svg>
