<svg xmlns="http://www.w3.org/2000/svg" xmlns:xlink="http://www.w3.org/1999/xlink" width="40" height="41.316" viewBox="0 0 40 41.316">
  <defs>
    <linearGradient id="linear-gradient" x1="0.873" y1="0.155" x2="0.094" y2="0.931" gradientUnits="objectBoundingBox">
      <stop offset="0.05" stop-color="#fff44f"/>
      <stop offset="0.37" stop-color="#ff980e"/>
      <stop offset="0.53" stop-color="#ff3647"/>
      <stop offset="0.7" stop-color="#e31587"/>
    </linearGradient>
    <radialGradient id="radial-gradient" cx="0.874" cy="-0.129" r="1.28" gradientTransform="translate(0.178 0.129) scale(0.8 1)" gradientUnits="objectBoundingBox">
      <stop offset="0.13" stop-color="#ffbd4f"/>
      <stop offset="0.28" stop-color="#ff980e"/>
      <stop offset="0.47" stop-color="#ff3750"/>
      <stop offset="0.78" stop-color="#eb0878"/>
      <stop offset="0.86" stop-color="#e50080"/>
    </radialGradient>
    <radialGradient id="radial-gradient-2" cx="0.49" cy="0.4" r="1.28" gradientTransform="translate(0.088) scale(0.82 1)" gradientUnits="objectBoundingBox">
      <stop offset="0.3" stop-color="#960e18"/>
      <stop offset="0.35" stop-color="#b11927" stop-opacity="0.741"/>
      <stop offset="0.43" stop-color="#db293d" stop-opacity="0.341"/>
      <stop offset="0.5" stop-color="#f5334b" stop-opacity="0.09"/>
      <stop offset="0.53" stop-color="#ff3750" stop-opacity="0"/>
    </radialGradient>
    <radialGradient id="radial-gradient-3" cx="0.48" cy="-0.12" r="1.4" gradientUnits="objectBoundingBox">
      <stop offset="0.13" stop-color="#fff44f"/>
      <stop offset="0.53" stop-color="#ff980e"/>
    </radialGradient>
    <radialGradient id="radial-gradient-4" cx="0.228" cy="1.101" r="1" gradientUnits="objectBoundingBox">
      <stop offset="0.35" stop-color="#3a8ee6"/>
      <stop offset="0.67" stop-color="#9059ff"/>
      <stop offset="1" stop-color="#c139e6"/>
    </radialGradient>
    <radialGradient id="radial-gradient-5" cx="0.52" cy="0.33" r="0.59" gradientTransform="scale(0.9 1)" gradientUnits="objectBoundingBox">
      <stop offset="0.21" stop-color="#9059ff" stop-opacity="0"/>
      <stop offset="0.97" stop-color="#6e008b" stop-opacity="0.6"/>
    </radialGradient>
    <radialGradient id="radial-gradient-6" cx="2.1" cy="-1" r="2.9" gradientUnits="objectBoundingBox">
      <stop offset="0.1" stop-color="#ffe226"/>
      <stop offset="0.79" stop-color="#ff7139"/>
    </radialGradient>
    <radialGradient id="radial-gradient-7" cx="0.84" cy="-0.41" r="1.8" gradientUnits="objectBoundingBox">
      <stop offset="0.11" stop-color="#fff44f"/>
      <stop offset="0.46" stop-color="#ff980e"/>
      <stop offset="0.72" stop-color="#ff3647"/>
      <stop offset="0.9" stop-color="#e31587"/>
    </radialGradient>
    <radialGradient id="radial-gradient-8" cx="0.161" cy="-0.186" r="3.488" gradientTransform="matrix(0.105, 0.467, -0.995, 0.049, -0.046, -0.255)" gradientUnits="objectBoundingBox">
      <stop offset="0" stop-color="#fff44f"/>
      <stop offset="0.3" stop-color="#ff980e"/>
      <stop offset="0.57" stop-color="#ff3647"/>
      <stop offset="0.74" stop-color="#e31587"/>
    </radialGradient>
    <radialGradient id="radial-gradient-9" cx="0.189" cy="-0.425" r="2.384" gradientUnits="objectBoundingBox">
      <stop offset="0.14" stop-color="#fff44f"/>
      <stop offset="0.48" stop-color="#ff980e"/>
      <stop offset="0.66" stop-color="#ff3647"/>
      <stop offset="0.9" stop-color="#e31587"/>
    </radialGradient>
    <radialGradient id="radial-gradient-10" cx="1.593" cy="-0.447" r="3.131" gradientUnits="objectBoundingBox">
      <stop offset="0.09" stop-color="#fff44f"/>
      <stop offset="0.63" stop-color="#ff980e"/>
    </radialGradient>
    <linearGradient id="linear-gradient-2" x1="0.8" y1="0.14" x2="0.18" y2="0.84" gradientUnits="objectBoundingBox">
      <stop offset="0.17" stop-color="#fff44f" stop-opacity="0.8"/>
      <stop offset="0.6" stop-color="#fff44f" stop-opacity="0"/>
    </linearGradient>
  </defs>
  <g id="Group_1373" data-name="Group 1373" transform="translate(-18.5 -371)">
    <g id="Group_933" data-name="Group 933" transform="translate(18.5 371)">
      <g id="_9949a9187a4da9ef27e57a28967a2440" data-name="9949a9187a4da9ef27e57a28967a2440" transform="translate(0 0)">
        <path id="shape-base" d="M39.851,13.865A11.237,11.237,0,0,0,35.834,8.8a20.8,20.8,0,0,1,2.031,6.078v.034c-2.264-5.645-6.1-7.92-9.238-12.876q-.243-.379-.472-.766-.118-.207-.221-.413a3.644,3.644,0,0,1-.294-.793.052.052,0,0,0-.045-.052.071.071,0,0,0-.038,0,.012.012,0,0,0-.01.006l-.018.007.008-.013a14.615,14.615,0,0,0-6.894,11.123,10.019,10.019,0,0,0-5.511,2.124,5.991,5.991,0,0,0-.516-.391,9.284,9.284,0,0,1-.057-4.894,14.831,14.831,0,0,0-4.82,3.725H9.73c-.793-1.006-.737-4.323-.692-5.016a3.579,3.579,0,0,0-.668.355A14.583,14.583,0,0,0,6.412,8.709,17.486,17.486,0,0,0,4.54,10.955h0a16.912,16.912,0,0,0-2.686,6.067l-.027.132q-.111.62-.2,1.25a.422.422,0,0,1,0,.044,19.084,19.084,0,0,0-.331,2.76v.1A20.025,20.025,0,0,0,41.059,24.7c.034-.258.061-.516.091-.775A20.592,20.592,0,0,0,39.851,13.865ZM16.772,29.541c.094.045.182.094.278.136l.014.009ZM21.359,17.461Zm16.506-2.549v0Z" transform="translate(-1.3 -0.004)" fill="url(#linear-gradient)"/>
        <path id="body-outer-ring" d="M39.851,22.09a11.237,11.237,0,0,0-4.017-5.068A20.8,20.8,0,0,1,37.865,23.1v.041a18.135,18.135,0,0,1-.62,13.515A17.219,17.219,0,0,1,20.7,46.381,20.161,20.161,0,0,1,1.481,30.014a8.635,8.635,0,0,1,.142-3.34,14.919,14.919,0,0,0-.322,2.76v.1a20.025,20.025,0,0,0,39.759,3.386c.034-.258.061-.516.091-.775a20.592,20.592,0,0,0-1.3-10.059Z" transform="translate(-1.3 -8.229)" fill="url(#radial-gradient)"/>
        <path id="body-outer-ring-shadow" d="M39.851,22.09a11.237,11.237,0,0,0-4.017-5.068A20.8,20.8,0,0,1,37.865,23.1v.041a18.135,18.135,0,0,1-.62,13.515A17.219,17.219,0,0,1,20.7,46.381,20.161,20.161,0,0,1,1.481,30.014a8.635,8.635,0,0,1,.142-3.34,14.919,14.919,0,0,0-.322,2.76v.1a20.025,20.025,0,0,0,39.759,3.386c.034-.258.061-.516.091-.775a20.592,20.592,0,0,0-1.3-10.059Z" transform="translate(-1.3 -8.229)" fill="url(#radial-gradient-2)"/>
        <path id="tail-tip" d="M48.216,16.216l.125.092a10.9,10.9,0,0,0-1.859-2.425C40.257,7.662,44.849.39,45.619.02l.008-.011a14.615,14.615,0,0,0-6.894,11.123c.233-.017.465-.036.7-.036a10.106,10.106,0,0,1,8.774,5.123Z" transform="translate(-19.396 -0.007)" fill="url(#radial-gradient-3)"/>
        <path id="globe-base" d="M31.681,27.837a4.833,4.833,0,0,1-2.408,2.216c-5.694,0-6.619,3.445-6.619,3.445A8.46,8.46,0,0,0,27.37,40.05q.166.085.338.161.294.13.588.241a8.9,8.9,0,0,0,2.605.5c9.98.469,11.915-11.934,4.712-15.529A6.913,6.913,0,0,1,40.441,26.6a10.106,10.106,0,0,0-8.774-5.123c-.238,0-.47.02-.7.036a10.019,10.019,0,0,0-5.511,2.124c.31.258.65.6,1.376,1.319C28.188,26.287,31.672,27.674,31.681,27.837Z" transform="translate(-11.621 -10.38)" fill="url(#radial-gradient-4)"/>
        <path id="globe-shadow" d="M31.681,27.837a4.833,4.833,0,0,1-2.408,2.216c-5.694,0-6.619,3.445-6.619,3.445A8.46,8.46,0,0,0,27.37,40.05q.166.085.338.161.294.13.588.241a8.9,8.9,0,0,0,2.605.5c9.98.469,11.915-11.934,4.712-15.529A6.913,6.913,0,0,1,40.441,26.6a10.106,10.106,0,0,0-8.774-5.123c-.238,0-.47.02-.7.036a10.019,10.019,0,0,0-5.511,2.124c.31.258.65.6,1.376,1.319C28.188,26.287,31.672,27.674,31.681,27.837Z" transform="translate(-11.621 -10.38)" fill="url(#radial-gradient-5)"/>
        <path id="ear" d="M22.09,20.039q.207.133.413.275a9.284,9.284,0,0,1-.057-4.894,14.831,14.831,0,0,0-4.82,3.725C17.725,19.142,20.63,19.089,22.09,20.039Z" transform="translate(-9.191 -7.456)" fill="url(#radial-gradient-6)"/>
        <path id="body" d="M1.562,28.034A20.16,20.16,0,0,0,20.778,44.4a17.219,17.219,0,0,0,16.545-9.726,18.135,18.135,0,0,0,.62-13.515v-.005c.711,4.638-1.653,9.131-5.337,12.17l-.011.026c-7.178,5.852-14.052,3.532-15.446,2.58q-.146-.07-.291-.146c-4.189-2-5.921-5.819-5.55-9.09a5.142,5.142,0,0,1-4.746-2.983,7.553,7.553,0,0,1,7.362-.3,9.972,9.972,0,0,0,7.519.3c-.008-.163-3.492-1.549-4.855-2.892-.723-.716-1.07-1.06-1.376-1.319a5.991,5.991,0,0,0-.516-.391q-.207-.139-.413-.275c-1.461-.949-4.365-.9-4.461-.895h0c-.793-1.006-.738-4.323-.692-5.016a3.579,3.579,0,0,0-.668.355A14.583,14.583,0,0,0,6.5,14.965a17.486,17.486,0,0,0-1.88,2.24h0a16.912,16.912,0,0,0-2.686,6.067,14.989,14.989,0,0,0-.371,4.764Z" transform="translate(-1.379 -6.253)" fill="url(#radial-gradient-7)"/>
        <path id="tail-flame" d="M50.717,13.884a10.9,10.9,0,0,1,1.859,2.428q.156.116.3.246c4.545,4.185,2.161,10.1,1.984,10.521,3.688-3.039,6.045-7.532,5.337-12.17-2.266-5.647-6.1-7.922-9.24-12.878q-.243-.379-.472-.766-.118-.207-.221-.413a3.644,3.644,0,0,1-.3-.793.052.052,0,0,0-.045-.052.071.071,0,0,0-.038,0,.012.012,0,0,0-.01.006l-.013.007C49.085.387,44.492,7.659,50.717,13.884Z" transform="translate(-23.631 -0.004)" fill="url(#radial-gradient-8)"/>
        <path id="tail-small" d="M45.275,30.574q-.145-.13-.3-.246l-.125-.092a6.913,6.913,0,0,0-4.828-1.172c7.2,3.6,5.268,16-4.711,15.534a8.9,8.9,0,0,1-2.605-.5q-.294-.111-.588-.241-.17-.076-.338-.161l.014.009c1.392.95,8.263,3.271,15.454-2.582l.011-.026C47.438,40.672,49.817,34.757,45.275,30.574Z" transform="translate(-16.032 -14.022)" fill="url(#radial-gradient-9)"/>
        <path id="cheek-tufts" d="M17.178,38.416s.924-3.445,6.619-3.445A4.827,4.827,0,0,0,26.2,32.755a9.972,9.972,0,0,1-7.519-.3,7.553,7.553,0,0,0-7.362.3,5.142,5.142,0,0,0,4.743,2.984c-.371,3.274,1.36,7.091,5.55,9.09.094.045.182.094.278.136a8.453,8.453,0,0,1-4.717-6.55Z" transform="translate(-6.145 -15.296)" fill="url(#radial-gradient-10)"/>
        <path id="overlay-yellow" d="M39.851,13.865A11.237,11.237,0,0,0,35.834,8.8a20.8,20.8,0,0,1,2.031,6.078v.034c-2.264-5.645-6.1-7.92-9.238-12.876q-.243-.379-.472-.766-.118-.207-.221-.413a3.644,3.644,0,0,1-.294-.793.052.052,0,0,0-.045-.052.071.071,0,0,0-.038,0,.012.012,0,0,0-.01.006l-.018.007.008-.013a14.615,14.615,0,0,0-6.894,11.123c.233-.017.465-.036.7-.036a10.106,10.106,0,0,1,8.773,5.122,6.913,6.913,0,0,0-4.828-1.172c7.2,3.6,5.268,16-4.711,15.534a8.9,8.9,0,0,1-2.605-.5q-.294-.111-.588-.241-.17-.076-.338-.161l.014.008q-.146-.07-.291-.146c.094.045.182.094.278.136a8.454,8.454,0,0,1-4.716-6.553s.924-3.445,6.619-3.445a4.827,4.827,0,0,0,2.408-2.216c-.008-.163-3.492-1.549-4.855-2.892-.723-.716-1.07-1.06-1.376-1.319a5.991,5.991,0,0,0-.516-.391,9.284,9.284,0,0,1-.057-4.894,14.831,14.831,0,0,0-4.818,3.731H9.73c-.793-1.006-.737-4.323-.692-5.016a3.579,3.579,0,0,0-.668.355A14.583,14.583,0,0,0,6.412,8.709,17.486,17.486,0,0,0,4.54,10.955h0a16.912,16.912,0,0,0-2.686,6.067l-.027.132c-.038.177-.207,1.071-.231,1.263h0a23.3,23.3,0,0,0-.3,2.789v.1A20.025,20.025,0,0,0,41.06,24.7c.034-.258.061-.516.091-.775a20.592,20.592,0,0,0-1.3-10.059ZM37.865,14.9v.022Z" transform="translate(-1.3 -0.004)" fill="url(#linear-gradient-2)"/>
      </g>
    </g>
  </g>
</svg>
