<svg xmlns="http://www.w3.org/2000/svg" xmlns:xlink="http://www.w3.org/1999/xlink" width="340" height="201" viewBox="0 0 340 201">
  <defs>
    <clipPath id="clip-path">
      <path id="Rectangle" d="M0,0H340a0,0,0,0,1,0,0V191a10,10,0,0,1-10,10H10A10,10,0,0,1,0,191V0A0,0,0,0,1,0,0Z" transform="translate(14 72.361)" fill="#67f7b8"/>
    </clipPath>
  </defs>
  <g id="Group_1394" data-name="Group 1394" transform="translate(0 -52)">
    <g id="Mask_Group_8" data-name="Mask Group 8" transform="translate(-14 -20.361)" clip-path="url(#clip-path)">
      <g id="Group_1322" data-name="Group 1322" transform="translate(-444.508 -10.563)">
        <path id="Path_402" data-name="Path 402" d="M459.11,80.874a.074.074,0,0,0-.147,0,.074.074,0,0,0,.147,0Z" transform="translate(-1.048 -5.093)" fill="#727278" opacity="0.51"/>
        <path id="Path_403" data-name="Path 403" d="M451.868,94.9a.036.036,0,0,0-.036-.036.036.036,0,1,0,0,.071A.035.035,0,0,0,451.868,94.9Z" transform="translate(-0.528 -6.113)" fill="#727278" opacity="0.51"/>
        <path id="Path_404" data-name="Path 404" d="M466.235,95.07a.18.18,0,1,0,0-.361.18.18,0,1,0,0,.361Z" transform="translate(-1.562 -6.101)" fill="#727278" opacity="0.51"/>
        <path id="Path_405" data-name="Path 405" d="M444.622,108.995a.073.073,0,0,0,.074-.071.074.074,0,0,0-.074-.073.076.076,0,0,0-.076.073A.075.075,0,0,0,444.622,108.995Z" transform="translate(-0.003 -7.127)" fill="#727278" opacity="0.51"/>
        <path id="Path_406" data-name="Path 406" d="M459.02,109.194a.289.289,0,1,0-.3-.288A.293.293,0,0,0,459.02,109.194Z" transform="translate(-1.031 -7.11)" fill="#727278" opacity="0.51"/>
        <path id="Path_407" data-name="Path 407" d="M451.826,122.836a.108.108,0,1,0,.109.108A.109.109,0,0,0,451.826,122.836Z" transform="translate(-0.523 -8.141)" fill="#727278" opacity="0.51"/>
        <path id="Path_408" data-name="Path 408" d="M466.221,123.285a.361.361,0,1,0-.371-.361A.365.365,0,0,0,466.221,123.285Z" transform="translate(-1.547 -8.121)" fill="#727278" opacity="0.51"/>
        <path id="Path_409" data-name="Path 409" d="M444.619,136.86a.109.109,0,1,0,.109.109A.109.109,0,0,0,444.619,136.86Z" transform="translate(0 -9.158)" fill="#727278" opacity="0.51"/>
        <path id="Path_410" data-name="Path 410" d="M459.011,136.55a.4.4,0,1,0,.406.4A.4.4,0,0,0,459.011,136.55Z" transform="translate(-1.022 -9.135)" fill="#727278" opacity="0.51"/>
        <path id="Path_411" data-name="Path 411" d="M451.826,150.885a.108.108,0,1,0,.109.108A.109.109,0,0,0,451.826,150.885Z" transform="translate(-0.523 -10.175)" fill="#727278" opacity="0.51"/>
        <path id="Path_412" data-name="Path 412" d="M466.218,150.573a.4.4,0,1,0,.408.4A.4.4,0,0,0,466.218,150.573Z" transform="translate(-1.544 -10.152)" fill="#727278" opacity="0.51"/>
        <path id="Path_413" data-name="Path 413" d="M444.546,165.02a.075.075,0,0,0,.076.071.072.072,0,1,0,0-.144A.075.075,0,0,0,444.546,165.02Z" transform="translate(-0.003 -11.194)" fill="#727278" opacity="0.51"/>
        <path id="Path_414" data-name="Path 414" d="M459.017,164.676a.325.325,0,1,0,.332.325A.33.33,0,0,0,459.017,164.676Z" transform="translate(-1.028 -11.175)" fill="#727278" opacity="0.51"/>
        <path id="Path_415" data-name="Path 415" d="M451.794,179.048a.038.038,0,0,0,.038.035.035.035,0,0,0,.036-.035.036.036,0,0,0-.036-.037A.039.039,0,0,0,451.794,179.048Z" transform="translate(-0.528 -12.214)" fill="#727278" opacity="0.51"/>
        <path id="Path_416" data-name="Path 416" d="M466.23,178.778a.252.252,0,1,0,0,.5.252.252,0,1,0,0-.5Z" transform="translate(-1.556 -12.197)" fill="#727278" opacity="0.51"/>
        <path id="Path_417" data-name="Path 417" d="M459.031,192.919a.144.144,0,1,0,.147.144A.146.146,0,0,0,459.031,192.919Z" transform="translate(-1.042 -13.223)" fill="#727278" opacity="0.51"/>
        <path id="Path_418" data-name="Path 418" d="M466.171,207.093a.073.073,0,0,0,.147,0,.073.073,0,0,0-.147,0Z" transform="translate(-1.571 -14.245)" fill="#727278" opacity="0.51"/>
        <g id="Group_1321" data-name="Group 1321" transform="translate(470.543 10.563)">
          <path id="Path_419" data-name="Path 419" d="M567.224,10.752a.074.074,0,0,0-.074-.073.073.073,0,0,0-.073.073.072.072,0,0,0,.073.071A.073.073,0,0,0,567.224,10.752Z" transform="translate(-479.43 -10.571)" fill="#727278" opacity="0.51"/>
          <path id="Path_420" data-name="Path 420" d="M581.562,10.857a.108.108,0,1,0-.109-.108A.109.109,0,0,0,581.562,10.857Z" transform="translate(-480.472 -10.569)" fill="#727278" opacity="0.51"/>
          <path id="Path_421" data-name="Path 421" d="M595.976,10.891a.145.145,0,1,0-.15-.145A.147.147,0,0,0,595.976,10.891Z" transform="translate(-481.515 -10.566)" fill="#727278" opacity="0.51"/>
          <path id="Path_422" data-name="Path 422" d="M610.387,10.924a.18.18,0,1,0-.185-.18A.184.184,0,0,0,610.387,10.924Z" transform="translate(-482.557 -10.563)" fill="#727278" opacity="0.51"/>
          <path id="Path_423" data-name="Path 423" d="M624.8,10.924a.18.18,0,1,0-.185-.18A.184.184,0,0,0,624.8,10.924Z" transform="translate(-483.602 -10.563)" fill="#727278" opacity="0.51"/>
          <path id="Path_424" data-name="Path 424" d="M639.217,10.924a.181.181,0,1,0,0-.361.18.18,0,1,0,0,.361Z" transform="translate(-484.648 -10.563)" fill="#727278" opacity="0.51"/>
          <path id="Path_425" data-name="Path 425" d="M653.636,10.891a.145.145,0,1,0-.149-.145A.147.147,0,0,0,653.636,10.891Z" transform="translate(-485.696 -10.566)" fill="#727278" opacity="0.51"/>
          <path id="Path_426" data-name="Path 426" d="M668.053,10.857a.108.108,0,1,0-.111-.108A.111.111,0,0,0,668.053,10.857Z" transform="translate(-486.744 -10.569)" fill="#727278" opacity="0.51"/>
          <path id="Path_427" data-name="Path 427" d="M682.547,10.752a.075.075,0,0,0-.076-.073.073.073,0,0,0-.073.073.072.072,0,0,0,.073.071A.074.074,0,0,0,682.547,10.752Z" transform="translate(-487.792 -10.571)" fill="#727278" opacity="0.51"/>
          <path id="Path_428" data-name="Path 428" d="M696.926,10.755a.035.035,0,0,0-.035-.036.038.038,0,0,0-.038.036.037.037,0,0,0,.038.035A.035.035,0,0,0,696.926,10.755Z" transform="translate(-488.84 -10.574)" fill="#727278" opacity="0.51"/>
          <path id="Path_429" data-name="Path 429" d="M516.738,24.778a.038.038,0,0,0-.076,0,.038.038,0,0,0,.076,0Z" transform="translate(-475.775 -11.591)" fill="#727278" opacity="0.51"/>
          <path id="Path_430" data-name="Path 430" d="M531.108,24.881a.108.108,0,1,0,0-.215.108.108,0,1,0,0,.215Z" transform="translate(-476.814 -11.586)" fill="#727278" opacity="0.51"/>
          <path id="Path_431" data-name="Path 431" d="M545.517,24.982a.217.217,0,1,0-.223-.218A.22.22,0,0,0,545.517,24.982Z" transform="translate(-477.851 -11.577)" fill="#727278" opacity="0.51"/>
          <path id="Path_432" data-name="Path 432" d="M559.923,25.081a.325.325,0,1,0-.335-.326A.329.329,0,0,0,559.923,25.081Z" transform="translate(-478.887 -11.569)" fill="#727278" opacity="0.51"/>
          <path id="Path_433" data-name="Path 433" d="M574.328,25.181a.433.433,0,1,0-.444-.434A.44.44,0,0,0,574.328,25.181Z" transform="translate(-479.924 -11.56)" fill="#727278" opacity="0.51"/>
          <path id="Path_434" data-name="Path 434" d="M588.737,25.247a.505.505,0,1,0-.518-.505A.514.514,0,0,0,588.737,25.247Z" transform="translate(-480.963 -11.554)" fill="#727278" opacity="0.51"/>
          <path id="Path_435" data-name="Path 435" d="M603.148,25.315a.578.578,0,1,0-.594-.579A.585.585,0,0,0,603.148,25.315Z" transform="translate(-482.003 -11.549)" fill="#727278" opacity="0.51"/>
          <path id="Path_436" data-name="Path 436" d="M617.56,25.347a.613.613,0,1,0-.63-.614A.622.622,0,0,0,617.56,25.347Z" transform="translate(-483.045 -11.546)" fill="#727278" opacity="0.51"/>
          <path id="Path_437" data-name="Path 437" d="M631.975,25.347a.613.613,0,1,0-.63-.614A.624.624,0,0,0,631.975,25.347Z" transform="translate(-484.09 -11.546)" fill="#727278" opacity="0.51"/>
          <path id="Path_438" data-name="Path 438" d="M646.394,25.315a.578.578,0,1,0-.595-.579A.585.585,0,0,0,646.394,25.315Z" transform="translate(-485.138 -11.549)" fill="#727278" opacity="0.51"/>
          <path id="Path_439" data-name="Path 439" d="M660.814,25.247a.505.505,0,1,0-.52-.505A.511.511,0,0,0,660.814,25.247Z" transform="translate(-486.189 -11.554)" fill="#727278" opacity="0.51"/>
          <path id="Path_440" data-name="Path 440" d="M675.238,25.148a.4.4,0,1,0-.406-.4A.4.4,0,0,0,675.238,25.148Z" transform="translate(-487.243 -11.563)" fill="#727278" opacity="0.51"/>
          <path id="Path_441" data-name="Path 441" d="M689.661,25.048a.289.289,0,1,0-.294-.289A.293.293,0,0,0,689.661,25.048Z" transform="translate(-488.297 -11.571)" fill="#727278" opacity="0.51"/>
          <path id="Path_442" data-name="Path 442" d="M704.086,24.948a.18.18,0,1,0-.186-.181A.183.183,0,0,0,704.086,24.948Z" transform="translate(-489.351 -11.58)" fill="#727278" opacity="0.51"/>
          <path id="Path_443" data-name="Path 443" d="M718.507,24.881a.108.108,0,1,0-.112-.109A.11.11,0,0,0,718.507,24.881Z" transform="translate(-490.402 -11.586)" fill="#727278" opacity="0.51"/>
          <path id="Path_444" data-name="Path 444" d="M732.965,24.778a.035.035,0,0,0-.038-.035.035.035,0,0,0-.035.035.036.036,0,0,0,.035.037A.036.036,0,0,0,732.965,24.778Z" transform="translate(-491.453 -11.591)" fill="#727278" opacity="0.51"/>
          <path id="Path_445" data-name="Path 445" d="M509.487,38.907a.109.109,0,1,0-.112-.109A.111.111,0,0,0,509.487,38.907Z" transform="translate(-475.246 -12.602)" fill="#727278" opacity="0.51"/>
          <path id="Path_446" data-name="Path 446" d="M523.89,39.038a.253.253,0,1,0,0-.505.253.253,0,1,0,0,.505Z" transform="translate(-476.28 -12.591)" fill="#727278" opacity="0.51"/>
          <path id="Path_447" data-name="Path 447" d="M538.293,39.172a.4.4,0,1,0-.406-.4A.4.4,0,0,0,538.293,39.172Z" transform="translate(-477.314 -12.58)" fill="#727278" opacity="0.51"/>
          <path id="Path_448" data-name="Path 448" d="M552.7,39.338a.577.577,0,1,0-.594-.577A.584.584,0,0,0,552.7,39.338Z" transform="translate(-478.344 -12.566)" fill="#727278" opacity="0.51"/>
          <path id="Path_449" data-name="Path 449" d="M567.092,39.539a.795.795,0,1,0-.815-.795A.8.8,0,0,0,567.092,39.539Z" transform="translate(-479.372 -12.549)" fill="#727278" opacity="0.51"/>
          <path id="Path_450" data-name="Path 450" d="M581.5,39.67a.938.938,0,1,0-.963-.938A.951.951,0,0,0,581.5,39.67Z" transform="translate(-480.406 -12.538)" fill="#727278" opacity="0.51"/>
          <path id="Path_451" data-name="Path 451" d="M595.9,39.8a1.082,1.082,0,1,0-1.112-1.082A1.1,1.1,0,0,0,595.9,39.8Z" transform="translate(-481.44 -12.526)" fill="#727278" opacity="0.51"/>
          <path id="Path_452" data-name="Path 452" d="M610.309,39.87a1.155,1.155,0,1,0-1.188-1.155A1.171,1.171,0,0,0,610.309,39.87Z" transform="translate(-482.479 -12.521)" fill="#727278" opacity="0.51"/>
          <path id="Path_453" data-name="Path 453" d="M624.719,39.937a1.227,1.227,0,1,0-1.26-1.227A1.246,1.246,0,0,0,624.719,39.937Z" transform="translate(-483.518 -12.515)" fill="#727278" opacity="0.51"/>
          <path id="Path_454" data-name="Path 454" d="M639.133,39.937a1.227,1.227,0,1,0-1.26-1.227A1.244,1.244,0,0,0,639.133,39.937Z" transform="translate(-484.563 -12.515)" fill="#727278" opacity="0.51"/>
          <path id="Path_455" data-name="Path 455" d="M653.555,39.87a1.155,1.155,0,1,0-1.188-1.155A1.171,1.171,0,0,0,653.555,39.87Z" transform="translate(-485.614 -12.521)" fill="#727278" opacity="0.51"/>
          <path id="Path_456" data-name="Path 456" d="M667.975,39.8a1.082,1.082,0,1,0-1.111-1.082A1.1,1.1,0,0,0,667.975,39.8Z" transform="translate(-486.666 -12.526)" fill="#727278" opacity="0.51"/>
          <path id="Path_457" data-name="Path 457" d="M682.4,39.67a.938.938,0,1,0-.962-.938A.951.951,0,0,0,682.4,39.67Z" transform="translate(-487.723 -12.538)" fill="#727278" opacity="0.51"/>
          <path id="Path_458" data-name="Path 458" d="M696.833,39.5a.757.757,0,1,0-.779-.757A.766.766,0,0,0,696.833,39.5Z" transform="translate(-488.782 -12.552)" fill="#727278" opacity="0.51"/>
          <path id="Path_459" data-name="Path 459" d="M711.261,39.338a.577.577,0,1,0-.594-.577A.586.586,0,0,0,711.261,39.338Z" transform="translate(-489.842 -12.566)" fill="#727278" opacity="0.51"/>
          <path id="Path_460" data-name="Path 460" d="M725.691,39.172a.4.4,0,1,0-.406-.4A.4.4,0,0,0,725.691,39.172Z" transform="translate(-490.902 -12.58)" fill="#727278" opacity="0.51"/>
          <path id="Path_461" data-name="Path 461" d="M740.117,39.038a.253.253,0,1,0-.259-.252A.256.256,0,0,0,740.117,39.038Z" transform="translate(-491.958 -12.591)" fill="#727278" opacity="0.51"/>
          <path id="Path_462" data-name="Path 462" d="M754.545,38.907a.109.109,0,1,0-.111-.109A.11.11,0,0,0,754.545,38.907Z" transform="translate(-493.015 -12.602)" fill="#727278" opacity="0.51"/>
          <path id="Path_463" data-name="Path 463" d="M473.492,52.827a.038.038,0,0,0-.038-.036.037.037,0,0,0,0,.073A.037.037,0,0,0,473.492,52.827Z" transform="translate(-472.639 -13.625)" fill="#727278" opacity="0.51"/>
          <path id="Path_464" data-name="Path 464" d="M487.86,52.964a.144.144,0,1,0-.147-.145A.146.146,0,0,0,487.86,52.964Z" transform="translate(-473.675 -13.617)" fill="#727278" opacity="0.51"/>
          <path id="Path_465" data-name="Path 465" d="M502.263,53.129a.324.324,0,1,0-.336-.325A.328.328,0,0,0,502.263,53.129Z" transform="translate(-474.706 -13.602)" fill="#727278" opacity="0.51"/>
          <path id="Path_466" data-name="Path 466" d="M516.659,53.33a.542.542,0,1,0-.556-.543A.551.551,0,0,0,516.659,53.33Z" transform="translate(-475.734 -13.586)" fill="#727278" opacity="0.51"/>
          <path id="Path_467" data-name="Path 467" d="M531.05,53.6a.829.829,0,1,0-.85-.83A.841.841,0,0,0,531.05,53.6Z" transform="translate(-476.756 -13.563)" fill="#727278" opacity="0.51"/>
          <path id="Path_468" data-name="Path 468" d="M545.447,53.829a1.083,1.083,0,1,0-1.111-1.083A1.1,1.1,0,0,0,545.447,53.829Z" transform="translate(-477.781 -13.543)" fill="#727278" opacity="0.51"/>
          <path id="Path_469" data-name="Path 469" d="M559.842,54.06a1.335,1.335,0,1,0-1.371-1.335A1.353,1.353,0,0,0,559.842,54.06Z" transform="translate(-478.806 -13.524)" fill="#727278" opacity="0.51"/>
          <path id="Path_470" data-name="Path 470" d="M574.236,54.294a1.588,1.588,0,1,0-1.63-1.588A1.611,1.611,0,0,0,574.236,54.294Z" transform="translate(-479.831 -13.504)" fill="#727278" opacity="0.51"/>
          <path id="Path_471" data-name="Path 471" d="M588.636,54.461a1.768,1.768,0,1,0-1.815-1.769A1.793,1.793,0,0,0,588.636,54.461Z" transform="translate(-480.862 -13.49)" fill="#727278" opacity="0.51"/>
          <path id="Path_472" data-name="Path 472" d="M603.041,54.594a1.913,1.913,0,1,0-1.965-1.913A1.941,1.941,0,0,0,603.041,54.594Z" transform="translate(-481.895 -13.478)" fill="#727278" opacity="0.51"/>
          <path id="Path_473" data-name="Path 473" d="M617.45,54.66a1.985,1.985,0,1,0-2.039-1.985A2.011,2.011,0,0,0,617.45,54.66Z" transform="translate(-482.935 -13.473)" fill="#727278" opacity="0.51"/>
          <path id="Path_474" data-name="Path 474" d="M631.865,54.66a1.985,1.985,0,1,0-2.039-1.985A2.013,2.013,0,0,0,631.865,54.66Z" transform="translate(-483.98 -13.473)" fill="#727278" opacity="0.51"/>
          <path id="Path_475" data-name="Path 475" d="M646.284,54.626a1.949,1.949,0,1,0-2-1.949A1.976,1.976,0,0,0,646.284,54.626Z" transform="translate(-485.028 -13.476)" fill="#727278" opacity="0.51"/>
          <path id="Path_476" data-name="Path 476" d="M660.71,54.493a1.8,1.8,0,1,0-1.853-1.8A1.83,1.83,0,0,0,660.71,54.493Z" transform="translate(-486.085 -13.487)" fill="#727278" opacity="0.51"/>
          <path id="Path_477" data-name="Path 477" d="M675.14,54.327a1.624,1.624,0,1,0-1.669-1.624A1.646,1.646,0,0,0,675.14,54.327Z" transform="translate(-487.145 -13.501)" fill="#727278" opacity="0.51"/>
          <path id="Path_478" data-name="Path 478" d="M689.571,54.128a1.407,1.407,0,1,0-1.444-1.408A1.427,1.427,0,0,0,689.571,54.128Z" transform="translate(-488.207 -13.518)" fill="#727278" opacity="0.51"/>
          <path id="Path_479" data-name="Path 479" d="M704.008,53.895a1.155,1.155,0,1,0-1.188-1.155A1.17,1.17,0,0,0,704.008,53.895Z" transform="translate(-489.273 -13.538)" fill="#727278" opacity="0.51"/>
          <path id="Path_480" data-name="Path 480" d="M718.446,53.628a.865.865,0,1,0-.888-.865A.877.877,0,0,0,718.446,53.628Z" transform="translate(-490.341 -13.56)" fill="#727278" opacity="0.51"/>
          <path id="Path_481" data-name="Path 481" d="M732.881,53.4a.614.614,0,1,0-.63-.614A.624.624,0,0,0,732.881,53.4Z" transform="translate(-491.407 -13.58)" fill="#727278" opacity="0.51"/>
          <path id="Path_482" data-name="Path 482" d="M747.315,53.2a.4.4,0,1,0-.409-.4A.4.4,0,0,0,747.315,53.2Z" transform="translate(-492.469 -13.597)" fill="#727278" opacity="0.51"/>
          <path id="Path_483" data-name="Path 483" d="M761.747,53a.181.181,0,1,0-.185-.182A.184.184,0,0,0,761.747,53Z" transform="translate(-493.532 -13.614)" fill="#727278" opacity="0.51"/>
          <path id="Path_484" data-name="Path 484" d="M776.211,52.827a.038.038,0,0,0-.038-.036.037.037,0,0,0,0,.073A.037.037,0,0,0,776.211,52.827Z" transform="translate(-494.589 -13.625)" fill="#727278" opacity="0.51"/>
          <path id="Path_485" data-name="Path 485" d="M480.652,66.988a.145.145,0,1,0-.147-.145A.147.147,0,0,0,480.652,66.988Z" transform="translate(-473.153 -14.633)" fill="#727278" opacity="0.51"/>
          <path id="Path_486" data-name="Path 486" d="M495.052,67.188a.361.361,0,1,0-.37-.361A.367.367,0,0,0,495.052,67.188Z" transform="translate(-474.181 -14.617)" fill="#727278" opacity="0.51"/>
          <path id="Path_487" data-name="Path 487" d="M509.447,67.421a.613.613,0,1,0-.63-.614A.622.622,0,0,0,509.447,67.421Z" transform="translate(-475.206 -14.597)" fill="#727278" opacity="0.51"/>
          <path id="Path_488" data-name="Path 488" d="M523.835,67.719a.938.938,0,1,0-.965-.938A.951.951,0,0,0,523.835,67.719Z" transform="translate(-476.225 -14.571)" fill="#727278" opacity="0.51"/>
          <path id="Path_489" data-name="Path 489" d="M538.221,68.053a1.3,1.3,0,1,0-1.333-1.3A1.316,1.316,0,0,0,538.221,68.053Z" transform="translate(-477.241 -14.543)" fill="#727278" opacity="0.51"/>
          <path id="Path_490" data-name="Path 490" d="M552.609,68.385a1.659,1.659,0,1,0-1.707-1.659A1.681,1.681,0,0,0,552.609,68.385Z" transform="translate(-478.257 -14.515)" fill="#727278" opacity="0.51"/>
          <path id="Path_491" data-name="Path 491" d="M567,68.685a1.985,1.985,0,1,0-2.039-1.985A2.012,2.012,0,0,0,567,68.685Z" transform="translate(-479.276 -14.49)" fill="#727278" opacity="0.51"/>
          <path id="Path_492" data-name="Path 492" d="M581.385,68.983a2.309,2.309,0,1,0-2.372-2.309A2.341,2.341,0,0,0,581.385,68.983Z" transform="translate(-480.296 -14.464)" fill="#727278" opacity="0.51"/>
          <path id="Path_493" data-name="Path 493" d="M595.779,69.249a2.6,2.6,0,1,0-2.671-2.6A2.635,2.635,0,0,0,595.779,69.249Z" transform="translate(-481.318 -14.442)" fill="#727278" opacity="0.51"/>
          <path id="Path_494" data-name="Path 494" d="M610.179,69.415a2.778,2.778,0,1,0-2.856-2.777A2.816,2.816,0,0,0,610.179,69.415Z" transform="translate(-482.348 -14.428)" fill="#727278" opacity="0.51"/>
          <path id="Path_495" data-name="Path 495" d="M624.582,69.548a2.923,2.923,0,1,0-3-2.922A2.962,2.962,0,0,0,624.582,69.548Z" transform="translate(-483.382 -14.416)" fill="#727278" opacity="0.51"/>
          <path id="Path_496" data-name="Path 496" d="M639,69.548a2.923,2.923,0,1,0-3-2.922A2.962,2.962,0,0,0,639,69.548Z" transform="translate(-484.427 -14.416)" fill="#727278" opacity="0.51"/>
          <path id="Path_497" data-name="Path 497" d="M653.419,69.481a2.85,2.85,0,1,0-2.93-2.849A2.889,2.889,0,0,0,653.419,69.481Z" transform="translate(-485.478 -14.422)" fill="#727278" opacity="0.51"/>
          <path id="Path_498" data-name="Path 498" d="M667.845,69.349a2.707,2.707,0,1,0-2.78-2.705A2.743,2.743,0,0,0,667.845,69.349Z" transform="translate(-486.535 -14.433)" fill="#727278" opacity="0.51"/>
          <path id="Path_499" data-name="Path 499" d="M682.28,69.115a2.454,2.454,0,1,0-2.521-2.452A2.486,2.486,0,0,0,682.28,69.115Z" transform="translate(-487.601 -14.453)" fill="#727278" opacity="0.51"/>
          <path id="Path_500" data-name="Path 500" d="M696.72,68.851a2.165,2.165,0,1,0-2.226-2.165A2.195,2.195,0,0,0,696.72,68.851Z" transform="translate(-488.669 -14.476)" fill="#727278" opacity="0.51"/>
          <path id="Path_501" data-name="Path 501" d="M711.16,68.551a1.841,1.841,0,1,0-1.891-1.84A1.867,1.867,0,0,0,711.16,68.551Z" transform="translate(-489.74 -14.501)" fill="#727278" opacity="0.51"/>
          <path id="Path_502" data-name="Path 502" d="M725.6,68.219a1.479,1.479,0,1,0-1.518-1.479A1.5,1.5,0,0,0,725.6,68.219Z" transform="translate(-490.815 -14.529)" fill="#727278" opacity="0.51"/>
          <path id="Path_503" data-name="Path 503" d="M740.047,67.886a1.118,1.118,0,1,0-1.147-1.119A1.133,1.133,0,0,0,740.047,67.886Z" transform="translate(-491.889 -14.557)" fill="#727278" opacity="0.51"/>
          <path id="Path_504" data-name="Path 504" d="M754.49,67.587a.794.794,0,1,0-.814-.794A.8.8,0,0,0,754.49,67.587Z" transform="translate(-492.96 -14.583)" fill="#727278" opacity="0.51"/>
          <path id="Path_505" data-name="Path 505" d="M768.931,67.288a.469.469,0,1,0-.482-.469A.476.476,0,0,0,768.931,67.288Z" transform="translate(-494.032 -14.608)" fill="#727278" opacity="0.51"/>
          <path id="Path_506" data-name="Path 506" d="M783.363,67.088a.253.253,0,1,0-.259-.253A.258.258,0,0,0,783.363,67.088Z" transform="translate(-495.094 -14.625)" fill="#727278" opacity="0.51"/>
          <path id="Path_507" data-name="Path 507" d="M797.794,66.921a.071.071,0,1,0,0-.143.072.072,0,1,0,0,.143Z" transform="translate(-496.154 -14.639)" fill="#727278" opacity="0.51"/>
          <path id="Path_508" data-name="Path 508" d="M473.434,81.145a.289.289,0,1,0,0-.577.289.289,0,1,0,0,.577Z" transform="translate(-472.618 -15.639)" fill="#727278" opacity="0.51"/>
          <path id="Path_509" data-name="Path 509" d="M487.826,81.412a.578.578,0,1,0-.592-.577A.585.585,0,0,0,487.826,81.412Z" transform="translate(-473.641 -15.617)" fill="#727278" opacity="0.51"/>
          <path id="Path_510" data-name="Path 510" d="M502.213,81.743a.938.938,0,1,0-.966-.937A.95.95,0,0,0,502.213,81.743Z" transform="translate(-474.657 -15.588)" fill="#727278" opacity="0.51"/>
          <path id="Path_511" data-name="Path 511" d="M516.593,82.144a1.371,1.371,0,1,0-1.409-1.371A1.39,1.39,0,0,0,516.593,82.144Z" transform="translate(-475.667 -15.555)" fill="#727278" opacity="0.51"/>
          <path id="Path_512" data-name="Path 512" d="M530.972,82.542a1.8,1.8,0,1,0-1.853-1.8A1.831,1.831,0,0,0,530.972,82.542Z" transform="translate(-476.678 -15.521)" fill="#727278" opacity="0.51"/>
          <path id="Path_513" data-name="Path 513" d="M545.354,82.941a2.237,2.237,0,1,0-2.3-2.236A2.268,2.268,0,0,0,545.354,82.941Z" transform="translate(-477.688 -15.487)" fill="#727278" opacity="0.51"/>
          <path id="Path_514" data-name="Path 514" d="M559.732,83.373a2.706,2.706,0,1,0-2.78-2.7A2.743,2.743,0,0,0,559.732,83.373Z" transform="translate(-478.696 -15.45)" fill="#727278" opacity="0.51"/>
          <path id="Path_515" data-name="Path 515" d="M574.111,83.772a3.139,3.139,0,1,0-3.224-3.138A3.183,3.183,0,0,0,574.111,83.772Z" transform="translate(-479.706 -15.416)" fill="#727278" opacity="0.51"/>
          <path id="Path_516" data-name="Path 516" d="M588.5,84.1a3.5,3.5,0,1,0-3.595-3.5A3.549,3.549,0,0,0,588.5,84.1Z" transform="translate(-480.723 -15.388)" fill="#727278" opacity="0.51"/>
          <path id="Path_517" data-name="Path 517" d="M602.891,84.37A3.788,3.788,0,1,0,599,80.584,3.84,3.84,0,0,0,602.891,84.37Z" transform="translate(-481.745 -15.366)" fill="#727278" opacity="0.51"/>
          <path id="Path_518" data-name="Path 518" d="M617.29,84.538a3.969,3.969,0,1,0-4.077-3.968A4.026,4.026,0,0,0,617.29,84.538Z" transform="translate(-482.775 -15.351)" fill="#727278" opacity="0.51"/>
          <ellipse id="Ellipse_5" data-name="Ellipse 5" cx="4.115" cy="4.004" rx="4.115" ry="4.004" transform="translate(143.769 61.214)" fill="#727278" opacity="0.51"/>
          <path id="Path_519" data-name="Path 519" d="M646.125,84.5a3.933,3.933,0,1,0-4.042-3.931A3.988,3.988,0,0,0,646.125,84.5Z" transform="translate(-484.869 -15.354)" fill="#727278" opacity="0.51"/>
          <path id="Path_520" data-name="Path 520" d="M660.553,84.337a3.753,3.753,0,1,0-3.857-3.751A3.8,3.8,0,0,0,660.553,84.337Z" transform="translate(-485.928 -15.368)" fill="#727278" opacity="0.51"/>
          <path id="Path_521" data-name="Path 521" d="M674.995,84.037a3.427,3.427,0,1,0-3.522-3.425A3.475,3.475,0,0,0,674.995,84.037Z" transform="translate(-487 -15.394)" fill="#727278" opacity="0.51"/>
          <path id="Path_522" data-name="Path 522" d="M689.438,83.706a3.067,3.067,0,1,0-3.151-3.065A3.11,3.11,0,0,0,689.438,83.706Z" transform="translate(-488.074 -15.422)" fill="#727278" opacity="0.51"/>
          <path id="Path_523" data-name="Path 523" d="M703.889,83.307a2.635,2.635,0,1,0-2.706-2.633A2.671,2.671,0,0,0,703.889,83.307Z" transform="translate(-489.154 -15.456)" fill="#727278" opacity="0.51"/>
          <path id="Path_524" data-name="Path 524" d="M718.342,82.875a2.165,2.165,0,1,0-2.224-2.164A2.2,2.2,0,0,0,718.342,82.875Z" transform="translate(-490.237 -15.492)" fill="#727278" opacity="0.51"/>
          <path id="Path_525" data-name="Path 525" d="M732.794,82.442a1.7,1.7,0,1,0-1.742-1.695A1.721,1.721,0,0,0,732.794,82.442Z" transform="translate(-491.32 -15.529)" fill="#727278" opacity="0.51"/>
          <path id="Path_526" data-name="Path 526" d="M747.245,82.044a1.263,1.263,0,1,0-1.3-1.262A1.281,1.281,0,0,0,747.245,82.044Z" transform="translate(-492.4 -15.563)" fill="#727278" opacity="0.51"/>
          <path id="Path_527" data-name="Path 527" d="M761.692,81.678a.866.866,0,1,0-.891-.865A.876.876,0,0,0,761.692,81.678Z" transform="translate(-493.477 -15.594)" fill="#727278" opacity="0.51"/>
          <path id="Path_528" data-name="Path 528" d="M776.136,81.345a.505.505,0,1,0-.518-.5A.513.513,0,0,0,776.136,81.345Z" transform="translate(-494.551 -15.622)" fill="#727278" opacity="0.51"/>
          <path id="Path_529" data-name="Path 529" d="M790.571,81.112a.252.252,0,1,0-.26-.251A.256.256,0,0,0,790.571,81.112Z" transform="translate(-495.617 -15.642)" fill="#727278" opacity="0.51"/>
          <path id="Path_530" data-name="Path 530" d="M805.075,80.874A.073.073,0,0,0,805,80.8a.074.074,0,0,0-.074.073.073.073,0,0,0,.074.071A.072.072,0,0,0,805.075,80.874Z" transform="translate(-496.677 -15.656)" fill="#727278" opacity="0.51"/>
          <path id="Path_531" data-name="Path 531" d="M480.626,95.337a.469.469,0,1,0-.48-.469A.476.476,0,0,0,480.626,95.337Z" transform="translate(-473.127 -16.642)" fill="#727278" opacity="0.51"/>
          <path id="Path_532" data-name="Path 532" d="M495.014,95.668a.83.83,0,1,0-.852-.829A.842.842,0,0,0,495.014,95.668Z" transform="translate(-474.143 -16.614)" fill="#727278" opacity="0.51"/>
          <ellipse id="Ellipse_6" data-name="Ellipse 6" cx="1.297" cy="1.262" rx="1.297" ry="1.262" transform="translate(32.944 76.963)" fill="#727278" opacity="0.51"/>
          <path id="Path_533" data-name="Path 533" d="M523.768,96.533a1.768,1.768,0,1,0-1.815-1.767A1.791,1.791,0,0,0,523.768,96.533Z" transform="translate(-476.158 -16.54)" fill="#727278" opacity="0.51"/>
          <path id="Path_534" data-name="Path 534" d="M538.14,97.032a2.309,2.309,0,1,0-2.372-2.309A2.341,2.341,0,0,0,538.14,97.032Z" transform="translate(-477.16 -16.498)" fill="#727278" opacity="0.51"/>
          <path id="Path_535" data-name="Path 535" d="M552.51,97.564a2.887,2.887,0,1,0-2.968-2.885A2.926,2.926,0,0,0,552.51,97.564Z" transform="translate(-478.159 -16.453)" fill="#727278" opacity="0.51"/>
          <path id="Path_536" data-name="Path 536" d="M566.881,98.063a3.429,3.429,0,1,0-3.521-3.427A3.473,3.473,0,0,0,566.881,98.063Z" transform="translate(-479.161 -16.411)" fill="#727278" opacity="0.51"/>
          <path id="Path_537" data-name="Path 537" d="M581.252,98.562a3.97,3.97,0,1,0-4.078-3.968A4.024,4.024,0,0,0,581.252,98.562Z" transform="translate(-480.162 -16.368)" fill="#727278" opacity="0.51"/>
          <path id="Path_538" data-name="Path 538" d="M595.629,90.081a4.474,4.474,0,1,0,4.595,4.473A4.536,4.536,0,0,0,595.629,90.081Z" transform="translate(-481.167 -16.329)" fill="#727278" opacity="0.51"/>
          <path id="Path_539" data-name="Path 539" d="M610.01,89.653a4.872,4.872,0,1,0,5,4.87A4.941,4.941,0,0,0,610.01,89.653Z" transform="translate(-482.18 -16.298)" fill="#727278" opacity="0.51"/>
          <path id="Path_540" data-name="Path 540" d="M624.405,89.382a5.124,5.124,0,1,0,5.265,5.122A5.2,5.2,0,0,0,624.405,89.382Z" transform="translate(-483.205 -16.278)" fill="#727278" opacity="0.51"/>
          <path id="Path_541" data-name="Path 541" d="M638.811,89.264a5.233,5.233,0,1,0,5.377,5.231A5.3,5.3,0,0,0,638.811,89.264Z" transform="translate(-484.242 -16.27)" fill="#727278" opacity="0.51"/>
          <path id="Path_542" data-name="Path 542" d="M653.236,89.382A5.124,5.124,0,1,0,658.5,94.5,5.194,5.194,0,0,0,653.236,89.382Z" transform="translate(-485.296 -16.278)" fill="#727278" opacity="0.51"/>
          <path id="Path_543" data-name="Path 543" d="M667.671,89.653a4.872,4.872,0,1,0,5.007,4.87A4.939,4.939,0,0,0,667.671,89.653Z" transform="translate(-486.361 -16.298)" fill="#727278" opacity="0.51"/>
          <path id="Path_544" data-name="Path 544" d="M677.482,94.551a4.636,4.636,0,1,0,4.633-4.509A4.572,4.572,0,0,0,677.482,94.551Z" transform="translate(-487.436 -16.326)" fill="#727278" opacity="0.51"/>
          <path id="Path_545" data-name="Path 545" d="M696.569,98.627a4.041,4.041,0,1,0-4.153-4.039A4.1,4.1,0,0,0,696.569,98.627Z" transform="translate(-488.518 -16.363)" fill="#727278" opacity="0.51"/>
          <path id="Path_546" data-name="Path 546" d="M711.027,98.129a3.5,3.5,0,1,0-3.6-3.5A3.548,3.548,0,0,0,711.027,98.129Z" transform="translate(-489.607 -16.405)" fill="#727278" opacity="0.51"/>
          <ellipse id="Ellipse_7" data-name="Ellipse 7" cx="3.003" cy="2.922" rx="3.003" ry="2.922" transform="translate(231.786 75.303)" fill="#727278" opacity="0.51"/>
          <path id="Path_547" data-name="Path 547" d="M739.949,97.065a2.346,2.346,0,1,0-2.409-2.345A2.379,2.379,0,0,0,739.949,97.065Z" transform="translate(-491.79 -16.495)" fill="#727278" opacity="0.51"/>
          <path id="Path_548" data-name="Path 548" d="M754.409,96.567a1.8,1.8,0,1,0-1.855-1.8A1.83,1.83,0,0,0,754.409,96.567Z" transform="translate(-492.879 -16.538)" fill="#727278" opacity="0.51"/>
          <path id="Path_549" data-name="Path 549" d="M768.865,96.1a1.3,1.3,0,1,0-1.336-1.3A1.318,1.318,0,0,0,768.865,96.1Z" transform="translate(-493.965 -16.577)" fill="#727278" opacity="0.51"/>
          <path id="Path_550" data-name="Path 550" d="M783.313,95.7a.866.866,0,1,0-.888-.865A.879.879,0,0,0,783.313,95.7Z" transform="translate(-495.045 -16.611)" fill="#727278" opacity="0.51"/>
          <path id="Path_551" data-name="Path 551" d="M797.762,95.337a.469.469,0,1,0-.482-.469A.477.477,0,0,0,797.762,95.337Z" transform="translate(-496.122 -16.642)" fill="#727278" opacity="0.51"/>
          <path id="Path_552" data-name="Path 552" d="M812.2,95.1a.216.216,0,1,0-.224-.216A.221.221,0,0,0,812.2,95.1Z" transform="translate(-497.188 -16.662)" fill="#727278" opacity="0.51"/>
          <path id="Path_553" data-name="Path 553" d="M826.664,94.9a.037.037,0,0,0-.038-.036.036.036,0,0,0,0,.071A.037.037,0,0,0,826.664,94.9Z" transform="translate(-498.247 -16.676)" fill="#727278" opacity="0.51"/>
          <path id="Path_554" data-name="Path 554" d="M473.408,109.493a.613.613,0,1,0-.63-.612A.621.621,0,0,0,473.408,109.493Z" transform="translate(-472.592 -17.648)" fill="#727278" opacity="0.51"/>
          <path id="Path_555" data-name="Path 555" d="M487.788,109.892a1.046,1.046,0,1,0-1.074-1.045A1.061,1.061,0,0,0,487.788,109.892Z" transform="translate(-473.603 -17.614)" fill="#727278" opacity="0.51"/>
          <path id="Path_556" data-name="Path 556" d="M502.164,110.358a1.552,1.552,0,1,0-1.594-1.551A1.574,1.574,0,0,0,502.164,110.358Z" transform="translate(-474.608 -17.574)" fill="#727278" opacity="0.51"/>
          <path id="Path_557" data-name="Path 557" d="M516.532,110.89a2.129,2.129,0,1,0-2.186-2.128A2.16,2.16,0,0,0,516.532,110.89Z" transform="translate(-475.607 -17.529)" fill="#727278" opacity="0.51"/>
          <path id="Path_558" data-name="Path 558" d="M530.894,111.489a2.778,2.778,0,1,0-2.853-2.777A2.819,2.819,0,0,0,530.894,111.489Z" transform="translate(-476.6 -17.478)" fill="#727278" opacity="0.51"/>
          <path id="Path_559" data-name="Path 559" d="M545.258,112.088a3.428,3.428,0,1,0-3.524-3.427A3.476,3.476,0,0,0,545.258,112.088Z" transform="translate(-477.592 -17.428)" fill="#727278" opacity="0.51"/>
          <path id="Path_560" data-name="Path 560" d="M559.618,112.718a4.113,4.113,0,1,0-4.227-4.111A4.17,4.17,0,0,0,559.618,112.718Z" transform="translate(-478.583 -17.374)" fill="#727278" opacity="0.51"/>
          <path id="Path_561" data-name="Path 561" d="M573.974,103.717a4.835,4.835,0,1,0,4.969,4.834A4.9,4.9,0,0,0,573.974,103.717Z" transform="translate(-479.57 -17.318)" fill="#727278" opacity="0.51"/>
          <path id="Path_562" data-name="Path 562" d="M582.742,108.5a5.6,5.6,0,1,0,5.6-5.448A5.524,5.524,0,0,0,582.742,108.5Z" transform="translate(-480.566 -17.27)" fill="#727278" opacity="0.51"/>
          <path id="Path_563" data-name="Path 563" d="M596.557,108.461a6.158,6.158,0,1,0,6.157-5.989A6.075,6.075,0,0,0,596.557,108.461Z" transform="translate(-481.568 -17.227)" fill="#727278" opacity="0.51"/>
          <ellipse id="Ellipse_8" data-name="Ellipse 8" cx="6.563" cy="6.385" rx="6.563" ry="6.385" transform="translate(127.952 84.848)" fill="#727278" opacity="0.51"/>
          <path id="Path_564" data-name="Path 564" d="M624.789,108.419a6.714,6.714,0,1,0,6.71-6.53A6.621,6.621,0,0,0,624.789,108.419Z" transform="translate(-483.615 -17.185)" fill="#727278" opacity="0.51"/>
          <path id="Path_565" data-name="Path 565" d="M639.286,108.424a6.639,6.639,0,1,0,6.636-6.457A6.548,6.548,0,0,0,639.286,108.424Z" transform="translate(-484.666 -17.191)" fill="#727278" opacity="0.51"/>
          <path id="Path_566" data-name="Path 566" d="M654.02,108.447a6.342,6.342,0,1,0,6.339-6.17A6.254,6.254,0,0,0,654.02,108.447Z" transform="translate(-485.734 -17.213)" fill="#727278" opacity="0.51"/>
          <path id="Path_567" data-name="Path 567" d="M674.815,102.822a5.665,5.665,0,1,0,5.821,5.664A5.745,5.745,0,0,0,674.815,102.822Z" transform="translate(-486.82 -17.253)" fill="#727278" opacity="0.51"/>
          <path id="Path_568" data-name="Path 568" d="M689.278,103.484a5.052,5.052,0,1,0,5.192,5.05A5.121,5.121,0,0,0,689.278,103.484Z" transform="translate(-487.915 -17.301)" fill="#727278" opacity="0.51"/>
          <ellipse id="Ellipse_9" data-name="Ellipse 9" cx="4.486" cy="4.364" rx="4.486" ry="4.364" transform="translate(210.249 86.869)" fill="#727278" opacity="0.51"/>
          <path id="Path_569" data-name="Path 569" d="M718.22,112.32a3.68,3.68,0,1,0-3.78-3.678A3.732,3.732,0,0,0,718.22,112.32Z" transform="translate(-490.115 -17.408)" fill="#727278" opacity="0.51"/>
          <path id="Path_570" data-name="Path 570" d="M732.689,111.688a2.995,2.995,0,1,0-3.077-2.993A3.037,3.037,0,0,0,732.689,111.688Z" transform="translate(-491.215 -17.461)" fill="#727278" opacity="0.51"/>
          <path id="Path_571" data-name="Path 571" d="M747.158,111.089a2.346,2.346,0,1,0-2.411-2.344A2.378,2.378,0,0,0,747.158,111.089Z" transform="translate(-492.313 -17.512)" fill="#727278" opacity="0.51"/>
          <path id="Path_572" data-name="Path 572" d="M761.623,110.524a1.732,1.732,0,1,0-1.78-1.731A1.756,1.756,0,0,0,761.623,110.524Z" transform="translate(-493.408 -17.56)" fill="#727278" opacity="0.51"/>
          <path id="Path_573" data-name="Path 573" d="M776.077,110.059a1.227,1.227,0,1,0-1.26-1.226A1.245,1.245,0,0,0,776.077,110.059Z" transform="translate(-494.493 -17.6)" fill="#727278" opacity="0.51"/>
          <path id="Path_574" data-name="Path 574" d="M790.53,109.627a.758.758,0,1,0-.777-.757A.767.767,0,0,0,790.53,109.627Z" transform="translate(-495.576 -17.636)" fill="#727278" opacity="0.51"/>
          <path id="Path_575" data-name="Path 575" d="M804.976,109.294a.4.4,0,1,0-.409-.4A.4.4,0,0,0,804.976,109.294Z" transform="translate(-496.65 -17.664)" fill="#727278" opacity="0.51"/>
          <path id="Path_576" data-name="Path 576" d="M819.41,109.061a.144.144,0,1,0-.147-.144A.148.148,0,0,0,819.41,109.061Z" transform="translate(-497.716 -17.684)" fill="#727278" opacity="0.51"/>
          <path id="Path_577" data-name="Path 577" d="M480.606,123.618a.722.722,0,1,0-.741-.723A.733.733,0,0,0,480.606,123.618Z" transform="translate(-473.106 -18.656)" fill="#727278" opacity="0.51"/>
          <path id="Path_578" data-name="Path 578" d="M494.982,124.082a1.227,1.227,0,1,0-1.261-1.226A1.243,1.243,0,0,0,494.982,124.082Z" transform="translate(-474.111 -18.616)" fill="#727278" opacity="0.51"/>
          <path id="Path_579" data-name="Path 579" d="M509.354,124.583a1.768,1.768,0,1,0-1.818-1.769A1.795,1.795,0,0,0,509.354,124.583Z" transform="translate(-475.113 -18.574)" fill="#727278" opacity="0.51"/>
          <path id="Path_580" data-name="Path 580" d="M523.716,125.18a2.418,2.418,0,1,0-2.483-2.417A2.451,2.451,0,0,0,523.716,125.18Z" transform="translate(-476.106 -18.523)" fill="#727278" opacity="0.51"/>
          <path id="Path_581" data-name="Path 581" d="M538.073,125.845a3.139,3.139,0,1,0-3.225-3.139A3.183,3.183,0,0,0,538.073,125.845Z" transform="translate(-477.093 -18.467)" fill="#727278" opacity="0.51"/>
          <path id="Path_582" data-name="Path 582" d="M552.429,118.752a3.9,3.9,0,1,0,4,3.9A3.951,3.951,0,0,0,552.429,118.752Z" transform="translate(-478.078 -18.408)" fill="#727278" opacity="0.51"/>
          <path id="Path_583" data-name="Path 583" d="M561.92,122.583a4.859,4.859,0,1,0,4.856-4.725A4.792,4.792,0,0,0,561.92,122.583Z" transform="translate(-479.056 -18.343)" fill="#727278" opacity="0.51"/>
          <path id="Path_584" data-name="Path 584" d="M575.415,122.518a5.712,5.712,0,1,0,5.71-5.555A5.633,5.633,0,0,0,575.415,122.518Z" transform="translate(-480.035 -18.278)" fill="#727278" opacity="0.51"/>
          <path id="Path_585" data-name="Path 585" d="M669.012,120.8a6.936,6.936,0,0,0-13.371.006,6.936,6.936,0,0,0-13.37-.006,6.937,6.937,0,0,0-13.37,0,6.936,6.936,0,0,0-13.371.006,6.918,6.918,0,0,0-13.554,1.13,6.351,6.351,0,1,0,0,.978,6.918,6.918,0,0,0,13.554,1.131,6.936,6.936,0,0,0,13.371,0,6.936,6.936,0,0,0,13.37,0,6.936,6.936,0,0,0,13.37,0,6.936,6.936,0,0,0,13.371,0,6.711,6.711,0,1,0,0-3.248Z" transform="translate(-481.016 -18.188)" fill="#727278" opacity="0.51"/>
          <path id="Path_586" data-name="Path 586" d="M690.177,122.478a6.231,6.231,0,1,0,6.23-6.06A6.145,6.145,0,0,0,690.177,122.478Z" transform="translate(-488.356 -18.239)" fill="#727278" opacity="0.51"/>
          <path id="Path_587" data-name="Path 587" d="M710.888,117.313a5.232,5.232,0,1,0,5.378,5.23A5.305,5.305,0,0,0,710.888,117.313Z" transform="translate(-489.468 -18.303)" fill="#727278" opacity="0.51"/>
          <path id="Path_588" data-name="Path 588" d="M720.848,122.608a4.525,4.525,0,1,0,4.521-4.4A4.463,4.463,0,0,0,720.848,122.608Z" transform="translate(-490.58 -18.368)" fill="#727278" opacity="0.51"/>
          <path id="Path_589" data-name="Path 589" d="M739.847,126.277a3.608,3.608,0,1,0-3.706-3.607A3.659,3.659,0,0,0,739.847,126.277Z" transform="translate(-491.689 -18.43)" fill="#727278" opacity="0.51"/>
          <path id="Path_590" data-name="Path 590" d="M754.325,125.579a2.851,2.851,0,1,0-2.929-2.85A2.889,2.889,0,0,0,754.325,125.579Z" transform="translate(-492.795 -18.49)" fill="#727278" opacity="0.51"/>
          <path id="Path_591" data-name="Path 591" d="M768.8,124.948a2.165,2.165,0,1,0-2.224-2.165A2.195,2.195,0,0,0,768.8,124.948Z" transform="translate(-493.895 -18.543)" fill="#727278" opacity="0.51"/>
          <path id="Path_592" data-name="Path 592" d="M783.258,124.382a1.551,1.551,0,1,0-1.594-1.551A1.572,1.572,0,0,0,783.258,124.382Z" transform="translate(-494.99 -18.591)" fill="#727278" opacity="0.51"/>
          <path id="Path_593" data-name="Path 593" d="M797.719,123.883a1.01,1.01,0,1,0-1.038-1.01A1.024,1.024,0,0,0,797.719,123.883Z" transform="translate(-496.079 -18.633)" fill="#727278" opacity="0.51"/>
          <path id="Path_594" data-name="Path 594" d="M812.169,123.485a.578.578,0,1,0-.595-.578A.586.586,0,0,0,812.169,123.485Z" transform="translate(-497.159 -18.667)" fill="#727278" opacity="0.51"/>
          <path id="Path_595" data-name="Path 595" d="M826.609,123.185a.253.253,0,1,0-.259-.253A.255.255,0,0,0,826.609,123.185Z" transform="translate(-498.23 -18.693)" fill="#727278" opacity="0.51"/>
          <path id="Path_596" data-name="Path 596" d="M841.079,122.949a.036.036,0,0,0-.038-.035.035.035,0,0,0-.036.035.036.036,0,0,0,.036.037A.037.037,0,0,0,841.079,122.949Z" transform="translate(-499.293 -18.71)" fill="#727278" opacity="0.51"/>
          <path id="Path_597" data-name="Path 597" d="M473.393,136.121a.794.794,0,1,0,.817.794A.8.8,0,0,0,473.393,136.121Z" transform="translate(-472.578 -19.667)" fill="#727278" opacity="0.51"/>
          <path id="Path_598" data-name="Path 598" d="M487.768,135.576a1.3,1.3,0,1,0,1.335,1.3A1.316,1.316,0,0,0,487.768,135.576Z" transform="translate(-473.583 -19.628)" fill="#727278" opacity="0.51"/>
          <path id="Path_599" data-name="Path 599" d="M502.138,134.954a1.877,1.877,0,1,0,1.926,1.876A1.9,1.9,0,0,0,502.138,134.954Z" transform="translate(-474.581 -19.583)" fill="#727278" opacity="0.51"/>
          <ellipse id="Ellipse_10" data-name="Ellipse 10" cx="2.633" cy="2.561" rx="2.633" ry="2.561" transform="translate(38.293 114.686)" fill="#727278" opacity="0.51"/>
          <path id="Path_600" data-name="Path 600" d="M530.847,140.07a3.356,3.356,0,1,0-3.447-3.355A3.4,3.4,0,0,0,530.847,140.07Z" transform="translate(-476.553 -19.467)" fill="#727278" opacity="0.51"/>
          <ellipse id="Ellipse_11" data-name="Ellipse 11" cx="4.301" cy="4.184" rx="4.301" ry="4.184" transform="translate(63.366 113.064)" fill="#727278" opacity="0.51"/>
          <path id="Path_601" data-name="Path 601" d="M554.272,136.577a5.267,5.267,0,1,0,5.265-5.123A5.194,5.194,0,0,0,554.272,136.577Z" transform="translate(-478.502 -19.329)" fill="#727278" opacity="0.51"/>
          <path id="Path_602" data-name="Path 602" d="M580.107,136.5a6.231,6.231,0,1,0-6.231,6.06A6.147,6.147,0,0,0,580.107,136.5Z" transform="translate(-479.472 -19.255)" fill="#727278" opacity="0.51"/>
          <path id="Path_603" data-name="Path 603" d="M681.828,129.743a6.859,6.859,0,0,0-6.683,5.085,6.936,6.936,0,0,0-13.37,0,6.935,6.935,0,0,0-13.37,0,6.936,6.936,0,0,0-13.371,0,6.936,6.936,0,0,0-13.369,0,6.936,6.936,0,0,0-13.371,0,6.936,6.936,0,0,0-13.371,0,6.712,6.712,0,1,0,0,3.248,6.936,6.936,0,0,0,13.371,0,6.936,6.936,0,0,0,13.371,0,6.936,6.936,0,0,0,13.369,0,6.936,6.936,0,0,0,13.371,0,6.935,6.935,0,0,0,13.37,0,6.936,6.936,0,0,0,13.37,0,6.87,6.87,0,1,0,6.683-8.333Z" transform="translate(-480.464 -19.205)" fill="#727278" opacity="0.51"/>
          <path id="Path_604" data-name="Path 604" d="M709.738,136.512a6.12,6.12,0,1,0-6.116,5.952A6.035,6.035,0,0,0,709.738,136.512Z" transform="translate(-488.887 -19.264)" fill="#727278" opacity="0.51"/>
          <path id="Path_605" data-name="Path 605" d="M718.116,131.61a4.98,4.98,0,1,0,5.115,4.978A5.048,5.048,0,0,0,718.116,131.61Z" transform="translate(-490.011 -19.34)" fill="#727278" opacity="0.51"/>
          <path id="Path_606" data-name="Path 606" d="M732.6,132.582a4.077,4.077,0,1,0,4.191,4.076A4.134,4.134,0,0,0,732.6,132.582Z" transform="translate(-491.129 -19.411)" fill="#727278" opacity="0.51"/>
          <path id="Path_607" data-name="Path 607" d="M747.086,133.476a3.248,3.248,0,1,0,3.336,3.247A3.294,3.294,0,0,0,747.086,133.476Z" transform="translate(-492.24 -19.475)" fill="#727278" opacity="0.51"/>
          <path id="Path_608" data-name="Path 608" d="M761.562,139.271a2.489,2.489,0,1,0-2.56-2.488A2.524,2.524,0,0,0,761.562,139.271Z" transform="translate(-493.346 -19.535)" fill="#727278" opacity="0.51"/>
          <path id="Path_609" data-name="Path 609" d="M776.028,138.673a1.841,1.841,0,1,0-1.891-1.84A1.865,1.865,0,0,0,776.028,138.673Z" transform="translate(-494.444 -19.585)" fill="#727278" opacity="0.51"/>
          <path id="Path_610" data-name="Path 610" d="M790.492,138.107a1.227,1.227,0,1,0-1.26-1.226A1.244,1.244,0,0,0,790.492,138.107Z" transform="translate(-495.539 -19.633)" fill="#727278" opacity="0.51"/>
          <path id="Path_611" data-name="Path 611" d="M804.95,137.642a.721.721,0,1,0-.742-.722A.732.732,0,0,0,804.95,137.642Z" transform="translate(-496.624 -19.673)" fill="#727278" opacity="0.51"/>
          <path id="Path_612" data-name="Path 612" d="M819.393,137.31a.361.361,0,1,0-.371-.361A.366.366,0,0,0,819.393,137.31Z" transform="translate(-497.699 -19.701)" fill="#727278" opacity="0.51"/>
          <path id="Path_613" data-name="Path 613" d="M833.827,137.077a.109.109,0,1,0-.109-.109A.11.11,0,0,0,833.827,137.077Z" transform="translate(-498.764 -19.721)" fill="#727278" opacity="0.51"/>
          <path id="Path_614" data-name="Path 614" d="M480.6,150.146a.794.794,0,1,0,.818.793A.8.8,0,0,0,480.6,150.146Z" transform="translate(-473.101 -20.684)" fill="#727278" opacity="0.51"/>
          <path id="Path_615" data-name="Path 615" d="M494.977,149.6a1.3,1.3,0,1,0,1.333,1.3A1.316,1.316,0,0,0,494.977,149.6Z" transform="translate(-474.105 -20.645)" fill="#727278" opacity="0.51"/>
          <path id="Path_616" data-name="Path 616" d="M509.342,148.939a1.913,1.913,0,1,0,1.965,1.913A1.94,1.94,0,0,0,509.342,148.939Z" transform="translate(-475.101 -20.597)" fill="#727278" opacity="0.51"/>
          <path id="Path_617" data-name="Path 617" d="M523.7,148.2a2.6,2.6,0,1,0,2.671,2.6A2.634,2.634,0,0,0,523.7,148.2Z" transform="translate(-476.091 -20.543)" fill="#727278" opacity="0.51"/>
          <path id="Path_618" data-name="Path 618" d="M534.569,150.736a3.486,3.486,0,1,0,3.484-3.39A3.437,3.437,0,0,0,534.569,150.736Z" transform="translate(-477.073 -20.481)" fill="#727278" opacity="0.51"/>
          <path id="Path_619" data-name="Path 619" d="M548.025,150.668a4.376,4.376,0,1,0,4.375-4.256A4.316,4.316,0,0,0,548.025,150.668Z" transform="translate(-478.049 -20.413)" fill="#727278" opacity="0.51"/>
          <path id="Path_620" data-name="Path 620" d="M561.361,150.592a5.378,5.378,0,1,0,5.375-5.23A5.305,5.305,0,0,0,561.361,150.592Z" transform="translate(-479.016 -20.337)" fill="#727278" opacity="0.51"/>
          <path id="Path_621" data-name="Path 621" d="M587.485,150.513a6.417,6.417,0,1,0-6.415,6.24A6.329,6.329,0,0,0,587.485,150.513Z" transform="translate(-479.98 -20.258)" fill="#727278" opacity="0.51"/>
          <path id="Path_622" data-name="Path 622" d="M682.352,148.852a6.936,6.936,0,0,0-13.369,0,6.937,6.937,0,0,0-13.371,0,6.936,6.936,0,0,0-13.37,0,6.937,6.937,0,0,0-13.37,0,6.937,6.937,0,0,0-13.371,0,6.934,6.934,0,0,0-13.369,0,6.712,6.712,0,1,0,0,3.239,6.934,6.934,0,0,0,13.369,0,6.936,6.936,0,0,0,13.371,0,6.936,6.936,0,0,0,13.37,0,6.936,6.936,0,0,0,13.37,0,6.936,6.936,0,0,0,13.371,0,6.936,6.936,0,0,0,13.369,0,6.926,6.926,0,0,0,13.52-.771,6.422,6.422,0,1,0,0-1.707,6.926,6.926,0,0,0-13.52-.771Z" transform="translate(-480.987 -20.222)" fill="#727278" opacity="0.51"/>
          <path id="Path_623" data-name="Path 623" d="M719.767,150.581a5.526,5.526,0,1,0,5.524-5.374A5.449,5.449,0,0,0,719.767,150.581Z" transform="translate(-490.502 -20.326)" fill="#727278" opacity="0.51"/>
          <path id="Path_624" data-name="Path 624" d="M744.308,150.657a4.525,4.525,0,1,0-4.524,4.4A4.462,4.462,0,0,0,744.308,150.657Z" transform="translate(-491.625 -20.402)" fill="#727278" opacity="0.51"/>
          <path id="Path_625" data-name="Path 625" d="M754.27,147.19a3.536,3.536,0,1,0,3.633,3.535A3.583,3.583,0,0,0,754.27,147.19Z" transform="translate(-492.74 -20.47)" fill="#727278" opacity="0.51"/>
          <path id="Path_626" data-name="Path 626" d="M768.752,153.5a2.706,2.706,0,1,0-2.78-2.705A2.743,2.743,0,0,0,768.752,153.5Z" transform="translate(-493.852 -20.535)" fill="#727278" opacity="0.51"/>
          <path id="Path_627" data-name="Path 627" d="M783.221,152.863a2.02,2.02,0,1,0-2.074-2.02A2.048,2.048,0,0,0,783.221,152.863Z" transform="translate(-494.952 -20.588)" fill="#727278" opacity="0.51"/>
          <path id="Path_628" data-name="Path 628" d="M797.69,152.265a1.371,1.371,0,1,0-1.409-1.371A1.391,1.391,0,0,0,797.69,152.265Z" transform="translate(-496.05 -20.639)" fill="#727278" opacity="0.51"/>
          <path id="Path_629" data-name="Path 629" d="M812.145,151.8a.865.865,0,1,0-.891-.865A.876.876,0,0,0,812.145,151.8Z" transform="translate(-497.135 -20.679)" fill="#727278" opacity="0.51"/>
          <path id="Path_630" data-name="Path 630" d="M826.594,151.4a.433.433,0,1,0-.444-.433A.438.438,0,0,0,826.594,151.4Z" transform="translate(-498.215 -20.712)" fill="#727278" opacity="0.51"/>
          <path id="Path_631" data-name="Path 631" d="M841.032,151.134a.144.144,0,1,0-.148-.144A.146.146,0,0,0,841.032,151.134Z" transform="translate(-499.284 -20.735)" fill="#727278" opacity="0.51"/>
          <path id="Path_632" data-name="Path 632" d="M473.4,164.248a.721.721,0,1,0,.741.722A.732.732,0,0,0,473.4,164.248Z" transform="translate(-472.584 -21.707)" fill="#727278" opacity="0.51"/>
          <path id="Path_633" data-name="Path 633" d="M487.774,163.7a1.227,1.227,0,1,0,1.261,1.227A1.243,1.243,0,0,0,487.774,163.7Z" transform="translate(-473.588 -21.667)" fill="#727278" opacity="0.51"/>
          <path id="Path_634" data-name="Path 634" d="M502.144,163.082a1.8,1.8,0,1,0,1.853,1.8A1.829,1.829,0,0,0,502.144,163.082Z" transform="translate(-474.587 -21.622)" fill="#727278" opacity="0.51"/>
          <path id="Path_635" data-name="Path 635" d="M516.5,162.343a2.489,2.489,0,1,0,2.559,2.488A2.521,2.521,0,0,0,516.5,162.343Z" transform="translate(-475.578 -21.569)" fill="#727278" opacity="0.51"/>
          <path id="Path_636" data-name="Path 636" d="M530.853,161.486a3.284,3.284,0,1,0,3.374,3.283A3.329,3.329,0,0,0,530.853,161.486Z" transform="translate(-476.559 -21.506)" fill="#727278" opacity="0.51"/>
          <path id="Path_637" data-name="Path 637" d="M545.2,168.817a4.114,4.114,0,1,0-4.227-4.112A4.17,4.17,0,0,0,545.2,168.817Z" transform="translate(-477.538 -21.442)" fill="#727278" opacity="0.51"/>
          <path id="Path_638" data-name="Path 638" d="M564.732,164.631a5.193,5.193,0,1,0-5.189,5.049A5.121,5.121,0,0,0,564.732,164.631Z" transform="translate(-478.507 -21.368)" fill="#727278" opacity="0.51"/>
          <path id="Path_639" data-name="Path 639" d="M573.876,170.612a6.062,6.062,0,1,0-6.227-6.06A6.147,6.147,0,0,0,573.876,170.612Z" transform="translate(-479.472 -21.289)" fill="#727278" opacity="0.51"/>
          <path id="Path_640" data-name="Path 640" d="M701.91,164.5a6.726,6.726,0,0,0-13.3-1.206,6.932,6.932,0,0,0-13.464-.419,6.935,6.935,0,0,0-13.37.006,6.934,6.934,0,0,0-13.37,0,6.936,6.936,0,0,0-13.371,0,6.936,6.936,0,0,0-13.369,0,6.936,6.936,0,0,0-13.371.006,6.936,6.936,0,0,0-13.371,0,6.712,6.712,0,1,0,0,3.248,6.936,6.936,0,0,0,13.371,0,6.936,6.936,0,0,0,13.371,0,6.936,6.936,0,0,0,13.369,0,6.936,6.936,0,0,0,13.371-.006,6.934,6.934,0,0,0,13.37,0,6.935,6.935,0,0,0,13.37.006,6.932,6.932,0,0,0,13.464-.419,6.726,6.726,0,0,0,13.3-1.2Z" transform="translate(-480.464 -21.238)" fill="#727278" opacity="0.51"/>
          <path id="Path_641" data-name="Path 641" d="M723.711,164.6a5.638,5.638,0,1,0-5.635,5.483A5.561,5.561,0,0,0,723.711,164.6Z" transform="translate(-489.97 -21.334)" fill="#727278" opacity="0.51"/>
          <path id="Path_642" data-name="Path 642" d="M732.568,160.164a4.511,4.511,0,1,0,4.636,4.509A4.572,4.572,0,0,0,732.568,160.164Z" transform="translate(-491.094 -21.411)" fill="#727278" opacity="0.51"/>
          <path id="Path_643" data-name="Path 643" d="M750.764,164.744a3.709,3.709,0,1,0-3.707,3.607A3.66,3.66,0,0,0,750.764,164.744Z" transform="translate(-492.211 -21.481)" fill="#727278" opacity="0.51"/>
          <ellipse id="Ellipse_12" data-name="Ellipse 12" cx="2.892" cy="2.813" rx="2.892" ry="2.813" transform="translate(265.323 140.449)" fill="#727278" opacity="0.51"/>
          <path id="Path_644" data-name="Path 644" d="M776.008,162.77a2.093,2.093,0,1,0,2.15,2.092A2.123,2.123,0,0,0,776.008,162.77Z" transform="translate(-494.424 -21.6)" fill="#727278" opacity="0.51"/>
          <path id="Path_645" data-name="Path 645" d="M790.475,163.471a1.443,1.443,0,1,0,1.485,1.442A1.464,1.464,0,0,0,790.475,163.471Z" transform="translate(-495.521 -21.65)" fill="#727278" opacity="0.51"/>
          <path id="Path_646" data-name="Path 646" d="M804.932,164.015a.938.938,0,1,0,.962.938A.952.952,0,0,0,804.932,164.015Z" transform="translate(-496.607 -21.69)" fill="#727278" opacity="0.51"/>
          <path id="Path_647" data-name="Path 647" d="M819.381,164.481a.505.505,0,1,0,.52.505A.511.511,0,0,0,819.381,164.481Z" transform="translate(-497.687 -21.724)" fill="#727278" opacity="0.51"/>
          <path id="Path_648" data-name="Path 648" d="M833.822,164.831a.18.18,0,1,0,.185.181A.183.183,0,0,0,833.822,164.831Z" transform="translate(-498.758 -21.749)" fill="#727278" opacity="0.51"/>
          <path id="Path_649" data-name="Path 649" d="M480.615,178.389a.613.613,0,1,0,.633.614A.622.622,0,0,0,480.615,178.389Z" transform="translate(-473.115 -22.732)" fill="#727278" opacity="0.51"/>
          <path id="Path_650" data-name="Path 650" d="M495,177.923a1.046,1.046,0,1,0,1.074,1.046A1.061,1.061,0,0,0,495,177.923Z" transform="translate(-474.126 -22.698)" fill="#727278" opacity="0.51"/>
          <path id="Path_651" data-name="Path 651" d="M509.365,177.3a1.624,1.624,0,1,0,1.668,1.624A1.647,1.647,0,0,0,509.365,177.3Z" transform="translate(-475.124 -22.653)" fill="#727278" opacity="0.51"/>
          <path id="Path_652" data-name="Path 652" d="M523.73,176.639a2.238,2.238,0,1,0,2.3,2.237A2.268,2.268,0,0,0,523.73,176.639Z" transform="translate(-476.12 -22.605)" fill="#727278" opacity="0.51"/>
          <path id="Path_653" data-name="Path 653" d="M538.087,175.862a2.959,2.959,0,1,0,3.041,2.958A3,3,0,0,0,538.087,175.862Z" transform="translate(-477.108 -22.549)" fill="#727278" opacity="0.51"/>
          <path id="Path_654" data-name="Path 654" d="M552.44,182.507a3.753,3.753,0,1,0-3.857-3.75A3.8,3.8,0,0,0,552.44,182.507Z" transform="translate(-478.089 -22.487)" fill="#727278" opacity="0.51"/>
          <path id="Path_655" data-name="Path 655" d="M566.785,183.306a4.619,4.619,0,1,0-4.745-4.616A4.681,4.681,0,0,0,566.785,183.306Z" transform="translate(-479.065 -22.419)" fill="#727278" opacity="0.51"/>
          <ellipse id="Ellipse_13" data-name="Ellipse 13" cx="5.71" cy="5.555" rx="5.71" ry="5.555" transform="translate(95.38 150.716)" fill="#727278" opacity="0.51"/>
          <path id="Path_656" data-name="Path 656" d="M689.052,171.816a6.861,6.861,0,0,0-6.686,5.085,6.936,6.936,0,0,0-13.369,0,6.936,6.936,0,0,0-13.371.006,6.935,6.935,0,0,0-13.37-.006,6.936,6.936,0,0,0-13.37,0,6.936,6.936,0,0,0-13.371.006,6.929,6.929,0,0,0-13.463.414,6.53,6.53,0,1,0,0,2.411,6.93,6.93,0,0,0,13.463.414,6.936,6.936,0,0,0,13.371.006,6.937,6.937,0,0,0,13.37,0,6.936,6.936,0,0,0,13.37-.006A6.936,6.936,0,0,0,669,180.15a6.936,6.936,0,0,0,13.369,0,6.87,6.87,0,1,0,6.686-8.334Z" transform="translate(-481.002 -22.255)" fill="#727278" opacity="0.51"/>
          <path id="Path_657" data-name="Path 657" d="M710.809,184.769a6.206,6.206,0,1,0-6.377-6.2A6.293,6.293,0,0,0,710.809,184.769Z" transform="translate(-489.39 -22.295)" fill="#727278" opacity="0.51"/>
          <path id="Path_658" data-name="Path 658" d="M730.748,178.636a5.451,5.451,0,1,0-5.451,5.3A5.379,5.379,0,0,0,730.748,178.636Z" transform="translate(-490.508 -22.365)" fill="#727278" opacity="0.51"/>
          <path id="Path_659" data-name="Path 659" d="M744.275,178.71a4.489,4.489,0,1,0-4.489,4.364A4.427,4.427,0,0,0,744.275,178.71Z" transform="translate(-491.628 -22.439)" fill="#727278" opacity="0.51"/>
          <path id="Path_660" data-name="Path 660" d="M754.27,175.239a3.536,3.536,0,1,0,3.633,3.536A3.584,3.584,0,0,0,754.27,175.239Z" transform="translate(-492.74 -22.504)" fill="#727278" opacity="0.51"/>
          <path id="Path_661" data-name="Path 661" d="M768.749,176.095a2.742,2.742,0,1,0,2.818,2.742A2.781,2.781,0,0,0,768.749,176.095Z" transform="translate(-493.849 -22.566)" fill="#727278" opacity="0.51"/>
          <path id="Path_662" data-name="Path 662" d="M783.218,176.833a2.057,2.057,0,1,0,2.116,2.057A2.086,2.086,0,0,0,783.218,176.833Z" transform="translate(-494.949 -22.619)" fill="#727278" opacity="0.51"/>
          <path id="Path_663" data-name="Path 663" d="M797.684,177.494a1.444,1.444,0,1,0,1.483,1.444A1.464,1.464,0,0,0,797.684,177.494Z" transform="translate(-496.044 -22.667)" fill="#727278" opacity="0.51"/>
          <path id="Path_664" data-name="Path 664" d="M812.143,178.077a.9.9,0,1,0,.927.9A.914.914,0,0,0,812.143,178.077Z" transform="translate(-497.133 -22.709)" fill="#727278" opacity="0.51"/>
          <path id="Path_665" data-name="Path 665" d="M826.591,178.545a.469.469,0,1,0,.482.469A.476.476,0,0,0,826.591,178.545Z" transform="translate(-498.212 -22.743)" fill="#727278" opacity="0.51"/>
          <path id="Path_666" data-name="Path 666" d="M841.03,178.856a.18.18,0,1,0,0,.361.181.181,0,1,0,0-.361Z" transform="translate(-499.281 -22.766)" fill="#727278" opacity="0.51"/>
          <path id="Path_667" data-name="Path 667" d="M473.422,192.608a.433.433,0,1,0,.447.432A.439.439,0,0,0,473.422,192.608Z" transform="translate(-472.607 -23.763)" fill="#727278" opacity="0.51"/>
          <path id="Path_668" data-name="Path 668" d="M487.805,192.18a.83.83,0,1,0,.852.829A.84.84,0,0,0,487.805,192.18Z" transform="translate(-473.62 -23.732)" fill="#727278" opacity="0.51"/>
          <path id="Path_669" data-name="Path 669" d="M502.182,191.636a1.335,1.335,0,1,0,1.371,1.334A1.353,1.353,0,0,0,502.182,191.636Z" transform="translate(-474.625 -23.693)" fill="#727278" opacity="0.51"/>
          <path id="Path_670" data-name="Path 670" d="M516.549,191.013a1.913,1.913,0,1,0,1.965,1.912A1.94,1.94,0,0,0,516.549,191.013Z" transform="translate(-475.624 -23.647)" fill="#727278" opacity="0.51"/>
          <ellipse id="Ellipse_14" data-name="Ellipse 14" cx="2.633" cy="2.561" rx="2.633" ry="2.561" transform="translate(51.662 166.716)" fill="#727278" opacity="0.51"/>
          <path id="Path_671" data-name="Path 671" d="M545.27,189.535a3.284,3.284,0,1,0,3.374,3.282A3.329,3.329,0,0,0,545.27,189.535Z" transform="translate(-477.604 -23.54)" fill="#727278" opacity="0.51"/>
          <path id="Path_672" data-name="Path 672" d="M559.624,188.719a4.042,4.042,0,1,0,4.153,4.039A4.1,4.1,0,0,0,559.624,188.719Z" transform="translate(-478.589 -23.481)" fill="#727278" opacity="0.51"/>
          <ellipse id="Ellipse_15" data-name="Ellipse 15" cx="4.968" cy="4.834" rx="4.968" ry="4.834" transform="translate(89.437 164.444)" fill="#727278" opacity="0.51"/>
          <path id="Path_673" data-name="Path 673" d="M588.326,198.262a5.629,5.629,0,1,0-5.784-5.628A5.709,5.709,0,0,0,588.326,198.262Z" transform="translate(-480.551 -23.357)" fill="#727278" opacity="0.51"/>
          <path id="Path_674" data-name="Path 674" d="M689.463,192.55a6.572,6.572,0,0,0-13.077-.731,6.926,6.926,0,0,0-13.54-.888,6.935,6.935,0,0,0-13.37,0,6.936,6.936,0,0,0-13.371-.006,6.936,6.936,0,0,0-13.369,0,6.927,6.927,0,0,0-13.539.894,6.387,6.387,0,1,0,0,1.461,6.927,6.927,0,0,0,13.539.894,6.936,6.936,0,0,0,13.369,0,6.936,6.936,0,0,0,13.371,0,6.935,6.935,0,0,0,13.37,0,6.926,6.926,0,0,0,13.54-.888,6.572,6.572,0,0,0,13.077-.732Z" transform="translate(-481.536 -23.272)" fill="#727278" opacity="0.51"/>
          <path id="Path_675" data-name="Path 675" d="M709.4,192.637a5.749,5.749,0,1,0-5.746,5.591A5.669,5.669,0,0,0,709.4,192.637Z" transform="translate(-488.916 -23.36)" fill="#727278" opacity="0.51"/>
          <path id="Path_676" data-name="Path 676" d="M723.063,192.7a4.933,4.933,0,1,0-4.932,4.8A4.866,4.866,0,0,0,723.063,192.7Z" transform="translate(-490.025 -23.422)" fill="#727278" opacity="0.51"/>
          <ellipse id="Ellipse_16" data-name="Ellipse 16" cx="4.115" cy="4.004" rx="4.115" ry="4.004" transform="translate(237.359 165.274)" fill="#727278" opacity="0.51"/>
          <path id="Path_677" data-name="Path 677" d="M747.086,189.575a3.247,3.247,0,1,0,3.336,3.245A3.293,3.293,0,0,0,747.086,189.575Z" transform="translate(-492.24 -23.543)" fill="#727278" opacity="0.51"/>
          <path id="Path_678" data-name="Path 678" d="M761.559,190.353a2.526,2.526,0,1,0,2.594,2.524A2.559,2.559,0,0,0,761.559,190.353Z" transform="translate(-493.344 -23.6)" fill="#727278" opacity="0.51"/>
          <path id="Path_679" data-name="Path 679" d="M776.025,191.052a1.877,1.877,0,1,0,1.929,1.875A1.9,1.9,0,0,0,776.025,191.052Z" transform="translate(-494.441 -23.65)" fill="#727278" opacity="0.51"/>
          <path id="Path_680" data-name="Path 680" d="M790.484,191.636a1.335,1.335,0,1,0,1.373,1.334A1.353,1.353,0,0,0,790.484,191.636Z" transform="translate(-495.53 -23.693)" fill="#727278" opacity="0.51"/>
          <path id="Path_681" data-name="Path 681" d="M804.941,192.18a.83.83,0,1,0,.852.829A.84.84,0,0,0,804.941,192.18Z" transform="translate(-496.616 -23.732)" fill="#727278" opacity="0.51"/>
          <path id="Path_682" data-name="Path 682" d="M819.387,192.608a.433.433,0,1,0,.444.432A.438.438,0,0,0,819.387,192.608Z" transform="translate(-497.693 -23.763)" fill="#727278" opacity="0.51"/>
          <path id="Path_683" data-name="Path 683" d="M833.825,192.919a.144.144,0,1,0,.15.144A.146.146,0,0,0,833.825,192.919Z" transform="translate(-498.761 -23.786)" fill="#727278" opacity="0.51"/>
          <path id="Path_684" data-name="Path 684" d="M480.644,206.826a.253.253,0,1,0,.262.253A.257.257,0,0,0,480.644,206.826Z" transform="translate(-473.144 -24.794)" fill="#727278" opacity="0.51"/>
          <path id="Path_685" data-name="Path 685" d="M495.035,206.476a.578.578,0,1,0,.592.578A.586.586,0,0,0,495.035,206.476Z" transform="translate(-474.163 -24.769)" fill="#727278" opacity="0.51"/>
          <path id="Path_686" data-name="Path 686" d="M509.415,206.01a1.01,1.01,0,1,0,1.038,1.01A1.024,1.024,0,0,0,509.415,206.01Z" transform="translate(-475.174 -24.735)" fill="#727278" opacity="0.51"/>
          <path id="Path_687" data-name="Path 687" d="M523.788,205.466a1.516,1.516,0,1,0,1.559,1.515A1.536,1.536,0,0,0,523.788,205.466Z" transform="translate(-476.178 -24.695)" fill="#727278" opacity="0.51"/>
          <path id="Path_688" data-name="Path 688" d="M538.16,204.882a2.057,2.057,0,1,0,2.115,2.056A2.085,2.085,0,0,0,538.16,204.882Z" transform="translate(-477.18 -24.653)" fill="#727278" opacity="0.51"/>
          <path id="Path_689" data-name="Path 689" d="M552.527,204.22a2.671,2.671,0,1,0,2.745,2.67A2.708,2.708,0,0,0,552.527,204.22Z" transform="translate(-478.176 -24.605)" fill="#727278" opacity="0.51"/>
          <path id="Path_690" data-name="Path 690" d="M566.889,203.521a3.32,3.32,0,1,0,3.412,3.319A3.365,3.365,0,0,0,566.889,203.521Z" transform="translate(-479.169 -24.554)" fill="#727278" opacity="0.51"/>
          <path id="Path_691" data-name="Path 691" d="M585.365,206.786a4.117,4.117,0,1,0-4.115,4A4.06,4.06,0,0,0,585.365,206.786Z" transform="translate(-480.159 -24.501)" fill="#727278" opacity="0.51"/>
          <path id="Path_692" data-name="Path 692" d="M595.614,211.388a4.655,4.655,0,1,0-4.783-4.653A4.721,4.721,0,0,0,595.614,211.388Z" transform="translate(-481.152 -24.45)" fill="#727278" opacity="0.51"/>
          <path id="Path_693" data-name="Path 693" d="M604.566,206.687a5.415,5.415,0,1,0,5.413-5.267A5.34,5.34,0,0,0,604.566,206.687Z" transform="translate(-482.148 -24.402)" fill="#727278" opacity="0.51"/>
          <path id="Path_694" data-name="Path 694" d="M630.286,206.648a5.934,5.934,0,1,0-5.933,5.771A5.853,5.853,0,0,0,630.286,206.648Z" transform="translate(-483.153 -24.363)" fill="#727278" opacity="0.51"/>
          <path id="Path_695" data-name="Path 695" d="M645.009,206.622a6.269,6.269,0,1,0-6.268,6.1A6.182,6.182,0,0,0,645.009,206.622Z" transform="translate(-484.172 -24.337)" fill="#727278" opacity="0.51"/>
          <path id="Path_696" data-name="Path 696" d="M659.559,206.611a6.416,6.416,0,1,0-6.413,6.241A6.328,6.328,0,0,0,659.559,206.611Z" transform="translate(-485.206 -24.326)" fill="#727278" opacity="0.51"/>
          <path id="Path_697" data-name="Path 697" d="M673.907,206.617a6.342,6.342,0,1,0-6.34,6.168A6.257,6.257,0,0,0,673.907,206.617Z" transform="translate(-486.257 -24.332)" fill="#727278" opacity="0.51"/>
          <path id="Path_698" data-name="Path 698" d="M688.014,206.642a6.008,6.008,0,1,0-6.006,5.843A5.927,5.927,0,0,0,688.014,206.642Z" transform="translate(-487.328 -24.357)" fill="#727278" opacity="0.51"/>
          <ellipse id="Ellipse_17" data-name="Ellipse 17" cx="5.524" cy="5.375" rx="5.524" ry="5.375" transform="translate(202.526 176.911)" fill="#727278" opacity="0.51"/>
          <path id="Path_699" data-name="Path 699" d="M710.923,211.521a4.8,4.8,0,1,0-4.93-4.8A4.864,4.864,0,0,0,710.923,211.521Z" transform="translate(-489.503 -24.439)" fill="#727278" opacity="0.51"/>
          <path id="Path_700" data-name="Path 700" d="M725.39,202.627a4.15,4.15,0,1,0,4.265,4.148A4.207,4.207,0,0,0,725.39,202.627Z" transform="translate(-490.6 -24.49)" fill="#727278" opacity="0.51"/>
          <path id="Path_701" data-name="Path 701" d="M739.856,203.327a3.5,3.5,0,1,0,3.6,3.5A3.548,3.548,0,0,0,739.856,203.327Z" transform="translate(-491.698 -24.54)" fill="#727278" opacity="0.51"/>
          <path id="Path_702" data-name="Path 702" d="M754.325,204.026a2.851,2.851,0,1,0,2.928,2.85A2.892,2.892,0,0,0,754.325,204.026Z" transform="translate(-492.795 -24.591)" fill="#727278" opacity="0.51"/>
          <path id="Path_703" data-name="Path 703" d="M768.789,204.688a2.237,2.237,0,1,0,2.3,2.236A2.267,2.267,0,0,0,768.789,204.688Z" transform="translate(-493.89 -24.639)" fill="#727278" opacity="0.51"/>
          <path id="Path_704" data-name="Path 704" d="M783.253,205.348a1.624,1.624,0,1,0,1.67,1.624A1.647,1.647,0,0,0,783.253,205.348Z" transform="translate(-494.984 -24.687)" fill="#727278" opacity="0.51"/>
          <path id="Path_705" data-name="Path 705" d="M797.71,205.893a1.118,1.118,0,1,0,1.148,1.119A1.134,1.134,0,0,0,797.71,205.893Z" transform="translate(-496.07 -24.726)" fill="#727278" opacity="0.51"/>
          <path id="Path_706" data-name="Path 706" d="M812.16,206.36a.686.686,0,1,0,.7.685A.7.7,0,0,0,812.16,206.36Z" transform="translate(-497.15 -24.76)" fill="#727278" opacity="0.51"/>
          <path id="Path_707" data-name="Path 707" d="M826.6,206.749a.325.325,0,1,0,.336.325A.329.329,0,0,0,826.6,206.749Z" transform="translate(-498.224 -24.788)" fill="#727278" opacity="0.51"/>
          <path id="Path_708" data-name="Path 708" d="M841.035,206.982a.108.108,0,1,0,.111.109A.108.108,0,0,0,841.035,206.982Z" transform="translate(-499.287 -24.805)" fill="#727278" opacity="0.51"/>
          <path id="Path_709" data-name="Path 709" d="M473.448,221.007a.108.108,0,1,0,.112.108A.11.11,0,0,0,473.448,221.007Z" transform="translate(-472.633 -25.822)" fill="#727278" opacity="0.51"/>
          <path id="Path_710" data-name="Path 710" d="M487.843,220.734a.361.361,0,1,0,.37.361A.366.366,0,0,0,487.843,220.734Z" transform="translate(-473.658 -25.802)" fill="#727278" opacity="0.51"/>
          <path id="Path_711" data-name="Path 711" d="M502.234,220.384a.686.686,0,1,0,.7.685A.7.7,0,0,0,502.234,220.384Z" transform="translate(-474.677 -25.777)" fill="#727278" opacity="0.51"/>
          <path id="Path_712" data-name="Path 712" d="M516.616,219.956a1.083,1.083,0,1,0,1.112,1.082A1.1,1.1,0,0,0,516.616,219.956Z" transform="translate(-475.69 -25.746)" fill="#727278" opacity="0.51"/>
          <path id="Path_713" data-name="Path 713" d="M530.992,219.451a1.551,1.551,0,1,0,1.6,1.551A1.573,1.573,0,0,0,530.992,219.451Z" transform="translate(-476.698 -25.709)" fill="#727278" opacity="0.51"/>
          <path id="Path_714" data-name="Path 714" d="M545.369,218.907a2.057,2.057,0,1,0,2.113,2.055A2.085,2.085,0,0,0,545.369,218.907Z" transform="translate(-477.703 -25.67)" fill="#727278" opacity="0.51"/>
          <path id="Path_715" data-name="Path 715" d="M559.74,218.323a2.6,2.6,0,1,0,2.668,2.6A2.635,2.635,0,0,0,559.74,218.323Z" transform="translate(-478.704 -25.628)" fill="#727278" opacity="0.51"/>
          <path id="Path_716" data-name="Path 716" d="M574.111,217.739a3.139,3.139,0,1,0,3.227,3.139A3.182,3.182,0,0,0,574.111,217.739Z" transform="translate(-479.706 -25.585)" fill="#727278" opacity="0.51"/>
          <path id="Path_717" data-name="Path 717" d="M588.482,217.156a3.681,3.681,0,1,0,3.782,3.679A3.731,3.731,0,0,0,588.482,217.156Z" transform="translate(-480.708 -25.543)" fill="#727278" opacity="0.51"/>
          <path id="Path_718" data-name="Path 718" d="M602.862,216.65a4.15,4.15,0,1,0,4.263,4.149A4.209,4.209,0,0,0,602.862,216.65Z" transform="translate(-481.716 -25.506)" fill="#727278" opacity="0.51"/>
          <path id="Path_719" data-name="Path 719" d="M621.916,220.768a4.673,4.673,0,1,0-4.672,4.546A4.608,4.608,0,0,0,621.916,220.768Z" transform="translate(-482.729 -25.475)" fill="#727278" opacity="0.51"/>
          <path id="Path_720" data-name="Path 720" d="M631.638,225.546a4.8,4.8,0,1,0-4.93-4.8A4.867,4.867,0,0,0,631.638,225.546Z" transform="translate(-483.754 -25.456)" fill="#727278" opacity="0.51"/>
          <path id="Path_721" data-name="Path 721" d="M646.044,225.679a4.944,4.944,0,1,0-5.08-4.943A5.012,5.012,0,0,0,646.044,225.679Z" transform="translate(-484.788 -25.444)" fill="#727278" opacity="0.51"/>
          <path id="Path_722" data-name="Path 722" d="M660.461,225.646a4.908,4.908,0,1,0-5.042-4.906A4.976,4.976,0,0,0,660.461,225.646Z" transform="translate(-485.836 -25.447)" fill="#727278" opacity="0.51"/>
          <path id="Path_723" data-name="Path 723" d="M674.893,225.446a4.691,4.691,0,1,0-4.819-4.689A4.757,4.757,0,0,0,674.893,225.446Z" transform="translate(-486.898 -25.464)" fill="#727278" opacity="0.51"/>
          <path id="Path_724" data-name="Path 724" d="M689.333,216.417a4.367,4.367,0,1,0,4.488,4.365A4.427,4.427,0,0,0,689.333,216.417Z" transform="translate(-487.969 -25.489)" fill="#727278" opacity="0.51"/>
          <path id="Path_725" data-name="Path 725" d="M703.785,216.885a3.933,3.933,0,1,0,4.042,3.931A3.988,3.988,0,0,0,703.785,216.885Z" transform="translate(-489.05 -25.523)" fill="#727278" opacity="0.51"/>
          <path id="Path_726" data-name="Path 726" d="M718.241,217.429a3.428,3.428,0,1,0,3.521,3.426A3.475,3.475,0,0,0,718.241,217.429Z" transform="translate(-490.136 -25.563)" fill="#727278" opacity="0.51"/>
          <path id="Path_727" data-name="Path 727" d="M732.7,218.012a2.887,2.887,0,1,0,2.968,2.885A2.927,2.927,0,0,0,732.7,218.012Z" transform="translate(-491.224 -25.605)" fill="#727278" opacity="0.51"/>
          <path id="Path_728" data-name="Path 728" d="M747.158,218.6a2.345,2.345,0,1,0,2.41,2.344A2.377,2.377,0,0,0,747.158,218.6Z" transform="translate(-492.313 -25.647)" fill="#727278" opacity="0.51"/>
          <path id="Path_729" data-name="Path 729" d="M761.617,219.179a1.8,1.8,0,1,0,1.853,1.8A1.83,1.83,0,0,0,761.617,219.179Z" transform="translate(-493.402 -25.69)" fill="#727278" opacity="0.51"/>
          <path id="Path_730" data-name="Path 730" d="M776.069,219.685a1.335,1.335,0,1,0,1.374,1.334A1.353,1.353,0,0,0,776.069,219.685Z" transform="translate(-494.485 -25.726)" fill="#727278" opacity="0.51"/>
          <path id="Path_731" data-name="Path 731" d="M790.521,220.19a.866.866,0,1,0,.89.865A.877.877,0,0,0,790.521,220.19Z" transform="translate(-495.568 -25.763)" fill="#727278" opacity="0.51"/>
          <path id="Path_732" data-name="Path 732" d="M804.967,220.578a.506.506,0,1,0,.517.505A.514.514,0,0,0,804.967,220.578Z" transform="translate(-496.642 -25.791)" fill="#727278" opacity="0.51"/>
          <path id="Path_733" data-name="Path 733" d="M819.4,220.89a.217.217,0,1,0,.224.216A.222.222,0,0,0,819.4,220.89Z" transform="translate(-497.71 -25.814)" fill="#727278" opacity="0.51"/>
          <path id="Path_734" data-name="Path 734" d="M833.8,221.12a.037.037,0,0,0,.035.037.039.039,0,0,0,.038-.037.037.037,0,0,0-.038-.036A.035.035,0,0,0,833.8,221.12Z" transform="translate(-498.77 -25.828)" fill="#727278" opacity="0.51"/>
          <path id="Path_735" data-name="Path 735" d="M495.069,234.992a.145.145,0,1,0,.147.145A.146.146,0,0,0,495.069,234.992Z" transform="translate(-474.198 -26.836)" fill="#727278" opacity="0.51"/>
          <path id="Path_736" data-name="Path 736" d="M509.467,234.759a.361.361,0,1,0,.371.361A.365.365,0,0,0,509.467,234.759Z" transform="translate(-475.226 -26.819)" fill="#727278" opacity="0.51"/>
          <path id="Path_737" data-name="Path 737" d="M523.855,234.409a.686.686,0,1,0,.706.685A.694.694,0,0,0,523.855,234.409Z" transform="translate(-476.245 -26.794)" fill="#727278" opacity="0.51"/>
          <path id="Path_738" data-name="Path 738" d="M538.241,234.02a1.047,1.047,0,1,0,1.076,1.046A1.061,1.061,0,0,0,538.241,234.02Z" transform="translate(-477.261 -26.766)" fill="#727278" opacity="0.51"/>
          <path id="Path_739" data-name="Path 739" d="M552.623,233.553a1.479,1.479,0,1,0,1.52,1.479A1.5,1.5,0,0,0,552.623,233.553Z" transform="translate(-478.272 -26.732)" fill="#727278" opacity="0.51"/>
          <path id="Path_740" data-name="Path 740" d="M567,233.087A1.912,1.912,0,1,0,568.968,235,1.939,1.939,0,0,0,567,233.087Z" transform="translate(-479.282 -26.698)" fill="#727278" opacity="0.51"/>
          <path id="Path_741" data-name="Path 741" d="M581.383,232.619a2.346,2.346,0,1,0,2.411,2.346A2.378,2.378,0,0,0,581.383,232.619Z" transform="translate(-480.293 -26.664)" fill="#727278" opacity="0.51"/>
          <path id="Path_742" data-name="Path 742" d="M595.768,232.192a2.743,2.743,0,1,0,2.818,2.742A2.778,2.778,0,0,0,595.768,232.192Z" transform="translate(-481.306 -26.633)" fill="#727278" opacity="0.51"/>
          <path id="Path_743" data-name="Path 743" d="M610.153,231.8a3.1,3.1,0,1,0,3.189,3.1A3.147,3.147,0,0,0,610.153,231.8Z" transform="translate(-482.322 -26.605)" fill="#727278" opacity="0.51"/>
          <path id="Path_744" data-name="Path 744" d="M624.542,231.453a3.428,3.428,0,1,0,3.524,3.427A3.476,3.476,0,0,0,624.542,231.453Z" transform="translate(-483.341 -26.58)" fill="#727278" opacity="0.51"/>
          <path id="Path_745" data-name="Path 745" d="M638.938,231.22a3.645,3.645,0,1,0,3.747,3.643A3.694,3.694,0,0,0,638.938,231.22Z" transform="translate(-484.369 -26.563)" fill="#727278" opacity="0.51"/>
          <ellipse id="Ellipse_18" data-name="Ellipse 18" cx="3.856" cy="3.752" rx="3.856" ry="3.752" transform="translate(164.084 204.548)" fill="#727278" opacity="0.51"/>
          <ellipse id="Ellipse_19" data-name="Ellipse 19" cx="3.856" cy="3.752" rx="3.856" ry="3.752" transform="translate(177.454 204.548)" fill="#727278" opacity="0.51"/>
          <path id="Path_746" data-name="Path 746" d="M682.187,231.259a3.608,3.608,0,1,0,3.709,3.607A3.658,3.658,0,0,0,682.187,231.259Z" transform="translate(-487.508 -26.566)" fill="#727278" opacity="0.51"/>
          <path id="Path_747" data-name="Path 747" d="M696.624,231.531a3.356,3.356,0,1,0,3.448,3.355A3.4,3.4,0,0,0,696.624,231.531Z" transform="translate(-488.573 -26.585)" fill="#727278" opacity="0.51"/>
          <path id="Path_748" data-name="Path 748" d="M711.064,231.88a3.031,3.031,0,1,0,3.115,3.031A3.074,3.074,0,0,0,711.064,231.88Z" transform="translate(-489.645 -26.611)" fill="#727278" opacity="0.51"/>
          <path id="Path_749" data-name="Path 749" d="M725.509,232.27a2.67,2.67,0,1,0,2.745,2.669A2.7,2.7,0,0,0,725.509,232.27Z" transform="translate(-490.719 -26.639)" fill="#727278" opacity="0.51"/>
          <path id="Path_750" data-name="Path 750" d="M739.957,232.736a2.238,2.238,0,1,0,2.3,2.237A2.268,2.268,0,0,0,739.957,232.736Z" transform="translate(-491.799 -26.673)" fill="#727278" opacity="0.51"/>
          <path id="Path_751" data-name="Path 751" d="M754.409,233.2a1.8,1.8,0,1,0,1.854,1.8A1.829,1.829,0,0,0,754.409,233.2Z" transform="translate(-492.879 -26.707)" fill="#727278" opacity="0.51"/>
          <path id="Path_752" data-name="Path 752" d="M768.859,233.67a1.371,1.371,0,1,0,1.409,1.371A1.389,1.389,0,0,0,768.859,233.67Z" transform="translate(-493.959 -26.74)" fill="#727278" opacity="0.51"/>
          <path id="Path_753" data-name="Path 753" d="M783.3,234.1a.975.975,0,1,0,1,.975A.988.988,0,0,0,783.3,234.1Z" transform="translate(-495.036 -26.771)" fill="#727278" opacity="0.51"/>
          <path id="Path_754" data-name="Path 754" d="M797.751,234.486a.613.613,0,1,0,.63.614A.623.623,0,0,0,797.751,234.486Z" transform="translate(-496.11 -26.8)" fill="#727278" opacity="0.51"/>
          <path id="Path_755" data-name="Path 755" d="M812.189,234.8a.325.325,0,1,0,.332.325A.33.33,0,0,0,812.189,234.8Z" transform="translate(-497.179 -26.822)" fill="#727278" opacity="0.51"/>
          <path id="Path_756" data-name="Path 756" d="M826.62,235.031a.109.109,0,1,0,.112.108A.111.111,0,0,0,826.62,235.031Z" transform="translate(-498.241 -26.839)" fill="#727278" opacity="0.51"/>
          <path id="Path_757" data-name="Path 757" d="M502.277,249.017a.144.144,0,1,0,.147.143A.146.146,0,0,0,502.277,249.017Z" transform="translate(-474.721 -27.853)" fill="#727278" opacity="0.51"/>
          <path id="Path_758" data-name="Path 758" d="M516.674,248.783a.361.361,0,1,0,.371.36A.365.365,0,0,0,516.674,248.783Z" transform="translate(-475.749 -27.836)" fill="#727278" opacity="0.51"/>
          <path id="Path_759" data-name="Path 759" d="M531.068,248.511a.613.613,0,1,0,.633.612A.621.621,0,0,0,531.068,248.511Z" transform="translate(-476.773 -27.817)" fill="#727278" opacity="0.51"/>
          <path id="Path_760" data-name="Path 760" d="M545.461,248.2a.9.9,0,1,0,.927.9A.915.915,0,0,0,545.461,248.2Z" transform="translate(-477.795 -27.794)" fill="#727278" opacity="0.51"/>
          <path id="Path_761" data-name="Path 761" d="M559.847,247.811a1.263,1.263,0,1,0,1.3,1.261A1.28,1.28,0,0,0,559.847,247.811Z" transform="translate(-478.812 -27.766)" fill="#727278" opacity="0.51"/>
          <path id="Path_762" data-name="Path 762" d="M574.236,247.461a1.588,1.588,0,1,0,1.632,1.586A1.608,1.608,0,0,0,574.236,247.461Z" transform="translate(-479.831 -27.74)" fill="#727278" opacity="0.51"/>
          <path id="Path_763" data-name="Path 763" d="M588.624,247.11a1.913,1.913,0,1,0,1.964,1.912A1.941,1.941,0,0,0,588.624,247.11Z" transform="translate(-480.85 -27.715)" fill="#727278" opacity="0.51"/>
          <path id="Path_764" data-name="Path 764" d="M603.018,246.8a2.2,2.2,0,1,0,2.262,2.2A2.232,2.232,0,0,0,603.018,246.8Z" transform="translate(-481.872 -27.693)" fill="#727278" opacity="0.51"/>
          <path id="Path_765" data-name="Path 765" d="M617.412,246.527a2.454,2.454,0,1,0,2.521,2.452A2.489,2.489,0,0,0,617.412,246.527Z" transform="translate(-482.897 -27.673)" fill="#727278" opacity="0.51"/>
          <path id="Path_766" data-name="Path 766" d="M631.815,246.372a2.6,2.6,0,1,0,2.67,2.6A2.633,2.633,0,0,0,631.815,246.372Z" transform="translate(-483.931 -27.661)" fill="#727278" opacity="0.51"/>
          <path id="Path_767" data-name="Path 767" d="M646.223,246.255a2.706,2.706,0,1,0,2.78,2.7A2.746,2.746,0,0,0,646.223,246.255Z" transform="translate(-484.967 -27.653)" fill="#727278" opacity="0.51"/>
          <path id="Path_768" data-name="Path 768" d="M660.638,246.255a2.707,2.707,0,1,0,2.781,2.7A2.743,2.743,0,0,0,660.638,246.255Z" transform="translate(-486.013 -27.653)" fill="#727278" opacity="0.51"/>
          <path id="Path_769" data-name="Path 769" d="M675.058,246.333a2.635,2.635,0,1,0,2.706,2.632A2.67,2.67,0,0,0,675.058,246.333Z" transform="translate(-487.064 -27.659)" fill="#727278" opacity="0.51"/>
          <path id="Path_770" data-name="Path 770" d="M689.487,246.527a2.454,2.454,0,1,0,2.524,2.452A2.489,2.489,0,0,0,689.487,246.527Z" transform="translate(-488.123 -27.673)" fill="#727278" opacity="0.51"/>
          <path id="Path_771" data-name="Path 771" d="M703.921,246.761a2.237,2.237,0,1,0,2.3,2.235A2.269,2.269,0,0,0,703.921,246.761Z" transform="translate(-489.186 -27.69)" fill="#727278" opacity="0.51"/>
          <path id="Path_772" data-name="Path 772" d="M718.362,247.11a1.913,1.913,0,1,0,1.964,1.912A1.941,1.941,0,0,0,718.362,247.11Z" transform="translate(-490.257 -27.715)" fill="#727278" opacity="0.51"/>
          <path id="Path_773" data-name="Path 773" d="M732.8,247.422a1.624,1.624,0,1,0,1.669,1.622A1.645,1.645,0,0,0,732.8,247.422Z" transform="translate(-491.326 -27.738)" fill="#727278" opacity="0.51"/>
          <path id="Path_774" data-name="Path 774" d="M747.245,247.811a1.263,1.263,0,1,0,1.3,1.261A1.281,1.281,0,0,0,747.245,247.811Z" transform="translate(-492.4 -27.766)" fill="#727278" opacity="0.51"/>
          <path id="Path_775" data-name="Path 775" d="M761.686,248.161a.938.938,0,1,0,.965.937A.951.951,0,0,0,761.686,248.161Z" transform="translate(-493.471 -27.791)" fill="#727278" opacity="0.51"/>
          <path id="Path_776" data-name="Path 776" d="M776.127,248.511a.613.613,0,1,0,.63.612A.621.621,0,0,0,776.127,248.511Z" transform="translate(-494.543 -27.817)" fill="#727278" opacity="0.51"/>
          <path id="Path_777" data-name="Path 777" d="M790.562,248.783a.361.361,0,1,0,.373.36A.366.366,0,0,0,790.562,248.783Z" transform="translate(-495.608 -27.836)" fill="#727278" opacity="0.51"/>
          <path id="Path_778" data-name="Path 778" d="M805,249.017a.144.144,0,1,0,0,.288.144.144,0,1,0,0-.288Z" transform="translate(-496.671 -27.853)" fill="#727278" opacity="0.51"/>
          <path id="Path_779" data-name="Path 779" d="M523.9,263.079a.109.109,0,1,0,.112.108A.111.111,0,0,0,523.9,263.079Z" transform="translate(-476.291 -28.873)" fill="#727278" opacity="0.51"/>
          <path id="Path_780" data-name="Path 780" d="M538.3,262.925a.252.252,0,1,0,.261.251A.255.255,0,0,0,538.3,262.925Z" transform="translate(-477.325 -28.862)" fill="#727278" opacity="0.51"/>
          <path id="Path_781" data-name="Path 781" d="M552.7,262.69a.469.469,0,1,0,.482.469A.476.476,0,0,0,552.7,262.69Z" transform="translate(-478.353 -28.845)" fill="#727278" opacity="0.51"/>
          <path id="Path_782" data-name="Path 782" d="M567.1,262.457a.686.686,0,1,0,.706.685A.695.695,0,0,0,567.1,262.457Z" transform="translate(-479.381 -28.828)" fill="#727278" opacity="0.51"/>
          <path id="Path_783" data-name="Path 783" d="M581.5,262.186a.938.938,0,1,0,.965.937A.951.951,0,0,0,581.5,262.186Z" transform="translate(-480.406 -28.808)" fill="#727278" opacity="0.51"/>
          <path id="Path_784" data-name="Path 784" d="M595.892,261.913a1.191,1.191,0,1,0,1.223,1.19A1.207,1.207,0,0,0,595.892,261.913Z" transform="translate(-481.431 -28.788)" fill="#727278" opacity="0.51"/>
          <path id="Path_785" data-name="Path 785" d="M610.289,261.68a1.407,1.407,0,1,0,1.445,1.406A1.427,1.427,0,0,0,610.289,261.68Z" transform="translate(-482.458 -28.771)" fill="#727278" opacity="0.51"/>
          <path id="Path_786" data-name="Path 786" d="M624.69,261.485a1.588,1.588,0,1,0,1.632,1.587A1.608,1.608,0,0,0,624.69,261.485Z" transform="translate(-483.489 -28.757)" fill="#727278" opacity="0.51"/>
          <path id="Path_787" data-name="Path 787" d="M639.092,261.33a1.732,1.732,0,1,0,1.782,1.731A1.754,1.754,0,0,0,639.092,261.33Z" transform="translate(-484.523 -28.746)" fill="#727278" opacity="0.51"/>
          <path id="Path_788" data-name="Path 788" d="M653.5,261.252a1.8,1.8,0,1,0,1.853,1.8A1.83,1.83,0,0,0,653.5,261.252Z" transform="translate(-485.562 -28.74)" fill="#727278" opacity="0.51"/>
          <path id="Path_789" data-name="Path 789" d="M667.917,261.252a1.8,1.8,0,1,0,1.854,1.8A1.83,1.83,0,0,0,667.917,261.252Z" transform="translate(-486.608 -28.74)" fill="#727278" opacity="0.51"/>
          <path id="Path_790" data-name="Path 790" d="M682.335,261.291a1.768,1.768,0,1,0,1.818,1.767A1.791,1.791,0,0,0,682.335,261.291Z" transform="translate(-487.656 -28.743)" fill="#727278" opacity="0.51"/>
          <path id="Path_791" data-name="Path 791" d="M696.761,261.408a1.66,1.66,0,1,0,1.7,1.658A1.681,1.681,0,0,0,696.761,261.408Z" transform="translate(-488.71 -28.752)" fill="#727278" opacity="0.51"/>
          <path id="Path_792" data-name="Path 792" d="M711.189,261.6a1.479,1.479,0,1,0,1.521,1.478A1.5,1.5,0,0,0,711.189,261.6Z" transform="translate(-489.769 -28.766)" fill="#727278" opacity="0.51"/>
          <path id="Path_793" data-name="Path 793" d="M725.621,261.835a1.263,1.263,0,1,0,1.3,1.262A1.281,1.281,0,0,0,725.621,261.835Z" transform="translate(-490.832 -28.783)" fill="#727278" opacity="0.51"/>
          <path id="Path_794" data-name="Path 794" d="M740.056,262.107a1.011,1.011,0,1,0,1.039,1.01A1.024,1.024,0,0,0,740.056,262.107Z" transform="translate(-491.898 -28.802)" fill="#727278" opacity="0.51"/>
          <path id="Path_795" data-name="Path 795" d="M754.49,262.34a.794.794,0,1,0,.815.794A.8.8,0,0,0,754.49,262.34Z" transform="translate(-492.96 -28.819)" fill="#727278" opacity="0.51"/>
          <path id="Path_796" data-name="Path 796" d="M768.925,262.613a.541.541,0,1,0,.556.541A.549.549,0,0,0,768.925,262.613Z" transform="translate(-494.026 -28.839)" fill="#727278" opacity="0.51"/>
          <path id="Path_797" data-name="Path 797" d="M783.357,262.846a.325.325,0,1,0,.336.325A.329.329,0,0,0,783.357,262.846Z" transform="translate(-495.088 -28.856)" fill="#727278" opacity="0.51"/>
          <path id="Path_798" data-name="Path 798" d="M797.788,263.041a.144.144,0,1,0,.147.144A.146.146,0,0,0,797.788,263.041Z" transform="translate(-496.148 -28.87)" fill="#727278" opacity="0.51"/>
          <path id="Path_799" data-name="Path 799" d="M812.174,263.193a.038.038,0,1,0,.038-.035A.037.037,0,0,0,812.174,263.193Z" transform="translate(-497.202 -28.879)" fill="#727278" opacity="0.51"/>
          <path id="Path_800" data-name="Path 800" d="M531.079,277.218a.037.037,0,0,0,.073,0,.037.037,0,1,0-.073,0Z" transform="translate(-476.82 -29.895)" fill="#727278" opacity="0.51"/>
          <path id="Path_801" data-name="Path 801" d="M545.522,277.066a.144.144,0,1,0,.148.144A.146.146,0,0,0,545.522,277.066Z" transform="translate(-477.856 -29.887)" fill="#727278" opacity="0.51"/>
          <path id="Path_802" data-name="Path 802" d="M559.926,276.91a.289.289,0,1,0,.3.288A.292.292,0,0,0,559.926,276.91Z" transform="translate(-478.89 -29.876)" fill="#727278" opacity="0.51"/>
          <path id="Path_803" data-name="Path 803" d="M574.328,276.754a.433.433,0,1,0,.447.433A.44.44,0,0,0,574.328,276.754Z" transform="translate(-479.924 -29.864)" fill="#727278" opacity="0.51"/>
          <path id="Path_804" data-name="Path 804" d="M588.729,276.56a.613.613,0,1,0,.632.613A.621.621,0,0,0,588.729,276.56Z" transform="translate(-480.954 -29.85)" fill="#727278" opacity="0.51"/>
          <path id="Path_805" data-name="Path 805" d="M603.134,276.4a.758.758,0,1,0,.777.758A.768.768,0,0,0,603.134,276.4Z" transform="translate(-481.988 -29.839)" fill="#727278" opacity="0.51"/>
          <path id="Path_806" data-name="Path 806" d="M617.536,276.248a.9.9,0,1,0,.927.9A.916.916,0,0,0,617.536,276.248Z" transform="translate(-483.022 -29.828)" fill="#727278" opacity="0.51"/>
          <path id="Path_807" data-name="Path 807" d="M631.943,276.132a1.01,1.01,0,1,0,1.038,1.01A1.026,1.026,0,0,0,631.943,276.132Z" transform="translate(-484.058 -29.819)" fill="#727278" opacity="0.51"/>
          <path id="Path_808" data-name="Path 808" d="M646.357,276.094a1.046,1.046,0,1,0,1.074,1.045A1.061,1.061,0,0,0,646.357,276.094Z" transform="translate(-485.101 -29.817)" fill="#727278" opacity="0.51"/>
          <path id="Path_809" data-name="Path 809" d="M660.768,276.054a1.083,1.083,0,1,0,1.112,1.082A1.1,1.1,0,0,0,660.768,276.054Z" transform="translate(-486.143 -29.814)" fill="#727278" opacity="0.51"/>
          <path id="Path_810" data-name="Path 810" d="M675.186,276.094a1.046,1.046,0,1,0,1.076,1.045A1.059,1.059,0,0,0,675.186,276.094Z" transform="translate(-487.191 -29.817)" fill="#727278" opacity="0.51"/>
          <path id="Path_811" data-name="Path 811" d="M689.606,276.171a.974.974,0,1,0,1,.974A.988.988,0,0,0,689.606,276.171Z" transform="translate(-488.242 -29.822)" fill="#727278" opacity="0.51"/>
          <path id="Path_812" data-name="Path 812" d="M704.031,276.288a.866.866,0,1,0,.889.865A.878.878,0,0,0,704.031,276.288Z" transform="translate(-489.296 -29.831)" fill="#727278" opacity="0.51"/>
          <path id="Path_813" data-name="Path 813" d="M718.461,276.482a.686.686,0,1,0,.706.685A.695.695,0,0,0,718.461,276.482Z" transform="translate(-490.356 -29.845)" fill="#727278" opacity="0.51"/>
          <path id="Path_814" data-name="Path 814" d="M732.887,276.638a.541.541,0,1,0,.557.541A.548.548,0,0,0,732.887,276.638Z" transform="translate(-491.413 -29.856)" fill="#727278" opacity="0.51"/>
          <path id="Path_815" data-name="Path 815" d="M747.318,276.833a.36.36,0,1,0,.371.36A.364.364,0,0,0,747.318,276.833Z" transform="translate(-492.473 -29.87)" fill="#727278" opacity="0.51"/>
          <path id="Path_816" data-name="Path 816" d="M761.744,276.987a.217.217,0,1,0,.224.217A.221.221,0,0,0,761.744,276.987Z" transform="translate(-493.529 -29.881)" fill="#727278" opacity="0.51"/>
          <path id="Path_817" data-name="Path 817" d="M776.167,277.1a.108.108,0,1,0,.112.109A.11.11,0,0,0,776.167,277.1Z" transform="translate(-494.583 -29.89)" fill="#727278" opacity="0.51"/>
          <path id="Path_818" data-name="Path 818" d="M567.115,291.242a.038.038,0,1,0,.038-.036A.038.038,0,0,0,567.115,291.242Z" transform="translate(-479.433 -30.912)" fill="#727278" opacity="0.51"/>
          <path id="Path_819" data-name="Path 819" d="M581.562,291.129a.108.108,0,1,0,.111.108A.108.108,0,0,0,581.562,291.129Z" transform="translate(-480.472 -30.907)" fill="#727278" opacity="0.51"/>
          <path id="Path_820" data-name="Path 820" d="M595.973,291.051a.18.18,0,1,0,.185.18A.182.182,0,0,0,595.973,291.051Z" transform="translate(-481.512 -30.901)" fill="#727278" opacity="0.51"/>
          <path id="Path_821" data-name="Path 821" d="M610.379,290.935a.289.289,0,1,0,0,.577.289.289,0,1,0,0-.577Z" transform="translate(-482.548 -30.893)" fill="#727278" opacity="0.51"/>
          <ellipse id="Ellipse_20" data-name="Ellipse 20" cx="0.371" cy="0.361" rx="0.371" ry="0.361" transform="translate(140.829 259.969)" fill="#727278" opacity="0.51"/>
          <path id="Path_822" data-name="Path 822" d="M639.2,290.779a.433.433,0,1,0,.447.432A.439.439,0,0,0,639.2,290.779Z" transform="translate(-484.627 -30.881)" fill="#727278" opacity="0.51"/>
          <path id="Path_823" data-name="Path 823" d="M653.61,290.74a.469.469,0,1,0,.482.468A.476.476,0,0,0,653.61,290.74Z" transform="translate(-485.67 -30.879)" fill="#727278" opacity="0.51"/>
          <path id="Path_824" data-name="Path 824" d="M668.021,290.7a.506.506,0,1,0,.521.505A.511.511,0,0,0,668.021,290.7Z" transform="translate(-486.712 -30.876)" fill="#727278" opacity="0.51"/>
          <path id="Path_825" data-name="Path 825" d="M682.439,290.74a.469.469,0,1,0,.482.468A.473.473,0,0,0,682.439,290.74Z" transform="translate(-487.76 -30.879)" fill="#727278" opacity="0.51"/>
          <path id="Path_826" data-name="Path 826" d="M696.859,290.779a.433.433,0,1,0,.444.432A.441.441,0,0,0,696.859,290.779Z" transform="translate(-488.808 -30.881)" fill="#727278" opacity="0.51"/>
          <path id="Path_827" data-name="Path 827" d="M711.279,290.856a.361.361,0,1,0,.371.361A.366.366,0,0,0,711.279,290.856Z" transform="translate(-489.859 -30.887)" fill="#727278" opacity="0.51"/>
          <path id="Path_828" data-name="Path 828" d="M725.7,290.935a.289.289,0,1,0,.3.288A.293.293,0,0,0,725.7,290.935Z" transform="translate(-490.91 -30.893)" fill="#727278" opacity="0.51"/>
          <path id="Path_829" data-name="Path 829" d="M740.123,291.051a.18.18,0,1,0,.188.18A.184.184,0,0,0,740.123,291.051Z" transform="translate(-491.964 -30.901)" fill="#727278" opacity="0.51"/>
          <path id="Path_830" data-name="Path 830" d="M754.545,291.129a.108.108,0,1,0,.109.108A.109.109,0,0,0,754.545,291.129Z" transform="translate(-493.015 -30.907)" fill="#727278" opacity="0.51"/>
          <path id="Path_831" data-name="Path 831" d="M768.928,291.242a.038.038,0,1,0,.038-.036A.038.038,0,0,0,768.928,291.242Z" transform="translate(-494.066 -30.912)" fill="#727278" opacity="0.51"/>
          <path id="Path_832" data-name="Path 832" d="M603.154,305.267a.037.037,0,0,0,.038.035.035.035,0,0,0,.035-.035.035.035,0,0,0-.035-.036A.038.038,0,0,0,603.154,305.267Z" transform="translate(-482.046 -31.929)" fill="#727278" opacity="0.51"/>
          <path id="Path_833" data-name="Path 833" d="M617.53,305.264a.074.074,0,0,0,.148,0,.074.074,0,0,0-.148,0Z" transform="translate(-483.088 -31.926)" fill="#727278" opacity="0.51"/>
          <path id="Path_834" data-name="Path 834" d="M632.015,305.153a.108.108,0,1,0,.111.109A.108.108,0,0,0,632.015,305.153Z" transform="translate(-484.131 -31.924)" fill="#727278" opacity="0.51"/>
          <path id="Path_835" data-name="Path 835" d="M646.432,305.153a.108.108,0,1,0,.109.109A.108.108,0,0,0,646.432,305.153Z" transform="translate(-485.176 -31.924)" fill="#727278" opacity="0.51"/>
          <path id="Path_836" data-name="Path 836" d="M660.846,305.153a.108.108,0,1,0,.112.109A.111.111,0,0,0,660.846,305.153Z" transform="translate(-486.221 -31.924)" fill="#727278" opacity="0.51"/>
          <path id="Path_837" data-name="Path 837" d="M675.261,305.153a.108.108,0,1,0,.111.109A.111.111,0,0,0,675.261,305.153Z" transform="translate(-487.266 -31.924)" fill="#727278" opacity="0.51"/>
          <path id="Path_838" data-name="Path 838" d="M689.675,305.153a.108.108,0,1,0,.111.109A.108.108,0,0,0,689.675,305.153Z" transform="translate(-488.312 -31.924)" fill="#727278" opacity="0.51"/>
          <path id="Path_839" data-name="Path 839" d="M704.022,305.264a.072.072,0,0,0,.073.071.073.073,0,0,0,.074-.071.074.074,0,0,0-.074-.073A.073.073,0,0,0,704.022,305.264Z" transform="translate(-489.36 -31.926)" fill="#727278" opacity="0.51"/>
          <path id="Path_840" data-name="Path 840" d="M718.475,305.267a.038.038,0,0,0,.076,0,.038.038,0,0,0-.076,0Z" transform="translate(-490.408 -31.929)" fill="#727278" opacity="0.51"/>
        </g>
      </g>
      <g id="Group_1323" data-name="Group 1323" transform="translate(-1.784 -25.452)">
        <g id="Group_1323-2" data-name="Group 1323" transform="translate(83.445 65.821)">
          <path id="Path_841" data-name="Path 841" d="M185.329,260.818l-1.942-18c-2.394-22.212-6.78-22.212-8.655-22.212-6.19,0-18.207,7.029-30.269,14.627l-17.393,10.955,8.332-18.168c6.028-13.148,4.992-17.914,3.841-19.584-1.827-2.646-7.88-3.986-17.994-3.986-2.861,0-6.049.1-9.752.316l-20.846,1.194,16.82-11.751c15.511-10.838,18.386-16.5,18.068-19.338-.317-2.813-4.287-7.7-21.409-15l-20.684-8.817,22.538-2.341c18.409-1.912,23.5-4.025,24.9-5.1-.5-1.235-2.892-4.9-14.212-13.247L92.433,112.5l29.624,7.589c13.486,3.455,22.02,5,27.672,5,3.5,0,5.2-.634,5.619-1.229.843-1.2,1.9-6.036-6.412-25.014L137.119,71.889l21.845,20.55c12.977,12.2,20.647,14.767,24.8,14.767,2.133,0,8.622,0,13.355-18.285l4.493-17.368L208.8,88.084c2.91,6.688,6.9,14.363,11.943,14.363,2.974,0,9.777-2.267,21.919-17.452L258,65.821l-4.351,23.718c-2.723,14.845-1.254,20.267.46,22.2.374.421,1.365,1.539,5.239,1.539,6.982,0,18.347-3.8,26.286-6.657l21.644-7.784-14.693,16.974c-7.1,8.2-7.857,11.446-7.921,12.256.719.482,3.808,1.908,15.2,1.908q1.233,0,2.534-.021l18.918-.293-15.1,10.816c-10.95,7.845-16.374,13.891-16.119,17.973.236,3.769,5.387,8.465,15.305,13.955l15.1,8.354-17.274,2.489c-18,2.593-27.279,5.972-30.091,10.957-2.639,4.678-.894,12.9,5.489,25.882l6.924,14.08-14.991-6.245c-16.491-6.873-29.585-11.448-39.892-11.448-11.022,0-21.331,4.876-35.8,28.67Zm-10.6-51.922c10.856,0,15.831,8.292,18.335,17.305,11.641-15.056,23.142-21.434,37.6-21.434,9.224,0,19.227,2.591,31.242,7.037-3.216-9.858-3.034-17.116.358-23.125,4.213-7.47,12.781-11.6,24.558-14.363-4.92-4.175-8.657-9.174-9.033-15.175-.417-6.688,3.5-12.787,9.076-18.281-6.141-1.011-11.137-3.194-13.41-7.765-1.6-3.211-1.367-6.7-.045-10.249a56.837,56.837,0,0,1-14.058,2.136c-6.381,0-11.32-1.922-14.674-5.711-2.908-3.282-4.491-7.679-4.805-13.753-6.813,5.841-13.063,8.631-19.124,8.631-7.5,0-12.8-4.216-16.567-9.2-4.9,9.277-11.731,13.963-20.417,13.963-5.07,0-10.541-1.68-16.5-5.09,1.7,7.507,1.091,12.625-1.654,16.533-4.526,6.438-13.067,6.438-15.877,6.438a64.5,64.5,0,0,1-9.255-.761c2.534,3.674,3.51,7.226,2.448,10.8-1.673,5.611-7.419,8.744-17.182,10.855,6.507,4.318,11.337,9.492,12.062,15.943.777,6.928-3.443,13.411-9.594,19.332,8.381.593,16.921,2.644,21.346,9.057,2.692,3.9,3.537,8.7,2.5,14.835C161.336,211.724,168.593,208.9,174.732,208.9Z" transform="translate(-83.445 -65.821)" fill="#67f7b8"/>
        </g>
        <path id="Path_842" data-name="Path 842" d="M179.162,232.251c-3.785-35.65-13.763-34.293-48.535-12.062,12.915-28.591,1.7-33.8-29.971-31.953,28.514-20.222,27.894-31.116-4.479-45.124,34.657-3.655,40.642-9.195,13.816-29.266,41.431,10.775,50.048,7.017,34.225-29.629,32.821,31.34,43.746,12.459,48.548-6.382,6.518,15.206,17.151,32.945,44.534-1.811-6.288,34.8,5.831,36.54,40.3,23.95-16.56,19.419-10.764,24.5,14.7,24.1-23.9,17.376-25.63,28.06-.2,42.346-35.923,5.254-44.681,14.111-29.306,45.848C219.9,194.128,202.705,192.956,179.162,232.251Z" transform="translate(9.649 9.797)" fill="#12121b"/>
      </g>
      <g id="Brand" transform="translate(246.009 116.861)">
        <g id="_2" data-name="2" transform="translate(-193.954 11.507)">
          <g id="Brand_Hero" data-name="Brand/Hero">
            <g id="Group">
              <path id="Cape" d="M91.055,38.7C38.912,30.132,28.528,81.311,0,83.152c20.906,20.768,57.127-5.261,70.042,6.978Z" transform="translate(0 -23.397)" fill="#ff4952"/>
              <path id="Man" d="M170.992,0a7.8,7.8,0,0,1,4.553,14.12l.9.3,4.929.429a3.923,3.923,0,0,1,.72.131c3.856.858,7.922,4.972,13.2,12.41l.173.244.373.531a3.9,3.9,0,0,1-.915,5.4l-.094.065L182.017,42.3l-.184,1.467L181.9,76h-9.738l-.128-4.813q-.573-20.52-1.04-20.52-.519,0-1.558,25.333H159.7l.389-32.348-.157-1.27L147,33.627a3.9,3.9,0,0,1-1.008-5.463l.373-.531.344-.484c5.353-7.507,9.458-11.562,13.376-12.238l.06-.01q.158-.033.321-.053l.062-.007h0l4.626-.421,1.169-.39-.086-.065A7.8,7.8,0,0,1,170.992,0ZM154.786,29.318l-.086.112,3.964,2.683-.8-6.512Q156.459,27.128,154.786,29.318Zm29.3-3.586-.786,6.29,3.828-2.591-.086-.112Q185.443,27.222,184.087,25.732Z" transform="translate(-90.077)" fill="#eee"/>
              <g id="Icon_Shield-Fill" data-name="Icon/Shield-Fill" transform="translate(71.921 19.25)">
                <path id="Shield-Fill" d="M204.271,50.66a.648.648,0,0,1,.571.345l2.541,4.764a.666.666,0,0,1-.114.782l-8.448,8.472a.642.642,0,0,1-.912,0l-8.448-8.472a.666.666,0,0,1-.114-.782l2.541-4.764a.648.648,0,0,1,.571-.345Zm-5.441,1.68-4.062,5.849a.191.191,0,0,0,.045.264.185.185,0,0,0,.108.035l3.169-.012a.189.189,0,0,1,.188.189.156.156,0,0,1,0,.024l-.44,3.687a.19.19,0,0,0,.163.212.186.186,0,0,0,.179-.084l3.816-5.869a.191.191,0,0,0-.053-.263.185.185,0,0,0-.1-.032l-3.021.008a.188.188,0,0,1-.187-.189.176.176,0,0,1,0-.029l.538-3.652a.19.19,0,0,0-.157-.216A.187.187,0,0,0,198.831,52.34Z" transform="translate(-189.269 -50.66)" fill="#2a9cff"/>
              </g>
            </g>
          </g>
        </g>
      </g>
    </g>
    <text id="Send_Receive_Tips_Across_The_Globe_" data-name="Send &amp; Receive
Tips Across
The Globe!" transform="matrix(0.998, -0.07, 0.07, 0.998, 195.744, 100.044)" fill="#2a9cff" font-size="19" font-family="SegoeUI-Bold, Segoe UI" font-weight="700"><tspan x="-69.107" y="0">Send &amp; Receive</tspan><tspan x="-50.107" y="23">Tips Across</tspan><tspan x="-48.446" y="46">The Globe!</tspan></text>
  </g>
</svg>
