<svg xmlns="http://www.w3.org/2000/svg" width="2449" height="188" fill="none"><g fill="white" opacity=".1"><path d="M15 187H4c-2 0-4-2-4-4v-38c0-3 2-4 4-4h9c2 0 3 1 3 4v7c0 2 2 4 4 4h8c2 0 4 2 4 4v23c0 2-2 4-4 4H15z" opacity=".9"/><path d="M42 154v-9c0-3 2-4 4-4h24c2 0 4 1 4 4v9c0 2-2 3-4 3H46c-2 0-4-1-4-3z" opacity=".6"/><path d="M55 187h-9c-2 0-4-2-4-4v-9c0-2 2-3 4-3h9c2 0 3 1 3 3v9c0 2-1 4-3 4z" opacity=".2"/><path d="M96 172h-8c-2 0-4-1-4-3v-9c0-2 2-4 4-4h9c2 0 4 2 4 4v7c0 2 1 4 3 4h8c2 0 4 1 4 3v9c0 2-2 4-4 4h-9c-2 0-4-2-4-4v-7c0-2-1-4-3-4z" opacity=".7"/><path d="M138 172h-8c-2 0-4-1-4-3v-24c0-3 2-4 4-4h9c2 0 4 1 4 4v22c0 2 1 4 3 4h8c2 0 4 1 4 3v9c0 2-2 4-4 4h-9c-2 0-3-2-3-4v-7c0-2-2-4-4-4z" opacity=".3"/><path d="M184 187h-12c-2 0-4-2-4-4v-38c0-3 2-4 4-4h9c2 0 4 1 4 4v7c0 2 1 4 3 4h8c2 0 4 2 4 4v23c0 2-2 4-4 4h-12z"/><path d="M210 154v-9c0-3 2-4 4-4h24c2 0 4 1 4 4v9c0 2-2 3-4 3h-24c-2 0-4-1-4-3z" opacity=".8"/><path d="M223 187h-9c-2 0-4-2-4-4v-9c0-2 2-3 4-3h9c2 0 4 1 4 3v9c0 2-2 4-4 4z" opacity=".2"/><path d="M265 187h-9c-2 0-4-2-4-4v-9c0-2 2-3 4-3h8c2 0 4-2 4-4v-7c0-2 1-4 3-4h9c3 0 4 2 4 4v9c0 2-1 3-4 3h-7c-2 0-4 2-4 4v7c0 2-2 4-4 4z" opacity=".8"/><path d="M330 171h8c2 0 3 1 3 3v9c0 2-1 4-3 4h-25c-2 0-3-2-3-4v-38c0-3 1-4 3-4h10c2 0 3 1 3 4v22c0 2 2 4 4 4z" opacity=".5"/><path d="M380 172h-8c-2 0-4 2-4 4v7c0 2-1 4-3 4h-9c-2 0-4-2-4-4v-38c0-3 2-4 4-4h9c2 0 3 1 3 4v7c0 2 2 4 4 4h8c2 0 4 2 4 4v9c0 2-2 3-4 3z" opacity=".8"/><path d="M426 160v9c0 2-2 3-4 3h-8c-2 0-4 2-4 4v7c0 2-1 4-3 4h-9c-2 0-4-2-4-4v-9c0-2 2-3 4-3h8c2 0 3-2 3-4v-7c0-2 2-4 4-4h9c2 0 4 2 4 4z" opacity=".9"/><path d="M456 156h8c2 0 4 2 4 4v23c0 2-2 4-4 4h-9c-2 0-4-2-4-4v-7c0-2-1-4-3-4h-8c-2 0-4-1-4-3v-24c0-3 2-4 4-4h9c2 0 3 1 3 4v7c0 2 2 4 4 4z" opacity=".7"/><path d="M490 172h-8c-2 0-4-1-4-3v-9c0-2 2-4 4-4h9c2 0 4 2 4 4v7c0 2 1 4 3 4h8c2 0 4 1 4 3v9c0 2-2 4-4 4h-9c-2 0-4-2-4-4v-7c0-2-1-4-3-4z" opacity=".3"/><path d="M520 154v-9c0-3 2-4 4-4h24c2 0 4 1 4 4v9c0 2-2 3-4 3h-24c-2 0-4-1-4-3z" opacity=".8"/><path d="M533 187h-9c-2 0-4-2-4-4v-9c0-2 2-3 4-3h9c2 0 4 1 4 3v9c0 2-2 4-4 4z" opacity=".5"/><path d="M575 157h-9c-2 0-4-1-4-3v-9c0-3 2-4 4-4h9c2 0 4 1 4 4v9c0 2-2 3-4 3z" opacity=".9"/><path d="M578 187h-12c-2 0-4-2-4-4v-9c0-2 2-3 4-3h24c2 0 4 1 4 3v9c0 2-2 4-4 4h-12z" opacity=".5"/><path d="M640 156h8c2 0 3 2 3 4v9c0 2-1 3-3 3h-8c-2 0-4 2-4 4v7c0 2-2 4-4 4h-9c-2 0-3-2-3-4v-38c0-3 1-4 3-4h9c2 0 4 1 4 4v7c0 2 2 4 4 4z" opacity=".2"/><path d="M693 145v9c0 2-1 3-3 3h-25c-2 0-3-1-3-3v-9c0-3 1-4 3-4h25c2 0 3 1 3 4z" opacity=".3"/><path d="M665 171h9c2 0 4 1 4 3v9c0 2-2 4-4 4h-9c-2 0-3-2-3-4v-9c0-2 1-3 3-3z" opacity=".1"/><path d="M732 187h-9c-2 0-4-2-4-4v-7c0-2-2-4-4-4h-8c-2 0-3-1-3-3v-24c0-3 1-4 3-4h9c2 0 4 1 4 4v7c0 2 2 4 4 4h8c2 0 3 2 3 4v23c0 2-1 4-3 4z" opacity=".3"/><path d="M774 172h-8c-2 0-4 2-4 4v7c0 2-1 4-3 4h-9c-3 0-4-2-4-4v-38c0-3 1-4 4-4h9c2 0 3 1 3 4v7c0 2 2 4 4 4h8c2 0 4 2 4 4v9c0 2-2 3-4 3z" opacity=".7"/><path d="M816 157h-24c-2 0-4-1-4-3v-9c0-3 2-4 4-4h24c2 0 4 1 4 4v9c0 2-2 3-4 3z" opacity=".4"/><path d="M792 171h9c2 0 3 1 3 3v9c0 2-1 4-3 4h-9c-2 0-4-2-4-4v-9c0-2 2-3 4-3z" opacity=".3"/><path d="M843 157h-9c-2 0-4-1-4-3v-9c0-3 2-4 4-4h9c2 0 3 1 3 4v9c0 2-1 3-3 3z" opacity=".5"/><path d="M846 171h12c2 0 4 1 4 3v9c0 2-2 4-4 4h-24c-2 0-4-2-4-4v-9c0-2 2-3 4-3h12z" opacity=".1"/><path d="M891 141h9c2 0 4 1 4 4v38c0 2-2 4-4 4h-9c-2 0-4-2-4-4v-38c0-3 2-4 4-4z" opacity=".6"/><path d="M949 171h8c2 0 4 1 4 3v9c0 2-2 4-4 4h-9c-2 0-3-2-3-4v-7c0-2-2-4-4-4h-8c-2 0-4-1-4-3v-9c0-2 2-4 4-4h9c2 0 4 2 4 4v7c0 2 1 4 3 4z" opacity=".3"/><path d="M1003 160v23c0 2-1 4-4 4h-24c-2 0-4-2-4-4v-23c0-2 2-4 4-4h24c3 0 4 2 4 4z" opacity=".5"/><path d="M1042 157h-25c-2 0-3-1-3-3v-9c0-3 1-4 3-4h25c2 0 3 1 3 4v9c0 2-1 3-3 3z" opacity=".1"/><path d="M1017 171h9c2 0 4 1 4 3v9c0 2-2 4-4 4h-9c-2 0-3-2-3-4v-9c0-2 1-3 3-3z" opacity=".5"/><path d="M1068 187h-9c-2 0-3-2-3-4v-38c0-3 1-4 3-4h9c2 0 4 1 4 4v38c0 2-2 4-4 4z" opacity=".7"/><path d="M1110 187h-9c-2 0-3-2-3-4v-9c0-2 1-3 3-3h9c2 0 4 1 4 3v9c0 2-2 4-4 4z" opacity=".8"/><path d="M1200 171h8c2 0 3 1 3 3v9c0 2-1 4-3 4h-9c-2 0-4-2-4-4v-7c0-2-2-4-4-4h-8c-2 0-3-1-3-3v-24c0-3 1-4 3-4h9c2 0 4 1 4 4v22c0 2 2 4 4 4z" opacity=".4"/><path d="M1253 145v9c0 2-1 3-3 3h-25c-2 0-3-1-3-3v-9c0-3 1-4 3-4h25c2 0 3 1 3 4z" opacity=".3"/><path d="M1225 171h9c2 0 4 1 4 3v9c0 2-2 4-4 4h-9c-2 0-3-2-3-4v-9c0-2 1-3 3-3z" opacity=".1"/><path d="M1296 174v9c0 2-2 4-4 4h-9c-2 0-4-2-4-4v-7c0-2-2-4-4-4h-7c-3 0-4-1-4-3v-24c0-3 1-4 4-4h9c2 0 3 1 3 4v22c0 2 2 4 4 4h8c2 0 4 1 4 3z"/><path d="M1338 174v9c0 2-2 4-4 4h-24c-2 0-4-2-4-4v-38c0-3 2-4 4-4h9c2 0 3 1 3 4v22c0 2 2 4 4 4h8c2 0 4 1 4 3z" opacity=".4"/><path d="M1380 160v9c0 2-2 3-4 3h-8c-2 0-4 2-4 4v7c0 2-1 4-3 4h-9c-2 0-4-2-4-4v-9c0-2 2-3 4-3h8c2 0 3-2 3-4v-7c0-2 2-4 4-4h9c2 0 4 2 4 4z" opacity=".2"/><path d="M1422 160v23c0 2-2 4-4 4h-24c-2 0-4-2-4-4v-9c0-2 2-3 4-3h8c2 0 3-2 3-4v-6c0-2-1-4-3-4h-8c-2 0-4-1-4-3v-9c0-3 2-4 4-4h9c2 0 3 1 3 4v7c0 2 2 4 4 4h8c2 0 4 2 4 4z" opacity=".5"/><path d="M1464 160v23c0 2-2 4-4 4h-24c-2 0-4-2-4-4v-9c0-2 2-3 4-3h8c2 0 3-2 3-4v-7c0-2 2-4 4-4h9c2 0 4 2 4 4z" opacity=".2"/><path d="M1494 171h8c2 0 4 1 4 3v9c0 2-2 4-4 4h-9c-2 0-4-2-4-4v-7c0-2-1-4-3-4h-8c-2 0-4-1-4-3v-9c0-2 2-4 4-4h9c2 0 4 2 4 4v7c0 2 1 4 3 4zM1528 172h-8c-2 0-4-1-4-3v-24c0-3 2-4 4-4h9c2 0 4 1 4 4v22c0 2 1 4 3 4h8c2 0 4 1 4 3v9c0 2-2 4-4 4h-9c-2 0-3-2-3-4v-7c0-2-2-4-4-4z" opacity=".6"/><path d="M1558 169v-24c0-3 2-4 4-4h9c2 0 4 1 4 4v22c0 2 1 4 3 4h8c2 0 4 1 4 3v9c0 2-2 4-4 4h-9c-2 0-3-2-3-4v-7c0-2-2-4-4-4h-8c-2 0-4-1-4-3z" opacity=".8"/><path d="M1632 160v9c0 2-2 3-4 3h-7c-3 0-4 2-4 4v7c0 2-2 4-4 4h-9c-2 0-4-2-4-4v-9c0-2 2-3 4-3h8c2 0 4-2 4-4v-7c0-2 1-4 3-4h9c2 0 4 2 4 4z" opacity=".7"/><path d="M1670 187h-9c-2 0-3-2-3-4v-38c0-3 1-4 3-4h9c3 0 4 1 4 4v38c0 2-1 4-4 4z" opacity=".6"/><path d="M1732 160v9c0 2-2 3-4 3h-8c-2 0-4 2-4 4v7c0 2-1 4-3 4h-9c-3 0-4-2-4-4v-9c0-2 1-3 4-3h7c2 0 4-2 4-4v-7c0-2 2-4 4-4h9c2 0 4 2 4 4z" opacity=".8"/><path d="M1758 171h12c2 0 4 1 4 3v9c0 2-2 4-4 4h-24c-2 0-4-2-4-4v-9c0-2 2-3 4-3h12z" opacity=".9"/><path d="M1812 187h-9c-2 0-4-2-4-4v-7c0-2-1-4-3-4h-8c-2 0-4-1-4-3v-24c0-3 2-4 4-4h9c2 0 3 1 3 4v7c0 2 2 4 4 4h8c2 0 4 2 4 4v23c0 2-2 4-4 4z" opacity=".5"/><path d="M1830 141h24c2 0 4 1 4 4v9c0 2-2 3-4 3h-24c-2 0-4-1-4-3v-9c0-3 2-4 4-4z" opacity=".9"/><path d="M1830 171h9c2 0 3 1 3 3v9c0 2-1 4-3 4h-9c-2 0-4-2-4-4v-9c0-2 2-3 4-3z" opacity=".6"/><path d="M1900 174v9c0 2-2 4-4 4h-9c-2 0-4-2-4-4v-7c0-2-1-4-3-4h-8c-2 0-4-1-4-3v-24c0-3 2-4 4-4h9c2 0 4 1 4 4v22c0 2 1 4 3 4h8c2 0 4 1 4 3z" opacity=".5"/><path d="M1911 138h9c2 0 3 2 3 4v9c0 2-1 3-3 3h-9c-2 0-4-1-4-3v-9c0-2 2-4 4-4z" opacity=".7"/><path d="M1962 172h-8c-2 0-4-1-4-3v-24c0-3 2-4 4-4h9c2 0 4 1 4 4v22c0 2 1 4 3 4h8c2 0 4 1 4 3v9c0 2-2 4-4 4h-9c-2 0-4-2-4-4v-7c0-2-1-4-3-4z" opacity=".8"/><path d="M2024 160v9c0 2-2 3-4 3h-8c-2 0-3 2-3 4v7c0 2-2 4-4 4h-9c-2 0-4-2-4-4v-9c0-2 2-3 4-3h8c2 0 3-2 3-4v-7c0-2 2-4 4-4h9c2 0 4 2 4 4z" opacity=".6"/><path d="M2066 160v23c0 2-2 4-4 4h-24c-2 0-4-2-4-4v-9c0-2 2-3 4-3h8c2 0 4-2 4-4v-7c0-2 1-4 3-4h9c2 0 4 2 4 4z" opacity=".1"/><path d="M2095 171h9c2 0 4 1 4 3v9c0 2-2 4-4 4h-9c-2 0-3-2-3-4v-9c0-2 1-3 3-3z" opacity=".9"/><path d="M2162 187h-9c-2 0-4-2-4-4v-38c0-3 2-4 4-4h9c2 0 3 1 3 4v38c0 2-1 4-3 4z" opacity=".3"/><path d="M2211 156h8c2 0 4 2 4 4v9c0 2-2 3-4 3h-8c-2 0-4 2-4 4v7c0 2-1 4-3 4h-9c-2 0-4-2-4-4v-9c0-2 2-3 4-3h8c2 0 3-2 3-4v-6c0-2-1-4-3-4h-8c-2 0-4-1-4-3v-9c0-3 2-4 4-4h9c2 0 3 1 3 4v7c0 2 2 4 4 4z" opacity=".9"/><path d="M2253 156h8c2 0 4 2 4 4v9c0 2-2 3-4 3h-8c-2 0-3 2-3 4v7c0 2-2 4-4 4h-9c-2 0-4-2-4-4v-38c0-3 2-4 4-4h9c2 0 4 1 4 4v7c0 2 1 4 3 4z" opacity=".6"/><path d="M2294 156h9c2 0 4 2 4 4v9c0 2-2 3-4 3h-8c-2 0-3 2-3 4v7c0 2-2 4-4 4h-9c-2 0-4-2-4-4v-9c0-2 2-3 4-3h8c2 0 3-2 3-4v-7c0-2 2-4 4-4zM2330 157h-9c-2 0-4-1-4-3v-9c0-3 2-4 4-4h9c2 0 4 1 4 4v9c0 2-2 3-4 3z" opacity=".5"/><path d="M2334 171h11c2 0 4 1 4 3v9c0 2-2 4-4 4h-24c-2 0-4-2-4-4v-9c0-2 2-3 4-3h13z"/><path d="M2406 145v9c0 2-1 3-3 3h-25c-2 0-3-1-3-3v-9c0-3 1-4 3-4h25c2 0 3 1 3 4z" opacity=".7"/><path d="M2378 171h9c2 0 4 1 4 3v9c0 2-2 4-4 4h-9c-2 0-3-2-3-4v-9c0-2 1-3 3-3z" opacity=".9"/><path d="M2428 172h-8c-2 0-3-1-3-3v-24c0-3 1-4 3-4h9c2 0 4 1 4 4v7c0 2 2 4 4 4h8c2 0 3 2 3 4v23c0 2-1 4-3 4h-9c-2 0-4-2-4-4v-7c0-2-2-4-4-4z" opacity=".8"/><path d="M15 117H4c-2 0-4-2-4-4V74c0-2 2-4 4-4h9c2 0 3 2 3 4v23c0 2 2 3 4 3h8c2 0 4 2 4 4v9c0 2-2 4-4 4H15z" opacity=".7"/><path d="M55 117h-9c-2 0-4-2-4-4v-9c0-2 2-4 4-4h8c2 0 3-1 3-3v-8c0-2 2-4 4-4h9c2 0 4 2 4 4v9c0 2-2 4-4 4h-8c-2 0-4 2-4 4v7c0 2-1 4-3 4z" opacity=".6"/><path d="M97 117h-9c-2 0-4-2-4-4V74c0-2 2-4 4-4h9c2 0 4 2 4 4v39c0 2-2 4-4 4z" opacity=".3"/><path d="M139 117h-9c-2 0-4-2-4-4V74c0-2 2-4 4-4h9c2 0 4 2 4 4v39c0 2-2 4-4 4z" opacity=".6"/><path d="M181 117h-9c-2 0-4-2-4-4v-9c0-2 2-4 4-4h8c2 0 4-1 4-3v-8c0-2 1-4 3-4h9c2 0 4 2 4 4v9c0 2-2 4-4 4h-8c-2 0-3 2-3 4v7c0 2-2 4-4 4z" opacity=".2"/><path d="M226 117h-12c-2 0-4-2-4-4v-9c0-2 2-4 4-4h8c2 0 4-1 4-3v-6c0-3-2-4-4-4h-8c-2 0-4-2-4-4v-9c0-2 2-4 4-4h9c2 0 4 2 4 4v8c0 2 1 3 3 3h8c2 0 4 2 4 4v24c0 2-2 4-4 4h-12z" opacity=".5"/><path d="M264 102h-8c-2 0-4-2-4-4V74c0-2 2-4 4-4h9c2 0 4 2 4 4v8c0 2 2 3 4 3h7c3 0 4 2 4 4v24c0 2-1 4-4 4h-9c-2 0-3-2-3-4v-7c0-2-2-4-4-4z" opacity=".4"/><path d="M314 85h9c2 0 3 2 3 4v9c0 2-1 4-3 4h-8c-2 0-4 2-4 4v7c0 2-2 4-4 4h-9c-2 0-3-2-3-4v-9c0-2 1-4 3-4h8c2 0 4-1 4-3v-8c0-2 1-4 4-4z" opacity=".7"/><path d="M357 100h8c2 0 3 2 3 4v9c0 2-1 4-3 4h-9c-2 0-4-2-4-4v-7c0-2-2-4-4-4h-8c-2 0-3-2-3-4V74c0-2 1-4 3-4h9c2 0 4 2 4 4v23c0 2 2 3 4 3zM394 117h-12c-2 0-3-2-3-4V74c0-2 1-4 3-4h9c2 0 4 2 4 4v8c0 2 2 3 4 3h8c2 0 3 2 3 4v24c0 2-1 4-3 4h-13z"/><path d="M452 74v9c0 2-1 4-3 4h-25c-2 0-3-2-3-4v-9c0-2 1-4 3-4h25c2 0 3 2 3 4zM433 117h-9c-2 0-3-2-3-4v-9c0-2 1-4 3-4h9c3 0 4 2 4 4v9c0 2-1 4-4 4z" opacity=".2"/><path d="M476 117h-9c-3 0-4-2-4-4v-9c0-2 1-4 4-4h7c2 0 4-1 4-3v-8c0-2 2-4 4-4h9c2 0 4 2 4 4v9c0 2-2 4-4 4h-8c-2 0-4 2-4 4v7c0 2-1 4-3 4z" opacity=".9"/><path d="M535 117h-11c-2 0-4-2-4-4v-9c0-2 2-4 4-4h24c2 0 4 2 4 4v9c0 2-2 4-4 4h-13zM575 117h-9c-2 0-4-2-4-4v-9c0-2 2-4 4-4h8c2 0 4-1 4-3v-6c0-3-2-4-4-4h-8c-2 0-4-2-4-4v-9c0-2 2-4 4-4h9c2 0 4 2 4 4v8c0 2 1 3 3 3h8c2 0 4 2 4 4v9c0 2-2 4-4 4h-8c-2 0-3 2-3 4v7c0 2-2 4-4 4z" opacity=".3"/><path d="M620 117h-12c-2 0-4-2-4-4v-9c0-2 2-4 4-4h8c2 0 4-1 4-3v-6c0-3-2-4-4-4h-8c-2 0-4-2-4-4v-9c0-2 2-4 4-4h9c2 0 4 2 4 4v8c0 2 1 3 3 3h8c2 0 4 2 4 4v24c0 2-2 4-4 4h-12z"/><path d="M659 117h-9c-2 0-4-2-4-4V74c0-2 2-4 4-4h24c2 0 4 2 4 4v9c0 2-2 4-4 4h-7c-3 0-4 1-4 4v22c0 2-2 4-4 4z" opacity=".6"/><path d="M701 117h-9c-2 0-4-2-4-4v-9c0-2 2-4 4-4h9c2 0 4 2 4 4v9c0 2-2 4-4 4z" opacity=".1"/><path d="M734 70h9c2 0 4 2 4 4v39c0 2-2 4-4 4h-9c-2 0-3-2-3-4V74c0-2 1-4 3-4z" opacity=".3"/><path d="M776 70h9c2 0 4 2 4 4v39c0 2-2 4-4 4h-9c-2 0-3-2-3-4V74c0-2 1-4 3-4zM835 100h8c2 0 3 2 3 4v9c0 2-1 4-3 4h-9c-2 0-4-2-4-4v-7c0-2-2-4-4-4h-8c-2 0-3-2-3-4v-9c0-2 1-4 3-4h9c2 0 4 2 4 4v8c0 2 2 3 4 3z" opacity=".5"/><path d="M877 100h8c2 0 3 2 3 4v9c0 2-1 4-3 4h-9c-2 0-4-2-4-4v-7c0-2-2-4-4-4h-8c-2 0-3-2-3-4V74c0-2 1-4 3-4h10c2 0 3 2 3 4v23c0 2 2 3 4 3z" opacity=".3"/><path d="M929 117h-11c-2 0-4-2-4-4v-9c0-2 2-4 4-4h8c2 0 3-1 3-3v-8c0-2 2-4 4-4h9c2 0 4 2 4 4v24c0 2-2 4-4 4h-13z" opacity=".4"/><path d="M969 117h-9c-2 0-4-2-4-4v-9c0-2 2-4 4-4h8c2 0 3-1 3-3v-6c0-3-1-4-3-4h-8c-2 0-4-2-4-4v-9c0-2 2-4 4-4h9c2 0 4 2 4 4v8c0 2 1 3 3 3h8c2 0 4 2 4 4v9c0 2-2 4-4 4h-8c-2 0-3 2-3 4v7c0 2-2 4-4 4z" opacity=".3"/><path d="M1002 70h9c2 0 4 2 4 4v39c0 2-2 4-4 4h-9c-2 0-4-2-4-4V74c0-2 2-4 4-4z" opacity=".8"/><path d="M1053 117h-9c-2 0-4-2-4-4v-9c0-2 2-4 4-4h8c2 0 4-1 4-3v-6c0-3-2-4-4-4h-8c-2 0-4-2-4-4v-9c0-2 2-4 4-4h9c2 0 4 2 4 4v8c0 2 1 3 3 3h8c2 0 4 2 4 4v9c0 2-2 4-4 4h-8c-2 0-3 2-3 4v7c0 2-2 4-4 4z" opacity=".9"/><path d="M1095 117h-9c-2 0-4-2-4-4V74c0-2 2-4 4-4h9c2 0 4 2 4 4v8c0 2 1 3 4 3h7c2 0 4 2 4 4v9c0 2-2 4-4 4h-7c-3 0-4 2-4 4v7c0 2-2 4-4 4z" opacity=".5"/><path d="M1168 87h-8c-2 0-4 1-4 4v22c0 2-1 4-4 4h-9c-2 0-3-2-3-4V74c0-2 1-4 3-4h25c2 0 3 2 3 4v9c0 2-1 4-3 4zM1214 89v9c0 2-2 4-4 4h-8c-2 0-4 2-4 4v7c0 2-1 4-3 4h-9c-3 0-4-2-4-4v-9c0-2 2-4 4-4h7c2 0 4-1 4-3v-8c0-2 2-4 4-4h9c2 0 4 2 4 4z" opacity=".7"/><path d="M1228 70h9c2 0 3 2 3 4v39c0 2-1 4-3 4h-9c-2 0-4-2-4-4V74c0-2 2-4 4-4z" opacity=".2"/><path d="M1285 70h9c2 0 4 2 4 4v39c0 2-2 4-4 4h-9c-2 0-4-2-4-4V74c0-2 2-4 4-4z" opacity=".1"/><path d="M1355 104v9c0 2-2 4-4 4h-9c-2 0-3-2-3-4v-7c0-2-2-4-4-4h-8c-2 0-4-2-4-4v-9c0-2 2-4 4-4h9c2 0 4 2 4 4v8c0 2 1 3 3 3h8c2 0 4 2 4 4z" opacity=".7"/><path d="M1369 85h9c2 0 4 2 4 4v24c0 2-2 4-4 4h-9c-2 0-4-2-4-4V89c0-2 2-4 4-4z" opacity=".8"/><path d="M1439 89v9c0 2-1 4-4 4h-7c-2 0-4 2-4 4v7c0 2-2 4-4 4h-9c-2 0-4-2-4-4v-9c0-2 2-4 4-4h8c2 0 4-1 4-3v-8c0-2 1-4 3-4h9c3 0 4 2 4 4z" opacity=".9"/><path d="M1478 102h-8c-2 0-4 2-4 4v7c0 2-2 4-4 4h-9c-2 0-3-2-3-4V74c0-2 1-4 3-4h9c2 0 4 2 4 4v8c0 2 2 3 4 3h8c2 0 3 2 3 4v9c0 2-1 4-3 4z" opacity=".1"/><path d="M1523 89v9c0 2-1 4-3 4h-8c-2 0-4 2-4 4v7c0 2-2 4-4 4h-9c-2 0-3-2-3-4v-9c0-2 1-4 3-4h8c2 0 4-1 4-3v-6c0-3-2-4-4-4h-8c-2 0-3-2-3-4v-9c0-2 1-4 3-4h9c2 0 4 2 4 4v8c0 2 2 3 4 3h8c2 0 3 2 3 4z" opacity=".7"/><path d="M1605 104v9c0 2-1 4-3 4h-9c-2 0-4-2-4-4v-7c0-2-2-4-4-4h-8c-2 0-3-2-3-4v-9c0-2 1-4 3-4h9c2 0 4 2 4 4v8c0 2 2 3 4 3h8c2 0 3 2 3 4z" opacity=".3"/><path d="M1631 117h-12c-2 0-3-2-3-4v-9c0-2 1-4 3-4h8c2 0 4-1 4-3v-6c0-3-2-4-4-4h-8c-2 0-3-2-3-4v-9c0-2 1-4 3-4h9c2 0 4 2 4 4v8c0 2 2 3 4 3h8c2 0 3 2 3 4v24c0 2-1 4-3 4h-13z" opacity=".4"/><path d="M1705 89v9c0 2-2 4-4 4h-8c-2 0-4 2-4 4v7c0 2-1 4-3 4h-9c-2 0-4-2-4-4V89c0-2 2-4 4-4h24c2 0 4 2 4 4z" opacity=".9"/><path d="M1728 117h-9c-2 0-4-2-4-4v-9c0-2 2-4 4-4h9c2 0 4 2 4 4v9c0 2-2 4-4 4z" opacity=".3"/><path d="M1774 100h11c2 0 4 2 4 4v9c0 2-2 4-4 4h-24c-2 0-4-2-4-4v-9c0-2 2-4 4-4h13z" opacity=".8"/><path d="M1827 117h-9c-2 0-3-2-3-4V89c0-2 1-4 3-4h25c2 0 3 2 3 4v9c0 2-1 4-3 4h-8c-2 0-4 2-4 4v7c0 2-2 4-4 4zM1869 117h-9c-2 0-3-2-3-4v-9c0-2 1-4 3-4h9c2 0 4 2 4 4v9c0 2-2 4-4 4z" opacity=".5"/><path d="M1902 85h9c2 0 4 2 4 4v24c0 2-2 4-4 4h-9c-2 0-3-2-3-4V89c0-2 1-4 3-4z" opacity=".2"/><path d="M1952 102h-8c-2 0-3-2-3-4v-9c0-2 1-4 3-4h9c3 0 4 2 4 4v8c0 2 2 3 4 3h8c2 0 3 2 3 4v9c0 2-1 4-3 4h-9c-2 0-4-2-4-4v-7c0-2-2-4-4-4z" opacity=".8"/><path d="M1994 102h-7c-3 0-4-2-4-4V74c0-2 1-4 4-4h9c2 0 3 2 3 4v8c0 2 2 3 4 3h8c2 0 4 2 4 4v24c0 2-2 4-4 4h-9c-2 0-4-2-4-4v-7c0-2-2-4-4-4z" opacity=".2"/><path d="M2041 104v9c0 2-1 4-3 4h-9c-2 0-4-2-4-4v-9c0-2 2-4 4-4h9c2 0 3 2 3 4z" opacity=".1"/><path d="M2079 102h-8c-2 0-4-2-4-4V74c0-2 2-4 4-4h9c2 0 3 2 3 4v23c0 2 2 3 4 3h8c2 0 4 2 4 4v9c0 2-2 4-4 4h-9c-2 0-4-2-4-4v-7c0-2-1-4-3-4z" opacity=".2"/><path d="M2121 102h-8c-2 0-4-2-4-4V74c0-2 2-4 4-4h9c2 0 3 2 3 4v23c0 2 2 3 4 3h8c2 0 4 2 4 4v9c0 2-2 4-4 4h-9c-2 0-4-2-4-4v-7c0-2-1-4-3-4z" opacity=".4"/><path d="M2170 85h9c2 0 4 2 4 4v9c0 2-2 4-4 4h-8c-2 0-3 2-3 4v7c0 2-2 4-4 4h-9c-2 0-4-2-4-4v-9c0-2 2-4 4-4h8c2 0 3-1 3-3v-8c0-2 2-4 4-4z" opacity=".5"/><path d="M2224 117h-12c-2 0-4-2-4-4V74c0-2 2-4 4-4h9c2 0 4 2 4 4v23c0 2 2 3 4 3h7c3 0 4 2 4 4v9c0 2-1 4-4 4h-12zM2263 117h-9c-2 0-3-2-3-4V74c0-2 1-4 3-4h9c2 0 4 2 4 4v39c0 2-2 4-4 4zM2296 100h9c2 0 4 2 4 4v9c0 2-2 4-4 4h-9c-2 0-3-2-3-4v-9c0-2 1-4 3-4z" opacity=".9"/><path d="M2346 102h-8c-2 0-3-2-3-4V74c0-2 1-4 3-4h9c2 0 4 2 4 4v8c0 2 2 3 4 3h8c2 0 3 2 3 4v24c0 2-1 4-3 4h-9c-2 0-4-2-4-4v-7c0-2-2-4-4-4z" opacity=".3"/><path d="M2389 117h-9c-2 0-3-2-3-4v-9c0-2 1-4 3-4h8c2 0 4-1 4-3v-8c0-2 2-4 4-4h9c2 0 3 2 3 4v9c0 2-1 4-3 4h-8c-2 0-4 2-4 4v7c0 2-1 4-4 4z" opacity=".9"/><path d="M2432 117h-9c-2 0-4-2-4-4v-9c0-2 2-4 4-4h9c2 0 3 2 3 4v9c0 2-1 4-3 4z" opacity=".7"/><path d="M15 46H4c-2 0-4-1-4-3v-9c0-3 2-4 4-4h8c2 0 3-2 3-4v-6c0-2-1-4-3-4H4c-2 0-4-1-4-3V4c0-2 2-4 4-4h9c2 0 3 2 3 4v7c0 2 2 4 4 4h8c2 0 4 2 4 4v24c0 2-2 3-4 3H15z" opacity=".2"/><path d="M55 46h-9c-2 0-4-1-4-3v-9c0-3 2-4 4-4h8c2 0 3-2 3-4v-6c0-2-1-4-3-4h-8c-2 0-4-1-4-3V4c0-2 2-4 4-4h9c2 0 3 2 3 4v7c0 2 2 4 4 4h8c2 0 4 2 4 4v9c0 2-2 3-4 3h-8c-2 0-4 2-4 4v8c0 2-1 3-3 3z" opacity=".9"/><path d="M99 46H88c-2 0-4-1-4-3v-9c0-3 2-4 4-4h8c2 0 3-2 3-4v-6c0-2-1-4-3-4h-8c-2 0-4-1-4-3V4c0-2 2-4 4-4h9c2 0 4 2 4 4v7c0 2 1 4 3 4h8c2 0 4 2 4 4v24c0 2-2 3-4 3H99z" opacity=".2"/><path d="M126 13V4c0-2 2-4 4-4h24c2 0 4 2 4 4v9c0 2-2 3-4 3h-24c-2 0-4-1-4-3z" opacity=".6"/><path d="M139 46h-9c-2 0-4-1-4-3v-9c0-3 2-4 4-4h9c2 0 4 1 4 4v9c0 2-2 3-4 3z" opacity=".4"/><path d="M172 0h9c2 0 4 2 4 4v9c0 2-2 3-4 3h-9c-2 0-4-1-4-3V4c0-2 2-4 4-4z"/><path d="M184 46h-12c-2 0-4-1-4-3v-9c0-3 2-4 4-4h24c2 0 4 2 4 4v9c0 2-2 3-4 3h-12z" opacity=".6"/><path d="M214 0h9c2 0 4 2 4 4v9c0 2-2 3-4 3h-9c-2 0-4-1-4-3V4c0-2 2-4 4-4z" opacity=".7"/><path d="M226 46h-12c-2 0-4-1-4-3v-9c0-3 2-4 4-4h24c2 0 4 2 4 4v9c0 2-2 3-4 3h-12z" opacity=".6"/><path d="M268 46h-12c-2 0-4-1-4-3v-9c0-3 2-4 4-4h8c2 0 4-2 4-4v-6c0-2-2-4-4-4h-8c-2 0-4-1-4-3V4c0-2 2-4 4-4h24c3 0 4 2 4 4v39c0 2-1 3-4 3h-12z" opacity=".3"/><path d="M321 31h-8c-2 0-3-1-3-3v-9c0-2 1-4 3-4h10c2 0 3 2 3 4v7c0 2 2 4 4 4h8c2 0 3 2 3 4v9c0 2-1 3-3 3h-9c-2 0-4-1-4-3v-8c0-2-2-4-4-4z" opacity=".6"/><path d="M367 46h-11c-2 0-4-1-4-3v-9c0-3 2-4 4-4h7c3 0 4-2 4-4v-7c0-2 2-4 4-4h9c2 0 4 2 4 4v24c0 2-2 3-4 3h-13z" opacity=".7"/><path d="M449 46h-11c-3 0-4-1-4-3V19c0-2 1-4 4-4h9c2 0 3 2 3 4v7c0 2 2 4 4 4h8c2 0 4 2 4 4v9c0 2-2 3-4 3h-13z" opacity=".2"/><path d="M480 30h9c2 0 3 1 3 4v9c0 2-1 3-3 3h-9c-2 0-4-1-4-3v-9c0-3 2-4 4-4z" opacity=".3"/><path d="M533 46h-11c-2 0-4-1-4-3v-9c0-3 2-4 4-4h24c2 0 4 2 4 4v9c0 2-2 3-4 3h-13z" opacity=".9"/><path d="M572 31h-8c-2 0-4-1-4-3v-9c0-2 2-4 4-4h9c2 0 3 2 3 4v7c0 2 2 4 4 4h8c2 0 4 2 4 4v9c0 2-2 3-4 3h-9c-2 0-4-1-4-3v-8c0-2-1-4-3-4z" opacity=".6"/><path d="M606 0h9c2 0 4 2 4 4v39c0 2-2 3-4 3h-9c-2 0-4-1-4-3V4c0-2 2-4 4-4z" opacity=".8"/><path d="M656 31h-8c-2 0-4-1-4-3v-9c0-2 2-4 4-4h9c2 0 4 2 4 4v7c0 2 1 4 3 4h8c2 0 4 2 4 4v9c0 2-2 3-4 3h-9c-2 0-3-1-3-3v-8c0-2-2-4-4-4z" opacity=".9"/><path d="M698 31h-8c-2 0-4-1-4-3V4c0-2 2-4 4-4h9c2 0 4 2 4 4v22c0 2 1 4 3 4h8c2 0 4 2 4 4v9c0 2-2 3-4 3h-9c-2 0-3-1-3-3v-8c0-2-2-4-4-4zM740 31h-8c-2 0-4-1-4-3v-9c0-2 2-4 4-4h9c2 0 4 2 4 4v7c0 2 1 4 3 4h8c2 0 4 2 4 4v9c0 2-2 3-4 3h-9c-2 0-3-1-3-3v-8c0-2-2-4-4-4zM782 31h-8c-2 0-4-1-4-3V4c0-2 2-4 4-4h9c2 0 4 2 4 4v22c0 2 2 4 4 4h7c2 0 4 2 4 4v9c0 2-2 3-4 3h-9c-2 0-3-1-3-3v-8c0-2-2-4-4-4z" opacity=".4"/><path d="M843 46h-12c-2 0-3-1-3-3v-9c0-3 1-4 3-4h8c2 0 4-2 4-4v-6c0-2-2-4-4-4h-8c-2 0-3-1-3-3V4c0-2 1-4 3-4h10c2 0 3 2 3 4v7c0 2 2 4 4 4h8c2 0 3 2 3 4v24c0 2-1 3-3 3h-13zM883 46h-9c-2 0-4-1-4-3v-9c0-3 2-4 4-4h7c3 0 4-2 4-4v-6c0-2-1-4-4-4h-7c-2 0-4-1-4-3V4c0-2 2-4 4-4h9c2 0 3 2 3 4v7c0 2 2 4 4 4h8c2 0 4 2 4 4v9c0 2-2 3-4 3h-8c-2 0-4 2-4 4v8c0 2-1 3-3 3z" opacity=".6"/><path d="M927 46h-11c-2 0-4-1-4-3v-9c0-3 2-4 4-4h8c2 0 3-2 3-4v-6c0-2-1-4-3-4h-8c-2 0-4-1-4-3V4c0-2 2-4 4-4h9c2 0 3 2 3 4v7c0 2 2 4 4 4h8c2 0 4 2 4 4v24c0 2-2 3-4 3h-13z" opacity=".7"/><path d="M998 15h9c2 0 3 2 3 4v24c0 2-1 3-3 3h-9c-2 0-4-1-4-3V19c0-2 2-4 4-4z" opacity=".5"/><path d="M1040 0h9c2 0 3 2 3 4v39c0 2-1 3-3 3h-9c-2 0-4-1-4-3V4c0-2 2-4 4-4zM1082 30h9c2 0 3 1 3 4v9c0 2-1 3-3 3h-9c-2 0-4-1-4-3v-9c0-3 2-4 4-4z" opacity=".2"/><path d="M1135 46h-11c-2 0-4-1-4-3v-9c0-3 2-4 4-4h8c2 0 3-2 3-4v-6c0-2-1-4-3-4h-8c-2 0-4-1-4-3V4c0-2 2-4 4-4h9c2 0 4 2 4 4v7c0 2 1 4 3 4h8c2 0 4 2 4 4v24c0 2-2 3-4 3h-13zM1178 46h-12c-2 0-4-1-4-3v-9c0-3 2-4 4-4h8c2 0 4-2 4-4v-7c0-2 1-4 3-4h9c2 0 4 2 4 4v24c0 2-2 3-4 3h-12z" opacity=".6"/><path d="M1216 31h-8c-2 0-4-1-4-3v-9c0-2 2-4 4-4h9c2 0 4 2 4 4v7c0 2 1 4 3 4h8c2 0 4 2 4 4v9c0 2-2 3-4 3h-9c-2 0-3-1-3-3v-8c0-2-2-4-4-4z" opacity=".4"/><path d="M1258 31h-8c-2 0-4-1-4-3V4c0-2 2-4 4-4h9c2 0 4 2 4 4v7c0 2 1 4 3 4h8c2 0 4 2 4 4v24c0 2-2 3-4 3h-9c-2 0-3-1-3-3v-8c0-2-2-4-4-4z"/><path d="M1307 30h9c2 0 4 1 4 4v9c0 2-2 3-4 3h-9c-2 0-3-1-3-3v-9c0-3 1-4 3-4zM1361 46h-12c-2 0-3-1-3-3v-9c0-3 1-4 3-4h25c2 0 3 2 3 4v9c0 2-1 3-3 3h-13z" opacity=".4"/><path d="M1443 46h-12c-2 0-3-1-3-3v-9c0-3 1-4 3-4h8c2 0 4-2 4-4v-7c0-2 2-4 4-4h9c2 0 3 2 3 4v24c0 2-1 3-3 3h-13z" opacity=".3"/><path d="M1483 46h-9c-3 0-4-1-4-3v-9c0-3 1-4 4-4h7c2 0 4-2 4-4v-6c0-2-2-4-4-4h-7c-3 0-4-1-4-3V4c0-2 1-4 4-4h9c2 0 3 2 3 4v7c0 2 2 4 4 4h8c2 0 4 2 4 4v9c0 2-2 3-4 3h-8c-2 0-4 2-4 4v8c0 2-1 3-3 3z" opacity=".4"/><path d="M1516 0h9c2 0 3 2 3 4v39c0 2-1 3-3 3h-9c-2 0-4-1-4-3V4c0-2 2-4 4-4z" opacity=".3"/><path d="M1567 46h-9c-2 0-4-1-4-3v-9c0-3 2-4 4-4h8c2 0 3-2 3-4v-6c0-2-1-4-3-4h-8c-2 0-4-1-4-3V4c0-2 2-4 4-4h9c2 0 3 2 3 4v7c0 2 2 4 4 4h8c2 0 4 2 4 4v9c0 2-2 3-4 3h-8c-2 0-4 2-4 4v8c0 2-1 3-3 3z" opacity=".7"/><path d="M1609 46h-9c-2 0-4-1-4-3V4c0-2 2-4 4-4h9c2 0 3 2 3 4v7c0 2 2 4 4 4h8c2 0 4 2 4 4v9c0 2-2 3-4 3h-8c-2 0-4 2-4 4v8c0 2-1 3-3 3z" opacity=".9"/><path d="M1690 31h-8c-2 0-4-1-4-3V4c0-2 2-4 4-4h9c2 0 3 2 3 4v22c0 2 2 4 4 4h8c2 0 4 2 4 4v9c0 2-2 3-4 3h-9c-2 0-4-1-4-3v-8c0-2-1-4-3-4z" opacity=".8"/><path d="M1720 13V4c0-2 2-4 4-4h24c2 0 4 2 4 4v9c0 2-2 3-4 3h-24c-2 0-4-1-4-3z" opacity=".4"/><path d="M1724 30h9c2 0 4 1 4 4v9c0 2-2 3-4 3h-9c-2 0-4-1-4-3v-9c0-3 2-4 4-4z" opacity=".5"/><path d="M1774 31h-8c-2 0-4-1-4-3V4c0-2 2-4 4-4h9c2 0 4 2 4 4v22c0 2 1 4 3 4h8c2 0 4 2 4 4v9c0 2-2 3-4 3h-9c-2 0-4-1-4-3v-8c0-2-1-4-3-4z" opacity=".2"/><path d="M1820 46h-12c-2 0-4-1-4-3V4c0-2 2-4 4-4h9c2 0 4 2 4 4v22c0 2 1 4 3 4h8c2 0 4 2 4 4v9c0 2-2 3-4 3h-12z" opacity=".4"/><path d="M1859 46h-9c-2 0-4-1-4-3v-9c0-3 2-4 4-4h8c2 0 4-2 4-4v-7c0-2 1-4 3-4h9c2 0 4 2 4 4v9c0 2-2 3-4 3h-8c-2 0-3 2-3 4v8c0 2-2 3-4 3z" opacity=".8"/><path d="M1904 46h-12c-2 0-4-1-4-3v-9c0-3 2-4 4-4h8c2 0 4-2 4-4v-6c0-2-2-4-4-4h-8c-2 0-4-1-4-3V4c0-2 2-4 4-4h9c2 0 4 2 4 4v7c0 2 1 4 4 4h7c2 0 4 2 4 4v24c0 2-2 3-4 3h-12z" opacity=".4"/><path d="M1946 46h-12c-2 0-3-1-3-3v-9c0-3 1-4 3-4h8c2 0 4-2 4-4v-7c0-2 1-4 3-4h10c2 0 3 2 3 4v24c0 2-1 3-3 3h-13z" opacity=".2"/><path d="M1984 31h-8c-2 0-3-1-3-3v-9c0-2 1-4 3-4h9c2 0 4 2 4 4v7c0 2 2 4 4 4h8c2 0 3 2 3 4v9c0 2-1 3-3 3h-9c-2 0-4-1-4-3v-8c0-2-2-4-4-4z" opacity=".4"/><path d="M2026 31h-8c-2 0-3-1-3-3V4c0-2 1-4 3-4h9c2 0 4 2 4 4v22c0 2 2 4 4 4h8c2 0 3 2 3 4v9c0 2-1 3-3 3h-9c-2 0-4-1-4-3v-8c0-2-2-4-4-4z"/><path d="M2068 31h-8c-2 0-3-1-3-3V4c0-2 1-4 3-4h9c2 0 4 2 4 4v22c0 2 2 4 4 4h8c2 0 3 2 3 4v9c0 2-1 3-3 3h-9c-2 0-4-1-4-3v-8c0-2-2-4-4-4z" opacity=".3"/><path d="M2112 46h-10c-2 0-3-1-3-3v-9c0-3 1-4 3-4h8c2 0 4-2 4-4v-7c0-2 2-4 4-4h9c2 0 4 2 4 4v9c0 2-2 3-4 3h-8c-2 0-4 2-4 4v8c0 2-1 3-3 3z" opacity=".4"/><path d="M2171 46h-11c-2 0-4-1-4-3V4c0-2 2-4 4-4h9c2 0 4 2 4 4v22c0 2 1 4 3 4h8c2 0 4 2 4 4v9c0 2-2 3-4 3h-13z" opacity=".2"/><path d="M2211 46h-9c-2 0-4-1-4-3v-9c0-3 2-4 4-4h8c2 0 4-2 4-4v-6c0-2-2-4-4-4h-8c-2 0-4-1-4-3V4c0-2 2-4 4-4h9c2 0 4 2 4 4v7c0 2 1 4 3 4h8c2 0 4 2 4 4v9c0 2-2 3-4 3h-8c-2 0-3 2-3 4v8c0 2-2 3-4 3z" opacity=".9"/><path d="M2252 31h-8c-2 0-4-1-4-3V4c0-2 2-4 4-4h9c2 0 4 2 4 4v7c0 2 1 4 3 4h8c2 0 4 2 4 4v24c0 2-2 3-4 3h-9c-2 0-3-1-3-3v-8c0-2-2-4-4-4z" opacity=".6"/><path d="M2295 46h-9c-2 0-4-1-4-3v-9c0-3 2-4 4-4h8c2 0 4-2 4-4v-7c0-2 1-4 3-4h9c2 0 4 2 4 4v9c0 2-2 3-4 3h-8c-2 0-3 2-3 4v8c0 2-2 3-4 3z" opacity=".9"/><path d="M2340 46h-12c-2 0-4-1-4-3v-9c0-3 2-4 4-4h8c2 0 4-2 4-4v-6c0-2-2-4-4-4h-8c-2 0-4-1-4-3V4c0-2 2-4 4-4h9c2 0 4 2 4 4v7c0 2 2 4 4 4h7c2 0 4 2 4 4v24c0 2-2 3-4 3h-12z" opacity=".8"/><path d="M2378 31h-8c-2 0-3-1-3-3V4c0-2 1-4 3-4h9c2 0 4 2 4 4v7c0 2 2 4 4 4h8c2 0 3 2 3 4v24c0 2-1 3-3 3h-9c-3 0-4-1-4-3v-8c0-2-2-4-4-4z" opacity=".4"/><path d="M2420 39c-2 0-4-2-4-4s-1-4-3-4h-1c-2 0-3-1-3-3v-9c0-2 1-4 3-4h9c2 0 4 2 4 4s2 3 4 3 4 2 4 4 1 4 3 4h1c2 0 3 2 3 4v9c0 2-1 3-3 3h-9c-2 0-4-1-4-3s-2-4-4-4z" opacity=".9"/></g></svg>