<svg width="808" height="414" viewBox="0 0 808 414" fill="none" xmlns="http://www.w3.org/2000/svg">
<g clip-path="url(#clip0_28040_301869)">
<mask id="mask0_28040_301869" style="mask-type:luminance" maskUnits="userSpaceOnUse" x="0" y="0" width="808" height="414">
<path d="M808 0H0V414H808V0Z" fill="white"/>
</mask>
<g mask="url(#mask0_28040_301869)">
<path d="M808 0H0V414H808V0Z" fill="#191919"/>
<g style="mix-blend-mode:color-dodge">
<path d="M808 108H0V288H808V108Z" fill="url(#paint0_linear_28040_301869)"/>
</g>
<g style="mix-blend-mode:color-dodge">
<path d="M251.378 144H71.8223V324H251.378V144Z" fill="url(#paint1_linear_28040_301869)"/>
</g>
<g style="mix-blend-mode:color-dodge">
<path d="M215.467 198H0V414H215.467V198Z" fill="url(#paint2_linear_28040_301869)"/>
</g>
<g style="mix-blend-mode:color-dodge">
<path d="M0 0H808V180H0V0Z" fill="url(#paint3_linear_28040_301869)"/>
</g>
<g style="mix-blend-mode:color-dodge">
<path d="M556.623 36H736.178V216H556.623V36Z" fill="url(#paint4_linear_28040_301869)"/>
</g>
<g style="mix-blend-mode:color-dodge">
<path d="M592.534 89.9998H808.001V306H592.534V89.9998Z" fill="url(#paint5_linear_28040_301869)"/>
</g>
</g>
<path d="M304.796 247.048C305.405 247.161 305.29 246.087 305.328 245.883C304.256 246 304.739 247.353 304.796 247.048Z" fill="#1161FE"/>
<path d="M294.231 249.084L294.408 248.696L292.843 249.773L294.231 249.084Z" fill="#1161FE"/>
<path d="M284.426 248.733C285.221 250.67 288.028 248.561 289.678 249.289L289.907 249.752L290.799 248.34C288.694 248.369 285.91 249.22 284.426 248.733Z" fill="#1161FE"/>
<path d="M279.448 244.44C279.722 245.227 278.282 245.065 280.666 244.666C280.565 244.647 280.482 244.527 280.501 244.425C280.076 244.451 279.753 244.496 279.448 244.44Z" fill="#1161FE"/>
<path d="M280.38 244.509C279.764 243.868 281.433 244.494 280.38 244.509V244.509Z" fill="#1161FE"/>
<path d="M275.706 244.796L277.076 244.209C276.847 243.745 275.61 243.621 276.092 243.289C274.677 243.553 274.906 244.016 275.706 244.796Z" fill="#1161FE"/>
<path d="M274.325 246.013L275.009 245.719C274.927 245.599 274.724 245.561 274.325 246.013Z" fill="#1161FE"/>
<path d="M276.563 245.272L275.111 245.739C275.257 246.081 275.245 246.711 275.777 245.547C275.644 246.259 275.961 245.686 276.563 245.272Z" fill="#1161FE"/>
<path d="M277.439 245.645C278.194 246.101 279.19 246.391 277.719 246.96C280.269 246.803 280.007 245.386 277.439 245.645Z" fill="#1161FE"/>
<path d="M283.863 250.628L284.903 251.243L285.848 250.682C285.385 250.911 283.856 250.101 283.863 250.628Z" fill="#1161FE"/>
<path d="M267.142 243.415C267.066 243.822 267.562 244.545 267.689 244.99L268.716 244.55C268.024 244.316 267.13 244.044 267.142 243.415Z" fill="#1161FE"/>
<path d="M267.689 244.991L266.218 245.56C267.436 245.786 267.797 245.538 267.689 244.991Z" fill="#1161FE"/>
<path d="M274.029 248.169L276.482 246.836L273.503 248.176L274.029 248.169Z" fill="#1161FE"/>
<path d="M261.751 243.044L262.65 242.159L261.148 243.458L261.751 243.044Z" fill="#1161FE"/>
<path d="M258.204 242.912C258.863 242.193 257.518 241.521 258.221 241.126C257.251 241.261 256.345 241.619 255.502 242.199C255.946 242.071 256.472 242.064 256.961 242.26C257.348 242.437 257.836 242.633 258.204 242.912Z" fill="#1161FE"/>
<path d="M254.095 242.989C254.558 242.759 255.02 242.529 255.483 242.3C254.938 242.409 254.475 242.639 254.095 242.989Z" fill="#1161FE"/>
<path d="M263.745 245.309C263.681 245.087 263.516 244.846 263.351 244.605C263.185 244.363 262.9 244.205 262.697 244.167L263.218 245.317L263.745 245.309Z" fill="#1161FE"/>
<path d="M263.846 245.329L263.744 245.31C263.744 245.31 263.827 245.431 263.846 245.329Z" fill="#1161FE"/>
<path d="M270.064 246.905C269.119 247.466 267.306 248.181 269.02 249.132C269.679 248.412 268.638 247.798 270.064 246.905Z" fill="#1161FE"/>
<path d="M264.533 246.719L266.055 247.002C266.112 246.697 265.781 246.214 266.244 245.985L264.533 246.719Z" fill="#1161FE"/>
<path d="M263.727 247.096L264.513 246.822L263.904 246.708L263.727 247.096Z" fill="#1161FE"/>
<path d="M256.583 244.294C255.898 244.587 255.029 244.741 254.319 244.609C255.093 244.964 256.006 245.134 256.818 245.285C257.199 244.934 257.515 244.362 256.583 244.294Z" fill="#1161FE"/>
<path d="M259.831 244.899L259.729 244.88C259.729 244.88 259.793 245.103 259.831 244.899Z" fill="#1161FE"/>
<path d="M246.224 243.525L246.288 243.749L246.326 243.544L246.224 243.525Z" fill="#1161FE"/>
<path d="M257.085 245.545C257.269 245.684 257.592 245.639 257.897 245.696C258.119 245.632 258.341 245.568 258.6 245.3C258.055 245.409 257.529 245.417 257.021 245.322C256.901 245.405 256.882 245.507 257.085 245.545Z" fill="#1161FE"/>
<path d="M251.748 243.185C252.116 243.464 252.383 243.724 252.77 243.901C252.522 243.54 252.008 242.918 251.748 243.185Z" fill="#1161FE"/>
<path d="M259.462 244.619C259.417 244.294 259.379 244.498 259.462 244.619V244.619Z" fill="#1161FE"/>
<path d="M259.462 244.618C259.12 244.765 258.86 245.033 258.518 245.179C258.943 245.153 259.285 245.006 259.628 244.859L259.462 244.618Z" fill="#1161FE"/>
<path d="M242.565 250.214C242.724 249.927 242.983 249.66 243.345 249.411C243.706 249.163 244.029 249.118 244.353 249.072C244.676 249.027 245.082 249.103 245.368 249.261C245.653 249.42 246.041 249.597 246.206 249.838C247.778 249.288 247.387 245.742 246.307 243.647C246.212 244.155 246.136 244.562 244.5 244.89C244.913 245.493 247.725 246.752 246.235 247.423C244.091 247.656 244.566 246.797 243.848 246.137C244.535 247.528 240.952 247.598 241.017 249.505L242.977 249.132C243.002 249.558 242.197 249.935 242.565 250.214Z" fill="#1161FE"/>
<path d="M249.333 244.314L249.961 244.326C249.205 243.869 248.57 243.33 247.973 242.588C246.864 242.908 246.585 243.277 246.427 243.563L249.472 244.13L249.333 244.314Z" fill="#1161FE"/>
<path d="M252.638 244.613C252.024 245.657 250.387 245.984 251.194 247.292C253.059 247.428 252.602 246.501 253.813 246.2C250.775 246.162 254.738 245.741 252.701 244.836C253.247 244.727 253.773 244.719 254.299 244.712C253.811 244.516 253.322 244.32 252.853 244.022C252.954 244.041 253.018 244.263 252.853 244.022L252.675 244.41C251.901 244.056 252.732 244.105 252.853 244.022L252.89 243.818L249.897 244.104C250.792 244.376 251.705 244.545 252.638 244.613Z" fill="#1161FE"/>
<path d="M267.31 251.551C267.227 251.43 267.246 251.328 267.246 251.328C267.024 251.392 266.904 251.475 267.31 251.551Z" fill="#1161FE"/>
<path d="M266.066 250.898C266.307 250.732 266.484 250.344 267.194 250.476C267.905 250.609 267.1 250.985 267.227 251.43C267.69 251.2 268.736 250.658 267.473 250.107L267.232 250.273C266.052 249.843 264.554 248.301 264.775 248.237C265.049 249.025 265.386 250.035 266.066 250.898Z" fill="#1161FE"/>
<path d="M259.225 248.154L256.638 248.515L257.806 249.574L257.919 248.964C259.017 249.273 258.946 248.523 259.225 248.154Z" fill="#1161FE"/>
<path d="M246.014 242.96L246.546 241.796L244.905 243.28L246.014 242.96Z" fill="#1161FE"/>
<path d="M242.83 242.579L243.12 241.58L242.195 242.04L242.83 242.579Z" fill="#1161FE"/>
<path d="M74.2643 165.875C73.9598 165.819 73.7946 165.578 73.509 165.419C73.7757 165.679 73.9598 165.819 74.2643 165.875Z" fill="#1161FE"/>
<path d="M77.9858 170.146L78.4485 169.916C78.1251 169.961 77.9032 170.025 77.9858 170.146Z" fill="#1161FE"/>
<path d="M166.976 218.478C166.474 217.227 166.104 215.263 165.693 216.345L165.485 217.464C166.094 217.577 166.646 217.996 166.976 218.478Z" fill="#1161FE"/>
<path d="M116.146 195.345L116.273 195.79L117.522 195.285L116.146 195.345Z" fill="#1161FE"/>
<path d="M112.788 198.719L112 197.31C112.21 197.875 112.439 198.339 112.788 198.719Z" fill="#1161FE"/>
<path d="M49.1266 129.942L46.3394 127.424C47.5404 129.436 48.022 129.105 49.1266 129.942Z" fill="#1161FE"/>
<path d="M210.252 235.364C209.617 234.825 208.963 234.388 208.189 234.033C209.173 234.953 209.676 236.204 210.252 235.364Z" fill="#1161FE"/>
<path d="M84.7924 159.517C84.2849 159.423 84.0819 159.385 83.8411 159.551C84.3297 159.747 84.6342 159.804 84.7924 159.517Z" fill="#1161FE"/>
<path d="M205.708 233.257C205.791 233.378 205.975 233.517 206.057 233.638C206.787 233.668 207.497 233.801 208.189 234.034C207.941 233.673 207.472 233.375 207.084 233.197C206.678 233.122 206.152 233.129 205.708 233.257Z" fill="#1161FE"/>
<path d="M70.7053 153.953L70.6486 154.258C70.6486 154.258 70.7879 154.073 70.7053 153.953Z" fill="#1161FE"/>
<path d="M64.4566 186.997C64.4307 186.571 64.386 186.247 64.3601 185.821C64.2844 186.228 64.3103 186.654 64.4566 186.997Z" fill="#1161FE"/>
<path d="M232.468 244.652C232.348 244.735 232.246 244.716 232.227 244.818C232.209 244.919 232.088 245.002 232.069 245.104C232.107 244.9 232.246 244.716 232.468 244.652Z" fill="#1161FE"/>
<path d="M196.841 238.028C196.943 238.047 196.924 238.149 196.841 238.028V238.028Z" fill="#1161FE"/>
<path d="M230.972 240.269C230.706 240.009 230.522 239.87 230.236 239.711C230.503 239.971 230.687 240.111 230.972 240.269Z" fill="#1161FE"/>
<path d="M230.985 239.64L231.594 239.753C231.695 239.772 231.511 239.632 230.985 239.64Z" fill="#1161FE"/>
<path d="M229.139 239.403C229.545 239.478 229.849 239.535 230.217 239.814L230.052 239.573C230.173 239.49 229.646 239.497 229.139 239.403Z" fill="#1161FE"/>
<path d="M83.4489 143.585L83.2459 143.547C82.4597 143.822 82.8846 143.796 83.4489 143.585Z" fill="#1161FE"/>
<path d="M142.748 219.447C144.339 218.795 144.892 219.214 145.286 219.919L146.214 216.618L142.748 219.447Z" fill="#1161FE"/>
<path d="M64.1335 153.152C64.2867 154.022 64.5414 154.912 64.7772 155.903C61.0386 153.419 59.7669 150.656 60.0683 153.554C62.0914 153.404 63.9462 155.854 65.6806 158.386C66.195 159.008 66.608 159.611 67.0209 160.214C67.2687 160.576 67.6369 160.855 68.024 161.032C68.2907 161.293 68.6967 161.368 69.0201 161.323C69.3435 161.278 69.7684 161.252 70.0282 160.984L70.1883 162.382C70.042 162.039 69.7823 162.307 69.655 161.862C69.8359 164.843 72.7499 161.595 74.3449 164.313C74.7837 165.342 74.9371 166.211 74.0424 165.939L76.346 167.106C76.7589 167.709 76.1946 167.919 75.7628 167.418L78.3472 169.897C79.2796 169.965 80.1932 170.135 81.0878 170.407C81.3236 171.398 80.4788 170.294 80.3842 170.802L82.4399 171.607C82.3144 172.846 80.5252 172.303 79.6993 171.097C78.3715 174.85 81.4887 171.639 82.8826 176.003L81.1878 174.952C80.5498 177.255 82.136 177.76 82.8175 180.308C82.9688 179.494 82.0187 175.002 84.1572 175.926C84.2846 176.37 84.5324 176.732 84.9005 177.011C85.2687 177.29 85.6558 177.467 86.1633 177.562C85.2637 178.447 86.3235 178.96 87.5106 179.917L86.2497 181.051C87.6966 181.741 88.2539 181.003 89.3894 181.108C90.5198 182.371 89.8679 183.618 89.4568 184.7C91.2857 186.724 89.46 181.858 92.0373 183.811C93.498 185.556 95.4594 186.868 97.6924 187.283C98.4805 188.693 96.8497 187.862 96.9203 188.612L98.8419 188.443C99.1086 188.703 98.7472 188.953 98.5253 189.017C99.7433 189.243 99.7036 187.762 101.233 188.573C102.716 187.375 102.507 193.019 105.583 192.854C105.774 193.521 104.721 193.537 104.506 194.128C106.378 194.792 108.427 195.068 110.431 195.019L111.492 197.217C110.919 195.215 113.431 195.261 115.619 195.353C115.53 194.704 115.44 194.056 115.351 193.408L118.136 194.242C118.264 194.686 117.68 194.999 116.894 195.274C117.097 195.312 117.319 195.248 117.522 195.285C117.961 196.314 117.017 196.875 115.907 197.195L115.645 195.777C114.517 196.199 113.268 196.705 112.774 197.665C113.098 197.62 113.504 197.696 113.789 197.854C113.447 198.001 113.206 198.167 113.187 198.268C113.149 198.472 113.593 198.344 114.24 198.254L113.678 200.148L114.299 199.633L116.668 202.705C119.928 202.679 123.479 201.655 127.369 203.326C125.796 203.876 125.994 205.07 125 206.464C124.972 204.354 121.865 205.25 120.145 203.772C121.046 204.571 120.324 205.068 119.899 205.095L124.061 205.868C123.225 206.976 124.24 207.165 124.78 208.212C125.557 205.726 128.224 208.327 130.089 208.463C129.735 209.239 128.892 209.819 127.438 208.601C128.183 211.371 131.432 207.449 132.317 210.035C131.847 209.737 131.784 209.515 131.302 209.846C132.678 209.786 134.628 211.727 133.721 212.085L133.353 211.806C135.93 213.759 141.559 216.805 143.137 215.099C142.459 215.92 141.8 216.64 141.04 217.34L149.719 213.586C148.3 215.006 147.696 219.946 144.835 219.519C145.166 220.002 145.616 220.401 146.105 220.597C146.575 220.895 147.184 221.008 147.71 221.001C147.38 220.519 147.954 217.994 148.665 218.126C149.308 220.877 149.294 219.822 150.465 222.566C149.969 221.842 152.269 219.638 153.171 220.437C152.809 220.686 151.848 223.033 151.302 223.143L155.38 222.111C154.53 222.164 154.031 224.281 154.267 225.272C154.38 224.662 156.653 226.558 157.465 226.709L156.639 225.503C159.521 227.512 161.533 223.466 164.491 225.068C163.787 225.464 161.856 227.946 163.328 229.062C164.773 228.068 169.602 224.124 172.742 224.181L172.876 225.154L175.286 225.181C171.952 227.297 168.39 228.951 164.7 230.159C165.525 231.365 164.51 231.177 166.344 232.044C166.682 233.054 164.855 232.714 164.265 232.499C165.572 233.374 166.899 234.146 168.225 234.918C168.75 233.227 172.151 234.702 172.517 233.297L167.227 232.945C168.063 231.837 169.267 231.007 170.599 230.623C171.931 230.239 173.37 230.403 174.614 231.055C175.053 232.084 172.867 233.677 172.652 234.269C173.254 233.855 175.893 234.345 176.001 234.892L174.365 235.219C175.8 236.538 177.935 234.093 179.263 236.551C179.917 236.988 180.516 239.415 180.991 238.556C180.987 235.187 181.998 232.007 183.885 229.2C185.117 230.482 186.21 231.948 187.163 233.599C187.755 235.498 184.204 236.522 184.631 238.18C184.827 237.69 185.715 237.434 186.038 237.389C186.654 238.03 185.164 238.7 186.89 239.021C187.719 237.386 190.005 240.337 188.151 237.887C189.813 237.986 189.661 238.8 191.552 239.362C191.373 238.065 194.447 236.216 196.128 236.213C195.932 236.703 195.958 237.128 196.186 237.592C199.22 238.787 200.775 240.024 203.624 241.08C203.732 241.626 205.04 242.501 204.197 243.081C204.799 242.666 205.547 242.595 206.277 242.625C207.579 244.657 204.145 242.229 204.985 244.49C205.377 243.511 207.731 243.843 209.265 243.497C209.263 241.812 206.334 242.32 204.799 242.666C205.399 240.568 208.315 239.005 211.696 238.897C214.29 239.063 212.326 240.592 212.89 240.382C217.427 241.962 217.815 237.613 221.23 240.143C222.386 241.831 220.719 242.89 220.733 243.945C218.526 243.956 217.896 242.26 216.475 241.995L218.05 243.129C217.606 243.257 217.06 243.367 216.553 243.273C216.045 243.179 215.538 243.084 215.169 242.805C216.541 243.902 218.21 244.528 219.834 244.83C222.067 245.245 224.224 246.067 226.344 247.093C227.13 246.818 228.341 246.517 227.928 245.914L226.774 245.91C225.967 244.602 229.272 244.901 227.964 244.026C228.89 243.567 229.777 243.311 230.83 243.296C231.781 243.262 232.796 243.451 233.691 243.723L233.794 245.426C233.889 244.917 232.563 244.144 231.859 244.54C232.905 243.997 234.691 247.382 236.084 245.536L234.77 244.133C236.444 243.602 238.694 242.232 240.407 243.182C239.879 241.505 239.964 243.309 238.883 241.213C239.584 243.659 234.011 240.309 235.504 243.007C234.582 240.625 233.239 241.638 231.872 239.384C231.778 239.892 232.292 240.515 230.725 239.908C230.585 240.093 230.465 240.176 230.243 240.24C230.51 240.5 230.758 240.862 230.904 241.205C229.884 242.173 227.365 241.598 226.338 242.039C225.481 241.564 226.858 241.505 226.546 240.921L225.075 241.489C225.283 240.37 223.017 239.002 225.345 238.908L223.353 238.326C222.921 237.825 222.248 237.49 221.658 237.275C221.068 237.06 220.358 236.928 219.711 237.019C218.854 236.543 216.965 237.666 218.03 237.022L214.789 236.946L214.883 236.437C211.914 235.464 208.04 236.533 205.246 233.487C203.869 233.547 202.569 233.2 201.426 232.567L201.412 231.512C199.954 231.451 197.839 229.268 196.958 230.052C196.473 227.015 190.949 227.356 188.886 226.025L188.354 227.189C186.686 226.563 184.96 226.242 183.197 226.125L182.989 227.244C180.946 227.496 179.028 224.824 176.502 223.723C176.883 223.372 177.416 223.893 177.765 224.273C175.852 220.444 170.502 223.239 168.659 220.159C168.336 220.205 168.031 220.148 167.745 219.99C167.46 219.831 167.193 219.571 167.028 219.33C167.129 219.349 167.129 219.349 167.231 219.368C167.129 219.349 167.028 219.33 166.926 219.311L166.285 218.244C166.431 218.587 166.577 218.93 166.742 219.172C166.051 218.938 165.258 218.685 164.446 218.534L164.692 217.212L164.489 217.174C164.012 216.348 163.601 217.43 163.615 218.485C163.209 218.409 162.663 218.518 162.219 218.646C162.617 216.51 159.885 218.212 160.117 215.835C159.154 216.498 155.866 214.413 154.39 216.138C154.447 215.833 154.484 215.63 154.77 215.788C154.522 215.426 154.173 215.045 153.684 214.849C153.297 214.672 152.809 214.476 152.282 214.483L152.788 212.893L150.004 213.744C149.337 212.252 149.165 211.483 150.921 211.073C147.338 211.143 148.421 210.397 145.206 210.747L145.884 209.926C145.027 209.451 143.049 209.925 143.035 208.87C142.29 206.1 134.212 203.23 130.75 198.692C129.961 201.808 129.441 196.133 127.946 197.96C128.097 197.146 127.703 196.441 128.756 196.427C126.091 195.51 125.981 193.279 123.254 193.825C123.406 193.011 124.3 193.283 124.395 192.774C124.09 192.717 123.342 192.789 123.335 192.261C123.328 191.734 124.02 191.967 124.546 191.96C122.198 190.471 120.741 192.095 119.303 193.616C118.755 192.041 118.083 191.705 116.409 192.235C116.357 191.384 116.14 190.292 117.67 191.103C116.952 190.443 113.441 186.738 112.364 188.011C112.458 187.502 111.38 187.091 111.056 187.136C109.99 186.096 108.803 185.138 107.495 184.263L107.806 184.847C105.835 185.849 106.055 184.101 104.544 183.188L104.684 183.005C102.51 179.443 102.894 182.461 100.981 178.632L100.348 179.777C98.3269 181.611 98.6823 176.31 96.4045 175.571L96.5199 176.645C94.9973 176.362 96.4318 171.47 95.7711 170.505C95.8279 170.2 96.2787 170.6 96.6847 170.675C95.4061 167.385 95.2584 171.569 93.1955 170.238C93.3847 169.221 95.2048 169.033 94.0744 167.77C94.0605 166.715 88.7515 166.465 88.4312 163.669C88.2799 164.483 88.1286 165.297 86.9484 164.867C85.5771 163.77 85.7058 159.689 83.1373 159.948C83.1562 159.846 83.0736 159.726 83.0925 159.624C83.1114 159.522 83.1304 159.42 83.2508 159.338C81.8865 158.768 79.753 156.687 78.3578 156.849C79.6496 154.984 77.8913 153.71 76.2982 152.677C75.1558 152.044 73.9497 151.188 75.8455 150.593L74.3847 148.848L74.8923 148.942C74.555 147.932 72.9877 147.325 71.1537 146.458C71.4134 146.19 72.0672 146.628 72.3717 146.684C72.3509 145.102 72.3768 145.527 67.5456 141.577L69.9508 142.761C69.1318 142.082 69.6961 141.871 70.1399 141.743C70.6027 141.514 70.1778 141.54 70.3429 141.781C70.6285 141.94 71.0345 142.015 71.3201 142.173C71.8277 142.268 72.1322 142.324 71.9033 141.861C72.17 142.121 72.4367 142.381 72.7034 142.641C72.4298 141.853 75.2031 143.316 76.5296 144.089C77.8561 144.862 78.3447 145.058 77.4602 142.473C77.8403 142.123 78.2205 141.772 78.6833 141.543C77.4016 141.094 77.1916 140.528 77.2036 139.899C77.3171 139.289 77.7162 138.837 76.7768 138.241C77.5888 138.392 78.363 138.746 78.979 139.387C79.5123 139.907 79.6208 140.454 78.9928 140.442L78.7451 140.08C78.7709 140.506 78.9998 140.97 79.2475 141.332C79.5968 141.712 79.9839 141.89 80.4914 141.984C81.2656 142.338 82.1791 142.508 81.9263 143.303C85.663 144.103 89.3619 145.107 93.023 146.314L94.3123 136.554L85.583 134.931L85.9342 136.996L83.7011 136.581C83.7011 136.581 83.2554 135.025 84.7779 135.308C84.1551 134.14 82.0701 135.752 82.0134 136.057C79.1385 134.575 83.6286 134.147 82.734 133.875L81.516 133.649L81.7827 133.909C80.6352 134.432 80.2809 135.209 78.4917 134.665C77.4697 133.949 78.2111 133.35 77.824 133.173C77.824 133.173 77.8619 132.97 77.1135 133.041L73.2873 131.593C73.7828 132.316 74.1768 133.021 74.6913 133.643C72.8712 133.831 71.068 132.233 72.7009 134.747C71.8561 133.642 70.669 132.685 69.4251 132.033C67.7304 130.981 65.9979 130.132 64.1639 129.265C63.7768 129.088 63.2882 128.892 62.9011 128.715L61.7846 128.507L61.1756 128.394C60.3636 128.243 59.6719 128.009 58.8977 127.655C58.6002 128.125 58.0548 128.235 57.4458 128.121C57.1413 128.065 56.7353 127.989 56.4308 127.933C56.2277 127.895 56.0248 127.857 55.8217 127.819C55.5172 127.763 55.2953 127.827 54.953 127.974C55.156 128.011 55.4605 128.068 55.6446 128.207C55.8287 128.347 56.0128 128.486 56.1779 128.728C56.4257 129.089 56.166 129.357 55.323 129.937C54.4524 128.407 53.1209 128.791 52.7287 129.77C52.235 130.731 52.5912 131.639 51.2906 131.292C52.1026 131.443 52.3006 132.638 52.5811 133.953C52.8617 135.268 53.6308 136.78 54.7026 136.663C54.7612 138.042 53.0905 135.732 52.2287 136.414C52.8516 137.582 53.3351 138.935 53.8376 140.186C54.6773 142.447 55.4156 144.69 55.9319 146.996C56.3329 148.228 56.6134 149.544 57.1159 150.795L57.7904 152.815L58.1466 153.723L58.4581 154.307C58.9019 154.179 59.2941 153.199 60.316 153.916L58.8988 157.02C59.3754 157.846 61.5309 156.983 60.7277 159.044C61.0064 158.675 61.507 158.242 61.8373 158.724C62.4829 163.16 63.3503 167.531 64.4208 171.94C65.0475 176.478 65.7447 181.765 63.7959 186.033C64.6508 184.824 64.7214 185.574 64.8557 186.546C64.9692 185.936 66.0101 186.55 66.6758 186.358C66.1443 187.523 65.5939 188.789 64.8595 189.915C65.7352 190.288 65.6664 191.223 65.5151 192.037C65.4653 192.869 65.2314 193.563 65.9867 194.019L65.9728 192.964C66.7539 193.846 67.9461 193.647 69.1951 193.142C70.444 192.637 71.7688 191.725 73.0694 192.072C72.1231 190.949 72.9968 189.639 73.788 188.207C74.3453 187.468 74.4967 186.655 74.4639 185.701C74.4311 184.748 73.9356 184.024 73.3196 183.383C73.7754 182.626 74.1575 183.96 74.6581 183.527C73.5346 182.792 73.1786 181.883 73.5191 180.051L73.8045 180.211C73.4344 178.247 73.3878 176.239 73.563 174.166C73.8966 171.808 73.9067 169.494 73.8153 167.161L72.6491 167.785C72.5785 167.036 72.7297 166.223 73.0651 165.548C70.9455 164.523 73.6589 169.132 71.3174 168.17C72.4579 167.119 71.9229 164.914 71.5717 162.849C71.2206 160.784 70.6473 158.784 71.8704 157.853C71.3799 155.973 70.6473 158.784 70.1379 157.005L70.6953 156.266L69.5787 156.059C69.4514 155.614 69.5459 155.105 69.742 154.616C69.9381 154.126 70.3182 153.776 70.781 153.546C70.7243 153.851 71.2576 154.371 71.3213 154.594C71.6618 152.762 69.4836 150.357 69.5971 149.747L69.7641 151.673L68.7024 149.475C68.4547 149.114 68.3273 148.669 68.1811 148.326C67.9264 147.437 67.4497 146.611 66.9731 145.786C66.395 144.942 65.8169 144.097 65.1183 143.336L64.3441 142.982C63.1501 141.496 63.2257 141.09 63.3461 141.007C63.587 140.841 63.79 140.879 63.0208 139.367L63.2875 139.627C62.1571 138.365 61.8955 136.948 62.7453 136.895C62.9364 137.562 63.7932 138.037 64.5295 138.595C65.2848 139.052 65.7993 139.673 66.2759 140.499C66.2689 139.971 66.1416 139.527 65.8938 139.165C65.4172 138.339 64.9406 137.514 64.6859 136.625L66.1467 138.37C65.7079 137.341 65.4153 136.655 66.6145 136.983C66.3547 137.251 66.9707 137.891 67.3647 138.596C67.8981 139.116 68.1906 139.802 68.2801 140.45C70.128 142.373 70.2225 141.864 70.6664 141.736C71.1291 141.506 71.776 141.416 72.368 143.316C73.2468 140.848 70.1897 140.911 70.5888 140.459C70.1759 139.856 70.169 139.328 70.6317 139.098C70.8536 139.034 71.1771 138.989 71.5005 138.944C71.805 139.001 72.1095 139.057 72.2936 139.197C72.8837 139.412 73.2021 140.523 73.7424 141.571C74.1812 142.6 74.2139 143.553 76.2251 144.033C75.8191 143.957 75.7812 144.161 75.5146 143.901C76.5813 144.941 78.1846 143.66 79.5816 145.183C80.8804 143.846 81.6754 145.783 82.3582 143.805C81.3242 143.718 80.1699 143.713 79.1548 143.525C81.0576 143.458 83.1803 141.642 85.9348 143.206C85.3327 143.621 84.7306 144.035 83.9822 144.107C84.6808 144.868 85.682 144.002 86.482 144.782C85.9007 146.779 82.5303 144.573 80.2354 145.62C80.9787 146.706 84.2369 144.996 82.8247 146.944C84.7564 144.461 86.3017 148.011 89.0713 146.105L88.8443 147.326C89.4275 147.013 90.0932 146.821 90.8227 146.852L89.3846 148.374C91.4765 147.289 93.0715 150.006 95.0688 149.431C91.0156 149.203 94.2996 147.919 92.7254 146.785C93.632 146.427 94.5644 146.495 95.3576 146.748L96.616 137.719C95.2259 136.724 95.8003 134.2 91.9879 133.807C92.7362 133.735 94.3741 135.092 93.163 135.393C92.1858 135.001 91.2654 134.304 90.6872 133.459C87.2998 133.04 90.9678 134.775 89.3954 135.324C88.5626 133.591 87.6579 135.633 86.0597 135.757L86.2866 134.536C85.798 134.34 85.3094 134.144 84.8019 134.049C84.4974 133.993 84.0914 133.917 83.768 133.962C83.546 134.026 83.4256 134.109 83.2037 134.173C83.0833 134.256 82.944 134.441 82.8046 134.625C82.4881 135.198 82.2731 135.79 79.9316 134.828C80.5526 134.312 81.1547 133.898 81.8772 133.4L79.264 133.336L79.5288 131.911C77.0429 132.291 74.5879 131.94 72.3857 130.794C73.6365 131.974 73.3717 133.398 71.1576 132.881C68.8728 131.614 71.08 131.603 67.7115 131.082C67.6598 130.231 67.83 129.315 70.3437 131.046C70.2163 130.601 70.495 130.232 70.5706 129.825C69.3268 129.172 68.045 128.724 66.6051 128.561C65.387 128.335 64.6198 128.508 64.0107 128.395C64.6198 128.508 65.2099 128.723 65.7811 129.039C64.773 129.378 63.7459 129.819 62.7 130.361C61.3546 129.69 61.4303 129.283 61.6074 128.895C60.7576 128.948 60.7645 129.475 59.5275 129.35C58.4986 128.107 56.8607 126.75 58.5794 126.543C57.2857 126.723 56.0935 126.923 55.0028 127.141C53.4544 126.432 51.9249 125.621 50.3954 124.811C49.1137 124.362 47.6548 124.301 46.3044 124.787C47.9681 126.57 49.2706 128.601 50.3134 130.9C50.9483 131.439 51.4627 132.061 51.9772 132.683C53.3314 135.566 53.2008 137.963 57.4299 142.328C56.9293 142.761 56.5113 143.315 56.1948 143.887C57.37 145.474 57.6865 144.901 58.2697 144.589C58.8528 144.276 59.5823 144.307 61.3545 146.636C64.0282 149.764 60.1125 147.668 60.2089 148.844C61.3961 149.801 63.0718 150.955 64.4052 152.255C65.7765 153.352 66.7486 154.901 67.1565 156.661C65.6838 155.545 64.8579 154.339 64.1335 153.152ZM84.1762 175.824C83.5671 175.711 82.2476 175.465 82.5004 174.67C84.0539 174.222 83.9215 174.934 84.1762 175.824ZM117.984 199.581C117.438 199.69 117.108 199.208 116.834 198.42C117.304 198.718 117.755 199.118 117.984 199.581ZM222.529 238.806C221.507 238.089 221.774 238.349 222.529 238.806V238.806ZM224.648 239.831L224.769 239.748L224.889 239.664L224.908 239.564L224.927 239.462C224.667 239.729 224.16 239.634 223.57 239.419C223.735 239.66 223.881 240.004 224.648 239.831ZM78.2748 133.573L78.6051 134.055C77.5523 134.07 77.812 133.802 78.2748 133.573Z" fill="#1161FE"/>
<path d="M113.168 198.37C113.104 198.148 113.161 197.843 113.3 197.658C113.078 197.722 112.939 197.907 113.168 198.37Z" fill="#1161FE"/>
<path d="M49.5771 130.341C49.393 130.202 49.3104 130.081 49.1074 130.043L49.5771 130.341Z" fill="#1161FE"/>
<path d="M186.186 239.416C185.919 239.156 185.672 238.795 185.525 238.452C185.367 238.738 185.513 239.081 186.186 239.416Z" fill="#1161FE"/>
<path d="M237.252 240.385L235.774 240.426C236.281 240.52 236.77 240.716 237.018 241.078C236.954 240.856 236.725 240.392 237.252 240.385Z" fill="#1161FE"/>
<path d="M248.845 250.328C249.086 250.162 249.352 250.422 249.593 250.257L249.707 249.646C248.552 249.642 247.868 249.936 248.845 250.328Z" fill="#1161FE"/>
<path d="M237.796 244.8C237.607 245.818 238.679 245.701 239.833 245.705L239.63 245.668C240.2 244.3 239.007 244.499 237.796 244.8Z" fill="#1161FE"/>
<path d="M240.036 245.743C240.36 245.698 240.664 245.754 240.95 245.913C241.165 245.321 240.582 245.634 240.036 245.743Z" fill="#1161FE"/>
<path d="M227.687 239.868C228.138 240.268 228.339 238.621 228.466 239.066C229.321 237.857 224.934 239.988 227.687 239.868Z" fill="#1161FE"/>
<path d="M237.965 248.41L237.805 247.012L237.007 247.917L237.965 248.41Z" fill="#1161FE"/>
<path d="M229.85 245.744L231.5 246.472C231.538 246.268 231.76 246.204 232.083 246.159C230.966 245.952 229.926 245.337 229.85 245.744Z" fill="#1161FE"/>
<path d="M231.982 246.14C232.369 246.317 232.895 246.31 233.339 246.182C232.933 246.107 232.508 246.133 231.982 246.14Z" fill="#1161FE"/>
<path d="M235.554 248.384L235.104 247.984L233.905 247.656L235.554 248.384Z" fill="#1161FE"/>
<path d="M212.13 241.081L210.265 240.945C209.986 241.314 210.335 241.695 211.065 241.725C211.794 241.756 212.339 241.646 212.13 241.081Z" fill="#1161FE"/>
<path d="M216.67 246.031C216.219 245.631 216.276 245.326 216.149 244.881L215.643 246.472L216.67 246.031Z" fill="#1161FE"/>
<path d="M211.29 245.031C211.012 245.4 208.259 245.52 210.676 246.074C210.955 245.705 212.82 245.841 211.29 245.031Z" fill="#1161FE"/>
<path d="M185.045 234.257L185.432 234.434L186.311 231.966L185.045 234.257Z" fill="#1161FE"/>
<path d="M159.289 229.89C161.092 231.488 160.569 228.654 161.827 230.362C162.613 230.087 160.595 229.08 161.381 228.805C160.043 228.662 159.547 227.938 159.289 229.89Z" fill="#1161FE"/>
<path d="M161.502 228.722C161.825 228.676 162.028 228.714 162.352 228.669C162.047 228.612 161.724 228.658 161.502 228.722Z" fill="#1161FE"/>
<path d="M62.6471 191.082C62.3874 191.35 62.2291 191.636 61.8679 191.885C62.2102 191.738 62.5336 191.693 62.8949 191.444L62.6471 191.082Z" fill="#1161FE"/>
<path d="M63.9941 193.438L62.2686 193.117C62.7193 193.517 63.0875 193.796 63.5383 194.196C63.6965 193.909 63.7722 193.502 63.9941 193.438Z" fill="#1161FE"/>
<path d="M84.7527 181.194L85.114 180.945C85.2085 180.436 85.0434 180.195 84.51 179.675L84.7527 181.194Z" fill="#1161FE"/>
<path d="M71.809 165.525L72.0568 165.887L72.867 164.353L71.809 165.525Z" fill="#1161FE"/>
<path d="M55.576 146.087C56.3004 147.274 57.0437 148.359 57.9074 149.362C55.8307 146.976 57.8848 146.095 55.576 146.087Z" fill="#1161FE"/>
</g>
<defs>
<linearGradient id="paint0_linear_28040_301869" x1="808" y1="288" x2="21.5579" y2="157.793" gradientUnits="userSpaceOnUse">
<stop offset="0.693873" stop-color="#1161FE" stop-opacity="0"/>
<stop offset="1" stop-color="#1161FE" stop-opacity="0.08"/>
</linearGradient>
<linearGradient id="paint1_linear_28040_301869" x1="251.378" y1="324" x2="72.065" y2="317.402" gradientUnits="userSpaceOnUse">
<stop stop-color="#1161FE" stop-opacity="0"/>
<stop offset="1" stop-color="#1161FE" stop-opacity="0.08"/>
</linearGradient>
<linearGradient id="paint2_linear_28040_301869" x1="215.467" y1="414" x2="0.291322" y2="406.083" gradientUnits="userSpaceOnUse">
<stop stop-color="#1161FE" stop-opacity="0"/>
<stop offset="1" stop-color="#1161FE" stop-opacity="0.08"/>
</linearGradient>
<linearGradient id="paint3_linear_28040_301869" x1="1.94447e-06" y1="180" x2="786.443" y2="49.7923" gradientUnits="userSpaceOnUse">
<stop offset="0.693873" stop-color="#1161FE" stop-opacity="0"/>
<stop offset="1" stop-color="#1161FE" stop-opacity="0.08"/>
</linearGradient>
<linearGradient id="paint4_linear_28040_301869" x1="556.623" y1="216" x2="735.935" y2="209.402" gradientUnits="userSpaceOnUse">
<stop stop-color="#1161FE" stop-opacity="0"/>
<stop offset="1" stop-color="#1161FE" stop-opacity="0.08"/>
</linearGradient>
<linearGradient id="paint5_linear_28040_301869" x1="592.534" y1="306" x2="807.71" y2="298.083" gradientUnits="userSpaceOnUse">
<stop stop-color="#1161FE" stop-opacity="0"/>
<stop offset="1" stop-color="#1161FE" stop-opacity="0.08"/>
</linearGradient>
<clipPath id="clip0_28040_301869">
<rect width="808" height="414" fill="white"/>
</clipPath>
</defs>
</svg>
