<svg xmlns="http://www.w3.org/2000/svg" width="120" height="40" fill="none"><rect width="119" height="39" x=".5" y=".5" fill="#000" rx="6.5"/><path fill="#fff" d="M81.526 19.2v2.292H80.09v1.502h1.436V28.1c0 1.744.788 2.44 2.772 2.44.349 0 .681-.04.971-.09v-1.486c-.249.024-.406.041-.68.041-.888 0-1.278-.415-1.278-1.361v-4.649h1.958v-1.502h-1.958V19.2zm8.797 11.464c2.64 0 4.259-1.768 4.259-4.698 0-2.914-1.627-4.69-4.259-4.69-2.64 0-4.266 1.776-4.266 4.69 0 2.93 1.618 4.698 4.266 4.698m0-1.585c-1.552 0-2.423-1.137-2.423-3.113 0-1.959.871-3.105 2.423-3.105 1.544 0 2.424 1.146 2.424 3.105 0 1.967-.88 3.113-2.424 3.113m5.644 1.411h1.784v-5.337c0-1.27.955-2.125 2.308-2.125.315 0 .847.058.996.107v-1.76c-.191-.05-.531-.074-.797-.074-1.179 0-2.183.647-2.44 1.536h-.133V21.45h-1.718zm9.519-7.695c1.32 0 2.183.921 2.225 2.34h-4.566c.1-1.41 1.021-2.34 2.341-2.34m2.217 5.254c-.332.706-1.071 1.096-2.15 1.096-1.428 0-2.349-1.004-2.408-2.59v-.1h6.384v-.622c0-2.839-1.519-4.557-4.034-4.557-2.549 0-4.167 1.834-4.167 4.723s1.585 4.665 4.175 4.665c2.067 0 3.511-.996 3.918-2.615zm-37.881-.897c.138 2.22 1.988 3.639 4.74 3.639 2.943 0 4.784-1.488 4.784-3.863 0-1.867-1.05-2.9-3.596-3.493l-1.368-.335c-1.617-.38-2.271-.887-2.271-1.773 0-1.118 1.015-1.85 2.538-1.85 1.445 0 2.443.715 2.624 1.859h1.876c-.112-2.09-1.954-3.562-4.474-3.562-2.71 0-4.517 1.471-4.517 3.682 0 1.824 1.024 2.908 3.27 3.433l1.6.387c1.643.387 2.365.955 2.365 1.902 0 1.1-1.135 1.9-2.684 1.9-1.66 0-2.813-.748-2.977-1.926zm-18.487-5.851c-1.229 0-2.291.614-2.839 1.644h-.133V21.45h-1.718v12.045h1.785V29.12h.14c.474.955 1.495 1.52 2.782 1.52 2.282 0 3.735-1.802 3.735-4.674s-1.453-4.665-3.752-4.665m-.506 7.736c-1.495 0-2.432-1.178-2.432-3.063 0-1.892.938-3.071 2.44-3.071 1.51 0 2.415 1.154 2.415 3.063 0 1.918-.904 3.071-2.423 3.071m10.503-7.736c-1.229 0-2.291.614-2.84 1.644h-.132V21.45h-1.718v12.045h1.784V29.12h.142c.473.955 1.494 1.52 2.78 1.52 2.283 0 3.736-1.802 3.736-4.674s-1.453-4.665-3.752-4.665m-.507 7.736c-1.494 0-2.432-1.178-2.432-3.063 0-1.892.938-3.071 2.44-3.071 1.511 0 2.416 1.154 2.416 3.063 0 1.918-.905 3.071-2.424 3.071M43.443 30.49h2.048l-4.483-12.415h-2.073L34.452 30.49h1.98l1.143-3.295h4.732zm-3.57-10.16h.146l1.798 5.247h-3.751l1.807-5.248zM35.651 8.71v5.99h2.162c1.785 0 2.819-1.1 2.819-3.013 0-1.885-1.042-2.976-2.819-2.976h-2.162zm.93.847h1.129c1.24 0 1.975.789 1.975 2.142 0 1.374-.722 2.154-1.975 2.154h-1.13V9.557zm7.216 5.23c1.32 0 2.129-.884 2.129-2.35 0-1.456-.814-2.344-2.13-2.344-1.32 0-2.133.888-2.133 2.345 0 1.465.81 2.349 2.134 2.349m0-.793c-.776 0-1.212-.569-1.212-1.556 0-.98.436-1.553 1.212-1.553.772 0 1.212.573 1.212 1.553 0 .983-.44 1.556-1.212 1.556m9.021-3.814h-.892l-.806 3.449h-.07l-.93-3.45h-.855l-.93 3.45h-.066l-.81-3.45h-.904L47.8 14.7h.917l.93-3.328h.07l.934 3.329h.926l1.241-4.52zm1.028 4.52h.892v-2.644c0-.706.42-1.146 1.079-1.146.66 0 .975.361.975 1.088V14.7h.893v-2.926c0-1.075-.556-1.681-1.565-1.681-.68 0-1.129.303-1.349.805h-.066v-.718h-.86zm5.244 0h.892V8.416h-.892zm4.248.087c1.32 0 2.13-.884 2.13-2.35 0-1.456-.814-2.344-2.13-2.344-1.32 0-2.133.888-2.133 2.345 0 1.465.81 2.349 2.133 2.349m0-.793c-.776 0-1.212-.569-1.212-1.556 0-.98.436-1.553 1.212-1.553.772 0 1.212.573 1.212 1.553 0 .983-.44 1.556-1.212 1.556m4.788.029c-.485 0-.838-.236-.838-.643 0-.399.282-.61.905-.652l1.104-.07v.377c0 .56-.498.988-1.17.988zm-.228.751c.594 0 1.087-.257 1.357-.71h.07v.636h.86v-3.088c0-.955-.64-1.52-1.772-1.52-1.025 0-1.756.499-1.847 1.275h.863c.1-.32.444-.502.942-.502.61 0 .926.27.926.747v.39l-1.225.07c-1.075.067-1.68.536-1.68 1.35 0 .825.634 1.352 1.506 1.352m5.315 0c.623 0 1.15-.294 1.42-.788h.07v.714h.855V8.416h-.892v2.482h-.067c-.245-.498-.768-.793-1.386-.793-1.141 0-1.876.905-1.876 2.333 0 1.432.726 2.336 1.876 2.336m.253-3.868c.747 0 1.216.594 1.216 1.536 0 .946-.465 1.531-1.216 1.531-.755 0-1.208-.577-1.208-1.535 0-.95.457-1.532 1.208-1.532m7.878 3.881c1.32 0 2.13-.884 2.13-2.35 0-1.456-.814-2.344-2.13-2.344-1.32 0-2.133.888-2.133 2.345 0 1.465.81 2.349 2.133 2.349m0-.793c-.776 0-1.212-.569-1.212-1.556 0-.98.436-1.553 1.212-1.553.772 0 1.212.573 1.212 1.553 0 .983-.44 1.556-1.212 1.556m3.311.706h.892v-2.644c0-.706.42-1.146 1.08-1.146s.975.361.975 1.088V14.7h.892v-2.926c0-1.075-.556-1.681-1.565-1.681-.68 0-1.129.303-1.349.805h-.066v-.718h-.86v4.52zm7.949-5.645v1.146h-.718v.75h.718v2.553c0 .872.394 1.22 1.386 1.22.174 0 .34-.02.485-.045v-.743c-.124.012-.203.02-.34.02-.444 0-.64-.207-.64-.68v-2.324h.98V10.2h-.98V9.055zm3.069 5.645h.893v-2.64c0-.685.406-1.145 1.137-1.145.63 0 .967.365.967 1.087V14.7h.892v-2.918c0-1.075-.593-1.685-1.556-1.685-.68 0-1.158.303-1.378.81h-.07V8.415h-.885zm7.108-3.848c.66 0 1.092.461 1.113 1.17h-2.283c.05-.705.51-1.17 1.17-1.17m1.108 2.627c-.166.353-.535.548-1.075.548-.713 0-1.174-.502-1.203-1.295v-.05h3.191v-.31c0-1.42-.759-2.28-2.017-2.28-1.274 0-2.083.918-2.083 2.362 0 1.445.793 2.333 2.087 2.333 1.034 0 1.756-.498 1.959-1.308zm-79.12 6.822a4.99 4.99 0 0 1 2.357-4.152 5.13 5.13 0 0 0-3.992-2.158c-1.679-.176-3.307 1.005-4.163 1.005-.872 0-2.19-.987-3.608-.958a5.36 5.36 0 0 0-4.473 2.728c-1.934 3.348-.491 8.27 1.361 10.976.927 1.325 2.01 2.806 3.428 2.753 1.387-.057 1.905-.884 3.58-.884 1.658 0 2.144.884 3.59.85 1.489-.023 2.426-1.33 3.32-2.668a11 11 0 0 0 1.52-3.093 4.82 4.82 0 0 1-2.92-4.399m-2.732-8.09a4.87 4.87 0 0 0 1.115-3.49 4.96 4.96 0 0 0-3.208 1.66 4.68 4.68 0 0 0-1.143 3.36 4.15 4.15 0 0 0 3.236-1.53"/><rect width="119" height="39" x=".5" y=".5" stroke="#fff" rx="6.5"/></svg>