<svg xmlns="http://www.w3.org/2000/svg" xmlns:xlink="http://www.w3.org/1999/xlink" viewBox="1 1 176 176"><style>.B{clip-path:url(#C)}.C{fill:#3e2723}.D{fill-opacity:.15}.E{fill-opacity:.2}</style><defs><circle id="A" cx="96" cy="96" r="88"/><path id="B" d="M8 184h83.77l38.88-38.88V116h-69.3L8 24.48z"/></defs><clipPath id="C"><use xlink:href="#A"/></clipPath><g class="B" transform="translate(-7 -7)"><path fill="#db4437" d="M21.97 8v108h39.4L96 56h88V8z"/><linearGradient id="D" x1="29.34" x2="81.84" y1="75.02" y2="44.35" gradientUnits="userSpaceOnUse"><stop offset="0" stop-color="#a52714" stop-opacity=".6"/><stop offset=".66" stop-color="#a52714" stop-opacity="0"/></linearGradient><path fill="url(#D)" d="M21.97 8v108h39.4L96 56h88V8z"/><path d="M62.3 115.6 22.48 47.3l-.58 1 39.54 67.8z" class="C D"/><use xlink:href="#B" fill="#0f9d58"/><linearGradient id="E" x1="110.9" x2="52.54" y1="164.5" y2="130.3" gradientUnits="userSpaceOnUse"><stop offset="0" stop-color="#055524" stop-opacity=".4"/><stop offset=".33" stop-color="#055524" stop-opacity="0"/></linearGradient><path fill="url(#E)" d="M8 184h83.77l38.88-38.88V116h-69.3L8 24.48z"/><path fill="#263238" d="m129.8 117.3-.83-.48-38.4 67.15h1.15l38.1-66.64z" class="D"/><defs><path id="F" d="M8 184h83.77l38.88-38.88V116h-69.3L8 24.48z"/></defs><clipPath id="G"><use xlink:href="#F"/></clipPath><g clip-path="url(#G)"><path fill="#ffcd40" d="m96 56 34.65 60-38.88 68H184V56z"/><linearGradient id="H" x1="121.9" x2="136.6" y1="49.8" y2="114.1" gradientUnits="userSpaceOnUse"><stop offset="0" stop-color="#ea6100" stop-opacity=".3"/><stop offset=".66" stop-color="#ea6100" stop-opacity="0"/></linearGradient><path fill="url(#H)" d="m96 56 34.65 60-38.88 68H184V56z"/></g><path fill="#ffcd40" d="m96 56 34.65 60-38.88 68H184V56z"/><path fill="url(#H)" d="m96 56 34.65 60-38.88 68H184V56z"/><defs><path id="I" d="m96 56 34.65 60-38.88 68H184V56z"/></defs><clipPath id="J"><use xlink:href="#I"/></clipPath><g clip-path="url(#J)"><path fill="#db4437" d="M21.97 8v108h39.4L96 56h88V8z"/><path fill="url(#D)" d="M21.97 8v108h39.4L96 56h88V8z"/></g></g><radialGradient id="K" cx="668.2" cy="55.95" r="84.08" gradientTransform="translate(-576)" gradientUnits="userSpaceOnUse"><stop offset="0" stop-color="#3e2723" stop-opacity=".2"/><stop offset="1" stop-color="#3e2723" stop-opacity="0"/></radialGradient><path fill="url(#K)" d="M96 56v20.95L174.4 56z" class="B" transform="translate(-7 -7)"/><g class="B" transform="translate(-7 -7)"><defs><path id="L" d="M21.97 8v40.34L61.36 116 96 56h88V8z"/></defs><clipPath id="M"><use xlink:href="#L"/></clipPath><g clip-path="url(#M)"><use xlink:href="#B" fill="#0f9d58"/><path fill="url(#E)" d="M8 184h83.77l38.88-38.88V116h-69.3L8 24.48z"/></g></g><radialGradient id="N" cx="597.9" cy="48.52" r="78.04" gradientTransform="translate(-576)" gradientUnits="userSpaceOnUse"><stop offset="0" stop-color="#3e2723" stop-opacity=".2"/><stop offset="1" stop-color="#3e2723" stop-opacity="0"/></radialGradient><path fill="url(#N)" d="m21.97 48.45 57.25 57.24L61.36 116z" class="B" transform="translate(-7 -7)"/><radialGradient id="O" cx="671.8" cy="96.14" r="87.87" gradientTransform="translate(-576)" gradientUnits="userSpaceOnUse"><stop offset="0" stop-color="#263238" stop-opacity=".2"/><stop offset="1" stop-color="#263238" stop-opacity="0"/></radialGradient><path fill="url(#O)" d="m91.83 183.9 20.96-78.2 17.86 10.3z" class="B" transform="translate(-7 -7)"/><g class="B" transform="translate(-7 -7)"><circle cx="96" cy="96" r="40" fill="#f1f1f1"/><circle cx="96" cy="96" r="32" fill="#4285f4"/><path d="M96 55c-22.1 0-40 17.9-40 40v1c0-22.1 17.9-40 40-40h88v-1z" class="C E"/><path fill="#fff" fill-opacity=".1" d="M130.6 116c-6.92 11.94-19.8 20-34.6 20s-27.7-8.06-34.6-20h-.04L8 24.48v1L61.4 117c6.92 11.94 19.8 20 34.6 20s27.68-8.05 34.6-20h.05v-1h-.06z"/><path d="M97 56c-.17 0-.33.02-.5.03C118.36 56.3 136 74.08 136 96s-17.64 39.7-39.5 39.97c.17 0 .33.03.5.03 22.1 0 40-17.9 40-40s-17.9-40-40-40" class="C" opacity=".1"/><path fill="#fff" d="M131 117.3c3.4-5.88 5.37-12.68 5.37-19.96a39.9 39.9 0 0 0-1.87-12.09c.95 3.42 1.5 7 1.5 10.73 0 7.28-1.97 14.08-5.37 19.96l.02.04-38.88 68h1.16z" class="E"/><path fill="#fff" d="M96 9c48.43 0 87.72 39.13 88 87.5 0-.17.01-.33.01-.5 0-48.6-39.4-88-88-88S8 47.4 8 96c0 .17.01.33.01.5C8.28 48.13 47.57 9 96 9" class="E"/><path d="M96 183c48.43 0 87.72-39.13 88-87.5 0 .17.01.33.01.5 0 48.6-39.4 88-88 88S8 144.6 8 96c0-.17.01-.33.01-.5.27 48.37 39.56 87.5 88 87.5z" class="C D"/></g></svg>