<svg xmlns="http://www.w3.org/2000/svg" data-name="Group 933" viewBox="0 0 38.726 40"><defs><radialGradient id="b" cx=".874" cy="-.129" r="1.28" gradientTransform="matrix(.8 0 0 1 .178 .129)" gradientUnits="objectBoundingBox"><stop offset=".13" stop-color="#ffbd4f"/><stop offset=".28" stop-color="#ff980e"/><stop offset=".47" stop-color="#ff3750"/><stop offset=".78" stop-color="#eb0878"/><stop offset=".86" stop-color="#e50080"/></radialGradient><radialGradient id="c" cx=".49" cy=".4" r="1.28" gradientTransform="matrix(.82 0 0 1 .088 0)" gradientUnits="objectBoundingBox"><stop offset=".3" stop-color="#960e18"/><stop offset=".35" stop-color="#b11927" stop-opacity=".741"/><stop offset=".43" stop-color="#db293d" stop-opacity=".341"/><stop offset=".5" stop-color="#f5334b" stop-opacity=".09"/><stop offset=".53" stop-color="#ff3750" stop-opacity="0"/></radialGradient><radialGradient id="d" cx=".48" cy="-.12" r="1.4" gradientUnits="objectBoundingBox"><stop offset=".13" stop-color="#fff44f"/><stop offset=".53" stop-color="#ff980e"/></radialGradient><radialGradient id="e" cx=".228" cy="1.101" r="1" gradientUnits="objectBoundingBox"><stop offset=".35" stop-color="#3a8ee6"/><stop offset=".67" stop-color="#9059ff"/><stop offset="1" stop-color="#c139e6"/></radialGradient><radialGradient id="f" cx=".52" cy=".33" r=".59" gradientTransform="scale(.9 1)" gradientUnits="objectBoundingBox"><stop offset=".21" stop-color="#9059ff" stop-opacity="0"/><stop offset=".97" stop-color="#6e008b" stop-opacity=".6"/></radialGradient><radialGradient id="g" cx="2.1" cy="-1" r="2.9" gradientUnits="objectBoundingBox"><stop offset=".1" stop-color="#ffe226"/><stop offset=".79" stop-color="#ff7139"/></radialGradient><radialGradient id="h" cx=".84" cy="-.41" r="1.8" gradientUnits="objectBoundingBox"><stop offset=".11" stop-color="#fff44f"/><stop offset=".46" stop-color="#ff980e"/><stop offset=".72" stop-color="#ff3647"/><stop offset=".9" stop-color="#e31587"/></radialGradient><radialGradient id="i" cx=".161" cy="-.186" r="3.488" gradientTransform="matrix(.105 .467 -.995 .049 -.046 -.255)" gradientUnits="objectBoundingBox"><stop offset="0" stop-color="#fff44f"/><stop offset=".3" stop-color="#ff980e"/><stop offset=".57" stop-color="#ff3647"/><stop offset=".74" stop-color="#e31587"/></radialGradient><radialGradient id="j" cx=".189" cy="-.425" r="2.384" gradientUnits="objectBoundingBox"><stop offset=".14" stop-color="#fff44f"/><stop offset=".48" stop-color="#ff980e"/><stop offset=".66" stop-color="#ff3647"/><stop offset=".9" stop-color="#e31587"/></radialGradient><radialGradient id="k" cx="1.593" cy="-.447" r="3.131" gradientUnits="objectBoundingBox"><stop offset=".09" stop-color="#fff44f"/><stop offset=".63" stop-color="#ff980e"/></radialGradient><linearGradient id="a" x1=".873" x2=".094" y1=".155" y2=".931" gradientUnits="objectBoundingBox"><stop offset=".05" stop-color="#fff44f"/><stop offset=".37" stop-color="#ff980e"/><stop offset=".53" stop-color="#ff3647"/><stop offset=".7" stop-color="#e31587"/></linearGradient><linearGradient id="l" x1=".8" x2=".18" y1=".14" y2=".84" gradientUnits="objectBoundingBox"><stop offset=".17" stop-color="#fff44f" stop-opacity=".8"/><stop offset=".6" stop-color="#fff44f" stop-opacity="0"/></linearGradient></defs><g data-name="9949a9187a4da9ef27e57a28967a2440"><path fill="url(#a)" d="M38.623 13.423a10.9 10.9 0 0 0-3.889-4.907A20.1 20.1 0 0 1 36.7 14.4v.033c-2.192-5.465-5.909-7.668-8.944-12.466q-.235-.367-.457-.742-.114-.2-.214-.4A3.5 3.5 0 0 1 26.8.057a.05.05 0 0 0-.044-.05.1.1 0 0 0-.037 0 .01.01 0 0 0-.01.006l-.017.007.008-.013a14.15 14.15 0 0 0-6.674 10.769 9.7 9.7 0 0 0-5.335 2.056 6 6 0 0 0-.5-.379 9 9 0 0 1-.055-4.738 14.4 14.4 0 0 0-4.666 3.606h-.009c-.768-.974-.714-4.185-.67-4.856a3.5 3.5 0 0 0-.647.344 14 14 0 0 0-1.9 1.623 17 17 0 0 0-1.812 2.174 16.4 16.4 0 0 0-2.6 5.874l-.026.128q-.107.6-.191 1.21v.043a18.5 18.5 0 0 0-.32 2.672v.1a19.387 19.387 0 0 0 38.492 3.278c.033-.25.059-.5.088-.75a19.94 19.94 0 0 0-1.252-9.738M16.279 28.6c.091.044.176.091.269.132l.014.009ZM36.7 14.437" transform="translate(-1.3 -.004)"/><path fill="url(#b)" d="M38.623 21.928a10.9 10.9 0 0 0-3.889-4.907 20.1 20.1 0 0 1 1.966 5.884v.04a17.56 17.56 0 0 1-.6 13.084 16.67 16.67 0 0 1-16.018 9.416A19.52 19.52 0 0 1 1.475 29.6a8.4 8.4 0 0 1 .137-3.234 14.4 14.4 0 0 0-.312 2.672v.1a19.387 19.387 0 0 0 38.492 3.278c.033-.25.059-.5.088-.75a19.94 19.94 0 0 0-1.257-9.738" transform="translate(-1.3 -8.509)"/><path fill="url(#c)" d="M38.623 21.928a10.9 10.9 0 0 0-3.889-4.907 20.1 20.1 0 0 1 1.966 5.884v.04a17.56 17.56 0 0 1-.6 13.084 16.67 16.67 0 0 1-16.018 9.416A19.52 19.52 0 0 1 1.475 29.6a8.4 8.4 0 0 1 .137-3.234 14.4 14.4 0 0 0-.312 2.672v.1a19.387 19.387 0 0 0 38.492 3.278c.033-.25.059-.5.088-.75a19.94 19.94 0 0 0-1.257-9.738" transform="translate(-1.3 -8.509)"/><path fill="url(#d)" d="m47.914 15.7.121.089a10.6 10.6 0 0 0-1.8-2.348C40.208 7.418 44.654.378 45.4.02l.008-.011a14.15 14.15 0 0 0-6.674 10.769c.226-.016.45-.035.681-.035a9.78 9.78 0 0 1 8.494 4.96Z" transform="translate(-20.012 -.007)"/><path fill="url(#e)" d="M31.393 27.634a4.68 4.68 0 0 1-2.331 2.145c-5.513 0-6.408 3.335-6.408 3.335a8.19 8.19 0 0 0 4.566 6.344q.161.082.327.156.285.126.569.233a8.6 8.6 0 0 0 2.522.487C40.3 40.788 42.173 28.78 35.2 25.3a6.7 6.7 0 0 1 4.674 1.135 9.78 9.78 0 0 0-8.494-4.96c-.23 0-.455.019-.681.035a9.7 9.7 0 0 0-5.335 2.056c.3.25.629.584 1.332 1.277 1.316 1.291 4.689 2.633 4.697 2.791" transform="translate(-11.973 -10.733)"/><path fill="url(#f)" d="M31.393 27.634a4.68 4.68 0 0 1-2.331 2.145c-5.513 0-6.408 3.335-6.408 3.335a8.19 8.19 0 0 0 4.566 6.344q.161.082.327.156.285.126.569.233a8.6 8.6 0 0 0 2.522.487C40.3 40.788 42.173 28.78 35.2 25.3a6.7 6.7 0 0 1 4.674 1.135 9.78 9.78 0 0 0-8.494-4.96c-.23 0-.455.019-.681.035a9.7 9.7 0 0 0-5.335 2.056c.3.25.629.584 1.332 1.277 1.316 1.291 4.689 2.633 4.697 2.791" transform="translate(-11.973 -10.733)"/><path fill="url(#g)" d="M21.948 19.892q.2.129.4.266a9 9 0 0 1-.055-4.738 14.4 14.4 0 0 0-4.666 3.606c.095-.003 2.907-.054 4.321.866" transform="translate(-9.46 -7.709)"/><path fill="url(#h)" d="M1.56 27.553A19.52 19.52 0 0 0 20.164 43.4a16.67 16.67 0 0 0 16.018-9.416 17.56 17.56 0 0 0 .6-13.084c.688 4.49-1.6 8.84-5.167 11.782l-.015.018c-6.945 5.668-13.6 3.421-14.95 2.5q-.141-.068-.282-.141c-4.056-1.939-5.732-5.634-5.373-8.8a4.98 4.98 0 0 1-4.6-2.888 7.31 7.31 0 0 1 7.127-.286 9.65 9.65 0 0 0 7.279.286c-.008-.158-3.381-1.5-4.7-2.8-.7-.693-1.036-1.026-1.332-1.277a6 6 0 0 0-.5-.379q-.2-.135-.4-.266c-1.414-.919-4.226-.869-4.319-.866-.768-.974-.714-4.185-.67-4.856a3.5 3.5 0 0 0-.647.344 14 14 0 0 0-1.9 1.629 17 17 0 0 0-1.82 2.169 16.4 16.4 0 0 0-2.6 5.874 14.5 14.5 0 0 0-.359 4.612Z" transform="translate(-1.383 -6.465)"/><path fill="url(#i)" d="M50.615 13.442a10.6 10.6 0 0 1 1.8 2.351q.151.112.291.238c4.4 4.052 2.092 9.779 1.921 10.186 3.57-2.942 5.852-7.292 5.167-11.782-2.194-5.467-5.91-7.67-8.946-12.468q-.235-.367-.457-.742-.114-.2-.214-.4a3.5 3.5 0 0 1-.289-.768.05.05 0 0 0-.044-.05.1.1 0 0 0-.037 0 .01.01 0 0 0-.01.006l-.013.007c-.749.355-5.196 7.395.831 13.422" transform="translate(-24.392 -.004)"/><path fill="url(#j)" d="M44.845 30.524q-.14-.126-.291-.238l-.121-.089a6.7 6.7 0 0 0-4.674-1.135c6.973 3.486 5.1 15.492-4.561 15.039a8.6 8.6 0 0 1-2.522-.487q-.285-.107-.569-.233-.165-.074-.327-.156l.014.009c1.348.92 8 3.167 14.962-2.5l.011-.025c.172-.409 2.475-6.135-1.922-10.185" transform="translate(-16.534 -14.499)"/><path fill="url(#k)" d="M16.991 38.2s.9-3.335 6.408-3.335a4.67 4.67 0 0 0 2.331-2.145 9.65 9.65 0 0 1-7.279-.286 7.31 7.31 0 0 0-7.127.286 4.98 4.98 0 0 0 4.592 2.889 8.81 8.81 0 0 0 5.373 8.8c.091.044.176.091.269.132a8.18 8.18 0 0 1-4.567-6.341" transform="translate(-6.31 -15.816)"/><path fill="url(#l)" d="M38.623 13.423a10.9 10.9 0 0 0-3.889-4.907A20.1 20.1 0 0 1 36.7 14.4v.033c-2.192-5.465-5.909-7.668-8.944-12.466q-.235-.367-.457-.742-.114-.2-.214-.4A3.5 3.5 0 0 1 26.8.057a.05.05 0 0 0-.044-.05.1.1 0 0 0-.037 0 .01.01 0 0 0-.01.006l-.017.007.008-.013a14.15 14.15 0 0 0-6.674 10.769c.226-.016.45-.035.681-.035A9.78 9.78 0 0 1 29.2 15.7a6.7 6.7 0 0 0-4.674-1.135c6.973 3.486 5.1 15.492-4.561 15.039a8.6 8.6 0 0 1-2.522-.487q-.285-.107-.569-.233-.165-.074-.327-.156l.014.008q-.141-.068-.282-.141c.091.044.176.091.269.132a8.19 8.19 0 0 1-4.566-6.344s.9-3.335 6.408-3.335a4.67 4.67 0 0 0 2.331-2.148c-.008-.158-3.381-1.5-4.7-2.8-.7-.693-1.036-1.026-1.332-1.277a6 6 0 0 0-.5-.379 9 9 0 0 1-.055-4.738 14.4 14.4 0 0 0-4.664 3.615h-.009c-.768-.974-.714-4.185-.67-4.856a3.5 3.5 0 0 0-.647.344 14 14 0 0 0-1.9 1.623 17 17 0 0 0-1.812 2.174 16.4 16.4 0 0 0-2.6 5.874l-.026.128c-.037.171-.2 1.037-.224 1.223a23 23 0 0 0-.286 2.7v.1a19.387 19.387 0 0 0 38.492 3.278c.033-.25.059-.5.088-.75a19.94 19.94 0 0 0-1.257-9.738Zm-1.923 1v.021Z" transform="translate(-1.3 -.004)"/></g></svg>