<svg xmlns="http://www.w3.org/2000/svg" id="Layer_1" width="340" height="201" data-name="Layer 1"><defs><clipPath id="clip-path"><path d="M0 0h340v201H0z" style="fill:none"/></clipPath><style>.cls-3{fill:#777;opacity:.51}</style></defs><g style="clip-path:url(#clip-path)"><path d="M98.87 19a4.85 4.85 0 0 0 9.7-.1 4.93 4.93 0 0 0-5-4.9 4.82 4.82 0 0 0-4.7 5m-22 3.3a3.4 3.4 0 0 0-.2-6.8 3.41 3.41 0 0 0-3.3 3.4 3.46 3.46 0 0 0 3.5 3.4m47.69-5.3a6.15 6.15 0 1 0 5.91-4h-.1a6.13 6.13 0 0 0-5.81 4M83.57 8.7a2.84 2.84 0 0 0 2.8-3 2.91 2.91 0 0 0-3-2.8 2.82 2.82 0 0 0-2.8 2.9 3 3 0 0 0 3 2.9M97 9.3a3.37 3.37 0 0 0 3.3-3.5 3.4 3.4 0 0 0-6.8.1A3.46 3.46 0 0 0 97 9.3m26.87 1a4.53 4.53 0 0 0 4.4-4.5 4.5 4.5 0 1 0-9 .1 4.54 4.54 0 0 0 4.6 4.4m-12.4 8.1a5.55 5.55 0 1 0 5.7-5.4h-.1a5.49 5.49 0 0 0-5.6 5.4m-1.2-8.6a4.08 4.08 0 0 0 3.9-4.1 4 4 0 0 0-4.1-3.9 4.06 4.06 0 0 0-3.9 4 4.17 4.17 0 0 0 4.1 4M246.67 45a4.12 4.12 0 0 0 4.2 4 4.1 4.1 0 0 0-.2-8.2 4.12 4.12 0 0 0-4 4.2" class="cls-3"/><circle cx="43.47" cy="5.8" r="1.3" class="cls-3"/><path d="M50.17 21a2.15 2.15 0 0 0-.1-4.3A2.11 2.11 0 0 0 48 18.8a2.22 2.22 0 0 0 2.17 2.2M30.07 6.7a.82.82 0 0 0 .8-.9A.82.82 0 0 0 30 5a.86.86 0 0 0-.8.8c.07.5.37.9.87.9m6.7 13.7a1.55 1.55 0 0 0-.1-3.1 1.55 1.55 0 1 0 .1 3.1m20 13.9a2.46 2.46 0 0 0 2.4-2.5 2.39 2.39 0 0 0-2.5-2.4 2.43 2.43 0 0 0-2.4 2.4 2.61 2.61 0 0 0 2.5 2.5m13.4-26.2a2.21 2.21 0 0 0 2.2-2.4A2.21 2.21 0 0 0 70 3.5a2.31 2.31 0 0 0-2.2 2.3 2.35 2.35 0 0 0 2.37 2.3m-6.7 13.5a2.8 2.8 0 0 0 2.7-2.9 2.74 2.74 0 0 0-2.9-2.7 2.78 2.78 0 0 0-2.7 2.8 3 3 0 0 0 2.9 2.8m6.7 13.4a3.15 3.15 0 0 0-.1-6.3A3.12 3.12 0 0 0 67 31.8a3.22 3.22 0 0 0 3.17 3.2M56.77 7.6a1.71 1.71 0 0 0 1.7-1.8 1.75 1.75 0 1 0-3.5.1 1.84 1.84 0 0 0 1.8 1.7m-13.3 26a1.75 1.75 0 1 0-1.8-1.7 1.77 1.77 0 0 0 1.8 1.7m176-14.8a4.5 4.5 0 1 0 4.5-4.4 4.45 4.45 0 0 0-4.5 4.4m-2.2-8.9a4.05 4.05 0 1 0-4.2-4.1 4.2 4.2 0 0 0 4.2 4.1m-11.6 9.1a5.05 5.05 0 1 0 4.9-5.2 5 5 0 0 0-4.9 5.2m-68.3-8.3a4.87 4.87 0 0 0 4.7-4.9 4.91 4.91 0 0 0-5-4.8 4.85 4.85 0 1 0 .3 9.7m66.32-.4a4.69 4.69 0 0 0 4.82-3.93A4.61 4.61 0 0 0 204.07 1H204a4.57 4.57 0 0 0-4.6 4.5 4.47 4.47 0 0 0 4.29 4.8m33.58 12.2a3.76 3.76 0 0 0 3.6-3.8 3.63 3.63 0 0 0-3.8-3.6 3.74 3.74 0 0 0-3.6 3.7 3.84 3.84 0 0 0 3.8 3.7M244 27a4.45 4.45 0 1 0 .1 0Zm6.67-5.2a2.89 2.89 0 0 0 2.9-3.1 2.89 2.89 0 0 0-3.1-2.9 3 3 0 0 0-2.9 3 3.1 3.1 0 0 0 3.1 3M244 8.7a2.9 2.9 0 1 0-3-2.9 3 3 0 0 0 3 2.9m-13.33.6a3.54 3.54 0 0 0 3.4-3.6 3.5 3.5 0 0 0-7 .1 3.44 3.44 0 0 0 3.6 3.5m-73.61 16.1a6.78 6.78 0 0 0 6.71-6.46 6.71 6.71 0 0 0-6.5-6.94h-.2a6.6 6.6 0 0 0-6.7 6.5 6.7 6.7 0 0 0 6.69 6.9M150.67 11a5.1 5.1 0 0 0 5-5.1 5.25 5.25 0 0 0-5.3-5.2 5.15 5.15 0 1 0 .3 10.3" class="cls-3"/><ellipse cx="143.77" cy="18.8" class="cls-3" rx="6.6" ry="6.4"/><path d="M164.07 11.1a5.28 5.28 0 0 0 5.1-5.2 5.42 5.42 0 0 0-5.4-5.3 5.25 5.25 0 1 0 .3 10.5m27.6 7.9a5.65 5.65 0 1 0 5.5-5.9 5.83 5.83 0 0 0-5.5 5.9m-27.8-.5a6.62 6.62 0 0 0 6.5 6.8 6.73 6.73 0 0 0 6.79-6.3 6.62 6.62 0 0 0-6.49-7h-.2a6.51 6.51 0 0 0-6.6 6.5m26.9-7.8a4.87 4.87 0 0 0 4.7-4.9 4.85 4.85 0 1 0-9.7.2 4.82 4.82 0 0 0 5 4.7m-13.2 8.5a6.35 6.35 0 1 0 6.5-6.2h-.2a6.19 6.19 0 0 0-6.3 6.2m-.1-8.2a5.1 5.1 0 0 0 5-5.1 5.38 5.38 0 0 0-5.3-5.2 5.15 5.15 0 1 0 .3 10.3m-87.2 11.9a4.1 4.1 0 1 0-.2-8.2 4.17 4.17 0 0 0-4 4.1 4.08 4.08 0 0 0 4.2 4.1m-53.5 99.3a.7.7 0 1 0 .7.7.68.68 0 0 0-.7-.7m-6.7-89.1a1.25 1.25 0 0 0-.1-2.5 1.22 1.22 0 0 0-1.2 1.2 1.4 1.4 0 0 0 1.3 1.3m6.7 115.7a.1.1 0 1 0 .1.1c0-.1 0-.1-.1-.1m0-105.8a1.85 1.85 0 1 0 .1 3.7 1.85 1.85 0 1 0-.1-3.7m0 26.1a1.8 1.8 0 0 0 .2 3.6 1.71 1.71 0 0 0 1.7-1.8 1.88 1.88 0 0 0-1.9-1.8m-6.7 66.7a.1.1 0 1 0 .1.1c.1-.1 0-.1-.1-.1m0-79.2a1.3 1.3 0 1 0 1.3 1.3 1.21 1.21 0 0 0-1.3-1.3" class="cls-3"/><circle cx="23.37" cy="44.8" r="1.3" class="cls-3"/><path d="M30.07 82.8a1.05 1.05 0 0 0 .1 2.1 1 1 0 0 0 1-1 1.11 1.11 0 0 0-1.1-1.1m0 26.5a.6.6 0 1 0 .6.6.65.65 0 0 0-.6-.6m20.1-40.9a2.5 2.5 0 0 0 .2 5 2.46 2.46 0 0 0 2.4-2.5 2.63 2.63 0 0 0-2.6-2.5m0 26.6a2 2 0 1 0 .1 3.9 2 2 0 0 0 1.9-1.9 2.07 2.07 0 0 0-2-2m0 26.8a1.1 1.1 0 1 0 1.1 1.1 1.11 1.11 0 0 0-1.1-1.1m0-79.5a2.52 2.52 0 0 0-2.6 2.6 2.65 2.65 0 0 0 2.6 2.6 2.6 2.6 0 0 0 0-5.2m0 106.2a.4.4 0 1 0 .4.4c-.1-.2-.2-.4-.4-.4" class="cls-3"/><circle cx="43.47" cy="109.9" r="1" class="cls-3"/><path d="M43.47 82.2a1.65 1.65 0 0 0 .1 3.3 1.58 1.58 0 0 0 1.6-1.6 1.83 1.83 0 0 0-1.7-1.7m0 53.3a.4.4 0 1 0 .4.4c-.1-.2-.2-.4-.4-.4m0-79.6a2 2 0 1 0 .1 3.9 2 2 0 0 0 1.9-1.9 2.15 2.15 0 0 0-2-2m-6.7 39.6a1.35 1.35 0 0 0 .1 2.7 1.32 1.32 0 0 0 1.3-1.3 1.43 1.43 0 0 0-1.4-1.4M3.37 31.4a.4.4 0 0 0 0 .8.4.4 0 1 0 0-.8m-.1 78.5c.1.1.1 0 .1 0s0-.1-.1 0" class="cls-3"/><circle cx="3.37" cy="5.8" r=".2" class="cls-3"/><path d="M3.37 57.5a.4.4 0 0 0 0 .8.43.43 0 0 0 .4-.4.37.37 0 0 0-.4-.4m0 26c-.2 0-.3.1-.3.2s.1.3.2.3h.1c.1 0 .3-.1.3-.2a.32.32 0 0 0-.3-.3m13.3-77.2a.5.5 0 1 0-.5-.5c.1.3.3.5.5.5m-6.6 13.1a.6.6 0 1 0-.6-.6c-.1.4.2.6.6.6m13.3.5a1.05 1.05 0 0 0-.1-2.1 1 1 0 0 0-1 1 1.18 1.18 0 0 0 1.1 1.1" class="cls-3"/><circle cx="16.67" cy="31.9" r=".7" class="cls-3"/><path d="M10.07 44.1a.8.8 0 0 0 0 1.6.86.86 0 0 0 .8-.8.79.79 0 0 0-.8-.8m13.3 78.4a.4.4 0 1 0 .4.4.43.43 0 0 0-.4-.4" class="cls-3"/><circle cx="16.67" cy="57.9" r=".8" class="cls-3"/><path d="M16.67 83.3a.6.6 0 1 0 .6.6c.1-.4-.2-.6-.6-.6m6.7 12.7a.85.85 0 0 0 .1 1.7.86.86 0 0 0 .8-.8.9.9 0 0 0-.9-.9m-6.7 13.6c-.1 0-.2.1-.2.3s.1.2.3.2.2-.1.2-.3-.1-.2-.3-.2m-6.6-39.5a.7.7 0 1 0 .7.7.75.75 0 0 0-.7-.7m0 26.3a.4.4 0 1 0 .4.4.43.43 0 0 0-.4-.4m13.3-26.8a1.25 1.25 0 0 0 .1 2.5 1.22 1.22 0 0 0 1.2-1.2 1.32 1.32 0 0 0-1.3-1.3m-13.3 53.2a.1.1 0 1 0 0 .2c.1 0 .1 0 .1-.1a.1.1 0 0 0-.1-.1m160.4 5a5 5 0 1 0-5.1-5 4.93 4.93 0 0 0 5.1 5m93.8-79.7a3.22 3.22 0 0 0 3.2-3.2 3.18 3.18 0 0 0-3.3-3.2A3.24 3.24 0 0 0 261 45a3.16 3.16 0 0 0 3.27 3.1m13.1-27.5a1.75 1.75 0 1 0-.1-3.5 1.75 1.75 0 0 0-1.7 1.7 1.93 1.93 0 0 0 1.8 1.8M156 112.05a6 6 0 0 0-5.73-8 6 6 0 0 0-5.82 5.54 5.93 5.93 0 0 0 5.79 6.36 6 6 0 0 0 5.76-3.9m7.77 3.95a6.3 6.3 0 0 0 6.3-6.1 6.19 6.19 0 0 0-6.09-6.4 6.32 6.32 0 0 0-6.4 5.92 6.19 6.19 0 0 0 6.09 6.58Zm-107 45.8a.1.1 0 0 0-.1.1l.1.1a.1.1 0 0 0 .1-.1c.13 0 0-.1-.1-.1m214-154.2a1.74 1.74 0 0 0 1.7-1.9 1.74 1.74 0 0 0-1.9-1.7 1.71 1.71 0 0 0-1.7 1.8 1.88 1.88 0 0 0 1.9 1.8m6.7 39.7a2.5 2.5 0 1 0-.2-5 2.46 2.46 0 0 0-2.4 2.5 2.5 2.5 0 0 0 2.6 2.5m-13.4-26.1a2.35 2.35 0 1 0-2.4-2.4 2.43 2.43 0 0 0 2.4 2.4m6.7 13.5a2.88 2.88 0 0 0 2.8-2.9 3 3 0 0 0-2.9-2.8 2.86 2.86 0 0 0-2.8 2.8 2.9 2.9 0 0 0 2.9 2.9m-113.7 93a4.8 4.8 0 1 0-4.9-4.8 4.87 4.87 0 0 0 4.9 4.8M116 38.3a6.69 6.69 0 0 0 3.2 13 6.77 6.77 0 0 0 4.9-4.9 6.8 6.8 0 0 0 8.5 4.8 6.67 6.67 0 0 0 4.8-4.8 6.8 6.8 0 0 0 8.5 4.8 6.67 6.67 0 0 0 4.8-4.8 6.8 6.8 0 0 0 8.5 4.8 7 7 0 0 0 4.8-4.8 6.8 6.8 0 0 0 8.5 4.8 6.67 6.67 0 0 0 4.8-4.8 6.8 6.8 0 0 0 8.5 4.8 6.67 6.67 0 0 0 4.8-4.8 6.9 6.9 0 0 0 13.3 0 6.87 6.87 0 0 0 13.4-3 6.88 6.88 0 0 0-6.7-5.3 7 7 0 0 0-6.7 5.1 6.9 6.9 0 0 0-13.3 0 6.8 6.8 0 0 0-8.5-4.8 6.67 6.67 0 0 0-4.8 4.8 6.8 6.8 0 0 0-8.5-4.8 6.67 6.67 0 0 0-4.8 4.8 6.8 6.8 0 0 0-8.5-4.8 7 7 0 0 0-4.8 4.8 6.8 6.8 0 0 0-8.5-4.8 6.67 6.67 0 0 0-4.8 4.8 6.8 6.8 0 0 0-8.5-4.8 6.67 6.67 0 0 0-4.8 4.8 6.68 6.68 0 0 0-8.1-4.9m21.07 66.7a5.36 5.36 0 0 0-5.4 5.3 5.45 5.45 0 1 0 5.6-5.3Zm40.1 11a6.28 6.28 0 0 0 6.4-6.2 6.43 6.43 0 0 0-8.19-6.35 6.36 6.36 0 0 0-4.31 4.18A6.44 6.44 0 0 0 177 116Z" class="cls-3"/><path d="M211.47 103.2a6.39 6.39 0 1 0-7.4-7 6.9 6.9 0 0 0-7.8-5.9 7 7 0 0 0-5.7 5 6.8 6.8 0 0 0-8.5-4.8 6.67 6.67 0 0 0-4.8 4.8 6.8 6.8 0 0 0-8.5-4.8 6.67 6.67 0 0 0-4.8 4.8 6.8 6.8 0 0 0-8.5-4.8 7 7 0 0 0-4.8 4.8 6.91 6.91 0 0 0-13.5.9 6.39 6.39 0 1 0 0 1.5 6.9 6.9 0 0 0 7.8 5.9 7 7 0 0 0 5.7-5 6.8 6.8 0 0 0 8.5 4.8 7 7 0 0 0 4.8-4.8 6.8 6.8 0 0 0 8.5 4.8 6.67 6.67 0 0 0 4.8-4.8 6.8 6.8 0 0 0 8.5 4.8 6.67 6.67 0 0 0 4.8-4.8 6.91 6.91 0 0 0 13.5-.9 6.55 6.55 0 0 0 7.4 5.5m-87.1-65.1a6.24 6.24 0 0 0 5.8-5.8 7 7 0 0 0 7.6 6.2 7.06 7.06 0 0 0 6-5.1 6.8 6.8 0 0 0 8.5 4.8 6.67 6.67 0 0 0 4.8-4.8 6.9 6.9 0 0 0 13.3 0 6.9 6.9 0 0 0 13.3 0 6.8 6.8 0 0 0 8.5 4.8 6.67 6.67 0 0 0 4.8-4.8 6.69 6.69 0 1 0 4.9-8.1 6.77 6.77 0 0 0-4.9 4.9 6.9 6.9 0 0 0-13.3 0 6.8 6.8 0 0 0-8.5-4.8 6.67 6.67 0 0 0-4.8 4.8 6.8 6.8 0 0 0-8.5-4.8 7 7 0 0 0-4.8 4.8 6.9 6.9 0 0 0-13.3 0 6.8 6.8 0 0 0-8.5-4.8 6.94 6.94 0 0 0-5.1 6 6.37 6.37 0 0 0-6.8-5.9 6.32 6.32 0 1 0 1 12.6" class="cls-3"/><path d="M203.87 116a5.91 5.91 0 0 0 6-5.8 6 6 0 1 0-6.2 5.8Zm-13.4 0a6.19 6.19 0 0 0 6.3-6.2 6.35 6.35 0 1 0-6.5 6.2Zm-6.6 11.8a4.9 4.9 0 0 0-.2-9.8 4.9 4.9 0 0 0 .2 9.8m13.3-.2a4.76 4.76 0 0 0 4.6-4.8 4.7 4.7 0 0 0-9.4.1 4.78 4.78 0 0 0 4.8 4.7m49.1-56.6a4.48 4.48 0 0 0 4.6 4.4 4.6 4.6 0 0 0 4.4-4.5 4.5 4.5 0 1 0-9 .1m77.9-12.3a.85.85 0 1 0-.1-1.7.82.82 0 0 0-.8.9 1.06 1.06 0 0 0 .9.8" class="cls-3"/><circle cx="310.87" cy="5.8" r=".5" class="cls-3"/><path d="M317.57 45.6a.7.7 0 1 0-.7-.7c-.1.4.3.7.7.7m6.6-13.2a.6.6 0 1 0-.6-.6q.15.6.6.6m-6.6-13.2a.4.4 0 1 0-.4-.4c0 .3.1.4.4.4" class="cls-3"/><circle cx="324.17" cy="5.8" r=".2" class="cls-3"/><path d="M330.87 19a.1.1 0 1 0-.1-.1.1.1 0 0 0 .1.1m6.7 39.3a.4.4 0 1 0-.4-.4.43.43 0 0 0 .4.4m-6.7-13.1a.4.4 0 1 0-.4-.4c.1.3.2.4.4.4m-20 14a1.28 1.28 0 0 0 1.3-1.4c-.1-.7-.7-1.4-1.4-1.3a1.35 1.35 0 0 0 .1 2.7m-20.1-39.1a1.25 1.25 0 0 0-.1-2.5 1.22 1.22 0 0 0-1.2 1.2 1.4 1.4 0 0 0 1.3 1.3m-33.4 15.3a3.6 3.6 0 0 0-.2-7.2 3.63 3.63 0 0 0-3.5 3.6 3.55 3.55 0 0 0 3.7 3.6m33.4 11.3a1.85 1.85 0 1 0-.1-3.7 1.79 1.79 0 0 0-1.8 1.8 1.9 1.9 0 0 0 1.9 1.9m-6.7-39.6a1.3 1.3 0 1 0-1.3-1.3 1.26 1.26 0 0 0 1.3 1.3m13.4-.4a.77.77 0 0 0 .8-.9.77.77 0 0 0-.9-.8.82.82 0 0 0-.8.9.88.88 0 0 0 .9.8M284.07 34a2.15 2.15 0 1 0-2.2-2.1 2.14 2.14 0 0 0 2.2 2.1m26.8-1.2a1 1 0 1 0 0-2 1.08 1.08 0 0 0-1 1 .86.86 0 0 0 1 1m-6.7-13.2a.75.75 0 1 0-.1-1.5.71.71 0 0 0-.7.8.77.77 0 0 0 .8.7m0 26.5a1.25 1.25 0 0 0-.1-2.5 1.22 1.22 0 0 0-1.2 1.2 1.32 1.32 0 0 0 1.3 1.3m-6.7-12.7a1.55 1.55 0 1 0-.1-3.1 1.54 1.54 0 0 0-1.5 1.5 1.58 1.58 0 0 0 1.6 1.6" class="cls-3"/><ellipse cx="110.27" cy="83.9" class="cls-3" rx="5.7" ry="5.6"/><path d="M97 88.5a4.59 4.59 0 0 0 4.5-4.7 4.6 4.6 0 0 0-9.2.1 4.55 4.55 0 0 0 4.7 4.6" class="cls-3"/><ellipse cx="103.57" cy="96.9" class="cls-3" rx="5" ry="4.8"/><path d="M117 102.5a5.65 5.65 0 1 0-5.8-5.7 5.85 5.85 0 0 0 5.8 5.7m-29-44a4.37 4.37 0 0 0-4.3-4.5h-.12a4.21 4.21 0 0 0-3.63 1.93 4.4 4.4 0 1 0 8 2.57ZM76.87 75a4.1 4.1 0 0 0-.2-8.2 4.1 4.1 0 0 0 .2 8.2m-10.2-17.1a3.5 3.5 0 0 0 7 .2 3.5 3.5 0 0 0-7-.2m57 56.6a4.65 4.65 0 1 0-4.8-4.6 4.69 4.69 0 0 0 4.8 4.6M90.07 76h.1a5.19 5.19 0 0 0 5.2-5 5.15 5.15 0 1 0-10.3-.3 5.21 5.21 0 0 0 5 5.3M244 89a5.48 5.48 0 0 0 5.37-6.75 5.14 5.14 0 0 0-2.86-3.58 5.52 5.52 0 0 0-7.21 7.73 4.9 4.9 0 0 0 4.39 2.6Zm13.37-1a4.5 4.5 0 0 0 .34-9 4.53 4.53 0 0 0-4.71 3.59 4.47 4.47 0 0 0 4.3 5.41Zm6.7-14a3.69 3.69 0 1 0-.36-7.37 3.78 3.78 0 0 0-2.71 5.68 3.57 3.57 0 0 0 3 1.69Zm-13.4 26.9a4 4 0 1 0-4.1-4 4 4 0 0 0 4.1 4m6.7-92.7A2.35 2.35 0 1 0 255 5.8a2.43 2.43 0 0 0 2.37 2.4" class="cls-3"/><ellipse cx="217.27" cy="109.9" class="cls-3" rx="5.5" ry="5.4"/><path d="M224 102a5.75 5.75 0 0 0 .11-11.5 5.82 5.82 0 0 0-5.9 5.4 5.71 5.71 0 0 0 5.59 6.1Zm6.67 12.7a4.8 4.8 0 1 0-4.9-4.8 4.87 4.87 0 0 0 4.9 4.8M72.57 44.8a4.3 4.3 0 1 0 4.3-4.2 4.31 4.31 0 0 0-4.3 4.2m164.7 57.2a4.82 4.82 0 0 0 4.9-4.8 5 5 0 0 0-6.22-5 5 5 0 0 0 1.12 9.75Zm6.9-50H244a5.55 5.55 0 1 0 5.6 5.7 5.64 5.64 0 0 0-5.43-5.7m-118.3 12.3a6.77 6.77 0 0 0 4.9-4.9 6.8 6.8 0 0 0 8.5 4.8 6.67 6.67 0 0 0 4.8-4.8 6.8 6.8 0 0 0 8.5 4.8 6.67 6.67 0 0 0 4.8-4.8 6.9 6.9 0 0 0 13.3 0 6.9 6.9 0 0 0 13.3 0 6.8 6.8 0 0 0 8.5 4.8 6.67 6.67 0 0 0 4.8-4.8 6.8 6.8 0 0 0 8.5 4.8 7 7 0 0 0 4.8-4.8 6.8 6.8 0 0 0 8.5 4.8 6.88 6.88 0 0 0 5-5.6 6.41 6.41 0 1 0 0-1.7 6.92 6.92 0 0 0-13.5-.7 6.8 6.8 0 0 0-8.5-4.8 7 7 0 0 0-4.8 4.8 6.8 6.8 0 0 0-8.5-4.8 7 7 0 0 0-4.8 4.8 6.9 6.9 0 0 0-13.3 0 6.8 6.8 0 0 0-8.5-4.8 7 7 0 0 0-4.8 4.8 6.8 6.8 0 0 0-8.5-4.8 7 7 0 0 0-4.8 4.8 6.8 6.8 0 0 0-8.5-4.8 6.67 6.67 0 0 0-4.8 4.8 6.69 6.69 0 1 0-4.9 8.1m-23.6-5.8a5.36 5.36 0 0 0-5.2-5.5H97a5.35 5.35 0 0 0-.2 10.7 5.42 5.42 0 0 0 5.47-5.2m8 5.5a6.28 6.28 0 0 0 6.4-6.2 6.43 6.43 0 0 0-8.19-6.35 6.36 6.36 0 0 0-4.31 4.18 6.44 6.44 0 0 0 5.9 8.37Zm120.4 26.1a6.2 6.2 0 1 0-6.4-6.2 6.34 6.34 0 0 0 6.4 6.2m-127.1-13.2a6.05 6.05 0 1 0-6.2-6 6.1 6.1 0 0 0 6.2 6" class="cls-3"/><path d="M230.67 70.9a6.7 6.7 0 0 0-6.9-6.5 6.82 6.82 0 0 0-6.4 5.3 7.09 7.09 0 0 0-8.2-5.4 7 7 0 0 0-5.3 4.9 6.9 6.9 0 0 0-13.3 0 6.8 6.8 0 0 0-8.5-4.8 6.67 6.67 0 0 0-4.8 4.8 6.8 6.8 0 0 0-8.5-4.8 6.67 6.67 0 0 0-4.8 4.8 6.8 6.8 0 0 0-8.5-4.8 7 7 0 0 0-4.8 4.8 6.9 6.9 0 0 0-13.3 0 6.8 6.8 0 0 0-8.5-4.8 6.67 6.67 0 0 0-4.8 4.8 6.69 6.69 0 1 0-4.9 8.1 6.77 6.77 0 0 0 4.9-4.9 6.8 6.8 0 0 0 8.5 4.8 6.67 6.67 0 0 0 4.8-4.8 6.8 6.8 0 0 0 8.5 4.8 6.67 6.67 0 0 0 4.8-4.8 6.8 6.8 0 0 0 8.5 4.8 7 7 0 0 0 4.8-4.8 6.9 6.9 0 0 0 13.3 0 6.8 6.8 0 0 0 8.5 4.8 6.67 6.67 0 0 0 4.8-4.8 6.8 6.8 0 0 0 8.5 4.8 6.67 6.67 0 0 0 4.8-4.8 6.89 6.89 0 0 0 13.4-.5 6.88 6.88 0 0 0 8 5.2 6.42 6.42 0 0 0 5.4-6.2" class="cls-3"/><path d="M237.27 76a5.51 5.51 0 0 0 5.6-5.5 5.65 5.65 0 1 0-5.8 5.5Zm20-14h.1a4.5 4.5 0 1 0-4.5-4.6 4.54 4.54 0 0 0 4.4 4.6m-40 15.2a7 7 0 0 0-6.7 5.1 6.8 6.8 0 0 0-8.5-4.8 7 7 0 0 0-4.8 4.8 6.9 6.9 0 0 0-13.3 0 6.8 6.8 0 0 0-8.5-4.8 6.67 6.67 0 0 0-4.8 4.8 6.9 6.9 0 0 0-13.3 0 6.9 6.9 0 0 0-13.3 0 6.89 6.89 0 0 0-13.4.5 6.51 6.51 0 1 0-5.2 7.6 6.63 6.63 0 0 0 5.2-5.2 7.09 7.09 0 0 0 8.2 5.4 7 7 0 0 0 5.3-4.9 6.8 6.8 0 0 0 8.5 4.8 6.67 6.67 0 0 0 4.8-4.8 6.8 6.8 0 0 0 8.5 4.8 7 7 0 0 0 4.8-4.8 6.8 6.8 0 0 0 8.5 4.8 7 7 0 0 0 4.8-4.8 6.8 6.8 0 0 0 8.5 4.8 6.67 6.67 0 0 0 4.8-4.8 6.8 6.8 0 0 0 8.5 4.8 7 7 0 0 0 4.8-4.8 6.87 6.87 0 0 0 13.4-3 6.92 6.92 0 0 0-6.8-5.5m20-37.3a5 5 0 1 0 5.1 4.9 5 5 0 0 0-5.1-4.9M97.07 27H97a4.78 4.78 0 1 0 .11 0Zm.2 17.6a6.25 6.25 0 0 0 6.1 6.4h.2a6.15 6.15 0 0 0 6.2-6.1 6.25 6.25 0 1 0-12.5-.3m13.2-18.6h-.2a5.61 5.61 0 0 0-5.7 5.6 5.72 5.72 0 0 0 5.59 5.9 5.82 5.82 0 0 0 5.9-5.4 5.72 5.72 0 0 0-5.59-6.1m-20.2 14A5.3 5.3 0 0 0 85 45.1a5.24 5.24 0 0 0 5 5.39 5.32 5.32 0 0 0 5.51-4.91A5.25 5.25 0 0 0 90.37 40Zm-6.7-12.1a3.9 3.9 0 0 0 .2 7.8 4 4 0 0 0 3.8-3.9 4 4 0 0 0-4-3.9m147.1-1.3a5.25 5.25 0 1 0 5.4 5.3 5.42 5.42 0 0 0-5.4-5.3m-12.8 17.8a6.13 6.13 0 0 0 5.9 6.3c.1.1.1.1.2.1a6 6 0 0 0 6.1-6 6.1 6.1 0 1 0-12.2-.4m-.4-18.4h-.2a6.15 6.15 0 0 0-6.2 6.1 6.25 6.25 0 1 0 6.4-6.1m33.2 121.3a1.65 1.65 0 0 0 .1 3.3 1.58 1.58 0 0 0 1.6-1.6 1.69 1.69 0 0 0-1.7-1.7m26.8.7a.92.92 0 0 0-.9 1c0 .6.4.9 1 .9a.9.9 0 0 0 .9-.9 1.07 1.07 0 0 0-1-1" class="cls-3"/><circle cx="257.37" cy="161.9" r="1" class="cls-3"/><path d="M257.37 106.4a3.5 3.5 0 1 0 3.6 3.5 3.5 3.5 0 0 0-3.6-3.5m6.7 68.2a.43.43 0 0 0-.4.4c0 .2.2.4.4.3s.3-.2.3-.4a.27.27 0 0 0-.3-.3m-13.4-.2a.55.55 0 1 0 .1 1.1.47.47 0 0 0 .5-.5.58.58 0 0 0-.6-.6M244 133.2a2.65 2.65 0 1 0 2.7 2.6 2.61 2.61 0 0 0-2.7-2.6m0-27.5a4.15 4.15 0 1 0 4.3 4.2 4.31 4.31 0 0 0-4.3-4.2m13.37 82a.2.2 0 1 0 .2.2.22.22 0 0 0-.2-.2m-6.7-67.7a2.9 2.9 0 0 0 .2 5.8 2.82 2.82 0 0 0 2.8-2.9 3 3 0 0 0-3-2.9m13.4 27.6a1.25 1.25 0 1 0 1.3 1.2 1.31 1.31 0 0 0-1.3-1.2m0-27a2.35 2.35 0 1 0 2.4 2.4 2.31 2.31 0 0 0-2.4-2.4m6.7-66.3a3.48 3.48 0 0 0-3.4 3.6 3.5 3.5 0 0 0 7-.1 3.63 3.63 0 0 0-3.6-3.5m6.7 120.4a.2.2 0 1 0 .2.2.22.22 0 0 0-.2-.2m-6.7-67.7a2.85 2.85 0 1 0 2.9 2.9 2.88 2.88 0 0 0-2.9-2.9m0-26.7a3.48 3.48 0 0 0-3.4 3.6 3.5 3.5 0 0 0 7-.1 3.63 3.63 0 0 0-3.6-3.5m-.1 107.6c0 .1 0 .1.1.1s.1 0 .1-.1l-.1-.1c-.1 0-.1 0-.1.1m-6.6-94.3a3.25 3.25 0 1 0 3.3 3.3 3.33 3.33 0 0 0-3.3-3.3m6.7 67.5a.8.8 0 1 0 .8.8.86.86 0 0 0-.8-.8m0-27a1.8 1.8 0 0 0 .2 3.6 1.71 1.71 0 0 0 1.7-1.8 2 2 0 0 0-1.9-1.8m-13.4-.4a2.25 2.25 0 0 0 .1 4.5 2.25 2.25 0 0 0-.1-4.5m-13.37 27a1.25 1.25 0 1 0 1.3 1.2 1.18 1.18 0 0 0-1.3-1.2m-26.73-.4a1.65 1.65 0 1 0 1.7 1.6 1.6 1.6 0 0 0-1.7-1.6m0-27.8a3.35 3.35 0 1 0 .1 6.7 3.35 3.35 0 1 0-.1-6.7m-6.7-14a4.35 4.35 0 1 0 4.5 4.3 4.44 4.44 0 0 0-4.5-4.3m0 82.3a.1.1 0 1 0 0 .2c.1 0 .1 0 .1-.1a.1.1 0 0 0-.1-.1m0-26.9a1 1 0 1 0 1 .9 1.07 1.07 0 0 0-1-.9m13.43.2a.85.85 0 1 0 .1 1.7.85.85 0 0 0-.1-1.7m-13.43-27.6a2.45 2.45 0 1 0 2.5 2.4 2.34 2.34 0 0 0-2.5-2.4m6.7 41a.4.4 0 1 0 .4.4.43.43 0 0 0-.4-.4m20-40.5a2 2 0 0 0 .1 3.9 2 2 0 0 0 1.9-1.9 1.94 1.94 0 0 0-2-2m-13.27-.3a2.25 2.25 0 1 0 .1 4.5 2.22 2.22 0 0 0 2.2-2.2 2.33 2.33 0 0 0-2.3-2.3m13.27 27.5a.7.7 0 1 0 .7.7.68.68 0 0 0-.7-.7m6.73 13.4a.3.3 0 1 0 .3.3.32.32 0 0 0-.3-.3m-6.73-68.1a3.4 3.4 0 1 0 .2 6.8 3.41 3.41 0 0 0 3.3-3.4 3.34 3.34 0 0 0-3.5-3.4m-6.6 68.1a.4.4 0 1 0 .4.4c-.07-.3-.2-.4-.4-.4M224 119a3.9 3.9 0 0 0 .2 7.8 4 4 0 0 0 3.8-3.9 3.87 3.87 0 0 0-4-3.9m6.67 13.9a3 3 0 1 0 .2 6 3 3 0 0 0 2.9-3 3 3 0 0 0-3.1-3m0 27.5a1.39 1.39 0 0 0-1.4 1.5 1.45 1.45 0 1 0 2.9-.1 1.52 1.52 0 0 0-1.5-1.4m46.7-92.4a2.8 2.8 0 1 0 2.9 2.8 2.88 2.88 0 0 0-2.9-2.8m26.8 54a.85.85 0 1 0 .1 1.7.82.82 0 0 0 .8-.9.88.88 0 0 0-.9-.8m6.7-39.6a1.45 1.45 0 0 0 .1 2.9 1.43 1.43 0 0 0 1.4-1.4 1.61 1.61 0 0 0-1.5-1.5m0 26.4a1.1 1.1 0 1 0 1.1 1.1 1.11 1.11 0 0 0-1.1-1.1" class="cls-3"/><circle cx="317.57" cy="122.9" r=".5" class="cls-3"/><path d="M304.17 69.4a1.45 1.45 0 0 0 .1 2.9 1.43 1.43 0 0 0 1.4-1.4 1.54 1.54 0 0 0-1.5-1.5m13.4 26.6a.85.85 0 0 0 .1 1.7.86.86 0 0 0 .8-.8 1.06 1.06 0 0 0-.9-.9m-6.7 39.3a.6.6 0 1 0 .6.6.65.65 0 0 0-.6-.6m-6.7-39.8a1.35 1.35 0 0 0 .1 2.7 1.32 1.32 0 0 0 1.3-1.3 1.43 1.43 0 0 0-1.4-1.4m6.7 66.3a.1.1 0 1 0 .1.1c.03-.1.03-.1-.1-.1m6.6-12.9.1.1a.1.1 0 0 0 .1-.1l-.1-.1a.1.1 0 0 0-.1.1m13.4-52.5a.4.4 0 1 0 .4.4c.1-.2-.1-.4-.4-.4" class="cls-3"/><circle cx="330.87" cy="70.9" r=".5" class="cls-3"/><circle cx="337.57" cy="83.9" r=".5" class="cls-3"/><circle cx="330.87" cy="122.9" r=".2" class="cls-3"/><path d="M317.57 69.9a.92.92 0 0 0-.9 1c0 .6.4.9 1 .9a.9.9 0 0 0 .9-.9 1.07 1.07 0 0 0-1-1m6.6 65.7a.32.32 0 0 0-.3.3.45.45 0 0 0 .3.3.27.27 0 0 0 .3-.3c.1-.2-.1-.3-.3-.3m0 26.3c.1.1.1 0 0 0" class="cls-3"/><circle cx="324.17" cy="109.9" r=".7" class="cls-3"/><path d="M324.17 83a.9.9 0 1 0 .9.9c.1-.5-.4-.9-.9-.9m-120.3 49.3a3.6 3.6 0 1 0 .2 7.2 3.63 3.63 0 0 0 3.5-3.6 3.67 3.67 0 0 0-3.7-3.6m80.2-51.2a2.75 2.75 0 1 0 2.8 2.8 2.73 2.73 0 0 0-2.8-2.8m0 26.5a2.25 2.25 0 1 0 .1 4.5 2.22 2.22 0 0 0 2.2-2.2 2.26 2.26 0 0 0-2.3-2.3m0 26.9a1.28 1.28 0 0 0-1.3 1.4c.1.7.7 1.4 1.4 1.3a1.35 1.35 0 1 0-.1-2.7m6.7 13.8a.6.6 0 1 0 .6.6.58.58 0 0 0-.6-.6m0 26.5a.1.1 0 0 0 0 .2c.1 0 .1 0 .1-.1a.1.1 0 0 0-.1-.1m-13.3-80.4a2.55 2.55 0 1 0 2.6 2.6 2.56 2.56 0 0 0-2.6-2.6m6.6 67a.55.55 0 1 0 .1 1.1.47.47 0 0 0 .5-.5.58.58 0 0 0-.6-.6m20.1-12.9c-.2 0-.4.2-.3.4s.2.4.4.3.3-.2.3-.4a.45.45 0 0 0-.4-.3m-20.1-87.9a2.7 2.7 0 1 0-2.8-2.7 2.84 2.84 0 0 0 2.8 2.7m-6.7 60.5a1.8 1.8 0 1 0 .2 3.6 1.71 1.71 0 0 0 1.7-1.8 1.82 1.82 0 0 0-1.9-1.8m20.1-12.8a1.65 1.65 0 1 0 .1 3.3 1.58 1.58 0 0 0 1.6-1.6 1.63 1.63 0 0 0-1.7-1.7m0 26.6a1 1 0 0 0 .1 1.9 1.07 1.07 0 0 0 1-1 1.3 1.3 0 0 0-1.1-.9m0-53.1a2.05 2.05 0 0 0 .1 4.1 2.05 2.05 0 0 0-.1-4.1m0 79.8a.3.3 0 1 0 0 .6.3.3 0 0 0 0-.6m0-101.7a2.05 2.05 0 0 0-.1-4.1 2 2 0 0 0-2 2 2.11 2.11 0 0 0 2.1 2.1m-6.7 35.1a1.85 1.85 0 0 0 .1 3.7 1.88 1.88 0 0 0 1.8-1.9 1.82 1.82 0 0 0-1.9-1.8m0 26.6a1.35 1.35 0 0 0 .1 2.7 1.32 1.32 0 0 0 1.3-1.3 1.26 1.26 0 0 0-1.4-1.4m0-52.8a2 2 0 0 0-2 2.1 2.05 2.05 0 0 0 4.1-.1 2 2 0 0 0-2.1-2m-107 132.1a.1.1 0 0 0 .1.1c.1 0 .1 0 .1-.1l-.1-.1a.1.1 0 0 0-.1.1M97 161.2a.7.7 0 1 0 .7.7.75.75 0 0 0-.7-.7m26.67 26.5a.2.2 0 1 0 .2.2.22.22 0 0 0-.2-.2M97 134a2 2 0 1 0 .1 3.9A2 2 0 0 0 99 136a2.07 2.07 0 0 0-2-2m0-27.4a3.3 3.3 0 1 0 .2 6.6 3.24 3.24 0 0 0 3.2-3.3 3.35 3.35 0 0 0-3.4-3.3m-6.73 13.7a2.6 2.6 0 1 0 .2 5.2 2.56 2.56 0 0 0 2.5-2.6 2.73 2.73 0 0 0-2.7-2.6m0 54.3a.3.3 0 1 0 .3.3.45.45 0 0 0-.3-.3m-6.7-40.2a1.45 1.45 0 0 0 .1 2.9 1.45 1.45 0 0 0 1.4-1.5 1.52 1.52 0 0 0-1.5-1.4m20 40.1a.4.4 0 1 0 .4.4c.1-.2-.1-.4-.4-.4m-13.3-26.9a1.25 1.25 0 1 0 1.3 1.2 1.31 1.31 0 0 0-1.3-1.2m-6.7-40.4a2.65 2.65 0 1 0 2.7 2.6 2.67 2.67 0 0 0-2.7-2.6M117 174.3a.6.6 0 1 0 .6.6.58.58 0 0 0-.6-.6m0-27.3a2 2 0 0 0 .1 3.9 2 2 0 0 0 1.9-1.9 1.94 1.94 0 0 0-2-2m-13.43.3a1.55 1.55 0 1 0 1.6 1.5 1.49 1.49 0 0 0-1.6-1.5m6.8-41.5a4.1 4.1 0 1 0-.2 8.2h.1a4.1 4.1 0 0 0 4.1-4 4 4 0 0 0-4-4.2m6.63 13.4a3.7 3.7 0 1 0 3.8 3.7 3.71 3.71 0 0 0-3.8-3.7m-6.73 68.6a.1.1 0 1 0 0 .2c.1 0 .1 0 .1-.1a.1.1 0 0 0-.1-.1m-6.7-68a3.2 3.2 0 0 0-3.1 3.2 3.05 3.05 0 0 0 3.2 3 3.12 3.12 0 0 0 3.1-3.1 3 3 0 0 0-3.2-3.1m6.7 13.8a2.35 2.35 0 1 0 2.4 2.4 2.31 2.31 0 0 0-2.4-2.4m0 27.4a.92.92 0 0 0-.9 1c0 .6.4.9 1 .9a.9.9 0 0 0 .9-.9.94.94 0 0 0-1-1m-20-68.2a4.05 4.05 0 1 0 4.2 4.1 4.27 4.27 0 0 0-4.2-4.1m-26.8-25.2a3.3 3.3 0 1 0 .2 6.6 3.24 3.24 0 0 0 3.2-3.3 3.29 3.29 0 0 0-3.4-3.3" class="cls-3"/><circle cx="83.57" cy="161.9" r=".5" class="cls-3"/><path d="M63.47 94.3a2.52 2.52 0 0 0-2.6 2.6 2.65 2.65 0 0 0 2.6 2.6 2.58 2.58 0 0 0 2.6-2.6 2.52 2.52 0 0 0-2.6-2.6m0 80.6c.1.1.1 0 0 0m0-26.6a.6.6 0 1 0 .6.6c.1-.3-.2-.6-.6-.6m0-100.1a3.35 3.35 0 0 0-.1-6.7 3.35 3.35 0 1 0 .1 6.7m-6.7 33.4a2.25 2.25 0 1 0 .1 4.5 2.22 2.22 0 0 0 2.2-2.2 2.26 2.26 0 0 0-2.3-2.3m0 26.8a1.55 1.55 0 0 0 .1 3.1 1.54 1.54 0 0 0 1.5-1.5 1.52 1.52 0 0 0-1.6-1.6m0-53.1a2.6 2.6 0 0 0 .2 5.2 2.6 2.6 0 0 0-.2-5.2m6.7 66a1.55 1.55 0 1 0 .1 3.1 1.54 1.54 0 0 0 1.5-1.5 1.58 1.58 0 0 0-1.6-1.6m6.7 40.4c-.1 0-.2.1-.2.3s.1.2.3.2.2-.1.2-.3-.1-.2-.3-.2m6.7-13.7a.9.9 0 1 0 .9.9.9.9 0 0 0-.9-.9m0-54.4a3.3 3.3 0 1 0 .2 6.6 3.24 3.24 0 0 0 3.2-3.3 3.41 3.41 0 0 0-3.4-3.3m10.3-9.9a3.72 3.72 0 0 0-3.9-3.6 3.76 3.76 0 0 0-3.6 3.8 3.87 3.87 0 0 0 3.9 3.7 3.72 3.72 0 0 0 3.6-3.9m-10.3 37.1a2.05 2.05 0 0 0 .1 4.1 2.05 2.05 0 0 0-.1-4.1m-6.7-13a2.05 2.05 0 1 0 .1 4.1 2.05 2.05 0 0 0-.1-4.1m6.7 67a.1.1 0 1 0 .1.1c.03-.1.03-.1-.1-.1m-6.7-39.9a1.05 1.05 0 1 0 .1 2.1 1.05 1.05 0 1 0-.1-2.1m133.7 25.2a1.75 1.75 0 1 0 1.8 1.7 1.77 1.77 0 0 0-1.8-1.7M70.17 80.9a3 3 0 1 0 3 2.9 2.93 2.93 0 0 0-3-2.9m100.3 65.3a2.7 2.7 0 1 0 2.8 2.7 2.84 2.84 0 0 0-2.8-2.7m6.7 13.9a1.8 1.8 0 0 0 .2 3.6 1.71 1.71 0 0 0 1.7-1.8 2 2 0 0 0-1.9-1.8" class="cls-3"/><circle cx="177.17" cy="188" r=".5" class="cls-3"/><path d="M163.77 187.5a.4.4 0 1 0 .4.4c.1-.2-.1-.4-.4-.4m13.4-55.4a3.88 3.88 0 0 0-3.9 3.8 3.82 3.82 0 0 0 3.9 3.8 3.88 3.88 0 0 0 3.9-3.8 4 4 0 0 0-3.9-3.8m-13.4 28.1a1.75 1.75 0 0 0 .1 3.5 1.75 1.75 0 0 0 1.7-1.7 1.73 1.73 0 0 0-1.8-1.8m6.7 13.7a1.05 1.05 0 1 0 .1 2.1 1 1 0 0 0 1-1 1 1 0 0 0-1.1-1.1m-6.7-41.6a3.6 3.6 0 1 0 .2 7.2 3.6 3.6 0 0 0-.2-7.2m6.7 68.5c-.1 0-.1 0-.1.1s0 .1.1.1.1 0 .1-.1a.1.1 0 0 0-.1-.1m-113.7-65.6a.7.7 0 1 0 .7.7.68.68 0 0 0-.7-.7m140.4 38.7a1.05 1.05 0 0 0 .1 2.1 1 1 0 0 0 1-1 1 1 0 0 0-1.1-1.1m-73.5-13.2a1.2 1.2 0 1 0 1.2 1.2 1.16 1.16 0 0 0-1.2-1.2" class="cls-3"/><circle cx="203.87" cy="188" r=".5" class="cls-3"/><path d="M197.17 200.8a.1.1 0 0 0 0 .2c.1 0 .1 0 .1-.1a.1.1 0 0 0-.1-.1m-6.7-13.4a.5.5 0 1 0 .5.5c.1-.3-.2-.5-.5-.5m-6.6-41.2a2.7 2.7 0 1 0 2.8 2.7 2.84 2.84 0 0 0-2.8-2.7m0 27.6a1.1 1.1 0 1 0 1.1 1.1 1.11 1.11 0 0 0-1.1-1.1m6.6-41.7a3.88 3.88 0 0 0-3.9 3.8 3.82 3.82 0 0 0 3.9 3.8 3.88 3.88 0 0 0 3.9-3.8 3.82 3.82 0 0 0-3.9-3.8m0 28a1.74 1.74 0 0 0-1.7 1.9 1.79 1.79 0 0 0 1.9 1.7 1.71 1.71 0 0 0 1.7-1.8 1.82 1.82 0 0 0-1.9-1.8m6.7-13.8a2.65 2.65 0 1 0 2.7 2.7 2.63 2.63 0 0 0-2.7-2.7m-60.1 41.3a.3.3 0 1 0 .3.3q0-.15-.3-.3m0-54.8a3.1 3.1 0 1 0 3.2 3.1 3.27 3.27 0 0 0-3.2-3.1m-6.7-14.1a4.15 4.15 0 1 0 4.3 4.2 4.38 4.38 0 0 0-4.3-4.2m6.7 41.8a1.43 1.43 0 0 0-1.4 1.4 1.51 1.51 0 0 0 1.4 1.4 1.4 1.4 0 0 0 0-2.8m20-14.2a2.6 2.6 0 0 0 .2 5.2 2.56 2.56 0 0 0 2.5-2.6 2.67 2.67 0 0 0-2.7-2.6m-33.4-13.1a2.75 2.75 0 1 0 2.8 2.8 2.73 2.73 0 0 0-2.8-2.8m6.7 13.5a2.2 2.2 0 0 0 .2 4.4 2.14 2.14 0 0 0 2.1-2.2 2.38 2.38 0 0 0-2.3-2.2m0 27.5a.75.75 0 0 0 .1 1.5.71.71 0 0 0 .7-.8.77.77 0 0 0-.8-.7m0 26.7c-.1.1 0 .1 0 0m26.7-.1a.1.1 0 1 0 0 .2c.1 0 .1 0 .1-.1a.1.1 0 0 0-.1-.1m-6.7-68.3a3.4 3.4 0 1 0 .2 6.8 3.41 3.41 0 0 0 3.3-3.4 3.34 3.34 0 0 0-3.5-3.4m0 27.8a1.55 1.55 0 1 0 1.6 1.5 1.49 1.49 0 0 0-1.6-1.5" class="cls-3"/><circle cx="157.07" cy="174.9" r="1" class="cls-3"/><path d="M150.37 187.6a.4.4 0 1 0 .4.4.43.43 0 0 0-.4-.4m-6.7-41.1a2.45 2.45 0 1 0 2.5 2.4 2.29 2.29 0 0 0-2.5-2.4m.2-28.8a4.65 4.65 0 1 0-.3 9.3h.1a4.53 4.53 0 0 0 4.7-4.5 4.68 4.68 0 0 0-4.5-4.8m-.2 56.3a.9.9 0 1 0 .9.9c.1-.5-.3-.9-.9-.9" class="cls-3"/><path d="m169.07 163.31-1.94-18c-2.39-22.22-6.78-22.22-8.65-22.22-6.19 0-18.21 7-30.27 14.63l-17.39 11 8.33-18.17c6-13.15 5-17.92 3.84-19.59-1.83-2.64-7.88-4-18-4-2.86 0-6 .1-9.75.31l-20.84 1.2 16.82-11.76c15.51-10.84 18.38-16.5 18.06-19.34s-4.28-7.7-21.4-15l-20.69-8.82 22.54-2.34c18.41-1.91 23.5-4 24.9-5.1-.5-1.23-2.89-4.9-14.21-13.25L76.18 15l29.62 7.59c13.49 3.45 22 5 27.68 5 3.5 0 5.2-.64 5.61-1.23.85-1.2 1.9-6-6.41-25l-11.82-27 21.85 20.58c13 12.2 20.65 14.76 24.8 14.76 2.13 0 8.62 0 13.36-18.28l4.49-17.37 7.17 16.53c2.93 6.73 6.92 14.36 12 14.36 3 0 9.78-2.26 21.92-17.45l15.3-19.18L237.4-8c-2.73 14.84-1.26 20.26.45 22.2.38.42 1.37 1.54 5.24 1.54 7 0 18.35-3.8 26.29-6.66L291 1.31l-14.69 17c-7.1 8.2-7.86 11.44-7.92 12.25.72.49 3.81 1.91 15.2 1.91h2.53l18.92-.29L290 43c-10.95 7.85-16.37 13.9-16.12 18 .24 3.77 5.39 8.46 15.31 14l15.1 8.32L287 85.8c-18 2.59-27.27 6-30.09 11-2.64 4.68-.89 12.9 5.49 25.88l6.93 14.08-15-6.24c-16.49-6.87-29.58-11.45-39.89-11.45-11 0-21.33 4.88-35.8 28.67Zm-10.54-51.92c10.85 0 15.83 8.3 18.33 17.31 11.67-15.06 23.14-21.39 37.6-21.39 9.22 0 19.23 2.59 31.24 7-3.21-9.86-3-17.11.36-23.12 4.21-7.47 12.78-11.6 24.56-14.37-4.92-4.17-8.66-9.17-9-15.17-.42-6.69 3.5-12.79 9.07-18.28-6.14-1-11.14-3.2-13.41-7.77-1.6-3.21-1.37-6.7 0-10.25a56.6 56.6 0 0 1-14.06 2.14c-6.38 0-11.32-1.92-14.68-5.71-2.9-3.28-4.49-7.68-4.8-13.75-6.93 5.83-13.21 8.62-19.21 8.62-7.5 0-12.8-4.22-16.56-9.2-4.9 9.27-11.73 14-20.42 14-5.07 0-10.54-1.68-16.5-5.09 1.7 7.51 1.09 12.62-1.65 16.53-4.57 6.42-13.11 6.42-15.87 6.42a64 64 0 0 1-9.26-.76c2.54 3.67 3.52 7.23 2.45 10.8-1.67 5.61-7.42 8.74-17.18 10.85 6.51 4.32 11.34 9.5 12.06 16 .78 6.93-3.44 13.41-9.59 19.33 8.38.59 16.92 2.64 21.34 9.06 2.7 3.9 3.54 8.7 2.5 14.83 9.28-5.13 16.54-8 22.68-8Z" style="fill:#00ff9d"/><path d="M172.53 144.55c-3.79-35.66-13.77-34.3-48.54-12.07 12.92-28.59 1.7-33.8-30-31.95 28.54-20.22 28-31.12-4.46-45.12 34.66-3.66 40.64-9.2 13.82-29.27 41.43 10.78 50.05 7 34.22-29.63C170.39 27.85 181.32 9 186.12-9.87c6.56 15.18 17.19 32.94 44.57-1.82-6.28 34.8 5.84 36.54 40.3 24-16.56 19.42-10.76 24.5 14.71 24.1-23.9 17.37-25.63 28.06-.21 42.34-35.92 5.26-44.68 14.12-29.3 45.85-42.9-18.18-60.09-19.35-83.66 19.95" style="fill:#12121b"/><path d="M133.68 57.4A5.13 5.13 0 0 1 131 57a5.8 5.8 0 0 1-2-1.27l1.64-1.91a4 4 0 0 0 3.04 1.18 1.84 1.84 0 0 0 1.37-.45 1.16 1.16 0 0 0 .36-1.1.92.92 0 0 0-.36-.82 1.64 1.64 0 0 0-1.19-.36l-1.18-.09a4.5 4.5 0 0 1-2.91-1 3.43 3.43 0 0 1-1.1-2.37 5.1 5.1 0 0 1 .19-1.55 2.7 2.7 0 0 1 .82-1.18 3.65 3.65 0 0 1 1.36-.82 5.7 5.7 0 0 1 1.91-.36 5.4 5.4 0 0 1 2.46.27 5.3 5.3 0 0 1 1.82 1.11l-1.64 1.91a3.2 3.2 0 0 0-1.09-.72 2.73 2.73 0 0 0-1.55-.19 2.4 2.4 0 0 0-1.27.37 1.1 1.1 0 0 0-.37.91 1.3 1.3 0 0 0 .37.91 1.9 1.9 0 0 0 1.09.27l1.18.09a5.5 5.5 0 0 1 2.83.91 3.23 3.23 0 0 1 1.09 2.37 5 5 0 0 1-.18 1.64 3.8 3.8 0 0 1-.82 1.27 4.6 4.6 0 0 1-1.46.91 3.3 3.3 0 0 1-1.73.46Zm10.56-.73a4.4 4.4 0 0 1-1.91-.18 5.3 5.3 0 0 1-1.46-.82 3.5 3.5 0 0 1-.91-1.46 6.2 6.2 0 0 1-.43-1.9 5 5 0 0 1 .18-2 4.25 4.25 0 0 1 .73-1.55 3.8 3.8 0 0 1 1.27-1.09 3.9 3.9 0 0 1 1.82-.46 3.3 3.3 0 0 1 1.91.28 3.4 3.4 0 0 1 1.37.91 3.5 3.5 0 0 1 .82 1.45 10.4 10.4 0 0 1 .36 1.73l.09.73-5.82.36v.19a2 2 0 0 0 .54 1.36 2.1 2.1 0 0 0 1.55.46 2.6 2.6 0 0 0 1.28-.37 6 6 0 0 0 .91-.82L147.9 55a4.3 4.3 0 0 1-1.45 1.18 13.3 13.3 0 0 1-2.19.46Zm-.64-7.56a1.41 1.41 0 0 0-1.18.64 2.15 2.15 0 0 0-.36 1.37v.19l3.18-.18v-.19a1.8 1.8 0 0 0-.45-1.27 1 1 0 0 0-1.19-.55Zm6.56 6.89-.64-9.1 2.55-.18.09 1.54h.09A2.76 2.76 0 0 1 153 47a2.84 2.84 0 0 1 1.64-.64 2.4 2.4 0 0 1 2.18.82 4 4 0 0 1 .91 2.64l.37 5.65-2.55.18-.36-5.46a2.44 2.44 0 0 0-.37-1.28 1.1 1.1 0 0 0-1-.36c-.18 0-.36.09-.64.09l-.54.27a.93.93 0 0 0-.37.46 1.4 1.4 0 0 0-.09.54l.46 5.83Zm15.75-2.64a3.3 3.3 0 0 0-.37.73 1 1 0 0 1-.54.55 5 5 0 0 1-.73.45 2.8 2.8 0 0 1-.82.18 3.22 3.22 0 0 1-2.73-1 5.78 5.78 0 0 1-1.09-3.46 5.9 5.9 0 0 1 .63-3.55 3.14 3.14 0 0 1 2.55-1.36 3.6 3.6 0 0 1 1.64.36 2.53 2.53 0 0 1 1 1.19h.08l-.45-5.28 2.55-.19.9 12.75-2.55.18Zm-1.73-.19a1.66 1.66 0 0 0 1.18-.45 1.08 1.08 0 0 0 .37-1l-.2-2.65a.9.9 0 0 0-.54-.91 2.7 2.7 0 0 0-1.19-.27 1.55 1.55 0 0 0-1.18.64 1.75 1.75 0 0 0-.36 1.36l.09 1.55a2.34 2.34 0 0 0 .54 1.37 2.17 2.17 0 0 0 1.28.36Zm17.93-.36a5 5 0 0 1-1.36.91 5.7 5.7 0 0 1-2 .54 5.6 5.6 0 0 1-1.82-.09 3.2 3.2 0 0 1-1.36-.63 2.9 2.9 0 0 1-.82-1 3.1 3.1 0 0 1-.37-1.27 4 4 0 0 1 .09-1.09 3 3 0 0 1 .46-.91 7 7 0 0 1 .73-.82 8 8 0 0 1 .91-.73l-.57-.52a5.3 5.3 0 0 1-.82-1.36A2.9 2.9 0 0 1 175 45a2.6 2.6 0 0 1 .18-1.09 4.4 4.4 0 0 1 .64-1 3.3 3.3 0 0 1 1.09-.71 7 7 0 0 1 1.46-.37 6 6 0 0 1 1.36.09 3.1 3.1 0 0 1 1.1.46 1.8 1.8 0 0 1 .82.82 4.2 4.2 0 0 1 .35 1.2 4 4 0 0 1-.09 1.09 2.6 2.6 0 0 1-.46.91 2.5 2.5 0 0 1-.72.73 6.5 6.5 0 0 1-.91.73l2 1.91c.09-.36.18-.82.27-1.18a5.5 5.5 0 0 0 .09-1.28l2.92-.18.18 2.09-1.09.1a13 13 0 0 1-.64 2l2.55 2.46-3.1.22-.91-1.09Zm-3.11-.7a3.57 3.57 0 0 0 1.73-.64L178 48.92a9 9 0 0 0-.81.73 1.5 1.5 0 0 0-.19.82v.18a1.34 1.34 0 0 0 .55 1.09 2.25 2.25 0 0 0 1.45.37m-.49-8.47a.92.92 0 0 0-1 .81.6.6 0 0 0 0 .19v.1a.83.83 0 0 0 .27.63c.18.18.46.55.82.91a3 3 0 0 0 .82-.82 1.4 1.4 0 0 0 .27-.91v-.09a1.1 1.1 0 0 0-.36-.73c-.27 0-.55-.08-.82-.08Zm15.75 9.29-2.64.18-.82-12 5.74-.36a4.4 4.4 0 0 1 1.54.18 3 3 0 0 1 1.19.73 2.7 2.7 0 0 1 .82 1.18 4.85 4.85 0 0 1 0 3.74 3.4 3.4 0 0 1-1.53 1.42l2.73 4.55-2.91.19-2.46-4.28-1.91.09.27 4.37Zm2.28-6.83a1.44 1.44 0 0 0 .91-.36 1.34 1.34 0 0 0 .27-.91l-.09-.73a1.56 1.56 0 0 0-.37-.91 1.53 1.53 0 0 0-.91-.28l-2.73.19.18 3.18Zm10.13 6.21a4.4 4.4 0 0 1-1.91-.18 4.9 4.9 0 0 1-1.46-.81 3.5 3.5 0 0 1-.91-1.46A6.3 6.3 0 0 1 202 48a5 5 0 0 1 .18-2 4.25 4.25 0 0 1 .73-1.55 3.7 3.7 0 0 1 1.27-1.09 3.9 3.9 0 0 1 1.82-.46 3.3 3.3 0 0 1 1.91.28 3.4 3.4 0 0 1 1.37.91 3.5 3.5 0 0 1 .82 1.45 10.4 10.4 0 0 1 .36 1.73l.09.73-5.82.36v.19a2 2 0 0 0 .54 1.36 2 2 0 0 0 1.55.46 2.6 2.6 0 0 0 1.28-.37 6 6 0 0 0 .91-.82l1.36 1.55a3.4 3.4 0 0 1-1.45 1.18 6.9 6.9 0 0 1-2.19.46Zm-.64-7.65a1.41 1.41 0 0 0-1.18.64 2.15 2.15 0 0 0-.36 1.37v.18l3.18-.18v-.19a1.8 1.8 0 0 0-.45-1.27 1.37 1.37 0 0 0-1.19-.54Zm10.2 6.92a4 4 0 0 1-1.82-.18 3.44 3.44 0 0 1-1.37-.82 3.5 3.5 0 0 1-.91-1.46 10.4 10.4 0 0 1-.45-1.91 5 5 0 0 1 .18-2 4.25 4.25 0 0 1 .73-1.55 2.83 2.83 0 0 1 1.27-1 5.8 5.8 0 0 1 1.82-.45 4 4 0 0 1 2.37.45 3.65 3.65 0 0 1 1.46 1.65l-2 1a1.3 1.3 0 0 0-.54-.82 1.48 1.48 0 0 0-1.1-.27 1.28 1.28 0 0 0-1.09.55 2.1 2.1 0 0 0-.27 1.36l.09 1.73a2.37 2.37 0 0 0 .46 1.37 1.7 1.7 0 0 0 1.18.45 1.52 1.52 0 0 0 1.09-.45 2.15 2.15 0 0 0 .55-1l2 .73a3.54 3.54 0 0 1-1.27 2 5 5 0 0 1-2.37.63Zm9-.54a4.3 4.3 0 0 1-1.91-.19 4.9 4.9 0 0 1-1.46-.81 3.5 3.5 0 0 1-.91-1.46 6.3 6.3 0 0 1-.45-1.91 5 5 0 0 1 .18-2 4.05 4.05 0 0 1 .73-1.54 3.85 3.85 0 0 1 3.1-1.58 3.3 3.3 0 0 1 1.91.27 3.53 3.53 0 0 1 2.19 2.37 8.7 8.7 0 0 1 .36 1.73l.09.73-5.82.36v.18a1.75 1.75 0 0 0 2.11 1.81 2.57 2.57 0 0 0 1.28-.36 7 7 0 0 0 .91-.82l1.36 1.55a4 4 0 0 1-1.54 1.18 10.6 10.6 0 0 1-2.1.46Zm-.64-7.65a1.41 1.41 0 0 0-1.18.64 2.18 2.18 0 0 0-.36 1.36v.18l3.18-.18v-.18a1.76 1.76 0 0 0-.45-1.27 1.19 1.19 0 0 0-1.19-.54Zm7.1-3.1a2 2 0 0 1-1.18-.27 1.5 1.5 0 0 1-.45-.91v-.36a1.57 1.57 0 0 1 .27-.91c.18-.28.55-.37 1.09-.46a1.6 1.6 0 0 1 1.19.27 1.55 1.55 0 0 1 .45.91v.37a1.48 1.48 0 0 1-.27.91 2 2 0 0 1-1.1.46Zm-1.27 1 2.55-.18.64 9.11-2.55.18Zm7.58 8.56L234.35 41l2.55-.18 1.37 3.55 1.09 3.19h.17l.64-3.37.82-3.73 2.37-.1-2.36 9.31zm11-.54a4.4 4.4 0 0 1-1.91-.19 4.7 4.7 0 0 1-1.46-.82 3.4 3.4 0 0 1-.91-1.45 6.3 6.3 0 0 1-.45-1.91 5 5 0 0 1 .18-2 4.05 4.05 0 0 1 .73-1.54 3.86 3.86 0 0 1 3.09-1.55 3.3 3.3 0 0 1 1.91.27 5.1 5.1 0 0 1 1.37.91 3.8 3.8 0 0 1 .82 1.46 8.7 8.7 0 0 1 .36 1.73l.09.73-5.82.36v.18a2 2 0 0 0 .54 1.37 2.08 2.08 0 0 0 1.55.45 2.6 2.6 0 0 0 1.28-.36 7 7 0 0 0 .91-.82l1.36 1.55a3.5 3.5 0 0 1-1.55 1.18 5 5 0 0 1-2.09.46Zm-.64-7.56a1.41 1.41 0 0 0-1.18.64 2.18 2.18 0 0 0-.36 1.36v.18l3.18-.18v-.18a1.76 1.76 0 0 0-.47-1.26 1 1 0 0 0-1.19-.55ZM152 66.15l.64 9.74-2.64.18-.62-9.76-3.28.27-.18-2.36 9.19-.64.19 2.37Zm6.19-.73a2 2 0 0 1-1.18-.27 1.56 1.56 0 0 1-.46-.91v-.37a1.64 1.64 0 0 1 .27-.91c.19-.27.55-.36 1.1-.45a1.5 1.5 0 0 1 1.18.27 1.4 1.4 0 0 1 .46.91v.36a1.25 1.25 0 0 1-1.12 1.37 1 1 0 0 1-.25 0m-1.27 1.09 2.54-.18.64 9.1-2.55.18Zm5-.36 2.55-.19.09 1.55h.09a2.06 2.06 0 0 1 .82-1.27 3.1 3.1 0 0 1 1.53-.64 3.2 3.2 0 0 1 2.73 1 5.74 5.74 0 0 1 1.09 3.46 5.68 5.68 0 0 1-.63 3.55 3 3 0 0 1-2.57 1.39 2.9 2.9 0 0 1-.82-.09 7 7 0 0 1-.73-.28c-.18-.18-.46-.27-.55-.54a2.5 2.5 0 0 1-.36-.64h-.09l.36 5-2.55.18-1-12.47Zm4.74 6.92a1.54 1.54 0 0 0 1.18-.64 1.69 1.69 0 0 0 .36-1.37l-.09-1.54a2.26 2.26 0 0 0-.54-1.37 2 2 0 0 0-1.28-.46 1.75 1.75 0 0 0-1.18.46 1.15 1.15 0 0 0-.37 1l.19 2.64a.9.9 0 0 0 .54.91 1.62 1.62 0 0 0 1.21.36Zm9.46 1.36a4.64 4.64 0 0 1-2.27-.27 7.3 7.3 0 0 1-1.73-1.09l1.36-1.64a4.2 4.2 0 0 0 1.1.73 2.14 2.14 0 0 0 1.36.18 1.28 1.28 0 0 0 1-.28.81.81 0 0 0 .28-.63c0-.46-.37-.64-1-.73l-1-.09c-2.09-.09-3.09-1-3.27-2.55a2.5 2.5 0 0 1 .18-1.18 4 4 0 0 1 .63-1 2.3 2.3 0 0 1 1.1-.63 4.1 4.1 0 0 1 1.45-.28h1.26a3.7 3.7 0 0 1 1 .19c.27.09.55.27.82.36s.45.36.73.55l-1.37 1.63a3.7 3.7 0 0 0-1-.63 2.24 2.24 0 0 0-1.09-.18 1.22 1.22 0 0 0-.91.27.76.76 0 0 0-.28.54.58.58 0 0 0 .28.55 3.4 3.4 0 0 0 .73.27l1 .09c2 .1 3.09 1 3.18 2.55a2.3 2.3 0 0 1-.18 1.19 2.4 2.4 0 0 1-.73 1 5.3 5.3 0 0 1-1.18.73 2.4 2.4 0 0 1-1.46.36Zm17.21-1.36-1.09-2.83-4 .28-.67 2.9-2.64.18L188 61.31l3.28-.18L196 72.87Zm-3.55-9.47-1.09 4.64 2.73-.18Zm11.47 9.1a4 4 0 0 1-1.82-.18 3.8 3.8 0 0 1-1.43-.82 3.5 3.5 0 0 1-.91-1.46 10.4 10.4 0 0 1-.45-1.91 5 5 0 0 1 .18-2 4.25 4.25 0 0 1 .73-1.55 2.83 2.83 0 0 1 1.27-1 5.3 5.3 0 0 1 1.82-.45 4 4 0 0 1 2.37.45 3.7 3.7 0 0 1 1.5 1.63l-2 1a1.3 1.3 0 0 0-.54-.82 1.48 1.48 0 0 0-1.1-.27 1.3 1.3 0 0 0-1.09.54 2.12 2.12 0 0 0-.27 1.37l.09 1.73a2.3 2.3 0 0 0 .46 1.36 1.37 1.37 0 0 0 1.18.46 1.47 1.47 0 0 0 1.09-.46 2.15 2.15 0 0 0 .55-1l2 .73a3.4 3.4 0 0 1-1.27 2 8.8 8.8 0 0 1-2.37.64Zm5.28-.54-.64-9.11 2.55-.18.18 2h.09a1.9 1.9 0 0 1 .19-.73 2.5 2.5 0 0 1 1.1-1.09c.27-.09.54-.18.91-.27h.45l.19 2.37h-.64a3.54 3.54 0 0 0-1.64.45 1 1 0 0 0-.46 1.09l.37 5.28Zm10.56-.55a4 4 0 0 1-1.82-.18 3.8 3.8 0 0 1-1.37-.82 3.8 3.8 0 0 1-.91-1.46 6.3 6.3 0 0 1-.45-1.91 5 5 0 0 1 .18-2 4.1 4.1 0 0 1 .73-1.55 2.8 2.8 0 0 1 1.27-1 5.8 5.8 0 0 1 1.73-.46 4 4 0 0 1 1.82.18 3.6 3.6 0 0 1 1.37.82 3.34 3.34 0 0 1 .91 1.46 5.8 5.8 0 0 1 .45 1.91 4.7 4.7 0 0 1-.18 2 3.76 3.76 0 0 1-.73 1.55 2.57 2.57 0 0 1-1.27 1 4 4 0 0 1-1.77.46Zm-.09-2a1.35 1.35 0 0 0 1.18-.55 2.06 2.06 0 0 0 .36-1.36l-.09-1.83a1.49 1.49 0 0 0-.54-1.27 1.85 1.85 0 0 0-2.37.18 2.15 2.15 0 0 0-.36 1.37l.09 1.82a1.53 1.53 0 0 0 .54 1.27 1.62 1.62 0 0 0 1.19.37m9.24 1.39a4.64 4.64 0 0 1-2.24-.3 6.8 6.8 0 0 1-1.73-1.09L223.6 68a4 4 0 0 0 1.1.73 2.14 2.14 0 0 0 1.36.18 1.32 1.32 0 0 0 1-.27.81.81 0 0 0 .28-.64c0-.46-.37-.64-1-.73l-1-.09c-2.09-.09-3.09-1-3.27-2.55a2.5 2.5 0 0 1 .18-1.18 4 4 0 0 1 .63-1 2.3 2.3 0 0 1 1.1-.64 3.6 3.6 0 0 1 1.45-.27h1.28a3.3 3.3 0 0 1 1 .18c.27.09.55.27.82.36s.45.37.73.55l-1.37 1.64a3.7 3.7 0 0 0-1-.64 2.24 2.24 0 0 0-1.09-.18 1.22 1.22 0 0 0-.91.27.8.8 0 0 0-.28.55.56.56 0 0 0 .28.54 3.4 3.4 0 0 0 .73.28l1 .09c2 .09 3.09 1 3.18 2.55a2.56 2.56 0 0 1-.91 2.18 5.3 5.3 0 0 1-1.18.73 5.1 5.1 0 0 1-1.46.36Zm8.56-.63a4.7 4.7 0 0 1-2.28-.28 6.8 6.8 0 0 1-1.73-1.09l1.39-1.66a4.2 4.2 0 0 0 1.09.73 2.17 2.17 0 0 0 1.37.18 1.9 1.9 0 0 0 1-.27.81.81 0 0 0 .27-.64c0-.45-.36-.64-1-.73l-1-.09c-2.09-.09-3.1-1-3.28-2.55a2.8 2.8 0 0 1 .18-1.18 4.4 4.4 0 0 1 .64-1 2.13 2.13 0 0 1 1.09-.64 4.1 4.1 0 0 1 1.46-.27h1.27a3.4 3.4 0 0 1 1 .18c.27.09.54.27.82.36s.45.37.72.55l-1.36 1.64a3.7 3.7 0 0 0-1-.64 2.55 2.55 0 0 0-1.1-.18 1.26 1.26 0 0 0-.91.27.83.83 0 0 0-.27.55.57.57 0 0 0 .27.55 3.4 3.4 0 0 0 .73.27l1 .09c2 .09 3.1 1 3.19 2.55a2.56 2.56 0 0 1-.91 2.18 4.8 4.8 0 0 1-1.18.73 3.36 3.36 0 0 1-1.46.37Zm-79 17.56.64 9.75-2.64.18-.64-9.74-3.27.27-.19-2.39 9.2-.63.18 2.36Zm4.73-3.47 2.55-.19.36 5.28h.09a2.76 2.76 0 0 1 .73-1.27 2.84 2.84 0 0 1 1.64-.64 2.34 2.34 0 0 1 2.18.82 4.1 4.1 0 0 1 .91 2.64l.37 5.65-2.55.18-.37-5.46a2.34 2.34 0 0 0-.36-1.28 1.1 1.1 0 0 0-1-.36c-.18 0-.37.09-.64.09l-.55.27a1.16 1.16 0 0 0-.36.46 1.3 1.3 0 0 0-.09.54l.45 5.83-2.54.18Zm15 12a4.4 4.4 0 0 1-1.91-.18 3.8 3.8 0 0 1-1.46-.82 3.3 3.3 0 0 1-.91-1.46 6.2 6.2 0 0 1-.46-1.91 4.85 4.85 0 0 1 .19-2 4.1 4.1 0 0 1 .72-1.55 4 4 0 0 1 3.1-1.54 3.3 3.3 0 0 1 1.91.28 3.4 3.4 0 0 1 1.37.91 3.8 3.8 0 0 1 .82 1.45 10.4 10.4 0 0 1 .36 1.73l.09.73-5.83.37v.18a2 2 0 0 0 .55 1.36 2 2 0 0 0 1.55.46 2.46 2.46 0 0 0 1.27-.36 6 6 0 0 0 .91-.81l1.37 1.54a3.4 3.4 0 0 1-1.55 1.16 4.7 4.7 0 0 1-2.09.45Zm-.64-7.55a1.44 1.44 0 0 0-1.18.63 2.22 2.22 0 0 0-.37 1.37v.18l3.19-.18v-.17a1.78 1.78 0 0 0-.46-1.28 1 1 0 0 0-1.18-.53Zm18.21 4.18a2.42 2.42 0 0 1-.91 1.55 3 3 0 0 1-2.1.73 3.8 3.8 0 0 1-2-.27 3.22 3.22 0 0 1-1.64-1.1 5 5 0 0 1-1.18-1.82 10.3 10.3 0 0 1-.55-2.64 9.6 9.6 0 0 1 .18-2.73 4.9 4.9 0 0 1 1-2 6.6 6.6 0 0 1 1.63-1.36 4.3 4.3 0 0 1 2.19-.54 4.83 4.83 0 0 1 2.82.54 5.33 5.33 0 0 1 2 2l-2 1.38a3.7 3.7 0 0 0-.91-1.18 2.47 2.47 0 0 0-1.64-.37 3.18 3.18 0 0 0-1.91.82 2.9 2.9 0 0 0-.54 2.24v2a3.15 3.15 0 0 0 .91 2.19 2.5 2.5 0 0 0 2 .54 2.8 2.8 0 0 0 .91-.18 4.5 4.5 0 0 0 .73-.36 1.6 1.6 0 0 0 .45-.64 1.1 1.1 0 0 0 .09-.82v-.73l-2.27.18-.14-2.18L195 88l.45 6.73-2.09.27-.23-2Zm7.43 1.47a2.26 2.26 0 0 1-2-.55 2.23 2.23 0 0 1-.73-1.82l-.73-10.28 2.55-.19.73 10.84 1.18-.09.18 2Zm6.37-.27a4 4 0 0 1-1.82-.18 3.7 3.7 0 0 1-1.36-.82 4.1 4.1 0 0 1-.91-1.46 6.2 6.2 0 0 1-.46-1.91 5 5 0 0 1 .18-2 4.2 4.2 0 0 1 .7-1.58 2.73 2.73 0 0 1 1.3-1 5.6 5.6 0 0 1 1.73-.46 4 4 0 0 1 1.82.18 3.6 3.6 0 0 1 1.36.82 3.3 3.3 0 0 1 .89 1.46 5.8 5.8 0 0 1 .46 1.91 4.5 4.5 0 0 1-.19 2 3.7 3.7 0 0 1-.72 1.55 2.64 2.64 0 0 1-1.28 1 3.6 3.6 0 0 1-1.73.47Zm-.18-2a1.3 1.3 0 0 0 1.18-.54 2.08 2.08 0 0 0 .37-1.37l-.09-1.82a1.49 1.49 0 0 0-.55-1.27 1.32 1.32 0 0 0-1.18-.37 1.9 1.9 0 0 0-1.19.55 2.15 2.15 0 0 0-.36 1.37l.09 1.82a1.54 1.54 0 0 0 .55 1.27 1.7 1.7 0 0 0 1.18.37Zm5.28-11.4 2.55-.19.36 5.19h.09a2.06 2.06 0 0 1 .82-1.27 3.1 3.1 0 0 1 1.55-.64 3.2 3.2 0 0 1 2.73 1 5.74 5.74 0 0 1 1.09 3.46 5.68 5.68 0 0 1-.63 3.55 3.1 3.1 0 0 1-2.56 1.32 2.9 2.9 0 0 1-.82-.09 7 7 0 0 1-.73-.28c-.18-.18-.45-.27-.55-.54a2.5 2.5 0 0 1-.36-.64h-.09l.1 1.55-2.55.18-1-12.65Zm5 10.56a1.52 1.52 0 0 0 1.18-.64 1.69 1.69 0 0 0 .36-1.37l-.09-1.55a2.2 2.2 0 0 0-.54-1.36 2 2 0 0 0-1.28-.46 1.8 1.8 0 0 0-1.18.46 1.09 1.09 0 0 0-.36 1l.18 2.64a.91.91 0 0 0 .54.91 1.85 1.85 0 0 0 1.19.37m10.19 1.36a4.4 4.4 0 0 1-1.91-.18 4.9 4.9 0 0 1-1.46-.82 3.5 3.5 0 0 1-.91-1.46 6.6 6.6 0 0 1-.45-1.91 5 5 0 0 1 .18-2 4.25 4.25 0 0 1 .73-1.55 4 4 0 0 1 1.27-1.09 3.9 3.9 0 0 1 1.82-.46 3.3 3.3 0 0 1 1.92.28 3.6 3.6 0 0 1 1.36.91 3.74 3.74 0 0 1 .82 1.45 10.5 10.5 0 0 1 .37 1.73l.09.73-5.83.37V89a1.87 1.87 0 0 0 .55 1.36 2 2 0 0 0 1.54.46 2.6 2.6 0 0 0 1.28-.37 6 6 0 0 0 .91-.82l1.36 1.55a3.44 3.44 0 0 1-1.47 1.14 5.1 5.1 0 0 1-2.19.45Zm-.54-7.56a1.5 1.5 0 0 0-1.19.64 2.15 2.15 0 0 0-.36 1.37v.18l3.19-.18v-.18a1.84 1.84 0 0 0-.46-1.28 1.26 1.26 0 0 0-1.18-.54Zm7.28 3.1-1.18-4.82-.28-3.37 2.73-.16.28 3.36-.48 4.9Zm.73 4a2.1 2.1 0 0 1-1.19-.28 1.9 1.9 0 0 1-.45-.91v-.45a2 2 0 0 1 .27-1 1.46 1.46 0 0 1 1.19-.46 2.17 2.17 0 0 1 1.18.27 1.6 1.6 0 0 1 .45.91v.46a1.68 1.68 0 0 1-.27 1c-.18.28-.64.37-1.18.46" style="fill:#1161fe"/><path d="M132.36 109.81c-52.19-8.6-62.59 42.6-91.09 44.5 20.9 20.8 57.09-5.3 70 7Z" style="fill:#ff4746"/><path d="M122.21 94.5a7.81 7.81 0 0 1 4.6 14.09l.9.3 4.89.4c.2 0 .5.1.7.1 3.91.9 7.91 5 13.21 12.4l.2.2.39.5a4 4 0 0 1-.89 5.4l-.11.1-12.8 8.7-.2 1.5v32.31h-9.7l-.09-4.8c-.41-13.7-.7-20.5-1-20.5s-.91 8.4-1.6 25.3H111l.31-32.3-.2-1.3-12.9-8.79a3.83 3.83 0 0 1-1-5.32v-.07l.4-.5.29-.5c5.41-7.6 9.5-11.6 13.41-12.3h.09a.38.38 0 0 0 .31-.1h.1l4.59-.4 1.21-.4h-.08a7.77 7.77 0 0 1-1.41-10.88 7.38 7.38 0 0 1 6.09-3.14M106 123.8l-.1.1 4 2.7-.79-6.5c-.9 1-2 2.3-3.11 3.7m29.3-3.6-.79 6.3 3.79-2.6v-.1q-1.65-2.1-3-3.6" style="fill:#eee"/><path d="m112.27 118.91 5.3-4.8H127l5.3 4.8-10 9.4Zm5.8-3.4H121l6.11 6.1-4.8 4.6-7.81-7.3Z" style="fill-rule:evenodd;fill:#1161fe"/></g></svg>